<?xml version="1.0" standalone="no"?>
<!DOCTYPE svg PUBLIC "-//W3C//DTD SVG 20010904//EN"
 "http://www.w3.org/TR/2001/REC-SVG-20010904/DTD/svg10.dtd">
<svg version="1.0" xmlns="http://www.w3.org/2000/svg"
 width="344.000000pt" height="150.000000pt" viewBox="0 0 344.000000 150.000000"
 preserveAspectRatio="xMidYMid meet">

<g transform="translate(0.000000,150.000000) scale(0.100000,-0.100000)"
fill="#000000" stroke="none">
<path d="M274 1206 c-94 -44 -144 -136 -144 -266 0 -197 119 -307 294 -270 73
15 106 41 106 86 0 19 -2 34 -4 34 -3 0 -26 -11 -52 -25 -97 -52 -197 -26
-236 61 -27 62 -27 176 0 237 41 92 141 119 235 64 49 -29 57 -27 57 13 0 76
-151 115 -256 66z"/>
<path d="M769 1223 c-10 -2 -47 -93 -106 -256 -51 -139 -93 -261 -95 -272 -2
-17 3 -21 35 -23 24 -2 39 1 42 10 2 7 14 39 25 71 l21 57 109 0 109 0 21 -57
c11 -32 23 -64 25 -70 6 -18 85 -17 85 1 0 7 -42 130 -94 272 -102 280 -106
287 -177 267z m75 -223 c20 -58 36 -108 36 -112 0 -5 -38 -8 -84 -8 l-85 0 42
119 c23 66 45 117 48 113 4 -4 23 -54 43 -112z"/>
<path d="M1993 1213 c-16 -16 -186 -467 -195 -518 -3 -17 3 -20 36 -20 l39 0
25 68 25 68 110 -3 110 -3 22 -65 22 -65 41 -3 c33 -2 42 0 42 12 0 17 -179
517 -189 528 -4 4 -21 10 -38 14 -23 4 -36 1 -50 -13z m85 -221 l39 -112 -88
0 -87 0 41 119 c23 66 45 117 49 113 4 -4 25 -58 46 -120z"/>
<path d="M2967 1223 c-10 -2 -23 -17 -29 -31 -38 -99 -178 -497 -178 -508 0
-9 13 -14 38 -14 l38 0 24 70 24 70 111 0 111 0 23 -70 22 -70 39 0 c21 0 41
3 44 8 5 8 -178 521 -191 533 -11 11 -55 18 -76 12z m67 -209 c19 -54 37 -107
41 -116 6 -16 -1 -18 -79 -18 -47 0 -86 1 -86 3 0 4 66 198 75 220 4 10 9 16
11 14 3 -2 19 -49 38 -103z"/>
<path d="M1127 1213 c-4 -3 -7 -127 -7 -275 l0 -269 38 3 37 3 5 220 5 220 79
-205 c43 -113 82 -213 87 -222 15 -27 73 -24 86 5 5 12 45 110 88 217 43 107
82 199 87 205 4 5 8 -93 8 -219 l0 -227 38 3 37 3 3 259 c2 182 -1 263 -9 272
-14 18 -103 19 -117 2 -9 -12 -53 -115 -135 -318 -16 -41 -33 -79 -37 -83 -4
-4 -42 80 -84 188 -43 107 -84 202 -93 210 -15 15 -103 21 -116 8z"/>
<path d="M2355 1207 c-3 -7 -4 -129 -3 -272 l3 -260 38 -3 37 -3 0 120 0 121
35 0 c73 0 97 -29 155 -183 21 -56 22 -57 61 -57 30 0 39 4 39 18 0 27 -80
209 -100 227 -18 16 -17 18 27 60 l45 44 -4 60 c-5 68 -28 103 -85 127 -43 19
-242 19 -248 1z m210 -69 c51 -23 48 -118 -6 -145 -13 -7 -48 -13 -76 -13
l-53 0 0 85 0 85 55 0 c30 0 66 -5 80 -12z"/>
<path d="M322 228 c2 -75 6 -93 18 -93 11 0 16 14 20 50 4 36 9 50 20 50 11 0
16 -14 20 -49 8 -74 30 -72 30 3 0 50 -3 62 -20 71 -12 6 -29 9 -38 6 -14 -5
-18 0 -17 21 0 19 -6 29 -18 31 -16 3 -18 -5 -15 -90z"/>
<path d="M880 224 c0 -72 3 -95 13 -92 8 3 13 34 15 96 2 77 0 92 -13 92 -12
0 -15 -16 -15 -96z"/>
<path d="M1402 228 c2 -62 7 -93 16 -96 9 -3 12 20 12 92 0 80 -3 96 -15 96
-13 0 -15 -15 -13 -92z"/>
<path d="M1600 227 l0 -93 38 -1 c49 -2 72 20 72 67 0 44 -28 75 -59 65 -18
-5 -21 -2 -21 24 0 21 -5 31 -15 31 -12 0 -15 -17 -15 -93z m75 -28 c0 -27 -4
-34 -20 -34 -24 0 -35 53 -13 66 22 14 33 4 33 -32z"/>
<path d="M1854 307 c-10 -27 1 -170 14 -175 9 -3 12 20 12 92 0 59 -4 96 -10
96 -6 0 -13 -6 -16 -13z"/>
<path d="M2532 228 c2 -54 7 -93 13 -93 6 0 11 39 13 93 2 78 0 92 -13 92 -13
0 -15 -14 -13 -92z"/>
<path d="M2592 228 c2 -54 7 -93 13 -93 6 0 11 39 13 93 2 78 0 92 -13 92 -13
0 -15 -14 -13 -92z"/>
<path d="M180 295 c0 -9 9 -15 25 -15 23 0 24 -3 27 -72 2 -46 7 -73 16 -76 9
-3 12 16 12 72 0 74 1 76 25 76 16 0 25 6 25 15 0 12 -14 15 -65 15 -51 0 -65
-3 -65 -15z"/>
<path d="M630 295 c0 -9 9 -15 25 -15 23 0 24 -3 27 -72 2 -40 8 -73 13 -73 6
0 11 33 13 73 3 69 4 72 27 72 16 0 25 6 25 15 0 12 -14 15 -65 15 -51 0 -65
-3 -65 -15z"/>
<path d="M1255 285 c-67 -66 7 -185 91 -146 20 9 24 18 24 51 0 39 -1 40 -35
40 -19 0 -35 -4 -35 -10 0 -5 9 -10 21 -10 15 0 20 -5 17 -22 -5 -34 -48 -31
-68 5 -13 24 -13 30 1 55 13 23 21 27 57 25 29 -1 42 2 42 12 0 33 -82 34
-115 0z"/>
<path d="M2015 300 c-10 -17 -55 -144 -55 -157 0 -22 20 -14 32 12 16 36 65
35 78 -1 6 -14 16 -24 23 -21 15 5 13 13 -19 105 -24 67 -43 87 -59 62z m29
-66 c10 -26 7 -34 -15 -34 -15 0 -19 4 -15 16 3 9 6 20 6 25 0 15 17 10 24 -7z"/>
<path d="M2124 297 c-3 -8 -4 -47 -2 -88 2 -58 6 -74 18 -74 10 0 16 12 18 33
3 26 8 32 26 32 12 0 27 5 34 12 17 17 15 64 -4 82 -19 20 -83 21 -90 3z m74
-41 c4 -17 -12 -35 -30 -36 -5 0 -8 14 -8 31 0 24 4 30 17 27 10 -2 19 -12 21
-22z"/>
<path d="M2260 219 c0 -68 3 -90 13 -87 8 3 13 33 15 91 2 73 0 87 -13 87 -12
0 -15 -16 -15 -91z"/>
<path d="M2421 291 c-20 -36 -58 -150 -53 -156 11 -11 23 -4 34 20 16 35 60
35 77 -1 6 -14 17 -24 24 -21 15 5 13 12 -20 105 -26 73 -44 88 -62 53z m33
-57 c10 -26 7 -34 -15 -34 -15 0 -19 4 -15 16 3 9 6 20 6 25 0 15 17 10 24 -7z"/>
<path d="M2650 295 c0 -8 7 -15 15 -15 8 0 15 7 15 15 0 8 -7 15 -15 15 -8 0
-15 -7 -15 -15z"/>
<path d="M470 250 c-39 -39 -12 -120 39 -120 30 0 51 11 51 25 0 10 -10 12
-34 8 -25 -4 -35 -1 -39 11 -5 13 1 16 32 16 47 0 52 5 40 38 -18 46 -55 56
-89 22z m60 -20 c0 -5 -9 -10 -20 -10 -11 0 -20 5 -20 10 0 6 9 10 20 10 11 0
20 -4 20 -10z"/>
<path d="M760 250 c-39 -39 -12 -120 39 -120 30 0 51 11 51 26 0 10 -8 12 -31
7 -21 -4 -34 -1 -40 8 -7 11 1 15 34 19 38 4 42 8 39 30 -5 48 -57 65 -92 30z
m60 -20 c0 -5 -9 -10 -20 -10 -11 0 -20 5 -20 10 0 6 9 10 20 10 11 0 20 -4
20 -10z"/>
<path d="M950 250 c-11 -11 -20 -33 -20 -50 0 -29 29 -70 51 -70 17 0 49 20
49 31 0 6 -11 8 -29 4 -24 -5 -30 -2 -36 14 -3 12 -3 30 0 42 6 16 12 19 36
14 33 -8 40 9 10 25 -28 14 -38 13 -61 -10z"/>
<path d="M1062 254 c-28 -20 -31 -83 -4 -107 40 -37 102 -4 102 53 0 33 -30
70 -58 70 -10 0 -28 -7 -40 -16z m62 -36 c14 -23 -3 -53 -30 -53 -20 0 -31 33
-20 61 7 19 35 14 50 -8z"/>
<path d="M1473 244 c-20 -20 -24 -31 -19 -57 7 -35 29 -57 58 -57 25 0 68 44
68 70 0 25 -42 70 -65 70 -9 0 -27 -12 -42 -26z m62 -44 c0 -41 -27 -53 -45
-21 -14 27 4 64 28 59 12 -2 17 -13 17 -38z"/>
<path d="M1748 259 c-26 -15 -22 -27 10 -25 36 1 45 -18 9 -22 -30 -4 -50 -32
-41 -56 7 -19 30 -26 69 -22 28 3 30 6 33 51 5 69 -32 103 -80 74z m50 -81
c-7 -19 -38 -22 -38 -4 0 10 9 16 21 16 12 0 19 -5 17 -12z"/>
<path d="M2655 258 c-10 -24 -1 -123 10 -121 14 4 19 113 6 126 -7 7 -12 5
-16 -5z"/>
<path d="M2723 263 c-7 -2 -13 -11 -13 -19 0 -10 8 -12 30 -7 23 4 30 2 30
-11 0 -10 -8 -16 -23 -16 -27 0 -47 -17 -47 -41 0 -23 17 -33 62 -35 l38 -2 0
59 c0 47 -4 60 -19 69 -21 11 -38 12 -58 3z m47 -83 c0 -12 -28 -25 -36 -17
-9 9 6 27 22 27 8 0 14 -5 14 -10z"/>
<path d="M2833 254 c-8 -21 2 -119 12 -119 6 0 11 19 13 42 3 47 27 76 43 52
5 -8 9 -33 9 -57 0 -63 24 -50 28 15 2 37 -1 53 -14 64 -20 17 -85 19 -91 3z"/>
<path d="M2980 250 c-49 -49 -4 -139 55 -112 36 16 32 35 -5 27 -35 -8 -46 9
-36 51 6 22 10 25 36 19 34 -8 41 8 11 25 -28 14 -38 13 -61 -10z"/>
<path d="M3090 250 c-55 -55 15 -152 80 -110 20 12 6 24 -32 24 -49 1 -48 26
1 26 37 0 41 3 41 24 0 51 -53 73 -90 36z m55 -20 c4 -6 -5 -10 -20 -10 -15 0
-24 4 -20 10 3 6 12 10 20 10 8 0 17 -4 20 -10z"/>
</g>
</svg>
