<?xml version="1.0" encoding="UTF-8"?> <!-- Generator: Adobe Illustrator 23.0.3, SVG Export Plug-In . SVG Version: 6.00 Build 0) --> <svg xmlns="http://www.w3.org/2000/svg" xmlns:xlink="http://www.w3.org/1999/xlink" version="1.1" id="Layer_1" x="0px" y="0px" viewBox="0 0 1000 190.18" style="enable-background:new 0 0 1000 190.18;" xml:space="preserve"> <style type="text/css"> .st0{fill:#1DCAD3;} .st1{fill:#36B0C9;} .st2{fill:#231F20;} .st3{fill:#FFFFFF;} .st4{fill:#9164CC;} .st5{clip-path:url(#SVGID_2_);fill:url(#SVGID_3_);} .st6{fill:#201747;} .st7{fill-rule:evenodd;clip-rule:evenodd;fill:#10CFC9;} .st8{clip-path:url(#SVGID_5_);fill:#231F20;} .st9{fill-rule:evenodd;clip-rule:evenodd;fill:#231F20;} .st10{clip-path:url(#SVGID_7_);fill:#FFFFFF;} .st11{fill-rule:evenodd;clip-rule:evenodd;fill:#FFFFFF;} .st12{fill:#8CCEAF;} .st13{fill:#008476;} .st14{fill:#25BCBD;} .st15{fill:#004D70;} .st16{fill:#20BBBB;} .st17{fill:#024D70;} .st18{fill-rule:evenodd;clip-rule:evenodd;fill:#F58B1F;} .st19{fill-rule:evenodd;clip-rule:evenodd;fill:#18335B;} .st20{clip-path:url(#SVGID_9_);} .st21{clip-path:url(#SVGID_11_);} .st22{fill:#18335B;} .st23{fill:#F58B1F;} .st24{clip-path:url(#SVGID_15_);} .st25{clip-path:url(#SVGID_17_);} .st26{clip-path:url(#SVGID_21_);} .st27{clip-path:url(#SVGID_23_);} .st28{clip-path:url(#SVGID_27_);} .st29{clip-path:url(#SVGID_29_);} .st30{clip-path:url(#SVGID_33_);} .st31{clip-path:url(#SVGID_35_);} .st32{clip-path:url(#SVGID_39_);} .st33{clip-path:url(#SVGID_41_);} .st34{fill:#416BA9;} .st35{fill:#73C3D5;} .st36{opacity:0.8;} .st37{fill:#3A3A3A;} .st38{fill:url(#SVGID_44_);} .st39{fill:none;stroke:#000000;stroke-width:6.3384;} .st40{fill:none;stroke:#000000;stroke-width:3.1692;} .st41{fill:#48494B;} .st42{fill:#C1986C;} .st43{fill:url(#SVGID_63_);} .st44{fill:url(#SVGID_64_);} .st45{fill:url(#SVGID_65_);} .st46{fill:url(#SVGID_66_);} .st47{fill:url(#SVGID_67_);} .st48{fill:#4D4E4E;} .st49{fill:#27B373;} .st50{fill:#5DC4CD;} .st51{fill:#1E8756;} .st52{fill:#3D1152;} .st53{fill:#922C48;} .st54{fill-rule:evenodd;clip-rule:evenodd;fill:#922C48;} .st55{fill:#404041;} .st56{fill:#EC1C24;} .st57{fill:#373A36;} .st58{fill:#808184;} .st59{fill:#262261;} .st60{fill:#6FCBDC;} .st61{fill:#2F3436;} .st62{fill:#5F97D0;} .st63{fill:#132428;} .st64{fill:#85C041;} .st65{fill:#677784;} .st66{fill:url(#SVGID_68_);} .st67{opacity:0.2;clip-path:url(#SVGID_70_);} .st68{fill:#FFFEFA;} .st69{opacity:0.1;} .st70{fill:url(#SVGID_71_);} .st71{opacity:0.3;} .st72{opacity:0.08;} .st73{opacity:0.1;fill:url(#Wordmark_1_);} .st74{fill:url(#SVGID_104_);} .st75{opacity:0.6;fill:url(#SVGID_107_);} .st76{opacity:0.4;} .st77{fill:url(#SVGID_110_);} .st78{opacity:0.6;fill:url(#SVGID_113_);} .st79{fill:url(#SVGID_116_);} .st80{opacity:0.6;fill:url(#SVGID_119_);} .st81{fill:url(#SVGID_122_);} .st82{opacity:0.6;fill:url(#SVGID_125_);} .st83{fill:url(#SVGID_128_);} .st84{opacity:0.6;fill:url(#SVGID_131_);} .st85{fill:#221F1F;} .st86{fill:none;} .st87{fill:#00416B;} .st88{opacity:0.8;fill:url(#XMLID_323_);} .st89{fill:#4197CB;} .st90{fill:#003E52;} .st91{fill:#3F96B4;} .st92{fill:#B9DBE5;} .st93{opacity:0.3;fill:#231F20;} .st94{opacity:0.3;fill:#FFFFFF;} .st95{fill:#050013;} .st96{fill:#E87200;} .st97{fill:#FCB813;} .st98{fill:#3D3935;} .st99{fill:#FFB600;} .st100{fill:#FCB814;} .st101{fill:#F48120;} .st102{fill:#EF4E25;} .st103{fill:#ED3024;} .st104{fill:#E0592A;} .st105{fill:#00ADBB;} .st106{fill:#00829B;} .st107{fill:#93D500;} .st108{fill:#4D5A31;} .st109{fill:#6BA43A;} .st110{fill:#424143;} .st111{fill-rule:evenodd;clip-rule:evenodd;fill:#C7E6B4;} .st112{fill-rule:evenodd;clip-rule:evenodd;fill:#5A9891;} .st113{fill-rule:evenodd;clip-rule:evenodd;fill:#127870;} .st114{fill-rule:evenodd;clip-rule:evenodd;fill:#5CCFD5;} .st115{fill-rule:evenodd;clip-rule:evenodd;fill:#ACD5CD;} .st116{fill-rule:evenodd;clip-rule:evenodd;fill:#B5ECC9;} .st117{fill-rule:evenodd;clip-rule:evenodd;fill:#A1D683;} .st118{fill-rule:evenodd;clip-rule:evenodd;fill:#DEF0D3;} .st119{fill-rule:evenodd;clip-rule:evenodd;fill:#91B9B4;} .st120{fill-rule:evenodd;clip-rule:evenodd;fill:#006860;} .st121{fill-rule:evenodd;clip-rule:evenodd;fill:#00ADBB;} .st122{fill-rule:evenodd;clip-rule:evenodd;fill:#B4E7E9;} .st123{fill-rule:evenodd;clip-rule:evenodd;fill:#007565;} .st124{fill-rule:evenodd;clip-rule:evenodd;fill:#00CE7C;} .st125{fill-rule:evenodd;clip-rule:evenodd;fill:#5FD896;} .st126{fill:#007DA5;} .st127{fill:#313032;} .st128{fill:#24272A;} .st129{fill:#00AFAA;} .st130{fill:#66C9BA;} .st131{fill:#0069A7;} .st132{fill:#002F87;} .st133{fill:#8BC53F;} .st134{fill:#1A1A1A;} .st135{fill:#0095D6;} .st136{fill:#003F5F;} .st137{fill:#2D317C;} .st138{fill:#41BFBF;} .st139{fill:#293C97;} .st140{fill:#52C2BD;} .st141{fill:url(#SVGID_134_);} .st142{fill:url(#SVGID_135_);} .st143{fill:url(#SVGID_136_);} .st144{fill:#0DBEEA;} .st145{fill:#097EC2;} .st146{fill:#133C63;} .st147{fill:#3B91CF;} .st148{fill:#C8DEE8;} .st149{fill:#629BBA;} .st150{fill:#F8BE19;} .st151{fill:url(#SVGID_137_);} .st152{fill:url(#SVGID_138_);} .st153{fill:url(#SVGID_139_);} .st154{fill:#00233B;} .st155{fill:url(#SVGID_140_);} .st156{fill:url(#SVGID_141_);} .st157{fill:url(#SVGID_142_);} .st158{fill:url(#SVGID_143_);} .st159{fill:url(#SVGID_144_);} .st160{fill:url(#SVGID_145_);} .st161{fill:url(#SVGID_146_);} .st162{fill:url(#SVGID_147_);} .st163{fill:url(#SVGID_148_);} .st164{fill:url(#SVGID_149_);} .st165{fill:url(#SVGID_150_);} .st166{fill:url(#SVGID_151_);} .st167{fill:url(#SVGID_152_);} .st168{fill:url(#SVGID_153_);} .st169{fill:url(#SVGID_154_);} .st170{fill:url(#SVGID_155_);} .st171{fill:url(#SVGID_156_);} .st172{fill:url(#SVGID_157_);} .st173{fill:url(#SVGID_158_);} .st174{fill:url(#SVGID_159_);} .st175{fill:url(#SVGID_160_);} .st176{fill:url(#SVGID_161_);} .st177{fill:url(#SVGID_162_);} .st178{fill:url(#SVGID_163_);} .st179{fill:url(#SVGID_164_);} .st180{fill:url(#SVGID_165_);} .st181{fill:url(#SVGID_166_);} .st182{fill:url(#SVGID_167_);} .st183{fill:url(#SVGID_168_);} .st184{fill:url(#SVGID_169_);} .st185{fill:url(#SVGID_170_);} .st186{fill:url(#SVGID_171_);} .st187{fill:url(#SVGID_172_);} .st188{fill:url(#SVGID_173_);} .st189{fill:url(#SVGID_174_);} .st190{fill:url(#SVGID_175_);} .st191{fill:url(#SVGID_176_);} .st192{fill:url(#SVGID_177_);} .st193{fill:url(#SVGID_178_);} .st194{fill:#C31230;} .st195{fill:#807F82;} .st196{fill-rule:evenodd;clip-rule:evenodd;fill:#C31230;} .st197{fill-rule:evenodd;clip-rule:evenodd;fill:#807F82;} .st198{fill:#2D2D2D;} .st199{display:none;fill:#2D2D2D;} .st200{fill:#D11F3C;} .st201{fill:#E42C4C;stroke:#E42C4C;stroke-width:1.0503;stroke-miterlimit:10;} .st202{display:none;fill:#231F20;} .st203{display:none;fill:#FFFFFF;} .st204{fill:#FF7F30;} .st205{opacity:0.3;fill:#FF7F30;} .st206{opacity:0.6;fill:#FF7F30;} .st207{opacity:0.7;fill:#FF7F30;} .st208{fill:#221C35;} .st209{fill:#1B98D5;} .st210{fill:#173963;} .st211{fill:#009ADE;} .st212{fill:#003764;} .st213{fill:#2A7DE1;} .st214{opacity:0.4;clip-path:url(#XMLID_324_);fill:#221F1F;} .st215{fill:#002A3A;} .st216{fill:#0033A1;} .st217{fill:url(#SVGID_179_);} .st218{fill:url(#SVGID_180_);} .st219{fill:url(#SVGID_181_);} .st220{fill:url(#SVGID_182_);} .st221{fill:#007EC4;} .st222{fill-rule:evenodd;clip-rule:evenodd;fill:url(#SVGID_183_);} .st223{fill-rule:evenodd;clip-rule:evenodd;fill:#E6E7E8;} .st224{fill:#009345;} .st225{fill:#BBBCB8;} .st226{fill:#72C0EB;} .st227{fill:#939598;} .st228{fill-rule:evenodd;clip-rule:evenodd;fill:#2CB8EB;} .st229{fill:#2CB8EB;} .st230{fill:#81B83A;} .st231{fill-rule:evenodd;clip-rule:evenodd;fill:#81B83A;} .st232{enable-background:new ;} .st233{fill:#FF6F3E;} .st234{fill:#12143D;} .st235{fill:url(#SVGID_184_);} .st236{fill:url(#SVGID_185_);} .st237{fill:url(#SVGID_186_);} .st238{fill:url(#SVGID_187_);} .st239{fill:url(#SVGID_188_);} .st240{fill:url(#SVGID_189_);} .st241{fill:url(#SVGID_190_);} .st242{fill:url(#SVGID_191_);} .st243{fill:url(#SVGID_192_);} .st244{fill:#7C51A0;} .st245{fill:#9F66A9;} .st246{fill:#9F80B9;} .st247{fill:url(#SVGID_193_);} .st248{fill:url(#SVGID_194_);} .st249{fill:url(#SVGID_195_);} .st250{fill:url(#SVGID_196_);} .st251{fill:#2D3136;} .st252{fill:#76777A;} .st253{fill:#A7A8A9;} .st254{fill:#0082CA;} .st255{fill:#FFB259;} .st256{fill:#385CAD;} .st257{fill:#7BA0C4;} .st258{fill:#EBA900;} .st259{fill:#929497;} .st260{opacity:0.7;fill:#FFFFFF;} .st261{fill:#016BAF;} .st262{fill:#343432;} .st263{fill:#6D6E70;} .st264{fill:#F4B01B;} .st265{fill:#293271;} .st266{fill:#A1D33C;} .st267{fill:#212322;} .st268{fill:#0047BA;} .st269{fill:#969CDE;} .st270{fill:#047BC1;} .st271{fill:url(#SVGID_197_);} .st272{fill:url(#SVGID_198_);} .st273{fill:url(#SVGID_199_);} .st274{fill:url(#SVGID_200_);} .st275{fill:url(#SVGID_201_);} .st276{fill:url(#SVGID_202_);} .st277{fill:url(#SVGID_203_);} .st278{fill:#13517C;} .st279{fill:#0077A6;} .st280{fill:none;stroke:#231F20;stroke-width:5.9036;stroke-miterlimit:10;} .st281{fill:#00A94F;} .st282{fill:none;stroke:#231F20;stroke-width:3.2172;stroke-miterlimit:10;} .st283{fill:#59595C;} .st284{opacity:0.349;fill:#F9AE19;} .st285{opacity:0.349;fill:#E99F22;} .st286{opacity:0.349;fill:#E47D25;} .st287{fill:#F9AE19;} .st288{fill:#E99F22;} .st289{fill:#F09B20;} .st290{fill:#E47D25;} .st291{fill:#E89223;} .st292{opacity:0.651;fill:#F9AE19;} .st293{fill:#E68825;} .st294{opacity:0.651;fill:#E99F22;} .st295{fill:#EB8D23;} .st296{opacity:0.7725;fill:#EF9B21;} .st297{opacity:0.651;fill:#E47D25;} .st298{opacity:0.7725;fill:#EA9622;} .st299{fill:url(#SVGID_204_);} .st300{fill:#55575B;} .st301{fill:#EE424E;} .st302{fill:#34424B;} </style> <g> <g id="XMLID_1_"> <g> <path id="XMLID_2266_" class="st2" d="M240.14,85.13c8,0,14.54-3.16,19.62-9.49l10.43,10.75c-8.28,9.32-18.03,13.98-29.27,13.98 c-11.23,0-20.49-3.55-27.75-10.64c-7.27-7.1-10.9-16.05-10.9-26.87c0-10.82,3.7-19.84,11.11-27.08 c7.41-7.23,16.47-10.85,27.18-10.85c11.96,0,21.98,4.56,30.05,13.67l-10.12,11.48c-5.15-6.4-11.55-9.6-19.2-9.6 c-6.12,0-11.36,2-15.7,6c-4.35,4-6.52,9.39-6.52,16.17s2.05,12.23,6.16,16.33C229.32,83.08,234.29,85.13,240.14,85.13z"></path> <path id="XMLID_2264_" class="st2" d="M283.02,99.53V26.59h16.28v58.43h31.09v14.5H283.02z"></path> <path id="XMLID_2261_" class="st2" d="M401.65,89.46c-7.37,7.2-16.45,10.8-27.23,10.8c-10.78,0-19.86-3.6-27.23-10.8 c-7.37-7.2-11.06-16.15-11.06-26.87c0-10.71,3.69-19.67,11.06-26.87c7.37-7.2,16.45-10.8,27.23-10.8 c10.78,0,19.86,3.6,27.23,10.8c7.37,7.2,11.06,16.16,11.06,26.87C412.71,73.3,409.02,82.26,401.65,89.46z M396.12,62.64 c0-6.5-2.09-12.05-6.26-16.64c-4.17-4.59-9.3-6.89-15.39-6.89c-6.09,0-11.22,2.3-15.39,6.89c-4.17,4.59-6.26,10.14-6.26,16.64 c0,6.5,2.09,12.03,6.26,16.59c4.17,4.56,9.3,6.83,15.39,6.83c6.09,0,11.22-2.28,15.39-6.83 C394.04,74.68,396.12,69.15,396.12,62.64z"></path> <path id="XMLID_2259_" class="st2" d="M445.79,80.69c2.71,3.37,6.36,5.06,10.95,5.06c4.59,0,8.23-1.69,10.91-5.06 c2.68-3.37,4.02-7.98,4.02-13.83V26.59h16.28v40.8c0,10.57-2.92,18.69-8.76,24.36c-5.84,5.67-13.32,8.5-22.44,8.5 c-9.11,0-16.61-2.85-22.48-8.55c-5.88-5.7-8.82-13.81-8.82-24.31v-40.8h16.28v40.27C441.72,72.71,443.07,77.32,445.79,80.69z"></path> <path id="XMLID_2256_" class="st2" d="M560.56,36.14c6.95,6.36,10.43,15.22,10.43,26.55s-3.39,20.31-10.17,26.92 c-6.78,6.61-17.13,9.91-31.04,9.91h-24.94V26.59h25.77C543.62,26.59,553.6,29.78,560.56,36.14z M548.61,79.49 c4-3.76,6-9.22,6-16.38c0-7.16-2-12.68-6-16.54c-4-3.86-10.14-5.79-18.41-5.79h-9.08v44.34h10.33 C538.89,85.13,544.61,83.25,548.61,79.49z"></path> <path id="XMLID_2254_" class="st2" d="M663.64,26.59h16.28v72.93h-16.28l-34.74-45.7v45.7h-16.28V26.59h15.23l35.79,46.95V26.59z "></path> <path id="XMLID_2251_" class="st2" d="M749.83,99.53l-6.78-15.75h-30.57l-6.78,15.75h-17.32l31.51-72.93h15.75l31.51,72.93 H749.83z M727.81,48.3l-9.18,21.18h18.26L727.81,48.3z"></path> <path id="XMLID_2249_" class="st2" d="M801.16,40.68v58.85h-16.28V40.68h-20.66V26.59h57.59v14.09H801.16z"></path> <path id="XMLID_2247_" class="st2" d="M833.71,26.59h16.28v72.93h-16.28V26.59z"></path> <path id="XMLID_2245_" class="st2" d="M894.85,73.02l18.57-46.43h17.64l-29.32,72.93h-13.77l-29.32-72.93h17.64L894.85,73.02z"></path> <path id="XMLID_2243_" class="st2" d="M992.3,26.59v14.5H956v15.02h32.66V70H956v15.13h37.46v14.4h-53.74V26.59H992.3z"></path> <path id="XMLID_2241_" class="st2" d="M221.47,161.64c4.48,0,8.15-1.77,11-5.32l5.85,6.02c-4.64,5.23-10.11,7.84-16.41,7.84 c-6.3,0-11.48-1.99-15.56-5.97c-4.08-3.98-6.11-9-6.11-15.06c0-6.06,2.08-11.12,6.23-15.18c4.15-4.06,9.23-6.08,15.24-6.08 c6.71,0,12.32,2.56,16.84,7.66l-5.67,6.43c-2.89-3.59-6.47-5.38-10.76-5.38c-3.43,0-6.37,1.12-8.8,3.36 c-2.44,2.24-3.66,5.26-3.66,9.07c0,3.8,1.15,6.85,3.45,9.15C215.41,160.49,218.2,161.64,221.47,161.64z"></path> <path id="XMLID_2238_" class="st2" d="M279.02,164.07c-4.13,4.04-9.22,6.06-15.26,6.06c-6.04,0-11.13-2.02-15.27-6.06 c-4.13-4.03-6.2-9.05-6.2-15.06s2.07-11.03,6.2-15.06c4.13-4.04,9.22-6.06,15.27-6.06c6.04,0,11.13,2.02,15.26,6.06 c4.13,4.03,6.2,9.06,6.2,15.06S283.16,160.03,279.02,164.07z M275.92,149.04c0-3.65-1.17-6.75-3.51-9.33 c-2.34-2.57-5.21-3.86-8.63-3.86s-6.29,1.29-8.63,3.86c-2.34,2.57-3.51,5.68-3.51,9.33c0,3.65,1.17,6.75,3.51,9.3 c2.34,2.56,5.21,3.83,8.63,3.83s6.29-1.28,8.63-3.83C274.76,155.78,275.92,152.68,275.92,149.04z"></path> <path id="XMLID_2236_" class="st2" d="M329.56,143.98l-11.05,22.34h-5.44l-11-22.34v25.74h-9.12v-40.88h12.34l10.53,22.46 l10.59-22.46h12.28v40.88h-9.12V143.98z"></path> <path id="XMLID_2233_" class="st2" d="M376.9,132.48c2.87,2.44,4.3,6.18,4.3,11.23c0,5.05-1.47,8.74-4.42,11.08 c-2.94,2.34-7.44,3.51-13.48,3.51h-5.44v11.41h-9.12v-40.88h14.45C369.46,128.83,374.04,130.05,376.9,132.48z M370.21,148.57 c1.09-1.23,1.64-3.02,1.64-5.38c0-2.36-0.71-4.04-2.13-5.03c-1.42-0.99-3.64-1.49-6.64-1.49h-5.21v13.74h6.14 C367.05,150.41,369.11,149.8,370.21,148.57z"></path> <path id="XMLID_2231_" class="st2" d="M399.16,159.15c1.52,1.89,3.57,2.84,6.14,2.84c2.57,0,4.61-0.94,6.11-2.84 c1.5-1.89,2.25-4.48,2.25-7.75v-22.58h9.12v22.87c0,5.93-1.64,10.48-4.91,13.66c-3.28,3.18-7.47,4.77-12.58,4.77 c-5.11,0-9.31-1.6-12.6-4.8c-3.29-3.2-4.94-7.74-4.94-13.63v-22.87h9.12v22.58C396.87,154.68,397.64,157.26,399.16,159.15z"></path> <path id="XMLID_2229_" class="st2" d="M449.57,136.72v32.99h-9.12v-32.99h-11.58v-7.9h32.29v7.9H449.57z"></path> <path id="XMLID_2227_" class="st2" d="M467.82,128.83h9.13v40.88h-9.13V128.83z"></path> <path id="XMLID_2225_" class="st2" d="M515.6,128.83h9.12v40.88h-9.12l-19.48-25.62v25.62H487v-40.88h8.54l20.06,26.32V128.83z"></path> <path id="XMLID_2223_" class="st2" d="M561.34,148.89h9.18v14.5c-4.06,4.52-9.67,6.78-16.84,6.78c-6,0-11.04-1.99-15.12-5.97 c-4.08-3.98-6.11-9-6.11-15.06c0-6.06,2.08-11.12,6.23-15.18s9.16-6.08,15.03-6.08c5.87,0,10.96,1.93,15.29,5.79l-4.74,6.84 c-1.83-1.6-3.52-2.7-5.06-3.31c-1.54-0.6-3.21-0.91-5-0.91c-3.47,0-6.4,1.18-8.77,3.54c-2.38,2.36-3.57,5.47-3.57,9.33 c0,3.86,1.14,6.95,3.42,9.27c2.28,2.32,5,3.48,8.16,3.48c3.16,0,5.79-0.6,7.9-1.81V148.89z"></path> <path id="XMLID_2221_" class="st2" d="M622.16,128.83v8.01h-18.95v8.83h18.01v8.01h-18.01v16.02h-9.13v-40.88H622.16z"></path> <path id="XMLID_2218_" class="st2" d="M664.27,164.07c-4.13,4.04-9.22,6.06-15.26,6.06c-6.05,0-11.13-2.02-15.26-6.06 c-4.13-4.03-6.2-9.05-6.2-15.06s2.07-11.03,6.2-15.06c4.13-4.04,9.22-6.06,15.26-6.06c6.04,0,11.13,2.02,15.26,6.06 c4.13,4.03,6.2,9.06,6.2,15.06S668.41,160.03,664.27,164.07z M661.17,149.04c0-3.65-1.17-6.75-3.51-9.33 c-2.34-2.57-5.22-3.86-8.63-3.86s-6.29,1.29-8.63,3.86c-2.34,2.57-3.51,5.68-3.51,9.33c0,3.65,1.17,6.75,3.51,9.3 c2.34,2.56,5.22,3.83,8.63,3.83s6.29-1.28,8.63-3.83C660,155.78,661.17,152.68,661.17,149.04z"></path> <path id="XMLID_2216_" class="st2" d="M689.01,159.15c1.52,1.89,3.57,2.84,6.14,2.84c2.57,0,4.61-0.94,6.11-2.84 c1.5-1.89,2.25-4.48,2.25-7.75v-22.58h9.13v22.87c0,5.93-1.64,10.48-4.91,13.66c-3.27,3.18-7.47,4.77-12.58,4.77 s-9.31-1.6-12.6-4.8c-3.3-3.2-4.94-7.74-4.94-13.63v-22.87h9.13v22.58C686.73,154.68,687.49,157.26,689.01,159.15z"></path> <path id="XMLID_2214_" class="st2" d="M750.72,128.83h9.12v40.88h-9.12l-19.48-25.62v25.62h-9.13v-40.88h8.54l20.06,26.32V128.83 z"></path> <path id="XMLID_2211_" class="st2" d="M801.13,134.18c3.9,3.57,5.85,8.53,5.85,14.89c0,6.36-1.9,11.39-5.7,15.09 c-3.8,3.71-9.6,5.56-17.4,5.56H769.9v-40.88h14.45C791.64,128.83,797.23,130.61,801.13,134.18z M794.44,158.48 c2.24-2.1,3.36-5.17,3.36-9.18c0-4.02-1.12-7.11-3.36-9.27c-2.24-2.16-5.68-3.25-10.32-3.25h-5.09v24.86h5.79 C788.99,161.64,792.19,160.59,794.44,158.48z"></path> <path id="XMLID_2208_" class="st2" d="M842.83,169.71l-3.8-8.83H821.9l-3.8,8.83h-9.71l17.66-40.88h8.83l17.66,40.88H842.83z M830.49,140.99l-5.15,11.87h10.24L830.49,140.99z"></path> <path id="XMLID_2206_" class="st2" d="M871.61,136.72v32.99h-9.13v-32.99h-11.58v-7.9h32.29v7.9H871.61z"></path> <path id="XMLID_2204_" class="st2" d="M889.86,128.83h9.13v40.88h-9.13V128.83z"></path> <path id="XMLID_2201_" class="st2" d="M943.43,164.07c-4.13,4.04-9.22,6.06-15.26,6.06c-6.05,0-11.13-2.02-15.26-6.06 c-4.13-4.03-6.2-9.05-6.2-15.06s2.07-11.03,6.2-15.06c4.13-4.04,9.22-6.06,15.26-6.06c6.04,0,11.13,2.02,15.26,6.06 c4.13,4.03,6.2,9.06,6.2,15.06S947.56,160.03,943.43,164.07z M940.33,149.04c0-3.65-1.17-6.75-3.51-9.33 c-2.34-2.57-5.22-3.86-8.63-3.86c-3.41,0-6.29,1.29-8.63,3.86c-2.34,2.57-3.51,5.68-3.51,9.33c0,3.65,1.17,6.75,3.51,9.3 c2.34,2.56,5.22,3.83,8.63,3.83c3.41,0,6.29-1.28,8.63-3.83C939.16,155.78,940.33,152.68,940.33,149.04z"></path> <path id="XMLID_2199_" class="st2" d="M985.95,128.83h9.12v40.88h-9.12l-19.48-25.62v25.62h-9.13v-40.88h8.54l20.06,26.32V128.83 z"></path> </g> </g> <g id="XMLID_197_"> <g id="XMLID_392_"> <polygon id="XMLID_397_" class="st34" points="27.39,121.29 4.93,121.29 4.93,173.68 57.32,173.68 57.32,151.23 27.39,151.23 "></polygon> <polygon id="XMLID_395_" class="st34" points="139.65,121.45 139.65,151.23 109.88,151.23 109.72,151.06 109.72,173.68 162.11,173.68 162.11,121.29 139.49,121.29 "></polygon> <polygon id="XMLID_394_" class="st34" points="4.93,68.9 27.55,68.9 27.39,68.73 27.39,38.96 27.39,38.96 57.16,38.96 57.32,39.12 57.32,16.5 4.93,16.5 "></polygon> <polygon id="XMLID_393_" class="st34" points="109.72,16.5 109.72,38.96 139.65,38.96 139.65,68.9 162.11,68.9 162.11,16.5 "></polygon> </g> <g id="XMLID_200_"> <polygon id="XMLID_391_" class="st35" points="106.94,68.9 77,38.96 109.72,38.96 109.72,16.5 57.32,16.5 57.32,39.12 87.1,68.9 "></polygon> <polygon id="XMLID_390_" class="st35" points="79.94,121.29 60.1,121.29 84.9,146.1 90.04,151.23 79.78,151.23 57.32,151.23 57.32,173.68 109.72,173.68 109.72,151.06 94.83,136.17 "></polygon> <polygon id="XMLID_389_" class="st35" points="139.65,68.9 139.65,91.35 139.65,101.61 134.52,96.48 109.72,71.67 109.72,91.52 124.6,106.4 139.49,121.29 162.11,121.29 162.11,68.9 "></polygon> <polygon id="XMLID_388_" class="st35" points="57.32,98.66 27.55,68.9 4.93,68.9 4.93,121.29 27.39,121.29 27.39,88.58 57.32,118.51 "></polygon> </g> </g> </g> </svg> 