<?xml version="1.0" encoding="UTF-8"?> <svg xmlns="http://www.w3.org/2000/svg" xmlns:xlink="http://www.w3.org/1999/xlink" width="140px" height="41px" viewBox="0 0 140 41"><!-- Generator: Sketch 53 (72520) - https://sketchapp.com --><title>Group 29</title><desc>Created with Sketch.</desc><defs><polygon id="path-1" points="0 40.0306784 139.170585 40.0306784 139.170585 0.000254926198 0 0.000254926198"></polygon></defs><g id="Projekt" stroke="none" stroke-width="1" fill="none" fill-rule="evenodd"><g id="UX-LP" transform="translate(-170.000000, -20.000000)"><g id="Group-19" transform="translate(170.018987, 20.000000)"><g id="Group-29" transform="translate(0.000000, 0.017944)"><path d="M72.0589049,39.3071342 C72.4279106,39.3071342 72.7777968,39.133147 73.1092008,38.7851728 L74.0090903,38.7851728 C73.8535853,39.1580023 73.5980218,39.4594526 73.2417624,39.6876115 C72.8848658,39.9164078 72.4948287,40.0304873 72.0716512,40.0304873 C71.4713,40.0304873 70.9569864,39.8144373 70.5267984,39.3829747 C70.0966105,38.9502375 69.8818352,38.4346493 69.8818352,37.8349354 C69.8818352,37.2435066 70.0946985,36.7349288 70.5204253,36.3092021 C70.946152,35.8834753 71.4566417,35.670612 72.0525317,35.670612 C72.6605307,35.670612 73.1850414,35.8930351 73.6254264,36.337244 C73.7930404,36.5054953 73.9294259,36.7107108 74.0345829,36.9541654 L73.1531756,36.9541654 C72.9734526,36.7444886 72.7854446,36.5985433 72.590426,36.5169669 C72.3954075,36.4347532 72.2073994,36.393965 72.0270391,36.393965 C71.6580334,36.393965 71.3387384,36.5386357 71.0678793,36.8279769 C70.7976575,37.1173181 70.6619093,37.4576446 70.6619093,37.8470444 C70.6619093,38.2415427 70.8002068,38.5837811 71.0768017,38.8731223 C71.354034,39.1624636 71.6809768,39.3071342 72.0589049,39.3071342" id="Fill-1" fill="#2D2926"></path><path d="M77.1234599,36.4759238 L77.1234599,37.7594772 L77.620566,37.7594772 C77.8512742,37.7594772 78.0335465,37.7014815 78.16802,37.5854901 C78.3018563,37.4694987 78.3694117,37.3108071 78.3694117,37.1081408 C78.3694117,36.9143969 78.301219,36.7601665 78.1648334,36.6467244 C78.0284479,36.5326449 77.846813,36.4759238 77.620566,36.4759238 L77.1234599,36.4759238 Z M77.1234599,39.9486559 L76.3433858,39.9486559 L76.3433858,35.7519334 L77.6269392,35.7519334 C78.1763051,35.7519334 78.5790885,35.9055264 78.8352893,36.2114379 C79.0398676,36.4593536 79.1431127,36.7404097 79.1431127,37.0546063 C79.1431127,37.373264 79.0551632,37.6543202 78.8786268,37.8977747 C78.7027277,38.1412292 78.4254955,38.3088432 78.0482047,38.4012539 L79.1813517,39.9486559 L78.2432233,39.9486559 L77.1234599,38.3445328 L77.1234599,39.9486559 Z" id="Fill-3" fill="#2D2926"></path><polygon id="Fill-5" fill="#2D2926" points="83.8177582 39.9487834 81.559112 39.9487834 81.559112 35.7520609 83.8177582 35.7520609 83.8177582 36.4760513 82.3391862 36.4760513 82.3391862 37.5072277 83.7546639 37.5072277 83.7546639 38.2312181 82.3391862 38.2312181 82.3391862 39.2254303 83.8177582 39.2254303"></polygon><path d="M87.9385764,36.8534058 L87.4854451,38.1433323 L88.3853346,38.1433323 L87.9385764,36.8534058 Z M86.7436099,39.9488471 L85.8876951,39.9488471 L87.6301157,35.7521246 L88.240664,35.7521246 L90.002204,39.9488471 L89.1405534,39.9488471 L88.6937953,38.8666854 L87.2088502,38.8666854 L86.7436099,39.9488471 Z" id="Fill-7" fill="#2D2926"></path><polygon id="Fill-9" fill="#2D2926" points="93.2110238 39.9487834 92.4373228 39.9487834 92.4373228 36.4760513 91.6572486 36.4760513 91.6572486 35.7520609 93.9847248 35.7520609 93.9847248 36.4760513 93.2110238 36.4760513"></polygon><mask id="mask-2" fill="white"><use xlink:href="#path-1"></use></mask><g id="Clip-12"></g><polygon id="Fill-11" fill="#2D2926" mask="url(#mask-2)" points="96.2563084 39.9491021 97.0363826 39.9491021 97.0363826 35.7523795 96.2563084 35.7523795"></polygon><polygon id="Fill-13" fill="#2D2926" mask="url(#mask-2)" points="100.408546 39.9487834 99.6284721 39.9487834 99.6284721 35.7520609 100.515615 35.7520609 102.258036 38.8035275 102.258036 35.7520609 103.03811 35.7520609 103.03811 39.9487834 102.170086 39.9487834 100.408546 36.90369"></polygon><path d="M108.940098,38.5394239 L107.184931,38.5394239 L107.184931,37.8160708 L109.921563,37.8160708 L109.921563,37.9040204 C109.921563,38.4827028 109.702327,38.9823582 109.263854,39.4017118 C108.825381,39.8210654 108.304694,40.0307422 107.700519,40.0307422 C107.075312,40.0307422 106.543154,39.8185161 106.102132,39.3953386 C105.661747,38.9715238 105.441873,38.4578475 105.441873,37.8536725 C105.441873,37.2539586 105.661747,36.7402823 106.102132,36.3120063 C106.543154,35.8843676 107.068939,35.6708669 107.6814,35.6708669 C108.126246,35.6708669 108.542413,35.796418 108.930538,36.0481577 C109.318663,36.29926 109.577413,36.6121819 109.707425,36.9856487 L108.782681,36.9856487 C108.522656,36.5911505 108.149189,36.39422 107.662917,36.39422 C107.260134,36.39422 106.91917,36.535704 106.640663,36.8186721 C106.361519,37.1016402 106.221947,37.4489771 106.221947,37.8600456 C106.221947,38.2711141 106.364068,38.6152645 106.646399,38.8918594 C106.930005,39.1684543 107.281165,39.3073891 107.700519,39.3073891 C107.968829,39.3073891 108.212921,39.2391963 108.433432,39.1028108 C108.653943,38.9664253 108.822194,38.7784172 108.940098,38.5394239" id="Fill-14" fill="#2D2926" mask="url(#mask-2)"></path><polygon id="Fill-15" fill="#2D2926" mask="url(#mask-2)" points="117.559726 39.9487834 116.924322 39.9487834 115.288334 35.7520609 116.106647 35.7520609 117.239156 38.9418249 118.371029 35.7520609 119.182969 35.7520609"></polygon><path d="M122.699612,36.8534058 L122.247118,38.1433323 L123.14637,38.1433323 L122.699612,36.8534058 Z M121.504645,39.9488471 L120.64873,39.9488471 L122.391788,35.7521246 L123.001699,35.7521246 L124.763239,39.9488471 L123.901589,39.9488471 L123.454831,38.8666854 L121.969885,38.8666854 L121.504645,39.9488471 Z" id="Fill-16" fill="#2D2926" mask="url(#mask-2)"></path><polygon id="Fill-17" fill="#2D2926" mask="url(#mask-2)" points="129.016428 39.9487834 126.959174 39.9487834 126.959174 35.7520609 127.739248 35.7520609 127.739248 39.2254303 129.016428 39.2254303"></polygon><path d="M131.294385,38.4199273 L131.294385,35.7521246 L132.068086,35.7521246 L132.068086,38.4199273 C132.068086,39.011356 132.309628,39.3070704 132.792076,39.3070704 C133.273887,39.3070704 133.515429,39.011356 133.515429,38.4199273 L133.515429,35.7521246 L134.28913,35.7521246 L134.28913,38.4199273 C134.28913,38.952723 134.145734,39.3542318 133.858305,39.6250909 C133.570876,39.8953126 133.217803,40.0304235 132.797812,40.0304235 C132.50401,40.0304235 132.232513,39.9571322 131.983323,39.8105497 C131.733495,39.6639671 131.552497,39.4727725 131.439055,39.237603 C131.342821,39.0323875 131.294385,38.7596164 131.294385,38.4199273" id="Fill-18" fill="#2D2926" mask="url(#mask-2)"></path><polygon id="Fill-19" fill="#2D2926" mask="url(#mask-2)" points="139.102392 39.9487834 136.843746 39.9487834 136.843746 35.7520609 139.102392 35.7520609 139.102392 36.4760513 137.62382 36.4760513 137.62382 37.5072277 139.039298 37.5072277 139.039298 38.2312181 137.62382 38.2312181 137.62382 39.2254303 139.102392 39.2254303"></polygon><path d="M8.86104344,33.2523183 C3.03789177,33.2523183 -0.000191194648,29.7082068 -0.000191194648,21.6047403 C-0.000191194648,13.5038231 3.20678037,10.0004998 8.86104344,10.0004998 C10.2962779,10.0004998 11.7308751,10.1279629 14.5153065,10.7608172 L13.7976893,14.2201657 C11.5199237,13.5038231 10.2548524,13.3776346 9.24152079,13.3776346 C5.40105762,13.3776346 4.00852327,15.5285744 4.00852327,21.5633148 C4.00852327,28.1474212 5.73819752,29.8758208 9.19818334,29.8758208 C10.2962779,29.8758208 11.2242093,29.7082068 14.2208667,28.5259866 L14.9378467,31.9866097 C11.6888123,33.0413669 10.2121523,33.2523183 8.86104344,33.2523183" id="Fill-20" fill="#2D2926" mask="url(#mask-2)"></path><path d="M55.6287202,13.9672789 C53.899046,13.4185503 52.0839715,13.1648987 50.9450887,13.1648987 C47.9497059,13.1648987 45.2908256,14.5160076 45.2908256,21.942645 C45.2908256,28.6943654 47.2314513,29.9594366 50.0158827,29.9594366 C51.2822286,29.9594366 52.505237,29.7083343 55.6287202,28.1035739 L55.6287202,13.9672789 Z M55.7969715,32.8299056 L55.7969715,31.0154684 L55.5012572,31.0154684 C52.3369857,32.8299056 50.6500116,33.2524458 49.0452512,33.2524458 C44.6586086,33.2524458 41.2387737,31.0581685 41.2387737,21.9005822 C41.2387737,12.7436332 45.5438399,9.99998996 50.2268341,9.99998996 C51.4517545,9.99998996 53.3503174,10.2530042 55.6287202,11.0547471 L55.6287202,0.548601178 L59.3837831,-0.000127463099 L59.3837831,32.8299056 L55.7969715,32.8299056 Z" id="Fill-21" fill="#2D2926" mask="url(#mask-2)"></path><path d="M62.975056,32.8296507 L66.7320308,32.8296507 L66.7320308,10.4229125 L62.975056,10.4229125 L62.975056,32.8296507 Z M64.8736188,5.86546942 C63.3963215,5.86546942 62.4690275,5.02166371 62.4690275,3.54436639 C62.4690275,2.11040653 63.3963215,1.2659635 64.8736188,1.2659635 C66.2240903,1.2659635 67.237422,2.02564357 67.237422,3.54436639 C67.237422,4.97896357 66.3509161,5.86546942 64.8736188,5.86546942 L64.8736188,5.86546942 Z" id="Fill-22" fill="#2D2926" mask="url(#mask-2)"></path><path d="M35.8762737,19.7709925 L35.8858334,19.8277135 C36.5288847,22.5006147 35.7723912,25.2735744 33.862994,27.2460659 C32.3474578,28.8100381 30.3131467,29.6716887 28.1348024,29.6716887 C27.5223422,29.6716887 26.9105193,29.601584 26.3159039,29.4626492 L26.2426127,29.4530895 C26.0839211,29.4479909 25.9137579,29.444167 25.7365841,29.444167 C24.6983972,29.444167 23.8826334,29.5563346 23.3115987,29.7762084 C23.1580057,29.8354788 22.9929409,29.8647953 22.8208658,29.8647953 C21.9757854,29.8647953 21.1670321,29.173308 21.0140763,29.0350105 L20.9955942,29.0184403 L20.9924076,29.0152537 C20.8687684,28.8871533 19.7929798,27.7317003 20.1435034,26.7024358 C20.5188822,25.6017919 20.3786728,23.8721177 20.2601321,22.9282534 C19.8726443,20.4338006 20.6565423,17.9654777 22.4104346,16.1548643 C23.9253335,14.5908921 25.9583699,13.7292416 28.1367143,13.7292416 C28.4056614,13.7292416 28.6777952,13.7432625 28.9410065,13.7693925 C28.970323,13.772579 29.6573491,13.8490569 30.5113518,13.8490569 C31.5291447,13.8490569 32.3327995,13.7419879 32.9006476,13.5297618 C33.0485048,13.4749527 33.2071964,13.4469108 33.3735357,13.4469108 C34.2313624,13.4469108 35.0751681,14.1670773 35.2357716,14.3117479 L35.2548911,14.3308674 C35.4518215,14.536083 36.4160799,15.608685 36.0732042,16.5984359 C35.7641061,17.4887657 35.7953346,18.8150192 35.8762737,19.7709925 M39.3579282,15.3046855 C39.8837135,13.7878746 38.8327802,12.2997429 38.3076323,11.6834588 L38.3267517,11.6579662 L38.0616285,11.4113251 C38.0367732,11.3851952 38.0227523,11.3730862 38.0227523,11.3730862 L37.9819641,11.3386712 C37.5830046,10.9862357 36.3568095,10.0149669 34.994229,10.0149669 C34.6723847,10.0149669 34.3620121,10.0704133 34.0707589,10.178757 C33.4340807,10.4164756 32.4583507,10.5420268 31.2480885,10.5420268 C30.1799478,10.5420268 29.2966285,10.4438802 29.2838822,10.4426056 C28.9046795,10.4037293 28.5184663,10.3846099 28.1367143,10.3846099 C25.0450968,10.3846099 22.1580576,11.6076183 20.0064805,13.8273882 C17.5177635,16.3970442 16.405648,19.9022795 16.953102,23.4330073 C17.0436008,24.1518992 17.3036255,26.6023772 16.8383852,27.9713309 C16.3049521,29.5404017 17.4514827,31.0967261 17.9689829,31.6926161 L17.965159,31.7002639 L18.1487059,31.8927332 C18.1487059,31.8927332 18.1620895,31.9067541 18.1863075,31.9290602 L18.4061813,32.1457474 L18.4272127,32.1342757 C18.9275054,32.5389711 19.9943715,33.2693346 21.1714933,33.2693346 C21.5048093,33.2693346 21.8279282,33.2100643 22.1293785,33.0934356 C22.764782,32.8487064 23.7500718,32.7193314 24.9794533,32.7193314 C25.1923167,32.7193314 25.3975323,32.7231553 25.5900016,32.7295284 C26.4223356,32.9200857 27.277613,33.017595 28.134165,33.017595 C28.134165,33.017595 28.134165,33.017595 28.134165,33.017595 C31.2264198,33.017595 34.1140963,31.7952239 36.2643988,29.5760913 C38.9698031,26.7827375 40.0449543,22.8575114 39.1431529,19.0705827 C39.0628511,18.1126975 38.9870106,16.3779248 39.3579282,15.3046855" id="Fill-23" fill="#2D2926" mask="url(#mask-2)"></path><polygon id="Fill-24" fill="#A3ED00" mask="url(#mask-2)" points="69.8394537 32.8300331 69.8394537 0.675554424 76.211334 0 76.211334 32.8300331"></polygon><path d="M79.2087562,32.830288 L85.5799992,32.830288 L85.5799992,10.4222752 L79.2087562,10.4222752 L79.2087562,32.830288 Z M82.371753,7.7646696 C80.0946248,7.7646696 78.6593903,6.49896102 78.6593903,4.22119545 C78.6593903,1.94088061 80.0946248,0.717872173 82.371753,0.717872173 C84.5252421,0.717872173 86.1280906,1.81405482 86.1280906,4.22119545 C86.1280906,6.41419806 84.7788936,7.7646696 82.371753,7.7646696 L82.371753,7.7646696 Z" id="Fill-25" fill="#A3ED00" mask="url(#mask-2)"></path><path d="M112.459609,32.8300331 L112.459609,17.2597782 C112.459609,16.1623209 112.121194,15.7818436 110.982311,15.7818436 C109.969617,15.7818436 108.619783,16.1196208 106.847408,16.9640638 L106.847408,32.8300331 L100.518228,32.8300331 L100.518228,17.2597782 C100.518228,16.1623209 100.138388,15.7818436 99.1250566,15.7818436 C98.111725,15.7818436 96.5088765,16.1623209 94.9073027,16.9640638 L94.9073027,32.8300331 L88.5749359,32.8300331 L88.5749359,10.4220203 L94.9073027,10.4220203 L94.9073027,12.2370948 L95.3272936,12.2370948 C98.4909277,10.4220203 100.560928,10.0001174 102.289328,10.0001174 C104.35678,10.0001174 105.539637,10.5501207 106.172491,12.2791576 L106.592482,12.2791576 C109.843429,10.2964691 111.657866,10.0001174 113.388177,10.0001174 C117.057203,10.0001174 118.788789,12.0688435 118.788789,15.4867665 L118.788789,32.8300331 L112.459609,32.8300331 Z" id="Fill-26" fill="#A3ED00" mask="url(#mask-2)"></path><path d="M132.841277,17.8917403 C132.841277,15.3603231 131.913346,14.4317544 130.098908,14.4317544 C128.031457,14.4317544 127.103525,15.4017486 127.061463,19.4958634 C127.061463,19.4958634 130.520174,19.4531632 132.798577,19.3684003 C132.841277,18.7368206 132.841277,18.3136431 132.841277,17.8917403 M130.773188,33.2523183 C123.811791,33.2523183 120.31038,29.536769 120.31038,22.0272805 C120.31038,13.7134999 124.107505,10.0004998 130.225097,10.0004998 C135.838572,10.0004998 139.087606,13.1246204 139.087606,19.1574488 C139.087606,20.0866548 139.044906,21.4779146 138.87538,23.080763 C138.87538,23.080763 133.307155,23.2936264 126.977337,23.4612404 C126.977337,26.7542495 127.946694,27.6388434 130.773188,27.6388434 C131.618268,27.6388434 133.096203,27.5132923 137.568883,26.2048836 L138.665703,31.6061324 C134.952703,32.7883526 132.420011,33.2523183 130.773188,33.2523183" id="Fill-27" fill="#A3ED00" mask="url(#mask-2)"></path><path d="M136.335614,1.71208434 L135.737812,1.71208434 L135.737812,2.83503425 L136.335614,2.83503425 C136.691236,2.83503425 136.941064,2.60113946 136.941064,2.27738319 C136.941064,1.95426423 136.691236,1.71208434 136.335614,1.71208434 L136.335614,1.71208434 Z M136.957634,4.52328299 L136.222172,3.21423696 L135.737812,3.21423696 L135.737812,4.52328299 L135.293603,4.52328299 L135.293603,1.31631142 L136.38405,1.31631142 C136.941064,1.31631142 137.393558,1.73630233 137.393558,2.27738319 C137.393558,2.74644739 137.102942,3.03706326 136.707169,3.1581532 L137.474497,4.52328299 L136.957634,4.52328299 Z M136.24639,0.427893623 C134.889545,0.427893623 133.791451,1.55084352 133.791451,2.9236211 C133.791451,4.29703599 134.889545,5.41934858 136.24639,5.41934858 C137.603872,5.41934858 138.710252,4.29703599 138.710252,2.9236211 C138.710252,1.55084352 137.603872,0.427893623 136.24639,0.427893623 L136.24639,0.427893623 Z M136.24639,5.84762459 C134.631432,5.84762459 133.323024,4.53921588 133.323024,2.9236211 C133.323024,1.30866364 134.631432,-0.000382389297 136.24639,-0.000382389297 C137.861985,-0.000382389297 139.170393,1.30866364 139.170393,2.9236211 C139.170393,4.53921588 137.861985,5.84762459 136.24639,5.84762459 L136.24639,5.84762459 Z" id="Fill-28" fill="#2D2926" mask="url(#mask-2)"></path></g></g></g></g></svg> 