<?xml version="1.0" encoding="utf-8"?>
<!-- Generator: Adobe Illustrator 23.0.3, SVG Export Plug-In . SVG Version: 6.00 Build 0)  -->
<svg version="1.1" id="Layer_1" xmlns="http://www.w3.org/2000/svg" xmlns:xlink="http://www.w3.org/1999/xlink" x="0px" y="0px"
	 viewBox="0 0 400 245" style="enable-background:new 0 0 400 245;" xml:space="preserve">
<style type="text/css">
	.st0{fill:#E01B22;}
	.st1{fill:#4064AD;}
	.st2{fill:#E98300;}
	.st3{fill:#00549F;}
	.st4{fill-rule:evenodd;clip-rule:evenodd;}
	.st5{fill-rule:evenodd;clip-rule:evenodd;fill:#C9243A;}
	.st6{fill-rule:evenodd;clip-rule:evenodd;fill:#231F20;}
	.st7{fill-rule:evenodd;clip-rule:evenodd;fill:#7C848A;}
	.st8{fill:#EE3B29;}
	.st9{fill:#7C848A;}
	.st10{fill:#0F0F59;}
	.st11{fill:#F42A4D;}
	.st12{fill:#DA2128;}
	.st13{fill-rule:evenodd;clip-rule:evenodd;fill:#12ABDB;}
	.st14{fill-rule:evenodd;clip-rule:evenodd;fill:#0070AD;}
	.st15{fill:#929497;}
	.st16{fill:#231F20;}
	.st17{fill:#00ADEE;}
	.st18{fill:#2E3191;}
	.st19{fill:#EC1C24;}
	.st20{fill:#0082C9;}
	.st21{fill:#6D67AE;}
	.st22{fill:#2B62AD;}
	.st23{fill:#404041;}
	.st24{fill:#273B5B;}
	.st25{fill:#39B54A;}
	.st26{fill:#474749;}
	.st27{fill:#009245;}
	.st28{fill:#DDDDDD;}
	.st29{fill:#FFFFFF;}
	.st30{fill:url(#SVGID_1_);}
	.st31{fill:url(#SVGID_2_);}
	.st32{fill:url(#SVGID_3_);}
	.st33{fill:url(#SVGID_4_);}
	.st34{fill:url(#SVGID_5_);}
	.st35{fill:url(#SVGID_6_);}
	.st36{fill:url(#SVGID_7_);}
	.st37{fill:url(#SVGID_8_);}
	.st38{fill:url(#SVGID_9_);}
	.st39{fill:url(#SVGID_10_);}
	.st40{fill:url(#SVGID_11_);}
	.st41{fill:url(#SVGID_12_);}
	.st42{fill:url(#SVGID_13_);}
	.st43{fill:url(#SVGID_14_);}
	.st44{fill:url(#SVGID_15_);}
	.st45{fill:url(#SVGID_16_);}
	.st46{fill:url(#SVGID_17_);}
	.st47{fill:#59595C;}
	.st48{fill:#1D7DB9;}
	.st49{fill:#121110;}
	.st50{fill:#010101;}
	.st51{fill:#663795;}
	.st52{fill:#09324A;stroke:#1B75BB;stroke-width:0.6975;stroke-miterlimit:10;}
	.st53{fill:#002432;stroke:#1B75BB;stroke-width:1.0463;stroke-miterlimit:10;}
	.st54{fill-rule:evenodd;clip-rule:evenodd;fill:#E73836;}
	.st55{fill:#231916;}
	.st56{fill:#E73836;}
	.st57{fill:#8C9091;}
	.st58{fill-rule:evenodd;clip-rule:evenodd;fill:#365072;}
	.st59{fill:#365072;}
	.st60{fill:#0093D7;}
	.st61{clip-path:url(#SVGID_19_);fill:url(#SVGID_20_);}
	.st62{clip-path:url(#SVGID_22_);fill:url(#SVGID_23_);}
	.st63{clip-path:url(#SVGID_25_);fill:url(#SVGID_26_);}
	.st64{clip-path:url(#SVGID_28_);fill:url(#SVGID_29_);}
	.st65{clip-path:url(#SVGID_31_);fill:url(#SVGID_32_);}
	.st66{clip-path:url(#SVGID_34_);fill:url(#SVGID_35_);}
	.st67{clip-path:url(#SVGID_37_);fill:url(#SVGID_38_);}
	.st68{clip-path:url(#SVGID_40_);fill:url(#SVGID_41_);}
	.st69{clip-path:url(#SVGID_43_);fill:url(#SVGID_44_);}
	.st70{clip-path:url(#SVGID_68_);}
	.st71{clip-path:url(#SVGID_79_);}
	.st72{fill:#00A9E6;}
	.st73{fill:#4D4D4F;}
	.st74{fill:#898B8D;}
	.st75{fill:#04B3AC;}
	.st76{fill:#A4A2A0;}
	.st77{fill:#D0CFCE;}
	.st78{fill:#74777C;}
	.st79{fill:none;stroke:#ED3024;stroke-width:0.4269;}
	.st80{fill:#A2A4A8;}
	.st81{fill:#3F7BA3;}
	.st82{enable-background:new    ;}
	.st83{fill:#E8B520;}
	.st84{fill:#D27D41;}
	.st85{fill:#0B74BB;}
	.st86{fill:#702784;}
	.st87{fill:#AD2E91;}
	.st88{fill:#ED3694;}
	.st89{fill:#004E9A;}
	.st90{clip-path:url(#SVGID_82_);fill:url(#SVGID_83_);}
	.st91{clip-path:url(#SVGID_85_);fill:url(#SVGID_86_);}
	.st92{clip-path:url(#SVGID_88_);fill:url(#SVGID_89_);}
	.st93{fill:#0898CC;}
	.st94{fill:#12284C;}
	.st95{fill-rule:evenodd;clip-rule:evenodd;fill:#84BE42;}
	.st96{fill-rule:evenodd;clip-rule:evenodd;fill:#C1C0C0;}
	.st97{clip-path:url(#SVGID_91_);fill:#84BE42;}
	.st98{fill:#0066A5;}
	.st99{fill:#F05A22;}
	.st100{clip-path:url(#SVGID_93_);}
	.st101{clip-path:url(#SVGID_95_);fill:#1D1D1B;}
	.st102{clip-path:url(#SVGID_97_);}
	.st103{clip-path:url(#SVGID_99_);fill:#1D1D1B;}
	.st104{clip-path:url(#SVGID_101_);}
	.st105{clip-path:url(#SVGID_103_);fill:#1D1D1B;}
	.st106{clip-path:url(#SVGID_105_);}
	.st107{clip-path:url(#SVGID_107_);fill:#1D1D1B;}
	.st108{clip-path:url(#SVGID_109_);}
	.st109{clip-path:url(#SVGID_111_);fill:#1D1D1B;}
	.st110{clip-path:url(#SVGID_113_);}
	.st111{clip-path:url(#SVGID_115_);fill:#1D1D1B;}
	.st112{clip-path:url(#SVGID_117_);}
	.st113{clip-path:url(#SVGID_119_);fill:#1D9DD9;}
	.st114{clip-path:url(#SVGID_121_);}
	.st115{clip-path:url(#SVGID_123_);fill:#1D1D1B;}
	.st116{clip-path:url(#SVGID_125_);}
	.st117{clip-path:url(#SVGID_127_);fill:#1D9DD9;}
	.st118{clip-path:url(#SVGID_129_);}
	.st119{clip-path:url(#SVGID_131_);fill:#1D1D1B;}
	.st120{clip-path:url(#SVGID_133_);}
	.st121{clip-path:url(#SVGID_135_);fill:#1D9DD9;}
	.st122{clip-path:url(#SVGID_137_);}
	.st123{clip-path:url(#SVGID_139_);fill:#1D1D1B;}
	.st124{clip-path:url(#SVGID_141_);}
	.st125{clip-path:url(#SVGID_143_);fill:#1D9DD9;}
	.st126{clip-path:url(#SVGID_145_);}
	.st127{clip-path:url(#SVGID_147_);fill:#1D1D1B;}
	.st128{fill:#D44432;}
	.st129{fill:#272525;}
	.st130{fill:url(#SVGID_148_);}
	.st131{fill:url(#SVGID_149_);}
	.st132{fill:url(#SVGID_150_);}
	.st133{fill:#002B54;}
	.st134{fill:#B2B1B1;}
	.st135{fill:#E1134F;}
	.st136{fill:#454547;}
	.st137{fill:#00B4D0;}
	.st138{fill:#4564A7;}
	.st139{fill:#0088EE;}
	.st140{fill:#026FC2;}
	.st141{fill:#009FEE;}
	.st142{fill:#00BEEE;}
	.st143{fill:#00AFEE;}
	.st144{fill-rule:evenodd;clip-rule:evenodd;fill:#224099;}
	.st145{clip-path:url(#SVGID_152_);}
	.st146{clip-path:url(#SVGID_156_);}
	.st147{fill:#203260;}
	.st148{fill-rule:evenodd;clip-rule:evenodd;fill:#989A9D;}
	.st149{fill-rule:evenodd;clip-rule:evenodd;fill:#DF068C;}
	.st150{fill:#2E3437;}
	.st151{fill:#989FA4;}
	.st152{fill:#E1DE22;}
	.st153{fill-rule:evenodd;clip-rule:evenodd;fill:#86171D;}
	.st154{fill-rule:evenodd;clip-rule:evenodd;fill:#FFFFFF;}
	.st155{fill:none;stroke:#86171D;stroke-width:6.1349;stroke-miterlimit:10;}
	.st156{fill:#1F1F1F;}
	.st157{fill:#009590;}
	.st158{fill:#ED1651;}
</style>
<g id="XMLID_217_">
	<path id="XMLID_238_" class="st4" d="M224.53,136.87h-19.37c-1.56,3.9-2.98,7.79-4.5,11.77c-0.54,1.42-1.04,2.9-2.77,3.26
		c-0.52,0.1-1.19,0.04-1.85,0.04h-1.85c-1.35,0-2.63,0.11-3.74,0c-1.27-0.12-2.25-0.96-2.61-2.01c-0.08-0.23-0.16-0.48-0.16-0.72
		c-0.01-0.45,0.34-1.15,0.56-1.77c3.13-8.59,6.17-17.07,9.32-25.64c3.12-8.45,6.27-17.04,9.36-25.6c0.21-0.59,0.37-1.19,0.64-1.65
		c0.53-0.91,1.37-1.47,2.73-1.49c2.31-0.04,4.56,0,6.87,0c0.89,0,1.83-0.1,2.61,0c1.01,0.12,1.84,0.87,2.21,1.53
		c0.27,0.48,0.43,1.09,0.64,1.69c5.54,15.36,11.21,30.64,16.8,46.01c0.59,1.63,1.2,3.37,1.85,5.14c0.21,0.58,0.59,1.28,0.6,1.69
		c0,0.11-0.09,0.46-0.16,0.68c-0.28,0.92-0.88,1.64-1.97,1.97c-0.96,0.3-2.58,0.2-3.74,0.2c-1.41,0-2.75,0.04-3.94-0.04
		c-1.19-0.08-1.96-0.73-2.41-1.49c-0.3-0.5-0.47-1.11-0.68-1.69c-1.03-2.79-2.13-5.76-3.18-8.52
		C225.39,139.12,225.03,138.2,224.53,136.87 M209.26,126.06h11.21c-1.82-4.97-3.66-9.92-5.55-14.83
		C213.04,116.17,211.15,121.12,209.26,126.06"/>
	<path id="XMLID_232_" class="st4" d="M276.21,130.23c0.04,0.24,0.25,0.44,0.44,0.68c2.61,3.33,5.25,6.59,7.96,9.97
		c1.36,1.69,2.85,3.5,4.26,5.3c0.69,0.88,1.65,1.81,1.37,3.34c-0.22,1.19-1.17,2.15-2.41,2.37c-0.85,0.15-1.87,0.04-2.85,0.04h-2.89
		c-1.62,0-4.2,0.25-5.3-0.44c-0.42-0.26-0.71-0.69-1.08-1.17c-2.26-2.87-4.67-5.82-6.91-8.64c-2.31-2.9-4.62-5.75-6.95-8.64
		c-0.32-0.39-0.55-0.87-0.97-1.17v15.55c0,0.74,0.1,1.52-0.04,2.17c-0.21,1.04-1.19,2.18-2.65,2.33c-1.08,0.11-2.42,0-3.74,0
		c-1.31,0-2.67,0.09-3.7-0.04c-1.39-0.18-2.25-1.08-2.53-2.21c-0.23-0.89-0.12-2.12-0.12-3.33c0-15.95,0-31.89,0-47.9
		c0-1.2-0.1-2.42,0.16-3.25c0.23-0.77,0.66-1.28,1.21-1.65c1.1-0.74,3.24-0.48,5.14-0.48h13.06c1.79,0,3.41-0.02,4.9,0.2
		c4.37,0.65,7.61,2.47,10.29,4.94c3.4,3.13,6.07,7.83,6.07,14.27c0,3.11-0.85,5.88-1.97,8.2
		C284.74,125.23,281.11,128.36,276.21,130.23 M261.14,104.2v16.03h5.83c2.12,0,3.44-0.36,4.74-1.13c2.28-1.34,4.28-3.89,3.98-7.72
		c-0.12-1.56-0.75-2.92-1.49-3.94c-1.13-1.57-2.83-2.79-4.98-3.22c-2.43-0.48-5.26,0.03-8.04-0.16
		C261.14,104.08,261.14,104.14,261.14,104.2"/>
	<path id="XMLID_230_" class="st4" d="M30.35,93.1c8.34-0.4,14.74,2.4,19.41,5.99c0.33,0.26,0.7,0.51,0.92,0.76
		c0.72,0.82,0.92,2.3,0.36,3.38c-0.32,0.61-0.82,1.06-1.28,1.53c-0.95,0.95-1.88,1.8-2.86,2.77c-0.5,0.5-0.92,1.03-1.45,1.37
		c-0.78,0.5-2.09,0.62-3.01,0.16c-0.33-0.17-0.59-0.44-0.88-0.64c-2.03-1.39-4.57-2.52-7.72-2.89c-3.89-0.46-7.48,0.52-10.01,1.85
		c-2.63,1.38-4.76,3.31-6.35,5.75c-1.56,2.39-2.85,5.4-2.85,9.24c0,3.94,1.36,6.92,2.89,9.24c1.58,2.39,3.71,4.38,6.39,5.71
		c2.51,1.24,6.06,2.29,10.05,1.81c2.71-0.33,4.82-1.2,6.75-2.33c0.6-0.35,1.13-0.88,1.81-1.21c0.82-0.4,1.92-0.39,2.81,0.12
		c0.57,0.33,0.97,0.81,1.45,1.29c0.86,0.86,1.9,1.82,2.77,2.69c0.64,0.64,1.33,1.18,1.65,2.05c0.4,1.09,0.1,2.35-0.52,3.05
		c-0.31,0.35-0.81,0.71-1.21,1c-2.89,2.15-6.55,3.96-10.53,4.94c-5.04,1.25-10.71,1.06-15.55-0.36c-4.39-1.29-8.13-3.48-11.29-6.39
		c-4.51-4.14-8.14-9.7-9.32-17.2c-0.42-2.63-0.45-5.45-0.08-8.2c0.69-5.15,2.5-9.3,4.9-12.78c2.55-3.69,5.5-6.36,9.12-8.56
		c3.02-1.84,6.98-3.45,11.49-3.98C28.94,93.18,29.66,93.14,30.35,93.1"/>
	<path id="XMLID_224_" class="st4" d="M82.19,93.1c4.7-0.22,9.18,0.68,12.62,2.09c3.51,1.44,6.48,3.44,8.96,5.75
		c2.64,2.45,4.58,5.07,6.27,8.44c1.65,3.28,2.8,7.17,3.05,11.65c0.27,4.85-0.69,9.06-2.09,12.54c-1.41,3.53-3.44,6.46-5.75,8.96
		c-2.38,2.58-5.11,4.65-8.4,6.31c-3.28,1.66-7.11,2.8-11.65,3.06c-4.65,0.26-9.03-0.7-12.54-2.09c-3.53-1.4-6.53-3.4-9-5.71
		c-2.54-2.37-4.67-5.14-6.31-8.4c-1.66-3.3-2.79-7.12-3.06-11.65c-0.29-4.88,0.72-9.12,2.09-12.54c1.46-3.65,3.31-6.38,5.71-9
		c3.42-3.74,7.97-6.79,13.67-8.4c0.9-0.26,1.96-0.47,3.05-0.64C79.95,93.28,81.12,93.15,82.19,93.1 M79.26,105.96
		c-3.44,0.92-5.99,2.7-8.08,4.82c-1.48,1.51-2.53,3.08-3.42,5.18c-0.82,1.96-1.45,4.57-1.33,7.28c0.24,5.24,2.51,9.17,5.35,11.85
		c2.92,2.76,6.95,4.83,12.42,4.7c5.19-0.12,9.3-2.49,11.9-5.3c2.67-2.89,4.93-6.84,4.74-12.38c-0.09-2.63-0.71-4.98-1.65-6.95
		c-0.91-1.91-2.12-3.57-3.62-4.98c-2.76-2.61-7.05-5-12.46-4.74C81.75,105.51,80.46,105.64,79.26,105.96"/>
	<path id="XMLID_222_" class="st4" d="M149.18,122.44c1.76-4.5,3.44-9.14,5.18-13.86c1.47-3.98,3.02-8.05,4.54-12.1
		c0.22-0.59,0.37-1.23,0.64-1.73c0.42-0.75,1.13-1.39,2.01-1.61c0.59-0.15,1.42-0.08,2.25-0.08h4.62c0.79,0,1.61-0.09,2.25,0.04
		c0.98,0.2,1.96,1.07,2.25,2.09c0.15,0.53,0.14,1.15,0.24,1.73c2.87,17.08,5.78,34.2,8.6,51.4c0.05,0.31,0.18,0.69,0.12,0.89
		c-0.13,0.4-0.13,0.76-0.28,1.08c-0.36,0.76-1.17,1.52-2.33,1.65c-1.07,0.12-2.33,0-3.62,0c-1.25,0-2.55,0.1-3.61,0
		c-0.97-0.09-1.8-0.68-2.21-1.29c-0.24-0.35-0.3-0.76-0.57-1.2c-1.51-9.93-3.11-19.77-4.62-29.7c-3.79,9.15-7.71,18.72-11.53,28.09
		c-0.65,1.6-1.22,3.25-2.81,3.86c-0.44,0.17-0.89,0.34-1.53,0.24c-0.18-0.03-0.38-0.14-0.56-0.2c-1.91-0.66-2.47-2.47-3.21-4.3
		c-3.77-9.25-7.57-18.45-11.29-27.69c-0.22,0.7-0.25,1.44-0.36,2.13c-1.39,8.82-2.85,17.85-4.22,26.72
		c-0.04,0.28-0.05,0.51-0.12,0.8c-0.02,0.08-0.05,0.11-0.08,0.2c-0.44,1.28-1.26,2.18-2.61,2.33c-0.95,0.11-2.08,0-3.17,0
		c-2.12,0-4.46,0.33-5.67-0.68c-0.56-0.48-1.05-1.18-1.08-2.05c-0.02-0.48,0.18-1.09,0.28-1.69c2.83-16.83,5.61-33.61,8.44-50.47
		c0.09-0.57,0.11-1.14,0.24-1.69c0.29-1.19,1.3-2.16,2.49-2.29c0.78-0.09,1.64,0,2.45,0h2.41c1.49,0,3.54-0.18,4.54,0.28
		c0.66,0.31,1.22,0.85,1.57,1.53c0.26,0.52,0.42,1.15,0.64,1.73C142.65,105.07,146.04,114.01,149.18,122.44"/>
	<path id="XMLID_220_" class="st4" d="M323.15,93.1c0,0,0.02-0.04,0.04-0.04c7.02-0.33,12.55,1.68,16.88,4.34
		c0.67,0.41,1.41,0.89,2.13,1.41c0.7,0.5,1.41,1.1,1.73,1.77c0.28,0.6,0.36,1.66,0.08,2.37c-0.24,0.62-0.81,1.17-1.33,1.69
		c-0.97,0.98-2.02,1.94-3.01,2.93c-0.86,0.86-1.74,2.04-3.5,1.77c-0.49-0.07-0.84-0.24-1.16-0.44c-0.17-0.11-0.28-0.24-0.44-0.36
		c-0.13-0.09-0.3-0.15-0.44-0.24c-1.88-1.21-4.15-2.29-6.79-2.69c-4.05-0.62-7.76,0.32-10.53,1.69c-2.8,1.38-5.04,3.49-6.63,5.99
		c-1.56,2.45-2.95,5.75-2.73,9.73c0.21,3.9,1.66,7.02,3.33,9.28c1.77,2.4,4.13,4.27,7.07,5.55c1.43,0.62,3.22,1.13,4.98,1.33
		c2.14,0.24,4.06,0,5.75-0.4c2.07-0.48,3.93-1.33,5.55-2.37c0.32-0.2,0.6-0.45,0.92-0.64c1.14-0.68,2.47-0.54,3.37,0.16
		c0.95,0.73,1.71,1.75,2.65,2.61c0.91,0.83,1.96,1.64,2.61,2.61c0.69,1.04,0.62,2.73-0.2,3.66c-0.34,0.39-0.81,0.64-1.25,0.96
		c-2.91,2.17-6.41,4-10.49,4.98c-2.46,0.6-5.16,0.96-7.92,0.84c-2.66-0.11-5.25-0.48-7.64-1.21c-4.6-1.39-8.06-3.5-11.29-6.39
		c-4.53-4.04-8.1-9.72-9.32-17.2c-0.43-2.62-0.48-5.51-0.12-8.24c0.66-5.06,2.56-9.29,4.94-12.74c2.42-3.5,5.37-6.32,9.12-8.56
		c3.12-1.86,6.9-3.4,11.49-3.98C321.74,93.17,322.47,93.13,323.15,93.1"/>
	<path id="XMLID_218_" class="st4" d="M363.86,117.58c6.87,0.09,13.92,0.01,20.86,0.04c0-6,0-11.71,0-17.76
		c0-1.93-0.26-4.25,0.48-5.42c0.5-0.79,1.36-1.36,2.73-1.36h4.1c1.23,0,2.89-0.18,3.82,0.28c0.9,0.44,1.57,1.32,1.65,2.45
		c0.09,1.36,0,2.76,0,4.18c0,14.97,0,30.58,0,45.57c0,1.48,0.16,2.97-0.08,4.06c-0.24,1.06-0.92,1.83-1.97,2.17
		c-1.02,0.34-2.6,0.16-3.98,0.16c-1.46,0-2.92,0.11-4.1-0.04c-1.38-0.18-2.31-1.12-2.57-2.33c-0.17-0.78-0.08-1.71-0.08-2.61
		c0-6.19,0-12.55,0-18.69c-6.87-0.09-13.92-0.01-20.86-0.04v18.93c0,0.88,0.09,1.84-0.12,2.57c-0.3,1.06-1.03,1.85-2.21,2.13
		c-0.65,0.16-1.34,0.08-2.09,0.08h-4.3c-0.73,0-1.38,0.03-1.97-0.16c-0.91-0.3-1.81-1.02-2.05-2.25c-0.18-0.95-0.04-2.23-0.04-3.38
		c0-15.83,0-31.57,0-47.5c0-1.19-0.13-2.41,0.08-3.29c0.28-1.17,1.29-2.16,2.53-2.29c1.12-0.12,2.47,0,3.74,0
		c1.32,0,2.64-0.1,3.74,0c1.43,0.13,2.43,1.23,2.65,2.41c0.15,0.79,0.04,1.8,0.04,2.73V117.58z"/>
</g>
</svg>
