<?xml version="1.0" encoding="UTF-8"?><svg xmlns="http://www.w3.org/2000/svg" version="1.2" baseProfile="tiny" viewBox="0 0 151 151" width="151px" height="151px"><rect x="76" y="65" width="1" height="1" fill="#e3634c"/><g fill="#fce6cd"><rect x="66" y="68" width="1" height="1"/><rect x="67" y="68" width="1" height="1"/></g><g fill="#cfbdf9"><rect height="1" x="121" y="68" width="1"/><rect x="117" y="69" width="1" height="1"/><rect width="1" height="1" x="127" y="72"/><rect x="125" y="77" width="1" height="9"/><rect x="125" y="86" width="1" height="1"/><rect x="114" y="87" width="1" height="1"/></g><g fill="#cf2e65"><rect x="88" y="74" width="1" height="1"/><rect x="87" y="76" width="1" height="1"/><rect x="87" y="80" width="1" height="1"/></g><g fill="#f5c8bf"><rect width="1" height="1" x="76" y="62"/><rect x="78" y="63" width="1" height="1"/><rect x="75" y="65" width="1" height="1"/><rect y="70" width="1" height="16" x="75"/><rect x="75" y="86" width="1" height="1"/></g><g fill="#f6f4ff"><rect height="1" x="136" y="62" width="1"/><rect x="114" y="68" width="1" height="1"/><rect x="118" y="68" width="1" height="1"/><rect x="135" y="68" width="1" height="1"/><rect x="140" y="68" width="2" height="1"/><rect width="1" height="1" x="142" y="68"/><rect x="125" y="69" width="1" height="1"/><rect x="101" y="70" width="1" height="1"/><rect x="126" y="70" width="1" height="1"/><rect x="121" y="71" width="1" height="1"/><rect x="133" y="71" width="1" height="1"/><rect x="143" y="71" width="1" height="1"/><rect x="116" y="74" width="1" height="1"/><rect width="1" height="1" x="128" y="74"/><rect x="115" y="76" width="1" height="1"/><rect x="101" y="86" width="1" height="1"/><rect height="1" x="111" y="87" width="1"/><rect x="137" y="87" width="1" height="1"/><rect x="91" y="88" width="1" height="1"/><rect height="1" x="102" y="88" width="1"/></g><g fill="#f8dcda"><rect x="78" y="65" width="1" height="1"/><rect y="66" width="1" height="1" x="76"/><rect height="1" x="75" y="69" width="1"/><rect x="78" y="69" width="1" height="18"/><rect height="1" x="75" y="87" width="1"/><rect x="78" y="87" width="1" height="1"/></g><g fill="#39ba64"><rect y="69" width="1" height="1" x="15"/><rect x="23" y="70" width="1" height="2"/><rect x="10" y="72" width="1" height="1"/><rect x="23" y="72" width="2" height="1"/><rect x="25" y="72" width="1" height="1"/><rect y="73" width="1" height="1" x="24"/><rect height="1" x="8" y="77" width="1"/><rect x="10" y="81" width="1" height="1"/><rect x="9" y="83" width="1" height="1"/><rect x="23" y="84" width="2" height="1"/><rect height="1" x="25" y="84" width="1"/><rect x="12" y="86" width="1" height="1"/><rect y="86" width="1" height="1" x="23"/></g><g fill="#c72b81"><rect x="92" y="69" width="1" height="1"/><rect x="91" y="71" width="1" height="1"/><rect x="92" y="87" width="1" height="1"/></g><g fill="#bb9ef3"><rect x="124" y="69" width="1" height="1"/><rect y="75" width="1" height="1" x="125"/><rect x="112" y="87" width="1" height="1"/></g><rect x="76" y="87" width="1" height="1" fill="#ec9a8d"/><g fill="#e2e0fe"><rect y="62" width="1" height="1" x="139"/><rect y="63" width="1" height="4" x="136"/><rect x="136" y="67" width="1" height="1"/><rect x="133" y="69" width="1" height="1"/><rect x="143" y="69" width="1" height="1"/><rect height="13" x="136" y="72" width="1"/><rect x="128" y="75" width="1" height="11"/><rect y="85" width="1" height="1" x="136"/><rect x="142" y="85" width="1" height="2"/><rect x="128" y="86" width="1" height="1"/><rect x="142" y="87" width="1" height="1"/></g><g fill="#e04a2a"><rect x="77" y="63" width="1" height="1"/><rect y="71" width="1" height="14" x="76"/><rect x="76" y="85" width="1" height="1"/></g><g fill="#efdffa"><rect x="119" y="68" width="1" height="1"/><rect x="104" y="69" width="1" height="1"/><rect x="100" y="70" width="1" height="1"/><rect x="124" y="73" width="1" height="1"/><rect x="100" y="82" width="1" height="1"/><rect x="104" y="87" width="1" height="1"/></g><g fill="#af1ac6"><rect height="2" x="102" y="70" width="1"/><rect x="102" y="72" width="1" height="1"/><rect x="102" y="77" width="1" height="2"/><rect height="1" x="102" y="79" width="1"/><rect width="2" height="1" x="100" y="84"/><rect y="84" width="1" height="2" x="102"/><rect y="86" width="1" height="1" x="102"/></g><g fill="#eca5a3"><rect width="1" height="1" x="78" y="64"/><rect y="87" width="1" height="1" x="77"/></g><g fill="#c359ce"><rect x="102" y="69" width="1" height="1"/><rect x="99" y="70" width="1" height="1"/><rect x="100" y="73" width="1" height="1"/><rect width="1" height="1" x="99" y="86"/></g><g fill="#fcb000"><rect x="45" y="70" width="1" height="1"/><rect x="47" y="71" width="1" height="2"/><rect y="72" width="1" height="3" x="59"/><rect y="72" width="1" height="1" x="62"/><rect x="47" y="73" width="1" height="1"/><rect x="61" y="73" width="1" height="1"/><rect height="6" x="49" y="74" width="1"/><rect y="75" width="1" height="1" x="59"/><rect x="49" y="80" width="1" height="2"/><rect x="48" y="82" width="1" height="1"/><rect x="49" y="82" width="1" height="1"/><rect x="48" y="83" width="1" height="1"/><rect x="47" y="84" width="1" height="1"/><rect x="45" y="86" width="1" height="1"/></g><g fill="#78ad08"><rect width="1" height="6" x="33" y="75"/><rect x="33" y="81" width="1" height="1"/></g><g fill="#c10048"><rect x="89" y="71" width="1" height="1"/><rect width="1" height="1" x="88" y="72"/><rect x="87" y="73" width="1" height="2"/><rect height="1" x="88" y="73" width="1"/><rect height="1" x="86" y="74" width="1"/><rect x="87" y="75" width="1" height="1"/><rect height="1" x="87" y="81" width="1"/><rect x="86" y="82" width="1" height="1"/><rect x="88" y="83" width="1" height="1"/><rect x="88" y="84" width="1" height="1"/><rect x="89" y="85" width="1" height="1"/></g><g fill="#8dd3a1"><rect y="76" width="1" height="1" x="10"/><rect x="10" y="80" width="1" height="1"/><rect x="13" y="87" width="1" height="1"/></g><g fill="#d6bb31"><rect x="39" y="69" width="1" height="1"/><rect x="39" y="87" width="1" height="1"/></g><g fill="#a36be8"><rect x="118" y="69" width="1" height="1"/><rect x="115" y="74" width="1" height="1"/></g><g fill="#c1b619"><rect height="1" x="37" y="70" width="1"/><rect x="38" y="70" width="1" height="1"/><rect height="1" x="37" y="71" width="1"/><rect y="85" width="1" height="1" x="37"/><rect x="37" y="86" width="1" height="1"/></g><g fill="#de7796"><rect x="87" y="72" width="1" height="1"/><rect x="90" y="72" width="1" height="1"/><rect x="85" y="77" width="1" height="2"/><rect x="85" y="79" width="1" height="1"/><rect height="1" x="87" y="84" width="1"/></g><g fill="#ebf9f1"><rect x="14" y="68" width="1" height="1"/><rect width="1" height="1" x="21" y="68"/><rect x="23" y="69" width="1" height="1"/><rect x="17" y="71" width="1" height="1"/><rect x="14" y="72" width="1" height="1"/><rect width="1" height="1" x="11" y="75"/><rect x="7" y="76" width="1" height="1"/><rect y="80" width="1" height="1" x="7"/><rect x="33" y="84" width="1" height="1"/><rect height="1" x="19" y="85" width="1"/><rect height="1" x="12" y="87" width="1"/><rect width="1" height="1" x="23" y="87"/><rect x="14" y="88" width="1" height="1"/><rect x="21" y="88" width="1" height="1"/></g><g fill="#afe1bf"><rect x="13" y="69" width="1" height="1"/><rect x="22" y="69" width="1" height="1"/><rect height="1" x="15" y="71" width="1"/><rect x="20" y="71" width="1" height="1"/><rect x="25" y="71" width="1" height="1"/><rect y="72" width="1" height="1" x="13"/><rect x="22" y="72" width="1" height="1"/><rect x="11" y="74" width="1" height="1"/><rect x="10" y="77" width="1" height="2"/><rect x="10" y="79" width="1" height="1"/><rect x="8" y="82" width="1" height="1"/><rect x="11" y="82" width="1" height="1"/><rect x="10" y="85" width="1" height="1"/><rect height="1" x="25" y="85" width="1"/><rect x="22" y="87" width="1" height="1"/><rect y="88" width="1" height="1" x="17"/><rect x="18" y="88" width="1" height="1"/></g><g fill="#b30085"><rect x="94" y="69" width="1" height="1"/><rect x="95" y="69" width="1" height="1"/><rect x="95" y="70" width="1" height="1"/><rect x="94" y="86" width="1" height="1"/><rect width="1" height="1" x="95" y="86"/><rect height="1" x="95" y="87" width="1"/></g><g fill="#bf0f63"><rect x="90" y="70" width="1" height="1"/><rect y="70" width="1" height="1" x="91"/><rect x="90" y="71" width="1" height="1"/><rect height="1" x="89" y="72" width="1"/><rect x="89" y="84" width="1" height="1"/><rect y="85" width="1" height="1" x="90"/><rect width="1" height="1" x="90" y="86"/><rect y="86" width="1" height="1" x="91"/></g><g fill="#a17cf2"><rect x="123" y="71" width="1" height="1"/><rect x="127" y="73" width="1" height="1"/><rect x="113" y="87" width="1" height="1"/><rect y="87" width="1" height="1" x="126"/><rect x="141" y="87" width="1" height="1"/></g><rect x="77" y="65" width="1" height="1" fill="#e57365"/><g fill="#efd2e7"><rect x="96" y="68" width="1" height="1"/><rect y="71" width="1" height="1" x="93"/><rect x="98" y="72" width="1" height="1"/><rect y="74" width="1" height="1" x="100"/><rect y="85" width="1" height="1" x="96"/><rect x="100" y="86" width="1" height="1"/></g><g fill="#f8f0fd"><rect width="1" height="1" x="112" y="68"/><rect x="134" y="68" width="1" height="1"/><rect x="101" y="69" width="1" height="1"/><rect y="69" width="1" height="1" x="111"/><rect x="87" y="71" width="1" height="1"/><rect width="1" height="2" x="88" y="77"/><rect y="79" width="1" height="1" x="88"/><rect x="99" y="83" width="1" height="1"/><rect x="87" y="85" width="1" height="1"/><rect x="93" y="85" width="1" height="1"/><rect y="87" width="1" height="1" x="101"/><rect x="103" y="88" width="1" height="1"/></g><g fill="#fadd9b"><rect width="1" height="1" x="45" y="69"/><rect y="69" width="1" height="1" x="58"/><rect x="61" y="71" width="1" height="1"/><rect x="50" y="74" width="1" height="1"/><rect x="61" y="75" width="1" height="1"/><rect y="80" width="1" height="1" x="48"/><rect y="82" width="1" height="1" x="50"/><rect x="48" y="85" width="1" height="1"/><rect y="87" width="1" height="1" x="60"/></g><g fill="#fdbe4a"><rect x="59" y="69" width="1" height="1"/><rect x="46" y="70" width="1" height="1"/><rect width="1" height="1" x="48" y="75"/><rect x="50" y="76" width="1" height="1"/><rect x="50" y="80" width="1" height="1"/><rect width="1" height="1" x="60" y="86"/></g><g fill="#fcb700"><rect x="42" y="70" width="2" height="1"/><rect height="1" x="44" y="70" width="1"/><rect x="45" y="71" width="1" height="1"/><rect x="46" y="71" width="1" height="1"/><rect x="46" y="72" width="2" height="1"/><rect height="2" x="48" y="72" width="1"/><rect x="61" y="72" width="1" height="1"/><rect y="73" width="1" height="1" x="60"/><rect x="48" y="74" width="1" height="1"/><rect x="60" y="74" width="1" height="2"/><rect x="60" y="76" width="1" height="1"/><rect height="1" x="48" y="84" width="1"/><rect x="47" y="85" width="1" height="1"/><rect x="43" y="86" width="1" height="1"/><rect x="44" y="86" width="1" height="1"/></g><g fill="#825bf2"><rect x="125" y="70" width="1" height="1"/><rect width="1" height="1" x="118" y="71"/><rect height="1" x="126" y="71" width="1"/></g><g fill="#c70037"><rect x="86" y="75" width="1" height="6"/><rect x="86" y="81" width="1" height="1"/><rect height="1" x="87" y="82" width="1"/><rect x="87" y="83" width="1" height="1"/></g><g fill="#4338fb"><rect x="137" y="63" width="1" height="1"/><rect height="1" x="137" y="69" width="1"/></g><g fill="#fff6e1"><rect x="39" y="68" width="1" height="1"/><rect x="43" y="68" width="1" height="1"/><rect y="68" width="1" height="1" x="44"/><rect x="65" y="68" width="1" height="1"/><rect x="46" y="69" width="1" height="1"/><rect x="63" y="69" width="1" height="1"/><rect x="34" y="71" width="1" height="1"/><rect y="71" width="1" height="1" x="41"/><rect width="1" height="1" x="42" y="71"/><rect x="49" y="72" width="1" height="1"/><rect height="1" x="63" y="73" width="1"/><rect x="62" y="74" width="1" height="1"/><rect x="47" y="75" width="1" height="1"/><rect x="35" y="76" width="1" height="1"/><rect x="51" y="76" width="1" height="4"/><rect x="61" y="76" width="1" height="1"/><rect x="51" y="80" width="1" height="1"/><rect y="81" width="1" height="1" x="35"/><rect y="83" width="1" height="1" x="46"/><rect x="45" y="84" width="1" height="1"/><rect width="1" height="1" x="34" y="85"/><rect x="40" y="85" width="1" height="1"/><rect x="35" y="86" width="1" height="1"/><rect y="87" width="1" height="1" x="46"/><rect y="88" width="1" height="1" x="39"/><rect x="44" y="88" width="1" height="1"/></g><g fill="#22b555"><rect y="69" width="1" height="1" x="20"/><rect width="1" height="1" x="11" y="71"/><rect width="1" height="1" x="12" y="72"/><rect x="8" y="78" width="1" height="1"/><rect x="8" y="79" width="1" height="1"/><rect x="10" y="84" width="2" height="1"/><rect y="84" width="1" height="1" x="12"/><rect x="22" y="85" width="1" height="1"/><rect height="1" x="17" y="86" width="2"/><rect x="19" y="86" width="1" height="1"/><rect y="87" width="1" height="1" x="20"/></g><g fill="#9f00c9"><rect x="103" y="70" width="1" height="16"/><rect x="102" y="73" width="1" height="3"/><rect x="102" y="76" width="1" height="1"/><rect x="102" y="80" width="1" height="3"/><rect y="83" width="1" height="1" x="102"/><rect y="86" width="1" height="1" x="103"/></g><g fill="#eacef4"><rect y="70" width="1" height="16" x="104"/><rect x="101" y="71" width="1" height="1"/><rect height="1" x="122" y="71" width="1"/><rect x="101" y="76" width="1" height="1"/><rect width="1" height="1" x="101" y="80"/><rect x="101" y="85" width="1" height="1"/><rect y="86" width="1" height="1" x="104"/></g><g fill="#e99cb5"><rect width="1" height="1" x="85" y="76"/><rect width="1" height="1" x="85" y="80"/><rect width="1" height="1" x="86" y="83"/><rect x="90" y="84" width="1" height="1"/></g><g fill="#fef7f5"><rect x="75" y="62" width="1" height="1"/><rect x="74" y="64" width="1" height="1"/><rect x="77" y="66" width="1" height="2"/><rect x="75" y="68" width="2" height="1"/><rect x="77" y="68" width="1" height="1"/><rect x="91" y="68" width="1" height="1"/><rect x="88" y="70" width="1" height="1"/><rect height="1" x="91" y="84" width="1"/><rect x="88" y="86" width="1" height="1"/></g><rect x="75" y="64" width="1" height="1" fill="#ea8a78"/><g fill="#00ae41"><rect x="16" y="69" width="1" height="1"/><rect width="1" height="1" x="19" y="69"/><rect height="1" x="13" y="70" width="1"/><rect y="70" width="2" height="1" x="16"/><rect x="18" y="70" width="1" height="1"/><rect y="70" width="1" height="1" x="22"/><rect width="1" height="1" x="13" y="71"/><rect y="71" width="1" height="1" x="22"/><rect x="10" y="74" width="1" height="1"/><rect x="9" y="77" width="1" height="2"/><rect x="9" y="79" width="1" height="1"/><rect x="11" y="83" width="1" height="2"/><rect height="1" x="11" y="85" width="2"/><rect x="13" y="85" width="1" height="1"/><rect x="13" y="86" width="1" height="1"/><rect width="1" height="1" x="16" y="86"/><rect width="1" height="1" x="22" y="86"/><rect x="15" y="87" width="1" height="1"/><rect x="19" y="87" width="1" height="1"/></g><g fill="#a253e4"><rect height="1" x="113" y="69" width="1"/><rect x="112" y="70" width="1" height="16"/><rect x="114" y="76" width="1" height="1"/><rect y="86" width="1" height="1" x="112"/></g><g fill="#8048ee"><rect width="1" height="1" x="123" y="69"/><rect x="125" y="73" width="1" height="1"/><rect x="127" y="75" width="1" height="1"/></g><rect x="38" y="71" width="1" height="1" fill="#ccc252"/><g fill="#f9cb68"><rect x="44" y="71" width="1" height="1"/><rect height="1" x="60" y="71" width="1"/><rect y="75" width="1" height="1" x="50"/><rect x="50" y="81" width="1" height="1"/></g><g fill="#f8ebc6"><rect width="2" height="1" x="40" y="68"/><rect x="42" y="68" width="1" height="1"/><rect x="47" y="70" width="1" height="1"/><rect x="40" y="71" width="1" height="1"/><rect x="66" y="71" width="1" height="1"/><rect x="64" y="72" width="1" height="1"/><rect x="46" y="73" width="1" height="1"/><rect height="1" x="35" y="75" width="1"/><rect y="84" width="1" height="1" x="37"/><rect height="1" x="49" y="84" width="1"/><rect x="43" y="85" width="1" height="1"/><rect width="1" height="1" x="40" y="88"/><rect x="43" y="88" width="1" height="1"/></g><g fill="#f5deec"><rect x="92" y="68" width="1" height="1"/><rect x="95" y="71" width="1" height="1"/><rect x="91" y="72" width="1" height="1"/><rect x="99" y="73" width="1" height="1"/><rect x="88" y="76" width="1" height="1"/><rect x="88" y="80" width="1" height="1"/><rect height="1" x="98" y="84" width="1"/><rect x="92" y="88" width="1" height="1"/><rect x="97" y="88" width="1" height="1"/></g><g fill="#f6ecfc"><rect height="1" x="97" y="68" width="1"/><rect x="102" y="68" width="1" height="1"/><rect x="103" y="68" width="1" height="1"/><rect width="1" height="1" x="113" y="68"/><rect x="123" y="68" width="1" height="1"/><rect height="1" x="99" y="69" width="1"/><rect y="70" width="1" height="16" x="111"/><rect x="94" y="71" width="1" height="1"/><rect x="120" y="71" width="1" height="1"/><rect width="1" height="1" x="118" y="72"/><rect x="101" y="77" width="1" height="2"/><rect width="1" height="1" x="101" y="79"/><rect x="111" y="86" width="1" height="1"/><rect width="1" height="1" x="99" y="87"/><rect x="128" y="87" width="1" height="1"/></g><g fill="#ddd1fa"><rect width="1" height="1" x="122" y="68"/><rect x="136" y="68" width="1" height="1"/><rect x="133" y="70" width="1" height="1"/><rect x="143" y="70" width="1" height="1"/><rect width="1" height="1" x="140" y="71"/><rect width="1" height="1" x="125" y="87"/></g><g fill="#fdce7f"><rect width="1" height="1" x="64" y="69"/><rect x="65" y="71" width="1" height="1"/><rect height="1" x="59" y="87" width="1"/></g><g fill="#f6a732"><rect y="69" width="1" height="1" x="65"/><rect y="71" width="1" height="1" x="64"/></g><g fill="#796dfa"><rect height="1" x="134" y="69" width="1"/><rect x="140" y="69" width="2" height="1"/><rect x="142" y="69" width="1" height="1"/><rect width="1" height="1" x="127" y="74"/></g><g fill="#9b00a3"><rect height="1" x="99" y="71" width="1"/><rect x="100" y="71" width="1" height="1"/><rect x="100" y="72" width="1" height="1"/><rect x="101" y="72" width="1" height="2"/><rect width="1" height="1" x="101" y="74"/><rect x="101" y="83" width="1" height="1"/><rect y="85" width="1" height="1" x="99"/><rect height="1" x="100" y="85" width="1"/></g><g fill="#5cc47c"><rect x="21" y="69" width="1" height="1"/><rect x="12" y="70" width="1" height="1"/><rect x="14" y="71" width="1" height="1"/><rect width="1" height="1" x="10" y="75"/><rect width="1" height="1" x="8" y="76"/><rect y="80" width="1" height="1" x="8"/><rect width="1" height="1" x="14" y="87"/><rect x="21" y="87" width="1" height="1"/></g><g fill="#332afd"><rect height="1" x="138" y="69" width="1"/><rect x="137" y="70" width="1" height="1"/><rect x="138" y="70" width="1" height="1"/><rect x="142" y="70" width="1" height="1"/></g><rect x="103" y="87" width="1" height="1" fill="#b65edc"/><g fill="#fffcf5"><rect height="1" x="38" y="68" width="1"/><rect height="1" x="58" y="68" width="2"/><rect width="1" height="1" x="60" y="68"/><rect y="68" width="1" height="1" x="64"/><rect x="61" y="69" width="1" height="1"/><rect width="1" height="1" x="35" y="70"/><rect y="70" width="1" height="1" x="61"/><rect x="67" y="71" width="1" height="1"/><rect x="38" y="72" width="1" height="1"/><rect x="44" y="72" width="1" height="1"/><rect x="50" y="73" width="1" height="1"/><rect height="1" x="51" y="75" width="1"/><rect y="77" width="1" height="2" x="31"/><rect x="61" y="77" width="1" height="9"/><rect y="79" width="1" height="1" x="31"/><rect x="47" y="81" width="1" height="1"/><rect height="1" x="51" y="81" width="1"/><rect x="50" y="83" width="1" height="1"/><rect x="42" y="85" width="1" height="1"/><rect x="61" y="86" width="1" height="1"/><rect x="36" y="87" width="1" height="1"/><rect x="38" y="88" width="1" height="1"/></g><g fill="#00aa36"><rect height="1" x="17" y="69" width="1"/><rect height="1" x="18" y="69" width="1"/><rect width="1" height="1" x="14" y="70"/><rect x="15" y="70" width="1" height="1"/><rect x="19" y="70" width="2" height="1"/><rect x="21" y="70" width="1" height="1"/><rect x="12" y="71" width="1" height="1"/><rect width="1" height="1" x="24" y="71"/><rect x="11" y="72" width="1" height="1"/><rect x="10" y="73" width="1" height="1"/><rect width="1" height="1" x="11" y="73"/><rect width="1" height="2" x="9" y="74"/><rect x="9" y="76" width="1" height="1"/><rect x="9" y="80" width="1" height="2"/><rect x="9" y="82" width="1" height="1"/><rect x="10" y="82" width="1" height="1"/><rect x="10" y="83" width="1" height="1"/><rect y="85" width="1" height="1" x="23"/><rect x="24" y="85" width="1" height="1"/><rect y="86" width="1" height="1" x="14"/><rect x="15" y="86" width="1" height="1"/><rect x="20" y="86" width="1" height="1"/><rect x="21" y="86" width="1" height="1"/><rect width="2" height="1" x="16" y="87"/><rect x="18" y="87" width="1" height="1"/></g><g fill="#5955fe"><rect width="1" height="1" x="139" y="69"/><rect x="137" y="85" width="1" height="1"/></g><g fill="#fed985"><rect x="60" y="69" width="1" height="1"/><rect y="70" width="1" height="16" x="58"/><rect height="1" x="48" y="76" width="1"/><rect y="85" width="1" height="1" x="44"/><rect height="1" x="58" y="86" width="1"/><rect width="1" height="1" x="45" y="87"/></g><g fill="#f38f00"><rect x="66" y="69" width="1" height="1"/><rect y="70" width="1" height="1" x="65"/><rect height="1" x="66" y="70" width="1"/></g><g fill="#852ee5"><rect x="119" y="69" width="1" height="1"/><rect y="72" width="1" height="1" x="114"/><rect x="114" y="75" width="1" height="1"/></g><g fill="#8ab73e"><rect x="33" y="74" width="1" height="1"/><rect x="34" y="75" width="1" height="1"/><rect x="34" y="76" width="1" height="1"/><rect y="81" width="1" height="1" x="34"/><rect x="33" y="82" width="1" height="1"/></g><g fill="#ebb9d6"><rect x="94" y="68" width="1" height="1"/><rect x="95" y="68" width="1" height="1"/><rect y="69" width="1" height="1" x="90"/><rect width="1" height="1" x="96" y="71"/><rect x="86" y="73" width="1" height="1"/><rect x="85" y="75" width="1" height="1"/><rect x="88" y="75" width="1" height="1"/><rect x="92" y="85" width="1" height="1"/><rect y="87" width="1" height="1" x="90"/><rect x="93" y="88" width="2" height="1"/><rect y="88" width="1" height="1" x="95"/></g><g fill="#e4e2ae"><rect width="1" height="1" x="37" y="69"/><rect height="1" x="39" y="71" width="1"/><rect x="36" y="83" width="1" height="1"/><rect x="39" y="85" width="1" height="1"/><rect x="37" y="87" width="1" height="1"/></g><g fill="#e77e72"><rect x="76" y="69" width="1" height="1"/><rect x="77" y="69" width="1" height="1"/></g><g fill="#b60069"><rect x="92" y="70" width="1" height="1"/><rect width="1" height="1" x="92" y="86"/></g><rect y="85" width="1" height="1" fill="#c95892" x="91"/><g fill="#fdc754"><rect y="69" width="1" height="1" x="44"/><rect width="1" height="1" x="60" y="70"/><rect width="1" height="1" x="63" y="72"/><rect x="49" y="73" width="1" height="1"/><rect width="1" height="1" x="62" y="73"/><rect x="60" y="77" width="1" height="8"/><rect x="48" y="81" width="1" height="1"/><rect x="49" y="83" width="1" height="1"/><rect width="1" height="1" x="60" y="85"/><rect x="44" y="87" width="1" height="1"/></g><g fill="#cea7f2"><rect x="114" y="69" width="1" height="1"/><rect width="1" height="1" x="119" y="71"/></g><g fill="#a6b10b"><rect x="36" y="71" width="1" height="1"/><rect x="35" y="72" width="1" height="1"/><rect width="1" height="1" x="36" y="72"/><rect x="35" y="73" width="1" height="1"/><rect x="35" y="83" width="1" height="2"/><rect x="36" y="84" width="1" height="1"/><rect height="1" x="35" y="85" width="1"/><rect x="36" y="85" width="1" height="1"/></g><rect x="75" y="63" width="1" height="1" fill="#f0b3a8"/><g fill="#5248fc"><rect x="137" y="64" width="1" height="4"/><rect width="1" height="1" x="137" y="68"/><rect height="13" x="137" y="71" width="1"/><rect y="84" width="1" height="1" x="137"/><rect x="139" y="85" width="1" height="1"/></g><g fill="#bc007c"><rect height="1" x="93" y="69" width="1"/><rect height="1" x="93" y="70" width="1"/><rect x="94" y="70" width="1" height="1"/><rect x="93" y="86" width="1" height="1"/><rect x="93" y="87" width="1" height="1"/><rect x="94" y="87" width="1" height="1"/></g><g fill="#b647d6"><rect y="69" width="1" height="1" x="103"/><rect width="1" height="1" x="101" y="82"/></g><rect x="97" y="71" width="1" height="1" fill="#d688cb"/><g fill="#b7b6ff"><rect height="1" x="138" y="62" width="1"/><rect height="1" x="136" y="71" width="1"/><rect y="72" width="1" height="1" x="139"/><rect x="125" y="76" width="1" height="1"/></g><rect width="1" height="1" fill="#e397c4" x="92" y="71"/><g fill="#1e0cfb"><rect x="138" y="63" width="1" height="5"/><rect x="138" y="68" width="1" height="1"/><rect x="134" y="70" width="2" height="1"/><rect width="1" height="1" x="136" y="70"/><rect x="139" y="70" width="2" height="1"/><rect x="141" y="70" width="1" height="1"/><rect width="1" height="13" x="138" y="71"/><rect x="138" y="84" width="1" height="2"/><rect x="138" y="86" width="3" height="1"/><rect x="141" y="86" width="1" height="1"/></g><g fill="#c04baf"><rect y="69" width="1" height="1" x="97"/><rect x="99" y="72" width="1" height="1"/><rect x="98" y="85" width="1" height="1"/><rect x="97" y="87" width="1" height="1"/></g><g fill="#6a00e5"><rect height="1" x="120" y="69" width="2"/><rect x="122" y="69" width="1" height="1"/><rect width="7" height="1" x="117" y="70"/><rect width="1" height="1" x="124" y="70"/><rect height="1" x="116" y="71" width="1"/></g><g fill="#6d66fd"><rect x="135" y="69" width="1" height="1"/><rect x="136" y="69" width="1" height="1"/></g><g fill="#d082de"><rect x="101" y="75" width="1" height="1"/><rect height="1" x="101" y="81" width="1"/></g><g fill="#e0f4e7"><rect width="1" height="1" x="15" y="68"/><rect x="20" y="68" width="1" height="1"/><rect x="11" y="70" width="1" height="1"/><rect width="1" height="1" x="16" y="71"/><rect height="1" x="19" y="71" width="1"/><rect x="9" y="72" width="1" height="1"/><rect x="32" y="74" width="1" height="1"/><rect x="11" y="81" width="1" height="1"/><rect width="1" height="1" x="32" y="82"/><rect x="23" y="83" width="2" height="1"/><rect x="25" y="83" width="1" height="1"/><rect width="1" height="1" x="16" y="85"/><rect x="20" y="88" width="1" height="1"/></g><g fill="#d999cf"><rect height="1" x="98" y="69" width="1"/><rect y="85" width="1" height="1" x="97"/><rect x="98" y="87" width="1" height="1"/></g><g fill="#df3e1a"><rect x="76" y="63" width="1" height="1"/><rect x="76" y="64" width="1" height="1"/><rect x="77" y="64" width="1" height="1"/><rect height="1" x="76" y="70" width="1"/><rect x="76" y="86" width="1" height="1"/></g><g fill="#bde6cb"><rect y="68" width="1" height="1" x="17"/><rect x="18" y="68" width="1" height="1"/><rect y="70" width="1" height="1" x="24"/><rect height="1" x="23" y="73" width="1"/><rect height="1" x="8" y="74" width="1"/><rect y="84" width="1" height="1" x="13"/><rect width="1" height="1" x="22" y="84"/><rect x="15" y="85" width="1" height="1"/><rect x="20" y="85" width="1" height="1"/><rect x="24" y="86" width="1" height="1"/><rect x="16" y="88" width="1" height="1"/><rect x="19" y="88" width="1" height="1"/></g><g fill="#f5a646"><rect height="1" x="67" y="69" width="1"/><rect height="1" x="67" y="70" width="1"/></g><g fill="#c6dea7"><rect x="33" y="73" width="1" height="1"/><rect x="32" y="75" width="1" height="1"/><rect x="34" y="78" width="1" height="1"/><rect width="1" height="1" x="32" y="81"/><rect x="33" y="83" width="1" height="1"/></g><g fill="#abcc7d"><rect x="32" y="77" width="1" height="3"/><rect x="34" y="79" width="1" height="1"/><rect x="32" y="80" width="1" height="1"/></g><g fill="#fff"><rect width="150" height="61" fill="#fff"/><rect x="150" width="1" height="150" fill="#fff"/><rect height="1" fill="#fff" y="61" width="150"/><rect y="62" width="74" height="3" fill="#fff"/><rect x="74" y="62" width="1" height="1" fill="#fff"/><rect x="78" y="62" width="57" height="1" fill="#fff"/><rect x="135" y="62" width="1" height="5" fill="#fff"/><rect height="5" fill="#fff" x="140" y="62" width="10"/><rect y="63" width="56" height="4" fill="#fff" x="79"/><rect y="65" width="74" height="1" fill="#fff"/><rect y="65" width="1" height="85" fill="#fff" x="74"/><rect y="66" width="15" height="1" fill="#fff"/><rect y="66" width="26" height="1" fill="#fff" x="15"/><rect width="34" height="1" fill="#fff" x="41" y="66"/><rect height="1" fill="#fff" x="75" y="66" width="1"/><rect x="78" y="66" width="57" height="1" fill="#fff"/><rect y="67" width="12" height="2" fill="#fff"/><rect height="1" fill="#fff" x="12" y="67" width="1"/><rect fill="#fff" x="15" y="67" width="43" height="1"/><rect x="58" y="67" width="77" height="1" fill="#fff"/><rect y="67" width="1" height="1" fill="#fff" x="135"/><rect height="1" fill="#fff" x="140" y="67" width="10"/><rect x="12" y="68" width="1" height="1" fill="#fff"/><rect x="13" y="68" width="1" height="1" fill="#fff"/><rect height="1" fill="#fff" x="22" y="68" width="12"/><rect x="34" y="68" width="3" height="1" fill="#fff"/><rect height="1" fill="#fff" x="37" y="68" width="1"/><rect width="12" height="1" fill="#fff" x="45" y="68"/><rect x="57" y="68" width="1" height="82" fill="#fff"/><rect y="68" width="1" height="1" fill="#fff" x="62"/><rect x="63" y="68" width="1" height="1" fill="#fff"/><rect height="82" fill="#fff" x="68" y="68" width="6"/><rect y="68" width="11" height="1" fill="#fff" x="79"/><rect width="1" height="1" fill="#fff" x="90" y="68"/><rect x="98" y="68" width="3" height="1" fill="#fff"/><rect height="1" fill="#fff" x="101" y="68" width="1"/><rect y="68" width="7" height="1" fill="#fff" x="104"/><rect height="1" fill="#fff" x="111" y="68" width="1"/><rect x="115" y="68" width="2" height="1" fill="#fff"/><rect fill="#fff" x="117" y="68" width="1" height="1"/><rect y="68" width="9" height="1" fill="#fff" x="124"/><rect height="1" fill="#fff" x="133" y="68" width="1"/><rect fill="#fff" x="143" y="68" width="7" height="1"/><rect y="69" width="11" height="1" fill="#fff"/><rect height="1" fill="#fff" x="11" y="69" width="1"/><rect width="9" height="1" fill="#fff" x="24" y="69"/><rect height="1" fill="#fff" x="33" y="69" width="3"/><rect x="36" y="69" width="1" height="1" fill="#fff"/><rect height="1" fill="#fff" x="47" y="69" width="8"/><rect x="55" y="69" width="2" height="1" fill="#fff"/><rect x="62" y="69" width="1" height="1" fill="#fff"/><rect x="79" y="69" width="10" height="1" fill="#fff"/><rect x="89" y="69" width="1" height="1" fill="#fff"/><rect x="100" y="69" width="1" height="1" fill="#fff"/><rect width="5" height="81" fill="#fff" x="105" y="69"/><rect y="69" width="1" height="81" fill="#fff" x="110"/><rect x="115" y="69" width="1" height="1" fill="#fff"/><rect x="126" y="69" width="6" height="1" fill="#fff"/><rect width="1" height="81" fill="#fff" x="132" y="69"/><rect fill="#fff" x="144" y="69" width="6" height="81"/><rect height="1" fill="#fff" y="70" width="10"/><rect x="10" y="70" width="1" height="1" fill="#fff"/><rect width="9" height="1" fill="#fff" x="25" y="70"/><rect x="34" y="70" width="1" height="1" fill="#fff"/><rect fill="#fff" x="48" y="70" width="7" height="1"/><rect fill="#fff" x="55" y="70" width="2" height="1"/><rect width="8" height="2" fill="#fff" x="79" y="70"/><rect x="87" y="70" width="1" height="1" fill="#fff"/><rect x="127" y="70" width="5" height="1" fill="#fff"/><rect y="71" width="9" height="1" fill="#fff"/><rect height="1" fill="#fff" x="9" y="71" width="1"/><rect width="6" height="1" fill="#fff" x="27" y="71"/><rect fill="#fff" x="33" y="71" width="1" height="1"/><rect x="49" y="71" width="6" height="1" fill="#fff"/><rect y="71" width="2" height="1" fill="#fff" x="55"/><rect height="1" fill="#fff" x="127" y="71" width="5"/><rect y="72" width="8" height="2" fill="#fff"/><rect y="72" width="1" height="1" fill="#fff" x="8"/><rect height="12" fill="#fff" x="15" y="72" width="5"/><rect height="12" fill="#fff" x="20" y="72" width="1"/><rect width="6" height="1" fill="#fff" x="27" y="72"/><rect x="33" y="72" width="1" height="1" fill="#fff"/><rect x="39" y="72" width="4" height="10" fill="#fff"/><rect fill="#fff" x="43" y="72" width="1" height="10"/><rect fill="#fff" x="50" y="72" width="5" height="1"/><rect height="1" fill="#fff" x="55" y="72" width="2"/><rect y="72" width="9" height="78" fill="#fff" x="65"/><rect height="2" fill="#fff" x="79" y="72" width="7"/><rect x="86" y="72" width="1" height="1" fill="#fff"/><rect fill="#fff" x="92" y="72" width="5" height="12"/><rect width="1" height="12" fill="#fff" x="97" y="72"/><rect y="72" width="4" height="78" fill="#fff" x="119"/><rect fill="#fff" x="123" y="72" width="1" height="78"/><rect x="128" y="72" width="7" height="1" fill="#fff"/><rect x="135" y="72" width="1" height="78" fill="#fff"/><rect fill="#fff" x="140" y="72" width="10" height="12"/><rect x="8" y="73" width="1" height="1" fill="#fff"/><rect x="13" y="73" width="7" height="8" fill="#fff"/><rect width="1" height="10" fill="#fff" x="22" y="73"/><rect fill="#fff" x="27" y="73" width="3" height="77"/><rect x="30" y="73" width="2" height="2" fill="#fff"/><rect fill="#fff" x="32" y="73" width="1" height="1"/><rect fill="#fff" x="38" y="73" width="1" height="9"/><rect fill="#fff" x="44" y="73" width="1" height="9"/><rect x="45" y="73" width="1" height="8" fill="#fff"/><rect x="51" y="73" width="4" height="1" fill="#fff"/><rect x="55" y="73" width="2" height="1" fill="#fff"/><rect x="64" y="73" width="1" height="77" fill="#fff"/><rect width="8" height="10" fill="#fff" x="90" y="73"/><rect x="98" y="73" width="1" height="10" fill="#fff"/><rect height="77" fill="#fff" x="117" y="73" width="6"/><rect x="128" y="73" width="7" height="1" fill="#fff"/><rect height="7" fill="#fff" y="74" width="7"/><rect x="7" y="74" width="1" height="1" fill="#fff"/><rect x="12" y="74" width="19" height="1" fill="#fff"/><rect x="46" y="74" width="1" height="3" fill="#fff"/><rect width="4" height="1" fill="#fff" x="51" y="74"/><rect y="74" width="2" height="1" fill="#fff" x="55"/><rect y="74" width="11" height="76" fill="#fff" x="63"/><rect height="76" fill="#fff" x="79" y="74" width="6"/><rect x="85" y="74" width="1" height="1" fill="#fff"/><rect x="89" y="74" width="10" height="3" fill="#fff"/><rect x="99" y="74" width="1" height="8" fill="#fff"/><rect width="1" height="76" fill="#fff" x="124" y="74"/><rect y="74" width="6" height="76" fill="#fff" x="129"/><rect x="7" y="75" width="1" height="1" fill="#fff"/><rect fill="#fff" x="12" y="75" width="10" height="6"/><rect y="75" width="7" height="1" fill="#fff" x="24"/><rect x="31" y="75" width="1" height="1" fill="#fff"/><rect height="6" fill="#fff" x="36" y="75" width="10"/><rect fill="#fff" x="53" y="75" width="2" height="75"/><rect y="75" width="2" height="1" fill="#fff" x="55"/><rect x="62" y="75" width="12" height="1" fill="#fff"/><rect x="100" y="75" width="1" height="6" fill="#fff"/><rect x="116" y="75" width="8" height="75" fill="#fff"/><rect x="11" y="76" width="18" height="4" fill="#fff"/><rect y="76" width="1" height="1" fill="#fff" x="31"/><rect height="4" fill="#fff" x="47" y="76" width="1"/><rect x="52" y="76" width="3" height="74" fill="#fff"/><rect x="55" y="76" width="2" height="1" fill="#fff"/><rect x="62" y="76" width="12" height="1" fill="#fff"/><rect x="35" y="77" width="12" height="2" fill="#fff"/><rect width="2" height="1" fill="#fff" x="55" y="77"/><rect x="89" y="77" width="11" height="1" fill="#fff"/><rect x="115" y="77" width="9" height="73" fill="#fff"/><rect fill="#fff" x="55" y="78" width="2" height="1"/><rect fill="#fff" x="35" y="79" width="12" height="1"/><rect fill="#fff" x="55" y="79" width="2" height="1"/><rect x="11" y="80" width="19" height="1" fill="#fff"/><rect x="30" y="80" width="1" height="70" fill="#fff"/><rect y="80" width="1" height="2" fill="#fff" x="46"/><rect width="1" height="1" fill="#fff" x="47" y="80"/><rect x="55" y="80" width="2" height="1" fill="#fff"/><rect y="80" width="11" height="2" fill="#fff" x="89"/><rect y="81" width="6" height="69" fill="#fff"/><rect x="6" y="81" width="1" height="69" fill="#fff"/><rect width="10" height="1" fill="#fff" x="12" y="81"/><rect x="24" y="81" width="7" height="1" fill="#fff"/><rect fill="#fff" x="31" y="81" width="1" height="69"/><rect x="36" y="81" width="10" height="1" fill="#fff"/><rect y="81" width="2" height="1" fill="#fff" x="55"/><rect x="100" y="81" width="1" height="1" fill="#fff"/><rect x="7" y="82" width="1" height="1" fill="#fff"/><rect x="12" y="82" width="19" height="1" fill="#fff"/><rect x="38" y="82" width="6" height="1" fill="#fff"/><rect height="1" fill="#fff" x="44" y="82" width="2"/><rect x="46" y="82" width="1" height="1" fill="#fff"/><rect y="82" width="4" height="1" fill="#fff" x="51"/><rect fill="#fff" x="55" y="82" width="2" height="1"/><rect x="85" y="82" width="1" height="68" fill="#fff"/><rect x="89" y="82" width="10" height="1" fill="#fff"/><rect fill="#fff" x="99" y="82" width="1" height="1"/><rect x="7" y="83" width="1" height="67" fill="#fff"/><rect width="1" height="67" fill="#fff" x="8" y="83"/><rect fill="#fff" x="13" y="83" width="9" height="1"/><rect fill="#fff" x="22" y="83" width="1" height="1"/><rect width="1" height="1" fill="#fff" x="32" y="83"/><rect fill="#fff" x="37" y="83" width="1" height="1"/><rect height="1" fill="#fff" x="40" y="83" width="2"/><rect x="42" y="83" width="1" height="1" fill="#fff"/><rect fill="#fff" x="45" y="83" width="1" height="1"/><rect x="51" y="83" width="4" height="67" fill="#fff"/><rect fill="#fff" x="55" y="83" width="2" height="1"/><rect x="90" y="83" width="8" height="1" fill="#fff"/><rect width="1" height="1" fill="#fff" x="98" y="83"/><rect x="15" y="84" width="5" height="1" fill="#fff"/><rect x="20" y="84" width="1" height="1" fill="#fff"/><rect x="32" y="84" width="1" height="66" fill="#fff"/><rect fill="#fff" x="39" y="84" width="5" height="1"/><rect x="44" y="84" width="1" height="1" fill="#fff"/><rect x="50" y="84" width="5" height="66" fill="#fff"/><rect y="84" width="2" height="1" fill="#fff" x="55"/><rect x="86" y="84" width="1" height="66" fill="#fff"/><rect fill="#fff" x="92" y="84" width="5" height="1"/><rect height="1" fill="#fff" x="97" y="84" width="1"/><rect height="1" fill="#fff" x="140" y="84" width="10"/><rect y="85" width="1" height="65" fill="#fff" x="9"/><rect x="17" y="85" width="1" height="1" fill="#fff"/><rect x="18" y="85" width="1" height="1" fill="#fff"/><rect width="1" height="65" fill="#fff" x="33" y="85"/><rect height="65" fill="#fff" x="49" y="85" width="6"/><rect width="2" height="1" fill="#fff" x="55" y="85"/><rect x="94" y="85" width="1" height="1" fill="#fff"/><rect y="85" width="1" height="1" fill="#fff" x="95"/><rect x="143" y="85" width="7" height="65" fill="#fff"/><rect width="1" height="64" fill="#fff" x="10" y="86"/><rect x="25" y="86" width="9" height="64" fill="#fff"/><rect x="34" y="86" width="1" height="64" fill="#fff"/><rect x="48" y="86" width="7" height="64" fill="#fff"/><rect x="55" y="86" width="2" height="64" fill="#fff"/><rect y="86" width="1" height="64" fill="#fff" x="87"/><rect x="136" y="86" width="1" height="64" fill="#fff"/><rect fill="#fff" x="11" y="87" width="1" height="63"/><rect x="24" y="87" width="11" height="63" fill="#fff"/><rect y="87" width="1" height="63" fill="#fff" x="35"/><rect x="47" y="87" width="8" height="63" fill="#fff"/><rect x="88" y="87" width="1" height="63" fill="#fff"/><rect x="89" y="87" width="1" height="63" fill="#fff"/><rect y="87" width="1" height="63" fill="#fff" x="100"/><rect x="12" y="88" width="1" height="62" fill="#fff"/><rect x="13" y="88" width="1" height="62" fill="#fff"/><rect x="22" y="88" width="1" height="62" fill="#fff"/><rect height="62" fill="#fff" x="23" y="88" width="11"/><rect x="36" y="88" width="1" height="62" fill="#fff"/><rect width="1" height="62" fill="#fff" x="37" y="88"/><rect x="46" y="88" width="11" height="62" fill="#fff"/><rect x="61" y="88" width="29" height="62" fill="#fff"/><rect y="88" width="1" height="62" fill="#fff" x="90"/><rect x="98" y="88" width="3" height="62" fill="#fff"/><rect x="101" y="88" width="1" height="62" fill="#fff"/><rect x="104" y="88" width="46" height="62" fill="#fff"/><rect x="14" y="89" width="136" height="61" fill="#fff"/><rect y="150" width="150" height="1" fill="#fff"/><rect x="150" y="150" width="1" height="1" fill="#fff"/></g><rect width="1" height="1" fill="#c4c1fe" x="137" y="62"/><g fill="#fffffd"><rect y="63" width="1" height="1" x="74"/><rect x="13" y="67" width="1" height="1"/><rect height="1" x="14" y="67" width="1"/><rect x="61" y="68" width="1" height="1"/><rect y="68" width="1" height="1" x="78"/><rect y="69" width="1" height="1" x="12"/><rect y="69" width="1" height="1" x="116"/><rect y="71" width="1" height="1" x="18"/><rect x="26" y="71" width="1" height="2"/><rect width="1" height="1" x="21" y="72"/><rect x="21" y="73" width="1" height="1"/><rect height="1" x="26" y="73" width="1"/><rect x="37" y="73" width="1" height="1"/><rect x="36" y="74" width="1" height="1"/><rect x="37" y="74" width="1" height="1"/><rect width="1" height="1" x="23" y="75"/><rect height="1" x="52" y="75" width="1"/><rect x="30" y="76" width="1" height="3"/><rect height="10" x="62" y="77" width="1"/><rect y="78" width="1" height="1" x="89"/><rect width="1" height="1" x="30" y="79"/><rect x="89" y="79" width="1" height="1"/><rect x="31" y="80" width="1" height="1"/><rect x="35" y="80" width="1" height="1"/><rect y="81" width="1" height="1" x="7"/><rect height="1" x="23" y="81" width="1"/><rect width="1" height="1" x="36" y="82"/><rect height="1" x="37" y="82" width="1"/><rect x="26" y="83" width="1" height="2"/><rect x="38" y="83" width="1" height="1"/><rect x="39" y="83" width="1" height="1"/><rect height="1" x="43" y="83" width="1"/><rect x="44" y="83" width="1" height="1"/><rect height="1" x="14" y="84" width="1"/><rect x="21" y="84" width="1" height="1"/><rect x="38" y="84" width="1" height="1"/><rect x="26" y="85" width="1" height="1"/><rect x="41" y="85" width="1" height="1"/><rect y="87" width="1" height="1" x="61"/><rect y="87" width="1" height="1" x="62"/><rect height="1" x="45" y="88" width="1"/><rect x="58" y="88" width="2" height="1"/><rect x="60" y="88" width="1" height="1"/></g><g fill="#d8b400"><rect x="40" y="69" width="1" height="1"/><rect width="1" height="1" x="39" y="70"/><rect width="1" height="1" x="40" y="70"/><rect x="39" y="86" width="1" height="1"/><rect x="40" y="86" width="1" height="1"/><rect height="1" x="40" y="87" width="1"/></g><g fill="#b0bf52"><rect height="1" x="35" y="71" width="1"/><rect x="34" y="72" width="1" height="1"/><rect width="1" height="1" x="34" y="84"/></g><g fill="#dbd893"><rect x="37" y="72" width="1" height="1"/><rect x="35" y="82" width="1" height="1"/></g><g fill="#6ec98a"><rect height="1" x="14" y="69" width="1"/><rect x="21" y="71" width="1" height="1"/><rect x="9" y="73" width="1" height="1"/><rect y="75" width="1" height="1" x="8"/><rect y="81" width="1" height="1" x="8"/><rect width="1" height="1" x="14" y="85"/><rect x="21" y="85" width="1" height="1"/></g><g fill="#bd87ee"><rect x="112" y="69" width="1" height="1"/><rect width="2" height="1" x="114" y="70"/><rect height="1" x="116" y="70" width="1"/><rect height="1" x="114" y="71" width="1"/><rect x="115" y="71" width="1" height="1"/><rect x="117" y="72" width="1" height="1"/><rect x="116" y="73" width="1" height="1"/><rect x="125" y="74" width="1" height="1"/><rect x="114" y="77" width="1" height="9"/><rect x="114" y="86" width="1" height="1"/></g><g fill="#fde8b4"><rect x="62" y="70" width="1" height="1"/><rect x="43" y="71" width="1" height="1"/><rect x="48" y="71" width="1" height="1"/><rect y="72" width="1" height="1" x="45"/><rect x="47" y="74" width="1" height="1"/><rect x="48" y="77" width="1" height="2"/><rect x="48" y="79" width="1" height="1"/><rect x="47" y="82" width="1" height="1"/><rect width="1" height="1" x="47" y="86"/><rect x="58" y="87" width="1" height="1"/><rect x="41" y="88" width="1" height="1"/><rect y="88" width="1" height="1" x="42"/></g><rect height="1" fill="#aad192" x="32" y="76" width="1"/><g fill="#eec6dd"><rect height="1" x="93" y="68" width="1"/><rect x="85" y="81" width="1" height="1"/><rect x="88" y="81" width="1" height="1"/><rect height="1" x="96" y="88" width="1"/></g><g fill="#e7b609"><rect x="41" y="69" width="1" height="1"/><rect width="1" height="1" x="41" y="70"/><rect x="41" y="86" width="1" height="1"/><rect y="86" width="1" height="1" x="42"/><rect x="41" y="87" width="1" height="1"/></g><rect x="98" y="71" width="1" height="1" fill="#b62ca6"/><g fill="#b2b1ff"><rect x="139" y="63" width="1" height="5"/><rect x="139" y="68" width="1" height="1"/><rect x="139" y="73" width="1" height="11"/><rect x="139" y="84" width="1" height="1"/><rect x="138" y="87" width="1" height="1"/></g><g fill="#7600d9"><rect height="16" x="113" y="70" width="1"/><rect x="117" y="71" width="1" height="1"/><rect width="1" height="1" x="115" y="72"/><rect x="116" y="72" width="1" height="1"/><rect x="114" y="73" width="1" height="1"/><rect height="1" x="115" y="73" width="1"/><rect x="114" y="74" width="1" height="1"/><rect x="113" y="86" width="1" height="1"/></g><g fill="#7eab00"><rect x="34" y="73" width="1" height="1"/><rect x="34" y="74" width="1" height="1"/><rect x="34" y="82" width="1" height="1"/><rect x="34" y="83" width="1" height="1"/></g><g fill="#bc67cc"><rect x="100" y="83" width="1" height="1"/><rect x="99" y="84" width="1" height="1"/><rect height="1" x="102" y="87" width="1"/></g><g fill="#ceecd8"><rect x="16" y="68" width="1" height="1"/><rect x="19" y="68" width="1" height="1"/><rect x="10" y="71" width="1" height="1"/><rect x="12" y="73" width="1" height="1"/><rect height="1" x="25" y="73" width="1"/><rect width="1" height="2" x="7" y="77"/><rect x="7" y="79" width="1" height="1"/><rect x="12" y="83" width="1" height="1"/><rect width="1" height="1" x="9" y="84"/><rect y="86" width="1" height="1" x="11"/><rect x="15" y="88" width="1" height="1"/></g><g fill="#d370a0"><rect height="1" x="91" y="69" width="1"/><rect x="89" y="70" width="1" height="1"/><rect width="1" height="1" x="89" y="73"/><rect x="89" y="83" width="1" height="1"/><rect width="1" height="1" x="89" y="86"/><rect height="1" x="91" y="87" width="1"/></g><g fill="#fcab00"><rect x="59" y="70" width="1" height="1"/><rect x="64" y="70" width="1" height="1"/><rect x="59" y="71" width="1" height="1"/><rect x="62" y="71" width="1" height="1"/><rect width="1" height="1" x="63" y="71"/><rect x="59" y="76" width="1" height="10"/><rect x="59" y="86" width="1" height="1"/></g><g fill="#d7cafa"><rect x="120" y="68" width="1" height="1"/><rect y="71" width="1" height="1" x="134"/><rect x="135" y="71" width="1" height="1"/><rect height="1" x="141" y="71" width="1"/><rect y="71" width="1" height="1" x="142"/><rect x="115" y="75" width="1" height="1"/></g><g fill="#df5144"><rect x="77" y="70" width="1" height="16"/><rect x="77" y="86" width="1" height="1"/></g><g fill="#6d42f1"><rect y="76" width="1" height="10" x="127"/><rect height="1" x="127" y="86" width="1"/></g><g fill="#dbca6c"><rect x="38" y="69" width="1" height="1"/><rect x="38" y="85" width="1" height="2"/><rect height="1" x="38" y="87" width="1"/></g><g fill="#f9bd22"><rect x="42" y="69" width="1" height="1"/><rect x="43" y="69" width="1" height="1"/><rect x="42" y="87" width="1" height="1"/><rect y="87" width="1" height="1" x="43"/></g><g fill="#c7cc77"><rect x="36" y="70" width="1" height="1"/><rect height="1" x="36" y="73" width="1"/><rect x="35" y="74" width="1" height="1"/><rect x="34" y="77" width="1" height="1"/><rect x="34" y="80" width="1" height="1"/><rect y="86" width="1" height="1" x="36"/></g><g fill="#fdbd35"><rect y="70" width="1" height="1" x="63"/><rect x="60" y="72" width="1" height="1"/><rect width="1" height="1" x="61" y="74"/><rect x="50" y="77" width="1" height="2"/><rect x="50" y="79" width="1" height="1"/><rect x="47" y="83" width="1" height="1"/><rect x="46" y="84" width="1" height="2"/><rect height="1" x="45" y="85" width="1"/><rect x="46" y="86" width="1" height="1"/></g><rect fill="#f5d3d4" x="77" y="62" width="1" height="1"/><g fill="#b30095"><rect x="96" y="69" width="1" height="1"/><rect x="96" y="70" width="2" height="1"/><rect height="1" x="98" y="70" width="1"/><rect x="96" y="86" width="2" height="1"/><rect x="98" y="86" width="1" height="1"/><rect x="96" y="87" width="1" height="1"/></g><g fill="#d75682"><rect width="1" height="1" x="88" y="71"/><rect height="2" x="87" y="77" width="1"/><rect x="87" y="79" width="1" height="1"/><rect height="1" x="88" y="82" width="1"/><rect x="88" y="85" width="1" height="1"/></g><g fill="#4900ee"><rect x="124" y="71" width="1" height="1"/><rect y="71" width="1" height="1" x="125"/><rect y="72" width="1" height="1" x="125"/><rect x="126" y="72" width="1" height="14"/><rect x="126" y="86" width="1" height="1"/></g><g fill="#9b97fe"><rect x="139" y="71" width="1" height="1"/><rect x="124" y="72" width="1" height="1"/><rect x="140" y="85" width="1" height="2"/><rect x="141" y="85" width="1" height="1"/><rect x="137" y="86" width="1" height="1"/><rect x="127" y="87" width="1" height="1"/><rect x="139" y="87" width="1" height="1"/><rect x="140" y="87" width="1" height="1"/></g></svg>