<?xml version="1.0" encoding="UTF-8"?> <svg xmlns="http://www.w3.org/2000/svg" id="Layer_1" data-name="Layer 1" viewBox="0 0 400 245"><defs><style>.cls-1{fill:#00abc8;}.cls-2{fill:#00586f;}</style></defs><path class="cls-1" d="M172.245,91.097a10.11889,10.11889,0,0,0-3.109,7.42366v16.56046h36.03961V87.988H179.73207A10.19874,10.19874,0,0,0,172.245,91.097Zm28.42562,19.47916H173.64086V98.52068a5.75311,5.75311,0,0,1,1.7766-4.25116,5.8401,5.8401,0,0,1,4.25116-1.71315h21.002Z"></path><path class="cls-1" d="M128.90858,80.50086H101.87886v84.00786h27.02972a24.04629,24.04629,0,0,0,23.98412-24.04756V104.485a24.04644,24.04644,0,0,0-23.98412-23.98412Zm19.47917,60.02375a19.60595,19.60595,0,0,1-19.47916,19.54262H106.38383V85.00582h22.52476A19.49689,19.49689,0,0,1,148.38775,104.485Z"></path><path class="cls-1" d="M128.90858,87.988h-7.7409v4.50495h7.7409A12.13421,12.13421,0,0,1,140.90065,104.485v36.03963a11.64888,11.64888,0,0,1-3.55321,8.5023,11.50779,11.50779,0,0,1-8.43886,3.5532H113.87092V106.325H109.366v50.76h19.54261a15.67122,15.67122,0,0,0,11.61136-4.88565,15.91272,15.91272,0,0,0,4.88565-11.67481V104.485a16.6842,16.6842,0,0,0-16.497-16.497Z"></path><path class="cls-1" d="M166.91516,85.83067a17.34429,17.34429,0,0,0-5.26635,12.69v66.05149h4.505V98.52068a13.43124,13.43124,0,0,1,13.45141-13.45141H208.1577v79.5029h4.505V80.50086h-32.994A17.19972,17.19972,0,0,0,166.91516,85.83067Z"></path><polygon class="cls-1" points="169.136 164.572 173.641 164.572 173.641 122.568 200.671 122.568 200.671 164.572 205.112 164.572 205.112 118.063 169.136 118.063 169.136 164.572"></polygon><path class="cls-2" d="M269.64079,155.56226a4.49078,4.49078,0,0,1-8.37539,2.22075l-.12691-.19035L233.34736,88.68592a1.292,1.292,0,0,0-1.64971-.571,1.38134,1.38134,0,0,0-1.14209,1.45935v75.06141h4.505V105.056l22.01717,54.567.19034.31725a8.5804,8.5804,0,0,0,7.80435,4.63185,9.525,9.525,0,0,0,2.34766-.31725,8.60737,8.60737,0,0,0,4.88566-3.1725,8.84477,8.84477,0,0,0,1.77659-5.52015V80.43741h-4.505v75.12485Z"></path><path class="cls-2" d="M236.0757,87.29l.06346.19035,27.72767,68.8433a1.4175,1.4175,0,0,0,1.64971.6345,1.38733,1.38733,0,0,0,1.07866-1.45935V80.43741h-4.505v59.51614l-22.01717-54.567-.19035-.3807a9.05119,9.05119,0,0,0-10.152-4.31461,9.27264,9.27264,0,0,0-4.88566,3.236,8.52674,8.52674,0,0,0-1.84,5.52015v75.0614h4.505v-74.998a4.10571,4.10571,0,0,1,3.36284-4.378A4.22771,4.22771,0,0,1,236.0757,87.29Z"></path><path class="cls-2" d="M313.61166,80.50086H310.6295A24.04631,24.04631,0,0,0,286.58194,104.485v36.03963a24.04617,24.04617,0,0,0,24.04756,24.04756h2.98216a24.04626,24.04626,0,0,0,23.98411-24.04756V129.294h-4.50493V140.5246a19.606,19.606,0,0,1-19.47918,19.54262H310.6295a18.54877,18.54877,0,0,1-13.76866-5.774,18.78986,18.78986,0,0,1-5.774-13.76866V104.485A19.606,19.606,0,0,1,310.6295,85.00581h2.98216A19.49693,19.49693,0,0,1,333.09084,104.485V108.863h4.50493V104.485a24.04644,24.04644,0,0,0-23.98411-23.98412Z"></path><path class="cls-2" d="M294.06906,132.5299v7.99471a16.68217,16.68217,0,0,0,16.56046,16.56046h2.98216a15.67118,15.67118,0,0,0,11.61135-4.88565,15.91273,15.91273,0,0,0,4.88567-11.67481V104.485a16.68423,16.68423,0,0,0-16.497-16.497h-2.98216a15.91272,15.91272,0,0,0-11.6748,4.88565,15.67119,15.67119,0,0,0-4.88566,11.61136v22.271h4.505V104.485a11.40619,11.40619,0,0,1,3.5532-8.43886,11.64894,11.64894,0,0,1,8.5023-3.5532h2.98216A12.13421,12.13421,0,0,1,325.60374,104.485V140.5246a11.64892,11.64892,0,0,1-3.55321,8.50231,11.5078,11.5078,0,0,1-8.43885,3.5532h-2.98216A12.13221,12.13221,0,0,1,298.574,140.5246v-7.9947Z"></path><path class="cls-2" d="M353.52176,91.097a10.11888,10.11888,0,0,0-3.10907,7.42366v5.9643a10.61612,10.61612,0,0,0,10.53273,10.53271h11.99207a13.43124,13.43124,0,0,1,13.45142,13.45141v18.01981a13.43124,13.43124,0,0,1-13.45142,13.45141H342.92563v4.505h30.01186a17.98052,17.98052,0,0,0,17.95636-17.95637V128.53255a17.98052,17.98052,0,0,0-17.95636-17.95637H360.94542a6.06609,6.06609,0,0,1-6.02775-6.02775v-5.9643a5.75321,5.75321,0,0,1,1.77659-4.25116,5.84008,5.84008,0,0,1,4.25116-1.71315h29.94843v-4.505H360.94542A9.58228,9.58228,0,0,0,353.52176,91.097Z"></path><path class="cls-2" d="M360.94538,80.50086a17.98056,17.98056,0,0,0-18.01979,17.95636v5.96431a17.98059,17.98059,0,0,0,18.01979,18.01981h11.99208a5.85278,5.85278,0,0,1,5.96432,5.9643V146.362a5.84014,5.84014,0,0,1-1.71316,4.25115,5.7531,5.7531,0,0,1-4.25116,1.77661H342.92559v4.505h30.01187A10.50656,10.50656,0,0,0,383.40671,146.362V128.53255a10.39912,10.39912,0,0,0-10.46925-10.46926H360.94538a13.1213,13.1213,0,0,1-9.58094-3.9339,12.97665,12.97665,0,0,1-3.93391-9.581V98.58412a13.43167,13.43167,0,0,1,13.51485-13.45141h29.94843V80.50086Z"></path><path class="cls-2" d="M43.88553,90.65287a6.437,6.437,0,0,1,1.84,4.505,4.80233,4.80233,0,0,1-.06345.95175c1.1421.571,2.2842,1.20555,3.36285,1.84a53.42982,53.42982,0,0,1,11.421,9.00991,51.61186,51.61186,0,0,1,7.55056.7614,63.59934,63.59934,0,0,1,8.69265,2.0304,6.457,6.457,0,0,1,5.076-3.0456c0-.19035.06345-.3807.06345-.5076A58.8998,58.8998,0,0,0,82.717,94.904c-.6345-.698-1.269-1.39591-1.9035-2.03041A41.41057,41.41057,0,0,0,55.17963,80.69121a65.1193,65.1193,0,0,0-8.3754,6.91606C45.85248,88.49557,44.90073,89.51077,43.88553,90.65287Z"></path><path class="cls-2" d="M93.05931,119.83989c-1.84-1.0152-3.74355-2.0304-5.52015-2.85525a6.54849,6.54849,0,0,1-5.32981,2.72835,8.59892,8.59892,0,0,1-1.269-.12689c-.1269.3807-.31725.76139-.44415,1.1421a51.12454,51.12454,0,0,1-3.807,7.42365A6.5168,6.5168,0,0,1,74.976,138.68456a90.398,90.398,0,0,1,.44415,18.21016,41.37864,41.37864,0,0,0,5.45671-4.63185A41.81482,41.81482,0,0,0,93.05931,119.83989Z"></path><path class="cls-2" d="M88.74471,113.17764a8.59894,8.59894,0,0,1-.1269,1.269c1.3959.6345,2.72836,1.33245,4.12426,2.09385a41.914,41.914,0,0,0-7.29676-18.27361,80.6734,80.6734,0,0,1-.8883,8.3754c0,.1269-.06345.31725-.06345.44415A6.4811,6.4811,0,0,1,88.74471,113.17764Z"></path><path class="cls-2" d="M39.25367,88.62247a7.72243,7.72243,0,0,1,2.4111.44415c1.07865-1.20555,2.15731-2.34765,3.36286-3.48975a73.46084,73.46084,0,0,1,5.8374-5.076,42.05666,42.05666,0,0,0-25.82417,9.13681,66.74277,66.74277,0,0,1,8.81956,1.9035A6.345,6.345,0,0,1,39.25367,88.62247Z"></path><path class="cls-2" d="M35.38322,158.79822a6.4811,6.4811,0,0,1-6.0912-4.25116c-1.58625.19036-3.236.25381-4.88566.3807a42.02375,42.02375,0,0,0,15.41836,8.12161c-.95175-1.45936-1.7766-2.98215-2.60145-4.44151C36.58877,158.67132,35.95427,158.79822,35.38322,158.79822Z"></path><path class="cls-2" d="M72.1208,139.31905a6.18778,6.18778,0,0,1-3.5532-1.07864,53.64523,53.64523,0,0,1-16.81427,10.85,66.96757,66.96757,0,0,1-9.8982,3.236,6.597,6.597,0,0,1-2.34765,4.94911c1.20555,2.1573,2.538,4.37805,3.99735,6.5988a42.32645,42.32645,0,0,0,28.99667-5.13946,85.501,85.501,0,0,0-.2538-19.41571Z"></path><path class="cls-2" d="M23.26426,120.66474a6.53543,6.53543,0,0,1-.3807-2.22075,6.449,6.449,0,0,1,6.21811-6.47191,51.54065,51.54065,0,0,1,5.2029-12.62655,6.52087,6.52087,0,0,1-1.5228-4.18771,6.99157,6.99157,0,0,1,.1269-1.1421,69.17083,69.17083,0,0,0-10.65961-1.96695,10.1098,10.1098,0,0,0-.82485.82485A41.93612,41.93612,0,0,0,11.0184,135.00445a63.96868,63.96868,0,0,1,6.66226-8.75611A66.23855,66.23855,0,0,1,23.26426,120.66474Z"></path><path class="cls-2" d="M75.73745,113.17764a3.352,3.352,0,0,1,.06345-.82485,59.46649,59.46649,0,0,0-12.75346-2.47456A53.08149,53.08149,0,0,1,72.1208,126.3118h.06345a6.53547,6.53547,0,0,1,2.22075.38069,57.62682,57.62682,0,0,0,4.0608-8.18505A6.54846,6.54846,0,0,1,75.73745,113.17764Z"></path><path class="cls-2" d="M31.70312,146.86961a64.29884,64.29884,0,0,1-3.0456-10.21546,60.34565,60.34565,0,0,1-1.269-12.0555,6.50078,6.50078,0,0,1-2.66491-1.6497c-1.9035,1.71314-3.5532,3.4263-4.9491,4.9491a71.8475,71.8475,0,0,0-7.55056,10.4058,40.75187,40.75187,0,0,0,9.26371,13.89557h0c2.538-.06345,5.01255-.25381,7.42366-.44415A6.61061,6.61061,0,0,1,31.70312,146.86961Z"></path><path class="cls-2" d="M56.57554,106.95953a53.161,53.161,0,0,0-11.86516-8.31195,6.51166,6.51166,0,0,1-5.45671,2.98215,6.68188,6.68188,0,0,1-2.7918-.6345A46.80536,46.80536,0,0,0,31.83,112.35279a5.82882,5.82882,0,0,1,1.71315,1.0152,52.66746,52.66746,0,0,1,10.72306-4.505A55.993,55.993,0,0,1,56.57554,106.95953Z"></path><path class="cls-2" d="M69.39244,126.88285A50.6234,50.6234,0,0,0,60.31909,110.83c-.31726-.3807-.698-.82485-1.07865-1.20556a49.055,49.055,0,0,0-14.27626,1.90351,46.49213,46.49213,0,0,0-9.77131,4.0608,6.27065,6.27065,0,0,1,.6345,2.85525,6.52369,6.52369,0,0,1-5.774,6.47191,58.881,58.881,0,0,0,4.0608,20.93851,6.99157,6.99157,0,0,1,1.1421-.1269,6.47033,6.47033,0,0,1,5.9643,3.9339c10.21546-2.60145,18.71777-7.04295,25.31657-13.388a6.6,6.6,0,0,1-1.0152-3.48975A6.70839,6.70839,0,0,1,69.39244,126.88285ZM56.95624,134.941a7.19456,7.19456,0,0,1-2.09386,5.13945,6.94644,6.94644,0,0,1-5.076,2.09386H41.34753V120.91854h3.48975V138.748h4.9491a3.85108,3.85108,0,0,0,2.6649-1.07865,3.65235,3.65235,0,0,0,1.14211-2.6649V121.10889a3.85108,3.85108,0,0,0-1.07865-2.6649,3.55183,3.55183,0,0,0-2.6649-1.1421H45.97939v-3.48975h3.87045a7.149,7.149,0,0,1,7.16985,7.16986v13.959Z"></path></svg> 