<?xml version="1.0" encoding="UTF-8"?> <svg xmlns="http://www.w3.org/2000/svg" id="Layer_1" data-name="Layer 1" viewBox="0 0 400 245"><defs><style>.cls-1{fill:#00bc70;}.cls-2{fill:#06262d;}</style></defs><path class="cls-1" d="M103.32211,78.3901h31.322c14.16669,0,25.15072,10.71235,25.15072,24.879v36.48409c0,14.16669-10.984,24.87905-25.15072,24.87905h-31.322V78.3901Zm31.05028,71.49328a9.78124,9.78124,0,0,0,9.85847-10.09134V103.308a9.78124,9.78124,0,0,0-9.85847-10.09134H118.84725V149.9222h15.52514Z"></path><polygon class="cls-2" points="179.046 164.671 179.046 78.39 234.121 78.39 234.121 93.178 194.571 93.178 194.571 114.137 226.359 114.137 226.359 128.924 194.571 128.924 194.571 149.883 234.121 149.883 234.121 164.671 179.046 164.671"></polygon><polygon class="cls-2" points="302.354 164.671 269.441 109.324 268.704 105.637 268.704 164.671 253.179 164.671 253.179 78.39 266.841 78.39 299.754 133.737 300.491 137.424 300.491 78.39 316.055 78.39 316.055 164.671 302.354 164.671"></polygon><polygon class="cls-2" points="370.976 93.178 370.976 164.671 355.45 164.671 355.45 93.178 335.112 93.178 335.112 78.39 391.314 78.39 391.314 93.178 370.976 93.178"></polygon><path class="cls-2" d="M40.98866,78.3901H4V92.78967H40.98866a28.76033,28.76033,0,1,1,0,57.52065H4v14.39957H40.98866a43.1599,43.1599,0,1,0,0-86.31979"></path><path class="cls-1" d="M40.98866,98.9221H4v45.17817H40.98866a22.58909,22.58909,0,0,0,0-45.17817Zm0,30.81741H18.36076V113.32167h22.6279a8.20894,8.20894,0,1,1,0,16.41784Z"></path></svg> 