<?xml version="1.0" encoding="utf-8"?>
<!-- Generator: Adobe Illustrator 26.0.3, SVG Export Plug-In . SVG Version: 6.00 Build 0)  -->
<svg version="1.1" id="Layer_1" xmlns="http://www.w3.org/2000/svg" xmlns:xlink="http://www.w3.org/1999/xlink" x="0px" y="0px"
	 viewBox="0 0 153 141.4" style="enable-background:new 0 0 153 141.4;" xml:space="preserve">
<style type="text/css">
	.st0{fill:#3E1A54;}
	.st1{fill:#902C4B;}
</style>
<path class="st0" d="M0,141.4c7.3-10.1,14.6-20.2,22-30.2c9.4-12.7,19-25.3,28.7-37.8c2-2.6,2.3-4.4,0.1-7.3
	C35.2,45.9,19.9,25.5,4.6,5.2c-1-1.3-1.9-2.7-2.9-4.1c7-2.1,8.4-1.7,12.3,3.5c15.5,20.4,31,40.8,46.6,61.2c2.2,2.8,1.8,4.6-0.2,7.3
	c-14.1,18.5-28.1,37.2-42.1,55.8c-1,1.3-1.9,2.7-3.1,4.4c4.6,1.2,7.9,1,11-3.2c31.9-42.3,64-84.3,95.9-126.6c1.9-2.5,3.9-3.6,7-3.5
	c7.6,0.2,15.3,0.1,23.8,0.1c-1.3,2-2.1,3.3-3,4.6c-18.5,24.4-37,48.8-55.7,73.1c-2.5,3.3-2.9,5.4-0.1,8.9
	c10.8,13.6,21.1,27.4,31.7,41.2c-6.6,2.2-8.6,1.6-12.4-3.4C103.7,111.7,94,98.8,84.1,86c-2.1-2.7-2.3-4.4-0.1-7.3
	c17.2-22.5,34.2-45.1,51.3-67.6c0.8-1,1.4-2.1,2.3-3.5c-5.1-1.1-8.6-0.5-11.9,3.9C94.4,53.1,62.9,94.4,31.5,135.7
	c-1.6,2.1-3.6,3.8-5.5,5.7C17.3,141.4,8.7,141.4,0,141.4z"/>
<path class="st1" d="M154.3,140.7c-15.9,0-30.5,0.1-45.1-0.2c-1.8,0-3.9-2.3-5.2-4c-8.6-10.8-17-21.8-25.4-32.7
	c-0.5-0.6-1.1-1.2-2.1-2.4c-5.9,7.6-11.6,14.9-17.2,22.2c-3.1,3.9-6.5,7.7-9,11.9c-3,5-6.9,6.2-13,4.6c13-17,25.7-33.7,38.9-50.9
	c2.6,3.1,5,5.8,7.2,8.6c8.7,11.1,17.3,22.3,26.1,33.4c1,1.3,2.8,2.7,4.3,2.8c8.1,0.3,16.3,0.1,26,0.1
	c-13.5-17.6-26.2-34.2-39.2-51.2c1.5-2,3-3.9,4.8-6.1C121.6,97.9,137.6,118.8,154.3,140.7z"/>
<path class="st1" d="M33.9,7.4c11.4,14.7,22.3,28.7,33.7,43.3c3.3-4.1,6.4-7.9,9.4-11.8C85.4,27.7,94,16.5,102.2,4.9
	c3.2-4.5,6.7-5.9,12.7-4.2C99.2,21.5,83.8,41.9,67.8,63.2c-16.4-21.1-32.3-41.6-49-63c10,0,18.7-0.1,27.5,0.1c1.1,0,2.5,1.5,3.3,2.6
	c6.4,8.3,12.6,16.8,19.3,24.9c3.5,4.3,3,7.2-1.5,10.4C61.9,31,56.4,24,50.9,16.9c-1.5-2-3-4-4.6-5.9C42.5,6.1,42.3,6,33.9,7.4z"/>
</svg>
