<?xml version="1.0" encoding="utf-8"?>
<!-- Generator: Adobe Illustrator 26.0.3, SVG Export Plug-In . SVG Version: 6.00 Build 0)  -->
<svg version="1.1" id="Layer_1" xmlns="http://www.w3.org/2000/svg" xmlns:xlink="http://www.w3.org/1999/xlink" x="0px" y="0px"
	 viewBox="0 0 1000 260" style="enable-background:new 0 0 1000 260;" xml:space="preserve">
<style type="text/css">
	.st0{fill:#FFFFFF;}
	.st1{fill:#485CA9;}
	.st2{fill:#212B5D;}
</style>
<g>
	<path class="st1" d="M880.1223755,64.3248825c5.0698853-7.0196304,14.8724365-8.6016579,21.8954468-3.5317421
		l37.5344238,27.1078682c5.52948-5.462471,8.961731-13.0437393,8.961731-21.4307785
		c0-16.6412506-13.4902954-30.1319351-30.1311035-30.1319351c-2.9633789,0-5.8238525,0.4347229-8.5283203,1.2316399
		c0.0160522-0.4090004,0.03125-0.8184242,0.03125-1.2316399c0-16.6412525-13.4911499-30.1319389-30.131958-30.1319389
		c-8.9971924,0-17.0683594,3.9483285-22.5894775,10.2009735c-5.5210571-6.2526445-13.5922852-10.2009735-22.5894775-10.2009735
		c-16.6408081,0-30.131897,13.4906864-30.131897,30.1319389c0,0.3090706,0.0142822,0.6151886,0.0235596,0.9221497
		c-13.0551147,3.3048897-22.7150879,15.1279488-22.7150879,29.2097855c0,16.6412582,13.4902344,30.1319427,30.1311035,30.1319427
		h86.1464233L883.6541138,86.220314C876.6311035,81.1503906,875.0524292,71.3478775,880.1223755,64.3248825z"/>
	<circle class="st2" cx="865.1326904" cy="157.9029999" r="37.6373596"/>
	<path class="st2" d="M767.902771,128.6281586c0-8.6623688-7.0195923-15.6819992-15.6819458-15.6819992
		c-8.6624146,0-15.6820068,7.0196304-15.6820068,15.6819992c0,7.661377,0.711731,15.155365,2.0028076,22.4515839
		l30.3132324-8.9984283C768.2426758,137.6805573,767.902771,133.1942139,767.902771,128.6281586z"/>
	<path class="st2" d="M907.7024536,216.0247803l-13.1689453,37.7684479
		c46.0340576-10.8132172,82.6071167-46.4029846,94.8054199-91.8926849l-30.0628052-8.9242096
		C952.0979614,180.7124481,932.9508667,203.6763458,907.7024536,216.0247803z M967.4747314,163.3708344
		c2.2692871,0,4.109375,1.8400879,4.109375,4.1098328c0,2.2697296-1.8400879,4.1098175-4.109375,4.1098175
		c-2.2702026,0-4.1102905-1.8400879-4.1102905-4.1098175C963.3644409,165.2109222,965.2045288,163.3708344,967.4747314,163.3708344z
		"/>
	<path class="st2" d="M770.8526611,152.3969879l-30.0872192,8.9313812
		c12.0422974,45.7658691,48.7384644,81.6073761,94.9673462,92.465271l-13.1690063-37.7675934
		C797.1408081,203.5920105,777.9136353,180.3915863,770.8526611,152.3969879z M762.5082397,171.5904846
		c-2.2702026,0-4.1102905-1.8400879-4.1102905-4.1098175c0-2.2697449,1.8400879-4.1098328,4.1102905-4.1098328
		c2.2692871,0,4.109375,1.8400879,4.109375,4.1098328C766.6176147,169.7503967,764.7775269,171.5904846,762.5082397,171.5904846z"/>
	<path class="st2" d="M991.6200562,151.66922c1.359436-7.4817505,2.1082764-15.1734924,2.1082764-23.0410614
		c0-8.6623688-7.0196533-15.6819992-15.6820068-15.6819992c-1.1376343,0-2.2415161,0.1353531-3.310791,0.3651505
		c-3.8386841,0.8260117-7.1275635,3.069191-9.3572388,6.1404877L895.8954468,69.269989
		c-2.3308716-1.6865997-5.6029053-1.1705017-7.2962646,1.1772461c-1.6899414,2.3409958-1.1636963,5.6062546,1.1772461,7.2962265
		l72.5490723,52.3963089c-0.0632324,4.138504-0.3811646,8.2145844-0.9478149,12.2135162
		c-0.0160522,0.1079407-0.0261841,0.2179871-0.0421753,0.326355L991.6200562,151.66922z"/>
	<polygon class="st2" points="892.2945557,227.8098907 892.2945557,213.3038788 892.2945557,198.7978516 865.1326904,213.3038788 	
		"/>
	<polygon class="st2" points="837.9717407,227.8098907 865.1326904,213.3038788 837.9717407,198.7978516 837.9717407,213.3038788 	
		"/>
	<g>
		<path class="st2" d="M6.2716842,68.6629181h127.3888397v37.1085587H49.715107v24.2094498h76.0251465v34.6191254H49.715107
			v25.1168365h85.0754395v37.3345642H6.2716842V68.6629181z"/>
		<path class="st2" d="M157.4078369,68.6629181h46.3848572l37.7865753,61.3180084l37.7865753-61.3180084h46.3848267v158.3885345
			h-43.6694031v-90.9582977l-40.5019989,61.9960175h-0.9040222l-40.2759857-61.7700195v90.7322998h-42.9914246V68.6629181z"/>
		<path class="st2" d="M348.5906067,148.3108826v-0.4520111c0-46.158844,35.2971497-82.3633881,83.2674255-82.3633881
			c32.3557129,0,53.1717224,13.5771255,67.2008362,32.8111038l-33.0337219,25.5654678
			c-9.0536804-11.0843277-19.4599915-18.5525894-34.6191406-18.5525894c-22.175415,0-37.7865601,19.0079727-37.7865601,42.0873947
			v0.4520111c0,23.757431,15.611145,42.3100281,37.7865601,42.3100281c16.5151978,0,26.2468567-7.6908875,35.7491455-19.2306061
			l33.0337524,23.5314331c-14.9331665,20.5900116-35.0711365,35.7491608-69.9162903,35.7491608
			C385.0211487,230.2188873,348.5906067,195.5997467,348.5906067,148.3108826z"/>
		<path class="st2" d="M509.4550781,148.3108826v-0.4520111c0-45.480835,36.6565552-82.3633881,85.5308228-82.3633881
			c48.8709106,0,85.0754395,36.430542,85.0754395,81.911377v0.4520111c0,45.4774628-36.6565552,82.3600159-85.5308228,82.3600159
			C545.6596069,230.2188873,509.4550781,193.7917175,509.4550781,148.3108826z M635.0325317,148.3108826v-0.4520111
			c0-23.079422-16.2891846-42.7654114-40.5020142-42.7654114c-24.2094727,0-40.272644,19.4599838-40.272644,42.3134003v0.4520111
			c0,22.8534241,16.5151978,42.7620392,40.7280273,42.7620392
			C618.9693604,190.6209106,635.0325317,171.1643066,635.0325317,148.3108826z"/>
	</g>
</g>
</svg>
