<?xml version="1.0" encoding="UTF-8"?> <svg xmlns="http://www.w3.org/2000/svg" xmlns:xlink="http://www.w3.org/1999/xlink" id="Layer_1" data-name="Layer 1" viewBox="0 0 400 245"><defs><style>.cls-1{fill:none;}.cls-2{clip-path:url(#clip-path);}.cls-3{fill:url(#linear-gradient);}.cls-4{clip-path:url(#clip-path-2);}.cls-5{fill:url(#linear-gradient-2);}.cls-6{clip-path:url(#clip-path-3);}.cls-7{fill:url(#linear-gradient-3);}.cls-8{clip-path:url(#clip-path-4);}.cls-9{fill:url(#linear-gradient-4);}.cls-10{clip-path:url(#clip-path-5);}.cls-11{fill:url(#linear-gradient-5);}.cls-12{clip-path:url(#clip-path-6);}.cls-13{fill:url(#linear-gradient-6);}.cls-14{clip-path:url(#clip-path-7);}.cls-15{fill:url(#linear-gradient-7);}.cls-16{fill:#004a8d;}.cls-17{clip-path:url(#clip-path-8);}.cls-18{fill:url(#linear-gradient-8);}</style><clipPath id="clip-path"><path class="cls-1" d="M161.66979,121.69138c-.40729,43.9418,66.98143,60.09631,79.65175,60.09631,0,0-71.27127-8.95722-71.00669-60.346.19621-37.86231,51.67718-56.44267,68.57786-58.25314C222.979,64.776,162.05625,79.52438,161.66979,121.69138m77.22292-58.50285c.99293-.0981,1.81345-.14567,2.42883-.14567a23.09749,23.09749,0,0,0-2.42883.14567"></path></clipPath><linearGradient id="linear-gradient" x1="-914.3862" y1="-60.07233" x2="-913.35344" y2="-60.07233" gradientTransform="translate(7108.27665 -104952.32463) rotate(-90) scale(114.9778)" gradientUnits="userSpaceOnUse"><stop offset="0" stop-color="#1080c4"></stop><stop offset="0.0373" stop-color="#1c86c7"></stop><stop offset="0.345" stop-color="#7ab7e2"></stop><stop offset="0.4837" stop-color="#9fcbed"></stop><stop offset="0.8274" stop-color="#3698d1"></stop><stop offset="1" stop-color="#007dc3"></stop></linearGradient><clipPath id="clip-path-2"><path class="cls-1" d="M145.72041,121.69138c.41322,46.60846,71.34857,60.09928,76.09917,60.09928-4.46522,0-64.98962-15.40237-65.61392-60.55115-.58564-42.55942,59.12717-57.608,65.94988-58.06287-6.41247.40134-76.85133,12.266-76.43513,58.51474m76.43513-58.51474c.11594-.00594.20809-.00892.28539-.00892-.08324,0-.17541.003-.28539.00892"></path></clipPath><linearGradient id="linear-gradient-2" x1="-914.38889" y1="-60.08207" x2="-913.35612" y2="-60.08207" gradientTransform="translate(7084.6935 -104841.68137) rotate(-90) scale(114.8566)" xlink:href="#linear-gradient"></linearGradient><clipPath id="clip-path-3"><path class="cls-1" d="M129.73536,121.23654c.82645,49.35537,74.66925,60.55115,78.98285,60.55115-2.44368,0-67.61466-15.59561-68.97325-60.13792-1.25751-41.2038,61.877-57.44749,68.47975-58.54745-6.68892.85321-79.28311,11.18091-78.48935,58.13422m78.48935-58.13422c.324-.04162.4935-.05946.4935-.05946a3.548,3.548,0,0,0-.4935.05946"></path></clipPath><linearGradient id="linear-gradient-3" x1="-914.3862" y1="-60.08614" x2="-913.35344" y2="-60.08614" gradientTransform="translate(7077.40165 -104952.32463) rotate(-90) scale(114.9778)" xlink:href="#linear-gradient"></linearGradient><clipPath id="clip-path-4"><path class="cls-1" d="M2.7468,124.75045v1.17725H114.7373c6.31732,44.43232,76.881,55.86,79.92525,55.86,0,0-68.19139-15.07239-68.32517-57.04021H2.7468Z"></path></clipPath><linearGradient id="linear-gradient-4" x1="-915.55004" y1="-51.10812" x2="-914.51725" y2="-51.10812" gradientTransform="translate(2921.36508 -50383.30426) rotate(-90) scale(55.2292)" xlink:href="#linear-gradient"></linearGradient><clipPath id="clip-path-5"><path class="cls-1" d="M272.88435,181.78769h0m.02974,0a22.41279,22.41279,0,0,0,2.39315-.14864c-.97212.10106-1.77777.14864-2.39315.14864m69.51432-58.54745c-.20216,37.85339-50.34236,56.57049-67.12117,58.40178,15.83939-1.60535,75.96541-16.48747,76.35485-58.6515.40431-43.94477-66.11336-59.94766-78.77774-59.94766,0,0,69.80566,8.80858,69.54406,60.19738"></path></clipPath><linearGradient id="linear-gradient-5" x1="-914.38481" y1="-60.04183" x2="-913.35206" y2="-60.04183" gradientTransform="translate(7216.00681 -104953.20514) rotate(-90) scale(114.9787)" xlink:href="#linear-gradient"></linearGradient><clipPath id="clip-path-6"><path class="cls-1" d="M290.92365,181.78769c.08621,0,.19027-.003.31216-.0119-.1308.00893-.22892.0119-.31216.0119m65.61392-58.3453c.57971,42.494-58.34232,57.825-65.29881,58.3334,6.56109-.4489,74.77329-12.62275,74.363-58.78527-.41321-46.60548-69.92753-59.94766-74.67815-59.94766,4.46523,0,64.99259,15.24779,65.61392,60.39953"></path></clipPath><linearGradient id="linear-gradient-6" x1="-914.38481" y1="-60.05494" x2="-913.35206" y2="-60.05494" gradientTransform="translate(7233.50681 -104953.20514) rotate(-90) scale(114.9787)" xlink:href="#linear-gradient"></linearGradient><clipPath id="clip-path-7"><path class="cls-1" d="M304.01908,181.78769a3.87482,3.87482,0,0,0,.51132-.06243c-.33293.04756-.51132.06243-.51132.06243m67.59684-58.75852c1.25453,41.16217-60.456,57.55451-67.0855,58.69906,6.72461-.89186,77.78778-11.389,77.00294-58.28286-.82942-49.35537-73.19471-60.40251-77.51428-60.40251,2.44965,0,66.24418,15.447,67.59684,59.98631"></path></clipPath><linearGradient id="linear-gradient-7" x1="-914.38481" y1="-60.03743" x2="-913.35206" y2="-60.03743" gradientTransform="translate(7246.19431 -104953.20514) rotate(-90) scale(114.9787)" xlink:href="#linear-gradient"></linearGradient><clipPath id="clip-path-8"><path class="cls-1" d="M386.41182,119.8928H398c-6.31138-43.68613-77.85316-56.84994-80.90035-56.84994,0,0,69.17245,14.8851,69.31217,56.84994"></path></clipPath><linearGradient id="linear-gradient-8" x1="-915.52124" y1="-51.88119" x2="-914.48847" y2="-51.88119" gradientTransform="translate(3213.41234 -50276.07204) rotate(-90) scale(55.0462)" xlink:href="#linear-gradient"></linearGradient></defs><g class="cls-2"><rect class="cls-3" x="161.2625" y="63.04286" width="80.05904" height="118.74482"></rect></g><g class="cls-4"><rect class="cls-5" x="145.30421" y="63.16772" width="77.13375" height="118.61996"></rect></g><g class="cls-6"><rect class="cls-7" x="128.9416" y="63.04286" width="79.77661" height="118.74482"></rect></g><g class="cls-8"><rect class="cls-9" x="2.7468" y="124.75045" width="191.91575" height="57.04021"></rect></g><g class="cls-10"><rect class="cls-11" x="272.88435" y="63.04286" width="79.18205" height="118.74482"></rect></g><g class="cls-12"><rect class="cls-13" x="290.92365" y="63.04286" width="75.08843" height="118.74482"></rect></g><g class="cls-14"><rect class="cls-15" x="304.01908" y="63.04286" width="78.2991" height="118.74482"></rect></g><path class="cls-16" d="M327.463,125.20233c0,41.37919-63.73506,56.75481-66.03309,56.75481,7.0546,0,75.80785-12.15006,75.94163-64.09777H185.76776c0-41.38217,64.46046-54.65,66.76443-54.65-7.05459,0-77.03267,11.21659-76.91673,61.993Z"></path><g class="cls-17"><rect class="cls-18" x="317.09965" y="63.04286" width="80.90035" height="56.84994"></rect></g><polygon class="cls-16" points="1.849 119.804 11.811 81.023 42.637 81.073 40.312 90.123 21.88 90.093 20.453 95.64 36.052 95.667 33.727 104.713 18.131 104.69 16.568 110.775 35.734 110.808 33.412 119.857 1.849 119.804"></polygon><polygon class="cls-16" points="44.735 81.079 79.399 81.136 76.783 91.315 65.649 91.297 58.301 119.896 45.907 119.878 53.259 91.276 42.122 91.258 44.735 81.079"></polygon><path class="cls-16" d="M98.8771,92.42955a2.527,2.527,0,0,0-1.10888-2.63989,5.6586,5.6586,0,0,0-3.02339-.70754c-2.73206-.003-4.14714.80267-4.50686,2.20288-1.49535,5.82086,21.17269,2.24451,17.5458,16.35666-2.30991,8.99289-10.729,13.34515-21.12809,13.32732-9.97691-.01486-14.95347-6.00517-13.4165-13.00922l11.86764.02081a3.287,3.287,0,0,0,1.26049,3.07394,5.46958,5.46958,0,0,0,3.27015.97807c3.10068,0,5.41059-1.01672,5.87733-2.845,1.51021-5.87436-21.26781-1.867-17.46256-16.6807,2.11667-8.24076,10.11366-12.379,19.57031-12.36114,10.50311.01784,13.86838,5.5206,13.01815,12.30763Z"></path><polygon class="cls-16" points="107.718 119.982 117.68 81.201 130.074 81.222 120.112 120.003 107.718 119.982"></polygon></svg> 