<?xml version="1.0" encoding="UTF-8"?> <svg xmlns="http://www.w3.org/2000/svg" id="svg2" viewBox="0 0 400 245"><defs><style>.cls-1{fill:#f36f16;}.cls-2{fill:#393536;}</style></defs><g id="g10"><g id="g12"><path id="path14" class="cls-1" d="M111.84107,137.96823c0,44.00246,35.20432,80.20583,80.44507,84.87116V193.21992c-28.02279-4.49417-49.3472-27.48681-49.40461-55.25169.05741-27.76275,21.38183-50.76538,49.40461-55.25537V53.089c-45.24076,4.67864-80.437,40.87385-80.44507,84.87927"></path><path id="path16" class="cls-1" d="M157.61576,137.644c0,20.10152,14.91872,36.93994,35.0436,41.65385V95.99009c-20.12488,4.7133-35.0436,21.54743-35.0436,41.65386"></path><path id="path18" class="cls-1" d="M161.50837,14.66762l.14226,20.6419C120.85082,49.4984,90.67878,84.41994,85.50632,126.61845l-.27924,2.24846h13.63l.23546-1.76612c6.19461-45.8115,45.60817-81.71812,94.72828-85.50958l1.97322-.15807L161.50838,14.66762"></path><path id="path20" class="cls-2" d="M227.536,115.77029a9.49954,9.49954,0,1,1-9.498-9.50311,9.496,9.496,0,0,1,9.498,9.50311"></path><path id="path22" class="cls-1" d="M241.20484,181.73523l5.03861,7.38017a75.05493,75.05493,0,0,0,26.92971-28.5811l-9.186-1.86187A66.54425,66.54425,0,0,1,241.20484,181.73523Zm34.55544-86.54361h-9.77946A69.80191,69.80191,0,0,1,272.958,125.3254c0,1.134-.04895,2.2659-.1081,3.39691l8.17844,7.70711a75.34129,75.34129,0,0,0,.83008-11.104,77.53387,77.53387,0,0,0-6.09814-30.13378"></path><path id="path24" class="cls-1" d="M254.83182,149.76078l38.559,7.82459-32.73415-30.86189c.02345-.63735.07444-1.26654.07444-1.908,0-28.96514-22.26228-53.09766-51.80564-58.60739v12.958c21.94922,5.28029,38.12051,23.68893,38.17762,45.633-.05711,21.96758-16.2284,40.37223-38.17762,45.65538v12.96406c.18052-.02824,33.07681,46.91,33.07681,46.91h16.78009L222.70749,179.2978a62.716,62.716,0,0,0,32.12434-29.537"></path></g></g></svg> 