<?xml version="1.0" encoding="utf-8"?>
<!-- Generator: Adobe Illustrator 26.0.3, SVG Export Plug-In . SVG Version: 6.00 Build 0)  -->
<svg version="1.1" id="Layer_1" xmlns="http://www.w3.org/2000/svg" xmlns:xlink="http://www.w3.org/1999/xlink" x="0px" y="0px"
	 viewBox="0 0 290.5 61" style="enable-background:new 0 0 290.5 61;" xml:space="preserve">
<style type="text/css">
	.st0{fill:#E86024;}
	.st1{fill:#46B149;}
	.st2{fill:#F19204;}
</style>
<g>
	<path class="st0" d="M290.5,44.8c-0.1,0.2-0.2,0.4-0.3,0.6c-0.1,0.2-0.3,0.4-0.5,0.5c-1,0.5-2.1-0.2-2.1-1.3c0-0.1,0-0.2,0-0.3
		c0-3.7,0-7.3,0-11c0-0.5-0.1-1-0.2-1.5c-0.2-0.9-0.6-1.7-1.3-2.3c-0.8-0.8-1.8-1.4-2.9-1.7c-1.9-0.5-4.6,0.3-5.9,2.6
		c-0.2,0.4-0.4,0.9-0.6,1.3c-0.1,0.2-0.1,0.4-0.1,0.6c0,0.2,0,0.4,0,0.5c0,3.6,0,7.3,0,10.9c0,0.5-0.1,1-0.2,1.4
		c-0.2,0.7-0.7,0.9-1.3,0.9c-0.6,0.1-0.9-0.3-1.2-0.7c-0.2-0.3-0.3-0.7-0.3-1.1c0-3,0-6.1,0-9.1c0-0.9,0-1.7,0-2.6
		c0-0.4-0.1-0.8-0.3-1.2c-0.7-1.7-1.9-2.8-3.6-3.4c-2.7-0.9-5,0.4-6.3,2.1c-0.7,0.8-0.9,1.8-0.9,2.9c0,0.3,0,0.6,0,1
		c0,3.2,0,6.5,0,9.7c0,0.5-0.1,1-0.2,1.5c-0.1,0.3-0.3,0.6-0.6,0.7c-0.2,0.1-0.3,0.1-0.5,0.2c-0.6,0.1-1.1-0.1-1.3-0.6
		c-0.2-0.4-0.3-0.7-0.3-1.2c0-5.9,0-11.8,0-17.7c0-0.3,0-0.6,0.1-0.8c0.2-0.5,0.6-0.8,1.2-0.8c0.6,0,1.1,0.2,1.3,0.7
		c0.1,0.2,0.2,0.4,0.3,0.7c0,0.1,0.1,0.2,0.1,0.4c0.2-0.1,0.4-0.2,0.6-0.3c1.1-0.8,2.3-1.2,3.5-1.4c1.3-0.2,2.6-0.1,3.9,0.3
		c1.3,0.4,2.4,1.2,3.4,2.1c0.2,0.2,0.5,0.5,0.7,0.7c0.2,0.3,0.4,0.3,0.6,0c0.3-0.3,0.7-0.6,1-1c0.9-0.9,2-1.5,3.2-1.9
		c0.4-0.1,0.8-0.2,1.2-0.2c0.7-0.1,1.3,0,2-0.1c0.8,0,1.5,0.1,2.2,0.4c2.4,1,4.1,2.6,5,5c0.2,0.5,0.3,1,0.3,1.6c0,0.3,0,0.6,0.3,0.8
		C290.5,36.8,290.5,40.8,290.5,44.8z"/>
	<path class="st0" d="M24.6,27.8c-1.6-1.3-2.6-2.8-2.9-4.7c-0.2-1.6,0.1-3.1,0.7-4.6c0.9-2.1,2.3-3.9,3.9-5.6
		c0.8-0.8,1.8-1.6,2.7-2.3c2-1.6,4.4-2.5,6.9-3.1c0.8-0.2,1.6-0.3,2.4-0.4C38.8,7.1,39.4,7,40,7c0.4,0,0.7,0,1.1,0
		c1.6,0,3.1,0.1,4.6,0.4c1.5,0.3,3,0.7,4.5,1.3c1.4,0.5,2.7,1.1,4,1.9c2.4,1.5,4.5,3.2,6.3,5.4c0.8,1,1.5,2.1,2.2,3.3
		c0.1,0.1,0.1,0.2,0.2,0.3c-0.1,0-0.2,0-0.3-0.1c-0.5-0.2-1-0.5-1.4-0.9c-0.7-0.6-1.3-1.2-2-1.8c-0.6-0.6-1.3-1-2.1-1.3
		c-0.7-0.2-1.4-0.2-2.1,0.1c-0.2,0.1-0.5,0.2-0.8,0.3c0.1,0.2,0.2,0.3,0.3,0.5c0.4,0.8,0.9,1.5,1.3,2.3c1.3,2.4,2.2,4.9,2.8,7.5
		c0.6,2.5,0.8,5,0.7,7.6c-0.1,2.5-0.4,5-1.1,7.4c-0.8,2.7-1.9,5.2-3.4,7.6c-0.9,1.4-1.9,2.7-3,3.8c-3,3.1-6.5,5.5-10.7,6.8
		c-1.1,0.4-2.3,0.7-3.4,1c-0.4,0.1-0.8,0.2-1.2,0.3c0.1-0.2,0.2-0.2,0.3-0.2c1.2-0.6,2.4-1.1,3.6-1.7c2.9-1.4,5.4-3.3,7.7-5.5
		c2.2-2.1,4-4.5,5.4-7.3c0.9-1.8,1.5-3.7,2-5.7c0.2-0.9,0.3-1.7,0.3-2.6c0-0.2,0.1-0.5,0.1-0.7c0-0.8,0-1.7-0.1-2.5
		c-0.1-0.8-0.2-1.7-0.4-2.5c-0.6-2.6-1.6-5-3.2-7.1c-0.9-1.2-1.9-2.3-3.1-3.3c-2.2-1.8-4.7-2.9-7.4-3.4c-0.7-0.1-1.4-0.2-2-0.2
		c-0.3,0-0.6-0.1-0.9-0.1c-1.3,0-2.6,0.2-3.9,0.7c-2.5,0.8-4.5,2.3-6.2,4.2c-1.2,1.3-2.3,2.7-3.4,4.2C25,27.4,24.8,27.6,24.6,27.8z"
		/>
	<path class="st1" d="M38.1,33.1c0.1,0.1,0.2,0.1,0.2,0.2c0.5,0.5,1.1,1,1.5,1.7c0.7,0.9,1,1.9,1.2,3c0.2,1,0,2.1-0.2,3.1
		c-0.4,1.6-1.3,3.1-2.3,4.4c-1.7,2.4-3.9,4.3-6.4,5.9c-1,0.7-2.1,1.1-3.3,1.4c-1.5,0.5-3.1,0.8-4.6,1c-1,0.2-2.1,0.1-3.2,0.1
		c-1.2,0-2.3-0.1-3.5-0.3c-3.4-0.5-6.5-1.7-9.4-3.5c-1.4-0.9-2.7-1.8-3.9-3c-1.6-1.5-2.9-3.2-4-5.1c-0.1-0.2-0.3-0.4-0.3-0.7
		c0.1,0,0.2,0.1,0.3,0.1c0.5,0.2,0.9,0.5,1.3,0.9c0.7,0.6,1.4,1.2,2.1,1.8C4.1,44.4,4.5,44.7,5,45c1,0.5,2,0.5,3,0.2
		c0.2-0.1,0.5-0.2,0.7-0.3c-0.1-0.2-0.1-0.3-0.2-0.4c-1.7-2.6-3-5.4-3.8-8.4c-0.2-0.8-0.5-1.7-0.6-2.5c-0.1-0.6-0.2-1.1-0.3-1.7
		c0-0.3-0.1-0.7-0.1-1c0-0.1,0-0.3,0-0.4c-0.1-1.2-0.1-2.4-0.1-3.6c0-0.7,0.1-1.4,0.2-2.1C3.8,24,3.9,23.3,4,22.6
		c0.1-0.7,0.2-1.3,0.4-1.9c0.6-2.1,1.2-4.1,2.2-6c1-1.9,2.1-3.7,3.5-5.4c2.1-2.5,4.6-4.6,7.5-6.2c1.8-1,3.6-1.7,5.6-2.3
		c1-0.3,2-0.6,3-0.8c0.1,0,0.1,0,0.2,0c-0.1,0-0.2,0.1-0.3,0.1c-1,0.4-2,0.8-2.9,1.3c-2.3,1.2-4.6,2.6-6.6,4.3
		c-0.7,0.6-1.5,1.2-2.1,1.9c-0.6,0.6-1.1,1.2-1.6,1.8c-0.6,0.7-1.2,1.5-1.8,2.3c-0.9,1.4-1.8,2.9-2.4,4.5c-0.4,1-0.7,2-1,3.1
		c-0.3,1.1-0.5,2.1-0.5,3.2C7,23,7,23.6,7,24.2c0,1.1,0.1,2.1,0.2,3.1c0.3,2.1,1,4,1.9,5.9c1,2,2.3,3.8,4,5.3
		c2.1,1.9,4.6,3.2,7.4,3.8c1.2,0.3,2.4,0.4,3.6,0.4c2,0,3.8-0.5,5.5-1.3c1.2-0.6,2.4-1.4,3.4-2.4c1.1-1,2-2.1,2.9-3.2
		c0.7-0.9,1.3-1.7,2-2.6C38,33.2,38.1,33.1,38.1,33.1z"/>
	<path class="st0" d="M225.2,35.5c0-3,0-5.9,0-8.9c0-0.2,0-0.5,0.1-0.7c0.1-0.4,0.4-0.7,0.8-0.9c0.3-0.1,0.6-0.1,1,0
		c0.5,0.1,0.7,0.5,0.8,0.9c0,0.1,0.1,0.3,0.1,0.4c0.1,0.3,0.3,0.4,0.6,0.2c0.2-0.1,0.3-0.2,0.4-0.3c0.7-0.5,1.5-0.9,2.4-1.1
		c0.3-0.1,0.6-0.2,0.9-0.2c0.9,0,1.8,0,2.7,0c1,0,1.9,0.4,2.8,0.9c0.8,0.5,1.5,1.1,2.2,1.8c0.1,0.1,0.3,0.3,0.4,0.4
		c0.2,0.2,0.4,0.2,0.6,0c0.1-0.1,0.2-0.2,0.3-0.3c1-1.1,2.1-2,3.6-2.5c1-0.3,1.9-0.4,2.9-0.4c0.2,0,0.4,0,0.6,0
		c0.6,0,1.2,0.1,1.7,0.3c1.5,0.5,2.9,1.3,4,2.6c0.8,1,1.4,2.1,1.8,3.4c0.1,0.3,0.1,0.6,0.1,1c0,3.1,0,6.2,0,9.4c0,1.1,0,2.1,0,3.2
		c0,0.5-0.2,0.8-0.6,1.1c-0.5,0.4-1,0.4-1.5,0c-0.4-0.3-0.6-0.7-0.6-1.2c0-0.8,0-1.5,0-2.3c0-2.8,0-5.6,0-8.4c0-0.8-0.1-1.6-0.3-2.4
		c-0.1-0.3-0.2-0.6-0.3-0.8c-0.8-1.3-1.9-2.3-3.4-2.7c-2.1-0.6-4.8,0-6.3,2.3c-0.5,0.7-0.7,1.5-0.8,2.3c-0.1,0.8-0.1,1.6-0.1,2.3
		c0,2.9,0,5.8,0,8.7c0,0.4,0,0.8,0,1.2c0,0.7-0.7,1.3-1.4,1.3c0,0,0,0,0,0c-0.6,0-1.3-0.6-1.3-1.2c0-0.2,0-0.3,0-0.5
		c0-3.2,0-6.4,0-9.5c0-0.6,0-1.3,0-1.9c-0.2-2.3-1.4-3.9-3.5-4.8c-2.2-0.9-4.1-0.5-5.8,1.1c-0.8,0.7-1.4,1.6-1.7,2.6
		c-0.2,0.7-0.2,1.4-0.2,2.1c0,3.3,0,6.7,0,10c0,0.3,0,0.7-0.1,1c0,0.4-0.3,0.7-0.7,1c-0.5,0.3-0.9,0.3-1.3,0
		c-0.5-0.3-0.7-0.7-0.7-1.2c0-0.5,0-0.9,0-1.4C225.2,40.7,225.2,38.1,225.2,35.5C225.2,35.5,225.2,35.5,225.2,35.5z"/>
	<path class="st1" d="M94.4,37c0,1.5,0,3,0,4.6c0,0.6-0.2,1.1-0.7,1.5c-0.5,0.4-1,0.7-1.5,1.1c-1.1,0.7-2.2,1.3-3.5,1.6
		c-0.5,0.1-0.9,0.3-1.4,0.4c-0.1,0-0.2,0-0.3,0c-0.8,0-1.6,0.1-2.4,0.1c-1.3,0.1-2.5-0.2-3.7-0.6c-1.9-0.6-3.6-1.5-5.1-2.9
		c-0.8-0.8-1.6-1.7-2.3-2.6c-0.8-1-1.4-2.1-1.9-3.4c-0.3-1-0.7-2-0.9-3c-0.1-0.4-0.1-0.8-0.1-1.2c0-0.6-0.1-1.2-0.1-1.8
		c0-0.4,0.1-0.7,0.1-1.1c0-0.6,0-1.2,0.1-1.8c0.2-1.5,0.6-3,1.4-4.4c0.3-0.5,0.5-1,0.8-1.5c0.1-0.1,0.1-0.2,0.2-0.3
		c0.8-1,1.6-2,2.6-2.9c1.8-1.7,3.8-2.8,6.2-3.3c1.1-0.2,2.3-0.3,3.4-0.3c1.3,0.1,2.6,0.2,3.9,0.6c1.8,0.6,3.3,1.5,4.7,2.7
		c0.6,0.5,0.6,1.7,0,2.2c-0.3,0.3-0.8,0.5-1.2,0.1c-0.7-0.5-1.3-0.9-2-1.4c-1-0.6-2.1-1.1-3.2-1.3C87,18.1,86.5,18,86,18
		c-0.2,0-0.4,0-0.6-0.1c-0.3-0.1-0.5-0.1-0.8,0C84.4,18,84.2,18,84,18c-0.8,0-1.6,0.1-2.4,0.4c-1.6,0.6-3.1,1.4-4.3,2.5
		c-1.8,1.8-3.1,3.8-3.7,6.3c-0.1,0.2-0.1,0.5-0.1,0.7c0,0.4-0.1,0.8-0.2,1.1c-0.1,0.3-0.1,0.7-0.2,1c0,0.4,0,0.9,0,1.3
		c0,0.1,0,0.1,0,0.2c0.3,0.7,0.4,1.5,0.5,2.2c0.1,0.6,0.3,1.1,0.5,1.6c0.4,1.1,1,2.1,1.7,3.1c0.7,0.9,1.5,1.7,2.3,2.4
		c1.3,1.1,2.8,1.9,4.6,2.2c1.3,0.2,2.5,0.3,3.8,0.2c1.2-0.1,2.4-0.5,3.5-1.1c0.5-0.3,0.9-0.6,1.4-0.8c0.3-0.2,0.5-0.5,0.5-0.9
		c0-1.9,0-3.9,0-5.8c0-0.2,0-0.4,0-0.7c0-0.4-0.1-0.5-0.5-0.5c-0.2,0-0.4,0-0.5,0c-1.4,0-2.7,0-4.1,0c-0.4,0-0.8-0.1-1.3-0.2
		c-0.4-0.1-0.6-0.4-0.7-0.8c0-0.2,0-0.5,0-0.7c0.1-0.5,0.3-0.8,0.9-0.9c0.2,0,0.4-0.1,0.6-0.1c2.2,0,4.5,0,6.7,0c0.1,0,0.3,0,0.4,0
		c0.6,0.1,1,0.5,1.1,1.1c0,0.4,0,0.8,0,1.2C94.4,34.5,94.4,35.7,94.4,37C94.4,37,94.4,37,94.4,37z"/>
	<path class="st1" d="M153.3,30.7c-0.4-0.6-0.8-1.1-1.1-1.6c-2.2-3-4.4-6.1-6.5-9.1c-0.4-0.6-0.8-1.1-1.2-1.6
		c-0.3-0.4-0.5-0.7-0.7-1.1c-0.2-0.3-0.2-0.6-0.1-1c0.1-0.4,0.3-0.8,0.8-0.9c0.5-0.1,0.9,0,1.3,0.3c0.3,0.3,0.5,0.6,0.8,0.9
		c1,1.5,2.1,2.9,3.1,4.4c1.6,2.2,3.2,4.5,4.8,6.7c0.2,0.3,0.5,0.5,0.8,0.7c0.1-0.1,0.2-0.2,0.2-0.3c2.2-2.8,4.3-5.7,6.3-8.7
		c0.8-1.2,1.6-2.3,2.5-3.4c0.3-0.4,0.7-0.7,1.3-0.6c0.5,0,0.9,0.3,1,0.8c0.1,0.6,0,1.2-0.3,1.7c-1.1,1.6-2.2,3.2-3.4,4.7
		c-1.5,2-2.9,4.1-4.4,6.2c-0.4,0.5-0.8,1.1-1.2,1.6c-0.2,0.2-0.2,0.5-0.1,0.8c0.1,0.1,0.1,0.2,0.2,0.3c1.5,2.2,3,4.4,4.6,6.5
		c1.4,2,2.9,3.9,4.3,5.9c0.4,0.6,0.5,1.1,0.3,1.8c-0.2,0.7-1.2,1-1.7,0.5c-0.3-0.3-0.6-0.6-0.8-0.9c-1.1-1.5-2.1-2.9-3.2-4.4
		c-1.7-2.3-3.3-4.6-5-6.9c-0.1-0.1-0.2-0.3-0.3-0.4c-0.2-0.2-0.3-0.2-0.5,0c-0.1,0.1-0.2,0.2-0.3,0.3c-1,1.5-2.1,2.9-3.1,4.4
		c-1.6,2.1-3.1,4.3-4.6,6.4c-0.3,0.4-0.6,0.8-0.9,1.2c-0.1,0.1-0.1,0.1-0.2,0.2c-0.4,0.5-1,0.6-1.5,0.3c-0.5-0.3-0.8-0.9-0.6-1.5
		c0.1-0.2,0.2-0.5,0.3-0.7c0.5-0.8,1.1-1.5,1.6-2.3c2.5-3.4,4.9-6.8,7.4-10.2C153,31.2,153.1,30.9,153.3,30.7z"/>
	<path class="st0" d="M186.8,43.2c0.3,0,0.6,0,0.9,0c0.5,0,1.1,0,1.6-0.2c0.8-0.2,1.5-0.3,2.3-0.7c0.5-0.2,0.9-0.4,1.4-0.6
		c0.5-0.3,0.9-0.6,1.3-0.9c0.3-0.2,0.6-0.4,0.9-0.4c0.2,0,0.4,0,0.6,0c0.3,0,0.6,0.2,0.8,0.4c0.1,0.2,0.2,0.4,0.3,0.6
		c0.2,0.4,0.1,0.7-0.1,1c-0.2,0.2-0.3,0.4-0.6,0.5c-0.9,0.7-1.8,1.3-2.9,1.7c-0.5,0.2-0.9,0.4-1.4,0.6c-0.2,0.1-0.3,0.1-0.5,0.2
		c-1.2,0.3-2.4,0.5-3.6,0.6c-0.4,0-0.8,0.1-1.3,0.1c-0.3,0-0.6,0-0.8-0.1c-0.6-0.1-1.2-0.1-1.8-0.2c-2-0.4-3.9-1.1-5.6-2.2
		c-0.9-0.6-1.9-1.3-2.6-2.2c-0.7-0.8-1.3-1.6-2-2.4c-1-1.3-1.6-2.8-1.9-4.4c-0.3-1.3-0.5-2.6-0.5-4c0.1-2.1,0.5-4.2,1.4-6.2
		c0.8-1.7,2-3.1,3.3-4.4c1.8-1.7,3.9-3,6.2-3.7c0.3-0.1,0.7-0.2,1-0.2c0.5-0.1,1.1-0.2,1.6-0.3c0.6-0.1,1.2-0.2,1.7-0.1
		c1.3,0.1,2.6,0.2,3.9,0.5c2.1,0.5,3.9,1.4,5.6,2.7c0.2,0.1,0.3,0.3,0.5,0.4c0.5,0.5,0.5,1.2,0,1.8c-0.1,0.1-0.2,0.2-0.2,0.2
		c-0.4,0.3-0.8,0.4-1.3,0.2c-0.4-0.2-0.7-0.4-1.1-0.6c-1.4-1-2.9-1.6-4.5-2c-0.7-0.2-1.4-0.3-2.1-0.3c-1.1,0-2.2,0-3.2,0.2
		c-1.9,0.4-3.6,1.2-5.2,2.4c-0.9,0.7-1.7,1.5-2.4,2.4c-0.5,0.6-0.8,1.2-1.1,1.9c-0.4,1-0.8,2-1.1,3c-0.1,0.5-0.2,1-0.2,1.5
		c-0.1,1.3,0,2.6,0.4,3.9c0.7,2.5,2.1,4.7,4.2,6.4c1.6,1.3,3.5,2.2,5.5,2.7C185.1,43.2,185.9,43.2,186.8,43.2z"/>
	<path class="st1" d="M109.1,36.7c-2.5,0-5,0-7.4,0c-0.2,0-0.4,0-0.5,0c-0.3,0.1-0.4,0.2-0.4,0.5c0.1,0.8,0.4,1.5,0.8,2.2
		c0.8,1.4,2,2.6,3.4,3.2c2.5,1.1,5,1,7.2-0.7c0.1-0.1,0.3-0.2,0.4-0.3c0.1,0,0.1-0.1,0.2-0.1c0.6-0.4,1.3-0.4,1.7,0.1
		c0.5,0.6,0.4,1.4-0.1,2c-0.5,0.5-1.1,1-1.8,1.4c-1.6,0.9-3.3,1.3-5.1,1.1c-0.2,0-0.5,0-0.7,0c-0.7,0-1.3-0.2-1.9-0.4
		c-2.8-1.1-4.7-3-5.9-5.7c-0.4-0.9-0.6-1.8-0.7-2.7c0-0.3-0.1-0.7-0.2-1c-0.1-0.6-0.1-1.2,0-1.7c0.1-0.6,0.2-1.3,0.3-1.9
		c0.2-1.1,0.6-2.2,1.3-3.2c0.5-0.8,1.1-1.6,1.8-2.3c1.3-1.3,2.9-2.2,4.7-2.5c0.7-0.1,1.3-0.2,2-0.2c2.3,0.1,4.4,0.9,6.1,2.4
		c1.5,1.3,3.3,4.1,3.6,6.1c0.1,0.9,0.2,1.8,0.1,2.7c-0.1,0.6-0.4,1-1.1,1c-0.3,0-0.6,0-1,0C113.6,36.7,111.4,36.7,109.1,36.7z
		 M108.1,34.1c2.1,0,4.3,0,6.4,0c0.2,0,0.3,0,0.5,0c0.3-0.1,0.4-0.2,0.4-0.5c0-0.2,0-0.5-0.1-0.7c-0.5-1.4-1.2-2.6-2.3-3.6
		c-1.6-1.6-3.6-2.2-5.8-1.9c-1.7,0.2-3.2,1-4.4,2.3c-1.1,1.1-1.7,2.4-2.1,3.8c0,0.1,0,0.2,0,0.2c0.2,0.2,0.4,0.4,0.6,0.4
		c0.1,0,0.3,0,0.4,0C103.9,34.1,106,34.1,108.1,34.1z"/>
	<path class="st0" d="M211,25c0.5,0,1.1,0,1.6,0c0.1,0,0.2,0,0.3,0c0.9,0.3,1.8,0.4,2.6,0.9c0.3,0.2,0.7,0.4,1,0.5
		c0.1,0.1,0.3,0.1,0.4,0.2c1.5,1.1,2.7,2.4,3.6,4c0.2,0.5,0.4,0.9,0.6,1.4c0.1,0.2,0.1,0.5,0.2,0.7c0.3,0.6,0.3,1.3,0.3,1.9
		c0,0.5,0,1.1,0,1.6c0,0.3,0,0.6-0.1,0.9c-0.7,3.3-2.6,5.9-5.6,7.5c-1,0.6-2.2,0.9-3.4,1.1c-0.6,0.1-1.2,0.1-1.8,0.2
		c-0.3,0-0.6-0.1-0.8-0.1c-0.4,0-0.7-0.1-1.1-0.1c-1.1-0.1-2.1-0.5-3-1c-1.5-0.9-2.8-2-3.8-3.4c-0.9-1.2-1.3-2.6-1.6-4
		c-0.4-1.6-0.2-3.2,0.2-4.8c0.4-1.4,1-2.6,1.9-3.6c1.5-1.8,3.3-3,5.5-3.6c0.8-0.2,1.7-0.3,2.6-0.3C210.7,25,210.9,25,211,25
		C211,25,211,25,211,25z M203.1,35.6c0,0.2,0,0.5,0,0.8c0.1,1.2,0.4,2.3,1.2,3.2c0.3,0.4,0.7,0.8,1.1,1.3c0.6,0.7,1.3,1.2,2.2,1.6
		c0.9,0.4,1.7,0.7,2.7,0.7c0.7,0,1.4-0.1,2.1-0.1c0.9-0.1,1.8-0.5,2.6-1c2.5-1.4,3.8-3.6,3.9-6.5c0.1-2.1-0.6-4-2.2-5.5
		c-0.3-0.2-0.5-0.5-0.8-0.7c-2-1.5-4.1-2.1-6.6-1.6c-1.4,0.3-2.7,0.9-3.7,2c-0.3,0.3-0.6,0.6-0.9,0.9c-0.3,0.3-0.6,0.7-0.8,1.1
		C203.3,33,203,34.2,203.1,35.6z"/>
	<path class="st1" d="M121.6,35.4c0-3,0-6.1,0-9.1c0-0.2,0-0.5,0-0.7c0.1-0.5,0.4-0.9,0.9-0.9c0.2,0,0.4,0,0.6,0.1
		c0.5,0.2,0.8,0.7,0.8,1.3c0,0.2,0,0.4,0,0.6c0,0.1,0,0.1,0,0.2c0.1,0.5,0.4,0.6,0.8,0.3c0.2-0.1,0.4-0.3,0.5-0.5
		c1-0.9,2.2-1.4,3.5-1.7c1.8-0.5,3.6-0.3,5.3,0.3c1.7,0.7,3.1,1.9,4.1,3.4c0.4,0.6,0.7,1.2,1.1,1.8c0.5,0.9,0.6,1.8,0.7,2.8
		c0,0.3,0.1,0.7,0.1,1c0,0.6,0.1,1.1,0.1,1.7c0,2.7,0,5.5,0,8.2c0,0.5-0.1,1-0.3,1.5c-0.1,0.4-0.4,0.6-0.8,0.6
		c-0.8,0.1-1.3-0.3-1.4-1.1c0-0.2,0-0.4,0-0.6c0-3.3,0-6.5,0-9.8c0-2.3-0.9-4.2-2.5-5.7c-0.9-0.8-2-1.3-3.1-1.6c-0.2,0-0.4,0-0.6,0
		c-0.3,0-0.5,0-0.8,0c-0.5,0-1,0-1.5,0.2c-1.7,0.5-3,1.5-4,3.1c-0.6,1-0.9,2-1,3.2c-0.2,1.6-0.2,3.3-0.1,5c0,2,0,4.1,0,6.1
		c0,0.2,0,0.4-0.1,0.6c-0.2,0.5-0.7,0.8-1.3,0.7c-0.5-0.1-0.8-0.4-0.9-1c0-0.2,0-0.4,0-0.7C121.6,41.5,121.6,38.5,121.6,35.4z"/>
	<path class="st2" d="M31.5,26.8c0.9,0,1.9,0.4,2.6,1.2c1.3,1.4,1.4,3.9-0.4,5.3c-0.7,0.6-1.5,0.9-2.4,0.8c-1.1,0-2-0.5-2.7-1.3
		c-0.6-0.7-0.9-1.5-0.9-2.4c0-1.2,0.5-2.1,1.4-2.9C29.7,27,30.5,26.8,31.5,26.8z"/>
	<path class="st2" d="M38.1,28.2c-1.2,0.1-2.8-0.8-2.8-2.7c0-1.6,1.4-2.7,2.7-2.7c1.5,0,2.9,1.1,2.8,2.7
		C40.8,27.3,39.3,28.3,38.1,28.2z"/>
	<path class="st2" d="M24.7,32.6c1,0,1.8,0.4,2.3,1.3c0.8,1.2,0.6,2.5-0.5,3.5c-0.5,0.4-1,0.6-1.7,0.7c-0.5,0-0.9-0.1-1.4-0.3
		c-1.8-0.8-2-3.1-0.9-4.2c0.3-0.3,0.7-0.7,1.1-0.8C24.1,32.7,24.4,32.6,24.7,32.6z"/>
	<path class="st2" d="M17.4,31.5c0.9,0,1.5,0.5,1.9,1.2c0.1,0.3,0.1,0.5,0.1,0.8c-0.1,0.7-0.4,1.3-1.1,1.6c-1,0.5-2.4,0-2.7-1.2
		C15.3,32.7,16.2,31.5,17.4,31.5z"/>
	<path class="st2" d="M45.2,25.6c0.9-0.1,1.9,0.7,1.9,1.8c0,1.2-0.9,1.9-1.9,1.9c-1.1,0-1.9-0.8-1.9-1.9
		C43.3,26.3,44.4,25.5,45.2,25.6z"/>
	<path class="st2" d="M14.5,29.2c0,0.6-0.6,1.3-1.2,1.2c-0.8-0.1-1.3-0.5-1.3-1.3c0-0.7,0.6-1.2,1.3-1.2C14,28,14.5,28.7,14.5,29.2z
		"/>
	<path class="st2" d="M49.5,30.4c0.7-0.1,1.3,0.5,1.3,1.2c0,0.7-0.6,1.3-1.3,1.3c-0.7,0-1.2-0.6-1.2-1.2
		C48.2,31.1,48.7,30.4,49.5,30.4z"/>
</g>
</svg>
