<?xml version="1.0" encoding="UTF-8"?>
<svg fill="none" viewBox="0 0 485.2 485.2" xmlns="http://www.w3.org/2000/svg">
 <metadata/>
 <g transform="scale(9.902572)">
  <path d="m49 0h-49v49h49z" fill="#fff"/>
  <path d="m.5 48.5v-48h48v48z" fill="#000" stroke="#fff"/>
  <g fill="#fff">
   <path d="m13.28 32.65v.7133c0 .8231-.2194 1.372-.6035 1.811-.5488.5488-1.536.9877-3.622.9877-2.359 0-3.347-.4938-3.896-1.097-.4938-.4938-.7682-1.207-.7682-2.085 0-.8231.2744-1.591.7682-2.085.5487-.5487 1.646-1.097 3.896-1.097 1.756 0 3.128.3292 3.841.7133v1.207c-.823-.4939-2.25-.8231-3.841-.8231-1.646 0-2.469.3292-2.853.7133-.3292.3292-.4938.7682-.4938 1.372 0 .6585.1646 1.097.4938 1.372.3841.3841 1.097.7133 2.853.7133 1.427 0 2.305-.2744 2.634-.6036.2195-.2195.3292-.4938.3292-.7682h-3.622v-1.097h4.884z"/>
   <path d="m20.74 34.68c.1098-.1097.1646-.2744.1646-.439s-.0548-.3292-.1646-.4389c-.1646-.1646-.5487-.2744-2.579-.3841-2.36-.1098-3.073-.3293-3.457-.7134-.2195-.2194-.3292-.6035-.3292-.9876 0-.439.1097-.878.3841-1.207.3841-.439 1.207-.7133 3.292-.7133 1.646 0 2.853.2195 3.622.5487v1.152c-.8779-.3841-2.359-.6585-3.622-.6585-1.591 0-2.085.1646-2.25.3292-.1097.1098-.1646.2195-.1646.3841 0 .1647.0549.2744.1097.3841.1646.1647.5487.2744 2.469.3841 2.469.1098 3.183.3293 3.567.7134.2195.2195.3841.6036.3841 1.042 0 .439-.1098.878-.3841 1.207-.439.439-1.262.7682-3.457.7682-1.646 0-3.237-.2744-4.115-.6585v-1.152c.878.439 2.744.7682 4.115.7682 1.646.0549 2.195-.0548 2.414-.3292z"/>
   <path d="m33.53 36h-1.207v-5.048l-3.128 5.048h-1.591l-3.128-5.048v5.048h-1.207v-6.036h1.975l3.182 5.213 3.182-5.213h1.92z"/>
   <path d="m39.95 29.9 3.951 6.091h-1.427l-.9328-1.427h-4.938l-.9329 1.427h-1.372l3.951-6.091zm-2.689 3.567h3.622l-1.811-2.853z"/>
   <path d="m42.47 30.12h-.3841v-.2195h.9877v.2195h-.3841v1.152h-.2195z"/>
   <path d="m43.35 29.9h.2195l.3841.6584.3841-.6584h.2194v1.372h-.2194v-.9877l-.3841.6584-.3841-.6584v.9877h-.2195z"/>
  </g>
  <path d="m8.779 21.84h-4.225v4.993h4.225z" fill="#5e0f08"/>
  <path d="m16.68 19.37h-6.31v7.462h6.31z" fill="#9c1f24"/>
  <path d="m27.76 15.64h-9.493v11.19h9.493z" fill="#bf2730"/>
  <path d="m43.57 10.04h-14.05v16.79h14.05z" fill="#ce2b34"/>
 </g>
</svg>
