<?xml version="1.0" encoding="utf-8"?>
<!-- Generator: Adobe Illustrator 24.0.3, SVG Export Plug-In . SVG Version: 6.00 Build 0)  -->
<svg version="1.1" id="Layer_1" xmlns="http://www.w3.org/2000/svg" xmlns:xlink="http://www.w3.org/1999/xlink" x="0px" y="0px"
	 viewBox="0 0 374.3 107.3" style="enable-background:new 0 0 374.3 107.3;" xml:space="preserve">
<style type="text/css">
	.st0{fill:#00BBDE;}
	.st1{fill:#FFFFFF;}
</style>
<g>
	<path class="st0" d="M171.1,57.3c0,3.3-2.7,5.9-5.9,5.9c-3.3,0-5.9-2.7-5.9-5.9c0-3.3,2.7-5.9,5.9-5.9
		C168.4,51.4,171.1,54,171.1,57.3z"/>
	<path class="st1" d="M73.1,3.9C74,3.8,74.9,3.7,76,3.6c1.1-0.1,2-0.1,2.8-0.1c0.9,0,1.8,0,2.9,0.1c1.1,0.1,2.1,0.2,2.9,0.4v32.7
		c0,3.7,0.4,6.8,1.1,9.3s1.7,4.4,3.1,5.8c1.4,1.4,3.1,2.4,5.1,2.9c2,0.6,4.4,0.8,7,0.8c4,0,7.3-0.4,10.1-1.3V3.9
		c0.9-0.1,1.8-0.3,2.8-0.4c1.1-0.1,2-0.1,2.8-0.1c0.9,0,1.8,0,2.8,0.1c1.1,0.1,2,0.2,2.8,0.4v57.9c-2.7,0.8-6,1.5-9.7,2.2
		c-3.8,0.7-7.7,1.1-11.7,1.1c-3.8,0-7.4-0.3-10.8-1c-3.4-0.7-6.3-2-8.9-4c-2.6-2-4.6-4.9-6.1-8.5c-1.5-3.7-2.2-8.5-2.2-14.5
		L73.1,3.9L73.1,3.9z"/>
	<path class="st1" d="M190.8,3.9c1.1-0.1,2.2-0.3,3.4-0.4c1.2-0.1,2.2-0.1,3.1-0.1c1,0,2.1,0,3.3,0.1c1.2,0.1,2.2,0.2,3.1,0.4
		l21.2,49.3l21.3-49.3c0.9-0.1,1.8-0.3,2.9-0.4c1.1-0.1,2.1-0.1,3.1-0.1c0.9,0,1.8,0,2.9,0.1c1.1,0.1,2.2,0.2,3.3,0.4l-28.2,59.8
		c-1,0.2-2,0.3-3,0.4c-1,0.1-1.9,0.1-2.8,0.1s-1.8,0-2.7-0.1c-1-0.1-1.9-0.2-2.8-0.4L190.8,3.9z"/>
	<path class="st1" d="M265.8,3.9c0.9-0.1,1.8-0.3,2.9-0.4c1.1-0.1,2-0.1,2.8-0.1c0.9,0,1.8,0,2.9,0.1c1.1,0.1,2.1,0.2,2.9,0.4v32.7
		c0,3.7,0.4,6.8,1.1,9.3c0.7,2.4,1.7,4.4,3.1,5.8c1.4,1.4,3.1,2.4,5.1,2.9c2,0.6,4.4,0.8,7,0.8c4,0,7.3-0.4,10.1-1.3V3.9
		c0.9-0.1,1.8-0.3,2.8-0.4c1.1-0.1,2-0.1,2.8-0.1s1.8,0,2.8,0.1c1.1,0.1,2,0.2,2.8,0.4v57.9c-2.7,0.8-6,1.5-9.7,2.2
		c-3.8,0.7-7.7,1.1-11.7,1.1c-3.8,0-7.4-0.3-10.8-1c-3.4-0.7-6.3-2-8.9-4c-2.6-2-4.6-4.9-6.1-8.5c-1.5-3.7-2.2-8.5-2.2-14.5
		L265.8,3.9L265.8,3.9z"/>
	<path class="st1" d="M330.8,52.9c2.1,0.9,4.4,1.5,6.9,2c2.5,0.5,5,0.8,7.5,0.8c1.8,0,3.5-0.2,5.1-0.6c1.6-0.4,3-1,4.3-1.7
		c1.2-0.8,2.2-1.7,2.9-2.8c0.7-1.1,1.1-2.4,1.1-3.8c0-1.6-0.3-2.8-0.9-3.9c-0.6-1-1.4-1.9-2.3-2.6c-1-0.7-2.1-1.3-3.4-1.8
		c-1.3-0.5-2.7-1-4.1-1.5l-4.1-1.5c-5-1.9-8.6-4-10.8-6.3c-2.2-2.3-3.4-5.5-3.4-9.4c0-5.3,1.9-9.5,5.6-12.6
		c3.8-3.1,9.3-4.7,16.6-4.7c3,0,6,0.3,8.9,0.9c2.9,0.6,5.5,1.3,7.6,2c-0.2,1.6-0.5,3.1-0.9,4.7c-0.4,1.6-1,3-1.6,4.3
		c-1.7-0.6-3.8-1.2-6.1-1.8c-2.4-0.6-4.9-0.9-7.6-0.9c-2.9,0-5.4,0.5-7.6,1.5c-2.2,1-3.3,2.8-3.3,5.4c0,1.3,0.3,2.4,0.8,3.4
		s1.3,1.7,2.2,2.4s2,1.2,3.2,1.7c1.2,0.5,2.5,0.9,3.9,1.4l5.1,1.7c1.9,0.6,3.6,1.4,5.3,2.2c1.7,0.9,3.1,1.9,4.3,3.2
		c1.2,1.3,2.2,2.8,2.9,4.7c0.7,1.8,1.1,4,1.1,6.6c0,2.9-0.6,5.5-1.7,7.9c-1.2,2.4-2.8,4.4-5,6.1c-2.1,1.7-4.7,3-7.8,3.9
		s-6.4,1.4-10,1.4c-3.7,0-7-0.3-9.8-0.8c-2.8-0.5-5.4-1.2-7.8-2c0.1-1.6,0.5-3.1,1-4.7C329.6,56,330.2,54.4,330.8,52.9z"/>
	<path class="st1" d="M199,62.8c-1.1,0.1-2.2,0.3-3.4,0.4c-1.2,0.1-2.2,0.1-3.2,0.1c-1,0-2.1,0-3.3-0.1c-1.2-0.1-2.2-0.2-3.1-0.4
		l-21.2-49.3l-21.3,49.3c-0.9,0.1-1.8,0.3-2.9,0.4c-1.1,0.1-2.1,0.1-3.1,0.1c-0.9,0-1.8,0-2.9-0.1c-1.1-0.1-2.2-0.2-3.3-0.4L159.5,3
		c1-0.2,2-0.3,3-0.4c1-0.1,1.9-0.1,2.8-0.1s1.8,0,2.7,0.1c1,0.1,1.9,0.2,2.8,0.4L199,62.8z"/>
	<g>
		<path class="st1" d="M47.7,3.2c-3.1-0.5-6.8-0.7-11.2-0.7c-5,0-9.5,0.8-13.5,2.4s-7.4,3.9-10.2,6.7c-2.8,2.9-5,6.4-6.5,10.4
			c-1.5,4-2.3,8.5-2.3,13.3c0,5.6,0.8,10.3,2.4,14c1.6,3.8,3.8,6.8,6.6,9.1c2.8,2.3,6,4,9.6,5S30.3,65,34.3,65
			c2.2,0,4.3-0.1,6.1-0.4c1.8-0.2,3.5-0.5,5.1-0.9v2.5c0,3.7-0.4,6.8-1.1,9.3c-0.7,2.4-1.7,4.4-3.1,5.8c-1.4,1.4-3.1,2.4-5.1,2.9
			s-4.4,0.8-7,0.8c-11,0-18.1-4.5-18.1-4.5c-0.4,0.8-0.8,1.7-1.2,2.6c-0.4,1-0.7,1.9-1,2.7c-0.3,0.8-0.5,1.7-0.7,2.8
			c-0.2,1-0.4,2-0.5,2.8c2.7,0.8,6,1.5,9.7,2.2c3.8,0.7,7.7,1.1,11.7,1.1c3.8,0,7.4-0.3,10.8-1c3.4-0.7,6.3-2,8.9-4
			c2.6-2,4.6-4.9,6.1-8.5c1.5-3.6,2.2-8.5,2.2-14.5v-7.5V6.4V5.2C53.9,4.4,50.8,3.7,47.7,3.2z M40.6,55c-1.8,0.3-3.8,0.5-5.8,0.5
			c-2.7,0-5.2-0.4-7.5-1.1c-2.2-0.7-4.2-1.8-5.9-3.4c-1.7-1.6-3-3.6-3.9-6.1s-1.4-5.5-1.4-9c0-3.5,0.4-6.7,1.3-9.5
			c0.9-2.9,2.1-5.4,3.8-7.5c1.7-2.1,3.8-3.7,6.3-4.9c2.6-1.2,5.6-1.7,9-1.7c0.9,0,1.6,0,2.3,0c0.7,0,1.3,0.1,2,0.1
			c0.7,0,1.4,0.1,2.1,0.2c0.7,0.1,1.6,0.3,2.6,0.5v40.9C44,54.3,42.3,54.7,40.6,55z"/>
	</g>
	<g>
		<path class="st1" d="M173.6,89.4h2.3l-1.2,10h-2.3l0.1-1.1c-0.3,0.4-0.8,0.8-1.3,1c-0.5,0.2-1.2,0.4-1.8,0.4
			c-1.5,0-2.3-0.6-2.8-1.1c-0.8-0.8-1.4-2.1-1.4-3.6s0.5-3.2,1.7-4.5c1-1,2.2-1.4,3.6-1.4c0.7,0,1.2,0.1,1.8,0.4
			c0.4,0.2,0.8,0.6,1.1,1L173.6,89.4z M168.6,92c-0.6,0.6-1.1,1.7-1.1,2.8c0,0.9,0.3,1.6,0.8,2.1c0.4,0.5,1,0.7,1.7,0.7
			c1,0,1.7-0.5,2.2-0.9c0.7-0.7,1-1.7,1-2.7c0-0.8-0.3-1.6-0.8-2.1c-0.4-0.4-0.9-0.7-1.8-0.7C169.7,91.2,169.1,91.6,168.6,92z"/>
		<path class="st1" d="M194.4,85.9l-1.7,13.5h-2.4l1.7-13.5h-3.6l0.3-2.3h9.6l-0.3,2.3H194.4z"/>
		<path class="st1" d="M201.8,82.1h2.3l-1,8.1c0.2-0.2,0.5-0.5,1-0.7c0.6-0.3,1.1-0.4,1.7-0.4c1.2,0,1.9,0.4,2.4,0.9
			c0.5,0.5,0.9,1.4,0.9,2.4c0,0.4,0,0.8-0.2,2.1l-0.6,4.9h-2.3l0.6-5.1c0.1-0.9,0.1-1.2,0.1-1.3c0-0.4-0.1-0.9-0.5-1.3
			c-0.3-0.3-0.8-0.4-1.2-0.4c-0.8,0-1.3,0.4-1.5,0.6c-0.6,0.6-0.8,1.6-1,2.8l-0.6,4.8h-2.3L201.8,82.1z"/>
		<path class="st1" d="M222.1,89.4h2.3l-1.2,10h-2.3l0.1-1.1c-0.3,0.4-0.8,0.8-1.3,1c-0.5,0.2-1.2,0.4-1.8,0.4
			c-1.5,0-2.3-0.6-2.8-1.1c-0.8-0.8-1.4-2.1-1.4-3.6s0.5-3.2,1.7-4.5c1-1,2.2-1.4,3.6-1.4c0.7,0,1.2,0.1,1.8,0.4
			c0.4,0.2,0.8,0.6,1.1,1L222.1,89.4z M217.1,92c-0.6,0.6-1.1,1.7-1.1,2.8c0,0.9,0.3,1.6,0.8,2.1c0.4,0.5,1,0.7,1.7,0.7
			c1.1,0,1.7-0.5,2.2-0.9c0.7-0.7,1-1.7,1-2.7c0-0.8-0.3-1.6-0.8-2.1c-0.4-0.4-0.9-0.7-1.8-0.7C218.2,91.2,217.5,91.6,217.1,92z"/>
		<path class="st1" d="M232.9,82.1l-2.1,17.3h-2.3l2.1-17.3H232.9z"/>
		<path class="st1" d="M245.4,97.1c-0.5,0.8-1.2,1.5-1.8,1.9c-0.6,0.3-1.5,0.7-2.8,0.7c-1.2,0-2.3-0.3-3.2-1.2
			c-0.8-0.8-1.3-2-1.3-3.5c0-1.7,0.6-3.2,1.7-4.3c1-1,2.2-1.5,3.6-1.5c0.9,0,2.1,0.2,3,1.1c0.8,0.8,1.2,2,1.2,3.5
			c0,0.3,0,0.7-0.1,1.1h-7.1c0,0.7,0.3,1.5,0.7,2c0.3,0.3,0.9,0.6,1.6,0.6c0.6,0,1.1-0.2,1.6-0.5c0.4-0.3,0.8-0.7,1-1.1L245.4,97.1z
			 M243.6,93c-0.1-0.5-0.3-1.1-0.6-1.4c-0.3-0.4-0.9-0.6-1.4-0.6c-0.6,0-1.2,0.2-1.7,0.6c-0.4,0.3-0.7,0.9-0.9,1.3H243.6z"/>
		<path class="st1" d="M255.1,92c-0.1-0.3-0.3-0.5-0.5-0.6c-0.2-0.2-0.5-0.2-0.7-0.2c-0.2,0-0.6,0-0.8,0.3c-0.1,0.1-0.2,0.3-0.2,0.5
			c0,0.2,0.1,0.4,0.3,0.6c0.2,0.1,0.4,0.2,1,0.5l0.7,0.3c0.8,0.4,1.1,0.8,1.2,0.9c0.3,0.3,0.8,1,0.8,2.1c0,1.2-0.5,1.9-1,2.4
			c-0.6,0.6-1.5,1-2.8,1c-0.6,0-1.5-0.1-2.2-0.6c-0.1-0.1-0.9-0.7-1.2-1.8l2-0.9c0.1,0.4,0.3,0.8,0.6,1c0.2,0.2,0.6,0.4,1,0.4
			s0.7-0.1,0.9-0.3c0.3-0.2,0.4-0.5,0.4-0.9c0-0.3-0.1-0.6-0.3-0.8c-0.3-0.3-0.6-0.4-1-0.6l-0.6-0.3c-0.3-0.2-0.8-0.5-1.1-0.8
			c-0.4-0.4-0.7-1-0.7-1.7c0-0.9,0.4-1.7,0.9-2.2c0.7-0.7,1.6-0.9,2.5-0.9c0.6,0,1.2,0.1,1.7,0.5c0.5,0.3,0.9,0.8,1.1,1.3L255.1,92z
			"/>
		<path class="st1" d="M277.5,92.5c-0.3-0.3-0.6-0.6-1.2-0.9c-0.5-0.3-0.9-0.4-1.5-0.4c-1.1,0-2,0.4-2.5,1c-0.6,0.6-1,1.5-1,2.5
			s0.4,1.7,0.9,2.2c0.5,0.5,1.3,0.7,2.1,0.7c0.2,0,0.9,0,1.6-0.4c0.2-0.1,0.7-0.3,1.1-0.9l-0.3,2.6c-0.6,0.4-1.4,0.7-3,0.7
			c-1.3,0-2.4-0.3-3.4-1.3c-0.6-0.6-1.4-1.7-1.4-3.6c0-2,0.9-3.3,1.7-4.1c1.2-1.1,2.6-1.5,4.1-1.5c1.4,0,2.4,0.4,3.1,0.9L277.5,92.5
			z"/>
		<path class="st1" d="M290.7,90.5c0.6,0.7,1.3,1.8,1.3,3.4c0,1.1-0.3,2.8-1.7,4.2c-1.2,1.1-2.5,1.5-4.1,1.5c-1.3,0-2.5-0.2-3.5-1.3
			c-0.7-0.8-1.4-1.9-1.4-3.5c0-1.7,0.7-3.2,1.7-4.2c1.1-1.1,2.4-1.5,4.1-1.5C288.2,89.1,289.6,89.3,290.7,90.5z M288.8,96.6
			c0.6-0.6,1-1.5,1-2.6c0-0.6-0.1-1.4-0.8-2.1c-0.5-0.5-1.1-0.8-1.9-0.8c-1.1,0-1.8,0.4-2.2,0.8c-0.7,0.6-1.1,1.6-1.1,2.6
			c0,0.8,0.3,1.5,0.7,2.1c0.2,0.3,0.9,0.9,2.1,0.9C287.4,97.6,288.2,97.3,288.8,96.6z"/>
		<path class="st1" d="M297.5,89.4h2.3l-0.1,0.9c0.3-0.3,0.6-0.6,1-0.8c0.5-0.3,1.1-0.4,1.6-0.4c0.5,0,1,0.1,1.4,0.4
			c0.5,0.3,0.8,0.7,1,1.1c0.2-0.3,0.6-0.7,1.1-1.1c0.5-0.3,1-0.4,1.7-0.4c1.1,0,1.8,0.3,2.3,0.8c0.8,0.8,0.9,1.8,0.9,2.4
			c0,0.5-0.1,1.1-0.2,2l-0.6,5h-2.3l0.6-5c0-0.4,0.1-1,0.1-1.4c0-0.6-0.1-1.1-0.4-1.3c-0.2-0.2-0.6-0.4-1-0.4
			c-0.3,0-0.7,0.1-1.1,0.4c-0.6,0.6-0.8,1.4-1,2.6l-0.6,5.1h-2.3l0.6-5.2c0.1-0.7,0.1-1,0.1-1.2c0-0.3,0-0.9-0.4-1.3
			c-0.2-0.2-0.6-0.4-1-0.4c-0.5,0-0.9,0.2-1.2,0.5c-0.6,0.6-0.7,1.5-0.9,2.5l-0.6,5.1h-2.3L297.5,89.4z"/>
		<path class="st1" d="M316.9,104.8h-2.3l1.9-15.4h2.3l-0.1,1.1c0.3-0.5,0.7-0.7,1.2-1c0.6-0.3,1.1-0.4,1.8-0.4
			c1.2,0,2.4,0.5,3.2,1.3c0.7,0.8,1.2,1.9,1.2,3.4c0,1.7-0.7,3.4-1.7,4.5c-0.9,0.9-1.9,1.4-3.3,1.4c-0.8,0-1.6-0.2-2.2-0.6
			c-0.4-0.3-0.8-0.6-1.1-1L316.9,104.8z M319.1,92c-0.7,0.7-1.1,1.8-1.1,2.9c0,0.6,0.1,1.4,0.7,2c0.4,0.5,1.1,0.8,1.9,0.8
			c0.8,0,1.4-0.3,2-0.8c0.6-0.6,1.1-1.7,1.1-2.8c0-0.8-0.3-1.5-0.7-2c-0.5-0.6-1.1-0.8-1.9-0.8C320.3,91.2,319.7,91.4,319.1,92z"/>
		<path class="st1" d="M338.7,89.4h2.3l-1.2,10h-2.3l0.1-1.1c-0.3,0.4-0.8,0.8-1.3,1c-0.5,0.2-1.2,0.4-1.8,0.4
			c-1.5,0-2.3-0.6-2.8-1.1c-0.8-0.8-1.4-2.1-1.4-3.6s0.5-3.2,1.7-4.5c1-1,2.2-1.4,3.6-1.4c0.7,0,1.2,0.1,1.8,0.4
			c0.4,0.2,0.8,0.6,1.1,1L338.7,89.4z M333.8,92c-0.6,0.6-1.1,1.7-1.1,2.8c0,0.9,0.3,1.6,0.8,2.1c0.4,0.5,1,0.7,1.7,0.7
			c1.1,0,1.7-0.5,2.2-0.9c0.7-0.7,1-1.7,1-2.7c0-0.8-0.3-1.6-0.8-2.1c-0.4-0.4-0.9-0.7-1.8-0.7C334.8,91.2,334.2,91.6,333.8,92z"/>
		<path class="st1" d="M346.4,89.4h2.3l-0.1,0.9c0.3-0.4,0.6-0.6,1-0.8c0.6-0.3,1.1-0.4,1.7-0.4c1.2,0,1.9,0.4,2.4,0.9
			c0.5,0.5,0.9,1.3,0.9,2.4c0,0.4,0,0.8-0.2,2.1l-0.6,4.9h-2.3l0.6-5.1c0.1-0.9,0.1-1.2,0.1-1.3c0-0.4-0.1-0.9-0.5-1.3
			c-0.3-0.3-0.8-0.4-1.2-0.4c-0.8,0-1.3,0.4-1.5,0.6c-0.6,0.6-0.8,1.6-1,2.8l-0.6,4.8h-2.3L346.4,89.4z"/>
		<path class="st1" d="M362.3,97.5l-3.4-8.1h2.8l2.2,5.6l3.5-5.6h2.7l-9.8,15.4h-2.6L362.3,97.5z"/>
	</g>
</g>
</svg>
