<?xml version="1.0" encoding="utf-8"?>
<!-- Generator: Adobe Illustrator 22.1.0, SVG Export Plug-In . SVG Version: 6.00 Build 0)  -->
<svg version="1.1" id="Layer_1" xmlns="http://www.w3.org/2000/svg" xmlns:xlink="http://www.w3.org/1999/xlink" x="0px" y="0px"
	 viewBox="0 0 483 89.2" enable-background="new 0 0 483 89.2" xml:space="preserve">
<title>iconectiv_icon_text_LOGO_062818</title>
<polygon fill="#FFFFFF" points="18.8,87.5 2.5,87.5 2.5,67.9 2.5,33.1 18.8,33.1 "/>
<path fill="#FFFFFF" d="M73,49.7c-3.5-3.3-7-5.3-12-5.3c-9.2,0-14.4,8.2-14.4,16.2c0,8.5,5.7,15.6,15,15.6c4.4-0.1,8.5-2,11.4-5.2
	v15c-4.3,2.2-9.2,3.4-14,3.3C43.2,89.5,30.3,77,30,61.3c0-0.3,0-0.5,0-0.8c0-16.2,12.4-29.1,29.7-29.1c4.6,0,9.2,1.1,13.3,3.4V49.7z
	"/>
<path fill="#FFFFFF" d="M99.7,60.3c0,7.3,5.1,15.2,13.5,15.2s13.5-7.9,13.5-15.2c0-7.5-5.1-15.3-13.5-15.3S99.7,52.7,99.7,60.3
	 M143.2,60.3c0,16.9-12.1,28.9-30,28.9s-30-12.1-30-28.9s12.2-29,30-29S143.2,43.4,143.2,60.3"/>
<path fill="#FFFFFF" d="M171,38.1h0.2c3.4-4.9,9.1-6.8,14.9-6.8c15.4,0,19.8,10.3,19.8,22.9v33.2h-16.3V58.7c0-6.5,0.3-15-8.9-15
	c-9.7,0-9.8,10.3-9.8,16.8v27h-16.3V33.1H171V38.1z"/>
<path fill="#FFFFFF" d="M256.7,53.1c-0.8-5.5-4.5-11-10.8-11c-6.5,0-11.2,5.3-12,11H256.7z M233.4,62.8c0,6.9,3.8,14.6,12.3,14.6
	c5.4,0,8.7-3.1,11-7.4l15,2.3c-4,10.9-14,17-26,17c-17.7,0-28.5-12-28.5-28.5s9.2-29.5,27.8-29.5c18.7,0,27.1,13.2,27.1,29.6v1.9
	L233.4,62.8z"/>
<path fill="#FFFFFF" d="M324.1,49.7c-3.5-3.3-7-5.3-12-5.3c-9.2,0-14.4,8.2-14.4,16.2c0,8.5,5.7,15.6,15,15.6
	c4.4-0.1,8.5-2,11.4-5.2v15c-4.3,2.2-9.2,3.4-14.1,3.3c-15.7,0.2-28.6-12.3-28.8-28c0-0.3,0-0.6,0-0.8c0-16.2,12.5-29.1,29.7-29.1
	c4.6,0,9.2,1.1,13.3,3.4L324.1,49.7z"/>
<polygon fill="#FFFFFF" points="392.1,87.5 375.8,87.5 375.8,33.1 392.1,33.1 392.1,63.2 "/>
<polygon fill="#FFFFFF" points="431.8,63.8 443.5,33.1 461.4,33.1 435.1,87.5 426.7,87.5 400.5,33.1 418.4,33.1 "/>
<path fill="#FFFFFF" d="M352.8,70.3c0,2.5,1.3,3.9,3.9,3.9h6.1v14.6l-9.6,0.4c-14.1,0-16.7-10-16.7-18.8V23h16.3v10h10v13.1h-10
	L352.8,70.3z"/>
<path fill="#FFFFFF" d="M10.7,0C4.8,0,0,4.8,0,10.7s4.8,10.7,10.7,10.7s10.7-4.8,10.7-10.7l0,0C21.3,4.8,16.6,0,10.7,0"/>
<path fill="#FFFFFF" d="M384,0c-5.9,0-10.7,4.8-10.7,10.7s4.8,10.7,10.7,10.7c5.9,0,10.7-4.8,10.7-10.7l0,0C394.6,4.8,389.9,0,384,0
	"/>
<path fill="#FFFFFF" d="M475.3,25.4c1.3,0,2.6,0.4,3.8,1c1.2,0.7,2.2,1.6,2.9,2.9c1.4,2.4,1.4,5.3,0,7.7c-0.7,1.2-1.6,2.2-2.8,2.9
	c-2.4,1.4-5.3,1.4-7.7,0c-1.2-0.7-2.2-1.6-2.8-2.9c-1.4-2.4-1.4-5.3,0-7.7c0.7-1.2,1.7-2.2,2.9-2.9
	C472.6,25.8,473.9,25.4,475.3,25.4z M475.3,26.7c-1.1,0-2.2,0.3-3.2,0.8c-1,0.5-1.8,1.4-2.4,2.4c-1.1,2-1.1,4.4,0,6.4
	c0.5,1,1.4,1.8,2.4,2.4c2,1.1,4.4,1.1,6.4,0c1-0.6,1.8-1.4,2.4-2.4c1.1-2,1.1-4.4,0-6.4c-0.6-1-1.4-1.8-2.4-2.4
	C477.5,27,476.4,26.7,475.3,26.7z M471.9,37.4v-8.3h2.8c0.7,0,1.4,0,2.1,0.2c0.4,0.1,0.8,0.4,1,0.8c0.3,0.4,0.4,0.8,0.4,1.2
	c0,0.6-0.2,1.2-0.7,1.6c-0.5,0.5-1.1,0.7-1.7,0.8c0.3,0.1,0.5,0.3,0.7,0.4c0.5,0.5,0.9,1.1,1.2,1.6l1,1.6h-1.6l-0.7-1.3
	c-0.3-0.7-0.8-1.4-1.4-1.9c-0.3-0.2-0.7-0.3-1.1-0.3h-0.8v3.5L471.9,37.4z M473.2,32.7h1.6c0.6,0.1,1.1-0.1,1.6-0.4
	c0.5-0.4,0.6-1.1,0.2-1.6c-0.1-0.2-0.3-0.3-0.6-0.4c-0.4-0.1-0.9-0.2-1.3-0.1h-1.5L473.2,32.7z"/>
</svg>
