<?xml version="1.0" encoding="UTF-8"?> <svg xmlns="http://www.w3.org/2000/svg" id="Layer_1" data-name="Layer 1" viewBox="0 0 400 245"><defs><style>.cls-1{fill:none;}.cls-2{fill:#bbbcc1;}.cls-3{fill:#221e1f;}.cls-4{fill:#fdd34f;}</style></defs><g id="Layer_2" data-name="Layer 2"><g id="svg2"><rect class="cls-1" x="14.28571" y="11.75796" width="371.42857" height="212.2449"></rect><path id="path6" class="cls-2" d="M144.36,33.49184h.07429c7.1951,7.1951,14.422,14.34775,21.60653,21.60653-3.18368,3.30041-6.52653,6.53714-9.77389,9.80571l-11.79019,11.769a.605.605,0,0,0-.36082-.191c-.82775-.72163-1.57061-1.54939-2.35592-2.31347L122.849,55.26816c-.1804-.12734,0-.29714.0849-.40326q8.42613-8.38368,16.80979-16.8098C141.33551,36.58,142.82123,35.00939,144.36,33.49184Z"></path><path id="path8" class="cls-2" d="M195.26693,33.49184h.06367c5.13634,5.009,10.17716,10.10285,15.28164,15.20734,2.02695,2.04817,4.11756,4.03266,6.09144,6.13388L195.06531,76.49265a11.07626,11.07626,0,0,1-.81714-.75347c-6.78123-6.72816-13.49878-13.50938-20.2694-20.23755-.09551-.12734-.35021-.28653-.191-.46693C180.898,47.83959,188.1249,40.67633,195.26693,33.49184Z"></path><path id="path10" class="cls-2" d="M246.23756,33.49184h.07429q9.15839,9.169,18.32735,18.31673c1.06123,1.06122,2.12245,2.03755,3.07755,3.18367-7.0996,7.09959-14.2204,14.178-21.28816,21.30939-1.751-1.63428-3.38531-3.37469-5.09388-5.04081L225.00246,54.918a2.81219,2.81219,0,0,1,.81715-.98694Z"></path><path id="path12" class="cls-2" d="M67.61224,58.92939c.14858-.21225.3396,0,.46694.11673,4.5951,4.63755,9.25388,9.23266,13.88082,13.8596,1.48571,1.52816,3.04571,2.97142,4.489,4.542H51.16327v-1.6449h-.30776a7.42915,7.42915,0,0,1,.8702-.9551Z"></path><path id="path14" class="cls-2" d="M118.498,58.95061c.12735-.1804.36081-.09551.47754.05306l21.32,21.32Q129.59837,91.02082,118.89061,101.718,108.098,90.87224,97.26286,80.069l.29714-.1804Q108.02367,69.41429,118.498,58.95061Z"></path><path id="path16" class="cls-2" d="M168.95918,59.51306c.23347-.21224.41388-.52.72163-.62612a3.24735,3.24735,0,0,1,.73225.64735l12.37388,12.36326c2.791,2.83347,5.64572,5.59265,8.40489,8.48979q-10.76081,10.76082-21.52163,21.511c-3.79918-3.76735-7.56653-7.56653-11.3551-11.34449-3.35347-3.38531-6.77061-6.68572-10.11346-10.071a1.06108,1.06108,0,0,1,.2653-.47755C155.31184,73.118,162.11429,66.27306,168.95918,59.51306Z"></path><path id="path18" class="cls-2" d="M305.32653,76.25918q8.771-8.73918,17.53142-17.489L337.5347,73.43633c.76408.80652,1.613,1.53877,2.33471,2.38775h-1.231v1.889H303.97879A14.48386,14.48386,0,0,1,305.32653,76.25918Z"></path><path id="path20" class="cls-2" d="M220.5347,59.51306c.12734-.22286.30775,0,.41388.10612L241.982,80.73755C234.91428,87.8902,227.751,94.958,220.662,102.1a25.2822,25.2822,0,0,1-1.889-1.80408L202.34531,83.80449c-.99755-1.06123-2.12245-1.97388-3.00326-3.06694Q209.94366,70.12531,220.5347,59.51306Z"></path><path id="path22" class="cls-2" d="M265.24408,65.72122c2.12245-2.12245,4.2449-4.2449,6.36734-6.29306.658.53061,1.2098,1.19919,1.82531,1.78286l19.47346,19.52653q-10.24078,10.28327-20.51347,20.53469a4.17048,4.17048,0,0,1-.92326.80654c-1.16735-1.25225-2.409-2.43021-3.60816-3.65062-5.87917-5.9004-11.7902-11.75837-17.65877-17.68C255.18367,75.72857,260.21388,70.709,265.24408,65.72122Z"></path><path id="path24" class="cls-2" d="M51.16327,83.28449H86.449a3.79826,3.79826,0,0,1-.49878.59428L71.93143,97.90816c-1.40082,1.3796-2.75918,2.82286-4.2449,4.16-5.09388-5.13633-10.2302-10.2302-15.33469-15.35592a11.88456,11.88456,0,0,1-1.231-1.30531C51.18449,84.69592,51.16327,83.99551,51.16327,83.28449Z"></path><path id="path26" class="cls-2" d="M304.54123,83.68775h34.08653v1.70858h.77471a9.32707,9.32707,0,0,1-1.16736,1.25224l-10.04979,10.0498c-1.8041,1.77224-3.54449,3.61878-5.40163,5.30612q-8.09715-8.11836-16.23673-16.23674A22.39433,22.39433,0,0,1,304.54123,83.68775Z"></path><path id="path28" class="cls-2" d="M246.142,84.81265l.28653-.30776c2.89714,2.929,5.858,5.79429,8.76571,8.71265l12.73469,12.7347c-.93388,1.13551-2.12245,2.05878-3.12,3.12l-13.12734,13.138c-1.82531,1.78286-3.58694,3.65061-5.44409,5.391q-8.03346-8.01223-16.10938-16.08816c-1.84653-1.82531-3.64-3.70367-5.529-5.48653.97632-1.14612,2.12244-2.12245,3.18367-3.18367,6.0702-6.049,12.10857-12.1298,18.18939-18.16817Z"></path><path id="path30" class="cls-2" d="M173.88326,106.20694q10.81389-10.79265,21.60654-21.60653c1.06122.8702,1.942,1.9102,2.929,2.84408l18.56082,18.53959q-10.81387,10.83512-21.649,21.649c-1.97388-1.89959-3.87346-3.87347-5.81551-5.78367Q181.69919,114.01754,173.88326,106.20694Z"></path><path id="path32" class="cls-2" d="M122.97632,106.20694,144.36,84.82326l21.41551,21.38368q-8.94612,8.97795-17.92408,17.93469c-1.178,1.13551-2.28164,2.35592-3.49143,3.449-5.81551-5.76245-11.578-11.578-17.37225-17.351C125.71429,108.90245,124.26041,107.60775,122.97632,106.20694Z"></path><path id="path35" class="cls-3" d="M220.77878,50.7049c1.44326,1.35836,2.81224,2.80163,4.2449,4.18122l16.36408,16.30041c1.70857,1.66612,3.34285,3.40653,5.09388,5.04082,7.06775-7.13143,14.18856-14.2098,21.28816-21.30939,1.33713-1.31592,2.64245-2.66367,3.99019-3.969,8.91428,8.90367,17.818,17.83918,26.76409,26.711H338.6596V75.771h10.34693v9.551H338.68081V83.68775H295.88164c-.98693-.98694-1.97386-1.98449-2.97142-2.97143L273.39429,61.211c-.61551-.58367-1.16735-1.25225-1.82531-1.78286-2.12245,2.06939-4.2449,4.2449-6.36734,6.29306-5.03021,4.98776-10.018,10.00735-15.03755,15.00572l-3.778,3.778-.28654.30776-.191-.1698-3.92654-3.9053L220.94858,59.64041c-.10613-.10612-.28654-.329-.41388-.10612L199.31021,80.75878q-1.942,1.91021-3.85225,3.85224-10.77143,10.79265-21.5747,21.59592c-1.369,1.34775-2.70612,2.71673-4.07509,4.05388l-4.03266-4.05388L144.36,84.82326l-21.38368,21.38368c-1.32653,1.29469-2.61061,2.63184-3.94775,3.91592Q105.62531,96.65592,92.222,83.29511H51.16327v2.12244H40.81633v-9.551h8.85061a6.11262,6.11262,0,0,0,1.16734,0H51.142c.05306.55184,0,1.06123,0,1.6449h43.5102c.8702.88082,1.751,1.74041,2.62123,2.62122q10.82448,10.80327,21.62775,21.649,10.70775-10.6759,21.40489-21.39429c1.27347-1.28408,2.56817-2.53632,3.82041-3.84163a.60493.60493,0,0,1,.36081.191c1.231,1.26286,2.48326,2.49388,3.7249,3.73551,3.34286,3.38531,6.76,6.68572,10.11348,10.071,3.78858,3.778,7.55591,7.57714,11.3551,11.3445q10.76083-10.79266,21.511-21.5747l3.87348-3.82041,21.61714-21.61714c1.369-1.369,2.75919-2.72735,4.09633-4.12817m0,1.39021c-1.86775,1.95265-3.80979,3.82041-5.7094,5.75184q-22.71019,22.62531-45.40978,45.3249L144.19021,77.7449q-12.618,12.671-25.26776,25.35265c-2.62123-2.55755-5.17878-5.17877-7.77878-7.75755l-13.573-13.54122c-1.14613-1.1249-2.23919-2.29225-3.41715-3.36408h-42.969v3.91592H91.84c.28653,0,.64735-.10612.88082.10612l26.329,26.29714q12.58612-12.62857,25.21469-25.2147h.15919l14.93142,14.889c3.45958,3.48082,6.97225,6.91918,10.38938,10.43184a4.59522,4.59522,0,0,0,.79592-.711q25.07674-25.06612,50.15346-50.14286l25.46939,25.46939c2.30285-2.409,4.73307-4.70122,7.07836-7.07836l18.25306-18.25307c.35021-.11673.54122.44572.82776.61552q12.00246,11.99182,24.00491,23.99429H338.649V78.6151h-40.6555c-8.04407-8.11837-16.17307-16.15184-24.249-24.22776-.711-.66857-1.34776-1.43265-2.12245-2.04816a10.28339,10.28339,0,0,1-.99755,1.06123c-8.05469,8.08653-16.15184,16.13061-24.18532,24.21714a2.12253,2.12253,0,0,1-.64735-.53061L226.23347,57.50735c-1.82531-1.79347-3.59755-3.65062-5.4653-5.42286Z"></path><path id="path37" class="cls-3" d="M347.83918,169.64694a5.87918,5.87918,0,0,1,11.34449,1.46449v1.26286a5.8917,5.8917,0,1,1-11.37632-2.71675m4.52082-2.52572a4.69062,4.69062,0,1,0,3.76034.85763A4.69063,4.69063,0,0,0,352.32817,167.13182Z"></path><path id="path39" class="cls-3" d="M49.84735,166.22979H62.582v36.08164H49.84735Q49.86856,184.24939,49.84735,166.22979Z"></path><path id="path41" class="cls-3" d="M128.25061,166.21919h27.04v7.662H140.93224v6.30367H154.102v7.609H140.94286v6.8449h14.60245v7.609h-27.2947Q128.24,184.24939,128.25061,166.21919Z"></path><path id="path43" class="cls-3" d="M217.5102,166.22979h35.222v9.08408H241.44082v26.96572H228.80163V175.31387H217.52081C217.5102,172.27877,217.52081,169.25429,217.5102,166.22979Z"></path><path id="path45" class="cls-3" d="M315.93878,166.21919h26.37143v7.662H328.631v6.47347h12.87266v7.65144H328.631v14.24163H315.93878Z"></path><path id="path47" class="cls-3" d="M350.69388,168.58571h3.26855a1.72979,1.72979,0,0,1,1.72981,2.33469,1.63429,1.63429,0,0,1-1.60243,1.08246,3.51559,3.51559,0,0,1,1.40082,1.66613c.21226.382.46694.74285.64733,1.14612h-1.60245a8.16085,8.16085,0,0,0-1.47512-2.32408,1.51758,1.51758,0,0,0-1.06123-.22287v2.54694a10.89242,10.89242,0,0,1-1.31591,0v-6.24m1.32654,1.00816v1.65551a5.92147,5.92147,0,0,0,1.98448-.14857.76408.76408,0,0,0,.07429-1.32653,5.72013,5.72013,0,0,0-2.06936-.16979Z"></path><path id="path50" class="cls-4" d="M220.76817,52.08449c1.86775,1.76163,3.64,3.61877,5.4653,5.41224l19.57959,19.59021a2.12242,2.12242,0,0,0,.64735.53061c8.03347-8.08653,16.13061-16.13061,24.18531-24.21714a10.2824,10.2824,0,0,0,.99756-1.06123c.75347.61551,1.3902,1.37959,2.12244,2.04816,8.07592,8.07592,16.20489,16.10939,24.249,24.22776H338.649v4.06449H296.32737q-12.0237-11.99183-24.0049-23.99428c-.28653-.1698-.47754-.73225-.82775-.61552L253.24166,76.32286c-2.34531,2.37714-4.77551,4.66938-7.07836,7.07837L220.69391,57.93184q-25.10859,25.0555-50.15346,50.14286a4.59475,4.59475,0,0,1-.79592.711c-3.41715-3.51265-6.9298-6.951-10.38938-10.43183L144.42367,83.49673h-.15918q-12.60735,12.6392-25.21469,25.25715L92.69959,82.41429c-.23347-.21224-.59428-.06367-.88082-.10612H51.16326V78.39225h42.969c1.178,1.06122,2.271,2.23918,3.41715,3.36408L111.14367,95.34c2.6,2.57878,5.15755,5.2,7.77878,7.75755q12.66042-12.671,25.32081-25.3102l25.46938,25.46939q22.742-22.64653,45.39919-45.36735C216.97959,55.91551,218.90041,54.04775,220.76817,52.08449Z"></path></g></g></svg> 