<?xml version="1.0" encoding="utf-8"?>
<!-- Generator: Adobe Illustrator 23.0.2, SVG Export Plug-In . SVG Version: 6.00 Build 0)  -->
<svg version="1.1" id="Layer_1" xmlns="http://www.w3.org/2000/svg" xmlns:xlink="http://www.w3.org/1999/xlink" x="0px" y="0px"
	 viewBox="0 0 400 245" style="enable-background:new 0 0 400 245;" xml:space="preserve">
<style type="text/css">
	.st0{fill:#404040;}
	.st1{fill:url(#SVGID_1_);}
	.st2{fill:url(#SVGID_2_);}
	.st3{fill:url(#SVGID_3_);}
	.st4{fill:url(#SVGID_4_);}
	.st5{fill:url(#SVGID_5_);}
	.st6{fill:url(#SVGID_6_);}
	.st7{fill:url(#SVGID_7_);}
	.st8{fill:url(#SVGID_8_);}
	.st9{fill:#202945;}
	.st10{fill:#DAA900;}
	.st11{fill:#292933;}
	.st12{fill:#8E91A1;}
	.st13{fill-rule:evenodd;clip-rule:evenodd;fill:#343333;}
	.st14{fill-rule:evenodd;clip-rule:evenodd;fill:#FF3000;}
	.st15{fill:#232020;}
	.st16{fill-rule:evenodd;clip-rule:evenodd;fill:#0068B7;}
	.st17{clip-path:url(#SVGID_10_);fill:url(#SVGID_11_);}
	.st18{clip-path:url(#SVGID_13_);fill:url(#SVGID_14_);}
	.st19{clip-path:url(#SVGID_16_);fill:#FFFFFF;}
	.st20{fill:#018E82;}
	.st21{clip-path:url(#SVGID_18_);fill:#FFFFFF;}
	.st22{fill-rule:evenodd;clip-rule:evenodd;fill:#5E9FD7;}
	.st23{fill-rule:evenodd;clip-rule:evenodd;fill:#2A3457;}
	.st24{fill:#045576;}
	.st25{fill:url(#SVGID_19_);}
	.st26{fill:#22292B;}
	.st27{fill-rule:evenodd;clip-rule:evenodd;fill:url(#SVGID_20_);}
	.st28{fill:#231F20;}
	.st29{fill:#E87B1B;}
	.st30{fill:#818485;}
	.st31{fill:#231916;}
	.st32{fill:#5C186A;}
	.st33{fill:#AEBE25;}
	.st34{fill:#333333;}
	.st35{fill:#FBBC12;}
	.st36{fill:#FFFFFF;}
	.st37{fill:#EC1C24;}
	.st38{fill:#9A9C9C;}
	.st39{fill:#3D3D3A;}
	.st40{fill:#D41E46;}
	.st41{fill:#262261;}
	.st42{fill:#652D90;}
	.st43{fill:#90278E;}
	.st44{fill:#EB008B;}
</style>
<g>
	<g>
		<g>
			<path class="st9" d="M55.87,108.53h10.88v54.1H55.87V108.53z"/>
			<path class="st9" d="M80.22,108.53H91.1v5.76h0.21c3.41-4.26,8.32-6.41,14.08-6.41c8.43,0,18.03,6.51,18.03,18.78v35.96h-10.88
				V130.4c0-7.36-4.59-11.63-10.67-11.63c-6.19,0-10.77,4.27-10.77,11.63v32.22H80.22V108.53z"/>
			<path class="st9" d="M138.28,116.86h-5.45v-8.32h5.45v-7.14c0-10.14,6.29-14.73,14.73-14.73h7.04v10.24h-6.2
				c-3.52,0-4.69,1.17-4.69,4.48v7.14h10.89v8.32h-10.89v45.77h-10.88V116.86z"/>
			<path class="st9" d="M170.71,108.53h10.89v54.1h-10.89V108.53z"/>
			<path class="st9" d="M196.29,108.53h10.88v5.76h0.22c3.41-4.26,8.32-6.41,14.09-6.41c8.43,0,18.03,6.51,18.03,18.78v35.96h-10.88
				V130.4c0-7.36-4.59-11.63-10.68-11.63c-6.18,0-10.77,4.27-10.77,11.63v32.22h-10.88V108.53z"/>
			<path class="st9" d="M259.55,130.73c0.22-8.21,5.02-12.59,11.42-12.59c6.41,0,11.09,4.38,11.42,12.59H259.55z M293.27,139.69
				v-8.96c0-13.97-10.35-22.84-22.3-22.84c-10.46,0-22.29,6.83-22.29,27.85c0,22.19,12.91,27.53,24.01,27.53
				c7.25,0,14.19-2.56,19.52-8.74l-7.9-6.72c-3.19,3.3-7.68,5.23-11.84,5.23c-7.46,0-12.91-4.48-12.91-13.34H293.27z"/>
			<path class="st9" d="M303.75,108.53h10.89v5.76h0.21c3.42-4.26,8.33-6.41,14.09-6.41c4.37,0,8,1.61,11.31,4.17l-7.9,9.39
				c-2.56-1.92-4.38-2.67-7.15-2.67c-5.34,0-10.56,3.42-10.56,11.31v32.54h-10.89V108.53z"/>
			<path class="st9" d="M373.96,143.63c0,8.43-3.09,9.39-12.16,9.39c-7.36,0-10.24-3.21-10.24-6.83c0-3.95,2.99-6.51,9.38-6.51
				h13.02V143.63z M373.96,162.63h10.88v-36.92c0-13.33-9.17-17.82-22.51-17.82c-8.1,0-14.08,2.14-18.24,7.9l8.53,6.51
				c1.93-3.09,4.59-4.17,10.24-4.17c7.79,0,11.1,1.82,11.1,6.93v5.66h-15.04c-11.62,0-17.61,7.36-17.61,16
				c0,9.39,7.04,16.54,19.1,16.54c7.36,0,11.1-1.71,13.34-5.44h0.22V162.63z"/>
			<path class="st9" d="M181.68,91.04c0,3.05-2.47,5.52-5.52,5.52c-3.04,0-5.52-2.48-5.52-5.52c0-3.05,2.47-5.52,5.52-5.52
				C179.21,85.52,181.68,87.99,181.68,91.04z"/>
		</g>
		<g>
			<path class="st9" d="M391.18,97.95c1.24,0,2.45,0.32,3.64,0.96c1.17,0.63,2.1,1.55,2.76,2.73c0.66,1.19,1,2.42,1,3.71
				c0,1.27-0.32,2.5-0.98,3.67c-0.65,1.18-1.56,2.09-2.73,2.74c-1.17,0.65-2.39,0.98-3.68,0.98c-1.28,0-2.5-0.32-3.67-0.98
				c-1.17-0.65-2.09-1.56-2.74-2.74c-0.65-1.17-0.98-2.4-0.98-3.67c0-1.29,0.33-2.53,0.99-3.71c0.66-1.18,1.59-2.1,2.77-2.73
				C388.73,98.27,389.94,97.95,391.18,97.95z M391.18,99.18c-1.04,0-2.05,0.26-3.03,0.8c-0.98,0.53-1.75,1.29-2.31,2.28
				c-0.56,0.99-0.83,2.02-0.83,3.09c0,1.06,0.27,2.08,0.82,3.06c0.55,0.98,1.31,1.74,2.28,2.28c0.98,0.55,2,0.82,3.07,0.82
				c1.07,0,2.09-0.27,3.07-0.82c0.98-0.55,1.74-1.31,2.28-2.28c0.54-0.98,0.81-2,0.81-3.06c0-1.07-0.27-2.1-0.82-3.09
				c-0.55-0.99-1.32-1.75-2.3-2.28C393.23,99.44,392.21,99.18,391.18,99.18z M387.94,109.45v-7.98h2.74c0.93,0,1.61,0.07,2.03,0.22
				c0.42,0.14,0.75,0.4,1,0.77c0.25,0.37,0.37,0.75,0.37,1.16c0,0.59-0.21,1.09-0.62,1.53c-0.42,0.43-0.98,0.67-1.67,0.72
				c0.28,0.11,0.51,0.26,0.68,0.42c0.32,0.32,0.71,0.85,1.18,1.59l0.97,1.56h-1.55l-0.71-1.26c-0.57-0.98-1.01-1.6-1.34-1.85
				c-0.23-0.19-0.58-0.28-1.04-0.27h-0.76v3.39H387.94z M389.22,104.97h1.58c0.76,0,1.27-0.11,1.55-0.34
				c0.27-0.23,0.41-0.52,0.41-0.89c0-0.23-0.07-0.45-0.2-0.64c-0.13-0.19-0.32-0.33-0.55-0.42c-0.24-0.09-0.68-0.14-1.31-0.14h-1.48
				V104.97z"/>
		</g>
	</g>
	<g>
		<g>
			<path class="st10" d="M65.67,86.03c-3.04-4.59-6.45-4.61-8.68-4.04c-3.29,0.83-7.69,11.42-7.69,11.42s-11.52-1.35-21.41-1.91
				C18,90.93,10.84,92.63,6.98,95.07c-3.86,2.45-7.16,12.43-4.71,28.08c2.45,15.64,9.33,21.29,13.94,22.89
				c4.61,1.61,13.47-0.84,21.57-15.35c8.1-14.51,13.1-30.61,13.1-30.61c10.75,0.34,13.38-2.27,16.02-4.71
				C69.54,92.91,68.23,89.89,65.67,86.03z M32.53,125.94c-11.29,16.03-15.02,11.6-19.86,7.26c-4.84-4.34-8.06-18.35-7.97-26.52
				c0.1-8.16,3.53-8.77,5.95-9.27c2.42-0.51,7.56-0.91,14.42,0c6.85,0.91,21.27,2.32,21.27,2.32S43.82,109.91,32.53,125.94z
				 M63.86,94.33c-1.58,0.67-10.81-0.29-10.81-0.29s2.11-7.94,4.05-8.95c2.17-1.12,3.77-0.85,7.07,3.21
				C67.46,92.34,64.66,93.99,63.86,94.33z"/>
		</g>
	</g>
</g>
</svg>
