<?xml version="1.0" encoding="utf-8"?>
<!-- Generator: Adobe Illustrator 26.0.3, SVG Export Plug-In . SVG Version: 6.00 Build 0)  -->
<svg version="1.1" id="Layer_1" xmlns="http://www.w3.org/2000/svg" xmlns:xlink="http://www.w3.org/1999/xlink" x="0px" y="0px"
	 viewBox="0 0 938.9 910.6" style="enable-background:new 0 0 938.9 910.6;" xml:space="preserve">
<style type="text/css">
	.st0{fill:#466BB2;}
	.st1{fill:#FFFFFF;}
</style>
<path class="st0" d="M468.9,910.4c-58.5,0-117-0.3-175.5,0.1c-23.8,0.2-42.4-8.6-57.2-27.1C192.8,829.1,149,775,105.4,720.7
	C75,683,44.6,645.2,14.3,607.4C1.1,591-2.8,572.4,1.9,552c23.2-101.3,46.5-202.5,69.8-303.8c3.4-14.6,6.5-29.2,10.1-43.7
	c4.7-19.2,15.7-33.7,33.6-42.3c75-36,150.1-71.8,225.1-107.7C373.8,38.7,407,22.9,440.1,7c19.4-9.3,38.7-9.3,58.2-0.1
	c107.2,51.2,214.3,102.3,321.6,153.4c20.6,9.8,32.8,25.6,37.8,47.8c15.8,69.6,31.9,139,47.9,208.5c10.6,45.8,21.5,91.6,31.7,137.6
	c4.3,19.4-0.2,37.4-12.8,53c-42.1,52.5-84.4,104.8-126.6,157.3c-32.6,40.5-65.1,81-97.6,121.5c-12.8,15.9-29.6,24.2-49.9,24.3
	C589.9,910.5,529.4,910.4,468.9,910.4C468.9,910.4,468.9,910.4,468.9,910.4z M217.5,503.5c-4.8,3.8-8.4,6.8-12.1,9.5
	c-2.2,1.6-4.7,3.5-7.3,4c-8.1,1.8-16.3,3.2-24.5,4.3c-11.2,1.5-22.5,2.2-33.6,4.1c-10.6,1.9-17,12.4-14.6,22.5
	c3,12.8,12.4,19.6,23.9,16.7c7.4-1.9,14.6-4.6,21.8-7c10.1-3.3,20.1-6.8,30.3-9.9c3.1-0.9,6.6-1.4,9.8-1c5.7,0.8,11.2,2.5,17.6,4
	c19.9,59.2,57.6,105.6,110.2,137.7c0,6.1,0.2,10.9-0.1,15.6c-0.2,2.9-0.3,6.2-1.6,8.6c-6,10.8-12.4,21.3-18.6,31.9
	c-3.6,6.1-7.7,12.1-10.9,18.4c-5,9.9-0.8,21.7,8.8,26.4c9.9,4.7,21.4,0.8,26-9.4c3.2-7.1,5.3-14.6,8.2-21.9
	c4.6-11.7,9.4-23.4,14.3-35c0.7-1.7,2.2-3.8,3.8-4.3c5.2-1.8,8.6-5.2,10.2-10c0.8-0.1,1-0.2,1.1-0.2c1.3,0.4,2.5,0.8,3.8,1.2
	c37.7,13.7,76.6,18.1,116.4,13.5c19-2.2,37.6-6.7,55.7-13.2c1.4-0.5,4.2-0.3,4.5,0.4c1.8,4.2,5.2,5.9,8.9,8c2.5,1.4,4.8,4.3,6,7
	c4.5,10.5,8.5,21.3,12.6,32c2.8,7.4,5.1,15.1,8.3,22.4c4.5,9.9,16.2,13.8,25.8,9.3c9.7-4.6,14-16.1,9-25.8
	c-3.6-7.1-8.2-13.7-12.2-20.6c-6-10.2-12-20.3-17.6-30.7c-1.2-2.2-2.1-5.4-1.5-7.6c1.4-5,1.2-9.6-1.7-14.2
	c27.2-16.3,50.3-36.4,69.7-60.7c19.3-24.3,33.6-51.4,42.7-79.2c5.5-1.3,9.6-2.5,13.7-3.3c2.5-0.5,5.4-1.3,7.8-0.6
	c11.8,3.3,23.5,7.1,35.2,10.7c8.2,2.5,16.3,5.8,24.7,7.4c9.8,1.8,18.6-5.2,20.8-15.2c2.1-9.2-3.5-19.2-12.7-22.2
	c-4.1-1.3-8.4-2.2-12.6-2.7c-12.6-1.5-25.2-2.3-37.7-4c-8-1.1-16.4-2.3-21.1-10.5c-0.3-0.5-1-1.1-1.5-1.1c-7.2-0.3-6.9-4.8-5.8-10
	c0.4-1.6,0.2-3.3,0.4-5c3.3-38.4-1.3-75.9-15.8-111.6c-7.2-17.7-16.3-34.5-24.8-52.3c3.7-2.2,5.9-6.6,6.9-12.1
	c0.4-2.2,2.5-4.4,4.4-5.8c9.3-6.7,18.8-13.1,28.3-19.5c6.6-4.4,13.7-8.3,20.1-13c9.3-6.8,10.8-19.1,4-27.8
	c-6.8-8.8-19.5-10-28.4-2.3c-5.5,4.8-10.5,10.2-15.8,15.2c-8.6,8.1-17.1,16.3-25.9,24.1c-2,1.8-4.9,2.7-7.6,3.4
	c-4.7,1.4-9.6,2.3-15.6,3.8c-20.2-21-44.8-39-72.7-52.4c-27.8-13.4-57.1-21.5-86-24.3c-2.8-5.4-5-9.4-6.9-13.5c-1-2.2-2.2-4.7-2.2-7
	c0.2-9,0.6-18,1.4-26.9c0.9-10.8,2.8-21.4,3.3-32.2c0.6-11.3-8.3-20.2-18.9-20.2c-11.2,0-20,8.6-19.8,20.1
	c0.2,7.8,1.6,15.5,2.2,23.3c1,12.1,1.8,24.2,2.5,36.3c0.1,2-1,4.1-1.9,6.1c-2,4.4-4.2,8.7-6.7,13.8c-62.3,6-116.4,32-159.7,76.8
	c-6.1-1.2-11.1-2.1-16-3.3c-2.2-0.6-4.5-1.5-6.2-3c-9.4-8.6-18.7-17.5-28-26.3c-5.1-4.8-9.9-9.9-15.4-14.1
	c-5.7-4.5-12.6-5.2-19.4-2.6c-13,5-15.6,23.1-4.4,32.6c6.1,5.1,13.2,8.9,19.9,13.3c9.5,6.4,19.1,12.6,28.4,19.3
	c2.4,1.7,4,4.8,5.5,7.5c2,3.6,3.4,7.5,5.6,12.3C222.5,383.6,209.6,442,217.5,503.5z"/>
<path class="st1" d="M217.5,503.5c-7.9-61.5,5-119.9,38.8-172.1c-2.1-4.8-3.6-8.6-5.6-12.3c-1.5-2.7-3.1-5.7-5.5-7.5
	c-9.3-6.7-18.9-13-28.4-19.3c-6.6-4.4-13.8-8.2-19.9-13.3c-11.3-9.5-8.7-27.6,4.4-32.6c6.8-2.6,13.7-1.9,19.4,2.6
	c5.5,4.3,10.3,9.4,15.4,14.1c9.3,8.8,18.6,17.6,28,26.3c1.6,1.5,4,2.4,6.2,3c4.9,1.2,9.9,2.1,16,3.3C329.6,251,383.7,224.9,446,219
	c2.5-5.1,4.7-9.4,6.7-13.8c0.9-1.9,2-4.1,1.9-6.1c-0.6-12.1-1.5-24.2-2.5-36.3c-0.6-7.8-2-15.5-2.2-23.3
	c-0.2-11.5,8.6-20.1,19.8-20.1c10.6,0,19.5,8.9,18.9,20.2c-0.6,10.8-2.4,21.5-3.3,32.2c-0.8,8.9-1.2,17.9-1.4,26.9
	c-0.1,2.3,1.1,4.8,2.2,7c1.9,4.1,4.1,8.1,6.9,13.5c28.9,2.7,58.2,10.8,86,24.3c27.9,13.4,52.5,31.4,72.7,52.4
	c6-1.4,10.9-2.4,15.6-3.8c2.7-0.8,5.6-1.7,7.6-3.4c8.8-7.9,17.3-16,25.9-24.1c5.3-5,10.3-10.5,15.8-15.2c8.9-7.7,21.6-6.4,28.4,2.3
	c6.8,8.7,5.2,21-4,27.8c-6.4,4.7-13.4,8.6-20.1,13c-9.5,6.4-19,12.8-28.3,19.5c-1.9,1.4-4,3.6-4.4,5.8c-1.1,5.4-3.3,9.9-6.9,12.1
	c8.5,17.8,17.7,34.6,24.8,52.3c14.5,35.8,19.2,73.2,15.8,111.6c-0.1,1.7,0,3.4-0.4,5c-1.2,5.2-1.4,9.7,5.8,10c0.5,0,1.2,0.6,1.5,1.1
	c4.7,8.2,13,9.4,21.1,10.5c12.5,1.7,25.1,2.6,37.7,4c4.3,0.5,8.6,1.4,12.6,2.7c9.2,3,14.8,13,12.7,22.2c-2.3,10-11,17-20.8,15.2
	c-8.4-1.5-16.5-4.8-24.7-7.4c-11.7-3.6-23.4-7.4-35.2-10.7c-2.4-0.7-5.2,0.1-7.8,0.6c-4.2,0.8-8.3,2-13.7,3.3
	c-9.1,27.8-23.3,54.9-42.7,79.2c-19.4,24.4-42.5,44.5-69.7,60.7c2.9,4.6,3.1,9.2,1.7,14.2c-0.6,2.3,0.3,5.4,1.5,7.6
	c5.7,10.3,11.7,20.5,17.6,30.7c4,6.9,8.6,13.5,12.2,20.6c4.9,9.7,0.6,21.1-9,25.8c-9.6,4.6-21.3,0.7-25.8-9.3
	c-3.3-7.2-5.5-14.9-8.3-22.4c-4.1-10.7-8.1-21.4-12.6-32c-1.2-2.7-3.5-5.6-6-7c-3.7-2.1-7.1-3.8-8.9-8c-0.3-0.7-3.2-0.9-4.5-0.4
	c-18.1,6.4-36.7,11-55.7,13.2c-39.8,4.6-78.7,0.3-116.4-13.5c-1.2-0.5-2.5-0.8-3.8-1.2c-0.1,0-0.3,0-1.1,0.2c-1.6,4.7-5,8.2-10.2,10
	c-1.6,0.6-3.1,2.6-3.8,4.3c-4.9,11.6-9.7,23.3-14.3,35c-2.9,7.2-5,14.8-8.2,21.9c-4.6,10.3-16.1,14.2-26,9.4
	c-9.7-4.6-13.9-16.5-8.8-26.4c3.2-6.3,7.3-12.3,10.9-18.4c6.3-10.6,12.7-21.1,18.6-31.9c1.4-2.4,1.5-5.7,1.6-8.6
	c0.3-4.7,0.1-9.5,0.1-15.6c-52.6-32.1-90.3-78.5-110.2-137.7c-6.3-1.5-11.9-3.2-17.6-4c-3.2-0.4-6.7,0-9.8,1
	c-10.2,3.1-20.2,6.6-30.3,9.9c-7.3,2.4-14.4,5.1-21.8,7c-11.5,2.9-20.9-3.9-23.9-16.7c-2.3-10.1,4-20.6,14.6-22.5
	c11.1-2,22.4-2.6,33.6-4.1c8.2-1.1,16.4-2.5,24.5-4.3c2.6-0.6,5-2.4,7.3-4C209.1,510.3,212.6,507.3,217.5,503.5z M659.7,538.5
	c-1.5-0.5-2.4-0.9-3.4-1c-22-3.7-43.9-7.4-65.9-11c-11.3-1.9-22.6-4-34-5.3c-8.3-1-14.6,3.1-17.7,10.2c-2.4,5.8-1.4,11.4,0.9,16.9
	c7.6,18.2,15.3,36.5,22.8,54.8c5.2,12.4,10.3,24.8,15.6,37.6C617,615.6,643.6,581.6,659.7,538.5z M326.5,325.1
	c1.4,1.2,2.4,2,3.4,2.8c26,18.5,52.1,37,78.1,55.5c6.4,4.6,13,6.6,20.5,2.9c7.3-3.6,9.6-10.2,10.1-17.7c1.7-27.6,3.3-55.2,4.9-82.8
	c0.3-5.4,0.5-10.8,0.8-16.9C398.5,274.6,359.7,293.5,326.5,325.1z M267.3,490.9c2.5-0.6,4.1-1,5.7-1.5c18.2-5.3,36.4-10.5,54.6-15.8
	c13.5-4,27.2-7.5,40.5-12.3c11.1-3.9,14.1-17.2,6.9-26.4c-1.3-1.7-2.7-3.4-4.3-4.8c-22.9-20.6-45.9-41.1-68.8-61.6
	c-1.8-1.6-3.7-3.1-5.9-4.9C272.1,403,263.1,445,267.3,490.9z M640.8,363.9c-1.3,1-2.4,1.7-3.3,2.6c-10.7,9.6-21.3,19.1-32,28.7
	c-12.7,11.3-25.4,22.6-38,33.9c-4.4,3.9-8.4,8.1-8.8,14.5c-0.5,9.9,5,16.5,16.7,19.9c29.1,8.4,58.2,16.7,87.3,25.1
	c2.5,0.7,5,1.3,7.5,2C675.4,447,662.8,397.7,640.8,363.9z M533.5,661.6c-0.1-0.7,0-1.1-0.2-1.4c-16.1-29.1-32.2-58.3-48.6-87.2
	c-2.1-3.7-5.8-7.1-9.6-8.9c-8.2-4-17.5-0.3-22.4,8.5c-15.9,28.7-31.7,57.4-47.5,86.1c-0.4,0.8-0.6,1.7-0.9,2.6
	C442,675.8,493.6,676.2,533.5,661.6z M278.7,538.5c12.8,40.8,48.3,82.9,81.3,101.4c3.2-7.7,6.4-15.3,9.5-23
	c9.4-22.7,18.8-45.5,28.1-68.2c3-7.3,4-14.6-1.6-21.2c-5.3-6.2-12.3-7-20-5.5c-12.6,2.3-25.2,4.3-37.9,6.4
	C318.4,531.8,298.8,535.1,278.7,538.5z M493.7,268.9c-0.1,1.7-0.3,2.7-0.2,3.7c1.8,32.8,3.5,65.5,5.4,98.3c0.4,7.4,4,13,11.1,15.8
	c7.3,2.9,13.6,0.3,19.6-3.9c25.8-18.3,51.7-36.5,77.5-54.8c1-0.7,1.9-1.6,3.3-2.7C577.4,293.6,538.7,275.2,493.7,268.9z M469,438
	c-11.4-3.2-19.7,0.4-25.1,10.5c-0.1,0.1-0.2,0.2-0.3,0.4c-10.5,12.3-9.7,12.2-7.1,28.2c1.8,11.6,7.4,17.6,17.9,22.7
	c10.5,5,18.5,5,29,0c10.4-4.9,15.3-11.2,17.7-22.4c2.3-10.8,1.6-18.7-6-27.4C487.6,441.4,481.3,433.7,469,438z"/>
<path class="st0" d="M659.7,538.5c-16.1,43.1-42.7,77.1-81.6,102.2c-5.3-12.9-10.4-25.3-15.6-37.6c-7.6-18.3-15.2-36.5-22.8-54.8
	c-2.3-5.5-3.4-11.2-0.9-16.9c3-7.1,9.3-11.2,17.7-10.2c11.4,1.3,22.7,3.5,34,5.3c22,3.6,43.9,7.3,65.9,11
	C657.3,537.7,658.2,538.1,659.7,538.5z"/>
<path class="st0" d="M326.5,325.1c33.2-31.6,72-50.5,117.8-56.1c-0.3,6.1-0.5,11.5-0.8,16.9c-1.6,27.6-3.2,55.2-4.9,82.8
	c-0.5,7.5-2.7,14.1-10.1,17.7c-7.5,3.7-14.1,1.6-20.5-2.9c-26-18.6-52.1-37-78.1-55.5C328.9,327.2,327.9,326.3,326.5,325.1z"/>
<path class="st0" d="M267.3,490.9c-4.2-45.9,4.8-87.9,28.6-127.2c2.2,1.8,4.1,3.3,5.9,4.9c23,20.5,45.9,41,68.8,61.6
	c1.6,1.4,3,3.1,4.3,4.8c7.2,9.3,4.1,22.5-6.9,26.4c-13.3,4.7-27,8.3-40.5,12.3c-18.2,5.3-36.4,10.5-54.6,15.8
	C271.4,489.9,269.8,490.3,267.3,490.9z"/>
<path class="st0" d="M640.8,363.9c22,33.8,34.6,83.1,29.3,126.7c-2.6-0.7-5.1-1.3-7.5-2c-29.1-8.3-58.2-16.7-87.3-25.1
	c-11.7-3.4-17.2-10-16.7-19.9c0.3-6.4,4.4-10.6,8.8-14.5c12.7-11.3,25.4-22.6,38-33.9c10.7-9.5,21.3-19.1,32-28.7
	C638.4,365.6,639.5,364.9,640.8,363.9z"/>
<path class="st0" d="M533.5,661.6c-40,14.6-91.5,14.1-129.1-0.3c0.3-0.9,0.5-1.8,0.9-2.6c15.8-28.7,31.6-57.4,47.5-86.1
	c4.9-8.8,14.2-12.6,22.4-8.5c3.8,1.9,7.5,5.3,9.6,8.9c16.4,28.9,32.5,58.1,48.6,87.2C533.5,660.5,533.5,660.9,533.5,661.6z"/>
<path class="st0" d="M278.7,538.5c20.1-3.4,39.7-6.7,59.4-10.1c12.6-2.1,25.3-4.1,37.9-6.4c7.7-1.4,14.7-0.7,20,5.5
	c5.6,6.5,4.6,13.9,1.6,21.2c-9.3,22.8-18.7,45.5-28.1,68.2c-3.2,7.6-6.3,15.3-9.5,23C327,621.4,291.6,579.3,278.7,538.5z"/>
<path class="st0" d="M493.7,268.9c45.1,6.3,83.7,24.7,116.6,56.3c-1.3,1.1-2.2,2-3.3,2.7c-25.8,18.3-51.7,36.5-77.5,54.8
	c-6,4.2-12.3,6.8-19.6,3.9c-7.1-2.8-10.7-8.4-11.1-15.8c-1.9-32.8-3.6-65.5-5.4-98.3C493.4,271.6,493.6,270.6,493.7,268.9z"/>
<path class="st0" d="M469,438c12.3-4.4,18.6,3.4,26,11.9c7.6,8.7,8.3,16.6,6,27.4c-2.4,11.1-7.3,17.4-17.7,22.4
	c-10.4,5-18.5,5.1-29,0c-10.5-5-16-11.1-17.9-22.7c-2.6-16-3.4-15.9,7.1-28.2c0.1-0.1,0.3-0.2,0.3-0.4
	C449.3,438.4,457.6,434.8,469,438z"/>
</svg>
