<?xml version="1.0" encoding="utf-8"?>
<!-- Generator: Adobe Illustrator 17.0.0, SVG Export Plug-In . SVG Version: 6.00 Build 0)  -->
<!DOCTYPE svg PUBLIC "-//W3C//DTD SVG 1.1//EN" "http://www.w3.org/Graphics/SVG/1.1/DTD/svg11.dtd">
<svg version="1.1" id="Layer_1" xmlns="http://www.w3.org/2000/svg" xmlns:xlink="http://www.w3.org/1999/xlink" x="0px" y="0px"
	 width="387.704px" height="213.556px" viewBox="0 0 387.704 213.556" enable-background="new 0 0 387.704 213.556"
	 xml:space="preserve">
<path fill="#EA1B24" d="M171.693,47.297c10.512,6.515,20.342,4.727,30.092-0.035c2.611-1.275,5.201-2.628,7.661-4.169
	c8.69-5.442,18.594-6.448,28.368-8.01c4.675-0.747,9.367-1.504,13.954-2.645c5.599-1.393,9.472-5.076,12.689-9.857
	c4.807-7.143,10.07-13.98,15.152-20.937c0.237-0.324,0.6-0.556,1.093-1c0.527,0.966,0.967,1.772,1.522,2.79
	c0.785-0.965,1.48-1.82,2.793-3.435c0.321,2.259,0.536,3.774,0.796,5.601c3.139,0.065,6.651,0.404,8.593,4.147
	c0.223,0.43,1.344,0.479,2.063,0.548c1.608,0.154,3.271,0.008,4.825,0.364c1.343,0.308,3.687,1.25,3.641,1.719
	c-0.167,1.692-0.77,3.689-1.93,4.85c-1.634,1.636-3.868,2.705-5.921,3.884c-4.143,2.38-6.014,5.999-6.082,10.673
	c-0.022,1.511-0.277,3.059-0.038,4.528c1.3,8.018-2.071,14.432-7.302,19.861c-5.075,5.267-8.266,11.442-10.863,18.118
	c-2.206,5.669-1.202,9.007,3.811,12.371c1.65,1.107,2.879,2.824,4.405,4.143c0.727,0.628,1.654,1.082,2.561,1.433
	c4.576,1.772,9.644,2.759,13.675,5.36c10.174,6.566,12.731,16.886,10.896,28.086c-1.137,6.94-3.731,13.681-6.057,20.377
	c-4.383,12.617-8.857,25.21-13.651,37.675c-3.733,9.706-9.131,18.296-18.37,23.915c-5.994,3.645-12.635,5.308-19.405,5.368
	c-28.388,0.251-56.779,0.106-86.001,0.106c2.363-4.704,4.272-9.23,6.799-13.38c4.883-8.017,10.589-15.379,20.161-18.158
	c2.949-0.856,6.151-1.131,9.241-1.157c14.037-0.118,28.076-0.097,42.113-0.003c2.122,0.014,3.302-0.495,4.062-2.605
	c6.281-17.425,12.662-34.814,19.001-52.218c0.064-0.176-0.032-0.411-0.085-0.926c-7.251,0-14.536,0-22.419,0
	c3.133-3.406,6.168-6.115,8.469-9.348c3.296-4.632,6.363-9.488,8.949-14.544c2.166-4.236,3.327-8.636,2.491-13.866
	c-1.042-6.52-0.553-13.313-0.419-19.982c0.098-4.86-2.257-8.162-6.235-8.443c1.215,1.598,2.759,3.311,3.92,5.253
	c0.98,1.64,0.339,2.652-1.698,3.162c-5.52,1.383-10.855,0.873-16.18-0.878c-4.394-1.445-8.842-2.726-13.212-4.237
	c-0.836-0.289-1.808-1.201-2.039-2.017c-0.52-1.837-0.615-3.795-1.508-5.774c-0.146,2.152-0.807,4.425-0.338,6.433
	c1.198,5.124-0.856,8.881-4.392,12.054c-2.557,2.295-5.491,4.165-8.138,6.368c-1.806,1.502-3.731,3.03-5.03,4.937
	c-2.378,3.491,0.222,8.124,4.347,8.128c11.878,0.013,23.756,0.005,35.635,0.005c1.253,0,2.507,0,4.463,0
	c-5.711,13.624-11.62,26.15-25.985,31.626c-2.718,1.036-5.929,1.025-8.917,1.063c-9.825,0.124-19.653,0.113-29.478,0
	c-2.317-0.027-3.471,0.68-4.173,2.954c-1.395,4.522-3.116,8.944-4.875,13.896c10.556,0,20.903,0,31.418,0
	c-6.114,16.752-21.668,32.827-40.824,32.885c-2.078,0.006-2.729,1.026-3.328,2.722c-3.801,10.762-7.767,21.467-11.499,32.253
	c-1.045,3.02-2.43,4.304-5.919,4.221c-11.764-0.281-23.538-0.107-35.308-0.107c-1.264,0-2.528,0-4.256,0
	c1.802-5.137,3.429-9.773,5.222-14.885c-1.487-0.07-2.708-0.178-3.93-0.179c-22.353-0.01-44.705,0.003-67.058-0.016
	c-5.025-0.004-7.995-3.771-5.779-7.68c0.849-1.497,2.985-2.658,4.759-3.132c2.018-0.539,4.286-0.146,6.446-0.147
	c28.076-0.002,56.152,0.013,84.227-0.038c1.676-0.003,3.486-0.222,4.995-0.885c2.395-1.053,3.469-3.225,3.108-5.839
	c-0.369-2.672-1.784-4.639-4.594-5.185c-1.151-0.224-2.356-0.237-3.537-0.238c-18.357-0.014-36.715,0.005-55.072-0.033
	c-1.814-0.004-3.809,0.089-5.396-0.604c-2.32-1.013-3.551-3.218-3.107-5.839c0.436-2.579,2.12-4.204,4.77-4.56
	c1.276-0.172,2.587-0.105,3.882-0.105c17.385-0.005,34.771-0.003,52.156-0.006c1.08,0,2.165,0.041,3.238-0.054
	c3.427-0.303,5.745-2.668,5.767-5.812c0.024-3.379-2.256-5.91-5.717-6.282c-0.963-0.103-1.949,0.01-2.912-0.093
	c-3.235-0.346-5.105-2.411-5.103-5.562c0.002-2.993,2.113-5.597,5.19-5.385c3.742,0.258,5.16-1.202,6.222-4.667
	c2.144-6.994,4.976-13.775,7.405-20.686c5.208-14.82,17.15-23.474,32.772-23.594c5.939-0.046,11.878-0.008,17.817-0.009
	c1.158,0,2.316,0,3.606,0c-0.159-1.788-0.248-3.167-0.409-4.537c-0.547-4.656,0.475-8.507,4.307-11.78
	c3.697-3.158,3.709-4.505,1.435-8.744c-3.012-5.614-3.005-11.064,0.062-16.758c-3.656,4.932-6.632,10.744-13.816,11.156
	c0.145-0.44,0.305-0.929,0.585-1.779c-4.582,1.909-9.07,4.909-13.595,1.042C173.625,57.29,172.506,52.637,171.693,47.297z"/>
<path fill="#3E3E3F" d="M363.459,213.352c-11.816,0.512-23.206-8.345-23.466-23.008c-0.246-13.843,9.958-23.83,24.051-23.797
	c13.989,0.032,23.734,9.817,23.66,23.757C387.63,204.262,378.041,213.378,363.459,213.352z M363.734,205.615
	c8.992,0.028,15.924-6.359,15.905-15.16c-0.021-9.8-6.961-16.255-15.603-16.191c-9.15,0.068-15.777,6.483-15.856,15.541
	C348.101,198.909,354.67,205.586,363.734,205.615z"/>
<path fill="#EA1B24" d="M75.279,151.878c-12.194,0-24.387-0.007-36.581,0.005c-2.768,0.003-4.79-1.079-5.745-3.783
	c-0.857-2.425-0.251-4.577,1.751-6.049c1.047-0.77,2.55-1.289,3.849-1.293c24.495-0.074,48.99-0.072,73.485-0.035
	c3.511,0.005,5.894,2.358,5.895,5.503c0.002,3.457-2.206,5.616-6.073,5.633C99.666,151.912,87.473,151.879,75.279,151.878z"/>
<path fill="#EA1B24" d="M100.79,128.388c-10.254,0-20.508,0.008-30.762-0.004c-4.224-0.005-6.487-1.898-6.541-5.409
	c-0.054-3.523,2.223-5.586,6.392-5.591c20.616-0.025,41.231-0.026,61.847,0.001c4.096,0.005,6.424,2.146,6.407,5.675
	c-0.017,3.494-2.254,5.32-6.582,5.324C121.298,128.395,111.044,128.388,100.79,128.388z"/>
<path fill="#3E3E3F" d="M327.897,167.419c0,15.118,0,29.844,0,45.052c-2.184,0-4.314,0.166-6.39-0.095
	c-0.671-0.085-1.714-1.287-1.719-1.985c-0.103-13.58-0.061-27.161-0.1-40.742c-0.005-1.693,0.671-2.318,2.312-2.247
	C323.82,167.479,325.645,167.419,327.897,167.419z"/>
<path fill="#EA1B24" d="M12.756,198.479c-2.586,0-5.18,0.122-7.757-0.031c-3.221-0.19-5.026-2.299-4.999-5.521
	c0.027-3.168,1.947-5.387,5.126-5.464c5.171-0.126,10.35-0.126,15.52,0.015c3.013,0.082,5.178,2.582,5.2,5.543
	c0.019,2.719-2.431,5.337-5.329,5.472c-2.581,0.12-5.173,0.025-7.76,0.025C12.757,198.506,12.756,198.493,12.756,198.479z"/>
<path fill="#3E3E3F" d="M306.512,207.536c-0.027,3.861-2.174,5.898-6.119,5.805c-3.537-0.084-5.5-2.12-5.494-5.698
	c0.007-3.817,2.073-5.965,5.682-5.908C304.187,201.792,306.536,204.089,306.512,207.536z"/>
<path fill="#3E3E3F" d="M324.182,149.89c3.473,0.028,5.007,1.389,5.011,4.442c0.004,3.207-1.757,4.939-5.042,4.959
	c-3.223,0.02-5.251-1.828-5.263-4.794C318.876,151.393,320.636,149.861,324.182,149.89z"/>
</svg>
