<?xml version="1.0" encoding="UTF-8"?> <svg xmlns="http://www.w3.org/2000/svg" id="Layer_1" data-name="Layer 1" viewBox="0 0 400 245"><defs><style>.cls-1{fill:#5602a4;}</style></defs><path class="cls-1" d="M18.93941,160.68124c.95641,1.2081,1.96316,2.36586,2.9699,3.47328C20.90257,163.04711,19.89582,161.88934,18.93941,160.68124Z"></path><path class="cls-1" d="M16.97625,158.0637c-.35236-.50337-.65439-.95641-1.00675-1.45978A14.98394,14.98394,0,0,0,16.97625,158.0637Z"></path><path class="cls-1" d="M12.9996,151.67085c.75506.90608,1.7618,1.00675,3.12091.55372a7.96346,7.96346,0,0,0,5.63779-8.054V108.431a19.9371,19.9371,0,0,1,3.37261-11.12457c5.58745-8.60769,16.41-11.07423,25.57139-7.3996a18.67156,18.67156,0,0,1,11.27558,12.33267,29.91187,29.91187,0,0,1,1.15776,8.658c0,9.9668-.10067,19.93361-.05034,29.95074,0,3.876,2.61754,6.14116,5.83914,5.23509,1.96316-.50338,3.423-2.76856,3.37261-5.58745-.05034-6.14117-.25169-12.232-.25169-18.37315,0-5.13441.55371-10.21849,3.725-14.59785,5.08408-7.04723,12.13132-9.61444,20.437-8.25533,7.29892,1.15776,12.43333,5.3861,15.20189,12.33266a23.94967,23.94967,0,0,1,1.66113,8.55736c.05034,8.15466,0,16.259,0,24.41364a7.5942,7.5942,0,0,0,4.37935,7.29892c1.51013.75506,2.71822.75506,3.62429-.35236-.302.55371-.604,1.10742-.9564,1.66113a61.3719,61.3719,0,1,0-106.26224.05034A15.45856,15.45856,0,0,1,12.9996,151.67085Z"></path><path class="cls-1" d="M114.88247,160.98327c-1.20809,1.51012-2.51687,2.9699-3.82564,4.329C112.3656,163.95317,113.67438,162.49339,114.88247,160.98327Z"></path><path class="cls-1" d="M117.09732,158.0637c.151-.60405-.25168-.95641-1.20809-1.30878-6.24183-2.16451-8.25533-7.09757-8.40634-13.13806-.20135-8.40634.4027-16.76235,0-25.16869-.302-6.79555-4.73172-11.87963-12.13132-13.79245-5.28542-1.40945-12.58435,1.76181-15.60459,6.84588a19.2198,19.2198,0,0,0-2.46653,10.11782c0,7.04724.151,14.09447,0,21.14171a9.20417,9.20417,0,0,1-9.1614,8.85938c-6.14116.151-10.21849-3.52362-10.31917-9.71512-.151-7.44993.05034-14.89987.05034-22.40014a110.80452,110.80452,0,0,0-.25169-11.5776c-.604-6.49352-4.027-11.37624-10.31916-13.18839-6.1915-1.81215-12.18165-.85573-16.712,4.48-2.9699,3.42294-3.82564,7.60094-3.82564,11.93-.05033,10.97356.10068,21.94711.151,32.971.05034,6.44319-2.46653,10.97356-8.90971,12.88638-.60405.20134-1.15776.302-1.10743,1.10742v.05034c.65439.90607,1.30878,1.76181,1.96316,2.61754a4.2621,4.2621,0,0,0,3.574.604c6.54386-2.76856,9.91646-7.8023,10.16815-14.79919.20135-6.1915.05034-12.383.05034-18.62483h.05033c0-6.14116-.05033-12.232,0-18.37315.151-6.04049,4.329-10.26883,9.91647-10.21849,5.43644.05033,9.46343,4.329,9.46343,10.21849,0,7.44993-.151,14.9502-.05034,22.40014.05034,4.9834-.55371,10.01713,1.00675,15.00054a14.68635,14.68635,0,0,0,12.383,10.21849c7.8023.90608,13.74211-3.32227,15.80594-7.80229,2.36586-5.13442,2.11417-10.6212,2.0135-16.05763-.10068-5.13441-.50338-10.21849.05034-15.30257a9.52027,9.52027,0,0,1,6.64453-7.75195,9.72437,9.72437,0,0,1,10.16815,3.22159,12.69945,12.69945,0,0,1,2.36586,8.00365c-.05034,7.39959-.20135,14.74885-.25169,22.14845-.05034,6.79555,1.76181,12.73536,8.054,16.51066,2.61754,1.56047,3.42294,1.96316,4.631.8054,1.15777-1.40944,2.21485-2.86923,3.22159-4.37935C117.7517,157.10729,117.39934,157.61067,117.09732,158.0637Z"></path><path class="cls-1" d="M118.30542,156.30189c.25168-.4027.55371-.8054.8054-1.25843C118.80879,155.4965,118.5571,155.89919,118.30542,156.30189Z"></path><path class="cls-1" d="M109.49637,166.82241c.25169-.50337-.05034-.95641-1.00674-1.51012a22.593,22.593,0,0,1-8.356-7.8023A23.91978,23.91978,0,0,1,96.912,145.278c-.151-7.9533,0-15.90661,0-23.91026a11.67415,11.67415,0,0,0-.302-2.9699,4.06159,4.06159,0,0,0-3.52362-3.17126c-1.71147-.302-2.9699.75506-3.92632,2.11417a6.86113,6.86113,0,0,0-.90607,4.07733c0,6.94656.151,13.89312,0,20.89-.25169,11.07423-7.55061,18.87653-18.52416,20.08462-12.03064,1.30878-21.89677-7.04723-22.7525-19.07787-.4027-5.88947-.10067-11.72861.05034-17.56774,0-4.88273-.05034-9.71512,0-14.59785a9.17515,9.17515,0,0,0-1.05709-4.329,3.97827,3.97827,0,0,0-7.29892.50337,9.81211,9.81211,0,0,0-.50337,3.2216c.05033,7.80229.10067,15.60459.20135,23.40688a118.98924,118.98924,0,0,1-.4027,14.04413c-.85574,8.15466-4.83239,14.09447-12.232,17.66842-1.25844.60405-1.10742,1.15776-.60405,1.76181a61.3802,61.3802,0,0,0,85.6239-1.91282A10.24273,10.24273,0,0,1,109.49637,166.82241Z"></path><path class="cls-1" d="M120.1679,153.28165c-.302.50337-.60405,1.00674-.90607,1.45978C119.61419,154.23806,119.86588,153.785,120.1679,153.28165Z"></path><path class="cls-1" d="M21.95965,164.20486c1.05709,1.10742,2.11417,2.21484,3.22159,3.22159C24.07382,166.36937,22.9664,165.31229,21.95965,164.20486Z"></path><path class="cls-1" d="M14.7614,154.74144c-.25168-.4027-.453-.80541-.70472-1.15777C14.258,153.936,14.50972,154.33874,14.7614,154.74144Z"></path><path class="cls-1" d="M15.01309,155.14413c.25169.4027.50338.75506.75506,1.15776C15.51647,155.89919,15.26478,155.54683,15.01309,155.14413Z"></path><path class="cls-1" d="M145.48761,113.51511c0-3.32227,0-6.64454-.05034-9.96681h10.21848c.151.95641.35237,3.12092.4027,4.58071a12.08032,12.08032,0,0,1,10.72185-5.48678c5.53712,0,8.6077,2.86923,9.9668,5.88947,2.26518-3.17126,5.58745-5.88947,11.87963-5.88947,6.74521,0,12.232,4.12766,12.232,14.19514v25.31971H190.43886V118.09581c0-3.47328-1.25843-6.89622-5.63779-6.89622-4.53037,0-6.34252,2.91957-6.34252,8.85938v22.09811H167.98838V118.49851c0-4.027-1.00675-7.24859-5.53711-7.24859-4.329,0-6.39286,2.66789-6.39286,9.31242v21.59474H145.48756v-28.642Z"></path><path class="cls-1" d="M242.08506,132.19028a93.322,93.322,0,0,0,.50337,9.96681H232.37a17.47659,17.47659,0,0,1-.55372-3.77531c-1.40944,2.16451-4.027,4.68138-10.87288,4.68138-9.31241,0-13.23872-6.14116-13.23872-12.13131,0-8.809,7.04723-12.836,18.37314-12.836h5.53712V115.73c0-2.76856-1.00675-5.43644-5.93981-5.43644-4.53036,0-5.48677,1.91282-5.99015,4.73171H209.51678c.60405-6.84588,4.83239-12.43333,16.561-12.33266,10.36951.05034,15.957,4.12767,15.957,13.28907v16.20864Zm-10.41983-7.60095h-4.37936c-6.44318,0-8.809,1.96316-8.809,5.68813,0,2.8189,1.71146,5.13441,5.53711,5.13441,6.79555,0,7.65129-4.73171,7.65129-9.81579Z"></path><path class="cls-1" d="M286.93568,137.47571c0,12.383-4.58069,20.23563-19.22889,20.23563-14.09447,0-16.863-7.903-17.26572-12.232h10.92322c.75506,2.66788,2.71823,4.48,6.84587,4.48,6.94655,0,8.25535-4.22834,8.25535-11.82929v-1.86248c-2.0135,3.32227-5.23511,5.43644-10.87287,5.43644-10.16816,0-15.957-8.356-15.957-18.72551,0-12.081,7.24858-20.33631,16.91335-20.33631,6.64455,0,9.36275,3.12092,9.9668,4.93307.05033-1.05709.35237-3.37261.40269-4.027h10.11781c-.05033,3.42294-.10068,7.34926-.10068,11.07422v22.85318ZM260.55889,122.5255c0,6.64454,3.32227,10.57086,8.054,10.57086,6.44318,0,8.15467-4.42969,8.15467-10.92321s-1.15776-10.97356-7.9533-10.97356C264.18317,111.24993,260.55889,114.82388,260.55889,122.5255Z"></path><path class="cls-1" d="M296.3991,113.51511c0-3.32227,0-6.64454-.05033-9.96681h10.21849c.151.95641.35237,3.12092.40269,4.58071a12.08035,12.08035,0,0,1,10.72186-5.48678c5.53711,0,8.60768,2.86923,9.9668,5.88947,2.26518-3.17126,5.58744-5.88947,11.87961-5.88947,6.74522,0,12.232,4.12766,12.232,14.19514v25.31971H341.35035V118.09581c0-3.47328-1.25843-6.89622-5.63779-6.89622-4.53037,0-6.3425,2.91957-6.3425,8.85938v22.09811H318.89992V118.49851c0-4.027-1.00675-7.24859-5.53711-7.24859-4.329,0-6.39286,2.66789-6.39286,9.31242v21.59474H296.3991Z"></path><path class="cls-1" d="M392.99657,132.19028a93.31649,93.31649,0,0,0,.50337,9.96681H383.28145a17.47663,17.47663,0,0,1-.55369-3.77531c-1.40945,2.16451-4.027,4.68138-10.87287,4.68138-9.31242,0-13.23873-6.14116-13.23873-12.13131,0-8.809,7.04724-12.836,18.37315-12.836h5.53711V115.73c0-2.76856-1.00674-5.43644-5.9398-5.43644-4.53037,0-5.48679,1.91282-5.99016,4.73171H360.4283c.60405-6.84588,4.83238-12.43333,16.561-12.33266,10.36949.05034,15.957,4.12767,15.957,13.28907v16.20864Zm-10.41985-7.60095h-4.37936c-6.44318,0-8.809,1.96316-8.809,5.68813,0,2.8189,1.71148,5.13441,5.53711,5.13441,6.79555,0,7.65129-4.73171,7.65129-9.81579Z"></path></svg> 