<?xml version="1.0" encoding="utf-8"?>
<!-- Generator: Adobe Illustrator 26.0.3, SVG Export Plug-In . SVG Version: 6.00 Build 0)  -->
<svg version="1.1" id="Layer_1" xmlns="http://www.w3.org/2000/svg" xmlns:xlink="http://www.w3.org/1999/xlink" x="0px" y="0px"
	 viewBox="0 0 379 120" style="enable-background:new 0 0 379 120;" xml:space="preserve">
<style type="text/css">
	.st0{fill:#5500A6;}
</style>
<g>
	<path class="st0" d="M0,58.6c0.1-1.4,0.2-2.8,0.4-4.2C1,47.5,2.7,40.9,5.7,34.7C14.3,17.1,28.1,5.6,47.2,1.5
		C68.4-3,87.1,2.6,102.6,17.8c8.8,8.6,14.3,19.3,16.4,31.4c2.4,13.8,0.3,26.9-6.3,39.3c-0.4,0.7-0.8,0.8-1.6,0.7
		c-4.1-1-6.2-3.6-6.2-7.8c0-7.5,0.1-15,0.1-22.5c0-3.3-0.3-6.5-1.6-9.6c-3-7.5-8.7-11.6-16.6-12.4c-8-0.8-14.4,2.3-18.8,9
		c-2.4,3.6-3.2,7.8-3.2,12.1c0,6.3,0.1,12.6,0.1,18.9c0,0.6,0,1.3-0.1,1.9c-0.2,2.8-1.8,4.3-4.5,4.2c-2.3,0-4-1.8-4.1-4.3
		c-0.1-2.6-0.1-5.2-0.1-7.8c0-5.4,0.2-10.8,0.2-16.2c0-3.5,0.1-7-0.3-10.4c-0.8-7.8-4.9-13.4-12.2-16.4c-8.8-3.6-20.1-1-25.5,8.3
		c-1.9,3.3-2.7,7-2.8,10.7c-0.1,6.6,0,13.2,0,19.8c0,4.8,0.1,9.5,0.1,14.3c0,0.8-0.1,1.6-0.2,2.3c-0.5,3.1-2.7,4.7-5.5,5.5
		c-2.1,0.6-2.1,0.6-3.1-1.3C3.3,80.7,1,73.3,0.4,65.5c-0.1-1.4-0.2-2.9-0.4-4.3C0,60.4,0,59.5,0,58.6z"/>
	<path class="st0" d="M102,102.8c-23.6,23.4-61.5,22.4-83.7,0.2c2.8-1.1,5.2-2.8,7.4-4.8c3.5-3.3,5.2-7.5,5.8-12.1
		c0.3-2,0.4-4.1,0.4-6.2c0-10.8,0-21.5,0-32.3c0-1.3,0.2-2.6,1.1-3.6c1.1-1.3,2.6-1.6,4.2-1.1c1.6,0.4,2.5,1.6,2.8,3.1
		c0.2,1.3,0.2,2.6,0.2,3.8c0,9.1-0.1,18.3-0.1,27.4c0,4.3,0.6,8.5,2.8,12.2c3.7,6.1,9.2,9.4,16.4,9.8c6,0.3,11.2-1.4,15.6-5.6
		c3.4-3.3,5.3-7.4,5.7-12C81,78.1,81,74.5,81,70.9c0-4.5-0.1-9,0-13.5c0.1-4.4,4-5.1,6.2-3.8c1.3,0.8,1.9,1.9,1.9,3.4
		c0,4.6,0,9.2,0,13.7c0,4.6-0.1,9.3,0.2,13.9c0.5,8.3,4.8,14.1,12.1,17.9C101.6,102.5,101.8,102.6,102,102.8z"/>
	<path class="st0" d="M109.3,94.1c-1.1,1.4-2.1,2.7-3.1,4c-0.1,0.2-0.6,0.1-0.9,0C99.8,96,96,92.4,95,86.4c-0.3-1.9-0.5-3.8-0.5-5.7
		c0-7,0.1-14.1,0.1-21.1c0-1.8-0.1-3.7-0.6-5.4c-1.2-4.4-5.4-7.1-9.9-6.7c-4.4,0.4-8.1,3.9-8.5,8.3c-0.3,3.5-0.1,7.1-0.2,10.6
		c-0.1,5,0.1,9.9-0.3,14.8c-0.7,7.4-6.8,12.5-14.3,12.5c-5.1,0-9.3-1.7-12.4-5.8c-2.2-2.9-2.8-6.4-2.8-10c0-9.7,0-19.5,0-29.2
		c0-1.5,0-3-0.4-4.4c-1.1-4.7-5.4-7.7-10-7.3c-4.8,0.5-8.6,4.3-8.6,9.2c-0.1,8.6,0,17.2,0,25.8c0,4,0,7.9-0.2,11.9
		c-0.5,7.5-4.8,12.1-11,14.2c-0.9,0.3-1.4,0.1-2-0.6c-0.8-1.2-1.7-2.3-2.6-3.6c0.8-0.2,1.4-0.3,2-0.4c4.9-1.4,8.3-5.8,8.4-11.1
		c0-6.8,0-13.7,0-20.5c0-4.7-0.1-9.4,0-14c0.1-3.5,0.7-7,2.9-10c3.4-4.5,8-6.3,13.4-5.8c5.4,0.4,9.5,3,12,7.9c1.4,2.8,1.7,6,1.7,9.1
		c0,8.7-0.1,17.4-0.2,26.2c0,1.7,0,3.5,0.2,5.2c0.6,4.1,3.9,7.5,7.9,8c7.3,1,11.3-4.4,11.4-9.4c0.1-4.7,0-9.5,0-14.2
		c0-4-0.3-8,0.7-12c1.5-6.1,7.2-10.6,13.5-10.6c5.8,0,10.2,2.3,13.1,7.3c1.4,2.5,1.9,5.3,1.9,8.1c0.1,4.6,0,9.3,0,13.9
		c0,3.5-0.1,7,0,10.5c0.1,5.6,3.6,10.8,9.5,11.8C109,93.9,109.1,94,109.3,94.1z"/>
	<path class="st0" d="M265.2,45.6c0-1,0-2.2,0-3.5c3.1,0,6.2,0,9.4,0c0,0.3,0.1,0.6,0.1,0.9c0,11.5,0,22.9,0,34.4
		c0,4.2-0.9,8.1-3.4,11.5c-2.5,3.5-6.1,5.5-10.3,6.2c-5.3,1-10.5,0.7-15.5-1.5c-3.7-1.6-6.2-4.3-7.1-8.3c-0.5-2.4-0.2-5,0.9-6.7
		c2.9,0.9,5.8,1.8,8.8,2.8c-0.1,0.6-0.2,1.1-0.3,1.7c-0.3,1.6,0.2,2.9,1.6,3.6c1.3,0.6,2.7,1.2,4.1,1.3c1.8,0.2,3.6,0.2,5.3-0.1
		c3.3-0.5,5.2-2.7,6.1-5.9c0.7-2.8,0.4-5.7,0.5-7.9c-0.7,0.6-1.6,1.3-2.6,2.1c-2.9,2.3-6.1,2.9-9.7,2.5c-9.3-0.9-15.6-8.2-16.2-17.1
		c-0.5-7.7,2.2-14,9-18.1c4.9-2.9,10.2-3.5,15.5-0.9C262.6,43.3,263.8,44.6,265.2,45.6z M245.8,59.9c0,0.4,0,0.9,0,1.3
		c0.2,4.2,3,7.7,7,8.9c4.1,1.2,8.6-0.3,11-3.7c1.8-2.6,2.3-5.5,1.8-8.6c-0.6-4.3-3.8-7.7-8.1-8.4c-4.6-0.8-8.6,1.1-10.6,5.1
		C246,56.2,245.7,58,245.8,59.9z"/>
	<path class="st0" d="M145.7,79.3c-3.2,0-6.3,0-9.4,0c0-12.4,0-24.7,0-37.2c3.1,0,6.2,0,9.4,0c0,1.5,0,3,0,4.5
		c2.9-3.6,6.4-5.6,11-5.6c4.6,0,8.2,1.7,10.1,6.2c0.9-1,1.7-2,2.7-2.8c4-3.6,10.9-4.5,15.6-2c3.4,1.8,5,4.7,5.6,8.4
		c0.1,0.8,0.2,1.7,0.2,2.5c0,8.4,0,16.7,0,25.1c0,0.3,0,0.5-0.1,0.9c-3.1,0-6.2,0-9.4,0c0-0.4,0-0.8,0-1.2c0-7.3,0-14.5,0-21.8
		c0-0.5,0-1.1-0.1-1.6c-0.6-4.7-4.6-6.8-8.9-4.7c-2.8,1.4-3.9,4-4,6.9c-0.2,3.6-0.1,7.2-0.1,10.8c0,3.8,0,7.7,0,11.6
		c-3.1,0-6.2,0-9.4,0c0-0.4,0-0.8,0-1.1c0-7.3,0-14.6,0-21.8c0-1.4-0.3-3-0.9-4.3c-1.5-3.1-6.2-3.7-9.1-1.3c-2.4,2-3,4.7-3,7.6
		c0,6.6,0,13.2,0,19.9C145.7,78.6,145.7,78.9,145.7,79.3z"/>
	<path class="st0" d="M337.5,79.3c-3.2,0-6.2,0-9.4,0c0-0.3,0-0.6,0-1c0-7.3,0-14.7,0-22c0-1.3-0.3-2.6-0.7-3.9
		c-0.4-1.3-1.4-2.1-2.6-2.6c-3.2-1.3-6.9,0.1-8.6,3.2c-0.9,1.8-1.2,3.7-1.2,5.7c0,6.6,0,13.1,0,19.7c0,0.3,0,0.7,0,1.1
		c-3.2,0-6.3,0-9.4,0c0-0.4,0-0.8,0-1.1c0-7.2,0-14.4,0-21.7c0-0.7-0.1-1.4-0.2-2.1c-0.6-4.1-4.2-6.2-8.1-4.7
		c-2.3,0.9-3.7,2.6-4.3,4.9c-0.4,1.3-0.5,2.6-0.6,3.9c-0.1,6.5,0,13,0,19.5c0,0.4,0,0.8,0,1.3c-3.2,0-6.3,0-9.4,0
		c0-12.4,0-24.7,0-37.1c3.1,0,6.2,0,9.4,0c0,1.5,0,3,0,4.4c0.1,0,0.1,0.1,0.2,0.1c2.7-3.7,6.2-5.7,10.8-5.7c4.6,0,8.2,1.8,10.1,6.2
		c0.9-1,1.7-2,2.7-2.9c4-3.7,11-4.5,15.8-1.9c3.3,1.8,4.9,4.8,5.4,8.5c0.1,1,0.2,2.1,0.2,3.1c0,8,0,15.9,0,23.9
		C337.5,78.4,337.5,78.8,337.5,79.3z"/>
	<path class="st0" d="M379,79.4c-3.3,0-6.3,0-9.3,0c-0.3,0-0.7-0.3-0.8-0.6c-0.4-0.8-0.8-1.6-1.1-2.5c-0.2-0.8-0.3-1.7-0.5-2.6
		c-0.7,0.9-1.4,1.8-2.2,2.6c-2.4,2.5-5.4,3.7-8.7,3.9c-2.1,0.2-4.3,0-6.3-0.7c-4.5-1.6-7.1-4.7-7.6-9.5c-0.5-4.6,1.1-8.3,5-10.8
		c3-2,6.4-2.6,9.9-3.1c3-0.4,5.9-0.9,8.8-1.3c0.5-0.1,0.7-0.3,0.8-0.8c0.1-3.9-1.8-6.1-5.7-6.3c-1.3-0.1-2.6,0-3.9,0.3
		c-2.8,0.6-3.8,2-3.9,4.9c-2.7,0.9-5.4,1.8-8.3,2.8c-0.8-1.5-0.9-3.1-0.6-4.6c0.8-4,3.3-6.6,6.9-8.1c6.2-2.6,12.5-2.5,18.6,0.3
		c3.7,1.7,5.6,4.8,6.1,8.8c0.2,1.1,0.2,2.2,0.2,3.3c0,4.5,0,8.9,0,13.4C376.4,72.3,376.5,76,379,79.4z M366.8,61.2
		c-0.2,0-0.4,0-0.5,0c-2.9,0.5-5.9,0.9-8.8,1.5c-1.3,0.3-2.6,0.8-3.7,1.5c-1.8,1.1-2.4,2.9-2,4.9c0.4,2,1.7,3,3.6,3.4
		c0.9,0.2,1.9,0.2,2.8,0.2C364.2,72.3,367.3,67,366.8,61.2z"/>
	<path class="st0" d="M232.8,79.4c-1.5,0-3,0-4.4,0c-1.4,0-2.9,0-4.3,0c-0.7,0-1-0.2-1.3-0.8c-0.9-1.5-1.2-3.1-1.3-5.1
		c-0.3,0.3-0.4,0.5-0.5,0.7c-4.4,6.9-13.3,7.2-18.3,4.8c-3.9-1.9-5.9-5.2-6.1-9.6c-0.2-4.4,1.5-7.9,5.3-10.3
		c2.5-1.6,5.4-2.4,8.3-2.8c3.4-0.5,6.7-1,10-1.5c0.7-0.1,0.9-0.4,0.9-1c0-3.9-1.9-6-5.8-6.1c-1.4-0.1-2.9,0.1-4.3,0.4
		c-2.5,0.6-3.5,2.1-3.4,4.7c-2.7,0.9-5.5,1.8-8.3,2.8c-0.9-1.9-0.9-3.8-0.3-5.7c0.9-3.1,3-5.3,5.9-6.7c6.1-3,12.5-2.9,18.7-0.4
		c4.7,1.9,6.8,5.9,7,10.8c0.1,5.6,0.1,11.1,0.1,16.7c0,3.1,0.5,6.1,2.2,8.8C232.8,79.1,232.8,79.2,232.8,79.4z M220.8,61.3
		c-0.1,0-0.2,0-0.4,0c-3.3,0.6-6.6,1-9.8,1.7c-1.2,0.3-2.4,0.9-3.4,1.7c-1.5,1.1-1.9,2.9-1.5,4.7c0.4,1.7,1.6,2.8,3.3,3.1
		c1.1,0.2,2.3,0.3,3.4,0.2C218.3,72.1,221.3,67,220.8,61.3z"/>
</g>
</svg>
