<?xml version="1.0" encoding="UTF-8"?> <svg xmlns="http://www.w3.org/2000/svg" id="Layer_1" data-name="Layer 1" viewBox="0 0 400 245"><defs><style>.cls-1,.cls-2{fill:#000427;}.cls-2{fill-rule:evenodd;}</style></defs><g id="logo-mef-white"><g id="Group_1997" data-name="Group 1997"><g id="Group_1994" data-name="Group 1994"><path id="Path_448" data-name="Path 448" class="cls-1" d="M180.56276,173.91467A455.72531,455.72531,0,0,1,209.5164,125.8643a498.22154,498.22154,0,0,1,29.25046,48.05037h33.07371a481.6772,481.6772,0,0,0-44.06824-73.59448h0c7.59086-9.851,15.41729-19.26919,23.328-28.107,6.74608,7.7,16.07045,18.81331,26.19542,32.12935l18.45514,25.79122a456.25,456.25,0,0,1,25.98276,43.78472H354.7613c-26.385-54.30615-61.01211-100.77247-103.39465-144.64721-39.69528,40.28523-74.79934,85.28625-103.64939,144.64721Z"></path><path id="Path_449" data-name="Path 449" class="cls-1" d="M99.86019,174.05833A503.349,503.349,0,0,1,169.325,73.44293c4.756,5.42832,10.236,11.85457,16.93236,20.25371l18.64091-23.68232c-11.03094-13.32945-22.79355-26.55546-35.30514-39.51523C129.89789,70.78432,95.60412,114.69355,66.754,174.05643Z"></path></g><g id="Group_1995" data-name="Group 1995"><path id="Path_450" data-name="Path 450" class="cls-2" d="M138.797,53.77534S77.08578,56.60251,81.90882,78.21426C94.47593,134.478,297.921,172.38234,354.75549,181.18372A924.62446,924.62446,0,0,1,207.41518,158.8326c-89.9235-21.901-177.12135-66.5687-162.57943-98.12918C52.70815,43.63889,110.19392,48.13633,138.797,53.77534Z"></path></g><g id="Group_1996" data-name="Group 1996"><path id="Path_451" data-name="Path 451" class="cls-1" d="M171.886,213.72682V185.57h4.62571L186.855,209.05318,196.99144,185.57h4.42848v28.15678h-3.25624V190.63837l-9.99847,23.08857h-2.87314l-10.15173-23.08857v23.08857Z"></path><path id="Path_452" data-name="Path 452" class="cls-1" d="M226.50822,185.57963v2.95357H211.74609V197.982h14.07447v2.9517H211.746v9.84146h15.05709v2.9517H208.10275V185.57Z"></path><path id="Path_453" data-name="Path 453" class="cls-1" d="M250.71911,185.57963v2.95357H235.95686V197.982h14.0746v2.9517h-14.0746v12.795h-3.63935V185.57191Z"></path></g></g></g></svg> 