<?xml version="1.0" standalone="no"?>
<!DOCTYPE svg PUBLIC "-//W3C//DTD SVG 20010904//EN"
 "http://www.w3.org/TR/2001/REC-SVG-20010904/DTD/svg10.dtd">
<svg version="1.0" xmlns="http://www.w3.org/2000/svg"
 width="170.000000pt" height="170.000000pt" viewBox="0 0 170.000000 170.000000"
 preserveAspectRatio="xMidYMid meet">

<g transform="translate(0.000000,170.000000) scale(0.100000,-0.100000)"
fill="#000000" stroke="none">
<path d="M104 1016 c-42 -19 -71 -62 -90 -136 -28 -109 5 -184 81 -184 43 0
75 28 122 109 19 33 36 61 38 63 1 1 21 -26 44 -61 56 -87 84 -111 126 -111
52 0 77 30 83 99 2 30 -1 75 -8 100 -15 52 -69 120 -104 129 -31 8 -74 -8
-107 -40 l-26 -24 -19 21 c-23 26 -67 49 -91 49 -10 -1 -32 -7 -49 -14z m297
-36 c29 -16 61 -87 66 -149 4 -47 2 -59 -15 -74 -17 -15 -24 -16 -42 -7 -20
11 -69 81 -104 148 -17 32 -17 33 13 62 31 32 50 36 82 20z m-198 -38 c15 -14
27 -30 27 -34 0 -21 -102 -157 -122 -164 -26 -8 -58 25 -58 60 0 49 31 125 60
150 34 28 51 26 93 -12z"/>
<path d="M630 860 l0 -160 25 0 c24 0 24 0 27 115 l3 116 44 -81 c39 -70 48
-81 69 -78 20 2 35 21 71 85 l46 83 3 -120 3 -120 24 0 25 0 0 161 0 160 -32
-3 c-30 -3 -37 -11 -83 -95 -27 -51 -53 -93 -57 -93 -4 0 -30 43 -58 95 -47
87 -54 95 -81 95 l-29 0 0 -160z"/>
<path d="M1317 1003 c-4 -3 -7 -19 -7 -34 0 -21 -5 -28 -22 -31 -33 -4 -37
-38 -5 -38 24 0 25 -2 28 -85 5 -97 15 -114 78 -122 38 -5 41 -4 41 18 0 19
-6 24 -26 26 -37 2 -45 18 -42 93 l3 65 33 3 c24 2 32 8 32 23 0 15 -7 19 -35
19 -33 0 -35 2 -35 35 0 27 -4 35 -18 35 -10 0 -22 -3 -25 -7z"/>
<path d="M1083 930 c-32 -13 -63 -68 -63 -113 0 -54 25 -96 67 -114 63 -26
173 5 144 41 -11 13 -17 13 -46 0 -19 -8 -41 -14 -50 -14 -18 0 -65 43 -65 60
0 6 34 10 91 10 l91 0 -7 36 c-8 43 -30 81 -56 94 -22 12 -76 12 -106 0z m83
-38 c16 -10 34 -48 27 -56 -12 -12 -123 -7 -123 6 0 36 66 70 96 50z"/>
<path d="M1500 912 c-56 -56 -49 -165 13 -202 39 -24 68 -25 107 -5 17 9 30
11 30 5 0 -5 11 -10 25 -10 l25 0 0 120 0 120 -25 0 c-16 0 -25 -6 -25 -16 0
-14 -2 -14 -22 0 -37 26 -95 20 -128 -12z m124 -33 c20 -16 26 -29 26 -61 0
-54 -22 -78 -70 -78 -45 0 -60 16 -67 69 -5 33 -1 44 20 65 32 31 56 33 91 5z"/>
</g>
</svg>
