<?xml version="1.0" encoding="utf-8"?>
<!-- Generator: Adobe Illustrator 19.0.0, SVG Export Plug-In . SVG Version: 6.00 Build 0)  -->
<svg version="1.1" id="layer" xmlns="http://www.w3.org/2000/svg" xmlns:xlink="http://www.w3.org/1999/xlink" x="0px" y="0px"
	 viewBox="-153 -46 652 652" style="enable-background:new -153 -46 652 652;" xml:space="preserve">
<style type="text/css">
	.st0{fill:#007DA5;}
	.st1{fill:#313032;}
	.st2{fill:#00AFAA;}
	.st3{fill:#66C9BA;}
	.st4{fill:#0069A7;}
	.st5{fill:#002F87;}
	.st6{fill:#24272A;}
</style>
<path class="st0" d="M52.9,275c0,6.3,1.1,10.5,3.2,12.7c2.2,2.2,6.3,3.3,12.3,3.3h26.4c6.4,0,10.6-1.1,12.6-3.2c2-2.1,3-6.5,3-13
	v-25.6c0-6.8-1.1-11.4-3.4-13.7c-2.2-2.3-6.4-3.5-12.6-3.5H68.8c-6.2,0-10.4,1.2-12.6,3.5c-2.2,2.4-3.3,6.9-3.3,13.8V275z
	 M130.3,277.4c0,12.2-2.1,20.7-6.4,25.5c-4.3,4.8-12.2,7.3-23.7,7.3H63.7c-11.1,0-19-2.5-23.7-7.5c-4.7-5-7-13.5-7-25.3v-30.2
	c0-13,2.2-22,6.7-26.9c4.5-4.9,12.5-7.3,24-7.3h36.5c10.8,0,18.4,2.3,22.8,6.9c4.9,5.1,7.3,14.2,7.3,27.3V277.4z"/>
<path class="st1" d="M143.9,214h33.4l50.7,77.1h2.8V214h19.9v96.2h-34.1l-50-77.1h-2.8v77.1h-19.9V214z M317.7,232h1l15.8,35.9
	h-33.2L317.7,232z M293.2,286h49.2l10.7,24.2h23.4L332.8,214h-29.5l-44.1,96.2h23.2L293.2,286z M402.6,233.1h33.2
	c5,0,8.5,1.3,10.4,3.8c1.7,2.1,2.5,5.7,2.5,10.8c0,5.5-0.9,9.3-2.8,11.6c-1.9,2.3-5.3,3.4-10.1,3.4h-33.2V233.1z M402.6,281.8h37
	c10.4,0,17.8-2.6,22.3-7.9c4.5-5.3,6.7-14,6.7-26.2c0-12.1-2.2-20.8-6.7-25.9c-4.5-5.2-12-7.8-22.5-7.8h-56.7v96.2h19.9V281.8
	L402.6,281.8z"/>
<path class="st1" d="M-131.4,297.1l65.6,40.9h-65.6V297.1z M13.4,338v-41l-65.8,41H13.4z M-131.4,213v40l64.1-40H-131.4z M13.4,213
	h-62.8l62.8,39.2V213z"/>
<polygon class="st2" points="-57.2,255.7 -85.6,238 -115.7,256.7 -87.3,274.5 "/>
<polygon class="st2" points="-27.8,274 0.6,256.3 -28.8,238 -57.2,255.7 "/>
<polygon class="st3" points="-28.8,238 -57.2,220.3 -85.6,238 -57.2,255.7 "/>
<polygon class="st4" points="-87.3,274.5 -115.7,292.2 -86.3,310.5 -57.9,292.8 "/>
<polygon class="st0" points="-115.7,256.7 -117.7,258 -117.7,290.9 -115.7,292.2 -87.3,274.5 "/>
<polygon class="st4" points="-57.9,292.8 -29.7,310.4 -30,310.9 0.6,291.8 -27.8,274 "/>
<polygon class="st0" points="2.3,257.4 0.6,256.3 -27.8,274 0.6,291.8 2.3,290.7 "/>
<polygon class="st5" points="-57.9,292.8 -86.3,310.5 -57.9,328.2 -30,310.9 -29.7,310.4 "/>
<polygon class="st0" points="-87.3,274.5 -57.2,255.7 -27.8,274 -57.9,292.8 "/>
<path class="st6" d="M45.6,328.9c0-0.9-0.1-1.6-0.3-2c-0.2-0.5-0.5-0.8-0.9-1c-0.4-0.2-1-0.3-1.9-0.3h-5.2c-0.8,0-1.4,0.1-1.8,0.3
	c-0.4,0.2-0.8,0.5-1,1c-0.2,0.5-0.3,1.1-0.4,2v4.2c0,0.6,0.1,1.2,0.2,1.6c0.1,0.4,0.3,0.7,0.5,1c0.2,0.2,0.6,0.4,1,0.5
	c0.4,0.1,0.9,0.1,1.5,0.1h5.2c0.8,0,1.5-0.1,1.9-0.3c0.4-0.2,0.7-0.5,0.9-0.9s0.2-1.1,0.3-2L45.6,328.9L45.6,328.9z M46.8,333.2
	c0,1-0.1,1.7-0.2,2.3c-0.2,0.6-0.4,1-0.7,1.4c-0.3,0.3-0.8,0.6-1.3,0.7c-0.5,0.1-1.2,0.2-2,0.2h-5.2c-0.8,0-1.5-0.1-2-0.2
	c-0.6-0.2-1-0.4-1.3-0.8c-0.3-0.4-0.6-0.8-0.8-1.4c-0.2-0.6-0.2-1.3-0.3-2.2V329c0-0.9,0.1-1.6,0.2-2.2c0.2-0.6,0.4-1.1,0.7-1.5
	c0.3-0.4,0.8-0.7,1.3-0.8c0.6-0.2,1.3-0.3,2.1-0.3h5.2c1,0,1.8,0.1,2.4,0.4c0.6,0.3,1.1,0.7,1.4,1.4c0.3,0.7,0.5,1.7,0.5,2.9
	L46.8,333.2L46.8,333.2z M49.9,330.9H57c0.7,0,1.2-0.1,1.5-0.2c0.4-0.1,0.6-0.3,0.8-0.7c0.2-0.3,0.2-0.8,0.2-1.5
	c0-1-0.2-1.7-0.6-2.1c-0.4-0.4-1-0.6-1.9-0.6h-7.2L49.9,330.9L49.9,330.9z M48.7,337.7v-13.3h8c1,0,1.8,0.1,2.4,0.4
	c0.6,0.3,1,0.7,1.3,1.3c0.3,0.6,0.4,1.4,0.4,2.4c0,1-0.1,1.7-0.4,2.3c-0.3,0.5-0.7,0.9-1.3,1.1c-0.6,0.2-1.4,0.3-2.4,0.3h-6.8v5.5
	L48.7,337.7L48.7,337.7z M62.5,337.7v-13.3H73v1.3h-9.2v4.4h9v1.3h-9v4.9H73v1.3L62.5,337.7L62.5,337.7z M75,337.7v-13.3h2.7
	l9.1,11.9v-11.9h1.2v13.3h-1.8l-9.4-12.2h-0.7v12.2H75z M95.4,337.7v-13.3h2.7l9.1,11.9v-11.9h1.2v13.3h-1.8l-9.4-12.2h-0.7v12.2
	H95.4z M110.4,337.7v-13.3h10.5v1.3h-9.2v4.4h9v1.3h-9v4.9h9.2v1.3L110.4,337.7L110.4,337.7z M122.3,324.4h12.7v1.3h-5.8v11.9h-1.2
	v-11.9h-5.7L122.3,324.4L122.3,324.4z M146.9,324.4l4.1,11.9h0.3l4.2-11.9h1.4l-4.8,13.3h-1.7l-4.1-11.8l-4.1,11.8h-1.7l-4.8-13.3
	h1.4l4.2,11.9h0.3l4.1-11.9H146.9z M170.7,328.9c0-0.9-0.1-1.6-0.3-2c-0.2-0.5-0.5-0.8-0.9-1c-0.4-0.2-1-0.3-1.9-0.3h-5.2
	c-0.8,0-1.4,0.1-1.8,0.3c-0.4,0.2-0.8,0.5-1,1c-0.2,0.5-0.3,1.1-0.4,2v4.2c0,0.6,0.1,1.2,0.2,1.6c0.1,0.4,0.3,0.7,0.5,1
	c0.2,0.2,0.6,0.4,1,0.5c0.4,0.1,0.9,0.1,1.5,0.1h5.2c0.9,0,1.5-0.1,1.9-0.3c0.4-0.2,0.7-0.5,0.9-0.9s0.2-1.1,0.3-2L170.7,328.9
	L170.7,328.9z M171.9,333.2c0,1-0.1,1.7-0.2,2.3c-0.2,0.6-0.4,1-0.7,1.4c-0.3,0.3-0.8,0.6-1.3,0.7c-0.5,0.1-1.2,0.2-2,0.2h-5.2
	c-0.8,0-1.5-0.1-2-0.2c-0.6-0.2-1-0.4-1.3-0.8c-0.3-0.4-0.6-0.8-0.8-1.4c-0.2-0.6-0.2-1.3-0.3-2.2V329c0-0.9,0.1-1.6,0.2-2.2
	c0.2-0.6,0.4-1.1,0.7-1.5c0.3-0.4,0.8-0.7,1.3-0.8c0.6-0.2,1.3-0.3,2.1-0.3h5.2c1,0,1.8,0.1,2.4,0.4c0.6,0.3,1.1,0.7,1.4,1.4
	c0.3,0.7,0.5,1.7,0.5,2.9L171.9,333.2L171.9,333.2z M175.1,325.8v5.1h7.7c0.8,0,1.4-0.2,1.9-0.7c0.4-0.5,0.6-1.2,0.6-2.2
	c0-0.6-0.2-1.2-0.7-1.6c-0.4-0.4-1-0.6-1.8-0.6H175.1z M175.1,332.3v5.5h-1.2v-13.3h8.5c1,0,1.7,0.2,2.4,0.5
	c0.6,0.3,1.1,0.8,1.3,1.3c0.3,0.6,0.4,1.2,0.4,2c0,0.6-0.1,1.1-0.2,1.5c-0.1,0.4-0.3,0.7-0.6,1s-0.5,0.5-0.9,0.7
	c0.4,0.1,0.8,0.4,1.1,1c0.3,0.5,0.4,1.3,0.4,2.2v3.1h-1.2v-3.3c0-0.8-0.1-1.4-0.4-1.7c-0.3-0.3-0.8-0.5-1.4-0.5L175.1,332.3
	L175.1,332.3z M188.3,337.7v-13.3h1.2v5.7h2l7.5-5.7h2.1l-8.3,6.4l8.5,7h-2.1l-7.6-6.3h-2v6.3L188.3,337.7L188.3,337.7z M210.6,333
	h7l-3.5-7.7L210.6,333z M208.4,337.7H207l6.1-13.3h1.9l6.1,13.3h-1.4l-1.5-3.3h-8.3L208.4,337.7z M222.3,324.4h1.2v9.3
	c0,0.6,0.1,1.1,0.3,1.5c0.2,0.4,0.5,0.7,1,0.9c0.5,0.2,1.1,0.3,1.9,0.3h5.2c0.7,0,1.3-0.1,1.7-0.3c0.4-0.2,0.8-0.5,0.9-0.9
	c0.2-0.4,0.3-0.9,0.3-1.5v-9.2h1.2v8.7c0,1.2-0.2,2.2-0.5,2.8c-0.3,0.7-0.8,1.1-1.4,1.4c-0.6,0.2-1.4,0.4-2.4,0.4h-5.2
	c-1,0-1.9-0.2-2.5-0.4c-0.6-0.3-1.1-0.7-1.4-1.4c-0.3-0.7-0.5-1.6-0.5-2.7L222.3,324.4L222.3,324.4z M237.4,324.4h12.7v1.3h-5.8
	v11.9h-1.2v-11.9h-5.7L237.4,324.4L237.4,324.4z M263.9,328.9c0-0.9-0.1-1.6-0.3-2c-0.2-0.5-0.5-0.8-0.9-1c-0.4-0.2-1-0.3-1.9-0.3
	h-5.2c-0.8,0-1.4,0.1-1.8,0.3c-0.4,0.2-0.8,0.5-1,1c-0.2,0.5-0.3,1.1-0.4,2v4.2c0,0.6,0.1,1.2,0.2,1.6c0.1,0.4,0.3,0.7,0.5,1
	c0.2,0.2,0.6,0.4,1,0.5c0.4,0.1,0.9,0.1,1.5,0.1h5.2c0.9,0,1.5-0.1,1.9-0.3c0.4-0.2,0.7-0.5,0.9-0.9s0.2-1.1,0.3-2L263.9,328.9
	L263.9,328.9z M265.2,333.2c0,1-0.1,1.7-0.2,2.3c-0.2,0.6-0.4,1-0.7,1.4c-0.3,0.3-0.8,0.6-1.3,0.7c-0.5,0.1-1.2,0.2-2,0.2h-5.2
	c-0.8,0-1.5-0.1-2-0.2c-0.6-0.2-1-0.4-1.3-0.8c-0.3-0.4-0.6-0.8-0.8-1.4c-0.2-0.6-0.2-1.3-0.3-2.2V329c0-0.9,0.1-1.6,0.2-2.2
	c0.2-0.6,0.4-1.1,0.7-1.5c0.3-0.4,0.8-0.7,1.3-0.8c0.6-0.2,1.3-0.3,2.1-0.3h5.2c1,0,1.8,0.1,2.4,0.4c0.6,0.3,1.1,0.7,1.4,1.4
	c0.3,0.7,0.5,1.7,0.5,2.9L265.2,333.2L265.2,333.2z M284.2,337.7h-1.2v-12.2h-0.7l-6.4,12.2h-0.6l-6.4-12.2h-0.7v12.2H267v-13.3h2.6
	l6,11.3l6-11.3h2.6L284.2,337.7L284.2,337.7z M288.9,333h7l-3.5-7.7L288.9,333z M286.7,337.7h-1.4l6.1-13.3h1.9l6.1,13.3H298
	l-1.5-3.3h-8.3L286.7,337.7z M300,324.4h12.7v1.3h-5.8v11.9h-1.2v-11.9H300L300,324.4L300,324.4z M316,337.7h-1.2v-13.3h1.2V337.7z
	 M331.3,328.9c0-0.9-0.1-1.6-0.3-2c-0.2-0.5-0.5-0.8-0.9-1c-0.4-0.2-1-0.3-1.9-0.3h-5.2c-0.8,0-1.4,0.1-1.8,0.3
	c-0.4,0.2-0.8,0.5-1,1c-0.2,0.5-0.3,1.1-0.4,2v4.2c0,0.6,0.1,1.2,0.2,1.6c0.1,0.4,0.3,0.7,0.5,1c0.3,0.2,0.6,0.4,1,0.5
	c0.4,0.1,0.9,0.1,1.5,0.1h5.2c0.8,0,1.5-0.1,1.9-0.3c0.4-0.2,0.7-0.5,0.9-0.9s0.2-1.1,0.3-2L331.3,328.9L331.3,328.9z M332.6,333.2
	c0,1-0.1,1.7-0.2,2.3c-0.2,0.6-0.4,1-0.7,1.4c-0.3,0.3-0.8,0.6-1.3,0.7c-0.5,0.1-1.2,0.2-2,0.2h-5.2c-0.8,0-1.5-0.1-2-0.2
	c-0.6-0.2-1-0.4-1.3-0.8c-0.3-0.4-0.6-0.8-0.8-1.4c-0.2-0.6-0.2-1.3-0.3-2.2V329c0-0.9,0.1-1.6,0.2-2.2c0.2-0.6,0.4-1.1,0.7-1.5
	c0.3-0.4,0.8-0.7,1.3-0.8c0.6-0.2,1.3-0.3,2.1-0.3h5.2c1,0,1.8,0.1,2.4,0.4c0.6,0.3,1.1,0.7,1.4,1.4c0.3,0.7,0.5,1.7,0.5,2.9
	L332.6,333.2L332.6,333.2z M334.4,337.7v-13.3h2.7l9.1,11.9v-11.9h1.2v13.3h-1.8l-9.4-12.2h-0.7v12.2H334.4z M356.1,330.9h7.1
	c0.7,0,1.2-0.1,1.5-0.2c0.4-0.1,0.6-0.3,0.8-0.7c0.2-0.3,0.2-0.8,0.2-1.5c0-1-0.2-1.7-0.6-2.1c-0.4-0.4-1-0.6-1.9-0.6h-7.2
	L356.1,330.9L356.1,330.9z M354.8,337.7v-13.3h8c1,0,1.8,0.1,2.4,0.4c0.6,0.3,1,0.7,1.3,1.3c0.3,0.6,0.4,1.4,0.4,2.4
	c0,1-0.1,1.7-0.4,2.3c-0.3,0.5-0.7,0.9-1.3,1.1c-0.6,0.2-1.4,0.3-2.4,0.3h-6.8v5.5L354.8,337.7L354.8,337.7z M368.8,337.7v-13.3h1.2
	v11.9h8.9v1.3H368.8z M383.5,333h7l-3.5-7.7L383.5,333z M381.3,337.7H380l6.1-13.3h1.9l6.1,13.3h-1.4l-1.5-3.3h-8.3L381.3,337.7z
	 M394.6,324.4h12.7v1.3h-5.8v11.9h-1.2v-11.9h-5.7L394.6,324.4L394.6,324.4z M408.7,337.7v-13.3h10.5v1.3H410v4.4h9v1.3h-9v6.2
	H408.7z M433.8,328.9c0-0.9-0.1-1.6-0.3-2c-0.2-0.5-0.5-0.8-0.9-1c-0.4-0.2-1-0.3-1.9-0.3h-5.2c-0.8,0-1.4,0.1-1.8,0.3
	c-0.4,0.2-0.8,0.5-1,1c-0.2,0.5-0.3,1.1-0.4,2v4.2c0,0.6,0.1,1.2,0.2,1.6c0.1,0.4,0.3,0.7,0.5,1c0.2,0.2,0.6,0.4,1,0.5
	c0.4,0.1,0.9,0.1,1.5,0.1h5.2c0.9,0,1.5-0.1,1.9-0.3c0.4-0.2,0.7-0.5,0.9-0.9c0.2-0.4,0.2-1.1,0.3-2L433.8,328.9L433.8,328.9z
	 M435,333.2c0,1-0.1,1.7-0.2,2.3c-0.2,0.6-0.4,1-0.7,1.4c-0.3,0.3-0.8,0.6-1.3,0.7c-0.5,0.1-1.2,0.2-2,0.2h-5.2
	c-0.8,0-1.5-0.1-2-0.2c-0.6-0.2-1-0.4-1.3-0.8c-0.3-0.4-0.6-0.8-0.8-1.4c-0.2-0.6-0.2-1.3-0.3-2.2V329c0-0.9,0.1-1.6,0.2-2.2
	c0.2-0.6,0.4-1.1,0.7-1.5c0.3-0.4,0.8-0.7,1.3-0.8c0.6-0.2,1.3-0.3,2.1-0.3h5.2c1,0,1.8,0.1,2.4,0.4c0.6,0.3,1.1,0.7,1.4,1.4
	c0.3,0.7,0.5,1.7,0.5,2.9L435,333.2L435,333.2z M438.1,325.8v5.1h7.7c0.8,0,1.4-0.2,1.9-0.7c0.4-0.5,0.6-1.2,0.6-2.2
	c0-0.6-0.2-1.2-0.7-1.6c-0.4-0.4-1-0.6-1.8-0.6H438.1z M438.1,332.3v5.5h-1.2v-13.3h8.5c1,0,1.7,0.2,2.4,0.5
	c0.6,0.3,1.1,0.8,1.3,1.3c0.3,0.6,0.4,1.2,0.4,2c0,0.6-0.1,1.1-0.2,1.5c-0.1,0.4-0.3,0.7-0.6,1c-0.2,0.2-0.5,0.5-0.9,0.7
	c0.4,0.1,0.8,0.4,1.1,1c0.3,0.5,0.4,1.3,0.4,2.2v3.1h-1.2v-3.3c0-0.8-0.1-1.4-0.4-1.7c-0.3-0.3-0.8-0.5-1.4-0.5L438.1,332.3
	L438.1,332.3z M468.6,337.7h-1.2v-12.2h-0.7l-6.4,12.2h-0.6l-6.4-12.2h-0.7v12.2h-1.2v-13.3h2.6l6,11.3l6-11.3h2.6L468.6,337.7
	L468.6,337.7z"/>
</svg>
