<?xml version="1.0" encoding="utf-8"?>
<!-- Generator: Adobe Illustrator 17.0.0, SVG Export Plug-In . SVG Version: 6.00 Build 0)  -->
<!DOCTYPE svg PUBLIC "-//W3C//DTD SVG 1.1//EN" "http://www.w3.org/Graphics/SVG/1.1/DTD/svg11.dtd">
<svg version="1.1" id="layer" xmlns="http://www.w3.org/2000/svg" xmlns:xlink="http://www.w3.org/1999/xlink" x="0px" y="0px"
	 width="563.096px" height="147.462px" viewBox="-133.101 271.717 563.096 147.462"
	 enable-background="new -133.101 271.717 563.096 147.462" xml:space="preserve">
<g>
	<polygon id="XMLID_42_" fill="#FDB913" points="-77.626,271.717 -77.626,303.161 -100.06,280.634 -124.747,305.32 
		-102.313,327.848 -133.101,327.848 -133.101,362.766 -102.313,362.766 -124.747,385.199 -100.06,409.886 -77.626,387.452 
		-77.626,419.179 -42.709,419.179 -42.709,387.452 -20.181,409.886 4.412,385.199 -18.022,362.766 13.798,362.766 13.798,327.848 
		-18.022,327.848 4.412,305.32 -20.181,280.634 -42.709,303.161 -42.709,271.717 	"/>
	<path id="XMLID_10_" fill="#3B3936" d="M92.082,306.447c-0.094,14.925-9.574,29.098-28.441,29.098
		c-18.773,0-28.347-14.267-28.347-29.192c0-13.798,8.542-28.817,28.253-28.817C82.695,277.348,92.082,291.616,92.082,306.447
		 M63.64,279.977c-17.271,0-25.719,13.141-25.719,26.376c0.094,13.329,8.823,26.658,25.719,26.658s25.907-13.047,25.813-26.564
		C89.547,292.367,80.63,279.977,63.64,279.977 M106.255,314.425V334.7h-2.628v-56.507h24.311c23.748,0,23.748,36.326,0,36.232
		H106.255z M128.032,311.891c20.181,0,20.181-31.257,0-31.257h-21.683v31.257H128.032z M158.444,332.166v-24.78h33.885v-2.44
		h-33.885v-24.217h35.575v-2.534h-38.203V334.7h39.423v-2.534H158.444z M208.474,334.7h2.628v-36.701l-0.282-13.329l40.644,50.03
		v-56.507h-2.628v36.701l0.282,13.047l-40.362-49.748h-0.282L208.474,334.7L208.474,334.7z"/>
	<path id="XMLID_1_" fill="#FFB600" d="M83.164,383.698c0.282,14.361-8.917,28.91-28.629,28.91H35.387v-56.507h19.148
		C73.59,356.101,82.883,369.806,83.164,383.698 M39.705,360.137v48.247h14.737c16.802,0,24.593-12.578,24.311-24.686
		c-0.282-11.827-7.979-23.466-24.311-23.466H39.705V360.137z M139.483,412.608l-6.195-13.892H99.497l-6.101,13.892h-4.693
		l25.344-56.507h4.787l25.344,56.507H139.483z M131.505,394.68l-15.112-34.448l-15.206,34.448H131.505z M162.387,412.608h4.318
		v-22.621l22.152-33.885v-0.094h-5.069l-19.242,29.755l-19.148-29.755h-5.069v0.094l22.058,33.885L162.387,412.608L162.387,412.608z
		 M202.091,356.101v56.507h36.232v-4.13h-31.82v-52.377L202.091,356.101L202.091,356.101z M249.118,412.608h4.318v-56.507h-4.318
		V412.608z M315.668,363.704c-5.726-5.632-13.235-8.448-20.65-8.448c-17.177,0-29.192,11.545-29.192,29.192
		c0,15.394,9.95,28.817,29.192,28.817c8.354,0,15.394-3.191,21.307-9.105v-21.12h-23.842v3.755h19.712v15.863
		c-4.881,4.412-11.17,6.571-17.177,6.571c-16.426,0-24.968-11.452-24.968-24.78c-0.094-13.047,8.354-25.156,24.968-25.156
		c6.383,0,13.235,2.441,18.21,7.228L315.668,363.704z M375.648,412.608v-56.507h-4.318v26.939h-36.044v-26.939h-4.318v56.507h4.318
		v-25.719h36.044v25.719H375.648z M406.717,412.608h4.318v-52.564h18.961v-3.848h-43.741v3.848h20.463V412.608z"/>
	<line id="XMLID_23_" fill="none" x1="-77.626" y1="338.079" x2="-67.395" y2="327.848"/>
	<line id="XMLID_22_" fill="none" x1="-77.626" y1="352.534" x2="-77.626" y2="338.079"/>
	<polygon id="XMLID_17_" fill="#F58220" points="-18.022,327.848 -42.709,327.848 -42.709,303.161 -60.167,320.62 -77.626,303.161 
		-77.626,327.848 -102.313,327.848 -84.854,345.307 -102.313,362.766 -77.626,362.766 -77.626,387.452 -60.167,369.993 
		-42.709,387.452 -42.709,362.766 -18.022,362.766 -35.481,345.307 	"/>
	<polygon id="XMLID_15_" fill="#F04E25" points="-42.709,338.079 -42.709,327.848 -52.94,327.848 -60.167,320.62 -67.395,327.848 
		-77.626,327.848 -77.626,338.079 -84.854,345.307 -77.626,352.534 -77.626,362.766 -67.395,362.766 -60.167,369.993 
		-52.94,362.766 -42.709,362.766 -42.709,352.534 -35.481,345.307 	"/>
	<polygon id="XMLID_16_" fill="#EE3124" points="-52.94,327.848 -67.395,327.848 -77.626,338.079 -77.626,352.534 -67.395,362.766 
		-52.94,362.766 -42.709,352.534 -42.709,338.079 	"/>
</g>
</svg>
