<?xml version="1.0" encoding="utf-8"?>
<!-- Generator: Adobe Illustrator 28.4.1, SVG Export Plug-In . SVG Version: 6.00 Build 0)  -->
<svg version="1.1" id="Layer_1" xmlns="http://www.w3.org/2000/svg" xmlns:xlink="http://www.w3.org/1999/xlink" x="0px" y="0px"
	 width="782.7px" height="271.9px" viewBox="0 0 782.7 271.9" style="enable-background:new 0 0 782.7 271.9;" xml:space="preserve"
	>
<style type="text/css">
	.Drop_x0020_Shadow{fill:none;}
	.Round_x0020_Corners_x0020_2_x0020_pt{fill:#FFFFFF;stroke:#231F20;stroke-miterlimit:10;}
	.Live_x0020_Reflect_x0020_X{fill:none;}
	.Bevel_x0020_Soft{fill:url(#SVGID_1_);}
	.Dusk{fill:#FFFFFF;}
	.Foliage_GS{fill:#FFDD00;}
	.Pompadour_GS{fill-rule:evenodd;clip-rule:evenodd;fill:#44ADE2;}
	.st0{fill:#222222;}
	.st1{fill:#0080FF;}
	.st2{fill:#FFFFFF;}
</style>
<linearGradient id="SVGID_1_" gradientUnits="userSpaceOnUse" x1="0" y1="0" x2="0.7071" y2="0.7071">
	<stop  offset="0" style="stop-color:#DEDFE3"/>
	<stop  offset="0.1783" style="stop-color:#DADBDF"/>
	<stop  offset="0.3611" style="stop-color:#CECFD3"/>
	<stop  offset="0.546" style="stop-color:#B9BCBF"/>
	<stop  offset="0.7324" style="stop-color:#9CA0A2"/>
	<stop  offset="0.9181" style="stop-color:#787D7E"/>
	<stop  offset="1" style="stop-color:#656B6C"/>
</linearGradient>
<g>
	<g>
		<path class="st0" d="M97.8,271.1c-1.8,0-3.5-0.4-5.1-1.2c-1.5-0.8-2.3-2-2.3-3.6v-91.6c0-1.3,0.5-2.4,1.6-3.3
			c1.1-0.9,2.4-1.4,4.1-1.4h27c5.6,0,10.7,1,15.4,3c4.6,2,8.3,5.2,10.9,9.7c2.7,4.5,4,10.4,4,17.8v1.1c0,7.4-1.4,13.3-4.1,17.8
			c-2.7,4.5-6.5,7.8-11.2,9.8c-4.8,2-10,3-15.8,3h-17.2v34.2c0,1.6-0.8,2.8-2.3,3.6C101.3,270.7,99.6,271.1,97.8,271.1z
			 M105.1,220.5h17.2c5.2,0,9.2-1.5,12.1-4.4c2.9-3,4.4-7.5,4.4-13.6v-1.7c0-6.1-1.5-10.6-4.4-13.5c-2.9-2.9-6.9-4.4-12.1-4.4h-17.2
			V220.5z"/>
		<path class="st0" d="M162.3,271.1c-1.3,0-2.7-0.3-4.2-0.8c-1.5-0.6-2.7-1.3-3.6-2.1c-0.9-0.9-1.4-1.9-1.4-3.1c0-0.3,0-0.7,0.1-1.2
			l27.5-89.7c0.6-1.7,1.7-2.9,3.5-3.7c1.8-0.8,3.7-1.2,5.7-1.2c2.1,0,4.1,0.4,5.9,1.2c1.8,0.8,3,2.1,3.5,3.7l27.4,89.7
			c0.2,0.6,0.3,1,0.3,1.2c0,1.1-0.5,2.1-1.5,3c-1,0.9-2.2,1.7-3.6,2.2c-1.4,0.6-2.8,0.8-4.2,0.8c-1.2,0-2.2-0.2-3.1-0.7
			c-0.9-0.5-1.5-1.2-1.9-2.4l-5.7-19.6h-34.3l-5.5,19.6c-0.3,1.1-0.9,1.9-1.9,2.4C164.6,270.9,163.5,271.1,162.3,271.1z
			 M176.3,236.6h27.7l-13.8-47.5L176.3,236.6z"/>
		<path class="st0" d="M292.6,271.5c-1.2,0-2.3-0.4-3.3-1.2c-1-0.8-1.8-1.8-2.4-3l-20.3-39.6h-13.8v38.6c0,1.6-0.8,2.8-2.3,3.6
			c-1.5,0.8-3.2,1.2-5,1.2c-1.8,0-3.5-0.4-5.1-1.2c-1.5-0.8-2.3-2-2.3-3.6v-91.6c0-1.3,0.4-2.4,1.3-3.3c0.9-0.9,2.1-1.4,3.7-1.4
			h26.3c5.8,0,11.1,0.9,15.9,2.6c4.8,1.7,8.6,4.6,11.5,8.7c2.9,4.1,4.3,9.8,4.3,16.9c0,5.5-0.9,10.1-2.6,13.8
			c-1.7,3.7-4,6.6-6.9,8.8c-2.9,2.2-6.2,3.8-9.9,4.8l19.4,36.4c0.2,0.3,0.3,0.6,0.4,1c0.1,0.4,0.1,0.8,0.1,1c0,1.2-0.5,2.4-1.4,3.5
			c-0.9,1.2-2.1,2.1-3.4,2.8C295.5,271.1,294.1,271.5,292.6,271.5z M252.8,215.9h16.6c5.2,0,9.3-1.2,12.4-3.7
			c3.1-2.5,4.6-6.7,4.6-12.7c0-6-1.5-10.2-4.6-12.7c-3.1-2.5-7.2-3.7-12.4-3.7h-16.6V215.9z"/>
		<path class="st0" d="M316.4,271.1c-1.3,0-2.7-0.3-4.2-0.8c-1.5-0.6-2.7-1.3-3.6-2.1c-0.9-0.9-1.4-1.9-1.4-3.1c0-0.3,0-0.7,0.1-1.2
			l27.5-89.7c0.6-1.7,1.7-2.9,3.5-3.7c1.8-0.8,3.7-1.2,5.7-1.2c2.1,0,4.1,0.4,5.9,1.2c1.8,0.8,3,2.1,3.5,3.7l27.4,89.7
			c0.2,0.6,0.3,1,0.3,1.2c0,1.1-0.5,2.1-1.5,3c-1,0.9-2.2,1.7-3.6,2.2c-1.4,0.6-2.8,0.8-4.2,0.8c-1.2,0-2.2-0.2-3.1-0.7
			c-0.9-0.5-1.5-1.2-1.9-2.4l-5.7-19.6h-34.3l-5.5,19.6c-0.3,1.1-0.9,1.9-1.9,2.4C318.7,270.9,317.6,271.1,316.4,271.1z
			 M330.4,236.6h27.7l-13.8-47.5L330.4,236.6z"/>
		<path class="st0" d="M422.3,271.9c-5.9,0-11.2-1-15.8-3c-4.7-2-8.4-5.3-11.1-9.8c-2.7-4.5-4.1-10.5-4.1-18v-40.3
			c0-7.5,1.4-13.5,4.1-18c2.7-4.5,6.4-7.8,11.1-9.8c4.7-2,9.8-3,15.4-3c6.3,0,11.8,1.1,16.5,3.2c4.7,2.1,8.4,5.1,11.1,8.9
			c2.7,3.8,4,8.3,4,13.6c0,2.8-0.6,4.6-1.9,5.6c-1.2,1-3.1,1.5-5.5,1.5c-1.9,0-3.6-0.3-5-1c-1.4-0.7-2.2-2-2.3-3.8
			c-0.3-2.7-0.9-5.1-1.9-7.4c-1-2.3-2.7-4.1-5-5.4c-2.3-1.3-5.5-2-9.5-2c-5.2,0-9.2,1.5-12.1,4.4c-2.9,2.9-4.4,7.4-4.4,13.5v40.3
			c0,6.1,1.5,10.6,4.4,13.5c2.9,2.9,6.9,4.4,12.1,4.4c5.1,0,9.1-1.5,12-4.4c3-2.9,4.4-7.4,4.4-13.5v-11.3h-14
			c-1.5,0-2.6-0.6-3.5-1.8c-0.8-1.2-1.2-2.6-1.2-4.2c0-1.4,0.4-2.7,1.2-3.9c0.8-1.2,2-1.9,3.5-1.9h23.8c1.6,0,2.8,0.5,3.6,1.5
			c0.8,1,1.2,2.1,1.2,3.5v18.1c0,7.5-1.4,13.5-4.2,18c-2.8,4.5-6.5,7.8-11.2,9.8C433.3,270.9,428.1,271.9,422.3,271.9z"/>
		<path class="st0" d="M475.5,271.1c-1.6,0-3-0.4-4.4-1.2c-1.4-0.8-2.1-2-2.1-3.6v-91.6c0-1.7,0.8-2.9,2.3-3.6
			c1.5-0.7,3.2-1.1,5.1-1.1c1.8,0,3.5,0.4,5,1.1c1.5,0.7,2.3,1.9,2.3,3.6v83.4h36c1.5,0,2.6,0.7,3.3,2c0.7,1.3,1.1,2.8,1.1,4.5
			c0,1.6-0.4,3-1.1,4.4c-0.7,1.4-1.8,2.1-3.3,2.1H475.5z"/>
		<path class="st0" d="M542.1,271.1c-1.8,0-3.5-0.4-5.1-1.2c-1.5-0.8-2.3-2-2.3-3.6v-91.6c0-1.7,0.8-2.9,2.3-3.6
			c1.5-0.7,3.2-1.1,5.1-1.1c1.8,0,3.5,0.4,5,1.1c1.5,0.7,2.3,1.9,2.3,3.6v91.6c0,1.6-0.8,2.8-2.3,3.6
			C545.6,270.7,543.9,271.1,542.1,271.1z"/>
		<path class="st0" d="M574.2,271.1c-1.9,0-3.5-0.5-4.7-1.4c-1.2-0.9-1.8-2-1.8-3.3v-91.7c0-1.3,0.6-2.4,1.8-3.3
			c1.2-0.9,2.8-1.4,4.7-1.4h24.5c5.8,0,11.1,1,15.8,3c4.8,2,8.5,5.3,11.2,9.8c2.7,4.5,4.1,10.5,4.1,18v39.4c0,7.5-1.4,13.5-4.1,18
			c-2.7,4.5-6.5,7.8-11.2,9.8c-4.8,2-10,3-15.8,3H574.2z M582.4,258.1h16.3c5.2,0,9.2-1.5,12.1-4.4c2.9-2.9,4.4-7.4,4.4-13.5v-39.4
			c0-6.1-1.5-10.6-4.4-13.5c-2.9-2.9-6.9-4.4-12.1-4.4h-16.3V258.1z"/>
		<path class="st0" d="M653.5,271.1c-1.6,0-3-0.4-4.4-1.2c-1.4-0.8-2.1-2-2.1-3.6v-91.5c0-1.6,0.7-2.8,2.1-3.6
			c1.4-0.8,2.9-1.2,4.4-1.2h49.3c1.8,0,3,0.7,3.7,2.1c0.7,1.4,1.1,2.8,1.1,4.3c0,1.8-0.4,3.3-1.2,4.6c-0.8,1.3-2,2-3.6,2h-41.1v31.7
			H683c1.6,0,2.8,0.6,3.6,1.8c0.8,1.2,1.2,2.6,1.2,4.1c0,1.3-0.4,2.6-1.1,3.8c-0.7,1.2-2,1.9-3.7,1.9h-21.3v31.8h41.1
			c1.6,0,2.8,0.6,3.6,1.9c0.8,1.3,1.2,2.9,1.2,4.7c0,1.5-0.4,2.9-1.1,4.3c-0.7,1.4-2,2.1-3.7,2.1H653.5z"/>
		<path class="st0" d="M773.7,271.5c-1.2,0-2.3-0.4-3.3-1.2c-1-0.8-1.8-1.8-2.4-3l-20.3-39.6h-13.8v38.6c0,1.6-0.8,2.8-2.3,3.6
			c-1.5,0.8-3.2,1.2-5,1.2c-1.8,0-3.5-0.4-5.1-1.2c-1.5-0.8-2.3-2-2.3-3.6v-91.6c0-1.3,0.4-2.4,1.3-3.3c0.9-0.9,2.1-1.4,3.7-1.4
			h26.3c5.8,0,11.1,0.9,15.9,2.6c4.8,1.7,8.6,4.6,11.5,8.7c2.9,4.1,4.3,9.8,4.3,16.9c0,5.5-0.9,10.1-2.6,13.8
			c-1.7,3.7-4,6.6-6.9,8.8c-2.9,2.2-6.2,3.8-9.9,4.8l19.4,36.4c0.2,0.3,0.3,0.6,0.4,1c0.1,0.4,0.1,0.8,0.1,1c0,1.2-0.5,2.4-1.4,3.5
			c-0.9,1.2-2.1,2.1-3.4,2.8C776.6,271.1,775.2,271.5,773.7,271.5z M733.9,215.9h16.6c5.2,0,9.3-1.2,12.4-3.7
			c3.1-2.5,4.6-6.7,4.6-12.7c0-6-1.5-10.2-4.6-12.7c-3.1-2.5-7.2-3.7-12.4-3.7h-16.6V215.9z"/>
	</g>
	<g>
		<g>
			<path class="st1" d="M75.2,146.2c-28.3,9.7-53,21.6-72.1,32c1.8,5.7,4.3,11.4,7.9,17.3c1.7,2.8,3.3,5.3,4.9,7.6
				c16-8.2,35-16.9,56.1-24.4C72.5,168.9,73.4,157.7,75.2,146.2z"/>
			<path class="st1" d="M85.7,106.5c-33.9,11-63.1,25.5-84.1,37.4c-2.1,9-2.3,18.8,0,29.1C21.4,162.2,47,150,76.2,140.3
				C78.3,128.9,81.4,117.4,85.7,106.5z"/>
			<path class="st1" d="M88.5,100c4.1-8.8,9.1-17.2,15.4-24.4c0,0-27.7-0.6-54.3,11.2C33.9,93.7,12.3,112,3.7,136.6
				C25.5,124.6,54.8,110.6,88.5,100z"/>
			<path class="st1" d="M71.9,184.5c-19.8,7.2-37.6,15.3-52.8,23.1c28.4,37.5,53,21.4,52.9,6.8C72,209.5,71.5,198.6,71.9,184.5z"/>
		</g>
		<g>
			<path class="st1" d="M380.6,36.9c-8.1-6-17.5-11.8-28.2-17.2c-63.3,9.2-118.9,36.7-150.9,55.5c16,3.5,31.5,7.8,46.2,12.7
				C277.8,70.6,325.6,47.4,380.6,36.9z"/>
			<path class="st1" d="M406.7,60.9c-5.6-6.5-12.4-13.2-20.4-19.6c-53.8,9.5-101.1,31.6-131.7,48.8c13.7,4.7,26.8,9.9,39.1,15.2
				C321.2,90,361.1,71.5,406.7,60.9z"/>
			<path class="st1" d="M410.5,65.6c-44.2,9.8-83,27.4-110.6,42.4c13.8,6.1,26.7,12.2,38.3,18c22.6-12.3,52.7-26.3,87.1-36.6
				C421.8,82,417,73.9,410.5,65.6z"/>
			<path class="st1" d="M141.3,67.2c18,0.8,35.5,3.1,52.4,6.4c30.2-18.3,85.8-47.1,150.2-58c-4-1.8-8.1-3.7-12.4-5.4
				c-6.8-2.7-13.8-4.8-21-6.4C235.8,12.9,171.1,48.4,141.3,67.2z"/>
			<path class="st1" d="M292.9,0.9C190-9.7,63.7,73.2,63.7,73.2c23.1-4.9,45.9-6.8,68.1-6.4C156.3,50.8,218.5,14.1,292.9,0.9z"/>
			<path class="st1" d="M427.5,94.4c-32.6,9.6-61.4,22.8-83.5,34.6c28.3,14.3,49,25.7,59.3,27c33.6,4.4,31.6-28.1,31.6-28.1
				S435.5,113.8,427.5,94.4z"/>
		</g>
	</g>
	<g>
		<path class="st1" d="M17.7,29.2H9c-5,0-9-4.1-9-9l0,0c0-5,4.1-9,9-9h8.6c5,0,9,4.1,9,9l0,0C26.7,25.1,22.6,29.2,17.7,29.2z"/>
		<path class="st1" d="M114.1,28.3H52.7c-5,0-9-4.1-9-9l0,0c0-5,4.1-9,9-9h61.4c5,0,9,4.1,9,9l0,0C123.2,24.2,119.1,28.3,114.1,28.3
			z"/>
	</g>
	<path class="st1" d="M527.3,84h-61.4c-5,0-9-4.1-9-9l0,0c0-5,4.1-9,9-9h61.4c5,0,9,4.1,9,9l0,0C536.3,80,532.3,84,527.3,84z"/>
	<g>
		<path class="st1" d="M286.6,120.8h8.6c5,0,9,4.1,9,9l0,0c0,5-4.1,9-9,9h-8.6c-5,0-9-4.1-9-9l0,0
			C277.5,124.9,281.6,120.8,286.6,120.8z"/>
		<path class="st1" d="M190.1,121.7h61.4c5,0,9,4.1,9,9l0,0c0,5-4.1,9-9,9h-61.4c-5,0-9-4.1-9-9l0,0
			C181,125.7,185.1,121.7,190.1,121.7z"/>
	</g>
</g>
</svg>
