<?xml version="1.0" encoding="utf-8"?>
<!-- Generator: Adobe Illustrator 17.0.0, SVG Export Plug-In . SVG Version: 6.00 Build 0)  -->
<!DOCTYPE svg PUBLIC "-//W3C//DTD SVG 1.1//EN" "http://www.w3.org/Graphics/SVG/1.1/DTD/svg11.dtd">
<svg version="1.1" id="Layer_1" xmlns="http://www.w3.org/2000/svg" xmlns:xlink="http://www.w3.org/1999/xlink" x="0px" y="0px"
	 width="311.988px" height="241.816px" viewBox="0 0 311.988 241.816" enable-background="new 0 0 311.988 241.816"
	 xml:space="preserve">
<g>
	<path d="M224.776,62.657c2.453,8.872,4.862,17.586,7.268,26.291c-6.247,0-11.464,0-17.241,0c-0.351-1.372-0.793-3.262-1.319-5.129
		c-8.646-30.679-29.417-50.046-58.817-59.614C113.47,10.799,75.733,17.608,44.638,49.051
		c-19.076,19.289-25.694,43.083-19.705,69.936c0.214,0.961,0.331,1.944,0.448,2.652c-5.434,0.488-10.774,0.966-16.753,1.503
		c-5.324-20.081-3.387-40.314,5.058-59.897C-3.037,45.922-4.508,25.877,9.677,11.268C23.696-3.169,43.145-2.17,61.024,13.981
		c38.559-18.616,77.207-18.645,115.83-0.061c19.167-16.312,38.239-17.048,52.023-2.03C242.487,26.719,240.783,46.714,224.776,62.657
		z"/>
	<path d="M29.053,143.815c16.872-14.006,41.075-6.482,46.963,15.916c2.813,10.701,2.523,21.404-1.005,31.955
		c-6.544,19.573-29.689,26.976-45.856,12.651c0,6.72,0,12.747,0,18.773c0,6.131,0,12.262,0,18.705c-6.758,0-13.15,0-19.9,0
		c-0.081-1.681-0.225-3.291-0.226-4.902c-0.013-30.792-0.012-61.584-0.008-92.376c0.001-6.277,0.664-7.237,6.837-7.911
		c2.75-0.3,5.615,0.116,8.393,0.475C27.624,137.538,29.866,139.198,29.053,143.815z M29.161,174.903c0,2.83-0.226,5.687,0.092,8.481
		c0.168,1.473,0.944,3.224,2.032,4.189c8.343,7.394,22.364,3.167,24.636-7.734c0.874-4.195,0.483-9.018-0.664-13.189
		c-1.882-6.844-8.553-10.477-15.139-9.31c-8.193,1.452-10.964,4.881-10.964,13.568C29.155,172.239,29.155,173.571,29.161,174.903z"
		/>
	<path d="M232.875,210.924c-7.088,0-13.388,0-19.861,0c-0.194-1.927-0.372-3.698-0.605-6.005
		c-8.295,8.236-17.851,8.755-27.722,4.874c-10.568-4.155-15.882-12.881-17.824-23.614c-2.168-11.981-2.347-23.881,4.211-34.88
		c6.379-10.698,18.227-16.647,29.522-14.122c4.045,0.904,7.728,3.43,11.819,5.328c0.063-0.846,0.254-2.232,0.258-3.619
		c0.027-9.66,0.166-19.324-0.061-28.979c-0.088-3.75,1.375-5.613,4.888-6.155c1.637-0.252,3.282-0.582,4.929-0.617
		c9.085-0.194,10.446,1.138,10.446,10.005c0,30.646,0,61.293,0,91.939C232.875,206.875,232.875,208.671,232.875,210.924z
		 M212.686,174.417c0.117-0.009,0.235-0.019,0.352-0.028c-0.367-4.095,0.534-8.971-1.396-12.103
		c-2.949-4.786-8.636-6.57-14.47-6.041c-5.244,0.475-8.878,3.758-9.828,8.595c-1.002,5.102-1.369,10.598-0.607,15.713
		c1.113,7.472,7.211,11.347,14.512,10.475c7.642-0.912,11.435-5.263,11.436-13.119C212.686,176.745,212.686,175.581,212.686,174.417
		z"/>
	<path d="M291.743,142.463c-0.502-3.423,1.985-4.785,5.252-5.318c1.965-0.321,3.971-0.654,5.947-0.593
		c7.996,0.249,9.045,1.395,9.045,9.358c0,21.481,0,42.962,0,64.816c-6.636,0-13.04,0-19.825,0c-0.16-1.733-0.333-3.602-0.521-5.629
		c-15.074,14.142-38.413,4.953-43.882-12.818c-4.256-13.829-4.883-27.558,2.382-40.65c6.114-11.017,17.932-16.927,29.295-14.437
		C283.644,138.115,287.508,140.597,291.743,142.463z M291.872,173.593c0.113-0.008,0.226-0.017,0.34-0.025
		c-0.361-3.918,0.448-8.526-1.359-11.591c-2.695-4.57-8.051-6.103-13.525-5.91c-4.879,0.172-8.149,2.889-10.024,7.079
		c-2.972,6.643-3.161,13.595-0.706,20.419c2.2,6.115,8.167,9.291,15.033,7.497c6.434-1.681,11.52-3.819,10.282-11.987
		C291.64,177.287,291.872,175.423,291.872,173.593z"/>
	<path d="M110.231,139.942c6.628-1.091,12.769-3.013,18.881-2.924c14.159,0.206,23.951,8.875,24.734,23.004
		c0.927,16.733,0.218,33.556,0.218,50.711c-6.143,0-12.715,0-20.075,0c0-1.592,0-3.339,0-5.086
		c-0.003-11.991,0.037-23.982-0.028-35.973c-0.029-5.347-0.818-10.868-6.353-13.085c-5.785-2.317-11.209,0.164-15.575,4.135
		c-1.307,1.188-1.869,3.76-1.889,5.707c-0.152,14.641-0.083,29.285-0.083,44.298c-6.64,0-13.031,0-19.861,0
		c-0.079-1.542-0.232-3.143-0.233-4.744c-0.016-20.651,0.157-41.305-0.13-61.952c-0.071-5.093,1.98-6.911,6.535-7.213
		C101.744,136.464,107.342,135.223,110.231,139.942z"/>
</g>
</svg>
