<?xml version="1.0" encoding="utf-8"?>
<!-- Generator: Adobe Illustrator 26.0.3, SVG Export Plug-In . SVG Version: 6.00 Build 0)  -->
<svg version="1.1" id="Layer_1" xmlns="http://www.w3.org/2000/svg" xmlns:xlink="http://www.w3.org/1999/xlink" x="0px" y="0px"
	 viewBox="0 0 300.1 136" style="enable-background:new 0 0 300.1 136;" xml:space="preserve">
<style type="text/css">
	.st0{fill:#ED1C24;}
</style>
<g>
	<polygon class="st0" points="164.7,42.4 295.1,57.7 148.2,57.7 	"/>
	<ellipse transform="matrix(0.6883 -0.7254 0.7254 0.6883 14.3319 117.024)" class="st0" cx="143.4" cy="41.8" rx="17.7" ry="5.1"/>
	
		<ellipse transform="matrix(0.6883 -0.7254 0.7254 0.6883 18.9476 106.4919)" class="st0" cx="133.4" cy="31.2" rx="15.5" ry="4.4"/>
	<ellipse transform="matrix(0.6883 -0.7254 0.7254 0.6883 22.2351 97.5797)" class="st0" cx="124.7" cy="22.9" rx="14.1" ry="4"/>
	<ellipse transform="matrix(0.6883 -0.7254 0.7254 0.6883 25.5533 88.5844)" class="st0" cx="115.9" cy="14.6" rx="11" ry="3.2"/>
	<ellipse transform="matrix(0.6883 -0.7254 0.7254 0.6883 28.7441 80.9991)" class="st0" cx="108.6" cy="7" rx="9.4" ry="2.7"/>
	<g>
		
			<ellipse transform="matrix(0.7254 -0.6883 0.6883 0.7254 -61.4381 35.1314)" class="st0" cx="13.3" cy="94.6" rx="17.7" ry="5.1"/>
		
			<ellipse transform="matrix(0.7254 -0.6883 0.6883 0.7254 -65.3651 45.1857)" class="st0" cx="23.9" cy="104.5" rx="15.5" ry="4.4"/>
		<ellipse transform="matrix(0.7254 -0.6883 0.6883 0.7254 -69.0985 53.2833)" class="st0" cx="32.2" cy="113.2" rx="14.1" ry="4"/>
		<ellipse transform="matrix(0.7254 -0.6883 0.6883 0.7254 -72.8666 61.4562)" class="st0" cx="40.6" cy="122.1" rx="11" ry="3.2"/>
		
			<ellipse transform="matrix(0.7254 -0.6883 0.6883 0.7254 -75.7835 68.6088)" class="st0" cx="48.1" cy="129.3" rx="9.4" ry="2.7"/>
	</g>
	<rect x="54.6" y="132.2" class="st0" width="245.6" height="3.2"/>
	<g>
		<path d="M147.3,108.6c-1.3,2.5-3,4.4-5.2,5.9c-2.2,1.5-4.7,2.2-7.5,2.2c-2.5,0-4.7-0.4-6.6-1.3c-1.9-0.9-3.4-2.1-4.6-3.6
			c-1.2-1.5-2.1-3.3-2.7-5.3c-0.6-2-0.9-4.1-0.9-6.4c0-2,0.3-4,1-5.9c0.6-1.9,1.6-3.7,2.8-5.2c1.2-1.5,2.7-2.7,4.5-3.6
			c1.8-0.9,3.8-1.4,6-1.4c2.3,0,4.2,0.4,5.8,1.1c1.6,0.7,2.9,1.7,3.9,2.9c1,1.2,1.7,2.6,2.2,4.2c0.5,1.6,0.7,3.3,0.7,5.2l0,2.1
			l-20.5,0c0,2,0.2,3.9,0.6,5.5c0.4,1.7,1,3.1,1.8,4.4c0.8,1.2,1.9,2.2,3.2,2.9c1.3,0.7,2.9,1.1,4.7,1.1c1.9,0,3.5-0.4,4.8-1.3
			c1.4-0.9,2.7-2.4,3.9-4.7L147.3,108.6z M140.3,96.8c0-1.2-0.1-2.4-0.3-3.8c-0.2-1.3-0.5-2.5-1-3.4c-0.5-1-1.1-1.7-2-2.4
			c-0.8-0.6-1.9-0.9-3.2-0.9c-2.2,0-4,0.9-5.5,2.7c-1.5,1.8-2.2,4.4-2.4,7.6L140.3,96.8z"/>
		<path d="M182.3,100.4c0,4.7-1.5,8.6-4.4,11.7c-2.9,3.2-6.3,4.7-10.2,4.7c-1.7,0-3.4-0.3-5-0.8c-1.6-0.5-3.2-1.2-4.6-2.1l-2.3,3.6
			l-1.9-0.4c0.1-1.6,0.2-3.4,0.2-5.6c0-2.2,0.1-4.3,0.1-6.3l0-30.7c0-0.7-0.2-1.4-0.5-2.1c-0.3-0.7-0.7-1.2-1.2-1.5
			c-0.4-0.3-1.1-0.5-2-0.6c-0.9-0.1-1.7-0.2-2.2-0.3l0-2l11.4-0.7l0.4,0.5l0,20.4l0.2,0.1c1.3-1.4,2.7-2.4,4.3-3.1
			c1.5-0.7,3.1-1,4.5-1c3.8,0,7,1.5,9.6,4.5C181.1,91.6,182.3,95.5,182.3,100.4z M175.8,100.6c0-1.6-0.2-3.1-0.5-4.7
			c-0.3-1.6-0.9-3-1.6-4.2c-0.7-1.2-1.6-2.2-2.8-3c-1.2-0.8-2.5-1.1-4.1-1.1c-1.5,0-2.8,0.3-3.9,0.9c-1.1,0.6-2.1,1.4-3,2.3l0,18
			c0.1,0.5,0.4,1.1,0.7,1.8c0.4,0.7,0.9,1.3,1.5,1.9c0.6,0.6,1.3,1.1,2.1,1.4c0.8,0.4,1.8,0.6,2.9,0.6c2.6,0,4.6-1.2,6.2-3.7
			C175,108.3,175.8,104.9,175.8,100.6z"/>
		<path d="M216.3,115.4c-1,0.4-1.8,0.6-2.6,0.9c-0.7,0.2-1.6,0.3-2.5,0.3c-1.6,0-2.9-0.4-3.9-1.1c-1-0.8-1.6-1.9-1.9-3.3h-0.2
			c-1.4,1.5-2.8,2.7-4.4,3.5c-1.6,0.8-3.4,1.2-5.6,1.2c-2.3,0-4.2-0.7-5.7-2.1c-1.5-1.4-2.2-3.3-2.2-5.6c0-1.2,0.2-2.3,0.5-3.2
			c0.3-0.9,0.8-1.8,1.5-2.5c0.5-0.6,1.2-1.2,2.1-1.7c0.9-0.5,1.7-0.9,2.4-1.2c0.9-0.4,2.9-1,5.7-2c2.9-1,4.8-1.7,5.8-2.3l0-3.1
			c0-0.3-0.1-0.8-0.2-1.6c-0.1-0.8-0.4-1.5-0.7-2.2c-0.4-0.8-1-1.5-1.8-2c-0.8-0.6-1.8-0.9-3.3-0.9c-1,0-1.9,0.2-2.7,0.5
			c-0.8,0.3-1.4,0.7-1.7,1c0,0.4,0.1,1,0.3,1.9c0.2,0.8,0.3,1.6,0.3,2.3c0,0.7-0.3,1.4-1,2c-0.7,0.6-1.6,0.9-2.8,0.9
			c-1,0-1.8-0.4-2.3-1.1c-0.5-0.7-0.7-1.6-0.7-2.5c0-1,0.3-1.9,1-2.8c0.7-0.9,1.6-1.7,2.7-2.4c0.9-0.6,2.1-1.1,3.4-1.5
			c1.3-0.4,2.7-0.6,3.9-0.6c1.8,0,3.3,0.1,4.6,0.4c1.3,0.2,2.5,0.8,3.6,1.6c1.1,0.8,1.9,1.8,2.4,3.2c0.6,1.3,0.8,3,0.8,5.1
			c0,3,0,5.7-0.1,8c-0.1,2.3-0.1,4.8-0.1,7.6c0,0.8,0.1,1.5,0.4,1.9c0.3,0.5,0.7,0.9,1.3,1.2c0.3,0.2,0.8,0.3,1.5,0.3s1.4,0,2.1,0
			L216.3,115.4z M205.3,98.8c-1.8,0.5-3.3,1-4.7,1.5s-2.6,1.1-3.7,1.9c-1,0.7-1.9,1.6-2.5,2.5c-0.6,1-0.9,2.1-0.9,3.5
			c0,1.7,0.5,3,1.4,3.8c0.9,0.8,2.1,1.2,3.5,1.2c1.5,0,2.8-0.4,3.9-1.1c1.1-0.7,2.1-1.6,2.9-2.6L205.3,98.8z"/>
		<path d="M233.7,116.8c-4.5,0-8-1.5-10.5-4.5c-2.5-3-3.8-7-3.8-12c0-2.2,0.3-4.2,1-6.1c0.7-1.9,1.7-3.6,3-5.2
			c1.2-1.5,2.8-2.7,4.7-3.6c1.9-0.9,3.9-1.4,6.1-1.4c3,0,5.5,0.7,7.4,2.2c1.9,1.5,2.9,3.4,2.9,6c0,1-0.3,2-0.8,2.8
			c-0.5,0.8-1.3,1.2-2.5,1.2c-1.2,0-2.2-0.3-2.9-0.9c-0.7-0.6-1-1.3-1-2.1c0-0.9,0.1-1.9,0.4-2.9c0.3-1,0.4-1.7,0.4-2.2
			c-0.4-0.6-0.9-1.1-1.7-1.3c-0.7-0.2-1.5-0.3-2.4-0.3c-1,0-2,0.2-2.9,0.6c-0.9,0.4-1.8,1.2-2.7,2.4c-0.8,1-1.4,2.5-1.9,4.2
			c-0.5,1.8-0.7,3.9-0.7,6.4c0,3.9,0.9,7.1,2.6,9.5c1.7,2.5,4,3.7,6.8,3.7c2,0,3.7-0.5,5.1-1.5c1.4-1,2.6-2.5,3.8-4.5l2,1.3
			c-1.4,2.5-3.2,4.4-5.5,5.9C238.4,116,236.1,116.8,233.7,116.8z"/>
		<path d="M277.9,115.4c-1,0.4-1.9,0.6-2.6,0.9c-0.7,0.2-1.6,0.3-2.5,0.3c-1.6,0-2.9-0.4-3.9-1.1c-1-0.8-1.6-1.9-1.9-3.3h-0.2
			c-1.4,1.5-2.8,2.7-4.4,3.5c-1.6,0.8-3.4,1.2-5.6,1.2c-2.3,0-4.2-0.7-5.7-2.1c-1.5-1.4-2.2-3.3-2.2-5.6c0-1.2,0.2-2.3,0.5-3.2
			c0.3-0.9,0.8-1.8,1.5-2.5c0.5-0.6,1.2-1.2,2.1-1.7c0.9-0.5,1.7-0.9,2.4-1.2c0.9-0.4,2.9-1,5.7-2c2.9-1,4.8-1.7,5.8-2.3l0-3.1
			c0-0.3-0.1-0.8-0.2-1.6c-0.1-0.8-0.4-1.5-0.7-2.2c-0.4-0.8-1-1.5-1.8-2c-0.8-0.6-1.8-0.9-3.3-0.9c-1,0-1.9,0.2-2.7,0.5
			c-0.8,0.3-1.4,0.7-1.7,1c0,0.4,0.1,1,0.3,1.9c0.2,0.8,0.3,1.6,0.3,2.3c0,0.7-0.3,1.4-1,2c-0.7,0.6-1.6,0.9-2.8,0.9
			c-1,0-1.8-0.4-2.3-1.1c-0.5-0.7-0.7-1.6-0.7-2.5c0-1,0.3-1.9,1-2.8c0.7-0.9,1.6-1.7,2.7-2.4c0.9-0.6,2.1-1.1,3.4-1.5
			c1.3-0.4,2.7-0.6,3.9-0.6c1.8,0,3.3,0.1,4.6,0.4c1.3,0.2,2.5,0.8,3.6,1.6c1.1,0.8,1.9,1.8,2.4,3.2c0.6,1.3,0.8,3,0.8,5.1
			c0,3,0,5.7-0.1,8c-0.1,2.3-0.1,4.8-0.1,7.6c0,0.8,0.1,1.5,0.4,1.9c0.3,0.5,0.7,0.9,1.3,1.2c0.3,0.2,0.8,0.3,1.5,0.3
			c0.7,0,1.4,0,2.1,0L277.9,115.4z M267,98.8c-1.8,0.5-3.3,1-4.7,1.5c-1.3,0.5-2.6,1.1-3.7,1.9c-1,0.7-1.9,1.6-2.5,2.5
			c-0.6,1-0.9,2.1-0.9,3.5c0,1.7,0.5,3,1.4,3.8c0.9,0.8,2.1,1.2,3.5,1.2c1.5,0,2.8-0.4,3.9-1.1c1.1-0.7,2.1-1.6,2.9-2.6L267,98.8z"
			/>
	</g>
	<g>
		<path d="M117.9,116.6h-15.4c-3.4-5.3-6.5-10-9.2-13.8c-2.7-3.9-5.7-7.9-8.9-12h-5.8v18.1c0,0.9,0.1,1.8,0.4,2.5
			c0.3,0.7,0.9,1.3,1.9,1.6c0.5,0.2,1.3,0.4,2.5,0.5c1.2,0.2,2.2,0.3,3.1,0.3v2.9H62.3v-2.9c0.6-0.1,1.6-0.1,2.8-0.3
			c1.2-0.1,2.1-0.3,2.6-0.5c0.8-0.3,1.4-0.9,1.8-1.5c0.4-0.7,0.5-1.5,0.5-2.6V67.5c0-0.9-0.1-1.8-0.4-2.5c-0.3-0.7-0.9-1.3-1.9-1.6
			c-0.7-0.2-1.5-0.5-2.6-0.7c-1.1-0.2-2-0.3-2.7-0.4v-2.9h26.4c2.4,0,4.7,0.2,6.8,0.7c2.1,0.5,4,1.3,5.8,2.4c1.7,1.1,3,2.5,4,4.2
			c1,1.7,1.5,3.8,1.5,6.3c0,2.2-0.3,4.1-1,5.8c-0.7,1.7-1.7,3.2-3,4.4c-1.2,1.2-2.7,2.2-4.3,3c-1.7,0.8-3.6,1.6-5.6,2.2
			c2.8,3.7,5.2,6.9,7,9.4c1.9,2.5,4.2,5.6,6.9,9.3c1.2,1.6,2.2,2.8,3.2,3.6c1,0.8,1.9,1.4,2.8,1.9c0.7,0.3,1.6,0.6,2.6,0.8
			c1,0.2,1.9,0.3,2.6,0.3V116.6z M96.8,74c0-3.5-1-6.2-3-8.2c-2-2-4.8-3-8.4-3h-6.8v24.5h5.3c3.7,0,6.8-1.2,9.3-3.6
			C95.5,81.3,96.8,78.1,96.8,74z"/>
	</g>
</g>
</svg>
