<svg xmlns="http://www.w3.org/2000/svg" xmlns:xlink="http://www.w3.org/1999/xlink" width="100%" height="100%" viewBox="0 0 166.277 43.137">
  <defs>
    <linearGradient id="linear-gradient" x1="-0.08" y1="0.9" x2="0.765" y2="-0.008" gradientUnits="objectBoundingBox">
      <stop offset="0" stop-color="#00576f"/>
      <stop offset="1" stop-color="#a7db78"/>
    </linearGradient>
    <linearGradient id="linear-gradient-2" x1="-0.843" y1="1.619" x2="1.55" y2="-0.522" gradientUnits="objectBoundingBox">
      <stop offset="0" stop-color="#00576f"/>
      <stop offset="0.977" stop-color="#99dd80"/>
    </linearGradient>
  </defs>
  <g id="Group_385" data-name="Group 385" transform="translate(-361.727 -227.916)">
    <g id="Group_385-2" data-name="Group 385" transform="translate(415.202 241.823)">
      <path id="Path_620" data-name="Path 620" d="M423.579,247.085v18.026a19.164,19.164,0,0,0,4.7-.648V250.154a29.652,29.652,0,0,1,8.877-1.5L437.7,244C433.5,244.087,426.94,245.272,423.579,247.085Z" transform="translate(-423.579 -244.002)" fill="#333"/>
    </g>
    <path id="Path_621" data-name="Path 621" d="M479.9,242.911l-.681.07c-12.289,1.263-12.911,9.348-12.911,10.955,0,6.572,3.519,10.046,10.176,10.046a26.777,26.777,0,0,0,7.238-.961l.555-.156V234.718a16.834,16.834,0,0,0-4.376.752Zm0,16.834-.646.1a18.639,18.639,0,0,1-2.734.174,6.411,6.411,0,0,1-4.582-1.855c-1.306-1.5-1.325-3.677-1.111-5.243.431-3.155,3.435-5.22,8.244-5.666l.829-.077Z" transform="translate(-14.164 -0.921)" fill="#333"/>
    <path id="Path_622" data-name="Path 622" d="M525.653,244.572a26.812,26.812,0,0,0-7.238.961l-.555.156V273.3a14.489,14.489,0,0,0,4.376-.752v-6.9l.682-.07c12.289-1.263,12.911-9.347,12.911-10.955C535.829,248.047,532.31,244.572,525.653,244.572Zm5.655,11.065c-.431,3.155-3.435,5.22-8.243,5.665l-.83.077v-12.57l.647-.1a18.525,18.525,0,0,1,2.734-.174,6.53,6.53,0,0,1,4.463,2.063A6.078,6.078,0,0,1,531.308,255.637Z" transform="translate(-21.146 -2.256)" fill="#333"/>
    <path id="Path_623" data-name="Path 623" d="M450.585,244.019a11.051,11.051,0,0,0-3.708.852,9.936,9.936,0,0,0-3.234,2.173h0a10.6,10.6,0,0,0-2.25,3.474,12.481,12.481,0,0,0-.842,4.732,12.809,12.809,0,0,0,.648,4.167,8.283,8.283,0,0,0,1.995,3.226,8.676,8.676,0,0,0,3.419,2.026,12.541,12.541,0,0,0,3.95.571q.466,0,.95-.025a19.417,19.417,0,0,0,4.009-.588,20.453,20.453,0,0,0,3.091-1.139l.417-.214-.033-3.9-1.005.359a25.985,25.985,0,0,1-5.957,1.5c-2.512.179-4.542-.277-5.436-1.221a5.28,5.28,0,0,1-1.467-2.709,34.734,34.734,0,0,0,6.751-.515,41.215,41.215,0,0,0,7.593-1.842s.757-5.543-2.3-8.708C455.6,244.621,453.515,243.875,450.585,244.019Zm-.124,3.654a4.02,4.02,0,0,1,4.817,4.115,46.8,46.8,0,0,1-4.935.991c-2.965.448-5.166.535-5.166.535C445.446,251.32,446.567,248.154,450.461,247.673Z" transform="translate(-10.676 -2.179)" fill="#333"/>
    <path id="Path_624" data-name="Path 624" d="M510.4,264.171a13.415,13.415,0,0,1-.789-3.289v-15.8l-.837-.1c-2.541-.281-10.255-.722-14.576,3.567a9.91,9.91,0,0,0-2.92,7.172c0,6.572,3.852,10.257,9.706,9.345a10.811,10.811,0,0,0,4.664-1.975l.531,1.838A11.6,11.6,0,0,0,510.4,264.171Zm-13.74-4.2a6.446,6.446,0,0,1-.861-5.683c1.643-5.566,9.437-5.136,9.437-5.136v9.376C504.023,259.863,499.154,262.931,496.66,259.973Z" transform="translate(-17.546 -2.289)" fill="#333"/>
    <g id="Group_386" data-name="Group 386" transform="translate(361.727 227.916)">
      <path id="Path_625" data-name="Path 625" d="M377.982,247.456c5.042-2.719,14.362-4.621,21.466-5.18V228.083a80.282,80.282,0,0,0-21.867,1.683c-10.06,2.177-15.853,6.089-15.853,6.089v35.053a82.005,82.005,0,0,0,16.255-.684Z" transform="translate(-361.727 -227.916)" fill="url(#linear-gradient)"/>
      <path id="Path_626" data-name="Path 626" d="M389.949,256.285v15.838a47.314,47.314,0,0,0,13.321-5.477V253.824C398.4,254.173,393.617,254.823,389.949,256.285Z" transform="translate(-365.549 -231.424)" fill="url(#linear-gradient-2)"/>
    </g>
    <path id="Path_627" data-name="Path 627" d="M547.136,244.636V237.25a16.17,16.17,0,0,0-4.376.753v26.236a17.009,17.009,0,0,0,4.376-.677V249.05l4.861-.536.526-4.473Z" transform="translate(-24.519 -1.264)" fill="#333"/>
  </g>
</svg>
