<?xml version="1.0" standalone="no"?>
<!DOCTYPE svg PUBLIC "-//W3C//DTD SVG 20010904//EN"
 "http://www.w3.org/TR/2001/REC-SVG-20010904/DTD/svg10.dtd">
<svg version="1.0" xmlns="http://www.w3.org/2000/svg"
 width="612.000000pt" height="405.000000pt" viewBox="0 0 612.000000 405.000000"
 preserveAspectRatio="xMidYMid meet">

<g transform="translate(0.000000,405.000000) scale(0.100000,-0.100000)"
fill="#000000" stroke="none">
<path d="M450 2375 l0 -1185 446 0 446 0 197 -137 c108 -75 324 -227 481 -337
537 -376 575 -403 597 -415 22 -11 22 -11 9 26 -8 21 -34 90 -59 153 -71 180
-267 698 -267 704 0 3 758 6 1685 6 l1685 0 0 1185 0 1185 -2610 0 -2610 0 0
-1185z m5025 0 l0 -990 -1731 -5 -1730 -5 104 -273 c57 -150 102 -275 99 -278
-3 -3 -58 32 -124 79 -141 100 -450 317 -585 410 l-96 67 -384 2 -383 3 -3
980 c-1 539 0 986 3 993 3 10 492 12 2417 10 l2413 -3 0 -990z"/>
<path d="M1326 2856 c-63 -23 -89 -48 -121 -111 -25 -51 -30 -71 -29 -135 0
-139 27 -183 179 -300 86 -66 106 -88 120 -124 31 -81 -16 -154 -83 -130 -31
11 -51 56 -51 122 l-1 42 -91 0 -92 0 6 -79 c8 -121 46 -190 128 -233 62 -33
184 -33 250 0 84 41 128 129 129 258 0 142 -28 193 -165 295 -121 89 -145 118
-145 173 0 49 22 76 63 76 34 0 58 -35 65 -95 l5 -45 84 0 c61 0 85 4 89 13
10 28 -16 142 -44 186 -39 64 -95 93 -186 98 -46 2 -85 -2 -110 -11z"/>
<path d="M1906 2833 c-11 -39 -176 -892 -176 -912 0 -20 5 -21 95 -21 69 0 95
3 96 13 0 6 6 48 12 92 l12 80 80 0 80 0 12 -80 c6 -44 12 -86 12 -92 1 -10
27 -13 96 -13 83 0 95 2 95 17 0 18 -167 884 -176 916 -5 15 -19 17 -119 17
-100 0 -114 -2 -119 -17z m149 -368 c14 -99 25 -188 25 -197 0 -15 -9 -18 -55
-18 -66 0 -64 -18 -30 220 14 96 25 179 26 185 2 25 10 -22 34 -190z"/>
<path d="M2410 2375 l0 -475 91 0 91 0 -6 353 c-6 393 -10 390 55 42 18 -93
41 -219 53 -280 l21 -110 72 -3 c62 -2 72 0 77 15 2 10 32 169 66 353 34 184
64 337 67 340 3 3 3 -80 -1 -185 -3 -104 -7 -264 -8 -355 l-3 -165 90 0 90 0
3 473 2 472 -137 0 -138 0 -43 -233 c-23 -127 -45 -259 -49 -292 -10 -98 -19
-92 -32 22 -7 59 -29 196 -50 303 l-37 195 -137 3 -137 3 0 -476z"/>
<path d="M3312 2379 l3 -474 98 -3 97 -3 0 186 0 185 68 0 c98 0 140 15 193
69 57 56 73 105 74 221 0 103 -22 173 -68 218 -58 56 -94 64 -290 70 l-177 5
2 -474z m315 266 c41 -48 25 -167 -26 -195 -11 -5 -36 -10 -55 -10 l-36 0 0
121 0 122 47 -6 c35 -4 53 -12 70 -32z"/>
<path d="M3960 2375 l0 -475 215 0 215 0 0 95 0 94 -117 3 -118 3 -3 378 -2
377 -95 0 -95 0 0 -475z"/>
<path d="M4490 2375 l0 -475 228 2 227 3 3 93 3 92 -136 0 -135 0 0 105 0 104
123 3 122 3 0 90 0 90 -122 3 -123 3 0 89 0 90 135 0 135 0 0 90 0 90 -230 0
-230 0 0 -475z"/>
</g>
</svg>
