<?xml version="1.0" encoding="UTF-8"?>
<svg xmlns="http://www.w3.org/2000/svg" version="1.1" viewBox="0 0 841.9 595.3">
  <defs>
    <style>
      .cls-1 {
        fill: #bbbdbe;
      }

      .cls-2 {
        fill: #393332;
      }
    </style>
  </defs>
  <!-- Generator: Adobe Illustrator 28.7.2, SVG Export Plug-In . SVG Version: 1.2.0 Build 154)  -->
  <g>
    <g id="_レイヤー_1" data-name="レイヤー_1">
      <g>
        <g>
          <rect class="cls-1" x="208.7" y="266.8" width="84.4" height="20.7"/>
          <rect class="cls-1" x="208.7" y="308.3" width="84.4" height="20.8"/>
        </g>
        <g>
          <path class="cls-2" d="M352.5,281.7c-1.8-8.7-3.6-11.7-13.6-11.7s-7.7,1.2-10,3.2c-2,1.7-3,3.8-3,6.4s1.3,5.2,2.9,6.8c2.2,2.1,5.4,4,10.7,6.7,6.6,3.4,11.6,5.3,15.2,9.5,1.8,2,3.6,5.8,3.6,10s-1.5,8.4-4.7,11.2c-3.5,3.2-9.1,5.3-16.6,5.3s-10.9-1.1-15.8-2.9c-.8-5.2-1.7-8.8-2.8-12.5l3-.8c2.7,10.4,7.4,12.9,16.4,12.9s7.5-1.1,10.1-3.1c2.6-2,4.3-5,4.3-8.8s-.9-5.4-2.7-7.5c-2.7-3.2-7.3-5.2-12.2-7.7-5.2-2.6-12.2-6.4-14.7-9.9-1.5-2.2-2.5-5-2.5-8.1s1.5-7.3,5.1-10c3-2.4,7.7-4,14.3-4s9.8.7,14.1,2.4c.5,3.5,1.3,8,2,11.8l-3,.7Z"/>
          <path class="cls-2" d="M371.1,308.8c0-6.5,1.2-10.7,3.5-13.7,2-2.4,4.8-3.5,8.2-3.5s6.4,1.2,8.4,3.5c2.3,3,3.5,7.2,3.5,13.7s-1.4,11.1-3.5,13.8c-1.9,2.2-4.6,3.5-8.2,3.5s-6.3-1.3-8.2-3.5c-2.1-2.7-3.5-7-3.5-13.8ZM365,308.7c0,7.7,2,12.8,5.3,15.9,3.4,3,7.4,4.2,12.5,4.2s9.5-1.4,12.8-4.4c3.2-3.1,5.1-8.1,5.1-15.7s-1.9-11.8-5.1-15.1c-3.3-3.1-7.2-4.6-12.8-4.6s-9.3,1.5-12.6,4.6c-3.4,3.3-5.2,8.5-5.2,15.2Z"/>
          <path class="cls-2" d="M412.1,292.6h-6.2v-2.7h6.2v-5.3c0-5.2,1.3-9,4.1-11.9,2-1.9,4.9-3.3,8.6-3.3s5.5.9,7.2,2c2.4,1.6,3.6,3.7,3.6,5.2s-.8,2.6-2.4,2.6-2.8-1.8-3.7-3.6c-.9-1.9-2-3.6-4.6-3.6s-3,.6-4.2,1.9c-1.7,2-2.7,5.1-2.7,11.1v5h10.7v2.7h-10.7v27.6c0,5.1.3,5.6,6.7,5.6v2.1h-18.8v-2.1c5.9,0,6.3-.6,6.3-5.7v-27.4Z"/>
          <path class="cls-2" d="M432.3,290.6c5.3-.5,9-2.5,10.1-11.4h2.1v10.6h8.9v2.7h-8.9v27.3c0,4,1.2,6,4.1,6s3.6-.7,5.2-1.9l1.4,1.9c-2.2,1.9-4.8,3-8.3,3s-8.3-2-8.3-8.6v-27.6h-6.3v-1.9Z"/>
          <path class="cls-2" d="M473,274.2c0-2.3.3-3,2.5-3h8c5.9,0,9.7,1.3,12.1,3.3,1.9,1.5,3.3,4.8,3.3,7.7s-1.4,7-3.9,9c-3,2.5-7.8,3.6-13.6,3.6h-8.4v-20.7ZM466.8,319c0,6-.5,6.4-6.8,6.4v2.4h27.5c8.8,0,13.8-2,17.1-5.2,3.4-3.2,4.7-7.4,4.7-11.7s-2.4-8-5.4-10.4c-3.6-2.8-8.5-4.2-14-4.4v-.2c5.3-.8,8.9-2.4,11.4-4.7,3.1-2.8,4.2-6.5,4.2-9.7s-2.2-7.7-5.4-9.9c-4.6-3-9.6-3.7-17.4-3.7h-22.7v2.4c6.3,0,6.8.4,6.8,6.5v42.1ZM473,298.1h10.5c6.9,0,11.6,1.2,14.5,3.5,3,2.3,4.6,5.6,4.6,9.3s-1.3,7.5-3.3,9.6c-2.9,3-6.8,4.2-12.8,4.2h-10.5c-2.6,0-3.1-.6-3.1-4.1v-22.5Z"/>
          <path class="cls-2" d="M537.3,321.2c-2.1,2.1-5,4.4-9.1,4.4s-4.3-.8-5.6-2c-1.3-1.3-1.9-3.1-1.9-5.3,0-3.9,2.4-6.1,5.7-7.8,3.1-1.9,7.3-3.1,10.9-4.1v14.9ZM543.1,300.7c0-3.7-.6-6-2.8-8.4-2.1-2.4-5.1-3.3-10.1-3.3s-7.4,1.1-9.6,2.4c-2.7,1.6-4.4,3.9-4.4,5.9s.7,2.4,2.4,2.4,2.5-.8,3-2c.8-1.9,1.5-3.3,2.6-4.1,1.5-1.2,3.2-1.9,5.7-1.9s4.8.8,6.1,2.5c1.1,1.4,1.4,4,1.4,5.9v3.6l-5,1.2c-5.4,1.2-9.6,2.9-12.5,4.8-3.7,2.4-5.2,5.5-5.2,9.4s1.3,5.7,3.4,7.3c2.2,1.8,5.1,2.5,7.8,2.5,5.6,0,9-1.9,11.8-4.6h.3c.8,2.8,2.5,4.3,5.5,4.3s3.7-.5,5.2-1.2l-.5-1.9c-.7.4-1.4.6-2.3.6-1.7,0-2.5-1.7-2.5-5.5v-19.8Z"/>
          <path class="cls-2" d="M586.1,320.4c0,4.7.3,5.4,4.1,5.4v2.1h-14.3v-2.1c4.1,0,4.3-.5,4.3-5.6v-18.8c0-3.3-.4-6-2-7.7-1.1-1.1-2.6-1.7-4.9-1.7-3.5,0-7.3,3.2-10.7,7.9v20.4c0,5.1,0,5.6,4.1,5.6v2.1h-14.8v-2.1c4.6,0,4.9-.5,4.9-5.6v-20.5c0-4.9-.4-5.5-4.9-5.4v-1.9c3.7-.6,6.6-1.4,9.4-3.5l.8.5.3,6.5h.2c3.4-4.3,7.7-7,12.3-7s6.2.9,8.1,2.7c1.9,1.9,3,4.9,3,9.4v19.3Z"/>
          <path class="cls-2" d="M605.9,307.1l12.1-11.7c2.3-2.1,2.9-3.4-1.2-3.4v-2.1h12.5v2.1c-2.4,0-3.8.7-5.7,2.5l-8.9,8.4,12.9,19.6c1.9,3,3.7,3.3,6.3,3.2v2.1h-9.6l-13.8-21.3-4.7,4.7v8.9c0,4.9.2,5.6,4.8,5.6v2.1h-15.7v-2.1c4.9,0,5.1-.7,5.1-5.6v-40c0-4.9-.5-5.5-5.1-5.5v-1.9c4.1-.6,7-1.5,10.1-3.5l.8.5v37.2h.2Z"/>
        </g>
      </g>
    </g>
  </g>
</svg>