<svg xmlns="http://www.w3.org/2000/svg" viewBox="0 0 400 245" width="400" height="245"><path fill="none" pointer-events="none" d="M0 0h400v245H0z"/><g transform="matrix(1.22945 0 0 1.22945 0 86.465)"><title>snaproute_logo_high_res</title><path class="cls-1" d="M34.58 51.82a2.3 2.3 0 0 1 1-1.79l28.34-17c.56-.34 1-.08 1 .57v5.87a2.3 2.3 0 0 1-1 1.79L35.58 58.47c-.55.34-1 .09-1-.56zM30.36 51.82a2.3 2.3 0 0 0-1-1.79l-28.34-17c-.55-.34-1-.08-1 .57v5.87a2.33 2.33 0 0 0 1 1.79l28.34 17.21c.55.34 1 .09 1-.56z" fill="#1893d2"/><path class="cls-2" d="M94.3 18.84l-4.36 4.37q-2.67-2.64-4.83-2.64a3 3 0 0 0-1.86.5 1.53 1.53 0 0 0-.68 1.26 1.5 1.5 0 0 0 .43 1 7.83 7.83 0 0 0 2.11 1.31l2.58 1.29a15.2 15.2 0 0 1 5.61 4.11 8.57 8.57 0 0 1-1.23 11.16 10.53 10.53 0 0 1-7.38 2.51 11.72 11.72 0 0 1-9.82-4.81l4.34-4.73a9.94 9.94 0 0 0 2.91 2.34 6.37 6.37 0 0 0 3 .89 3.52 3.52 0 0 0 2.25-.67 1.92 1.92 0 0 0 .85-1.55q0-1.62-3.07-3.18l-2.38-1.19q-6.83-3.44-6.82-8.6a7.46 7.46 0 0 1 2.57-5.7 9.34 9.34 0 0 1 6.53-2.35 11.38 11.38 0 0 1 9.25 4.65M98.81 14.91h7v2.88a16.92 16.92 0 0 1 4.35-2.81 10.47 10.47 0 0 1 4-.79 9.63 9.63 0 0 1 7.12 2.97c1.64 1.65 2.45 4.1 2.45 7.33v18.53h-7V30.71a31.2 31.2 0 0 0-.45-6.68 4.6 4.6 0 0 0-1.58-2.52 4.42 4.42 0 0 0-2.77-.86 5.21 5.21 0 0 0-3.67 1.43 7.74 7.74 0 0 0-2.13 4 32.57 32.57 0 0 0-.31 5.7v11.24h-7.01zM147.81 34.98a7.28 7.28 0 0 1-5.51 2.31 7.14 7.14 0 0 1-5.43-2.35 8.47 8.47 0 0 1-2.2-6 8.3 8.3 0 0 1 2.17-5.93 7.12 7.12 0 0 1 5.43-2.31 7.39 7.39 0 0 1 5.54 2.27 8.22 8.22 0 0 1 2.19 5.94 8.49 8.49 0 0 1-2.19 6.07m1.88-20.07v3.1a13.15 13.15 0 0 0-4.07-2.85 12 12 0 0 0-4.75-.95 12.23 12.23 0 0 0-9.34 4.16 15.11 15.11 0 0 0-3.85 10.67 14.71 14.71 0 0 0 4 10.5 12.51 12.51 0 0 0 9.42 4.23 11.58 11.58 0 0 0 4.51-.87 14 14 0 0 0 4.14-2.83v3h7.06V14.91zM182.19 34.94a7.15 7.15 0 0 1-5.44 2.35 7.32 7.32 0 0 1-5.53-2.31 8.49 8.49 0 0 1-2.19-6.07 8.22 8.22 0 0 1 2.19-5.94 7.4 7.4 0 0 1 5.53-2.27 7.2 7.2 0 0 1 5.48 2.31 8.3 8.3 0 0 1 2.17 5.93 8.43 8.43 0 0 1-2.21 6m5.39-16.59a12.25 12.25 0 0 0-9.35-4.19 12 12 0 0 0-4.76.95 13.34 13.34 0 0 0-4.13 2.87v-3.1h-7v38.4h7V40.05a13.67 13.67 0 0 0 4.16 2.83 11.63 11.63 0 0 0 4.52.87 12.53 12.53 0 0 0 9.43-4.23 14.71 14.71 0 0 0 4-10.5 15.07 15.07 0 0 0-3.85-10.67" fill="#3d3f3f"/><path class="cls-1" d="M197.11 14.91h6v3.54a7.5 7.5 0 0 1 2.7-3.18 6.29 6.29 0 0 1 3.52-1.11 6.64 6.64 0 0 1 2.87.72l-2.19 6.07a4.92 4.92 0 0 0-2-.62 3.25 3.25 0 0 0-2.75 2q-1.12 2-1.12 7.91V43.02h-7zM232.92 34.88a7.31 7.31 0 0 1-5.52 2.28 7.22 7.22 0 0 1-5.47-2.28 8.27 8.27 0 0 1-2.12-5.91 8.1 8.1 0 0 1 2.15-5.81 7.22 7.22 0 0 1 5.47-2.29 7.31 7.31 0 0 1 5.53 2.26 8.17 8.17 0 0 1 2.16 5.88 8.17 8.17 0 0 1-2.2 5.91m7.34-13.3a14.26 14.26 0 0 0-5.45-5.46 14.83 14.83 0 0 0-7.48-2 14.73 14.73 0 0 0-14.57 14.81 14.29 14.29 0 0 0 4.28 10.45 14 14 0 0 0 10.32 4.3 14.87 14.87 0 0 0 7.52-2 14.31 14.31 0 0 0 5.39-5.42 14.8 14.8 0 0 0 2-7.44 14.5 14.5 0 0 0-2-7.36M246.38 14.91h7.13v13.54a18.39 18.39 0 0 0 .55 5.49 4.68 4.68 0 0 0 1.75 2.39 5 5 0 0 0 3 .86 5.21 5.21 0 0 0 3-.84 5 5 0 0 0 1.82-2.47 18.69 18.69 0 0 0 .44-5.2V14.91h7.06v11.91q0 7.37-1.17 10.08a11 11 0 0 1-4.18 5.08 12.84 12.84 0 0 1-7 1.77 12.48 12.48 0 0 1-7.49-2.07 10.91 10.91 0 0 1-4-5.76q-.82-2.57-.83-9.31zM280.43 4.55h7.06v10.36h6.95v6.07h-6.95v22.05h-7.06V20.98h-4.83v-6.07h4.83V4.55zM318.27 25.45a7.12 7.12 0 0 0-2.76-3.82 8 8 0 0 0-4.78-1.47 8.44 8.44 0 0 0-5.17 1.65 9.19 9.19 0 0 0-2.59 3.64zm7.05 5.56h-22.66a7.52 7.52 0 0 0 2.62 4.77 8.24 8.24 0 0 0 5.44 1.77 9.39 9.39 0 0 0 6.8-2.77l5.94 2.79a13.91 13.91 0 0 1-5.33 4.67 16.72 16.72 0 0 1-7.32 1.51 14.54 14.54 0 0 1-10.77-4.17 14.21 14.21 0 0 1-4.23-10.42 14.68 14.68 0 0 1 4.15-10.68 13.93 13.93 0 0 1 10.42-4.32 14.45 14.45 0 0 1 10.81 4.25c2.77 2.83 4.16 6.58 4.16 11.22zM32.92 7.44c-6.42 0-10.55 2.86-10.55 5.57 0 3.25 4.52 6 10.55 6s10.55-2.71 10.55-6c0-2.71-4.14-5.52-10.55-5.57z" fill="#1893d2"/><path class="cls-1" d="M63.61 13.62L33.87.16a3 3 0 0 0-2.15 0L2.23 14c-.59.27-.62.77-.06 1.11l29.29 17.75a2.13 2.13 0 0 0 2 0l30.21-18.14c.56-.34.53-.83-.06-1.1zm-18.44 2.79c0 4-5.39 7.2-12.25 7.2s-12.25-3.16-12.25-7.2v-3.85a2.62 2.62 0 0 1 .07-.53c.79-3.57 5.87-6.24 12.18-6.24s11.39 2.67 12.17 6.24a2 2 0 0 1 .08.53zM63.93 19.48l-28.34 17a2.3 2.3 0 0 0-1 1.79v6.08c0 .65.45.91 1 .57l28.34-17.21a2.3 2.3 0 0 0 1-1.79v-5.87c.01-.65-.44-.89-1-.57zM29.35 36.53l-28.34-17c-.55-.34-1-.08-1 .57v5.87a2.33 2.33 0 0 0 1 1.79l28.35 17.21c.55.34 1 .08 1-.57v-6.08a2.3 2.3 0 0 0-1.01-1.79z" fill="#1893d2"/></g></svg>
