<?xml version="1.0" encoding="utf-8"?>
<!-- Generator: Adobe Illustrator 23.0.2, SVG Export Plug-In . SVG Version: 6.00 Build 0)  -->
<svg version="1.1" id="Layer_1" xmlns="http://www.w3.org/2000/svg" xmlns:xlink="http://www.w3.org/1999/xlink" x="0px" y="0px"
	 viewBox="0 0 400 245" style="enable-background:new 0 0 400 245;" xml:space="preserve">
<style type="text/css">
	.st0{fill:#4094D0;}
	.st1{fill:#EE4636;}
	.st2{fill:#FFC10E;}
	.st3{fill:#2FB355;}
	.st4{fill:none;}
	.st5{fill-rule:evenodd;clip-rule:evenodd;}
	.st6{fill-rule:evenodd;clip-rule:evenodd;fill:#E82D3C;}
	.st7{fill:#4F81C2;}
	.st8{fill:#F25022;}
	.st9{fill:#80BA01;}
	.st10{fill:#777777;}
	.st11{fill:#02A4EF;}
	.st12{fill:#FFB902;}
	.st13{fill:#263C8D;}
	.st14{fill:#1853A3;}
	.st15{fill:#54565A;}
	.st16{fill:#808080;}
	.st17{fill:#0085C3;}
	.st18{fill:#4666A9;}
	.st19{fill:#006BB6;}
	.st20{fill-rule:evenodd;clip-rule:evenodd;fill:#2C348A;}
	.st21{fill:#F58220;}
	.st22{fill:#0058A9;}
	.st23{fill-rule:evenodd;clip-rule:evenodd;fill:#EC1C24;}
	.st24{fill:#ED1A3B;}
</style>
<g>
	<path class="st21" d="M61.15,116.35l-4.21,23.31c-0.65,4.2-3.4,5.33-5.83,5.33H32.82l7.61-42.73c-7.77-3.56-15.54-5.82-21.86-5.82
		c-5.98,0-10.85,1.61-14.08,5.5c-2.27,2.76-3.4,6.16-3.4,10.2c0,12.14,9.55,28.99,25.9,42.74c14.57,12.15,30.6,18.94,42.26,18.94
		c5.83,0,10.51-1.78,13.6-5.34c2.42-2.75,3.4-6.32,3.4-10.37C86.24,146.29,76.69,129.79,61.15,116.35"/>
	<path class="st22" d="M213.55,130.44c0-8.42-28.98-2.43-28.98-19.76c0-15.87,17.16-20.07,28.33-20.07
		c11.34,0,24.94,2.59,23.63,16.67H217.6c0.15-2.1-0.49-5.18-6.48-5.18c-3.24,0-5.67,1.45-5.67,3.55c0,7.62,29.95,3.24,29.95,19.91
		c0,13.6-12.47,21.06-31.26,21.06c-12.95,0-25.73-3.72-24.44-17.98h20.07c-0.32,2.27,0.17,6.49,6.8,6.49
		C210.15,135.13,213.55,133.5,213.55,130.44 M312.79,102.91l1.79-10.84H295.8L286.24,145h15.86c2.44,0,5.02-1.14,5.83-5.33
		l2.43-12.8c2.27-11.65,7.13-15.53,15.22-15.53c1.78,0,3.71,0.31,5.02,0.64l3.72-21.05c-0.81-0.16-2.11-0.32-3.24-0.32
		c-7.61,0-13.28,3.89-17.96,12.3H312.79z M268.1,123.48l2.91-16.19h10.53l2.75-15.22h-10.53l2.91-16.35h-15.22
		c-2.42,0-5.17,1.13-5.82,5.35l-1.94,11.01h-7.94l-2.75,15.22h7.94l-3.4,19.11c-0.65,3.88-1.14,6.95-1.14,9.54
		c0,8.58,7.12,10.69,28.32,9.24l2.6-15.06h-3.89C267.63,130.11,267.3,128.33,268.1,123.48 M181.17,72.15h-15.87
		c-2.42,0-5.17,1.14-5.83,5.35L147.35,145h15.86c2.43,0,5.18-1.14,5.83-5.34L181.17,72.15z M28.12,71.18
		c-2.91,0-5.35,1.95-5.99,5.02l-2.58,14.08h23.11L32.74,145h18.38c2.45,0,5.22-1.14,6.04-5.34l8.4-49.38h16.63
		c2.93,0,5.35-1.94,5.99-5.02l2.6-14.09H28.12z M104.92,112.62h19.11c0.97-4.86-2.75-9.24-7.61-9.24
		C110.11,103.39,105.9,106.8,104.92,112.62 M102.98,123.48c-0.97,6.14,3.24,10.36,8.75,10.36c3.4,0,6.64-1.45,8.58-4.69h20.24
		c-5.83,13.11-19.6,17.49-32.06,17.49c-15.05,0-26.22-7.61-26.22-22.51c0-21.21,18.13-33.5,35.46-33.5
		c16.99,0,26.38,10.03,26.38,25.09c0,2.44-0.32,5.02-0.81,7.77H102.98z M373.98,114.72c0-4.37-2.26-7.93-7.29-7.93
		c-6.95,0-11.49,7.28-11.49,16.83c0,4.38,1.46,7.94,6.48,7.94C369.29,131.56,373.98,124.28,373.98,114.72 M398.91,92.06L389.52,145
		h-18.93l1.29-6.96h-0.32c-5.5,6.15-11.49,8.58-17.97,8.58c-12.95,0-19.58-8.75-19.58-21.06c0-18.44,12.3-34.96,28.33-34.96
		c6.63,0,11.49,2.1,14.25,7.29h0.31c0.65-4.38,3.4-5.84,6.16-5.84H398.91z"/>
</g>
</svg>
