<?xml version="1.0" encoding="UTF-8"?> <!-- Generator: Adobe Illustrator 24.0.1, SVG Export Plug-In . SVG Version: 6.00 Build 0) --> <svg xmlns="http://www.w3.org/2000/svg" xmlns:xlink="http://www.w3.org/1999/xlink" id="Layer_1" x="0px" y="0px" viewBox="0 0 2073.5 983.2" style="enable-background:new 0 0 2073.5 983.2;" xml:space="preserve"> <style type="text/css"> .st0{fill:#231F20;} .st1{fill:#FFFFFF;} .st2{fill:#12143E;} .st3{fill:url(#SVGID_1_);} .st4{fill:url(#SVGID_2_);} .st5{fill:url(#SVGID_3_);} .st6{fill:url(#SVGID_4_);} .st7{fill:url(#SVGID_5_);} .st8{fill:url(#SVGID_6_);} .st9{fill:url(#SVGID_7_);} .st10{fill:url(#SVGID_8_);} .st11{fill:url(#SVGID_9_);} .st12{fill:url(#SVGID_10_);} .st13{fill:url(#SVGID_11_);} .st14{fill:url(#SVGID_12_);} .st15{fill:url(#SVGID_13_);} .st16{fill:url(#SVGID_14_);} .st17{fill:url(#SVGID_15_);} .st18{fill:url(#SVGID_16_);} .st19{fill:url(#SVGID_17_);} .st20{fill:url(#SVGID_18_);} </style> <g> <g> <linearGradient id="SVGID_1_" gradientUnits="userSpaceOnUse" x1="402.2211" y1="771.7328" x2="1774.4608" y2="974.4501" gradientTransform="matrix(1 0 -0.2679 1 -283.3191 0)"> <stop offset="0" style="stop-color:#EB7125"></stop> <stop offset="1" style="stop-color:#E0282A"></stop> </linearGradient> <path class="st3" d="M41.3,861.6c3.3,1.9,8,1.3,14-2c1.4-0.7,2.3-0.5,2.9,0.7l9.8,20.5c0.7,1.3,0.3,2.4-1.4,3.2 c-10.1,5.9-19.8,8.8-29.1,8.8c-6.4,0-12-1.4-17-4.3c-6.3-3.6-10.6-9.1-12.8-16.5c-2.1-7.4-1.9-15.8,0.6-25.1l23-85.7H6.6 c-1.6,0-2.1-0.8-1.7-2.3l6.8-25.5c0.4-1.6,1.4-2.3,3-2.3h24.6l8.9-33.9c0.4-1.6,1.4-2.3,3-2.3h25.7c1.5,0,2.1,0.8,1.7,2.3 l-9.1,33.9h24.6c1.5,0,2.1,0.8,1.7,2.3L89,758.9c-0.4,1.6-1.4,2.3-3,2.3H61.4l-23,85.7C36.4,854.5,37.4,859.4,41.3,861.6z"></path> <linearGradient id="SVGID_2_" gradientUnits="userSpaceOnUse" x1="403.0867" y1="765.8734" x2="1775.3264" y2="968.5906" gradientTransform="matrix(1 0 -0.2679 1 -283.3191 0)"> <stop offset="0" style="stop-color:#EB7125"></stop> <stop offset="1" style="stop-color:#E0282A"></stop> </linearGradient> <path class="st4" d="M165.2,864.7h0.9h0.9c9.9-0.4,19.2-4.1,27.8-11.1c3.3-2.6,6.3-5.7,8.9-9.2c1.9-2.5,3.6-5.2,5-8.1 c0.6-1.3,1.1-2.4,1.4-3.2l0.7-2l0.9-2.7l26-96.5c0.4-1.6,1.4-2.3,3-2.3h26c1.5,0,2.1,0.8,1.7,2.3l-42.2,157.3 c-0.4,1.6-1.4,2.3-3,2.3h-26c-1.6,0-2.1-0.8-1.7-2.3l2.3-8.6c-3.6,2.2-7,4-10.2,5.4c-9,4-17.9,6.3-26.7,6.6 c-3.7,0.2-9.4,0-13.5-0.5c-4.5-0.7-8.7-2.1-12.6-3.8c-8.1-3.5-14.5-8.9-19.2-16.2c-4.8-7.3-7.3-15.6-7.7-24.8 c-0.1-4.5,0.3-9.2,1.2-14c0.4-2,0.9-4.2,1.4-6.5l0.7-2.7l0.7-2.5c1.4-5.3,3.2-12,5.4-20.3l1.3-4.8l1.1-4.7 c0.9-3.4,1.7-6.2,2.3-8.6c3.9-15.1,7.2-27.6,9.9-37.5l3.4-12.8c0.4-1.7,1.4-2.5,3-2.5H164c1.5,0,2.1,0.8,1.7,2.5l-3.6,12.8 c-2.7,9.9-6.1,22.5-10.2,37.5c-1.1,4.2-2.7,10.2-4.9,18.1l-1.5,4.8l-1.3,5c-1,3.8-2,7.3-2.8,10.4l-0.7,2.7l-0.7,2.5 c-0.5,2-1.8,6.1-1.8,12c0.1,5.2,1.3,9.8,3.8,13.8c2.6,4.1,6.1,7.1,10.5,9.2c2.3,1,4.6,1.7,7,2.2l1,0.2c0,0,0.7,0.1,1.5,0.2 C163.4,864.8,165.2,864.7,165.2,864.7z"></path> <linearGradient id="SVGID_3_" gradientUnits="userSpaceOnUse" x1="405.2401" y1="751.2966" x2="1777.4799" y2="954.0139" gradientTransform="matrix(1 0 -0.2679 1 -283.3191 0)"> <stop offset="0" style="stop-color:#EB7125"></stop> <stop offset="1" style="stop-color:#E0282A"></stop> </linearGradient> <path class="st5" d="M616.6,733.4c0.4-1.6,1.4-2.3,3-2.3h25.7c1.5,0,2.1,0.8,1.7,2.3l-42.2,157.3c-6,22.3-19,41.3-39,57.1 c-20,15.8-41.2,23.7-63.5,23.7c-14,0-26.3-3.4-36.8-10.2c-10.4-6.9-17.6-16.3-21.7-28.2c-0.5-1.3,0-2.4,1.6-3.2l25.7-12.8 c1.5-0.8,2.6-0.6,3,0.7c3.4,9.5,9.9,16.2,19.2,20.1c9.7,4.1,20.5,4.4,32.4,1.1c11.5-3.2,21.9-9.5,31.1-18.9 c8.9-9.2,14.9-19.5,18-30.9l3.9-14.7c-18.3,12.3-37.1,18.5-56.3,18.5c-11.4,0-21.7-2.3-30.9-6.8c-8.8-4.4-15.8-10.7-21.2-18.7 c-11.5-17-13.3-37.2-5.5-60.7c6.8-20.5,19.6-38,38.5-52.6c19-14.5,38.8-22.1,59.6-22.8c20.5-0.7,36.9,5.5,49.1,18.5L616.6,733.4z M530.6,862.7c13.9,0,27.1-4.9,39.7-14.7c12.5-9.9,20.6-21.9,24.3-35.7c3.7-13.9,2-25.8-5.2-35.7c-7.3-9.8-17.9-14.7-31.8-14.7 c-14,0-27.2,4.9-39.7,14.7c-12.6,9.9-20.8,21.9-24.5,35.7c-3.7,13.9-2,25.8,5.3,35.7C505.9,857.8,516.5,862.7,530.6,862.7z"></path> <linearGradient id="SVGID_4_" gradientUnits="userSpaceOnUse" x1="413.7241" y1="693.8666" x2="1785.9639" y2="896.5838" gradientTransform="matrix(1 0 -0.2679 1 -283.3191 0)"> <stop offset="0" style="stop-color:#EB7125"></stop> <stop offset="1" style="stop-color:#E0282A"></stop> </linearGradient> <path class="st6" d="M759.9,847.9c-0.6,2.3-2.1,6.1-3,8.2c-3,6.7-7.4,12.7-12.9,18c-5.2,5-11,9-17.5,11.9 c-5,2.3-10.6,4.1-16.5,5.4c-5.4,1-10.1,1.5-14.1,1.6c0,0-8.7,0-12.1-0.5c-3.4-0.6-7.1-1.3-10.9-2.3c-5.6-1.6-10.6-3.9-15.2-7 c-2.3-1.6-4.5-3.2-6.4-5c-1.4-1.2-2.5-2.5-3.5-3.8c-0.9-1.1-0.6-2.2,0.9-3.4l23.4-17.8c1.2-0.8,2.2-0.9,3.1-0.2 c0.7,0.8,1.4,1.6,2.1,2.2c0.9,0.7,1.6,1.3,2.2,1.8c2.8,2.4,14.2,9.3,32,5.4c3.2-0.7,5.9-1.6,8-2.5c4.5-2.2,7.8-5.3,9.9-9.5 c0,0,4.2-7.6,1.2-12.9c-2.1-3.7-7.4-8.2-15.3-12.4l-5.8-3.1l-2.8-1.4l-1.1-0.5l-1.4-0.7c-5-2.6-9.1-5-12.1-7.2 c-4.9-3.5-8.7-7.2-11.3-11.3c-0.4-0.5-0.7-1.1-1.1-2l-0.9-2.2c-0.8-1.7-1.2-3.2-1.5-4.5l-0.6-2.5c-0.1-1-0.2-1.8-0.2-2.5l0-2.7 l0-1.4c0,0,0.3-3.5,0.5-4.5l0.5-2.5l0.1-0.4l0.3-1.3c0,0,1.7-5.2,2.4-7c0.4-1.1,1.2-2.6,2.3-4.7c3.6-6.7,8.3-12.3,14.2-16.9 c5.1-4.2,10.8-7.4,17.3-9.7c4.6-1.6,9.7-2.9,15.1-3.4c3.3-0.3,5.5-0.3,6.6-0.4c0.8,0,5.4,0,6.1,0c3.3,0.2,7,0.6,10.9,1.4 c5.7,1.4,11,3.7,15.8,6.6c1.9,1.1,3.5,2.3,5,3.6c1.3,1,4.2,4,4.8,4.8c1,1.1,0.8,2.2-0.7,3.4l-20.8,16c-1.2,1-2.2,1-3.1,0.2 c-0.8-0.7-1.5-1.4-2.2-2c-1-0.7-1.8-1.3-2.4-1.8c-2.9-1.7-6-2.9-9.4-3.8c-2.6-0.5-4.8-0.7-6.6-0.7h-4c-0.8,0-2.9,0.1-3.8,0.2 c-3.1,0.3-5.9,1.1-8,1.8c-2.3,1-4.2,2-5.7,3.2c-1.5,1.2-2.8,2.8-3.8,4.7l-0.4,0.7l-0.4,0.9l-0.7,1.8l-0.2,0.9l-0.2,0.9l-0.3,1.6 l0,1.3l0.3,1.1l0.4,1.3l0.3,0.7l0.3,0.7c1.2,1.8,3.2,3.7,5.9,5.6c2.3,1.6,21.4,11.3,21.4,11.3c5,2.5,9,5,12.2,7.5 c4.9,3.6,8.6,7.5,11,11.9c3.3,5.5,5.1,11.7,4.3,18.7C761.8,839.5,760.9,844,759.9,847.9z"></path> <linearGradient id="SVGID_5_" gradientUnits="userSpaceOnUse" x1="419.3011" y1="656.1143" x2="1791.5409" y2="858.8315" gradientTransform="matrix(1 0 -0.2679 1 -283.3191 0)"> <stop offset="0" style="stop-color:#EB7125"></stop> <stop offset="1" style="stop-color:#E0282A"></stop> </linearGradient> <path class="st7" d="M841.1,861.6c3.3,1.9,8,1.3,14-2c1.4-0.7,2.3-0.5,2.9,0.7l9.8,20.5c0.7,1.3,0.3,2.4-1.4,3.2 c-10.1,5.9-19.8,8.8-29.1,8.8c-6.4,0-12-1.4-17-4.3c-6.3-3.6-10.6-9.1-12.8-16.5c-2.1-7.4-1.9-15.8,0.6-25.1l23-85.7h-24.6 c-1.6,0-2.1-0.8-1.7-2.3l6.8-25.5c0.4-1.6,1.4-2.3,3-2.3H839l8.9-33.9c0.4-1.6,1.4-2.3,3-2.3h25.7c1.5,0,2.1,0.8,1.7,2.3 l-9.1,33.9h24.6c1.5,0,2.1,0.8,1.7,2.3l-6.8,25.5c-0.4,1.6-1.4,2.3-3,2.3h-24.6l-23,85.7C836.2,854.5,837.1,859.4,841.1,861.6z"></path> <linearGradient id="SVGID_6_" gradientUnits="userSpaceOnUse" x1="419.5025" y1="654.7511" x2="1791.7422" y2="857.4683" gradientTransform="matrix(1 0 -0.2679 1 -283.3191 0)"> <stop offset="0" style="stop-color:#EB7125"></stop> <stop offset="1" style="stop-color:#E0282A"></stop> </linearGradient> <path class="st8" d="M1005.6,731.6c21.4,0.1,37.5,8,48.4,23.7c10.9,15.6,13.5,34.1,7.7,55.7l-2.7,10.2c-0.4,1.4-1.3,2.2-2.8,2.3 l-121.3,10.2c1.8,8.6,6,15.6,12.7,20.8c6.9,5.3,15.2,7.9,25,7.9c8.6,0,17.2-2,25.9-6.1c8.8-4.2,16.4-9.9,22.9-17.1 c1.2-1.3,2.3-1.6,3.5-0.9l18.6,12.9c1.2,0.7,1.2,1.8,0,3.2c-10.5,11.9-22.8,21.2-37,28c-14,6.8-28.1,10.2-42.1,10.2 c-22.2,0-39-7.9-50.6-23.7c-11.6-15.7-14.4-34.7-8.5-56.9c6.1-22.7,18.8-41.9,38.2-57.5C963.1,739.2,983.7,731.5,1005.6,731.6z M1033.8,795.7c0.1-10.3-3.1-18.5-9.8-24.6c-6.6-6.2-15.6-9.3-27.1-9.3c-12.1,0-23.6,4-34.4,11.9c-10.8,7.8-18.8,17.8-23.9,30.2 L1033.8,795.7z"></path> <g> <path class="st2" d="M1357.9,753.3c-1.7,0-2.3-0.8-1.8-2.5l3.2-11.9c0.4-1.7,1.5-2.5,3.2-2.5h60.5c1.7,0,2.3,0.8,1.8,2.5 l-3.2,11.9c-0.4,1.7-1.5,2.5-3.2,2.5H1357.9z M1339,892.9c-1.6,0-2.1-0.8-1.7-2.5l55.8-208.4c2.4-9.1,6.5-17.1,12.2-24.1 c5.7-7.1,12.5-12.3,20.4-15.8c7.3-3.2,14.6-4.4,21.8-3.6c7.2,0.7,13.6,3.4,19.2,8.1c1.2,1,1,2.2-0.4,3.6l-9.7,9.5 c-1.3,1.3-2.5,1.5-3.6,0.5c-7.2-5.7-15.1-6.8-23.8-3.1c-9.5,4.3-15.9,12.6-19.2,24.8l-55.8,208.4c-0.4,1.7-1.5,2.5-3.2,2.5H1339z "></path> <path class="st2" d="M1510.3,892.9c-1.4,0-2.1-0.7-1.9-2.2c1.2-8.6,2.6-16.7,4-24.2c-4.6,4.7-9.5,8.7-14.5,12 c-8.6,5.9-18.1,10-28.5,12.4c-9.9,2.2-19.9,2.4-29.8,0.7c-5.6-1.1-10.3-2.8-14.1-5.2c-4.5-2.9-7.9-6.6-10.1-11.3 c-3.7-8.3-3.4-18.7,0.7-31.4c2-5.9,5-11.2,8.8-16c3.7-4.8,8.3-9,13.8-12.6c7.9-5.3,17.4-9.2,28.5-11.9c7.3-1.7,15.4-2.8,24.3-3.4 c6.4-0.4,12.9-0.4,19.4-0.2c2.6,0,5.3,0.1,8,0.4c1.8,0,4,0.1,6.7,0.4l2.6,0.2c4.7-18.3,4.6-30.9-0.3-37.7 c-4.4-6.1-13.2-9.2-26.5-9.2c-9.8,0-19.3,1.7-28.3,5.2c-3.4,1.3-6.6,2.8-9.6,4.5c-1.1,0.6-2.3,1.3-3.4,2 c-0.9,0.6-1.7,1.1-2.4,1.6c-1.3,1-2.4,1-3.2,0l-6.8-8.1c-1-1.3-0.6-2.6,1-3.8c1-0.7,2.1-1.4,3.3-2.2c1.4-1,3-1.9,4.5-2.9 c4-2.3,8.1-4.3,12.4-6.1c12.1-4.9,24.5-7.4,37.2-7.4c18.1,0,30.5,4.8,37.3,14.4c5.1,7.3,6.9,17.4,5.5,30.4 c-0.5,5-1.6,10.8-3.2,17.4l-2.4,9l-2.3,8.6c-1.2,4.1-2.2,7.7-3.1,10.8c-2.5,9.5-5,20.6-7.3,33.4c-1.8,9.3-3.4,19.2-4.8,29.5 c-0.3,1.9-1.4,2.9-3.3,2.9H1510.3z M1507.4,851.6c3.7-4.5,7.2-9.8,10.3-15.6l1.8-3.4l1.3-5.4l1.6-5.2l1.4-5.2 c-1.3-0.1-2.5-0.2-3.7-0.4c-4.9-0.5-9.5-0.8-13.8-0.9c-6.2-0.1-12.3,0-18.2,0.4c-7.8,0.5-14.9,1.4-21.2,2.9 c-8.7,2-15.8,4.9-21.3,8.6c-6.6,4.4-11,10.2-13.3,17.4c-2.6,8.6-2.6,15.4-0.3,20.5c2.2,5,7.3,8.3,15.1,9.9 c7.8,1.4,15.4,1.4,22.9-0.2c7.6-1.7,14.8-4.6,21.4-8.8C1497.1,862.4,1502.4,857.6,1507.4,851.6z"></path> <path class="st2" d="M1692,737.3c17.5,1.8,31,9.2,40.6,22.1c9.6,12.9,13,28.4,10.2,46.3c-1.8,11.5-5.9,22.7-12.4,33.6 c-6.1,10.3-14,19.5-23.6,27.7c-9.5,8.1-19.7,14.4-30.7,18.9c-11.4,4.7-22.8,7-34.2,7c-12.1,0-22.8-2.7-32.1-8.1 c-9.2-5.1-16.2-12.3-21-21.6l-7.3,27.1c-0.4,1.7-1.5,2.5-3.2,2.5h-11.9c-1.7,0-2.3-0.8-1.8-2.5l67.6-252.4 c0.4-1.7,1.5-2.5,3.2-2.5h11.9c1.7,0,2.3,0.8,1.8,2.5l-34.4,128.4c10.9-10.3,23-18,36.4-23.2 C1664.9,737.9,1678.6,735.9,1692,737.3z M1646.4,876c16.9,0,32.9-6,48.1-18c15.2-12,25-26.3,29.5-43.1 c4.5-16.9,2.4-31.3-6.4-43.3c-8.8-12-21.6-18-38.5-18c-16.8,0-32.7,6-47.9,18c-15.2,12-25,26.4-29.6,43.3 c-4.5,16.8-2.4,31.1,6.4,43.1C1616.8,870,1629.6,876,1646.4,876z"></path> <path class="st2" d="M1871.9,738.2c1.6,0.4,2,1.4,1.2,3.1l-5.5,11.7c-0.8,1.6-1.9,2.2-3.4,2c-2.1-0.4-4.2-0.5-6.5-0.5 c-12.3,0-24.1,4.4-35.1,13.1c-11.1,8.7-18.3,19.3-21.6,31.6l-24.4,91.2c-0.4,1.7-1.5,2.5-3,2.5h-12c-1.7,0-2.3-0.8-1.8-2.5 l40.6-151.4c0.4-1.7,1.5-2.5,3.2-2.5h12c1.5,0,2.1,0.8,1.7,2.5l-4.8,18c15.7-12.9,32.3-19.4,49.9-19.4 C1865.5,737.5,1868.8,737.8,1871.9,738.2z"></path> <path class="st2" d="M1930.8,695.9c-3,2.4-6.2,3.6-9.6,3.6c-3.5,0-6-1.2-7.7-3.6c-1.8-2.4-2.2-5.3-1.3-8.6 c0.9-3.4,2.9-6.2,5.9-8.6c2.9-2.4,6.1-3.6,9.6-3.6c3.3,0,5.9,1.2,7.7,3.6c1.7,2.4,2.2,5.3,1.3,8.6 C1935.8,690.6,1933.8,693.5,1930.8,695.9z M1863.3,892.9c-1.6,0-2.1-0.8-1.7-2.5l40.4-150.7c0.4-1.7,1.4-2.5,3-2.5h12 c1.7,0,2.3,0.8,1.8,2.5l-40.4,150.7c-0.4,1.7-1.5,2.5-3.2,2.5H1863.3z"></path> <path class="st2" d="M1936.6,867.4c-11.1-17-12.5-37.1-4.2-60.2c6.5-18.1,18-33.8,34.3-47.1c16.3-13.2,33.8-20.9,52.4-23.2 c19.3-2.4,35.6,1.4,48.7,11.3c1.2,1,1.1,2.2-0.2,3.6l-9.5,9.9c-1.2,1.3-2.4,1.6-3.6,0.7c-8.5-6.3-18.9-9.4-31.1-9.2 c-16.1,0.4-31.6,6.3-46.3,17.8c-14.7,11.5-24.5,25.3-29.4,41.3c-5.3,17.4-3.5,32.3,5.3,44.7c8.8,12.5,21.8,18.7,39,18.7 c11.7,0,23.3-3.1,34.8-9.2c1.5-0.8,2.6-0.6,3.2,0.7l4,9.9c0.7,1.4,0.1,2.6-1.7,3.6c-14.8,8-29.8,12-44.9,12 C1964.5,892.9,1947.5,884.4,1936.6,867.4z"></path> </g> <linearGradient id="SVGID_7_" gradientUnits="userSpaceOnUse" x1="405.5046" y1="749.5062" x2="1777.7444" y2="952.2235" gradientTransform="matrix(1 0 -0.2679 1 -283.3191 0)"> <stop offset="0" style="stop-color:#EB7125"></stop> <stop offset="1" style="stop-color:#E0282A"></stop> </linearGradient> <path class="st9" d="M401.8,802.2c-0.8,3.1-1.7,6.5-2.7,10.2l-1.3,5l-1.3,4.8c-2.3,8-3.9,14-5,18c-4.1,14.9-7.5,27.2-10.1,37.2 l-3.6,12.8c-0.4,1.6,0.1,2.3,1.7,2.3h25.9c1.5,0,2.5-0.8,3-2.3l3.2-12.8c2.7-9.9,5.9-22.3,9.8-37.2c1.1-4,2.7-9.9,4.8-18l1.1-4.8 l1.3-5c1-3.7,1.9-7.1,2.7-10.2l1.4-5.2c0.6-2.4,1.1-4.7,1.3-7c0.8-4.7,1-9.2,0.6-13.7c-0.7-9.1-3.5-17.1-8.5-24.1 c-4.7-6.9-11.3-11.9-19.6-15.4c-6.8-2.9-13.6-3.5-14.3-3.6c-0.6-0.1-6.3-0.5-11.6-0.2c-8.9,0.5-17.8,3.1-26.5,7 c-3,1.3-6.1,3-9.4,5l3.3-12.2c0.4-1.6-0.2-2.3-1.7-2.3h-26.2c-1.6,0-2.5,0.8-3,2.3l-42.3,157.7c-0.4,1.6,0.1,2.3,1.7,2.3h26.2 c1.5,0,2.5-0.8,3-2.3l24.4-91.1c0,0,0.6-2.1,0.8-2.7c6.8-20,25.8-36.3,45.9-36.3c16.2,0,26.9,10.6,27.7,25.1c0,0,0,0,0,0 c0,0,0,0,0,0c0.2,3.5-0.3,7.2-1.4,11.1"></path> <linearGradient id="SVGID_8_" gradientUnits="userSpaceOnUse" x1="422.7366" y1="632.8588" x2="1794.9763" y2="835.576" gradientTransform="matrix(1 0 -0.2679 1 -283.3191 0)"> <stop offset="0" style="stop-color:#EB7125"></stop> <stop offset="1" style="stop-color:#E0282A"></stop> </linearGradient> <path class="st10" d="M1208.7,802.2c-0.8,3.1-1.7,6.5-2.7,10.2l-1.3,5l-1.3,4.8c-2.3,8-3.9,14-5,18c-4.1,14.9-7.5,27.2-10.1,37.2 l-3.6,12.8c-0.4,1.6,0.1,2.3,1.7,2.3h25.9c1.5,0,2.5-0.8,3-2.3l3.2-12.8c2.7-9.9,5.9-22.3,9.8-37.2c1.1-4,2.7-9.9,4.8-18l1.1-4.8 l1.3-5c1-3.7,1.9-7.1,2.7-10.2l1.4-5.2c0.6-2.4,1.1-4.7,1.3-7c0.8-4.7,1-9.2,0.6-13.7c-0.7-9.1-3.5-17.1-8.5-24.1 c-4.7-6.9-11.3-11.9-19.6-15.4c-6.8-2.9-13.6-3.5-14.3-3.6c-0.6-0.1-6.3-0.5-11.6-0.2c-8.9,0.5-17.8,3.1-26.5,7 c-3,1.3-6.1,3-9.4,5l3.3-12.2c0.4-1.6-0.2-2.3-1.7-2.3h-26.2c-1.6,0-2.5,0.8-3,2.3l-42.3,157.7c-0.4,1.6,0.1,2.3,1.7,2.3h26.2 c1.5,0,2.5-0.8,3-2.3l24.4-91.1c0,0,0.6-2.1,0.8-2.7c6.8-20,25.8-36.3,45.9-36.3c16.2,0,26.9,10.6,27.7,25.1c0,0,0,0,0,0 c0,0,0,0,0,0c0.2,3.5-0.3,7.2-1.4,11.1"></path> </g> <g> <g> <path class="st2" d="M1232.8,93.8c11.4-5,22.8-3.3,34.1,5.2c2.6,1.9,5.5,1.3,8.5-1.9l54.6-53.9c3.8-3.5,4.1-6.3,0.9-8.5 c-18.3-15.4-39.6-23.2-64.2-23.2c-16.7,0-33.6,3.8-50.8,11.3c-21.8,9.5-40.8,24-57,43.5c-10.1,12.4-18.1,25.8-24.4,40.2 c-3.7,8.4-7,16.9-9.4,26l-14.4,53.9l-46,171.6H962.8l-14.4,53.9c-2.4,9-5.7,17.6-9.4,26h104.3l-24.3,88.9 c-1.1,4.1,0.4,6.1,4.5,6.1h67.6c4.1,0,6.7-2,7.8-6.1l23.9-89.3h64.7c4.1,0,6.7-2.1,7.8-6.2l18-67.1c1.1-4.1-0.4-6.1-4.5-6.1 h-64.7l60.4-225.5C1209.8,112.7,1219.2,99.8,1232.8,93.8z"></path> <linearGradient id="SVGID_9_" gradientUnits="userSpaceOnUse" x1="1337.7261" y1="-22.0642" x2="1349.1906" y2="619.9465" gradientTransform="matrix(1 0 -0.2679 1 -324.1134 0)"> <stop offset="0" style="stop-color:#EB7125"></stop> <stop offset="1" style="stop-color:#E0282A"></stop> </linearGradient> <path class="st11" d="M1030.2,106.6l24.3-88.9c1.1-4.1-0.4-6.1-4.5-6.1h-67.6c-4.1,0-6.7,2-7.8,6.1L950.7,107h-64.7 c-4.1,0-6.7,2.1-7.8,6.2l-18,67.1c-1.1,4.1,0.4,6.1,4.5,6.1h64.7L869,411.9c-5.3,19.8-14.8,32.8-28.3,38.7 c-11.4,5-22.8,3.3-34.1-5.2c-2.6-1.9-5.5-1.3-8.5,1.9l-54.6,53.9c-3.8,3.5-4.1,6.3-0.9,8.5c18.3,15.4,39.6,23.2,64.2,23.2 c16.7,0,33.6-3.8,50.8-11.3c21.8-9.5,40.8-24,57-43.5c10.1-12.4,18.1-25.8,24.4-40.2c3.7-8.4,7-16.9,9.4-26l14.4-53.9l46-171.6 h101.9l14.4-53.9c2.4-9,5.7-17.6,9.4-26H1030.2z"></path> </g> </g> </g> </svg> 