<?xml version="1.0" encoding="utf-8"?>
<!-- Generator: Adobe Illustrator 22.1.0, SVG Export Plug-In . SVG Version: 6.00 Build 0)  -->
<svg version="1.1" id="Layer_1" xmlns="http://www.w3.org/2000/svg" xmlns:xlink="http://www.w3.org/1999/xlink" x="0px" y="0px"
	 viewBox="0 0 230 54" style="enable-background:new 0 0 230 54;" xml:space="preserve">
<style type="text/css">
	.st0{fill:#3B3B3C;}
	.st1{filter:url(#Adobe_OpacityMaskFilter);}
	.st2{fill:#FFFFFF;}
	.st3{mask:url(#mask-2_1_);fill:#3B3B3C;}
	.st4{filter:url(#Adobe_OpacityMaskFilter_1_);}
	.st5{mask:url(#mask-4_1_);fill:#3B3B3C;}
</style>
<title>Group 33</title>
<desc>Created with Sketch.</desc>
<g id="Page-1">
	<g id="Group-33" transform="translate(0.000000, -1.000000)">
		<path id="Fill-1" class="st0" d="M185.7,1.4l11.4,0l0.7,8.7h-0.6c-1.1-4.1-3.4-5.7-6.3-7.1c-1.7-0.8-3.4-1.2-5.2-1.3L185.7,1.4z
			 M182.6,32.9c0,5.1,1.3,6.6,5.5,7.1v0.5l-17.2,0l0-0.5c4.2-0.5,5.6-1.9,5.6-7l0.1-31.5l6.1,0L182.6,32.9z M173.6,1.8
			c-1.8,0.1-3.5,0.4-5.2,1.2c-2.9,1.3-5.2,3-6.3,7l-0.6,0l0.7-8.7l11.4,0L173.6,1.8z"/>
		<path id="Fill-3" class="st0" d="M53.8,22.6l-9.3,0.7l0,0.4l14.7,0c0-4.6-4.1-8.9-9.6-9.1l0,0.5C52.5,15.4,53.6,18.9,53.8,22.6"/>
		<path id="Fill-5" class="st0" d="M51.1,36.7c-6,0-9.2-5.2-9.2-11.3c0-5.3,2.1-9.5,5.5-10.1l0-0.5c-5.3,0.6-10.7,5.8-10.7,13.1
			c0,6.9,4.4,12.8,12.1,12.8c6.5,0,10.1-4.9,11.1-7.5l-0.3-0.2C58.2,34.8,55.6,36.7,51.1,36.7"/>
		<path id="Fill-7" class="st0" d="M70.5,31.3l0-6.9l0-3.8l0-5.9v-0.1l-3.8,0l-5.5,0l0,0.5c3.4,0.4,4,1.5,4,5.5l0,1.8v0l-0.1,25.7
			c0,4-0.6,5.1-4,5.5l0,0.5l13.7,0l0-0.5c-3.2-0.4-4.5-1.6-4.4-5.5l0-8.3c1.2,0.5,3.6,0.8,4.7,0.8c1.3,0,2.5-0.1,3.2-0.3V40
			c-1.9-0.1-4.2-0.3-5.7-1.7C70.8,36.5,70.5,33.8,70.5,31.3"/>
		<path id="Fill-9" class="st0" d="M81,15c-2.7,0-6.3,1.7-8,3.9V19c1.3-0.7,2.8-1,4.4-1c5.9,0,8.3,4.4,8.3,9.8c0,4.6-2,9.3-4.7,11.1
			v0.5c6.1-2.4,9.9-6.5,9.9-13.2C91,20.9,88.4,15,81,15"/>
		<path id="Fill-11" class="st0" d="M206.5,37.1c-6,0-9.2-5.2-9.2-11.3c0-5.3,2.1-9.5,5.5-10.1l0-0.5c-5.3,0.6-10.7,5.8-10.7,13.1
			c0,6.9,4.4,12.8,12.1,12.8c6.5,0,10.1-4.9,11.1-7.5l-0.3-0.2C213.6,35.2,211,37.1,206.5,37.1"/>
		<path id="Fill-13" class="st0" d="M209.2,23l-9.3,0.7v0.4l14.7,0c0-4.6-4.1-8.9-9.6-9.1l0,0.5C207.9,15.8,209,19.3,209.2,23"/>
		<g id="Group-17" transform="translate(93.000000, 0.476300)">
			<g id="Clip-16">
			</g>
			<defs>
				<filter id="Adobe_OpacityMaskFilter" filterUnits="userSpaceOnUse" x="0.5" y="0.5" width="13.3" height="39.3">
					<feColorMatrix  type="matrix" values="1 0 0 0 0  0 1 0 0 0  0 0 1 0 0  0 0 0 1 0"/>
				</filter>
			</defs>
			<mask maskUnits="userSpaceOnUse" x="0.5" y="0.5" width="13.3" height="39.3" id="mask-2_1_">
				<g class="st1">
					<polygon id="path-1_1_" class="st2" points="0.5,0.5 13.7,0.5 13.7,39.9 0.5,39.9 					"/>
				</g>
			</mask>
			<path id="Fill-15" class="st3" d="M9.7,33.9L9.8,5.6l0.1-5l-9.3,0l0,0.5c3.4,0.4,4,1.5,4,5.5L4.4,33.9c0,4-0.6,5.1-4,5.5l0,0.5
				l13.3,0v-0.5C10.5,39,9.7,37.8,9.7,33.9"/>
		</g>
		<path id="Fill-18" class="st0" d="M110.8,39.9l0,0.5l13.3,0l0-0.5c-3.4-0.4-4-1.5-4-5.5l0-12c0-4.5-2.1-7.6-6.9-7.6
			c-2.9,0-5.9,1.8-7.9,4.1v0.1c1.5-0.5,2.8-0.9,4.6-0.9c3.8,0,5,2,5,5.3l0,10.9C114.8,38.3,114,39.5,110.8,39.9"/>
		<path id="Fill-20" class="st0" d="M226,34.7l0.1-28.3l0.1-5l-9.3,0l0,0.5c3.4,0.4,4,1.5,4,5.5l-0.1,27.4c0,4-0.6,5.1-4,5.5l0,0.5
			l13.3,0l0-0.5C226.8,39.8,226,38.6,226,34.7"/>
		<path id="Fill-22" class="st0" d="M155.2,34.5l0.1-19l-5.3,0l-4,0l0,0.5c3.4,0.4,4,1.5,4,5.5l0,1.3l0,1.8l0,10c0,4-0.6,5.1-4,5.5
			l0,0.5l13.9,0l0-0.5C156.7,39.6,155.1,38.7,155.2,34.5"/>
		<path id="Fill-24" class="st0" d="M164.6,15c-2.8,0-5.5,2.5-6.4,5.3l0,0.3c1.3-2.4,3.1-3.1,4.2-3.1c0.2,0,0.9,0.1,1,0.1
			c-0.3,0.3-0.7,1.3-0.7,2.2c0,1.8,1,3,2.9,3c2,0,3.6-1.2,3.6-3.6C169.1,16.6,167.7,15,164.6,15"/>
		<path id="Fill-26" class="st0" d="M133.7,18.3c0-1.3,1-2.1,3.2-2.3l0-0.5l-13.3,0l0,0.5c2.8,0.4,3.7,1.6,5.1,4.7l8.5,20h0.4
			l2.3-6.3l-5.2-12.8C134.3,20.6,133.7,19.2,133.7,18.3"/>
		<g id="Group-30" transform="translate(123.000000, 46.476300)">
			<g id="Clip-29">
			</g>
			<defs>
				<filter id="Adobe_OpacityMaskFilter_1_" filterUnits="userSpaceOnUse" x="0.3" y="0.6" width="10.9" height="7.4">
					<feColorMatrix  type="matrix" values="1 0 0 0 0  0 1 0 0 0  0 0 1 0 0  0 0 0 1 0"/>
				</filter>
			</defs>
			<mask maskUnits="userSpaceOnUse" x="0.3" y="0.6" width="10.9" height="7.4" id="mask-4_1_">
				<g class="st4">
					<polygon id="path-3_1_" class="st2" points="0.3,0.6 11.2,0.6 11.2,8 0.3,8 					"/>
				</g>
			</mask>
			<path id="Fill-28" class="st5" d="M4.5,8c2.7,0.1,5.7-2.5,6.7-5.1l-0.3,0C9.5,5.1,7.8,5.7,6.7,5.7c-0.2,0-0.5-0.1-0.5-0.1
				c0.3-0.3,0.7-1.2,0.7-2C7,1.8,5.7,0.6,3.9,0.6c-2-0.1-3.5,1.1-3.6,3.3C0.2,6.3,1.5,7.9,4.5,8"/>
		</g>
		<path id="Fill-31" class="st0" d="M13.1,40.3l0-0.5c10.6-0.6,15.8-3.7,19-11.9h0.5c-0.9,5.1-0.9,8.2-1.5,12.5L13.1,40.3z
			 M1.6,14.8l-0.6,0C1.6,9.3,2,5,2.3,1.5l18,0l0,0.4C9.7,2.7,3.9,6.5,1.6,14.8L1.6,14.8z M7.2,40.3l-7.2,0L26.3,1.6l7.2,0L7.2,40.3z
			"/>
	</g>
</g>
</svg>
