<?xml version="1.0" encoding="utf-8"?>
<!-- Generator: Adobe Illustrator 26.0.3, SVG Export Plug-In . SVG Version: 6.00 Build 0)  -->
<svg version="1.1" id="Layer_1" xmlns="http://www.w3.org/2000/svg" xmlns:xlink="http://www.w3.org/1999/xlink" x="0px" y="0px"
	 viewBox="0 0 410.2 282" style="enable-background:new 0 0 410.2 282;" xml:space="preserve">
<style type="text/css">
	.st0{fill:#7929D2;}
	.st1{fill:#9454DB;}
	.st2{fill:#AF7FE4;}
	.st3{fill:url(#SVGID_1_);}
	.st4{fill:url(#SVGID_00000173122742385184516430000006196977019943454866_);}
	.st5{fill:url(#SVGID_00000000190987343754461090000018047917756741929147_);}
	.st6{fill:url(#SVGID_00000018944439254680646000000017038665763251865513_);}
	.st7{fill:#2D3136;}
</style>
<g>
	<polygon class="st0" points="125.1,110.5 94.1,123.6 120.4,137 	"/>
	<polygon class="st1" points="58.1,127.9 25,115.5 32.7,141.5 	"/>
	<polygon class="st2" points="73.8,104.6 94.1,123.6 58.1,127.9 	"/>
	<polygon class="st2" points="29,86.7 25,115.5 0,90.5 	"/>
	
		<linearGradient id="SVGID_1_" gradientUnits="userSpaceOnUse" x1="160.2211" y1="134.4735" x2="254.1264" y2="134.4735" gradientTransform="matrix(1 0 0 -1 0 207.45)">
		<stop  offset="0" style="stop-color:#7929D2"/>
		<stop  offset="1" style="stop-color:#0070C5"/>
	</linearGradient>
	<polygon class="st3" points="125.1,110.5 206.7,35.4 243.5,84.1 	"/>
	
		<linearGradient id="SVGID_00000057860194996610633510000004361189586662527895_" gradientUnits="userSpaceOnUse" x1="166.6124" y1="217.2008" x2="165.8259" y2="124.3746" gradientTransform="matrix(1 0 0 -1 0 207.45)">
		<stop  offset="0" style="stop-color:#00AEFF"/>
		<stop  offset="1" style="stop-color:#9454DB"/>
	</linearGradient>
	<polygon style="fill:url(#SVGID_00000057860194996610633510000004361189586662527895_);" points="125.1,110.5 160,0 206.7,35.4 	
		"/>
	
		<linearGradient id="SVGID_00000134234364100036528430000012999716705691278006_" gradientUnits="userSpaceOnUse" x1="218.3007" y1="178.7098" x2="198.2523" y2="213.4345" gradientTransform="matrix(1 0 0 -1 0 207.45)">
		<stop  offset="0" style="stop-color:#66A9DC"/>
		<stop  offset="1" style="stop-color:#B1E4FA"/>
	</linearGradient>
	<polygon style="fill:url(#SVGID_00000134234364100036528430000012999716705691278006_);" points="160,0 243.5,0 206.7,35.4 	"/>
	
		<linearGradient id="SVGID_00000036235074324470224300000014062296449609956782_" gradientUnits="userSpaceOnUse" x1="222.76" y1="205.9182" x2="234.1508" y2="127.1321" gradientTransform="matrix(1 0 0 -1 0 207.45)">
		<stop  offset="0" style="stop-color:#00AEFF"/>
		<stop  offset="1" style="stop-color:#9454DB"/>
	</linearGradient>
	<polygon style="fill:url(#SVGID_00000036235074324470224300000014062296449609956782_);" points="243.5,84.1 243.5,0 206.7,35.4 	
		"/>
	<path class="st7" d="M159.6,192.9v-8.8l23.6-33h-22.5v-9.6h35v8.4l-23.8,33.4h24.4v9.6L159.6,192.9z"/>
	<path class="st7" d="M210.9,175.9c0.2,3.5,1,6,2.5,7.5c1.5,1.5,3.9,2.3,7.1,2.3c1.7,0,3.4-0.2,5-0.7c1.5-0.5,2.8-1.5,3.7-2.7
		l7.1,5.1c-1.5,2.2-3.6,4-6.1,5c-2.5,1.1-5.9,1.7-10.2,1.7c-6.4,0-11.2-1.7-14.3-5c-3.2-3.4-4.7-8.4-4.7-15.3
		c0-13.9,6.2-20.9,18.7-20.9c5.5,0,9.8,1.6,12.7,4.7c2.9,3.1,4.4,7.7,4.4,13.7v4.7L210.9,175.9z M227.2,169.3c0-5.9-2.6-8.9-7.8-8.9
		c-1.4-0.1-2.9,0.2-4.2,0.9c-1.1,0.6-2,1.5-2.6,2.6c-0.8,1.7-1.3,3.5-1.5,5.4H227.2z"/>
	<path class="st7" d="M279.8,173.1c0.1,3.8-0.6,7.5-1.9,11.1c-1.1,2.9-2.9,5.5-5.4,7.3c-2.5,1.7-5.4,2.6-8.4,2.5
		c-4.1,0.1-8-1.4-11-4v17.6h-9.6V154h8.8v3.8c1.7-1.5,3.6-2.7,5.6-3.6c2.1-0.9,4.4-1.4,6.8-1.3c4.9,0,8.7,1.7,11.2,5.2
		C278.5,161.5,279.8,166.5,279.8,173.1z M269.9,173.3c0-3.8-0.7-6.7-2-8.9c-1.2-2.1-3.5-3.3-5.9-3.2c-1.7,0-3.3,0.4-4.8,1.1
		c-1.5,0.7-3,1.6-4.2,2.7v17c1.1,1,2.4,1.8,3.8,2.4c1.4,0.7,3,1.1,4.6,1.1c2.5,0.1,4.9-1.2,6.2-3.4
		C269.3,179.5,270.1,176.4,269.9,173.3L269.9,173.3z"/>
	<path class="st7" d="M311.8,192.9v-21.4c0-4.1-0.4-6.8-1.2-8.2c-0.9-1.4-2.5-2.2-4.1-2c-2.8,0-6.3,1.9-10.3,5.6v26h-9.6v-55.3h9.6
		V159c1.9-1.9,4.1-3.5,6.5-4.6c2.1-1,4.4-1.5,6.8-1.6c4.4,0,7.4,1.2,9.2,3.7c1.8,2.4,2.7,5.9,2.7,10.4v26L311.8,192.9z"/>
	<path class="st7" d="M325.9,198.1c1.8,0.7,3.7,1,5.6,1.1c1.4,0,2.7-0.4,3.8-1.3c1.1-0.9,2.2-2.7,3.4-5.4l1-2.3L325.6,154h9.9
		l9.2,24.9l9.4-24.9h9.7l-16.7,41.6c-1,2.6-2.3,5.1-4,7.4c-1.2,1.5-2.7,2.7-4.5,3.5c-2.1,0.8-4.3,1.1-6.5,1.1
		c-2.8,0-5.6-0.4-8.3-1.1L325.9,198.1z"/>
	<path class="st7" d="M391.8,163.3c-1.2-0.5-2.6-0.8-3.9-0.7c-1.8,0-3.5,0.4-5.1,1.3c-1.8,1-3.5,2.3-4.9,3.7v25.3h-9.6V154h9.6v5.6
		c1.5-1.7,3.3-3.2,5.3-4.4c1.9-1.2,4.1-1.8,6.3-1.7c1.5-0.1,2.9,0.2,4.2,0.8L391.8,163.3z"/>
	<g>
		<g>
			<path class="st7" d="M160,217.2c0.4,0,0.6-0.1,0.8-0.1c5.4,0,10.7-0.1,16.1,0.1c4.1,0.2,7.9,1.3,10.7,4.6c2,2.3,2.9,5.2,3.1,8.1
				c0.3,3.3,0.2,6.7-0.7,10c-1.5,5.5-5.4,8.5-10.9,9.3c-3.5,0.5-7.1,0.4-10.6,0.5c-1.2,0-2.4,0-3.7,0c0,6,0,11.9,0,17.9
				c-1.5,0-3,0-4.4,0c-0.2,0-0.4-0.3-0.5-0.5c-0.1-0.3,0-0.6,0-0.9c0-15.9,0-31.7,0-47.6C160,218.1,160,217.7,160,217.2z
				 M164.9,245.5c4.5-0.3,8.9-0.3,13.3-0.8c3.7-0.5,6-2.8,6.8-6.5c0.6-2.8,0.8-5.7,0.3-8.6c-0.8-4.6-3.3-7.2-7.9-7.8
				c-3.7-0.4-7.5-0.3-11.2-0.4c-1,0-1.3,0.3-1.3,1.3c0,7.1,0,14.1,0,21.2C164.8,244.3,164.9,244.7,164.9,245.5z"/>
			<path class="st7" d="M309.8,248.4c-8.3,0-16.5,0-24.7,0c0,3.6,0.1,7.1,1.3,10.4c1.4,3.8,4.3,5.5,8.2,5.9
				c4.3,0.4,7.8-1.1,10.3-4.7c0.1-0.2,0.2-0.3,0.4-0.5c1.2,0.8,2.4,1.6,3.7,2.4c-1.7,3-4.1,5.1-7.3,6.1c-4,1.2-8.1,1.2-12.1,0
				c-4.3-1.3-6.8-4.5-8-8.6c-2.1-7.1-2-14.3,0.1-21.4c2-6.7,7.2-10,14.6-9.6c1.5,0.1,3,0.2,4.4,0.6c3.5,1,5.9,3.2,7.3,6.5
				C309.9,239.5,309.9,243.8,309.8,248.4z M285,244.5c6.9,0,13.5,0,20.3,0c-0.2-1.5-0.2-3-0.5-4.4c-0.9-5.2-3.5-7.7-8.5-8
				c-4.7-0.3-8.3,1.3-9.9,6.5C285.7,240.5,285.4,242.4,285,244.5z"/>
			<path class="st7" d="M223.6,249.5c0.1-5.3,0.5-9.6,2.4-13.5c2.4-4.7,6.3-7.3,11.5-7.7c2.5-0.2,5.2,0,7.6,0.6c5,1.2,8,4.9,9.4,9.7
				c1.9,6.4,1.9,13,0.1,19.4c-2,7.3-7.6,11-15.5,10.7c-4.8-0.2-9-1.6-11.9-5.7c-1.8-2.4-2.7-5.2-3.1-8.2
				C223.9,252.8,223.8,250.6,223.6,249.5z M228.4,247.5c0.2,2.6,0.2,4.4,0.5,6.2c0.4,3.2,1.3,6.3,3.8,8.5c5.6,5,15,2.5,17.2-4.8
				c1.8-6,1.7-12.2-0.1-18.3c-1.2-4-3.9-6.4-8.1-6.8c-5.8-0.6-10.4,1.4-12,7.7C228.9,242.7,228.7,245.6,228.4,247.5z"/>
			<path class="st7" d="M342.2,259.1c1.2,0.8,2.4,1.5,3.7,2.3c-1.6,3.2-4,5.4-7.3,6.4c-3.7,1.2-7.5,1.2-11.3,0.1
				c-5.6-1.7-8.5-5.8-9.7-11.2c-1.3-5.6-1.2-11.3,0.1-17c1.9-7.9,7.6-12,15.7-11.6c5.3,0.2,9.3,2.5,11.9,7.3
				c-1.3,0.8-2.5,1.5-3.8,2.3c-0.4-0.6-0.8-1.1-1.1-1.7c-3.3-5.4-14-5.3-16.9,1.5c-1.3,3.1-1.8,6.3-1.9,9.7c-0.1,3.5,0.1,7,1.2,10.4
				c1.3,3.9,3.9,6.4,8.1,6.9c4.2,0.5,7.8-0.6,10.3-4.3c0.2-0.3,0.5-0.6,0.7-1C342,259.3,342,259.3,342.2,259.1z"/>
			<path class="st7" d="M371.1,264.1c0.3,0.9,0.7,2.1,1.1,3.5c-4.2,1.3-8.3,1.9-12.4,0.2c-2.5-1.1-3.6-3.3-4.1-5.9
				c-0.3-1.9-0.5-3.8-0.5-5.6c-0.1-7.1,0-14.3,0-21.4c0-0.5,0-0.9,0-1.5c-2,0-3.8,0-5.8,0c0-1.3,0-2.4,0-3.5c0-0.2,0.6-0.5,0.9-0.5
				c1.6-0.1,3.1,0,4.8,0c0-3.6,0-7.1,0-10.6c1.6,0,3.1,0,4.7,0c0,3.5,0,6.9,0,10.5c0.5,0,0.9,0.1,1.3,0.1c2.6,0,5.2,0,7.8,0
				c0.7,0,1.1,0.2,1,1c-0.1,0.9,0,1.9,0,3c-3.4,0-6.7,0-10,0c-0.1,0.3-0.1,0.5-0.1,0.7c0,7.9,0,15.8,0.1,23.8c0,1.3,0.3,2.7,0.6,3.9
				c0.5,1.9,1.9,3,3.9,3C366.6,264.6,368.7,264.3,371.1,264.1z"/>
			<path class="st7" d="M253.7,280.9c0.3-1,0.6-1.9,0.8-2.8c0.1-0.3,0.2-0.6,0.3-0.9c1.3,0.3,2.6,0.6,3.8,0.8
				c0.6,0.1,1.3,0.1,1.9,0.1c2.6,0,4.2-1.2,4.8-3.7c0.4-1.6,0.5-3.2,0.5-4.8c0-13,0-26,0-39c0-1.1,0.3-1.5,1.4-1.4
				c1,0.1,2.1,0,3.3,0c0,0.5,0.1,0.9,0.1,1.4c0,13.2,0,26.4,0,39.6c0,1.8-0.2,3.5-0.6,5.3c-0.7,3.4-2.8,5.5-6.3,6.2
				C260.3,282.4,257.1,282,253.7,280.9z"/>
			<path class="st7" d="M204.3,235.7c1.5-1.4,2.7-2.5,4-3.6c2.6-2.1,5.4-3.7,8.9-3.4c0.2,0,0.5,0,0.7,0c2.1,0.2,2.3,0.5,1.8,2.5
				c-0.2,0.8-0.4,1.7-0.6,2.5c-4.2-1.2-7.6,0.1-10.7,2.7c-4.1,3.4-4.1,3.3-4.1,8.6c0,7,0,13.9,0,20.9c0,0.5,0,0.9,0,1.6
				c-1.4,0-2.8,0-4.1,0c-0.2,0-0.5-0.4-0.6-0.6c-0.1-0.2,0-0.5,0-0.7c0-11.9,0-23.8,0-35.7c0-1.1,0.3-1.5,1.4-1.4
				c1,0.1,2.6-0.3,3,0.2c0.6,0.6,0.3,2.1,0.3,3.1C204.4,233.5,204.3,234.5,204.3,235.7z"/>
			<path class="st7" d="M268.3,223.1c-2.4,0-3.4-0.9-3.4-3.2c0-2.2,1-3.1,3.3-3.2c2.4,0,3.4,0.9,3.4,3.2
				C271.6,222.2,270.7,223.1,268.3,223.1z"/>
		</g>
	</g>
	<g>
		<g>
			<path class="st7" d="M400,141.7v1.1h-2.2v7.2h-1.4v-7.2h-2.2v-1.1H400z"/>
			<path class="st7" d="M410.2,141.7v8.3h-1.4v-5.7l-2.5,5.7h-0.9l-2.6-5.7v5.7h-1.4v-8.3h1.5l2.9,6.5l2.9-6.5H410.2z"/>
		</g>
	</g>
</g>
</svg>
