<svg xmlns="http://www.w3.org/2000/svg" role="img" viewBox="0.78 -3.22 453.44 271.44"><title>3GPP logo</title><g><path d="M111.617 5.659c4.178 1.102 8.572 1.711 12.483 3.424 5.772 2.528 11.56 5.328 16.694 8.934 9.23 6.483 12.464 15.837 10.812 27.346.943-.645 1.712-1.152 2.461-1.685 14.395-10.236 30.185-16.05 48.085-15.128 8.428.434 16.416 2.715 24.193 5.864 11.124 4.505 21.498 10.429 31.945 16.601-3.088 5.171-5.973 10.193-9.11 15.052-.472.731-2.155 1.06-3.226.968-11.385-.981-22.743-2.327-34.14-3.109-31.729-2.176-61.289 22.293-67.675 50.545-3.916 17.326 3.264 32.152 19.75 40.386 5.872 2.933 11.91 4.832 18.604 3.48 6.186-1.249 10.413-4.85 13.005-10.489 3.513-7.64 5.256-19.887 4.232-29.797-5.966-2.077-11.988-4.288-18.093-6.242-2.391-.765-3.158-1.614-2.661-4.359 1.035-5.721 2.768-10.901 7.566-14.546.791-.601 1.907-1.095 2.874-1.098 21.156-.062 42.312-.018 63.468-.091 2.111-.007 2.894.891 2.688 2.708-.702 6.195-1.104 12.465-2.378 18.548-3.068 14.652-7.412 28.958-13.094 42.824-2.44 5.953-6.563 6.92-11.524 2.845-.702-.577-1.258-1.525-1.519-2.408-.976-3.299-1.895-6.621-2.641-9.977-.352-1.582-1.195-2.026-2.64-2.093-4.547-.21-6.93 2.698-8.757 6.192-3.432 6.564-7.467 12.629-13.09 17.565-14.457 12.689-31.834 14.508-48.605 5.05-9.479-5.345-17.258-12.595-23.889-21.15-.551-.711-1.106-1.419-1.78-2.284-7.875 6.084-16.514 10.605-25.552 14.388-14.779 6.185-30.03 10.852-45.977 12.596-9.757 1.067-19.571 1.138-28.549-4.222-7.378-4.405-13.468-9.784-15.863-18.417 0-1.09 0-2.18 0-3.27 1.961-6.731 6.982-10.392 13.297-11.959 12.104-3.004 22.754.542 31.925 8.64 2.376 2.098 4.778 3.108 7.863 2.784 9.903-1.043 19.342-3.802 28.512-7.594 5.125-2.119 9.449-5.378 13.253-9.34 5.341-5.563 5.936-11.984 1.477-18.251-1.604-2.254-3.578-4.408-5.805-6.027-9.885-7.183-21.294-10.191-33.235-11.625-5.165-.62-9.558-2.754-12.663-7.077-1.758-2.448-2.409-5.237-.965-7.948 3.344-6.28 7.764-11.202 15.715-11.079 1.249.019 2.53-.239 3.752-.546 13.461-3.386 25.663-9.433 36.669-17.821 2.332-1.778 4.326-4.155 6.026-6.571 2.643-3.756 2.234-7.723-.769-11.24-3.266-3.826-7.664-5.75-12.403-6.872-8.562-2.027-12.467-.318-16.954 7.317-2.212 3.764-5.395 6.29-9.335 7.987-5.597 2.41-10.488.867-14.866-2.832-4.327-3.656-5.495-8.185-3.792-13.697 2.923-9.463 12.543-17.205 23.163-18.548 5.465-.691 10.884-1.754 16.324-2.649C101.809 5.659 106.713 5.659 111.617 5.659zM119.441 87.626c3.086-5.932 6.179-11.877 9.248-17.775-5.107 2.319-10.244 4.667-15.396 6.984-1.645.739-3.425 1.228-4.967 2.132-1.962 1.149-1.816 2.938.255 3.889C112.186 84.512 115.844 86.053 119.441 87.626zM9.716 256.871c3.031-5.208 6.062-10.416 9.319-16.012 3.42 5.616 6.602 10.843 9.911 16.277-1.248.756-2.372 1.437-3.617 2.192-1.523-2.412-2.143-5.212-6.102-4.672-3.168.433-5.311 1.172-5.794 4.773-1.519-.823-2.617-1.418-3.716-2.014C9.716 257.235 9.716 257.053 9.716 256.871zM21.305 251.818c-.791-1.499-1.493-2.83-2.419-4.585-.907 1.937-1.53 3.27-2.277 4.867 1.027 0 1.65.032 2.268-.008C19.587 252.045 20.293 251.935 21.305 251.818zM414.597 259.596c-2.825-5.241-5.651-10.483-8.628-16.006 1.37-.733 2.52-1.349 3.831-2.05 1.74 3.621 3.403 7.082 5.335 11.102 1.991-3.931 3.756-7.416 5.643-11.143 1.265.683 2.419 1.305 3.696 1.995-3.172 5.473-6.252 10.787-9.332 16.102C414.961 259.596 414.779 259.596 414.597 259.596zM445.658 259.051c-3.054-.137-6.107-.274-9.301-.417 0-5.565 0-10.88 0-16.603 2.815-.182 5.567-.36 8.598-.556.098 1.01.178 1.843.28 2.899-1.693.191-3.194.36-4.86.548 0 1.281 0 2.586 0 3.979 1.356 0 2.595 0 4.06 0 .042.846.085 1.708.137 2.749-1.494.12-2.812.225-4.239.34 0 1.199 0 2.26 0 3.791 1.775 0 3.55 0 5.326 0C445.658 256.871 445.658 257.961 445.658 259.051zM261.519 126.335c2.822-.418 5.645-.835 8.803-1.302-1.638-24.996-3.269-49.871-4.925-75.141 17.977-3.255 36.029-4.766 54.677-3.532-1.831-4.531-3.543-8.771-5.268-13.039 20.175-10.775 40.824-19.701 63.431-23.172 8.008-1.23 16.082-1.401 24.119.113 11.791 2.221 20.596 9.344 28.121 17.994 4.418 5.079 8.436 10.788 11.354 16.832 7.019 14.54 2.995 31.203-9.31 42.628-9.577 8.892-21.183 13.415-33.711 15.987-5.32 1.092-10.696 1.91-15.343 2.728-1.836 5.435-3.4 10.593-5.355 15.599-.805 2.059-2.209 4.034-3.784 5.601-1.648 1.639-1.332 2.981-.555 4.759 7.26 16.616 14.47 33.255 21.689 49.888.393.905.746 1.827 1.212 2.974-2.485.877-4.848 1.71-7.481 2.64-8.708-16.905-17.369-33.718-25.765-50.019-6.092 1.783-11.818 3.787-17.697 5.102-9.082 2.031-18.276 1.219-27.342-.288-10.178-1.693-20.284-3.819-30.746-5.819 1.111 17.203 2.233 34.587 3.385 52.419-2.509 0-4.671.122-6.801-.084-.549-.053-1.328-1.08-1.445-1.755-2.786-16.068-5.746-32.113-8.08-48.249-.775-5.355-2.445-8.876-7.979-10.072-1.852-.4-3.559-1.473-5.332-2.238C261.432 126.704 261.475 126.52 261.519 126.335zM382.136 100.135c.41.082.676.207.921.174 13.897-1.876 26.417-7.061 37.213-16.031 7.302-6.067 12.849-13.442 13.892-23.234 1.382-12.982-6.384-26.32-18.743-32.739-11.251-5.844-23.223-6.557-35.515-4.908-15.668 2.102-30.12 7.798-44.1 14.901-4.334 2.202-4.112 2.118-2.756 6.706.84 2.844 2.566 3.671 5.15 4.211 16.435 3.439 28.775 12.23 36.258 27.586C378.096 84.268 380.877 91.945 382.136 100.135zM279.328 61.882c0 4.174-.084 8.062.014 11.946.434 17.053.948 34.105 1.344 51.159.039 1.665.558 2.39 2.131 2.841 6.353 1.819 12.635 3.897 19.011 5.627 16.209 4.399 32.279 4.237 48.037-2.045 2.734-1.09 5.3-2.603 8.161-4.029-3.181-6.189-6.127-11.997-9.184-17.745-.281-.528-1.251-.892-1.941-.967-3.788-.414-7.588-.714-11.384-1.054-.009-.168-.018-.335-.027-.503 2.603-1.363 5.206-2.725 7.878-4.124-5.707-13.862-11.268-27.445-16.948-40.978-.346-.825-1.555-1.517-2.505-1.806-1.366-.416-2.86-.43-4.304-.572C306.038 58.293 292.626 59.799 279.328 61.882zM340.573 64.014c-.079.313-.139.41-.115.476 4.371 11.996 8.739 23.993 13.156 35.972.18.487.818 1.141 1.251 1.147 5.769.077 11.54.051 17.285.051C372.49 85.232 360.15 69.765 340.573 64.014zM367.313 117.407c.286.065.572.129.858.194 1.294-3.14 2.589-6.279 4.116-9.984-3.366.318-5.886.555-8.808.831C364.867 111.69 366.09 114.548 367.313 117.407z"/><path fill="#E4142D" d="M200.6,191.775c15.685,9.925,32.211,7.766,48.952,3.71c-7.24,5.307-15.158,8.917-24.157,8.87 C215.274,204.302,207.435,199.014,200.6,191.775z"/><path d="M113.112 241.558c5.257.024 8.716 3.312 8.729 8.3.014 5.356-4.206 9.274-9.95 9.237-5.143-.034-8.492-3.248-8.507-8.166C103.368 245.432 107.416 241.533 113.112 241.558zM117.18 250.2c.027-3.443-1.505-5.37-4.314-5.426-3.021-.06-5.045 2.273-5.049 5.82-.004 3.255 1.77 5.334 4.522 5.303C115.279 255.865 117.153 253.659 117.18 250.2zM245.305 241.133c4.332 3.727 8.126 6.992 12.324 10.603 0-3.546 0-6.578 0-9.943 1.392.096 2.508.174 3.884.269-.273 5.655-.537 11.14-.839 17.399-4.244-3.656-8.07-6.953-12.415-10.696 0 3.729 0 6.83 0 10.206-1.437-.156-2.484-.27-3.818-.414C244.72 252.931 244.992 247.445 245.305 241.133zM144.288 249.371c.714 1.372 2.307 3.025 2.035 4.267-.334 1.521-1.995 3.267-3.506 3.893-2.417 1.002-5.183 1.163-8 1.719 0-6.052 0-11.538 0-17.36 2.454.155 4.774-.011 6.909.542 1.494.387 3.421 1.5 3.886 2.758C146.032 246.333 144.74 248.109 144.288 249.371zM139.533 250.697c-.272.243-.543.486-.815.728 0 1.545 0 3.09 0 4.635.257.18.514.36.772.541.964-1.052 2.438-1.994 2.695-3.197C142.331 252.722 140.483 251.613 139.533 250.697zM139.213 243.977c-.239.197-.478.395-.717.592.066 1.432.133 2.864.199 4.296.322.137.645.275.967.412.736-1.039 1.91-2.029 2.035-3.137C141.769 245.521 140.099 244.705 139.213 243.977zM166.448 240.767c3.428 5.643 6.606 10.872 9.9 16.294-1.165.766-2.188 1.439-3.438 2.261-1.63-2.218-2.213-5.197-6.256-4.701-3.284.403-5.034 1.613-5.928 4.764-1.315-.735-2.304-1.288-3.582-2.003C160.212 251.903 163.191 246.583 166.448 240.767zM164.051 252.133c1.812-.119 3.133-.205 4.769-.312-.911-1.697-1.582-2.946-2.435-4.535C165.563 248.992 164.916 250.336 164.051 252.133zM344.541 240.766c3.371 5.552 6.542 10.775 9.881 16.276-1.166.776-2.233 1.485-3.48 2.315-1.624-2.257-2.078-5.253-6.054-4.73-3.191.42-5.268 1.217-5.93 4.826-1.393-.793-2.429-1.382-3.724-2.119C338.35 251.786 341.346 246.453 344.541 240.766zM344.491 247.192c-.906 1.886-1.547 3.221-2.36 4.912 1.666-.078 3.004-.14 4.706-.22C346.028 250.264 345.399 249.007 344.491 247.192z"/><path fill="#E4142D" d="M207.792,178.35c12.371,6.668,25.288,4.657,38.528,2.458C232.543,190.295,217.778,189.594,207.792,178.35z"/><path d="M66.507 241.534c.274 1.246.513 2.331.718 3.263-2.028.972-3.916 1.651-5.55 2.72-1.953 1.277-3.614 3.036-2.59 5.652 1.004 2.565 3.225 2.884 5.875 2.437.093-1.313.186-2.635.295-4.166 1.191 0 2.323 0 3.659 0 0 2.239 0 4.545 0 7.007-3.346 1.004-6.735 1.025-10.031-.236-4.155-1.59-5.615-5.669-3.419-9.544C57.82 244.51 61.775 242.695 66.507 241.534zM372.27 245.113c0 4.6 0 8.842 0 13.325-1.345 0-2.547 0-4.176 0 0-3.346-.179-6.773.056-10.17.189-2.731-.804-3.636-3.384-3.179-.705.125-1.435.111-2.345.174 0-1.035 0-1.978 0-3.066 5.115 0 10.173 0 15.447 0 0 .868 0 1.799 0 2.918C376.148 245.113 374.386 245.113 372.27 245.113zM291.569 245.302c-.052-1.128-.093-2.01-.143-3.073 5.237 0 10.354 0 15.643 0 0 .952 0 1.893 0 2.989-1.843 0-3.606 0-5.602 0 0 4.442 0 8.737 0 13.253-1.434 0-2.635 0-4.049 0 0-4.329 0-8.635 0-13.168C295.446 245.302 293.678 245.302 291.569 245.302zM82.915 258.733c0-5.81 0-11.132 0-16.61 1.346 0 2.58 0 4.137 0 0 4.395 0 8.784 0 13.321 1.903.102 3.497.187 5.222.279 0 1.079 0 2.027 0 3.009C89.15 258.733 86.11 258.733 82.915 258.733zM188.583 242.061c1.414 0 2.578 0 4.066 0 0 4.448 0 8.822 0 13.441 1.821 0 3.326 0 5.028 0 0 1.263 0 2.27 0 3.227-3.061 0-6.01 0-9.094 0C188.583 253.103 188.583 247.715 188.583 242.061z"/><path fill="#E4142D" d="M243.782,169.945c-8.877,5.917-23.188,4.778-28.842-2.256c4.507,0.704,9.448,1.78,14.441,2.171 C234.328,170.248,239.328,169.945,243.782,169.945z"/><path d="M230.263 258.524c-1.345 0-2.559 0-3.928 0 0-5.472 0-10.776 0-16.331 1.233 0 2.502 0 3.928 0C230.263 247.653 230.263 253.036 230.263 258.524zM393.778 258.566c-1.447 0-2.602 0-3.939 0 0-5.487 0-10.85 0-16.404 1.326 0 2.54 0 3.939 0C393.778 247.609 393.778 252.992 393.778 258.566zM279.547 242.119c0 5.501 0 10.805 0 16.343-1.281 0-2.47 0-3.812 0 0-5.437 0-10.818 0-16.343C276.98 242.119 278.123 242.119 279.547 242.119zM319.226 258.495c0-5.501 0-10.865 0-16.373 1.32 0 2.452 0 3.75 0 0 5.446 0 10.815 0 16.373C321.812 258.495 320.678 258.495 319.226 258.495z"/><g><path d="M413.239 184.659v1.471h-2.422v7.617h-1.823v-7.617h-2.422v-1.471H413.239zM424.475 184.659v9.088h-1.823v-5.911l-2.435 5.911h-1.38l-2.448-5.911v5.911h-1.823v-9.088h2.07l2.891 6.757 2.891-6.757H424.475z"/></g></g></svg>