<svg xmlns="http://www.w3.org/2000/svg" role="img" viewBox="-3.84 41.41 407.68 161.68"><title>Anuket (5G) logo</title><defs><style>.cls-1{fill:#001e61}</style></defs><path d="M121.14132 89.97493h17.05645l24.6144 60.83127h-18.82l-4.28283-12.44h-20.83541l-4.45306 12.44H96.52692zm8.232 18.48633c-1.17114 3.86069-2.34909 7.39453-3.779 11.34374l-2.09716 5.79443h11.75908l-2.04264-5.79443c-1.42988-4.11942-2.51931-7.56475-3.69726-11.34374zm38.06214 1.00774h16.30065v3.1934l.17023.08171a20.28391 20.28391 0 0 1 12.011-4.20112 15.33378 15.33378 0 0 1 10.58113 3.94919c2.68955 2.601 4.03771 6.29829 4.03771 12.35147v25.96255h-16.63429V127.363a5.546 5.546 0 0 0-1.17114-3.94919 4.33048 4.33048 0 0 0-3.19341-1.178 8.307 8.307 0 0 0-5.44717 2.18567v26.38472h-16.65471zm78.22136 37.88505a18.59529 18.59529 0 0 1-11.75907 4.36455 15.91253 15.91253 0 0 1-10.58793-3.779c-2.94147-2.68955-4.28284-6.55022-4.28284-12.76681V109.469h16.63429v23.525c0 2.18567.42215 3.19341 1.178 3.94919a4.24206 4.24206 0 0 0 3.10488 1.17115 8.443 8.443 0 0 0 5.5493-2.3491V109.469h16.63425v41.3372h-16.30065v-3.36363zm25.29529-60.74275h16.63429v39.82562l.17023.08852 11.57523-17.05644H317.648l-13.78134 18.47951 14.36692 22.85769h-18.96981l-11.50714-20.33155-.17023.0817v20.24985h-16.63429z" class="cls-1"/><path d="M358.07959 148.53881a40.449 40.449 0 0 1-16.13043 3.18659c-14.61885 0-24.62121-8.06181-24.62121-21.16907 0-13.61792 10.67644-22.01336 22.46957-22.01336 10.1658 0 20.66521 6.3051 20.66521 21.17587a32.8698 32.8698 0 0 1-.25193 4.20114H334.221c1.59329 4.36455 5.54251 5.87614 9.99557 5.87614a30.21137 30.21137 0 0 0 13.863-3.86069zm-12.6034-23.19133c-.75578-3.779-3.36362-5.03863-5.79443-5.03863-2.94148 0-4.95692 1.84523-5.71273 5.03863zM396.06 149.71a26.78629 26.78629 0 0 1-10.336 2.04269c-5.12717 0-9.53254-1.5933-12.18124-4.28285-2.35592-2.3491-4.03771-5.88295-4.03771-13.01873v-11.84764H363.377V109.469h6.12807V99.133l16.63429-2.85978V109.469H396.06v13.10725h-9.92066v10.66965c0 3.27511 1.01453 5.12033 4.08538 5.12033a17.628 17.628 0 0 0 5.80125-1.36179z" class="cls-1"/><path fill="#007473" d="M65.96148 195.53428s-17.28795-16.45046-5.5493-50.97188 32.03617-67.40873-9.36232-94.11348c0 0 17.76458 14.85034 13.48174 42.34493s-38.22551 78.45967 1.42988 102.74043z"/><path fill="#f5b335" d="M65.99553 195.56832a38.72182 38.72182 0 0 1-4.88883-33.4184c6.094-18.96978 32.52641-55.93563 19.82769-85.95634A52.14 52.14 0 0 1 84.55 124.61892c-11.46634 27.31755-29.73478 48.24832-18.55447 70.9494z"/><path fill="#e36386" d="M56.95323 86.659a25.33615 25.33615 0 1 0-50.66549-.83038q-.00681.41517 0 .83038c0 .50386 0 1.00774.04766 1.50478a27.61715 27.61715 0 1 1 50.577 0c.02721-.49709.04083-1.00095.04083-1.50478z"/><path fill="#6bdad5" d="M71.40865 166.23531c-3.67684 7.08132-5.44717 14.16945-5.37908 20.31795-1.2937-7.08814.25874-16.11683 4.9365-25.13189 7.26516-13.98561 20.12049-27.0452 19.36469-46.98184 3.24106 22.70108-11.09176 36.71392-18.92211 51.79578z"/></svg>