<svg xmlns="http://www.w3.org/2000/svg" role="img" viewBox="6.80 20.80 322.66 122.16"><title>Camara logo</title><path d="M27.4 29.4C18 33.8 13 43 13 56c0 19.7 11.9 30.7 29.4 27 7.3-1.5 10.6-4.1 10.6-8.6 0-1.9-.2-3.4-.4-3.4-.3 0-2.6 1.1-5.2 2.5-9.7 5.2-19.7 2.6-23.6-6.1-2.7-6.2-2.7-17.6 0-23.7 4.1-9.2 14.1-11.9 23.5-6.4C52.2 40.2 53 40 53 36c0-7.6-15.1-11.5-25.6-6.6zm49.5-1.7c-1 .2-4.7 9.3-10.6 25.6-5.1 13.9-9.3 26.1-9.5 27.2-.2 1.7.3 2.1 3.5 2.3 2.4.2 3.9-.1 4.2-1 .2-.7 1.4-3.9 2.5-7.1l2.1-5.7h21.8l2.1 5.7c1.1 3.2 2.3 6.4 2.5 7 .6 1.8 8.5 1.7 8.5-.1 0-.7-4.2-13-9.4-27.2-10.2-28-10.6-28.7-17.7-26.7zM84.4 50c2 5.8 3.6 10.8 3.6 11.2 0 .5-3.8.8-8.4.8h-8.5l4.2-11.9c2.3-6.6 4.5-11.7 4.8-11.3.4.4 2.3 5.4 4.3 11.2zm114.9-21.3c-1.6 1.6-18.6 46.7-19.5 51.8-.3 1.7.3 2 3.6 2h3.9l2.5-6.8 2.5-6.8 11 .3 11 .3 2.2 6.5 2.2 6.5 4.1.3c3.3.2 4.2 0 4.2-1.2 0-1.7-17.9-51.7-18.9-52.8-.4-.4-2.1-1-3.8-1.4-2.3-.4-3.6-.1-5 1.3zm8.5 22.1l3.9 11.2h-17.5l4.1-11.9c2.3-6.6 4.5-11.7 4.9-11.3.4.4 2.5 5.8 4.6 12zm88.9-23.1c-1 .2-2.3 1.7-2.9 3.1C290 40.7 276 80.5 276 81.6c0 .9 1.3 1.4 3.8 1.4h3.8l2.4-7 2.4-7h22.2l2.3 7 2.2 7h3.9c2.1 0 4.1-.3 4.4-.8.5-.8-17.8-52.1-19.1-53.3-1.1-1.1-5.5-1.8-7.6-1.2zm6.7 20.9c1.9 5.4 3.7 10.7 4.1 11.6.6 1.6-.1 1.8-7.9 1.8-4.7 0-8.6-.1-8.6-.3 0-.4 6.6-19.8 7.5-22 .4-1 .9-1.6 1.1-1.4.3.2 1.9 4.9 3.8 10.3zM112.7 28.7c-.4.3-.7 12.7-.7 27.5v26.9l3.8-.3 3.7-.3.5-22 .5-22 7.9 20.5c4.3 11.3 8.2 21.3 8.7 22.2 1.5 2.7 7.3 2.4 8.6-.5.5-1.2 4.5-11 8.8-21.7 4.3-10.7 8.2-19.9 8.7-20.5.4-.5.8 9.3.8 21.9v22.7l3.8-.3 3.7-.3.3-25.9c.2-18.2-.1-26.3-.9-27.2-1.4-1.8-10.3-1.9-11.7-.2-.9 1.2-5.3 11.5-13.5 31.8-1.6 4.1-3.3 7.9-3.7 8.3-.4.4-4.2-8-8.4-18.8-4.3-10.7-8.4-20.2-9.3-21-1.5-1.5-10.3-2.1-11.6-.8zm122.8.6c-.3.7-.4 12.9-.3 27.2l.3 26 3.8.3 3.7.3V59h3.5c7.3 0 9.7 2.9 15.5 18.3 2.1 5.6 2.2 5.7 6.1 5.7 3 0 3.9-.4 3.9-1.8 0-2.7-8-20.9-10-22.7-1.8-1.6-1.7-1.8 2.7-6l4.5-4.4-.4-6c-.5-6.8-2.8-10.3-8.5-12.7-4.3-1.9-24.2-1.9-24.8-.1zm21 6.9c5.1 2.3 4.8 11.8-.6 14.5-1.3.7-4.8 1.3-7.6 1.3H243V35h5.5c3 0 6.6.5 8 1.2zm-224.3 91c.2 7.5.6 9.3 1.8 9.3 1.1 0 1.6-1.4 2-5 .4-3.6.9-5 2-5s1.6 1.4 2 4.9c.8 7.4 3 7.2 3-.3 0-5-.3-6.2-2-7.1-1.2-.6-2.9-.9-3.8-.6-1.4.5-1.8 0-1.7-2.1 0-1.9-.6-2.9-1.8-3.1-1.6-.3-1.8.5-1.5 9zm55.8.4c0 7.2.3 9.5 1.3 9.2.8-.3 1.3-3.4 1.5-9.6.2-7.7 0-9.2-1.3-9.2-1.2 0-1.5 1.6-1.5 9.6zm52.2-.4c.2 6.2.7 9.3 1.6 9.6.9.3 1.2-2 1.2-9.2 0-8-.3-9.6-1.5-9.6-1.3 0-1.5 1.5-1.3 9.2zm19.8.1v9.3l3.8.1c4.9.2 7.2-2 7.2-6.7 0-4.4-2.8-7.5-5.9-6.5-1.8.5-2.1.2-2.1-2.4 0-2.1-.5-3.1-1.5-3.1-1.2 0-1.5 1.7-1.5 9.3zm7.5 2.8c0 2.7-.4 3.4-2 3.4-2.4 0-3.5-5.3-1.3-6.6 2.2-1.4 3.3-.4 3.3 3.2zm17.9-10.8c-1 2.7.1 17 1.4 17.5.9.3 1.2-2 1.2-9.2 0-5.9-.4-9.6-1-9.6s-1.3.6-1.6 1.3zm67.8 7.9c.2 5.4.7 9.3 1.3 9.3.6 0 1.1-3.9 1.3-9.3.2-7.8 0-9.2-1.3-9.2s-1.5 1.4-1.3 9.2zm6 0c.2 5.4.7 9.3 1.3 9.3.6 0 1.1-3.9 1.3-9.3.2-7.8 0-9.2-1.3-9.2s-1.5 1.4-1.3 9.2zM18 120.5c0 .9.9 1.5 2.5 1.5 2.3 0 2.4.3 2.7 7.2.2 4.6.7 7.3 1.6 7.6.9.3 1.2-1.6 1.2-7.2 0-7.4.1-7.6 2.5-7.6 1.6 0 2.5-.6 2.5-1.5 0-1.2-1.4-1.5-6.5-1.5s-6.5.3-6.5 1.5zm45 0c0 .9.9 1.5 2.5 1.5 2.3 0 2.4.3 2.7 7.2.2 4 .8 7.3 1.3 7.3.6 0 1.1-3.3 1.3-7.3.3-6.9.4-7.2 2.7-7.2 1.6 0 2.5-.6 2.5-1.5 0-1.2-1.4-1.5-6.5-1.5s-6.5.3-6.5 1.5zm62.5 1c-6.7 6.6.7 18.5 9.1 14.6 2-.9 2.4-1.8 2.4-5.1 0-3.9-.1-4-3.5-4-1.9 0-3.5.4-3.5 1 0 .5.9 1 2.1 1 1.5 0 2 .5 1.7 2.2-.5 3.4-4.8 3.1-6.8-.5-1.3-2.4-1.3-3 .1-5.5 1.3-2.3 2.1-2.7 5.7-2.5 2.9.1 4.2-.2 4.2-1.2 0-3.3-8.2-3.4-11.5 0zm76-1.5c-1 1.7-5.5 14.4-5.5 15.7 0 2.2 2 1.4 3.2-1.2 1.6-3.6 6.5-3.5 7.8.1.6 1.4 1.6 2.4 2.3 2.1 1.5-.5 1.3-1.3-1.9-10.5-2.4-6.7-4.3-8.7-5.9-6.2zm2.9 6.6c1 2.6.7 3.4-1.5 3.4-1.5 0-1.9-.4-1.5-1.6.3-.9.6-2 .6-2.5 0-1.5 1.7-1 2.4.7zm8-6.3c-.3.8-.4 4.7-.2 8.8.2 5.8.6 7.4 1.8 7.4 1 0 1.6-1.2 1.8-3.3.3-2.6.8-3.2 2.6-3.2 1.2 0 2.7-.5 3.4-1.2 1.7-1.7 1.5-6.4-.4-8.2-1.9-2-8.3-2.1-9-.3zm7.4 4.1c.4 1.7-1.2 3.5-3 3.6-.5 0-.8-1.4-.8-3.1 0-2.4.4-3 1.7-2.7 1 .2 1.9 1.2 2.1 2.2zm6.2 3.7c0 6.8.3 9 1.3 8.7.8-.3 1.3-3.3 1.5-9.1.2-7.3 0-8.7-1.3-8.7-1.2 0-1.5 1.6-1.5 9.1zm16.1-7.2c-2 3.6-5.8 15-5.3 15.6 1.1 1.1 2.3.4 3.4-2 1.6-3.5 6-3.5 7.7.1.6 1.4 1.7 2.4 2.4 2.1 1.5-.5 1.3-1.2-2-10.5-2.6-7.3-4.4-8.8-6.2-5.3zm3.3 5.7c1 2.6.7 3.4-1.5 3.4-1.5 0-1.9-.4-1.5-1.6.3-.9.6-2 .6-2.5 0-1.5 1.7-1 2.4.7zm19.6-6.1c0 .8.7 1.5 1.5 1.5s1.5-.7 1.5-1.5-.7-1.5-1.5-1.5-1.5.7-1.5 1.5zM47 125c-3.9 3.9-1.2 12 3.9 12 3 0 5.1-1.1 5.1-2.5 0-1-1-1.2-3.4-.8-2.5.4-3.5.1-3.9-1.1-.5-1.3.1-1.6 3.2-1.6 4.7 0 5.2-.5 4-3.8-1.8-4.6-5.5-5.6-8.9-2.2zm6 2c0 .5-.9 1-2 1s-2-.5-2-1c0-.6.9-1 2-1s2 .4 2 1zm23-2c-3.9 3.9-1.2 12 3.9 12 3 0 5.1-1.1 5.1-2.6 0-1-.8-1.2-3.1-.7-2.1.4-3.4.1-4-.8-.7-1.1.1-1.5 3.4-1.9 3.8-.4 4.2-.8 3.9-3-.5-4.8-5.7-6.5-9.2-3zm6 2c0 .5-.9 1-2 1s-2-.5-2-1c0-.6.9-1 2-1s2 .4 2 1zm13-2c-1.1 1.1-2 3.3-2 5 0 2.9 2.9 7 5.1 7 1.7 0 4.9-2 4.9-3.1 0-.6-1.1-.8-2.9-.4-2.4.5-3 .2-3.6-1.4-.3-1.2-.3-3 0-4.2.6-1.6 1.2-1.9 3.6-1.4 3.3.8 4-.9 1-2.5-2.8-1.4-3.8-1.3-6.1 1z"/><path d="M106.2 124.6c-2.8 2-3.1 8.3-.4 10.7 4 3.7 10.2.4 10.2-5.3 0-3.3-3-7-5.8-7-1 0-2.8.7-4 1.6zm6.2 3.6c1.4 2.3-.3 5.3-3 5.3-2 0-3.1-3.3-2-6.1.7-1.9 3.5-1.4 5 .8zm34.9-2.6c-2 2-2.4 3.1-1.9 5.7.7 3.5 2.9 5.7 5.8 5.7 2.5 0 6.8-4.4 6.8-7 0-2.5-4.2-7-6.5-7-.9 0-2.7 1.2-4.2 2.6zm6.2 4.4c0 4.1-2.7 5.3-4.5 2.1-1.4-2.7.4-6.4 2.8-5.9 1.2.2 1.7 1.3 1.7 3.8zm21.3-5.9c-2.6 1.5-2.2 2.7 1 2.5 3.6-.1 4.5 1.8.9 2.2-3 .4-5 3.2-4.1 5.6.7 1.9 3 2.6 6.9 2.2 2.8-.3 3-.6 3.3-5.1.5-6.9-3.2-10.3-8-7.4zm5 8.1c-.7 1.9-3.8 2.2-3.8.4 0-1 .9-1.6 2.1-1.6 1.2 0 1.9.5 1.7 1.2zm85.7-8c-1 2.4-.1 12.3 1 12.1 1.4-.4 1.9-11.3.6-12.6-.7-.7-1.2-.5-1.6.5zm6.8-.5c-.7.2-1.3 1.1-1.3 1.9 0 1 .8 1.2 3 .7 2.3-.4 3-.2 3 1.1 0 1-.8 1.6-2.3 1.6-2.7 0-4.7 1.7-4.7 4.1 0 2.3 1.7 3.3 6.2 3.5l3.8.2v-5.9c0-4.7-.4-6-1.9-6.9-2.1-1.1-3.8-1.2-5.8-.3zm4.7 8.3c0 1.2-2.8 2.5-3.6 1.7-.9-.9.6-2.7 2.2-2.7.8 0 1.4.5 1.4 1zm6.3-7.4c-.8 2.1.2 11.9 1.2 11.9.6 0 1.1-1.9 1.3-4.2.3-4.7 2.7-7.6 4.3-5.2.5.8.9 3.3.9 5.7 0 6.3 2.4 5 2.8-1.5.2-3.7-.1-5.3-1.4-6.4-2-1.7-8.5-1.9-9.1-.3zm14.7.4c-4.9 4.9-.4 13.9 5.5 11.2 3.6-1.6 3.2-3.5-.5-2.7-3.5.8-4.6-.9-3.6-5.1.6-2.2 1-2.5 3.6-1.9 3.4.8 4.1-.8 1.1-2.5-2.8-1.4-3.8-1.3-6.1 1z"/><path d="M309 125c-5.5 5.5 1.5 15.2 8 11 2-1.2.6-2.4-3.2-2.4-4.9-.1-4.8-2.6.1-2.6 3.7 0 4.1-.3 4.1-2.4 0-5.1-5.3-7.3-9-3.6zm5.5 2c.4.6-.5 1-2 1s-2.4-.4-2-1c.3-.6 1.2-1 2-1s1.7.4 2 1z"/></svg>