<svg xmlns="http://www.w3.org/2000/svg" role="img" viewBox="34.57 38.57 542.36 346.86"><title>Content Service Module logo</title><path d="M45 167.5V286h89.2l19.7 13.7c10.8 7.5 32.4 22.7 48.1 33.7 53.7 37.6 57.5 40.3 59.7 41.5 2.2 1.1 2.2 1.1.9-2.6-.8-2.1-3.4-9-5.9-15.3-7.1-18-26.7-69.8-26.7-70.4 0-.3 75.8-.6 168.5-.6H567V49H45v118.5zm502.5 0v99l-173.1.5-173 .5 10.4 27.3c5.7 15 10.2 27.5 9.9 27.8-.3.3-5.8-3.2-12.4-7.9-14.1-10-45-31.7-58.5-41l-9.6-6.7-38.4-.2-38.3-.3-.3-98c-.1-53.9 0-98.6.3-99.3.3-1 49.2-1.2 241.7-1l241.3.3v99z"/><path d="M132.6 119.4c-6.3 2.3-8.9 4.8-12.1 11.1-2.5 5.1-3 7.1-2.9 13.5 0 13.9 2.7 18.3 17.9 30 8.6 6.6 10.6 8.8 12 12.4 3.1 8.1-1.6 15.4-8.3 13-3.1-1.1-5.1-5.6-5.1-12.2l-.1-4.2H115.7l.6 7.9c.8 12.1 4.6 19 12.8 23.3 6.2 3.3 18.4 3.3 25 0 8.4-4.1 12.8-12.9 12.9-25.8 0-14.2-2.8-19.3-16.5-29.5-12.1-8.9-14.5-11.8-14.5-17.3 0-4.9 2.2-7.6 6.3-7.6 3.4 0 5.8 3.5 6.5 9.5l.5 4.5h8.4c6.1 0 8.5-.4 8.9-1.3 1-2.8-1.6-14.2-4.4-18.6-3.9-6.4-9.5-9.3-18.6-9.8-4.6-.2-8.5.2-11 1.1zm58 2.3c-1.1 3.9-17.6 89.2-17.6 91.2s.5 2.1 9.5 2.1c6.9 0 9.5-.3 9.6-1.3 0-.6.6-4.8 1.2-9.2l1.2-8h16l1.2 8c.6 4.4 1.2 8.6 1.2 9.2.1 1 2.7 1.3 9.6 1.3 8.3 0 9.5-.2 9.5-1.7 0-1.8-16.7-88.4-17.6-91.6-.5-1.5-1.9-1.7-11.9-1.7s-11.4.2-11.9 1.7zm14.9 36.8c1.4 9.9 2.5 18.8 2.5 19.7 0 1.5-.9 1.8-5.5 1.8-6.6 0-6.4 1.8-3-22 1.4-9.6 2.5-17.9 2.6-18.5.2-2.5 1 2.2 3.4 19zm35.5 9V215h18.2l-.6-35.3c-.6-39.3-1-39 5.5-4.2 1.8 9.3 4.1 21.9 5.3 28l2.1 11 7.2.3c6.2.2 7.2 0 7.7-1.5.2-1 3.2-16.9 6.6-35.3 3.4-18.4 6.4-33.7 6.7-34 .3-.3.3 8-.1 18.5-.3 10.4-.7 26.4-.8 35.5l-.3 16.5h18l.3-47.3.2-47.2h-27.5l-4.3 23.3c-2.3 12.7-4.5 25.9-4.9 29.2-1 9.8-1.9 9.2-3.2-2.2-.7-5.9-2.9-19.6-5-30.3l-3.7-19.5-13.7-.3-13.7-.3v47.6zm90.2-.4l.3 47.4 9.8.3 9.7.3V178h6.8c9.8 0 14-1.5 19.3-6.9 5.7-5.6 7.3-10.5 7.4-22.1 0-10.3-2.2-17.3-6.8-21.8-5.8-5.6-9.4-6.4-29-7l-17.7-.5.2 47.4zm31.5-26.6c4.1 4.8 2.5 16.7-2.6 19.5-1.1.5-3.6 1-5.5 1H351V136.7l4.7.6c3.5.4 5.3 1.2 7 3.2zm33.3 27V215h43v-18.9l-11.7-.3-11.8-.3-.3-37.8-.2-37.7h-19v47.5zm53 0V215l22.8-.2 22.7-.3.3-9.3.3-9.2H468v-20.9l12.3-.3 12.2-.3v-18l-12.2-.3-12.3-.3V138h27v-18h-46v47.5z"/></svg>