<svg xmlns="http://www.w3.org/2000/svg" role="img" viewBox="1.37 72.62 397.02 99.52"><title>Danos logo</title><defs><style>.cls-1{fill:#00abc8}.cls-2{fill:#00586f}</style></defs><path d="M172.245 91.097a10.11889 10.11889 0 0 0-3.109 7.42366v16.56046h36.03961V87.988h-25.44354a10.19874 10.19874 0 0 0-7.48707 3.109zm28.42562 19.47916h-27.02976V98.52068a5.75311 5.75311 0 0 1 1.7766-4.25116 5.8401 5.8401 0 0 1 4.25116-1.71315h21.002zm-71.76204-30.0753h-27.02972v84.00786h27.02972a24.04629 24.04629 0 0 0 23.98412-24.04756V104.485a24.04644 24.04644 0 0 0-23.98412-23.98412zm19.47917 60.02375a19.60595 19.60595 0 0 1-19.47916 19.54262h-22.52476V85.00582h22.52476a19.49689 19.49689 0 0 1 19.47916 19.47918z" class="cls-1"/><path d="M128.90858 87.988h-7.7409v4.50495h7.7409a12.13421 12.13421 0 0 1 11.99207 11.99205v36.03963a11.64888 11.64888 0 0 1-3.55321 8.5023 11.50779 11.50779 0 0 1-8.43886 3.5532h-15.03766V106.325H109.366v50.76h19.54261a15.67122 15.67122 0 0 0 11.61136-4.88565 15.91272 15.91272 0 0 0 4.88565-11.67481V104.485a16.6842 16.6842 0 0 0-16.497-16.497zm38.00658-2.15733a17.34429 17.34429 0 0 0-5.26635 12.69v66.05149h4.505V98.52068a13.43124 13.43124 0 0 1 13.45141-13.45141h28.55248v79.5029h4.505V80.50086h-32.994a17.19972 17.19972 0 0 0-12.75354 5.32981z" class="cls-1"/><path d="M169.136 164.572h4.505v-42.004h27.03v42.004h4.441v-46.509h-35.976v46.509z" class="cls-1"/><path d="M269.64079 155.56226a4.49078 4.49078 0 0 1-8.37539 2.22075l-.12691-.19035-27.79113-68.90674a1.292 1.292 0 0 0-1.64971-.571 1.38134 1.38134 0 0 0-1.14209 1.45935v75.06141h4.505V105.056l22.01717 54.567.19034.31725a8.5804 8.5804 0 0 0 7.80435 4.63185 9.525 9.525 0 0 0 2.34766-.31725 8.60737 8.60737 0 0 0 4.88566-3.1725 8.84477 8.84477 0 0 0 1.77659-5.52015V80.43741h-4.505v75.12485z" class="cls-2"/><path d="M236.0757 87.29l.06346.19035 27.72767 68.8433a1.4175 1.4175 0 0 0 1.64971.6345 1.38733 1.38733 0 0 0 1.07866-1.45935V80.43741h-4.505v59.51614l-22.01717-54.567-.19035-.3807a9.05119 9.05119 0 0 0-10.152-4.31461 9.27264 9.27264 0 0 0-4.88566 3.236 8.52674 8.52674 0 0 0-1.84 5.52015v75.0614h4.505v-74.998a4.10571 4.10571 0 0 1 3.36284-4.378A4.22771 4.22771 0 0 1 236.0757 87.29zm77.53596-6.78914h-2.98216a24.04631 24.04631 0 0 0-24.04756 23.98414v36.03963a24.04617 24.04617 0 0 0 24.04756 24.04756h2.98216a24.04626 24.04626 0 0 0 23.98411-24.04756V129.294h-4.50493v11.2306a19.606 19.606 0 0 1-19.47918 19.54262h-2.98216a18.54877 18.54877 0 0 1-13.76866-5.774 18.78986 18.78986 0 0 1-5.774-13.76866V104.485a19.606 19.606 0 0 1 19.54266-19.47919h2.98216a19.49693 19.49693 0 0 1 19.47918 19.47919v4.378h4.50493v-4.378a24.04644 24.04644 0 0 0-23.98411-23.98412z" class="cls-2"/><path d="M294.06906 132.5299v7.99471a16.68217 16.68217 0 0 0 16.56046 16.56046h2.98216a15.67118 15.67118 0 0 0 11.61135-4.88565 15.91273 15.91273 0 0 0 4.88567-11.67481V104.485a16.68423 16.68423 0 0 0-16.497-16.497h-2.98216a15.91272 15.91272 0 0 0-11.6748 4.88565 15.67119 15.67119 0 0 0-4.88566 11.61136v22.271h4.505V104.485a11.40619 11.40619 0 0 1 3.5532-8.43886 11.64894 11.64894 0 0 1 8.5023-3.5532h2.98216a12.13421 12.13421 0 0 1 11.992 11.99206v36.0396a11.64892 11.64892 0 0 1-3.55321 8.50231 11.5078 11.5078 0 0 1-8.43885 3.5532h-2.98216A12.13221 12.13221 0 0 1 298.574 140.5246v-7.9947zm59.4527-41.4329a10.11888 10.11888 0 0 0-3.10907 7.42366v5.9643a10.61612 10.61612 0 0 0 10.53273 10.53271h11.99207a13.43124 13.43124 0 0 1 13.45142 13.45141v18.01981a13.43124 13.43124 0 0 1-13.45142 13.45141h-30.01186v4.505h30.01186a17.98052 17.98052 0 0 0 17.95636-17.95637v-17.95638a17.98052 17.98052 0 0 0-17.95636-17.95637h-11.99207a6.06609 6.06609 0 0 1-6.02775-6.02775v-5.9643a5.75321 5.75321 0 0 1 1.77659-4.25116 5.84008 5.84008 0 0 1 4.25116-1.71315h29.94843v-4.505h-29.94843a9.58228 9.58228 0 0 0-7.42366 2.98218z" class="cls-2"/><path d="M360.94538 80.50086a17.98056 17.98056 0 0 0-18.01979 17.95636v5.96431a17.98059 17.98059 0 0 0 18.01979 18.01981h11.99208a5.85278 5.85278 0 0 1 5.96432 5.9643V146.362a5.84014 5.84014 0 0 1-1.71316 4.25115 5.7531 5.7531 0 0 1-4.25116 1.77661h-30.01187v4.505h30.01187a10.50656 10.50656 0 0 0 10.46925-10.53276v-17.82945a10.39912 10.39912 0 0 0-10.46925-10.46926h-11.99208a13.1213 13.1213 0 0 1-9.58094-3.9339 12.97665 12.97665 0 0 1-3.93391-9.581v-5.96427a13.43167 13.43167 0 0 1 13.51485-13.45141h29.94843v-4.63185zM43.88553 90.65287a6.437 6.437 0 0 1 1.84 4.505 4.80233 4.80233 0 0 1-.06345.95175c1.1421.571 2.2842 1.20555 3.36285 1.84a53.42982 53.42982 0 0 1 11.421 9.00991 51.61186 51.61186 0 0 1 7.55056.7614 63.59934 63.59934 0 0 1 8.69265 2.0304 6.457 6.457 0 0 1 5.076-3.0456c0-.19035.06345-.3807.06345-.5076A58.8998 58.8998 0 0 0 82.717 94.904c-.6345-.698-1.269-1.39591-1.9035-2.03041a41.41057 41.41057 0 0 0-25.63387-12.18238 65.1193 65.1193 0 0 0-8.3754 6.91606c-.95175.8883-1.9035 1.9035-2.9187 3.0456zm49.17378 29.18702c-1.84-1.0152-3.74355-2.0304-5.52015-2.85525a6.54849 6.54849 0 0 1-5.32981 2.72835 8.59892 8.59892 0 0 1-1.269-.12689c-.1269.3807-.31725.76139-.44415 1.1421a51.12454 51.12454 0 0 1-3.807 7.42365 6.5168 6.5168 0 0 1-1.7132 10.53271 90.398 90.398 0 0 1 .44415 18.21016 41.37864 41.37864 0 0 0 5.45671-4.63185 41.81482 41.81482 0 0 0 12.18245-32.42298zm-4.3146-6.66225a8.59894 8.59894 0 0 1-.1269 1.269c1.3959.6345 2.72836 1.33245 4.12426 2.09385a41.914 41.914 0 0 0-7.29676-18.27361 80.6734 80.6734 0 0 1-.8883 8.3754c0 .1269-.06345.31725-.06345.44415a6.4811 6.4811 0 0 1 4.25115 6.09121zM39.25367 88.62247a7.72243 7.72243 0 0 1 2.4111.44415c1.07865-1.20555 2.15731-2.34765 3.36286-3.48975a73.46084 73.46084 0 0 1 5.8374-5.076 42.05666 42.05666 0 0 0-25.82417 9.13681 66.74277 66.74277 0 0 1 8.81956 1.9035 6.345 6.345 0 0 1 5.39325-2.91871zm-3.87045 70.17575a6.4811 6.4811 0 0 1-6.0912-4.25116c-1.58625.19036-3.236.25381-4.88566.3807a42.02375 42.02375 0 0 0 15.41836 8.12161c-.95175-1.45936-1.7766-2.98215-2.60145-4.44151-.6345.06346-1.269.19036-1.84005.19036zm36.73758-19.47917a6.18778 6.18778 0 0 1-3.5532-1.07864 53.64523 53.64523 0 0 1-16.81427 10.85 66.96757 66.96757 0 0 1-9.8982 3.236 6.597 6.597 0 0 1-2.34765 4.94911c1.20555 2.1573 2.538 4.37805 3.99735 6.5988a42.32645 42.32645 0 0 0 28.99667-5.13946 85.501 85.501 0 0 0-.2538-19.41571zm-48.85654-18.65431a6.53543 6.53543 0 0 1-.3807-2.22075 6.449 6.449 0 0 1 6.21811-6.47191 51.54065 51.54065 0 0 1 5.2029-12.62655 6.52087 6.52087 0 0 1-1.5228-4.18771 6.99157 6.99157 0 0 1 .1269-1.1421 69.17083 69.17083 0 0 0-10.65961-1.96695 10.1098 10.1098 0 0 0-.82485.82485 41.93612 41.93612 0 0 0-10.40581 42.13083 63.96868 63.96868 0 0 1 6.66226-8.75611 66.23855 66.23855 0 0 1 5.5836-5.5836zm52.47319-7.4871a3.352 3.352 0 0 1 .06345-.82485 59.46649 59.46649 0 0 0-12.75346-2.47456 53.08149 53.08149 0 0 1 9.07336 16.43357h.06345a6.53547 6.53547 0 0 1 2.22075.38069 57.62682 57.62682 0 0 0 4.0608-8.18505 6.54846 6.54846 0 0 1-2.72835-5.3298zm-44.03433 33.69197a64.29884 64.29884 0 0 1-3.0456-10.21546 60.34565 60.34565 0 0 1-1.269-12.0555 6.50078 6.50078 0 0 1-2.66491-1.6497c-1.9035 1.71314-3.5532 3.4263-4.9491 4.9491a71.8475 71.8475 0 0 0-7.55056 10.4058 40.75187 40.75187 0 0 0 9.26371 13.89557c2.538-.06345 5.01255-.25381 7.42366-.44415a6.61061 6.61061 0 0 1 2.7918-4.88566zm24.87242-39.91008a53.161 53.161 0 0 0-11.86516-8.31195 6.51166 6.51166 0 0 1-5.45671 2.98215 6.68188 6.68188 0 0 1-2.7918-.6345A46.80536 46.80536 0 0 0 31.83 112.35279a5.82882 5.82882 0 0 1 1.71315 1.0152 52.66746 52.66746 0 0 1 10.72306-4.505 55.993 55.993 0 0 1 12.30933-1.90346zm12.8169 19.92332A50.6234 50.6234 0 0 0 60.31909 110.83c-.31726-.3807-.698-.82485-1.07865-1.20556a49.055 49.055 0 0 0-14.27626 1.90351 46.49213 46.49213 0 0 0-9.77131 4.0608 6.27065 6.27065 0 0 1 .6345 2.85525 6.52369 6.52369 0 0 1-5.774 6.47191 58.881 58.881 0 0 0 4.0608 20.93851 6.99157 6.99157 0 0 1 1.1421-.1269 6.47033 6.47033 0 0 1 5.9643 3.9339c10.21546-2.60145 18.71777-7.04295 25.31657-13.388a6.6 6.6 0 0 1-1.0152-3.48975 6.70839 6.70839 0 0 1 3.8705-5.90082zm-12.4362 8.05815a7.19456 7.19456 0 0 1-2.09386 5.13945 6.94644 6.94644 0 0 1-5.076 2.09386h-8.43885v-21.25577h3.48975V138.748h4.9491a3.85108 3.85108 0 0 0 2.6649-1.07865 3.65235 3.65235 0 0 0 1.14211-2.6649v-13.89556a3.85108 3.85108 0 0 0-1.07865-2.6649 3.55183 3.55183 0 0 0-2.6649-1.1421h-3.87045v-3.48975h3.87045a7.149 7.149 0 0 1 7.16985 7.16986v13.959z" class="cls-2"/></svg>