<svg xmlns="http://www.w3.org/2000/svg" role="img" viewBox="-3.74 70.50 402.74 101.74"><title>DENT logo</title><defs><style>.cls-1{fill:#00bc70}</style></defs><path d="M103.32211 78.3901h31.322c14.16669 0 25.15072 10.71235 25.15072 24.879v36.48409c0 14.16669-10.984 24.87905-25.15072 24.87905h-31.322V78.3901zm31.05028 71.49328a9.78124 9.78124 0 0 0 9.85847-10.09134V103.308a9.78124 9.78124 0 0 0-9.85847-10.09134h-15.52514v56.70554h15.52514z" class="cls-1"/><path fill="#06262d" d="M179.046 164.671V78.39h55.075v14.788h-39.55v20.959h31.788v14.787h-31.788v20.959h39.55v14.788h-55.075zm123.308 0l-32.913-55.347-.737-3.687v59.034h-15.525V78.39h13.662l32.913 55.347.737 3.687V78.39h15.564v86.281h-13.701zm68.622-71.493v71.493H355.45V93.178h-20.338V78.39h56.202v14.788h-20.338zM40.98866 78.3901H4v14.39957h36.98866a28.76033 28.76033 0 1 1 0 57.52065H4v14.39957h36.98866a43.1599 43.1599 0 1 0 0-86.31979"/><path d="M40.98866 98.9221H4v45.17817h36.98866a22.58909 22.58909 0 0 0 0-45.17817zm0 30.81741h-22.6279v-16.41784h22.6279a8.20894 8.20894 0 1 1 0 16.41784z" class="cls-1"/></svg>