<svg xmlns="http://www.w3.org/2000/svg" role="img" xmlns:xlink="http://www.w3.org/1999/xlink" viewBox="-0.73 60.52 401.70 123.70"><title>DPDK logo</title><defs><linearGradient id="linear-gradient" x1="541.485" x2="604.967" y1="2810.33" y2="2810.33" gradientTransform="scale(1 -1) rotate(20.573 8398.186 -66.39)" gradientUnits="userSpaceOnUse"><stop offset=".15" stop-color="#ef4e23"/><stop offset=".701" stop-color="#782b8f"/><stop offset=".763" stop-color="#802a8f"/><stop offset="1" stop-color="#9b258e"/></linearGradient><linearGradient id="linear-gradient-2" x1="549.187" x2="636.511" y1="2810.331" y2="2810.331" xlink:href="#linear-gradient"/><linearGradient id="linear-gradient-3" x1="520.674" x2="620.738" y1="2810.333" y2="2810.333" xlink:href="#linear-gradient"/><style>.cls-4{fill:#00233b}</style></defs><path fill="url(#linear-gradient)" d="M80.43051 135.214l-28.31308 9.69273c-1.24527.46844-2.32657.65581-2.795-.58945s.47234-1.81519 1.7176-2.28363l27.70021-11.33226a13.40915 13.40915 0 1 0-9.42338-25.10819l-40.41827 14.23268c-1.24526.46844-2.32657.65581-2.795-.58945s.47234-1.81519 1.71761-2.28363l39.80148-15.87219A18.22862 18.22862 0 1 1 80.43051 135.214z"/><path fill="url(#linear-gradient-2)" d="M91.51683 164.745L58.3125 176.27248c-1.24526.46844-2.32657.65581-2.795-.58946s.47234-1.81518 1.7176-2.28363l32.58756-13.167A44.95372 44.95372 0 1 0 58.23052 76.0583L25.02618 87.58574c-1.24526.46844-2.32657.65581-2.795-.58945s.47234-1.81519 1.7176-2.28363l32.58756-13.167A49.77387 49.77387 0 0 1 91.51683 164.745z"/><path fill="url(#linear-gradient-3)" d="M85.97367 149.97757l-59.89741 21.54808c-1.24526.46844-2.32657.65581-2.795-.58945s.47233-1.81519 1.7176-2.28363L84.27949 145.465a29.1827 29.1827 0 1 0-20.50971-54.64315l-53.636 19.19809c-1.24526.46844-2.32657.65581-2.795-.58945s.47234-1.81519 1.7176-2.28362l53.02313-20.83762a34.00215 34.00215 0 0 1 23.89416 63.66832z"/><path d="M154.95875 90.17385h16.22351c16.59437 0 27.92663 10.5203 27.92663 25.928s-11.33226 25.928-27.92663 25.928h-16.22351zm15.63016 48.448c15.40766 0 24.74126-9.03692 24.74126-22.52008s-9.3336-22.52009-24.74126-22.52009h-11.9256v45.04017z" class="cls-4"/><path d="M171.18226 142.68168h-16.87542V89.52194h16.87542c8.31085 0 15.44279 2.54517 20.63073 7.35836 5.19965 4.8288 7.94781 11.47279 7.94781 19.21761s-2.74816 14.3927-7.9478 19.2176c-5.188 4.82099-12.31989 7.36617-20.63074 7.36617zm-15.57161-1.30382h15.57161c7.97513 0 14.80259-2.42416 19.74461-7.01093 4.92639-4.57506 7.534-10.89115 7.534-18.26512s-2.60373-13.69006-7.534-18.26512c-4.942-4.58678-11.76947-7.01093-19.74461-7.01093h-15.57161zm14.97826-2.10406h-12.57752v-46.344h12.57752c7.65894 0 14.08432 2.20555 18.593 6.37854 4.45014 4.12224 6.80014 9.927 6.80014 16.79345s-2.35 12.67121-6.80014 16.79345c-4.50477 4.17301-10.93406 6.37856-18.593 6.37856zm-11.2737-1.3038h11.2776c7.32323 0 13.448-2.08454 17.70689-6.03111 4.1769-3.86851 6.38245-9.34531 6.38245-15.83706s-2.20946-11.96856-6.38245-15.83706c-4.25887-3.94658-10.38367-6.03112-17.70689-6.03112H159.3152V137.97zM223.612 90.17385h21.63005c10.372 0 16.07517 5.70321 16.07517 14.00234 0 8.29523-5.70321 14.07652-16.07517 14.07652h-17.9255v23.77706H223.612zm21.26313 24.66708c8.14689 0 12.74148-3.85289 12.74148-10.66864 0-6.74158-4.59459-10.59447-12.74148-10.59447h-17.55464V114.837h17.55465z" class="cls-4"/><path d="M227.96846 142.68168H222.964V89.52194h22.282c10.31731 0 16.72707 5.61343 16.72707 14.65035a13.917 13.917 0 0 1-4.36035 10.62961c-2.93945 2.67789-7.21392 4.09491-12.36672 4.09491h-17.2775v23.78487zm-3.70455-1.30382h2.40075V117.6008h18.57742c4.821 0 8.791-1.29991 11.4884-3.75529a13.79986 13.79986 0 0 0 0-19.29959c-2.68961-2.43587-6.66351-3.72016-11.4884-3.72016h-20.97814v50.5521zm20.61123-25.885h-18.20657v-22.563h18.20657c8.50992 0 13.39338 4.09882 13.39338 11.24247-.00391 7.19437-4.88346 11.32051-13.39338 11.32051zm-16.90668-1.29991h16.90665c7.79556 0 12.08956-3.55621 12.08956-10.01674 0-6.40977-4.294-9.94256-12.08956-9.94256h-16.90665zm56.14993-24.0191h16.22352c16.59436 0 27.92661 10.5203 27.92661 25.928s-11.33227 25.928-27.92661 25.928h-16.22352zm15.63016 48.448c15.40764 0 24.74125-9.03692 24.74125-22.52008s-9.33359-22.52009-24.74125-22.52009h-11.92561v45.04017z" class="cls-4"/><path d="M300.34191 142.68168h-16.87542V89.52194h16.87542c8.31083 0 15.44278 2.54517 20.63071 7.35836 5.19965 4.8288 7.9478 11.47279 7.9478 19.21761s-2.74815 14.3927-7.9478 19.2176c-5.18793 4.82099-12.31988 7.36617-20.63071 7.36617zm-15.57162-1.30382h15.57162c7.97512 0 14.80258-2.42416 19.7446-7.01093 4.92639-4.57506 7.534-10.89115 7.534-18.26512s-2.60372-13.69006-7.534-18.26512c-4.942-4.58678-11.76948-7.01093-19.7446-7.01093h-15.57162zm14.97826-2.10406H287.171v-46.344h12.57751c7.65893 0 14.08433 2.20555 18.593 6.37854 4.45016 4.12224 6.80013 9.927 6.80013 16.79345s-2.35 12.67121-6.80013 16.79345c-4.50473 4.17301-10.93403 6.37856-18.59296 6.37856zm-11.27371-1.3038h11.27761c7.32323 0 13.448-2.08454 17.7069-6.03111 4.17689-3.86851 6.38243-9.34531 6.38243-15.83706s-2.20944-11.96856-6.38243-15.83706c-4.25886-3.94658-10.38367-6.03112-17.7069-6.03112h-11.27761zm64.29682-47.79615h3.70455v22.81676l26.07629-22.81676h5.10987l-27.0366 23.77706 31.18617 28.075h-5.55487l-29.78084-26.89215v26.89215h-3.70455v-51.852z" class="cls-4"/><path d="M393.51 142.68168h-7.50278l-.18737-.16786-28.69173-25.90844v26.0763h-5.00447V89.52194h5.00447v22.03213l25.17846-22.03213h7.0812l-27.78608 24.43677zm-7.00313-1.30382h3.61087L359.646 113.947l26.291-23.12124h-3.14242l-26.54864 23.23055zm-33.08332 0h2.40074v-50.5521h-2.40074z" class="cls-4"/></svg>