<svg xmlns="http://www.w3.org/2000/svg" role="img" viewBox="-3.09 -3.21 160.42 147.67"><title>EdgeXFoundry logo</title><style>svg {enable-background:new 0 0 153 141.4}</style><path fill="#3e1a54" d="M0 141.4c7.3-10.1 14.6-20.2 22-30.2 9.4-12.7 19-25.3 28.7-37.8 2-2.6 2.3-4.4.1-7.3C35.2 45.9 19.9 25.5 4.6 5.2c-1-1.3-1.9-2.7-2.9-4.1C8.7-1 10.1-.6 14 4.6 29.5 25 45 45.4 60.6 65.8c2.2 2.8 1.8 4.6-.2 7.3-14.1 18.5-28.1 37.2-42.1 55.8-1 1.3-1.9 2.7-3.1 4.4 4.6 1.2 7.9 1 11-3.2 31.9-42.3 64-84.3 95.9-126.6C124 1 126-.1 129.1 0c7.6.2 15.3.1 23.8.1-1.3 2-2.1 3.3-3 4.6-18.5 24.4-37 48.8-55.7 73.1-2.5 3.3-2.9 5.4-.1 8.9 10.8 13.6 21.1 27.4 31.7 41.2-6.6 2.2-8.6 1.6-12.4-3.4C103.7 111.7 94 98.8 84.1 86c-2.1-2.7-2.3-4.4-.1-7.3 17.2-22.5 34.2-45.1 51.3-67.6.8-1 1.4-2.1 2.3-3.5-5.1-1.1-8.6-.5-11.9 3.9-31.3 41.6-62.8 82.9-94.2 124.2-1.6 2.1-3.6 3.8-5.5 5.7H0z"/><path fill="#902c4b" d="M154.3 140.7c-15.9 0-30.5.1-45.1-.2-1.8 0-3.9-2.3-5.2-4-8.6-10.8-17-21.8-25.4-32.7-.5-.6-1.1-1.2-2.1-2.4-5.9 7.6-11.6 14.9-17.2 22.2-3.1 3.9-6.5 7.7-9 11.9-3 5-6.9 6.2-13 4.6 13-17 25.7-33.7 38.9-50.9 2.6 3.1 5 5.8 7.2 8.6 8.7 11.1 17.3 22.3 26.1 33.4 1 1.3 2.8 2.7 4.3 2.8 8.1.3 16.3.1 26 .1-13.5-17.6-26.2-34.2-39.2-51.2 1.5-2 3-3.9 4.8-6.1 16.2 21.1 32.2 42 48.9 63.9zM33.9 7.4c11.4 14.7 22.3 28.7 33.7 43.3 3.3-4.1 6.4-7.9 9.4-11.8 8.4-11.2 17-22.4 25.2-34C105.4.4 108.9-1 114.9.7 99.2 21.5 83.8 41.9 67.8 63.2c-16.4-21.1-32.3-41.6-49-63 10 0 18.7-.1 27.5.1 1.1 0 2.5 1.5 3.3 2.6 6.4 8.3 12.6 16.8 19.3 24.9 3.5 4.3 3 7.2-1.5 10.4-5.5-7.2-11-14.2-16.5-21.3-1.5-2-3-4-4.6-5.9-3.8-4.9-4-5-12.4-3.6z"/></svg>