<svg xmlns="http://www.w3.org/2000/svg" role="img" viewBox="-13.74 -13.74 1026.48 286.48"><title>EMCO logo</title><style>svg {enable-background:new 0 0 1000 260}</style><style>.st2{fill:#212b5d}</style><path fill="#485ca9" d="M880.12238 64.32488c5.06988-7.01963 14.87243-8.60166 21.89544-3.53174l37.53443 27.10787c5.52948-5.46247 8.96173-13.04374 8.96173-21.43078 0-16.64125-13.4903-30.13194-30.1311-30.13194-2.96339 0-5.82386.43473-8.52833 1.23164.01606-.409.03125-.81842.03125-1.23164 0-16.64125-13.49115-30.13193-30.13195-30.13193-8.9972 0-17.06836 3.94832-22.58948 10.20097-5.52106-6.25264-13.59229-10.20097-22.58948-10.20097-16.6408 0-30.1319 13.49068-30.1319 30.13193 0 .30908.01429.6152.02356.92215-13.05511 3.3049-22.71509 15.12795-22.71509 29.20979 0 16.64126 13.49024 30.13194 30.1311 30.13194H898.029l-14.37488-10.38186c-7.023-5.06992-8.60168-14.87243-3.53173-21.89543z"/><circle cx="865.133" cy="157.903" r="37.637" class="st2"/><path d="M767.90277 128.62816c0-8.66237-7.0196-15.682-15.68194-15.682-8.66242 0-15.68201 7.01963-15.68201 15.682 0 7.66138.71173 15.15536 2.0028 22.45158l30.31324-8.99843c-.61218-4.40075-.95209-8.8871-.95209-13.45315zm139.79968 87.39662l-13.16894 37.76845c46.03406-10.81322 82.60712-46.40299 94.80542-91.89269l-30.0628-8.9242c-7.17817 27.7361-26.32526 50.7-51.57368 63.04844zm59.77228-52.65395c2.26929 0 4.10938 1.8401 4.10938 4.10984 0 2.26973-1.8401 4.10981-4.10938 4.10981-2.2702 0-4.11029-1.84008-4.11029-4.10981 0-2.26975 1.84009-4.10984 4.1103-4.10984zM770.85266 152.397l-30.08722 8.93138c12.0423 45.76587 48.73847 81.60738 94.96735 92.46527l-13.169-37.7676c-25.42298-12.43403-44.65015-35.63445-51.71113-63.62905zm-8.34442 19.1935c-2.2702 0-4.1103-1.8401-4.1103-4.10982 0-2.26975 1.8401-4.10984 4.1103-4.10984 2.26929 0 4.10937 1.8401 4.10937 4.10984 0 2.26973-1.84008 4.10981-4.10937 4.10981zm229.11182-19.92127c1.35943-7.48175 2.10827-15.1735 2.10827-23.04106 0-8.66237-7.01965-15.682-15.682-15.682-1.13764 0-2.24152.13535-3.3108.36515-3.83868.82601-7.12756 3.0692-9.35723 6.14049l-69.48285-50.18181c-2.33087-1.6866-5.6029-1.1705-7.29627 1.17725-1.68994 2.341-1.1637 5.60625 1.17725 7.29622l72.54907 52.39631c-.06323 4.1385-.38116 8.21458-.94781 12.21352-.01606.10794-.02619.21798-.04218.32635l30.28455 8.98958zM892.295 227.81v-29.012l-27.162 14.506zm-54.323 0l27.161-14.506-27.161-14.506v14.506z" class="st2"/><path d="M6.27168 68.66292h127.38884v37.10856H49.71511v24.20945h76.02514v34.61912H49.71511v25.11684h85.07544v37.33456H6.27168V68.66292zm151.13616 0h46.38485l37.78658 61.318 37.78657-61.318h46.38483v158.38853h-43.6694v-90.9583l-40.502 61.99602h-.90402l-40.27599-61.77002v90.7323h-42.99142V68.66292zm191.18277 79.64796v-.452c0-46.15885 35.29715-82.3634 83.26742-82.3634 32.35572 0 53.17172 13.57713 67.20084 32.8111l-33.03372 25.56548c-9.05368-11.08433-19.46-18.5526-34.61914-18.5526-22.17542 0-37.78656 19.00798-37.78656 42.0874v.45201c0 23.75743 15.61114 42.31003 37.78656 42.31003 16.5152 0 26.24685-7.69089 35.74914-19.2306l33.03375 23.53143c-14.93316 20.59-35.07113 35.74916-69.91629 35.74916-45.25146 0-81.682-34.61914-81.682-81.908zm160.86447 0v-.452c0-45.48084 36.65655-82.3634 85.53082-82.3634 48.87091 0 85.07544 36.43055 85.07544 81.91138v.45201c0 45.47746-36.65655 82.36002-85.53082 82.36002-48.87091 0-85.07544-36.42717-85.07544-81.908zm125.57745 0v-.452c0-23.07943-16.28918-42.76542-40.50201-42.76542-24.20948 0-40.27265 19.45998-40.27265 42.3134v.45201c0 22.85343 16.5152 42.76204 40.72803 42.76204 23.98346 0 40.04663-19.4566 40.04663-42.31003z" class="st2"/></svg>