<svg xmlns="http://www.w3.org/2000/svg" role="img" viewBox="-3.81 61.19 406.38 118.63"><title>Emco logo</title><path d="M61.65516 170.68673H4V70.57943h57.65516V87.984H25.22607v21.97377h33.89525v17.40454H25.22607v25.79529h36.42908v17.52916zm63.26284 0L100.82578 92.1378h-.62308c.87231 15.99225 1.28769 26.62605 1.28769 31.98449v46.56443h-18.983V70.57943H111.418l23.67683 76.55508h.41539l25.17221-76.55508h28.91066v100.1073h-19.7722v-47.3952c0-2.24307.04154-4.81845.08308-7.72613.08309-2.90768.37385-10.67534.91385-23.26144h-.62307l-25.79529 78.4243H124.918zM257.30054 86.8209q-11.963 0-18.56762 9.01382c-4.40305 5.98151-6.56305 14.33071-6.56305 25.08913q0 33.45909 25.13067 33.47987 10.53 0 25.546-5.27537v17.81994a71.34641 71.34641 0 0 1-27.53988 5.15074q-21.86991 0-33.39681-13.25071-11.58918-13.27149-11.58918-38.04908c0-10.42611 1.91077-19.523 5.69075-27.37374A41.23757 41.23757 0 0 1 232.336 75.39788q10.65456-6.29305 24.96451-6.27229a67.68008 67.68008 0 0 1 29.326 7.06151l-6.85382 17.2384a113.61141 113.61141 0 0 0-11.29842-4.65229 34.80084 34.80084 0 0 0-11.17373-1.95231zM395 120.50846q0 24.86067-12.33688 38.21524c-8.22458 8.88919-19.97991 13.33379-35.34908 13.33379s-27.12451-4.44459-35.34904-13.33379-12.33688-21.683-12.33688-38.33985 4.1123-29.36758 12.3784-38.1737S332.06948 69.001 347.4802 69.001c15.36917 0 27.16606 4.4446 35.30756 13.29226S395 103.89314 395 120.50846zm-73.06585 0q0 16.7607 6.35535 25.25529 6.35537 8.47382 19.02454 8.47381 25.42143 0 25.42144-33.77064 0-33.83295-25.25528-33.81217c-8.43227 0-14.82918 2.8246-19.10762 8.51535s-6.43843 14.12302-6.43843 25.33836z"/></svg>