<svg xmlns="http://www.w3.org/2000/svg" role="img" viewBox="-7.75 -7.75 403.00 229.00"><title>FD logo</title><path fill="#EA1B24" d="M171.693 47.297c10.512 6.515 20.342 4.727 30.092-.035 2.611-1.275 5.201-2.628 7.661-4.169 8.69-5.442 18.594-6.448 28.368-8.01 4.675-.747 9.367-1.504 13.954-2.645 5.599-1.393 9.472-5.076 12.689-9.857 4.807-7.143 10.07-13.98 15.152-20.937.237-.324.6-.556 1.093-1 .527.966.967 1.772 1.522 2.79.785-.965 1.48-1.82 2.793-3.435.321 2.259.536 3.774.796 5.601 3.139.065 6.651.404 8.593 4.147.223.43 1.344.479 2.063.548 1.608.154 3.271.008 4.825.364 1.343.308 3.687 1.25 3.641 1.719-.167 1.692-.77 3.689-1.93 4.85-1.634 1.636-3.868 2.705-5.921 3.884-4.143 2.38-6.014 5.999-6.082 10.673-.022 1.511-.277 3.059-.038 4.528 1.3 8.018-2.071 14.432-7.302 19.861-5.075 5.267-8.266 11.442-10.863 18.118-2.206 5.669-1.202 9.007 3.811 12.371 1.65 1.107 2.879 2.824 4.405 4.143.727.628 1.654 1.082 2.561 1.433 4.576 1.772 9.644 2.759 13.675 5.36 10.174 6.566 12.731 16.886 10.896 28.086-1.137 6.94-3.731 13.681-6.057 20.377-4.383 12.617-8.857 25.21-13.651 37.675-3.733 9.706-9.131 18.296-18.37 23.915-5.994 3.645-12.635 5.308-19.405 5.368-28.388.251-56.779.106-86.001.106 2.363-4.704 4.272-9.23 6.799-13.38 4.883-8.017 10.589-15.379 20.161-18.158 2.949-.856 6.151-1.131 9.241-1.157 14.037-.118 28.076-.097 42.113-.003 2.122.014 3.302-.495 4.062-2.605 6.281-17.425 12.662-34.814 19.001-52.218.064-.176-.032-.411-.085-.926h-22.419c3.133-3.406 6.168-6.115 8.469-9.348 3.296-4.632 6.363-9.488 8.949-14.544 2.166-4.236 3.327-8.636 2.491-13.866-1.042-6.52-.553-13.313-.419-19.982.098-4.86-2.257-8.162-6.235-8.443 1.215 1.598 2.759 3.311 3.92 5.253.98 1.64.339 2.652-1.698 3.162-5.52 1.383-10.855.873-16.18-.878-4.394-1.445-8.842-2.726-13.212-4.237-.836-.289-1.808-1.201-2.039-2.017-.52-1.837-.615-3.795-1.508-5.774-.146 2.152-.807 4.425-.338 6.433 1.198 5.124-.856 8.881-4.392 12.054-2.557 2.295-5.491 4.165-8.138 6.368-1.806 1.502-3.731 3.03-5.03 4.937-2.378 3.491.222 8.124 4.347 8.128 11.878.013 23.756.005 35.635.005h4.463c-5.711 13.624-11.62 26.15-25.985 31.626-2.718 1.036-5.929 1.025-8.917 1.063-9.825.124-19.653.113-29.478 0-2.317-.027-3.471.68-4.173 2.954-1.395 4.522-3.116 8.944-4.875 13.896h31.418c-6.114 16.752-21.668 32.827-40.824 32.885-2.078.006-2.729 1.026-3.328 2.722-3.801 10.762-7.767 21.467-11.499 32.253-1.045 3.02-2.43 4.304-5.919 4.221-11.764-.281-23.538-.107-35.308-.107h-4.256c1.802-5.137 3.429-9.773 5.222-14.885-1.487-.07-2.708-.178-3.93-.179-22.353-.01-44.705.003-67.058-.016-5.025-.004-7.995-3.771-5.779-7.68.849-1.497 2.985-2.658 4.759-3.132 2.018-.539 4.286-.146 6.446-.147 28.076-.002 56.152.013 84.227-.038 1.676-.003 3.486-.222 4.995-.885 2.395-1.053 3.469-3.225 3.108-5.839-.369-2.672-1.784-4.639-4.594-5.185-1.151-.224-2.356-.237-3.537-.238-18.357-.014-36.715.005-55.072-.033-1.814-.004-3.809.089-5.396-.604-2.32-1.013-3.551-3.218-3.107-5.839.436-2.579 2.12-4.204 4.77-4.56 1.276-.172 2.587-.105 3.882-.105 17.385-.005 34.771-.003 52.156-.006 1.08 0 2.165.041 3.238-.054 3.427-.303 5.745-2.668 5.767-5.812.024-3.379-2.256-5.91-5.717-6.282-.963-.103-1.949.01-2.912-.093-3.235-.346-5.105-2.411-5.103-5.562.002-2.993 2.113-5.597 5.19-5.385 3.742.258 5.16-1.202 6.222-4.667 2.144-6.994 4.976-13.775 7.405-20.686 5.208-14.82 17.15-23.474 32.772-23.594 5.939-.046 11.878-.008 17.817-.009h3.606c-.159-1.788-.248-3.167-.409-4.537-.547-4.656.475-8.507 4.307-11.78 3.697-3.158 3.709-4.505 1.435-8.744-3.012-5.614-3.005-11.064.062-16.758-3.656 4.932-6.632 10.744-13.816 11.156.145-.44.305-.929.585-1.779-4.582 1.909-9.07 4.909-13.595 1.042-3.798-3.238-4.917-7.891-5.73-13.231z"/><path fill="#3E3E3F" d="M363.459 213.352c-11.816.512-23.206-8.345-23.466-23.008-.246-13.843 9.958-23.83 24.051-23.797 13.989.032 23.734 9.817 23.66 23.757-.074 13.958-9.663 23.074-24.245 23.048zm.275-7.737c8.992.028 15.924-6.359 15.905-15.16-.021-9.8-6.961-16.255-15.603-16.191-9.15.068-15.777 6.483-15.856 15.541-.079 9.104 6.49 15.781 15.554 15.81z"/><path fill="#EA1B24" d="M75.279 151.878c-12.194 0-24.387-.007-36.581.005-2.768.003-4.79-1.079-5.745-3.783-.857-2.425-.251-4.577 1.751-6.049 1.047-.77 2.55-1.289 3.849-1.293 24.495-.074 48.99-.072 73.485-.035 3.511.005 5.894 2.358 5.895 5.503.002 3.457-2.206 5.616-6.073 5.633-12.194.053-24.387.02-36.581.019zm25.511-23.49c-10.254 0-20.508.008-30.762-.004-4.224-.005-6.487-1.898-6.541-5.409-.054-3.523 2.223-5.586 6.392-5.591 20.616-.025 41.231-.026 61.847.001 4.096.005 6.424 2.146 6.407 5.675-.017 3.494-2.254 5.32-6.582 5.324-10.253.011-20.507.004-30.761.004z"/><path fill="#3E3E3F" d="M327.897 167.419v45.052c-2.184 0-4.314.166-6.39-.095-.671-.085-1.714-1.287-1.719-1.985-.103-13.58-.061-27.161-.1-40.742-.005-1.693.671-2.318 2.312-2.247 1.82.077 3.645.017 5.897.017z"/><path fill="#EA1B24" d="M12.756 198.479c-2.586 0-5.18.122-7.757-.031-3.221-.19-5.026-2.299-4.999-5.521.027-3.168 1.947-5.387 5.126-5.464 5.171-.126 10.35-.126 15.52.015 3.013.082 5.178 2.582 5.2 5.543.019 2.719-2.431 5.337-5.329 5.472-2.581.12-5.173.025-7.76.025 0-.012-.001-.025-.001-.039z"/><path fill="#3E3E3F" d="M306.512 207.536c-.027 3.861-2.174 5.898-6.119 5.805-3.537-.084-5.5-2.12-5.494-5.698.007-3.817 2.073-5.965 5.682-5.908 3.606.057 5.955 2.354 5.931 5.801zm17.67-57.646c3.473.028 5.007 1.389 5.011 4.442.004 3.207-1.757 4.939-5.042 4.959-3.223.02-5.251-1.828-5.263-4.794-.012-3.104 1.748-4.636 5.294-4.607z"/></svg>