<svg xmlns="http://www.w3.org/2000/svg" role="img" viewBox="-6.06 -5.81 302.12 72.12"><title>GenxComm logo</title><style>svg {enable-background:new 0 0 290.5 61}</style><style>.st0{fill:#e86024}.st1{fill:#46b149}</style><path d="M290.5 44.8l-.3.6c-.1.2-.3.4-.5.5-1 .5-2.1-.2-2.1-1.3v-.3-11c0-.5-.1-1-.2-1.5-.2-.9-.6-1.7-1.3-2.3-.8-.8-1.8-1.4-2.9-1.7-1.9-.5-4.6.3-5.9 2.6-.2.4-.4.9-.6 1.3-.1.2-.1.4-.1.6v11.4c0 .5-.1 1-.2 1.4-.2.7-.7.9-1.3.9-.6.1-.9-.3-1.2-.7-.2-.3-.3-.7-.3-1.1v-9.1-2.6c0-.4-.1-.8-.3-1.2-.7-1.7-1.9-2.8-3.6-3.4-2.7-.9-5 .4-6.3 2.1-.7.8-.9 1.8-.9 2.9v10.7c0 .5-.1 1-.2 1.5-.1.3-.3.6-.6.7-.2.1-.3.1-.5.2-.6.1-1.1-.1-1.3-.6-.2-.4-.3-.7-.3-1.2V26.5c0-.3 0-.6.1-.8.2-.5.6-.8 1.2-.8s1.1.2 1.3.7c.1.2.2.4.3.7 0 .1.1.2.1.4l.6-.3c1.1-.8 2.3-1.2 3.5-1.4 1.3-.2 2.6-.1 3.9.3 1.3.4 2.4 1.2 3.4 2.1l.7.7c.2.3.4.3.6 0 .3-.3.7-.6 1-1 .9-.9 2-1.5 3.2-1.9.4-.1.8-.2 1.2-.2.7-.1 1.3 0 2-.1.8 0 1.5.1 2.2.4 2.4 1 4.1 2.6 5 5 .2.5.3 1 .3 1.6 0 .3 0 .6.3.8v12.1zm-265.9-17C23 26.5 22 25 21.7 23.1c-.2-1.6.1-3.1.7-4.6.9-2.1 2.3-3.9 3.9-5.6.8-.8 1.8-1.6 2.7-2.3 2-1.6 4.4-2.5 6.9-3.1.8-.2 1.6-.3 2.4-.4.5 0 1.1-.1 1.7-.1h1.1c1.6 0 3.1.1 4.6.4 1.5.3 3 .7 4.5 1.3 1.4.5 2.7 1.1 4 1.9 2.4 1.5 4.5 3.2 6.3 5.4.8 1 1.5 2.1 2.2 3.3.1.1.1.2.2.3-.1 0-.2 0-.3-.1-.5-.2-1-.5-1.4-.9-.7-.6-1.3-1.2-2-1.8-.6-.6-1.3-1-2.1-1.3-.7-.2-1.4-.2-2.1.1-.2.1-.5.2-.8.3.1.2.2.3.3.5.4.8.9 1.5 1.3 2.3 1.3 2.4 2.2 4.9 2.8 7.5.6 2.5.8 5 .7 7.6-.1 2.5-.4 5-1.1 7.4-.8 2.7-1.9 5.2-3.4 7.6-.9 1.4-1.9 2.7-3 3.8-3 3.1-6.5 5.5-10.7 6.8-1.1.4-2.3.7-3.4 1l-1.2.3c.1-.2.2-.2.3-.2 1.2-.6 2.4-1.1 3.6-1.7 2.9-1.4 5.4-3.3 7.7-5.5 2.2-2.1 4-4.5 5.4-7.3.9-1.8 1.5-3.7 2-5.7.2-.9.3-1.7.3-2.6 0-.2.1-.5.1-.7 0-.8 0-1.7-.1-2.5s-.2-1.7-.4-2.5c-.6-2.6-1.6-5-3.2-7.1-.9-1.2-1.9-2.3-3.1-3.3-2.2-1.8-4.7-2.9-7.4-3.4-.7-.1-1.4-.2-2-.2-.3 0-.6-.1-.9-.1-1.3 0-2.6.2-3.9.7-2.5.8-4.5 2.3-6.2 4.2-1.2 1.3-2.3 2.7-3.4 4.2-.3.4-.5.6-.7.8z" class="st0"/><path d="M38.1 33.1c.1.1.2.1.2.2.5.5 1.1 1 1.5 1.7.7.9 1 1.9 1.2 3 .2 1 0 2.1-.2 3.1-.4 1.6-1.3 3.1-2.3 4.4-1.7 2.4-3.9 4.3-6.4 5.9-1 .7-2.1 1.1-3.3 1.4-1.5.5-3.1.8-4.6 1-1 .2-2.1.1-3.2.1-1.2 0-2.3-.1-3.5-.3-3.4-.5-6.5-1.7-9.4-3.5-1.4-.9-2.7-1.8-3.9-3-1.6-1.5-2.9-3.2-4-5.1-.1-.2-.3-.4-.3-.7.1 0 .2.1.3.1.5.2.9.5 1.3.9l2.1 1.8c.5.3.9.6 1.4.9 1 .5 2 .5 3 .2.2-.1.5-.2.7-.3-.1-.2-.1-.3-.2-.4-1.7-2.6-3-5.4-3.8-8.4-.2-.8-.5-1.7-.6-2.5-.1-.6-.2-1.1-.3-1.7 0-.3-.1-.7-.1-1v-.4c-.1-1.2-.1-2.4-.1-3.6 0-.7.1-1.4.2-2.1 0-.8.1-1.5.2-2.2.1-.7.2-1.3.4-1.9.6-2.1 1.2-4.1 2.2-6 1-1.9 2.1-3.7 3.5-5.4 2.1-2.5 4.6-4.6 7.5-6.2 1.8-1 3.6-1.7 5.6-2.3 1-.3 2-.6 3-.8h.2c-.1 0-.2.1-.3.1-1 .4-2 .8-2.9 1.3-2.3 1.2-4.6 2.6-6.6 4.3-.7.6-1.5 1.2-2.1 1.9-.6.6-1.1 1.2-1.6 1.8-.6.7-1.2 1.5-1.8 2.3-.9 1.4-1.8 2.9-2.4 4.5-.4 1-.7 2-1 3.1-.3 1.1-.5 2.1-.5 3.2-.2.5-.2 1.1-.2 1.7 0 1.1.1 2.1.2 3.1.3 2.1 1 4 1.9 5.9 1 2 2.3 3.8 4 5.3 2.1 1.9 4.6 3.2 7.4 3.8 1.2.3 2.4.4 3.6.4 2 0 3.8-.5 5.5-1.3C30.8 40.8 32 40 33 39c1.1-1 2-2.1 2.9-3.2.7-.9 1.3-1.7 2-2.6.1 0 .2-.1.2-.1z" class="st1"/><path d="M225.2 35.5v-8.9c0-.2 0-.5.1-.7.1-.4.4-.7.8-.9.3-.1.6-.1 1 0 .5.1.7.5.8.9 0 .1.1.3.1.4.1.3.3.4.6.2.2-.1.3-.2.4-.3.7-.5 1.5-.9 2.4-1.1.3-.1.6-.2.9-.2h2.7c1 0 1.9.4 2.8.9.8.5 1.5 1.1 2.2 1.8l.4.4c.2.2.4.2.6 0l.3-.3c1-1.1 2.1-2 3.6-2.5 1-.3 1.9-.4 2.9-.4h.6c.6 0 1.2.1 1.7.3 1.5.5 2.9 1.3 4 2.6.8 1 1.4 2.1 1.8 3.4.1.3.1.6.1 1V44.7c0 .5-.2.8-.6 1.1-.5.4-1 .4-1.5 0-.4-.3-.6-.7-.6-1.2v-2.3-8.4c0-.8-.1-1.6-.3-2.4-.1-.3-.2-.6-.3-.8-.8-1.3-1.9-2.3-3.4-2.7-2.1-.6-4.8 0-6.3 2.3-.5.7-.7 1.5-.8 2.3-.1.8-.1 1.6-.1 2.3V44.8c0 .7-.7 1.3-1.4 1.3-.6 0-1.3-.6-1.3-1.2v-.5-9.5V33c-.2-2.3-1.4-3.9-3.5-4.8-2.2-.9-4.1-.5-5.8 1.1-.8.7-1.4 1.6-1.7 2.6-.2.7-.2 1.4-.2 2.1v10c0 .3 0 .7-.1 1 0 .4-.3.7-.7 1-.5.3-.9.3-1.3 0-.5-.3-.7-.7-.7-1.2v-1.4c-.2-2.7-.2-5.3-.2-7.9z" class="st0"/><path d="M94.4 37v4.6c0 .6-.2 1.1-.7 1.5-.5.4-1 .7-1.5 1.1-1.1.7-2.2 1.3-3.5 1.6-.5.1-.9.3-1.4.4H87c-.8 0-1.6.1-2.4.1-1.3.1-2.5-.2-3.7-.6-1.9-.6-3.6-1.5-5.1-2.9-.8-.8-1.6-1.7-2.3-2.6-.8-1-1.4-2.1-1.9-3.4-.3-1-.7-2-.9-3-.1-.4-.1-.8-.1-1.2 0-.6-.1-1.2-.1-1.8 0-.4.1-.7.1-1.1 0-.6 0-1.2.1-1.8.2-1.5.6-3 1.4-4.4.3-.5.5-1 .8-1.5.1-.1.1-.2.2-.3.8-1 1.6-2 2.6-2.9 1.8-1.7 3.8-2.8 6.2-3.3 1.1-.2 2.3-.3 3.4-.3 1.3.1 2.6.2 3.9.6 1.8.6 3.3 1.5 4.7 2.7.6.5.6 1.7 0 2.2-.3.3-.8.5-1.2.1-.7-.5-1.3-.9-2-1.4-1-.6-2.1-1.1-3.2-1.3-.5 0-1-.1-1.5-.1-.2 0-.4 0-.6-.1-.3-.1-.5-.1-.8 0-.2.1-.4.1-.6.1-.8 0-1.6.1-2.4.4-1.6.6-3.1 1.4-4.3 2.5-1.8 1.8-3.1 3.8-3.7 6.3-.1.2-.1.5-.1.7 0 .4-.1.8-.2 1.1-.1.3-.1.7-.2 1v1.5c.3.7.4 1.5.5 2.2.1.6.3 1.1.5 1.6.4 1.1 1 2.1 1.7 3.1.7.9 1.5 1.7 2.3 2.4 1.3 1.1 2.8 1.9 4.6 2.2 1.3.2 2.5.3 3.8.2 1.2-.1 2.4-.5 3.5-1.1.5-.3.9-.6 1.4-.8.3-.2.5-.5.5-.9v-5.8-.7c0-.4-.1-.5-.5-.5h-4.6c-.4 0-.8-.1-1.3-.2-.4-.1-.6-.4-.7-.8v-.7c.1-.5.3-.8.9-.9.2 0 .4-.1.6-.1H93.4c.6.1 1 .5 1.1 1.1V33c-.1 1.5-.1 2.7-.1 4zm58.9-6.3c-.4-.6-.8-1.1-1.1-1.6-2.2-3-4.4-6.1-6.5-9.1-.4-.6-.8-1.1-1.2-1.6-.3-.4-.5-.7-.7-1.1-.2-.3-.2-.6-.1-1s.3-.8.8-.9c.5-.1.9 0 1.3.3.3.3.5.6.8.9 1 1.5 2.1 2.9 3.1 4.4 1.6 2.2 3.2 4.5 4.8 6.7.2.3.5.5.8.7.1-.1.2-.2.2-.3 2.2-2.8 4.3-5.7 6.3-8.7.8-1.2 1.6-2.3 2.5-3.4.3-.4.7-.7 1.3-.6.5 0 .9.3 1 .8.1.6 0 1.2-.3 1.7-1.1 1.6-2.2 3.2-3.4 4.7-1.5 2-2.9 4.1-4.4 6.2-.4.5-.8 1.1-1.2 1.6-.2.2-.2.5-.1.8.1.1.1.2.2.3 1.5 2.2 3 4.4 4.6 6.5 1.4 2 2.9 3.9 4.3 5.9.4.6.5 1.1.3 1.8s-1.2 1-1.7.5c-.3-.3-.6-.6-.8-.9-1.1-1.5-2.1-2.9-3.2-4.4-1.7-2.3-3.3-4.6-5-6.9-.1-.1-.2-.3-.3-.4-.2-.2-.3-.2-.5 0l-.3.3c-1 1.5-2.1 2.9-3.1 4.4-1.6 2.1-3.1 4.3-4.6 6.4l-.9 1.2-.2.2c-.4.5-1 .6-1.5.3s-.8-.9-.6-1.5c.1-.2.2-.5.3-.7.5-.8 1.1-1.5 1.6-2.3 2.5-3.4 4.9-6.8 7.4-10.2-.2-.5-.1-.8.1-1z" class="st1"/><path d="M186.8 43.2h.9c.5 0 1.1 0 1.6-.2.8-.2 1.5-.3 2.3-.7.5-.2.9-.4 1.4-.6.5-.3.9-.6 1.3-.9.3-.2.6-.4.9-.4h.6c.3 0 .6.2.8.4l.3.6c.2.4.1.7-.1 1-.2.2-.3.4-.6.5-.9.7-1.8 1.3-2.9 1.7-.5.2-.9.4-1.4.6-.2.1-.3.1-.5.2-1.2.3-2.4.5-3.6.6-.4 0-.8.1-1.3.1-.3 0-.6 0-.8-.1-.6-.1-1.2-.1-1.8-.2-2-.4-3.9-1.1-5.6-2.2-.9-.6-1.9-1.3-2.6-2.2-.7-.8-1.3-1.6-2-2.4-1-1.3-1.6-2.8-1.9-4.4-.3-1.3-.5-2.6-.5-4 .1-2.1.5-4.2 1.4-6.2.8-1.7 2-3.1 3.3-4.4 1.8-1.7 3.9-3 6.2-3.7.3-.1.7-.2 1-.2.5-.1 1.1-.2 1.6-.3.6-.1 1.2-.2 1.7-.1 1.3.1 2.6.2 3.9.5 2.1.5 3.9 1.4 5.6 2.7.2.1.3.3.5.4.5.5.5 1.2 0 1.8l-.2.2c-.4.3-.8.4-1.3.2-.4-.2-.7-.4-1.1-.6-1.4-1-2.9-1.6-4.5-2-.7-.2-1.4-.3-2.1-.3-1.1 0-2.2 0-3.2.2-1.9.4-3.6 1.2-5.2 2.4-.9.7-1.7 1.5-2.4 2.4-.5.6-.8 1.2-1.1 1.9-.4 1-.8 2-1.1 3-.1.5-.2 1-.2 1.5-.1 1.3 0 2.6.4 3.9.7 2.5 2.1 4.7 4.2 6.4 1.6 1.3 3.5 2.2 5.5 2.7.9.2 1.7.2 2.6.2z" class="st0"/><path d="M109.1 36.7h-7.9c-.3.1-.4.2-.4.5.1.8.4 1.5.8 2.2.8 1.4 2 2.6 3.4 3.2 2.5 1.1 5 1 7.2-.7.1-.1.3-.2.4-.3.1 0 .1-.1.2-.1.6-.4 1.3-.4 1.7.1.5.6.4 1.4-.1 2-.5.5-1.1 1-1.8 1.4-1.6.9-3.3 1.3-5.1 1.1h-.7c-.7 0-1.3-.2-1.9-.4-2.8-1.1-4.7-3-5.9-5.7-.4-.9-.6-1.8-.7-2.7 0-.3-.1-.7-.2-1-.1-.6-.1-1.2 0-1.7.1-.6.2-1.3.3-1.9.2-1.1.6-2.2 1.3-3.2.5-.8 1.1-1.6 1.8-2.3 1.3-1.3 2.9-2.2 4.7-2.5.7-.1 1.3-.2 2-.2 2.3.1 4.4.9 6.1 2.4 1.5 1.3 3.3 4.1 3.6 6.1.1.9.2 1.8.1 2.7-.1.6-.4 1-1.1 1h-7.8zm-1-2.6h6.9c.3-.1.4-.2.4-.5 0-.2 0-.5-.1-.7-.5-1.4-1.2-2.6-2.3-3.6-1.6-1.6-3.6-2.2-5.8-1.9-1.7.2-3.2 1-4.4 2.3-1.1 1.1-1.7 2.4-2.1 3.8v.2c.2.2.4.4.6.4H108.1z" class="st1"/><path d="M211 25H212.9c.9.3 1.8.4 2.6.9.3.2.7.4 1 .5.1.1.3.1.4.2 1.5 1.1 2.7 2.4 3.6 4 .2.5.4.9.6 1.4.1.2.1.5.2.7.3.6.3 1.3.3 1.9v1.6c0 .3 0 .6-.1.9-.7 3.3-2.6 5.9-5.6 7.5-1 .6-2.2.9-3.4 1.1-.6.1-1.2.1-1.8.2-.3 0-.6-.1-.8-.1-.4 0-.7-.1-1.1-.1-1.1-.1-2.1-.5-3-1-1.5-.9-2.8-2-3.8-3.4-.9-1.2-1.3-2.6-1.6-4-.4-1.6-.2-3.2.2-4.8.4-1.4 1-2.6 1.9-3.6 1.5-1.8 3.3-3 5.5-3.6.8-.2 1.7-.3 2.6-.3h.4zm-7.9 10.6v.8c.1 1.2.4 2.3 1.2 3.2.3.4.7.8 1.1 1.3.6.7 1.3 1.2 2.2 1.6.9.4 1.7.7 2.7.7.7 0 1.4-.1 2.1-.1.9-.1 1.8-.5 2.6-1 2.5-1.4 3.8-3.6 3.9-6.5.1-2.1-.6-4-2.2-5.5-.3-.2-.5-.5-.8-.7-2-1.5-4.1-2.1-6.6-1.6-1.4.3-2.7.9-3.7 2l-.9.9c-.3.3-.6.7-.8 1.1-.6 1.2-.9 2.4-.8 3.8z" class="st0"/><path d="M121.6 35.4v-9.1-.7c.1-.5.4-.9.9-.9.2 0 .4 0 .6.1.5.2.8.7.8 1.3v.8c.1.5.4.6.8.3.2-.1.4-.3.5-.5 1-.9 2.2-1.4 3.5-1.7 1.8-.5 3.6-.3 5.3.3 1.7.7 3.1 1.9 4.1 3.4.4.6.7 1.2 1.1 1.8.5.9.6 1.8.7 2.8 0 .3.1.7.1 1 0 .6.1 1.1.1 1.7v8.2c0 .5-.1 1-.3 1.5-.1.4-.4.6-.8.6-.8.1-1.3-.3-1.4-1.1v-.6-9.8c0-2.3-.9-4.2-2.5-5.7-.9-.8-2-1.3-3.1-1.6h-1.4c-.5 0-1 0-1.5.2-1.7.5-3 1.5-4 3.1-.6 1-.9 2-1 3.2-.2 1.6-.2 3.3-.1 5v6.1c0 .2 0 .4-.1.6-.2.5-.7.8-1.3.7-.5-.1-.8-.4-.9-1v-.7c-.1-3.2-.1-6.2-.1-9.3z" class="st1"/><path fill="#f19204" d="M31.5 26.8c.9 0 1.9.4 2.6 1.2 1.3 1.4 1.4 3.9-.4 5.3-.7.6-1.5.9-2.4.8-1.1 0-2-.5-2.7-1.3-.6-.7-.9-1.5-.9-2.4 0-1.2.5-2.1 1.4-2.9.6-.5 1.4-.7 2.4-.7zm6.6 1.4c-1.2.1-2.8-.8-2.8-2.7 0-1.6 1.4-2.7 2.7-2.7 1.5 0 2.9 1.1 2.8 2.7 0 1.8-1.5 2.8-2.7 2.7zm-13.4 4.4c1 0 1.8.4 2.3 1.3.8 1.2.6 2.5-.5 3.5-.5.4-1 .6-1.7.7-.5 0-.9-.1-1.4-.3-1.8-.8-2-3.1-.9-4.2.3-.3.7-.7 1.1-.8.5-.1.8-.2 1.1-.2zm-7.3-1.1c.9 0 1.5.5 1.9 1.2.1.3.1.5.1.8-.1.7-.4 1.3-1.1 1.6-1 .5-2.4 0-2.7-1.2-.3-1.2.6-2.4 1.8-2.4zm27.8-5.9c.9-.1 1.9.7 1.9 1.8 0 1.2-.9 1.9-1.9 1.9-1.1 0-1.9-.8-1.9-1.9 0-1.1 1.1-1.9 1.9-1.8zm-30.7 3.6c0 .6-.6 1.3-1.2 1.2-.8-.1-1.3-.5-1.3-1.3 0-.7.6-1.2 1.3-1.2.7.1 1.2.8 1.2 1.3zm35 1.2c.7-.1 1.3.5 1.3 1.2s-.6 1.3-1.3 1.3c-.7 0-1.2-.6-1.2-1.2-.1-.6.4-1.3 1.2-1.3z"/></svg>