<svg xmlns="http://www.w3.org/2000/svg" role="img" viewBox="0.19 0.19 484.12 484.12"><title>GSMA logo</title><path fill="#fff" d="M485.22593 0H0v485.22593h485.22593z"/><path stroke="#fff" d="M4.95129 480.27465V4.95128h475.32336v475.32337z" stroke-width="9.90257"/><path d="M131.50613 323.31891v7.0635c0 8.1508-2.17262 13.58633-5.9762 17.93356-5.43453 5.43453-15.21035 9.78077-35.86711 9.78077-23.36016 0-33.1439-4.8899-38.58041-10.86312-4.8899-4.8899-7.60716-11.9524-7.60716-20.64686 0-8.1508 2.71727-15.75499 7.60716-20.64686 5.43354-5.43354 16.29963-10.86312 38.58041-10.86312 17.38891 0 30.97524 3.25993 38.03577 7.0635v11.9524c-8.14981-4.89087-22.28078-8.1508-38.03577-8.1508-16.29963 0-24.44945 3.25993-28.25203 7.0635-3.25993 3.25993-4.8899 7.60716-4.8899 13.58633 0 6.52084 1.62997 10.86312 4.8899 13.58633 3.80357 3.80357 10.86312 7.0635 28.25203 7.0635 14.13097 0 22.82542-2.71727 26.08337-5.9772 2.17361-2.1736 3.25993-4.88988 3.25993-7.60715H83.139v-10.86312h48.36415zm73.87317 20.10222c1.0873-1.08631 1.62996-2.71727 1.62996-4.34723s-.54266-3.25993-1.62996-4.34624c-1.62996-1.62996-5.43354-2.71726-25.53873-3.80358-23.37006-1.0873-30.4306-3.26091-34.23318-7.06449-2.17361-2.17262-3.25993-5.9762-3.25993-9.77978 0-4.34723 1.08632-8.69445 3.80358-11.9524 3.80358-4.34723 11.9524-7.0635 32.59926-7.0635 16.29963 0 28.25203 2.17361 35.8671 5.43354v11.40776c-8.69346-3.80358-23.36015-6.52084-35.8671-6.52084-15.75499 0-20.64686 1.62996-22.28078 3.25992-1.08631 1.0873-1.62996 2.17362-1.62996 3.80358 0 1.63095.54365 2.71726 1.0863 3.80358 1.62997 1.63095 5.43355 2.71726 24.44945 3.80357 24.44945 1.0873 31.51988 3.26092 35.32247 7.0645 2.17361 2.17361 3.80358 5.97719 3.80358 10.31847 0 4.34723-1.0873 8.69446-3.80358 11.9524-4.34723 4.34724-12.49704 7.60716-34.23318 7.60716-16.29963 0-32.05462-2.71726-40.74908-6.52084v-11.40776c8.69446 4.34723 27.17265 7.60715 40.74908 7.60715 16.29963.54365 21.73614-.54266 23.9048-3.25992zm126.65387 13.07139h-11.9524v-49.98817l-30.97524 49.98817h-15.75499l-30.97524-49.98817v49.98817h-11.9524v-59.77191h19.55758l31.50997 51.6221 31.50998-51.6221h19.01294zm63.5745-60.40568l39.12506 60.31656h-14.13097l-9.23712-14.13097h-48.89889l-9.2381 14.13097h-13.58633l39.12505-60.31656zm-26.628 35.32247h35.8671l-17.93355-28.25203zm51.58248-33.1439h-3.80358v-2.17362h9.78077v2.17362h-3.80358v11.40776h-2.17361zm8.71426-2.17857h2.17361l3.80358 6.51986 3.80358-6.51986h2.17262v13.58633h-2.17262v-9.78077l-3.80358 6.51985-3.80358-6.51985v9.78077h-2.17361z" fill="#fff"/><path fill="#5e0f08" d="M86.93466 216.27213H45.0963v49.44353h41.83836z"/><path fill="#9c1f24" d="M165.17487 191.81278h-62.48522v73.89298h62.48522z"/><path fill="#bf2730" d="M274.89534 154.8762h-94.0051v110.80975h94.0051z"/><path fill="#ce2b34" d="M431.45497 99.4218h-139.1311v166.26415h139.1311z"/></svg>