<svg xmlns="http://www.w3.org/2000/svg" role="img" viewBox="-1.10 -1.10 63.77 36.83"><title>IEEE logo</title><defs><clipPath><path d="M56.16016 686H100v25H56.16016zm0 0"/></clipPath><clipPath><path d="M103 679.01562h16V698h-16zm0 0"/></clipPath><clipPath><path d="M122 679.01562h16V698h-16zm0 0"/></clipPath><clipPath><path d="M141 679.01562h14V698h-14zm0 0"/></clipPath><clipPath><path d="M159 679.01562h14V698h-14zm0 0"/></clipPath><clipPath><path d="M175 679.01562h15.125V698H175zm0 0"/></clipPath><clipPath><path d="M595 31h17.37109v19H595zm0 0"/></clipPath><clipPath><path d="M72 79h83v24.37891H72zm0 0"/></clipPath></defs><g fill="#0a70a3" fill-opacity="1" fill-rule="nonzero" stroke="none" stroke-width=".353" transform="translate(129.35 -20.873) translate(157.633 42.357)"><path d="M-282.76822 4.1257c-.24253 0-.41203.0055-.64905.011l-.0372-.03582c-.0179-.27836-.0234-.47818-.0482-.75792l-.0427-.52779c-.15021-.0055-.44786-.0055-.59945-.0055h-.32797c-.16399 0-.32108 0-.58153.0055l-.23702.45475c-.1447.27837-.24254.47956-.38172.7593l-.0248.05375-.0482.0372c-.23013 0-.39411 0-.62976.0055l-.0248-.05512c.10886-.20532 1.74597-3.10472 2.31648-4.20852l.0482-.02343c.31557-.00688.61874-.01792.84887-.01792l.0372.02893c.0234.50987.24805 2.80844.41754 4.23885zm-.95222-3.86815l-1.08589 2.06154c.15158.01101.27974.01101.41203.01101h.41341c.1571 0 .26596 0 .41755-.011zm0 0"/><path d="M-279.77925 4.1133c-.21222 0-.35691.0055-.56913.01792l-.0248-.04272.0482-.22875c-.19293.1378-.44787.3073-.8723.3073-.72761 0-1.14653-.54433-1.14653-1.2113 0-.33348.11576-.77032.32246-1.1038.5085-.80615 1.30914-.91089 1.92099-.91089.15296 0 .26045.00688.41203.0193.21222-.98805.25494-1.20027.29766-1.50344l.0482-.04272c.24253-.03583.40652-.06614.64905-.11024l.0303.0372c-.27285 1.02526-.91502 3.85713-1.0666 4.73632zm-.0179-2.6858c-.0482-.01241-.15021-.0193-.27837-.0193-.82544 0-1.23059.35968-1.4497.81856-.0413.09233-.15158.3583-.15158.64906 0 .44924.24943.80753.75241.80753.14607 0 .5333-.11024.6904-.30317zm0 0"/><path d="M-277.55923 4.12019c-.26045.0055-.44235.011-.70418.02342l-.0537-.0372c-.0427-.56362-.27285-2.42398-.3514-3.07303l.0358-.04272c.23013 0 .39412-.01242.61874-.0303l.0427.03583c.0234.34588.0358.58842.0661.9343l.14607 1.69224c1.02389-1.98851 1.15756-2.24345 1.33946-2.61965l.0551-.0248h.23013c.12127 0 .20671 0 .32797-.0055l.0289.04271c-.18052.3142-.41065.6904-.59945 1.03078l-.50849.91501c-.21911.38723-.41341.72899-.61874 1.12724zm0 0"/><path d="M-273.40582 4.1257h-.1571c-.15158 0-.26045.0055-.41203.011l-.0303-.03582.0413-.24254c-.28525.23014-.58704.30317-.8847.30317-.7152 0-1.12172-.5333-1.12172-1.18235 0-.44787.19292-.86679.28525-1.02526.50298-.8847 1.40009-.98806 2.03674-.98806.28525 0 .90399.01242.90399.01242l.0303.04272c-.49196 2.1401-.57051 2.4846-.64905 3.06751zm-1.16996-.43684c.18741 0 .49058-.08543.70418-.30316.15021-.61874.27147-1.2554.43546-1.95269-.073 0-.16399-.01238-.26045-.01238-.58153 0-1.16995.1819-1.47312.904-.0372.08543-.13367.32797-.13367.61184 0 .43133.25493.75241.7276.75241"/><path d="M-269.9001 4.1257c-.23151 0-.3886.0055-.61873.01792l-.0248-.04272c.0854-.40652.1695-.678.25494-1.079l.14469-.69178c.0193-.09095.0675-.28387.0675-.44786 0-.44924-.39412-.46716-.51539-.46716-.36931 0-.66146.21774-.80064.32109-.1695.78272-.34589 1.56545-.49058 2.35231l-.0427.0372c-.23151 0-.38861.0055-.61874.01793l-.0303-.04273c.19982-.79926.58153-2.48597.63666-3.03168l.0427-.04134c.23564-.03168.40652-.06201.64216-.11024l.0317.04272-.0854.31005c.44235-.34037.87919-.37069 1.01837-.37069.1819 0 .87919.0303.87919.80615 0 .19982-.0786.60634-.19982 1.16996l-.091.43132c-.0606.29077-.11576.49059-.15158.78135zm0 0"/><path d="M-266.81467 4.02924c-.21221.12127-.57051.1695-.78272.1695-.78135 0-1.32154-.58842-1.32154-1.35875 0-.50436.21911-1.2857.88608-1.69223.3514-.21221.72071-.24253.8847-.24253.42581 0 .75792.10335.93982.24253l.0179.04272c-.0661.17639-.10197.30317-.15158.47956l-.0606.01792c-.0965-.16399-.36242-.30317-.68488-.30317-.75792 0-1.16995.80064-1.16995 1.40698 0 .70831.55121.9164.84335.9164.10198 0 .41755-.0138.73863-.29215l.0496.02342c-.0675.2012-.10335.34038-.15158.54709zm0 0"/><path d="M-265.66814 4.12019c-.23564 0-.40652.0055-.64216.01792l-.0303-.0372c.19293-.7028.62425-2.70372.65457-3.0317l.0427-.0427c.24805-.03031.41755-.05375.66008-.09647l.0303.04272c-.0303-.00688-.5333 2.30408-.67248 3.11574zm.86679-3.99631c-.23565.0303-.39963.04823-.63666.08544l-.0358-.04961c.0482-.2067.0854-.3514.12678-.5581l.0551-.04135c.23702-.0303.39963-.0496.62976-.08544l.0496.04272c-.0551.19982-.091.3514-.13918.5581zm0 0"/><path d="M-262.16241 4.1257c-.23151 0-.38861.0055-.61874.01792l-.0248-.04272c.0854-.40652.1695-.678.25494-1.079l.14607-.69178c.0179-.09095.0661-.28387.0661-.44786 0-.44924-.39412-.46716-.51538-.46716-.36932 0-.66008.21774-.80064.32109-.1695.78272-.34451 1.56545-.49058 2.35231l-.0427.0372c-.23013 0-.38861.0055-.61874.01793l-.0303-.04273c.19981-.79926.58153-2.48597.63665-3.03168l.0427-.04134c.23702-.03168.40652-.06201.64354-.11024l.0303.04272-.0854.31005c.44234-.34037.87919-.37069 1.01837-.37069.1819 0 .87918.0303.87918.80615 0 .19982-.0785.60634-.20119 1.16996l-.0896.43132c-.0606.29077-.11576.49059-.15158.78135zm0 0"/><path d="M-257.93046 1.00858c-.1695.68488-.32108 1.31051-.46715 1.99402l-.1695.80202c-.21222 1.00597-.38861 1.85484-1.71566 1.85484-.3638 0-.9095-.08544-1.24988-.45475V5.1551c.0909-.13919.15159-.24116.24254-.38723h.0482c.16399.21222.46715.43132.91639.43132.904 0 .97565-.83646 1.04318-1.04455l.0593-.24667c-.39963.27837-.75654.28388-.89021.28388-.7152 0-1.0914-.5457-1.0914-1.17547 0-.15158.0234-.66697.34588-1.16444.56913-.8792 1.48002-.8792 2.17593-.8792.30316 0 .7276-.01237.7276-.01237zm-.74551.43546s-.1819-.00413-.23703-.00413c-.5457 0-1.13412.09646-1.46761.80477-.14469.31695-.16398.565-.16398.69867 0 .62976.40652.77584.70969.77584.33348 0 .57602-.1695.70968-.29766zm0 0"/><path d="M-254.57769 4.1257c-.23564 0-.39963.0055-.64216.011l-.0303-.03582c.14607-.59531.82407-3.4134.87919-3.75377-.66697.00687-.95774.0193-1.24299.0248l-.0303-.03721c.0537-.17501.0909-.29628.13367-.47267l.0482-.0303c.27836.00688.72209.01242 1.08589.01242.3514 0 1.59439-.0055 1.95819-.01792l.0303.03583c-.0482.15847-.0854.29765-.13367.47266l-.0427.03168c-.24254-.0193-.59945-.0193-1.13275-.0248-.12127.41342-.17087.7152-.26734 1.14102l-.30868 1.38217c-.0909.41203-.17639.80064-.25494 1.2237zm0 0"/><path d="M-250.89419 3.9562c-.20671.1199-.52228.24254-.98806.24254-1.03766 0-1.40697-.61874-1.40697-1.3174 0-1.05972.64768-1.97611 1.69774-1.97611.7152 0 1.2237.32797 1.2237 1.1355 0 .24667-.0537.45889-.073.55122l-.0413.02892c-.31557 0-.89159-.0055-1.41938-.0055-.27285 0-.47267 0-.74552.01242-.005.03583-.0179.1447-.0179.26045 0 .79513.6904.81304.90951.81304.50298 0 .76343-.1943 1.00045-.3638l.0482.0303c-.0661.19982-.10886.339-.15709.5457zm-.0785-1.76526c.0234-.13918.0303-.19982.0303-.26597-.0124-.55121-.46715-.5953-.62563-.5953-.69728 0-.93293.64354-1.00045.86816 0 0 1.20716-.00688 1.59577-.00688"/><path d="M-247.94106 4.02924c-.21221.12127-.5705.1695-.78272.1695-.78135 0-1.32154-.58842-1.32154-1.35875 0-.50436.21773-1.2857.8847-1.69223.35278-.21221.72072-.24253.88608-.24253.42443 0 .75654.10335.93844.24253l.0193.04272c-.0661.17639-.10335.30317-.15159.47956l-.0606.01792c-.0965-.16399-.3638-.30317-.68488-.30317-.75793 0-1.16996.80064-1.16996 1.40698 0 .70831.55121.9164.84198.9164.10198 0 .41755-.0138.74001-.29215l.0482.02342c-.0662.2012-.10335.34038-.15158.54709zm0 0"/><path d="M-244.77708 4.1257c-.23013 0-.39274.0055-.61736.011l-.0317-.03582c.0551-.2191.12127-.47818.17088-.69729l.17501-.76343c.0358-.16399.13918-.63114.13918-.79513 0-.42443-.37483-.44235-.48507-.44235-.37483 0-.73312.24943-.83647.339l-.24253 1.08038c-.0965.42444-.1695.83096-.25494 1.2609l-.0427.03721c-.22324 0-.38585.0055-.61185.01101l-.0358-.03583c.0854-.3886.91502-3.73586 1.00735-4.64536l.0482-.03583c.24116-.03583.41754-.06064.66146-.11025l.0289.04272c-.17088.63803-.30317 1.2733-.46165 1.91685.18879-.12816.54709-.35829 1.05007-.35829.15709 0 .83647.03583.83647.76482 0 .26733-.0593.5457-.10887.76343l-.16398.73311c-.0661.30317-.12678.61874-.18191.92191zm0 0"/><path d="M-241.27135 4.1257c-.23014 0-.38861.0055-.61736.01792l-.0248-.04272c.0841-.40652.16949-.678.25356-1.079l.14607-.69178c.0179-.09095.0675-.28387.0675-.44786 0-.44924-.3955-.46716-.51676-.46716-.36932 0-.66008.21774-.80064.32109-.1695.78272-.34451 1.56545-.49059 2.35231l-.0427.0372c-.23014 0-.38723.0055-.61737.01793l-.0303-.04273c.19982-.79926.58153-2.48597.63528-3.03168l.0427-.04134c.23702-.03168.40652-.06201.64354-.11024l.0303.04272-.0854.31005c.44373-.34037.87919-.37069 1.01837-.37069.1819 0 .88057.0303.88057.80615 0 .19982-.0786.60634-.2012 1.16996l-.0909.43132c-.0606.29077-.11575.49059-.15158.78135zm0 0"/><path d="M-238.61449.90523c.75103 0 1.29673.3831 1.29673 1.18924 0 .63666-.29077 2.10289-1.72255 2.10289-.38171 0-1.2609-.09095-1.2609-1.2113 0-.98254.53467-2.08083 1.68672-2.08083m-.41342 2.84427c.9164 0 1.06799-1.48001 1.06799-1.68534 0-.58842-.3583-.7152-.63115-.7152-.83647 0-1.0666 1.24299-1.0666 1.67982 0 .38723.1819.72072.62976.72072"/><path d="M-236.38345 4.1257c-.22462.0055-.38861.0055-.61736.01792l-.0248-.0372c.0896-.49059.73863-3.14607.95222-4.6564l.0413-.04272c.24805-.03583.41892-.06615.66834-.11437l.0289.03582c-.30316 1.31052-.91502 4.20164-1.00045 4.75975zm0 0"/><path d="M-233.75277.90523c.7524 0 1.29811.3831 1.29811 1.18924 0 .63666-.29077 2.10289-1.72255 2.10289-.38172 0-1.26091-.09095-1.26091-1.2113 0-.98254.53468-2.08083 1.68535-2.08083m-.41204 2.84427c.9164 0 1.06798-1.48001 1.06798-1.68534 0-.58842-.35829-.7152-.63114-.7152-.83647 0-1.0666 1.24299-1.0666 1.67982 0 .38723.1819.72072.62976.72072"/><path d="M-228.79873 1.00858c-.1695.68488-.32108 1.31051-.46578 1.99402l-.16949.80202c-.21222 1.00597-.38861 1.85484-1.71566 1.85484-.3638 0-.90951-.08544-1.24988-.45475V5.1551c.0909-.13919.15158-.24116.24253-.38723h.0482c.16399.21222.46716.43132.91502.43132.90399 0 .97703-.83646 1.04455-1.04455l.0593-.24667c-.39963.27837-.75792.28388-.89021.28388-.7152 0-1.09141-.5457-1.09141-1.17547 0-.15158.0248-.66697.34451-1.16444.57051-.8792 1.48001-.8792 2.1773-.8792.30317 0 .72761-.01237.72761-.01237zm-.74552.43546s-.1819-.00413-.23564-.00413c-.5457 0-1.13413.09646-1.46761.80477-.14607.31695-.16399.565-.16399.69867 0 .62976.40652.77584.70969.77584.33349 0 .57602-.1695.70969-.29766zm0 0"/><path d="M-225.51073 1.01547c-.72898 1.17547-2.43086 4.03214-2.66237 4.54752l-.0482.03584h-.27285c-.12127 0-.23703 0-.35829.00688l-.0179-.04272c.17639-.26734.77583-1.19476.9219-1.4621-.23151-1.50895-.45475-3.00688-.48507-3.07992l.0413-.04272c.23151 0 .39412-.01241.63114-.0303l.0482.0303c.0317.33487.0496.56913.0909.89848l.17639 1.4304.5898-1.04317c.22875-.40514.45889-.81855.67662-1.25539l.0496-.03583c.0661.0055.1323.0055.19982.0055.1447 0 .24943-.0055.38861-.01241zm0 0"/><path d="M-263.83121 11.58227c-.23152.0069-.38861.01242-.61323.0248l-.0303-.03721c.2136-.98806.0923-.40653.58843-2.6734-.11438 0-.29077.0055-.46027.0055l-.0358-.03583c.0414-.15158.073-.25494.10887-.40652l.0482-.04272c.1571.01238.27285.01792.42995.01792l.0909-.43684c.13367-.64768.24942-1.19476 1.09692-1.19476.21359 0 .35277.03721.44372.05513l.0303.04823c-.0427.15296-.073.26182-.11024.41203l-.0482.0372c-.0413-.0055-.12677-.04271-.23564-.04271-.38172 0-.44235.24942-.55259.7345l-.0841.38722h.10335c.17639 0 .29628 0 .47267-.0055l.0303.04823c-.0427.12127-.073.24254-.11576.3886l-.0482.04273c-.1943-.00688-.33348-.01242-.5333-.01242-.1943.96325-.39412 1.70326-.5333 2.64997zm0 0"/><path d="M-261.00624 8.36317c.75241 0 1.29812.38171 1.29812 1.18787 0 .63665-.29077 2.10426-1.72255 2.10426-.38172 0-1.26091-.09232-1.26091-1.21267 0-.98392.5333-2.07946 1.68534-2.07946m-.41203 2.8429c.91502 0 1.0666-1.48002 1.0666-1.68673 0-.58566-.35691-.7152-.62976-.7152-.83647 0-1.06798 1.24437-1.06798 1.67983 0 .3886.18328.7221.63114.7221"/><path d="M-258.80413 11.58227c-.23703 0-.40101.0069-.63114.01242l-.0303-.03721c.25494-.95223.60083-2.51492.66146-3.03169l.0413-.04134c.24392-.03168.41893-.05512.65595-.10335l.0303.04272c-.0482.175-.0854.3321-.13367.53192.0909-.1502.35829-.59945.78824-.59945.13367 0 .21773.0303.27974.06753l.0179.05374c-.091.21773-.15158.3707-.23702.59394l-.0606.0193c-.0427-.03031-.13918-.08682-.25494-.08682-.16261 0-.53881.08681-.7276.87367-.0551.23151-.29628 1.27331-.3514 1.66192zm0 0"/><path d="M-252.21849 11.57676c-.17639 0-.41341.01238-.65457.01238l-.0248-.03168c.18053-.75241.30869-1.27882.47267-2.03675-.23013-.00688-.39412-.00688-.61874-.00688h-.63665c-.26596 0-.45476 0-.72761.0193-.1626.66697-.29076 1.34635-.42994 2.01331l-.0427.03583c-.24254 0-.41341 0-.64906.01242l-.0303-.04272c.0675-.27285.81304-3.463.94671-4.21955l.0427-.0372c.24253 0 .41203-.0055.64768-.01242l.0303.03583c-.17501.7276-.15709.61322-.39411 1.69223.0248 0 .24804.00688.41203.00688.54019 0 1.15204-.00688 1.56545-.01792.21222-.97152.28387-1.32843.3514-1.66743l.0413-.0372c.24254 0 .41341-.0055.65595-.01243l.0234.03584c-.38172 1.6371-.80064 3.4699-.93982 4.22093zm0 0"/><path d="M-248.69071 11.57676c-.21773.0055-.3762.01238-.59394.02342l-.0303-.04272.073-.29077c-.31557.26045-.66698.3762-.98806.3762-.74 0-.90399-.50298-.90399-.83095 0-.21773.0482-.44786.1571-.92742l.12815-.56362c.0606-.26734.10887-.45475.17639-.83647l.0413-.04272c.22462 0 .38172-.01242.60634-.0248l.0303.03583c-.22324.9219-.47266 1.88515-.47266 2.15938 0 .1764.0482.5209.52089.5209.27423 0 .54709-.11437.80754-.3514.31557-1.41938.45475-2.10426.48369-2.29719l.0482-.0372c.22599-.0055.38309-.01793.61322-.0303l.0248.0427c-.18878.7097-.61873 2.6679-.67937 3.07992zm0 0"/><path d="M-243.3894 11.58227c-.2191 0-.3762.0069-.59531.01242l-.0358-.04272c.091-.35278.17501-.7221.26045-1.08039l.10886-.46578c.0854-.3638.12127-.59393.12127-.70969 0-.40652-.3514-.41892-.45475-.41892-.3762 0-.67937.21911-.81166.33349-.007.12127-.0427.41892-.12816.79512l-.13781.63666c-.0675.30868-.12953.59393-.18327.904l-.0427.03582c-.22324 0-.38172.0069-.60634.01242l-.0303-.04823c.0965-.37069.46715-1.8631.46715-2.23793 0-.39963-.34037-.43133-.45475-.43133-.32659 0-.62425.22462-.73449.32246l-.19982.904c-.11438.53192-.19982.90261-.29077 1.4428l-.0427.02893c-.23014.0069-.38723.0069-.61186.0193l-.0358-.04272c.23564-.8916.58704-2.5287.64768-3.03168l.0358-.03583c.24392-.03168.41342-.06064.64355-.10336l.0372.04272-.0799.30868c.17087-.14607.56499-.37069 1.03766-.37069.13918 0 .50987.04272.66008.44373.50436-.40101.98254-.44373 1.14653-.44373.44235 0 .82406.24391.82406.74 0 .20671-.0482.43133-.10197.67387l-.10335.46026c-.11025.47818-.16399.82407-.26734 1.31052zm0 0"/><path d="M-239.87953 11.58227h-.1571c-.15158 0-.26045.0069-.41203.01242l-.0303-.03721.0413-.24254c-.28388.23151-.58705.30317-.8847.30317-.71521 0-1.12173-.5333-1.12173-1.18236 0-.44786.19431-.86678.28525-1.02388.50299-.88608 1.40147-.98805 2.03813-.98805.28387 0 .90261.011.90261.011l.0303.04272c-.49058 2.1401-.57051 2.48599-.64906 3.0689zm-1.16996-.43684c.18879 0 .49196-.08544.7028-.30317.15159-.61874.27285-1.2554.43822-1.95268-.0744 0-.16537-.01242-.26183-.01242-.58153 0-1.16995.18328-1.47312.904-.0358.08543-.13367.32797-.13367.61323 0 .42994.25494.75102.7276.75102"/><path d="M-236.3738 11.58227c-.23014 0-.38861.0069-.61874.01792l-.0248-.04272c.0854-.40652.17087-.678.25493-1.079l.14607-.69178c.0179-.08958.0662-.28388.0662-.44786 0-.44925-.39274-.46716-.51539-.46716-.36931 0-.66008.2191-.80064.32108-.1695.78273-.34451 1.56408-.49058 2.3537l-.0427.03582c-.23013 0-.38722.0069-.61873.01792l-.0289-.04272c.19981-.80064.58153-2.48598.63527-3.03168l.0427-.04134c.23703-.03168.40652-.06064.64354-.11025l.0289.04272-.0841.30868c.44373-.339.87919-.36931 1.01837-.36931.1819 0 .88057.0303.88057.80615 0 .19982-.0799.60634-.20119 1.17133l-.0909.42995c-.0606.29077-.11438.49059-.15021.78273zm0 0"/><path d="M-234.88828 11.57676c-.23564 0-.40652.0055-.64216.01792l-.0303-.03721c.19293-.7028.62425-2.70372.65457-3.03169l.0427-.04134c.24942-.03168.41892-.05512.66008-.09646l.0317.04134c-.0317-.0055-.53468 2.3027-.67386 3.11712zm.86679-3.99632c-.23565.0303-.39963.04823-.63528.08544l-.0372-.0496c.0496-.20671.0854-.3514.12678-.55674l.0551-.04271c.23703-.0303.39964-.04961.63115-.08544l.0482.04272c-.0551.19981-.091.3514-.13918.55672zm0 0"/><path d="M-232.7344 11.56987c-.2012.04823-.35967.05512-.43822.05512-.57602 0-.72072-.29766-.72072-.60083 0-.23013.12679-.76343.30317-1.49793l.15159-.62976h-.12127c-.11575 0-.20119 0-.31557.0055l-.0303-.04272c.0427-.13918.073-.24805.10886-.39963l.0427-.0303c.15848.0055.26045.0055.41892.0055.073-.27975.10887-.47957.16261-.75793l.0441-.04272c.23565-.04823.39963-.08957.62977-.1502l.0303.03443c-.0482.16399-.0786.28663-.12127.45062l-.11575.46578c.24942 0 .41892 0 .66146-.01101l.0303.04134c-.0551.14607-.0854.25494-.12816.401l-.0413.03584c-.23151-.0055-.39412-.0055-.62425-.0055l-.32797 1.36977c-.0303.12127-.11576.49747-.11576.61874 0 .1943.14056.26045.29766.26045.15709 0 .30317-.06063.35691-.07855l.0317.0303c-.0496.1571-.0854.26734-.12816.42444zm0 0"/><path d="M-229.03437 8.47204c-.72761 1.17684-2.43086 4.03213-2.66099 4.54614l-.0496.0372h-.27284c-.1199 0-.23565 0-.35692.0055l-.0179-.04272c.17639-.26596.77584-1.19338.92053-1.46072-.23013-1.50895-.45475-3.00688-.48369-3.07991l.0413-.04272c.23151 0 .3955-.01101.63114-.0303l.0482.0303c.0303.33486.0482.56913.0909.8971l.17639 1.43178.58843-1.04317c.23013-.40652.46026-.81856.67799-1.2554l.0482-.03583c.0675.0055.13367.0055.20119.0055.1447 0 .24805-.0055.38723-.011zm0 0"/><path d="M-266.3985-18.98538h3.7524v13.54612h-3.7524zm0 0"/><path d="M-260.67688-5.43926v-13.54612h10.31875v2.62516h-6.56774v2.79605h6.04132v2.62654h-6.04132v2.87045h6.56774v2.62792zm0 0"/><path d="M-248.25663-5.43926v-13.54612h10.316v2.62516h-6.5636v2.79605h6.03856v2.62654h-6.03856v2.87045h6.5636v2.62792zm0 0"/><path d="M-235.83912-5.43926v-13.54612h10.31875v2.62516h-6.5636v2.79605h6.03856v2.62654h-6.03856v2.87045h6.5636v2.62792zm0 0"/><path d="M-278.43429-18.8338c.59945-.46577 1.35186-.07853 1.85484.35003.52641.40239 1.07625.85852 1.55719 1.32567l.0882.04961c1.33394 1.23886 2.57418 2.61414 3.59255 4.06935.16398.25356.31006.54019.21773.87643-.339.84887-1.0294 1.52549-1.6316 2.2655-1.305 1.4056-2.68166 2.76434-4.22369 3.84885-.31143.2205-.73174.42306-1.10518.24943-1.13413-.59393-2.09049-1.56683-3.08405-2.4529-1.15067-1.06799-2.30684-2.31098-3.17914-3.61184-.12953-.1819-.16674-.4079-.16261-.64768.113-.44924.41893-.81856.71107-1.19752 1.03077-1.31327 2.29306-2.5604 3.56912-3.69865.0303-.02893.0841-.09095.13091-.12127.54709-.47405 1.09141-.89297 1.66467-1.305m1.75425-1.36702l-.67662-.96049c-.0841-.0496-.18741-.13367-.27836-.15847-.19982-.08682-.41617.01792-.57878.14193l-1.22508 1.59577c-1.96646 2.435-4.29396 4.70876-6.83369 6.45198-.19981.1571-.49885.31006-.56086.56912-.0661.23152.0551.42444.19844.56776 2.03398 1.40146 3.9784 3.06338 5.70783 4.95956.30731.32384.55673.64354.85714.94671.50574.67386 1.10106 1.35186 1.56545 2.07533.14608.15296.17088.40238.39964.4768.17776.062.39825.10473.56913 0l.16949-.1695c2.10427-2.9807 4.77215-5.65685 7.75285-7.81761.29903-.26734.86816-.36656.87643-.86128-.0207-.22737-.15296-.45337-.35002-.5774l-.0482-.0083c-1.53375-1.04317-2.96415-2.22415-4.3105-3.56222l-1.48828-1.55443c-.60358-.66835-1.18787-1.40973-1.74597-2.11529m-1.53376 1.73358c.61185-.41617 1.16031.16536 1.63435.49884 1.83279 1.4745 3.56223 3.1626 4.87826 5.0698.16674.2453.24116.62702.0937.90538-.34314.5705-.8034 1.09003-1.24024 1.6192v.02754c-1.09003 1.1603-2.23931 2.35231-3.48368 3.33348-.60634.37069-1.16306 1.17684-1.94441.67661-1.77905-1.30087-3.4823-2.9173-4.92511-4.65088-.24529-.38171-.62701-.69315-.79788-1.12586-.23703-.58566.28663-1.00596.58566-1.44694 1.47175-1.81487 3.3004-3.5953 5.19934-4.90719m.38585 1.19614l-.16536.53192-.83096 2.38263c.20808.02067.46578 0 .66973.02067v.0193l-.12127 2.69405.0207.02893c.26596.0248.59807.0386.86954-.0083v-.04272l-.10886-2.61138.0165-.0882.73174-.01242a118.37286 118.37286 0 0 1-1.05971-2.91455zm-2.82911 3.73173c-.46578.23426-1.15204.58704-1.07625 1.22645.0992.34864.47818.57464.77721.71934 1.65365.7276 3.84887.7524 5.59484.20946.43133-.16675 1.0101-.4079 1.08865-.93569-.004-.43684-.46578-.71107-.79788-.8778v-.02068c.11575-.04686.24804-.08682.36793-.1006v-.011c-.58429-.10474-1.14928-.2577-1.71566-.4079.10887.24942.18742.51124.27837.76894.17087-.05374.34589-.09508.52916-.1199.29904.11576.72623.2825.76895.65595.0331.34865-.35002.51952-.59118.66009-1.2802.46577-2.72162.51125-4.05694.15847-.36932-.11713-.90124-.26596-.94672-.73587.26183-.61874.93845-.7469 1.50482-.8971-.29076-.18742-.58704-.35416-.86816-.56225-.30455.01792-.58291.15021-.85714.2701m2.36471 2.6858c-.0496.95635-.062 1.84106-.13229 2.80155.37758.03305.80615.06614 1.20854.00826l-.11989-2.6734-.0207-.12678c-.30868.01101-.59944.02342-.93569-.0096"/><path d="M-274.76181-5.38276c-.33487 0-.63252.2315-.63252.62838 0 .39826.29765.63114.63252.63114.3321 0 .62976-.23288.62976-.63114 0-.39687-.29766-.62838-.62976-.62838m0 1.11345v-.0014c-.24943.0014-.45062-.19293-.45062-.4837 0-.288.20119-.48093.45062-.48093.24391 0 .45061.19292.45061.48093 0 .29077-.2067.48507-.45061.48507m.28112-.61874c0-.15434-.10198-.20395-.27837-.20395h-.25218v.67662h.1447v-.28384h.0689l.15572.28387h.17225l-.17501-.29628c.0923-.00826.16399-.05236.16399-.17639m-.2577.07304h-.12815V-4.979h.10197c.0551 0 .12954.0055.12954.0758 0 .07579-.0372.0882-.10336.0882"/></g></svg>