<svg xmlns="http://www.w3.org/2000/svg" role="img" viewBox="-15.80 -3.80 1029.60 196.60"><title>Ifedge logo</title><style>svg {enable-background:new 0 0 1000 190.18}</style><style>.st2{fill:#231f20}.st34{fill:#416ba9}.st35{fill:#73c3d5}</style><g id="XMLID_1_"><path id="XMLID_2266_" d="M240.14 85.13c8 0 14.54-3.16 19.62-9.49l10.43 10.75c-8.28 9.32-18.03 13.98-29.27 13.98-11.23 0-20.49-3.55-27.75-10.64-7.27-7.1-10.9-16.05-10.9-26.87s3.7-19.84 11.11-27.08c7.41-7.23 16.47-10.85 27.18-10.85 11.96 0 21.98 4.56 30.05 13.67l-10.12 11.48c-5.15-6.4-11.55-9.6-19.2-9.6-6.12 0-11.36 2-15.7 6-4.35 4-6.52 9.39-6.52 16.17s2.05 12.23 6.16 16.33c4.09 4.1 9.06 6.15 14.91 6.15z" class="st2"/><path id="XMLID_2264_" d="M283.02 99.53V26.59h16.28v58.43h31.09v14.5h-47.37z" class="st2"/><path id="XMLID_2261_" d="M401.65 89.46c-7.37 7.2-16.45 10.8-27.23 10.8-10.78 0-19.86-3.6-27.23-10.8-7.37-7.2-11.06-16.15-11.06-26.87 0-10.71 3.69-19.67 11.06-26.87 7.37-7.2 16.45-10.8 27.23-10.8 10.78 0 19.86 3.6 27.23 10.8 7.37 7.2 11.06 16.16 11.06 26.87s-3.69 19.67-11.06 26.87zm-5.53-26.82c0-6.5-2.09-12.05-6.26-16.64s-9.3-6.89-15.39-6.89-11.22 2.3-15.39 6.89-6.26 10.14-6.26 16.64 2.09 12.03 6.26 16.59c4.17 4.56 9.3 6.83 15.39 6.83s11.22-2.28 15.39-6.83c4.18-4.55 6.26-10.08 6.26-16.59z" class="st2"/><path id="XMLID_2259_" d="M445.79 80.69c2.71 3.37 6.36 5.06 10.95 5.06 4.59 0 8.23-1.69 10.91-5.06 2.68-3.37 4.02-7.98 4.02-13.83V26.59h16.28v40.8c0 10.57-2.92 18.69-8.76 24.36-5.84 5.67-13.32 8.5-22.44 8.5-9.11 0-16.61-2.85-22.48-8.55-5.88-5.7-8.82-13.81-8.82-24.31v-40.8h16.28v40.27c-.01 5.85 1.34 10.46 4.06 13.83z" class="st2"/><path id="XMLID_2256_" d="M560.56 36.14c6.95 6.36 10.43 15.22 10.43 26.55S567.6 83 560.82 89.61c-6.78 6.61-17.13 9.91-31.04 9.91h-24.94V26.59h25.77c13.01 0 22.99 3.19 29.95 9.55zm-11.95 43.35c4-3.76 6-9.22 6-16.38 0-7.16-2-12.68-6-16.54-4-3.86-10.14-5.79-18.41-5.79h-9.08v44.34h10.33c7.44.01 13.16-1.87 17.16-5.63z" class="st2"/><path id="XMLID_2254_" d="M663.64 26.59h16.28v72.93h-16.28l-34.74-45.7v45.7h-16.28V26.59h15.23l35.79 46.95V26.59z" class="st2"/><path id="XMLID_2251_" d="M749.83 99.53l-6.78-15.75h-30.57l-6.78 15.75h-17.32l31.51-72.93h15.75l31.51 72.93h-17.32zM727.81 48.3l-9.18 21.18h18.26l-9.08-21.18z" class="st2"/><path id="XMLID_2249_" d="M801.16 40.68v58.85h-16.28V40.68h-20.66V26.59h57.59v14.09h-20.65z" class="st2"/><path id="XMLID_2247_" d="M833.71 26.59h16.28v72.93h-16.28V26.59z" class="st2"/><path id="XMLID_2245_" d="M894.85 73.02l18.57-46.43h17.64l-29.32 72.93h-13.77l-29.32-72.93h17.64l18.56 46.43z" class="st2"/><path id="XMLID_2243_" d="M992.3 26.59v14.5H956v15.02h32.66V70H956v15.13h37.46v14.4h-53.74V26.59h52.58z" class="st2"/><path id="XMLID_2241_" d="M221.47 161.64c4.48 0 8.15-1.77 11-5.32l5.85 6.02c-4.64 5.23-10.11 7.84-16.41 7.84-6.3 0-11.48-1.99-15.56-5.97-4.08-3.98-6.11-9-6.11-15.06 0-6.06 2.08-11.12 6.23-15.18 4.15-4.06 9.23-6.08 15.24-6.08 6.71 0 12.32 2.56 16.84 7.66l-5.67 6.43c-2.89-3.59-6.47-5.38-10.76-5.38-3.43 0-6.37 1.12-8.8 3.36-2.44 2.24-3.66 5.26-3.66 9.07 0 3.8 1.15 6.85 3.45 9.15 2.3 2.31 5.09 3.46 8.36 3.46z" class="st2"/><path id="XMLID_2238_" d="M279.02 164.07c-4.13 4.04-9.22 6.06-15.26 6.06-6.04 0-11.13-2.02-15.27-6.06-4.13-4.03-6.2-9.05-6.2-15.06s2.07-11.03 6.2-15.06c4.13-4.04 9.22-6.06 15.27-6.06 6.04 0 11.13 2.02 15.26 6.06 4.13 4.03 6.2 9.06 6.2 15.06s-2.06 11.02-6.2 15.06zm-3.1-15.03c0-3.65-1.17-6.75-3.51-9.33-2.34-2.57-5.21-3.86-8.63-3.86s-6.29 1.29-8.63 3.86c-2.34 2.57-3.51 5.68-3.51 9.33 0 3.65 1.17 6.75 3.51 9.3 2.34 2.56 5.21 3.83 8.63 3.83s6.29-1.28 8.63-3.83c2.35-2.56 3.51-5.66 3.51-9.3z" class="st2"/><path id="XMLID_2236_" d="M329.56 143.98l-11.05 22.34h-5.44l-11-22.34v25.74h-9.12v-40.88h12.34l10.53 22.46 10.59-22.46h12.28v40.88h-9.12v-25.74z" class="st2"/><path id="XMLID_2233_" d="M376.9 132.48c2.87 2.44 4.3 6.18 4.3 11.23 0 5.05-1.47 8.74-4.42 11.08-2.94 2.34-7.44 3.51-13.48 3.51h-5.44v11.41h-9.12v-40.88h14.45c6.27 0 10.85 1.22 13.71 3.65zm-6.69 16.09c1.09-1.23 1.64-3.02 1.64-5.38s-.71-4.04-2.13-5.03c-1.42-.99-3.64-1.49-6.64-1.49h-5.21v13.74h6.14c3.04 0 5.1-.61 6.2-1.84z" class="st2"/><path id="XMLID_2231_" d="M399.16 159.15c1.52 1.89 3.57 2.84 6.14 2.84s4.61-.94 6.11-2.84c1.5-1.89 2.25-4.48 2.25-7.75v-22.58h9.12v22.87c0 5.93-1.64 10.48-4.91 13.66-3.28 3.18-7.47 4.77-12.58 4.77s-9.31-1.6-12.6-4.8c-3.29-3.2-4.94-7.74-4.94-13.63v-22.87h9.12v22.58c0 3.28.77 5.86 2.29 7.75z" class="st2"/><path id="XMLID_2229_" d="M449.57 136.72v32.99h-9.12v-32.99h-11.58v-7.9h32.29v7.9h-11.59z" class="st2"/><path id="XMLID_2227_" d="M467.82 128.83h9.13v40.88h-9.13v-40.88z" class="st2"/><path id="XMLID_2225_" d="M515.6 128.83h9.12v40.88h-9.12l-19.48-25.62v25.62H487v-40.88h8.54l20.06 26.32v-26.32z" class="st2"/><path id="XMLID_2223_" d="M561.34 148.89h9.18v14.5c-4.06 4.52-9.67 6.78-16.84 6.78-6 0-11.04-1.99-15.12-5.97-4.08-3.98-6.11-9-6.11-15.06 0-6.06 2.08-11.12 6.23-15.18s9.16-6.08 15.03-6.08c5.87 0 10.96 1.93 15.29 5.79l-4.74 6.84c-1.83-1.6-3.52-2.7-5.06-3.31-1.54-.6-3.21-.91-5-.91-3.47 0-6.4 1.18-8.77 3.54-2.38 2.36-3.57 5.47-3.57 9.33 0 3.86 1.14 6.95 3.42 9.27 2.28 2.32 5 3.48 8.16 3.48s5.79-.6 7.9-1.81v-11.21z" class="st2"/><path id="XMLID_2221_" d="M622.16 128.83v8.01h-18.95v8.83h18.01v8.01h-18.01v16.02h-9.13v-40.88h28.08z" class="st2"/><path id="XMLID_2218_" d="M664.27 164.07c-4.13 4.04-9.22 6.06-15.26 6.06-6.05 0-11.13-2.02-15.26-6.06-4.13-4.03-6.2-9.05-6.2-15.06s2.07-11.03 6.2-15.06c4.13-4.04 9.22-6.06 15.26-6.06 6.04 0 11.13 2.02 15.26 6.06 4.13 4.03 6.2 9.06 6.2 15.06s-2.06 11.02-6.2 15.06zm-3.1-15.03c0-3.65-1.17-6.75-3.51-9.33-2.34-2.57-5.22-3.86-8.63-3.86s-6.29 1.29-8.63 3.86c-2.34 2.57-3.51 5.68-3.51 9.33 0 3.65 1.17 6.75 3.51 9.3 2.34 2.56 5.22 3.83 8.63 3.83s6.29-1.28 8.63-3.83c2.34-2.56 3.51-5.66 3.51-9.3z" class="st2"/><path id="XMLID_2216_" d="M689.01 159.15c1.52 1.89 3.57 2.84 6.14 2.84s4.61-.94 6.11-2.84c1.5-1.89 2.25-4.48 2.25-7.75v-22.58h9.13v22.87c0 5.93-1.64 10.48-4.91 13.66-3.27 3.18-7.47 4.77-12.58 4.77s-9.31-1.6-12.6-4.8c-3.3-3.2-4.94-7.74-4.94-13.63v-22.87h9.13v22.58c-.01 3.28.75 5.86 2.27 7.75z" class="st2"/><path id="XMLID_2214_" d="M750.72 128.83h9.12v40.88h-9.12l-19.48-25.62v25.62h-9.13v-40.88h8.54l20.06 26.32v-26.32z" class="st2"/><path id="XMLID_2211_" d="M801.13 134.18c3.9 3.57 5.85 8.53 5.85 14.89 0 6.36-1.9 11.39-5.7 15.09-3.8 3.71-9.6 5.56-17.4 5.56H769.9v-40.88h14.45c7.29-.01 12.88 1.77 16.78 5.34zm-6.69 24.3c2.24-2.1 3.36-5.17 3.36-9.18 0-4.02-1.12-7.11-3.36-9.27-2.24-2.16-5.68-3.25-10.32-3.25h-5.09v24.86h5.79c4.17 0 7.37-1.05 9.62-3.16z" class="st2"/><path id="XMLID_2208_" d="M842.83 169.71l-3.8-8.83H821.9l-3.8 8.83h-9.71l17.66-40.88h8.83l17.66 40.88h-9.71zm-12.34-28.72l-5.15 11.87h10.24l-5.09-11.87z" class="st2"/><path id="XMLID_2206_" d="M871.61 136.72v32.99h-9.13v-32.99H850.9v-7.9h32.29v7.9h-11.58z" class="st2"/><path id="XMLID_2204_" d="M889.86 128.83h9.13v40.88h-9.13v-40.88z" class="st2"/><path id="XMLID_2201_" d="M943.43 164.07c-4.13 4.04-9.22 6.06-15.26 6.06-6.05 0-11.13-2.02-15.26-6.06-4.13-4.03-6.2-9.05-6.2-15.06s2.07-11.03 6.2-15.06c4.13-4.04 9.22-6.06 15.26-6.06 6.04 0 11.13 2.02 15.26 6.06 4.13 4.03 6.2 9.06 6.2 15.06s-2.07 11.02-6.2 15.06zm-3.1-15.03c0-3.65-1.17-6.75-3.51-9.33-2.34-2.57-5.22-3.86-8.63-3.86-3.41 0-6.29 1.29-8.63 3.86-2.34 2.57-3.51 5.68-3.51 9.33 0 3.65 1.17 6.75 3.51 9.3 2.34 2.56 5.22 3.83 8.63 3.83 3.41 0 6.29-1.28 8.63-3.83 2.34-2.56 3.51-5.66 3.51-9.3z" class="st2"/><path id="XMLID_2199_" d="M985.95 128.83h9.12v40.88h-9.12l-19.48-25.62v25.62h-9.13v-40.88h8.54l20.06 26.32v-26.32z" class="st2"/></g><g id="XMLID_197_"><g id="XMLID_392_"><path id="XMLID_397_" d="M27.39 121.29H4.93v52.39h52.39v-22.45H27.39z" class="st34"/><path id="XMLID_395_" d="M139.65 121.45v29.78h-29.77l-.16-.17v22.62h52.39v-52.39h-22.62z" class="st34"/><path id="XMLID_394_" d="M4.93 68.9h22.62l-.16-.17V38.96h29.77l.16.16V16.5H4.93z" class="st34"/><path id="XMLID_393_" d="M109.72 16.5v22.46h29.93V68.9h22.46V16.5z" class="st34"/></g><g id="XMLID_200_"><path id="XMLID_391_" d="M106.94 68.9L77 38.96h32.72V16.5h-52.4v22.62L87.1 68.9z" class="st35"/><path id="XMLID_390_" d="M79.94 121.29H60.1l24.8 24.81 5.14 5.13H57.32v22.45h52.4v-22.62l-14.89-14.89z" class="st35"/><path id="XMLID_389_" d="M139.65 68.9v32.71l-5.13-5.13-24.8-24.81v19.85l14.88 14.88 14.89 14.89h22.62V68.9z" class="st35"/><path id="XMLID_388_" d="M57.32 98.66L27.55 68.9H4.93v52.39h22.46V88.58l29.93 29.93z" class="st35"/></g></g></svg>