<svg xmlns="http://www.w3.org/2000/svg" role="img" viewBox="-18.77 -18.77 976.04 947.54"><title>K8s logo</title><style>svg {enable-background:new 0 0 938.9 910.6}</style><style>.st0{fill:#466bb2}</style><path d="M468.9 910.4c-58.5 0-117-.3-175.5.1-23.8.2-42.4-8.6-57.2-27.1C192.8 829.1 149 775 105.4 720.7 75 683 44.6 645.2 14.3 607.4 1.1 591-2.8 572.4 1.9 552c23.2-101.3 46.5-202.5 69.8-303.8 3.4-14.6 6.5-29.2 10.1-43.7 4.7-19.2 15.7-33.7 33.6-42.3 75-36 150.1-71.8 225.1-107.7C373.8 38.7 407 22.9 440.1 7c19.4-9.3 38.7-9.3 58.2-.1 107.2 51.2 214.3 102.3 321.6 153.4 20.6 9.8 32.8 25.6 37.8 47.8 15.8 69.6 31.9 139 47.9 208.5 10.6 45.8 21.5 91.6 31.7 137.6 4.3 19.4-.2 37.4-12.8 53-42.1 52.5-84.4 104.8-126.6 157.3-32.6 40.5-65.1 81-97.6 121.5-12.8 15.9-29.6 24.2-49.9 24.3-60.5.2-121 .1-181.5.1zM217.5 503.5c-4.8 3.8-8.4 6.8-12.1 9.5-2.2 1.6-4.7 3.5-7.3 4-8.1 1.8-16.3 3.2-24.5 4.3-11.2 1.5-22.5 2.2-33.6 4.1-10.6 1.9-17 12.4-14.6 22.5 3 12.8 12.4 19.6 23.9 16.7 7.4-1.9 14.6-4.6 21.8-7 10.1-3.3 20.1-6.8 30.3-9.9 3.1-.9 6.6-1.4 9.8-1 5.7.8 11.2 2.5 17.6 4 19.9 59.2 57.6 105.6 110.2 137.7 0 6.1.2 10.9-.1 15.6-.2 2.9-.3 6.2-1.6 8.6-6 10.8-12.4 21.3-18.6 31.9-3.6 6.1-7.7 12.1-10.9 18.4-5 9.9-.8 21.7 8.8 26.4 9.9 4.7 21.4.8 26-9.4 3.2-7.1 5.3-14.6 8.2-21.9 4.6-11.7 9.4-23.4 14.3-35 .7-1.7 2.2-3.8 3.8-4.3 5.2-1.8 8.6-5.2 10.2-10 .8-.1 1-.2 1.1-.2 1.3.4 2.5.8 3.8 1.2 37.7 13.7 76.6 18.1 116.4 13.5 19-2.2 37.6-6.7 55.7-13.2 1.4-.5 4.2-.3 4.5.4 1.8 4.2 5.2 5.9 8.9 8 2.5 1.4 4.8 4.3 6 7 4.5 10.5 8.5 21.3 12.6 32 2.8 7.4 5.1 15.1 8.3 22.4 4.5 9.9 16.2 13.8 25.8 9.3 9.7-4.6 14-16.1 9-25.8-3.6-7.1-8.2-13.7-12.2-20.6-6-10.2-12-20.3-17.6-30.7-1.2-2.2-2.1-5.4-1.5-7.6 1.4-5 1.2-9.6-1.7-14.2 27.2-16.3 50.3-36.4 69.7-60.7 19.3-24.3 33.6-51.4 42.7-79.2 5.5-1.3 9.6-2.5 13.7-3.3 2.5-.5 5.4-1.3 7.8-.6 11.8 3.3 23.5 7.1 35.2 10.7 8.2 2.5 16.3 5.8 24.7 7.4 9.8 1.8 18.6-5.2 20.8-15.2 2.1-9.2-3.5-19.2-12.7-22.2-4.1-1.3-8.4-2.2-12.6-2.7-12.6-1.5-25.2-2.3-37.7-4-8-1.1-16.4-2.3-21.1-10.5-.3-.5-1-1.1-1.5-1.1-7.2-.3-6.9-4.8-5.8-10 .4-1.6.2-3.3.4-5 3.3-38.4-1.3-75.9-15.8-111.6-7.2-17.7-16.3-34.5-24.8-52.3 3.7-2.2 5.9-6.6 6.9-12.1.4-2.2 2.5-4.4 4.4-5.8 9.3-6.7 18.8-13.1 28.3-19.5 6.6-4.4 13.7-8.3 20.1-13 9.3-6.8 10.8-19.1 4-27.8-6.8-8.8-19.5-10-28.4-2.3-5.5 4.8-10.5 10.2-15.8 15.2-8.6 8.1-17.1 16.3-25.9 24.1-2 1.8-4.9 2.7-7.6 3.4-4.7 1.4-9.6 2.3-15.6 3.8-20.2-21-44.8-39-72.7-52.4-27.8-13.4-57.1-21.5-86-24.3-2.8-5.4-5-9.4-6.9-13.5-1-2.2-2.2-4.7-2.2-7 .2-9 .6-18 1.4-26.9.9-10.8 2.8-21.4 3.3-32.2.6-11.3-8.3-20.2-18.9-20.2-11.2 0-20 8.6-19.8 20.1.2 7.8 1.6 15.5 2.2 23.3 1 12.1 1.8 24.2 2.5 36.3.1 2-1 4.1-1.9 6.1-2 4.4-4.2 8.7-6.7 13.8-62.3 6-116.4 32-159.7 76.8-6.1-1.2-11.1-2.1-16-3.3-2.2-.6-4.5-1.5-6.2-3-9.4-8.6-18.7-17.5-28-26.3-5.1-4.8-9.9-9.9-15.4-14.1-5.7-4.5-12.6-5.2-19.4-2.6-13 5-15.6 23.1-4.4 32.6 6.1 5.1 13.2 8.9 19.9 13.3 9.5 6.4 19.1 12.6 28.4 19.3 2.4 1.7 4 4.8 5.5 7.5 2 3.6 3.4 7.5 5.6 12.3-33.7 52.1-46.6 110.5-38.7 172z" class="st0"/><path fill="#fff" d="M217.5 503.5c-7.9-61.5 5-119.9 38.8-172.1-2.1-4.8-3.6-8.6-5.6-12.3-1.5-2.7-3.1-5.7-5.5-7.5-9.3-6.7-18.9-13-28.4-19.3-6.6-4.4-13.8-8.2-19.9-13.3-11.3-9.5-8.7-27.6 4.4-32.6 6.8-2.6 13.7-1.9 19.4 2.6 5.5 4.3 10.3 9.4 15.4 14.1 9.3 8.8 18.6 17.6 28 26.3 1.6 1.5 4 2.4 6.2 3 4.9 1.2 9.9 2.1 16 3.3C329.6 251 383.7 224.9 446 219c2.5-5.1 4.7-9.4 6.7-13.8.9-1.9 2-4.1 1.9-6.1-.6-12.1-1.5-24.2-2.5-36.3-.6-7.8-2-15.5-2.2-23.3-.2-11.5 8.6-20.1 19.8-20.1 10.6 0 19.5 8.9 18.9 20.2-.6 10.8-2.4 21.5-3.3 32.2-.8 8.9-1.2 17.9-1.4 26.9-.1 2.3 1.1 4.8 2.2 7 1.9 4.1 4.1 8.1 6.9 13.5 28.9 2.7 58.2 10.8 86 24.3 27.9 13.4 52.5 31.4 72.7 52.4 6-1.4 10.9-2.4 15.6-3.8 2.7-.8 5.6-1.7 7.6-3.4 8.8-7.9 17.3-16 25.9-24.1 5.3-5 10.3-10.5 15.8-15.2 8.9-7.7 21.6-6.4 28.4 2.3 6.8 8.7 5.2 21-4 27.8-6.4 4.7-13.4 8.6-20.1 13-9.5 6.4-19 12.8-28.3 19.5-1.9 1.4-4 3.6-4.4 5.8-1.1 5.4-3.3 9.9-6.9 12.1 8.5 17.8 17.7 34.6 24.8 52.3 14.5 35.8 19.2 73.2 15.8 111.6-.1 1.7 0 3.4-.4 5-1.2 5.2-1.4 9.7 5.8 10 .5 0 1.2.6 1.5 1.1 4.7 8.2 13 9.4 21.1 10.5 12.5 1.7 25.1 2.6 37.7 4 4.3.5 8.6 1.4 12.6 2.7 9.2 3 14.8 13 12.7 22.2-2.3 10-11 17-20.8 15.2-8.4-1.5-16.5-4.8-24.7-7.4-11.7-3.6-23.4-7.4-35.2-10.7-2.4-.7-5.2.1-7.8.6-4.2.8-8.3 2-13.7 3.3-9.1 27.8-23.3 54.9-42.7 79.2-19.4 24.4-42.5 44.5-69.7 60.7 2.9 4.6 3.1 9.2 1.7 14.2-.6 2.3.3 5.4 1.5 7.6 5.7 10.3 11.7 20.5 17.6 30.7 4 6.9 8.6 13.5 12.2 20.6 4.9 9.7.6 21.1-9 25.8-9.6 4.6-21.3.7-25.8-9.3-3.3-7.2-5.5-14.9-8.3-22.4-4.1-10.7-8.1-21.4-12.6-32-1.2-2.7-3.5-5.6-6-7-3.7-2.1-7.1-3.8-8.9-8-.3-.7-3.2-.9-4.5-.4-18.1 6.4-36.7 11-55.7 13.2-39.8 4.6-78.7.3-116.4-13.5-1.2-.5-2.5-.8-3.8-1.2-.1 0-.3 0-1.1.2-1.6 4.7-5 8.2-10.2 10-1.6.6-3.1 2.6-3.8 4.3-4.9 11.6-9.7 23.3-14.3 35-2.9 7.2-5 14.8-8.2 21.9-4.6 10.3-16.1 14.2-26 9.4-9.7-4.6-13.9-16.5-8.8-26.4 3.2-6.3 7.3-12.3 10.9-18.4 6.3-10.6 12.7-21.1 18.6-31.9 1.4-2.4 1.5-5.7 1.6-8.6.3-4.7.1-9.5.1-15.6-52.6-32.1-90.3-78.5-110.2-137.7-6.3-1.5-11.9-3.2-17.6-4-3.2-.4-6.7 0-9.8 1-10.2 3.1-20.2 6.6-30.3 9.9-7.3 2.4-14.4 5.1-21.8 7-11.5 2.9-20.9-3.9-23.9-16.7-2.3-10.1 4-20.6 14.6-22.5 11.1-2 22.4-2.6 33.6-4.1 8.2-1.1 16.4-2.5 24.5-4.3 2.6-.6 5-2.4 7.3-4 3.6-2.7 7.1-5.7 12-9.5zm442.2 35c-1.5-.5-2.4-.9-3.4-1-22-3.7-43.9-7.4-65.9-11-11.3-1.9-22.6-4-34-5.3-8.3-1-14.6 3.1-17.7 10.2-2.4 5.8-1.4 11.4.9 16.9 7.6 18.2 15.3 36.5 22.8 54.8 5.2 12.4 10.3 24.8 15.6 37.6 39-25.1 65.6-59.1 81.7-102.2zM326.5 325.1c1.4 1.2 2.4 2 3.4 2.8 26 18.5 52.1 37 78.1 55.5 6.4 4.6 13 6.6 20.5 2.9 7.3-3.6 9.6-10.2 10.1-17.7 1.7-27.6 3.3-55.2 4.9-82.8.3-5.4.5-10.8.8-16.9-45.8 5.7-84.6 24.6-117.8 56.2zm-59.2 165.8c2.5-.6 4.1-1 5.7-1.5 18.2-5.3 36.4-10.5 54.6-15.8 13.5-4 27.2-7.5 40.5-12.3 11.1-3.9 14.1-17.2 6.9-26.4-1.3-1.7-2.7-3.4-4.3-4.8-22.9-20.6-45.9-41.1-68.8-61.6-1.8-1.6-3.7-3.1-5.9-4.9-23.9 39.4-32.9 81.4-28.7 127.3zm373.5-127c-1.3 1-2.4 1.7-3.3 2.6-10.7 9.6-21.3 19.1-32 28.7-12.7 11.3-25.4 22.6-38 33.9-4.4 3.9-8.4 8.1-8.8 14.5-.5 9.9 5 16.5 16.7 19.9 29.1 8.4 58.2 16.7 87.3 25.1 2.5.7 5 1.3 7.5 2 5.2-43.6-7.4-92.9-29.4-126.7zM533.5 661.6c-.1-.7 0-1.1-.2-1.4-16.1-29.1-32.2-58.3-48.6-87.2-2.1-3.7-5.8-7.1-9.6-8.9-8.2-4-17.5-.3-22.4 8.5-15.9 28.7-31.7 57.4-47.5 86.1-.4.8-.6 1.7-.9 2.6 37.7 14.5 89.3 14.9 129.2.3zM278.7 538.5c12.8 40.8 48.3 82.9 81.3 101.4 3.2-7.7 6.4-15.3 9.5-23 9.4-22.7 18.8-45.5 28.1-68.2 3-7.3 4-14.6-1.6-21.2-5.3-6.2-12.3-7-20-5.5-12.6 2.3-25.2 4.3-37.9 6.4-19.7 3.4-39.3 6.7-59.4 10.1zm215-269.6c-.1 1.7-.3 2.7-.2 3.7 1.8 32.8 3.5 65.5 5.4 98.3.4 7.4 4 13 11.1 15.8 7.3 2.9 13.6.3 19.6-3.9 25.8-18.3 51.7-36.5 77.5-54.8 1-.7 1.9-1.6 3.3-2.7-33-31.7-71.7-50.1-116.7-56.4zM469 438c-11.4-3.2-19.7.4-25.1 10.5-.1.1-.2.2-.3.4-10.5 12.3-9.7 12.2-7.1 28.2 1.8 11.6 7.4 17.6 17.9 22.7 10.5 5 18.5 5 29 0 10.4-4.9 15.3-11.2 17.7-22.4 2.3-10.8 1.6-18.7-6-27.4-7.5-8.6-13.8-16.3-26.1-12z"/><path d="M659.7 538.5c-16.1 43.1-42.7 77.1-81.6 102.2-5.3-12.9-10.4-25.3-15.6-37.6-7.6-18.3-15.2-36.5-22.8-54.8-2.3-5.5-3.4-11.2-.9-16.9 3-7.1 9.3-11.2 17.7-10.2 11.4 1.3 22.7 3.5 34 5.3 22 3.6 43.9 7.3 65.9 11 .9.2 1.8.6 3.3 1zM326.5 325.1c33.2-31.6 72-50.5 117.8-56.1-.3 6.1-.5 11.5-.8 16.9-1.6 27.6-3.2 55.2-4.9 82.8-.5 7.5-2.7 14.1-10.1 17.7-7.5 3.7-14.1 1.6-20.5-2.9-26-18.6-52.1-37-78.1-55.5-1-.8-2-1.7-3.4-2.9zm-59.2 165.8c-4.2-45.9 4.8-87.9 28.6-127.2 2.2 1.8 4.1 3.3 5.9 4.9 23 20.5 45.9 41 68.8 61.6 1.6 1.4 3 3.1 4.3 4.8 7.2 9.3 4.1 22.5-6.9 26.4-13.3 4.7-27 8.3-40.5 12.3-18.2 5.3-36.4 10.5-54.6 15.8-1.5.4-3.1.8-5.6 1.4zm373.5-127c22 33.8 34.6 83.1 29.3 126.7-2.6-.7-5.1-1.3-7.5-2-29.1-8.3-58.2-16.7-87.3-25.1-11.7-3.4-17.2-10-16.7-19.9.3-6.4 4.4-10.6 8.8-14.5 12.7-11.3 25.4-22.6 38-33.9 10.7-9.5 21.3-19.1 32-28.7 1-.9 2.1-1.6 3.4-2.6zM533.5 661.6c-40 14.6-91.5 14.1-129.1-.3.3-.9.5-1.8.9-2.6 15.8-28.7 31.6-57.4 47.5-86.1 4.9-8.8 14.2-12.6 22.4-8.5 3.8 1.9 7.5 5.3 9.6 8.9 16.4 28.9 32.5 58.1 48.6 87.2.1.3.1.7.1 1.4zM278.7 538.5c20.1-3.4 39.7-6.7 59.4-10.1 12.6-2.1 25.3-4.1 37.9-6.4 7.7-1.4 14.7-.7 20 5.5 5.6 6.5 4.6 13.9 1.6 21.2-9.3 22.8-18.7 45.5-28.1 68.2-3.2 7.6-6.3 15.3-9.5 23-33-18.5-68.4-60.6-81.3-101.4zm215-269.6c45.1 6.3 83.7 24.7 116.6 56.3-1.3 1.1-2.2 2-3.3 2.7-25.8 18.3-51.7 36.5-77.5 54.8-6 4.2-12.3 6.8-19.6 3.9-7.1-2.8-10.7-8.4-11.1-15.8-1.9-32.8-3.6-65.5-5.4-98.3 0-.9.2-1.9.3-3.6zM469 438c12.3-4.4 18.6 3.4 26 11.9 7.6 8.7 8.3 16.6 6 27.4-2.4 11.1-7.3 17.4-17.7 22.4-10.4 5-18.5 5.1-29 0-10.5-5-16-11.1-17.9-22.7-2.6-16-3.4-15.9 7.1-28.2.1-.1.3-.2.3-.4 5.5-10 13.8-13.6 25.2-10.4z" class="st0"/></svg>