<svg xmlns="http://www.w3.org/2000/svg" role="img" viewBox="-19.32 -19.32 1004.64 373.64"><title>L3AF (5G) logo</title><defs><style>.cls-1{fill:#74ae4c}</style></defs><path d="M334.51 110.78C326.14 59.58 310.31.02 310.31.02s-32.57 61.44-66.08 81.92c-4.32 2.63-9.56 6-15.39 9.92h-93.19a7.93 7.93 0 0 0 0 15.86h71.47c-19.1 15-39.7 34.39-53.78 56.33h-97a7.93 7.93 0 1 0 0 15.86h88.26a91 91 0 0 0-8.2 29.34H72.98a7.93 7.93 0 0 0 0 15.86h63.59a73.53 73.53 0 0 0 1.54 8.53c16.75 68.89 10.23 102.38 10.23 102.38s45.61-44.68 119.15-60.51 75.39-113.49 67.02-164.73z" class="cls-1"/><path d="M87.26 107.7h23.8a7.93 7.93 0 0 0 0-15.86h-23.8a7.93 7.93 0 1 0 0 15.86zm-55.53 56.32H7.93a7.93 7.93 0 1 0 0 15.86h23.8a7.93 7.93 0 0 0 0-15.86zM225.3 64.87h23.8a7.94 7.94 0 0 0 0-15.87h-23.8a7.94 7.94 0 1 0 0 15.87z" class="cls-1"/><path fill="#231f20" d="M446.03 263.39c-21.94 0-33.39-10-33.39-39V93.54a35.23 35.23 0 0 1 11.45-2c3.66 0 5.12 1.46 5.12 4.14v127c0 20 6.09 26.32 18.52 26.32h61.9c3.41 0 4.63 1.7 4.63 6.09v8.28zm134.52-90.16c-1.47-2-2.68-5.85-3.17-9l51.66-57h-79.2c-2.68 0-3.9-1.46-3.9-4.63a41.1 41.1 0 0 1 1.22-9.75h93.58c3.17 0 4.87.73 6.33 2.92a25 25 0 0 1 3.17 8.78l-53.61 59.7c35.58 4.88 59.95 20.72 59.95 51.66 0 31.69-27 50.45-63.12 50.45-29.24 0-50.93-11.45-50.93-17.79a13.81 13.81 0 0 1 2.44-7.55c13.4 7.06 28.75 10.72 46.79 10.72 28 0 48.25-12.67 48.25-35.09 0-24.37-18-37.53-53.13-40.21-3.17-.29-4.87-1.02-6.33-3.21zm112.85 90.16c-3.41 0-5.36-1.21-5.36-3.41a6.92 6.92 0 0 1 .49-2.19l63.11-163a35.44 35.44 0 0 1 14.38-3.17c4.39 0 6.09 1.46 7.56 5.36l64.33 166.44h-11.96c-4.39 0-6.09-1.21-7.07-4.14l-15.84-42.4H721.4l-17.54 46.54zm68.72-155l-35.58 94.06h71.16zm111.59 155c-4.14 0-5.85-1.21-5.85-4.62v-166h95c2.68 0 3.9 1.71 3.9 4.87a42.74 42.74 0 0 1-1.22 9.75H884.4v65.07h64.34c3.65 0 4.87 1.46 4.87 5.85v8.53H884.4v76.51z"/><path fill="#679845" d="M334.52 110.78C326.58 62.25 311.96 6.24 310.45.52c.41 37.51-3.68 95.17-29 131.67-40 57.71-75.4 93.08-94.95 121-11.06 15.8-27.19 50.38-37.25 82 6.46-6 50.43-45 118.23-59.64 73.55-15.84 75.42-113.53 67.04-164.77z"/></svg>