<svg xmlns="http://www.w3.org/2000/svg" role="img" viewBox="36.77 23.02 323.96 196.71"><title>MEF logo</title><defs><style>.cls-1{fill:#000427}</style></defs><g id="logo-mef-white"><g id="Group_1997" data-name="Group 1997"><g id="Group_1994" data-name="Group 1994"><path id="Path_448" d="M180.56276 173.91467a455.72531 455.72531 0 0 1 28.95364-48.05037 498.22154 498.22154 0 0 1 29.25046 48.05037h33.07371a481.6772 481.6772 0 0 0-44.06824-73.59448c7.59086-9.851 15.41729-19.26919 23.328-28.107 6.74608 7.7 16.07045 18.81331 26.19542 32.12935l18.45514 25.79122a456.25 456.25 0 0 1 25.98276 43.78472h33.02765c-26.385-54.30615-61.01211-100.77247-103.39465-144.64721-39.69528 40.28523-74.79934 85.28625-103.64939 144.64721z" class="cls-1" data-name="Path 448"/><path id="Path_449" d="M99.86019 174.05833A503.349 503.349 0 0 1 169.325 73.44293c4.756 5.42832 10.236 11.85457 16.93236 20.25371l18.64091-23.68232c-11.03094-13.32945-22.79355-26.55546-35.30514-39.51523C129.89789 70.78432 95.60412 114.69355 66.754 174.05643z" class="cls-1" data-name="Path 449"/></g><g id="Group_1995" data-name="Group 1995"><path id="Path_450" fill="#000427" fill-rule="evenodd" d="M138.797 53.77534s-61.71122 2.82717-56.88818 24.43892C94.47593 134.478 297.921 172.38234 354.75549 181.18372a924.62446 924.62446 0 0 1-147.34031-22.35112c-89.9235-21.901-177.12135-66.5687-162.57943-98.12918 7.8724-17.06453 65.35817-12.56709 93.96125-6.92808z" data-name="Path 450"/></g><g id="Group_1996" data-name="Group 1996"><path id="Path_451" d="M171.886 213.72682V185.57h4.62571l10.34329 23.48318L196.99144 185.57h4.42848v28.15678h-3.25624v-23.08841l-9.99847 23.08857h-2.87314l-10.15173-23.08857v23.08857z" class="cls-1" data-name="Path 451"/><path id="Path_452" d="M226.50822 185.57963v2.95357h-14.76213v9.4488h14.07447v2.9517H211.746v9.84146h15.05709v2.9517h-18.70034V185.57z" class="cls-1" data-name="Path 452"/><path id="Path_453" d="M250.71911 185.57963v2.95357h-14.76225v9.4488h14.0746v2.9517h-14.0746v12.795h-3.63935v-28.15679z" class="cls-1" data-name="Path 453"/></g></g></g></svg>