<svg xmlns="http://www.w3.org/2000/svg" role="img" viewBox="-3.02 63.61 176.28 40.66"><title>Meta (5G) logo</title><path d="M10.4 68.4c-4.2 1.9-7.1 6.2-9 13.6-2.8 10.9.5 18.4 8.1 18.4 4.3 0 7.5-2.8 12.2-10.9 1.9-3.3 3.6-6.1 3.8-6.3.1-.1 2.1 2.6 4.4 6.1 5.6 8.7 8.4 11.1 12.6 11.1 5.2 0 7.7-3 8.3-9.9.2-3-.1-7.5-.8-10-1.5-5.2-6.9-12-10.4-12.9-3.1-.8-7.4.8-10.7 4L26.3 74l-1.9-2.1c-2.3-2.6-6.7-4.9-9.1-4.9-1 .1-3.2.7-4.9 1.4zM40.1 72c2.9 1.6 6.1 8.7 6.6 14.9.4 4.7.2 5.9-1.5 7.4s-2.4 1.6-4.2.7c-2-1.1-6.9-8.1-10.4-14.8-1.7-3.2-1.7-3.3 1.3-6.2 3.1-3.2 5-3.6 8.2-2zm-19.8 3.8c1.5 1.4 2.7 3 2.7 3.4 0 2.1-10.2 15.7-12.2 16.4-2.6.8-5.8-2.5-5.8-6 0-4.9 3.1-12.5 6-15 3.4-2.8 5.1-2.6 9.3 1.2zM63 84v16h2.5c2.4 0 2.4 0 2.7-11.5l.3-11.6 4.4 8.1c3.9 7 4.8 8.1 6.9 7.8 2-.2 3.5-2.1 7.1-8.5l4.6-8.3.3 12 .3 12H97V67.9l-3.2.3c-3 .3-3.7 1.1-8.3 9.5-2.7 5.1-5.3 9.3-5.7 9.3-.4 0-3-4.3-5.8-9.5-4.7-8.7-5.4-9.5-8.1-9.5H63v16zm68.7-14.3c-.4.3-.7 1.9-.7 3.4 0 2.1-.5 2.8-2.2 3.1-3.3.4-3.7 3.8-.5 3.8 2.4 0 2.5.2 2.8 8.5.5 9.7 1.5 11.4 7.8 12.2 3.8.5 4.1.4 4.1-1.8 0-1.9-.6-2.4-2.6-2.6-3.7-.2-4.5-1.8-4.2-9.3l.3-6.5 3.3-.3c2.4-.2 3.2-.8 3.2-2.3 0-1.5-.7-1.9-3.5-1.9-3.3 0-3.5-.2-3.5-3.5 0-2.7-.4-3.5-1.8-3.5-1 0-2.2.3-2.5.7zM108.3 77c-3.2 1.3-6.3 6.8-6.3 11.3 0 5.4 2.5 9.6 6.7 11.4 6.3 2.6 17.3-.5 14.4-4.1-1.1-1.3-1.7-1.3-4.6 0-1.9.8-4.1 1.4-5 1.4-1.8 0-6.5-4.3-6.5-6 0-.6 3.4-1 9.1-1h9.1l-.7-3.6c-.8-4.3-3-8.1-5.6-9.4-2.2-1.2-7.6-1.2-10.6 0zm8.3 3.8c1.6 1 3.4 4.8 2.7 5.6-1.2 1.2-12.3.7-12.3-.6 0-3.6 6.6-7 9.6-5zm33.4-2c-5.6 5.6-4.9 16.5 1.3 20.2 3.9 2.4 6.8 2.5 10.7.5 1.7-.9 3-1.1 3-.5 0 .5 1.1 1 2.5 1h2.5V76h-2.5c-1.6 0-2.5.6-2.5 1.6 0 1.4-.2 1.4-2.2 0-3.7-2.6-9.5-2-12.8 1.2zm12.4 3.3c2 1.6 2.6 2.9 2.6 6.1 0 5.4-2.2 7.8-7 7.8-4.5 0-6-1.6-6.7-6.9-.5-3.3-.1-4.4 2-6.5 3.2-3.1 5.6-3.3 9.1-.5z"/></svg>