<svg xmlns="http://www.w3.org/2000/svg" role="img" viewBox="-5.88 -5.88 305.50 81.50"><title>Nephio logo</title><path fill="#00AEEF" fill-rule="evenodd" d="M48.6911 31.6448a31.69382 31.69382 0 0 1 1.6637-10.1633c-3.0883-1.308-6.4067-1.984-9.7598-1.9881.0795.7342.1196 1.4722.1201 2.2107.0009 3.089-.6992 6.1378-2.0475 8.916-1.3483 2.7781-3.3094 5.213-5.7352 7.1206-2.4258 1.9075-5.2528 3.2378-8.2673 3.8903a20.31591 20.31591 0 0 1-9.1335-.1237 25.59543 25.59543 0 0 0-.2162 3.2394c.0096 5.5307 1.8308 10.9055 5.1842 15.2996 3.3534 4.3941 8.0538 7.5647 13.3798 9.0252 5.3259 1.4606 10.9833 1.1304 16.1039-.9399 5.1205-2.0702 9.4214-5.7662 12.2425-10.5206-4.1807-2.9128-7.5954-6.796-9.9523-11.3177-2.3569-4.5217-3.586-9.5476-3.5824-14.6485z" clip-rule="evenodd"/><path fill="#00AEEF" fill-rule="evenodd" d="M40.541 19.4934h.063c-.4033-3.7089-1.8148-7.2359-4.0809-10.19685-2.2661-2.961-5.2999-5.24251-8.771-6.59609C24.2809 1.34688 20.5056.97312 16.837 1.61987c-3.6685.64676-7.08955 2.28924-9.89058 4.74859S2.07175 12.0097.95132 15.5678C-.16912 19.1258-.2934 22.9236.592 26.5474c.88541 3.6239 2.74655 6.935 5.38078 9.5728 2.63422 2.6378 5.94052 4.5011 9.55892 5.3871.7885-6.0855 3.7613-11.6755 8.3634-15.7265 4.6022-4.0509 10.519-6.2858 16.6459-6.2874z" clip-rule="evenodd"/><path fill="#0077E0" fill-rule="evenodd" d="M15.5317 41.5073c2.9961.734 6.1195.7763 9.1342.1236 3.0148-.6527 5.8419-1.9833 8.2678-3.8912 2.4258-1.9079 4.3869-4.3431 5.735-7.1217 1.3481-2.7785 2.0479-5.8277 2.0465-8.9169a20.6662 20.6662 0 0 0-.1201-2.2107h-.0541c-6.1273.0017-12.0445 2.237-16.6467 6.2885-4.6022 4.0516-7.5748 9.6424-8.3626 15.7284z" clip-rule="evenodd"/><path fill="#00AEEF" fill-rule="evenodd" d="M80.2861 0c-6.6043.00013-13.0427 2.0721-18.411 5.92494-5.3684 3.85284-9.397 9.29306-11.5202 15.55656 3.3118 1.4047 6.2854 3.5025 8.7214 6.1526 2.436 2.6502 4.278 5.7914 5.4025 9.213a25.30262 25.30262 0 0 1 1.1175 10.6257c-.3881 3.5812-1.5362 7.0379-3.3674 10.1382 4.9615 3.4614 10.8105 5.4243 16.8527 5.6557 6.0421.2313 12.0237-1.2785 17.2347-4.3504a14.19875 14.19875 0 0 1-.8747-6.762c.262-2.2917 1.0782-4.4848 2.3779-6.3891 1.2998-1.9042 3.0435-3.4621 5.0805-4.5385s4.306-1.6388 6.609-1.6383c.456 0 .901.024 1.348.0661 1.22-4.6808 1.352-9.5792.387-14.3193-.965-4.7401-3.001-9.1956-5.953-13.0246-2.952-3.82896-6.7406-6.9295-11.0752-9.06354C89.8812 1.11302 85.116.00224 80.2861 0z" clip-rule="evenodd"/><path fill="#0077E0" fill-rule="evenodd" d="M50.3548 21.4815c-2.1914 6.4981-2.2186 13.5328-.0774 20.0477 2.1411 6.5148 6.3349 12.1579 11.9514 16.0818 1.8313-3.1003 2.9794-6.557 3.3675-10.1382.388-3.5812.007-7.2041-1.1175-10.6257-1.1245-3.4216-2.9666-6.5628-5.4025-9.213-2.436-2.6501-5.4097-4.7479-8.7215-6.1526zm60.5022 18.173c-.441-.0421-.901-.0661-1.348-.0661-2.303-.0005-4.572.5619-6.609 1.6383s-3.7807 2.6343-5.0804 4.5385c-1.2998 1.9043-2.116 4.0974-2.378 6.3891-.262 2.2917.0383 4.6128.8747 6.762 7.1947-4.2476 12.4207-11.1711 14.5407-19.2618z" clip-rule="evenodd"/><path fill="#00AEEF" fill-rule="evenodd" d="M110.854 39.6545c-2.125 8.0844-7.349 15.0021-14.5377 19.2498.9121 2.3536 2.435 4.4207 4.4117 5.9878 1.976 1.567 4.334 2.5772 6.831 2.9262 2.496.349 5.041.0241 7.37-.941 2.329-.9652 4.359-2.5357 5.88-4.5492 1.52-2.0136 2.477-4.3973 2.77-6.9048.294-2.5076-.087-5.0481-1.101-7.3592-1.015-2.3112-2.627-4.3091-4.671-5.7875-2.043-1.4783-4.444-2.3835-6.953-2.6221z" clip-rule="evenodd"/><path d="M131.317 44.0579c0-7.8202 4.639-12.8041 13.018-12.8041 8.378 0 12.976 4.9779 12.976 12.8041v18.8257h-3.412V44.0579c0-5.9764-3.303-9.676-9.564-9.676-6.262 0-9.61 3.6996-9.61 9.676v18.8257h-3.408V44.0579zm31.628-12.1755h22.727v3.1281h-19.304v10.5754h16.571v3.1311h-16.571v11.0505h19.319v3.1281h-22.742V31.8824zm28.075 0h13.4c7.48 0 10.795 4.1718 10.795 9.8625 0 5.6456-3.363 9.9257-10.795 9.9257h-9.992v11.2371h-3.408V31.8824zm13.448 16.6451c5.348 0 7.291-2.9416 7.291-6.7826 0-3.8409-1.943-6.7344-7.291-6.7344h-10.04v13.5049l10.04.0121zm14.913-16.6451h3.408v13.7035h20.078V31.8824h3.409v31.0012h-3.409V48.7049h-20.078v14.1787h-3.408V31.8824zm33.381 0h3.397v31.0012h-3.397V31.8824zm8.286 15.4961c0-9.297 6.817-16.1247 16.477-16.1247 9.661 0 16.472 6.8277 16.472 16.1247 0 9.2971-6.817 16.1217-16.475 16.1217-9.657 0-16.474-6.8277-16.474-16.1217zm29.544 0c0-7.4954-5.352-12.9966-13.067-12.9966-7.714 0-13.069 5.5012-13.069 12.9966 0 7.4954 5.352 12.9936 13.069 12.9936 7.718 0 13.067-5.5012 13.067-12.9936z"/></svg>