<svg xmlns="http://www.w3.org/2000/svg" role="img" viewBox="-5.90 87.10 410.54 68.54"><title>NIST logo</title><path d="M190.98863 96.31569h2.93079l5.353 6.86526v-6.86526h2.91739v11.228h-2.91739l-5.353-6.85188v6.87865H191.002zm21.4255 11.228h-2.67651v-.8431a2.67653 2.67653 0 0 1-2.31518 1.09737 4.075 4.075 0 1 1 0-8.15 3.11815 3.11815 0 0 1 2.36872 1.00369v-.74942h2.67652zm-6.10245-3.814a1.73974 1.73974 0 1 0 1.73974-1.73974 1.73973 1.73973 0 0 0-1.73974 1.73974zm10.86665 3.814h-2.67652v-5.353h-.88325v-2.23494h.88325V97.6138h2.67652v2.28842h1.539v2.23489h-1.539zm5.27274-10.57224a1.52562 1.52562 0 1 1-1.52561-1.52561 1.52561 1.52561 0 0 1 1.52561 1.52561zm-.16059 10.57224H219.614v-7.64147h2.67651zm10.43842-3.814c0 2.59622-2.14122 4.01477-4.60361 4.01477s-4.60361-1.4587-4.60361-4.01478 2.14122-4.08168 4.60361-4.08168 4.60361 1.472 4.60361 4.08164zm-6.34335 0a1.73974 1.73974 0 1 0 1.73974-1.73974 1.73973 1.73973 0 0 0-1.73974 1.73974zm10.26445-2.83716a2.67652 2.67652 0 0 1 2.449-1.2312c2.06091 0 2.87725 1.33826 2.87725 3.17167v4.72405h-2.67652v-3.72035c0-.736.12044-2.00739-1.21782-2.00739-1.09738 0-1.41855.81634-1.41855 1.7665v4.01477h-2.67651v-7.64145h2.67651zm15.497 6.65114h-2.6765v-.8431a2.67653 2.67653 0 0 1-2.31518 1.09737 4.075 4.075 0 0 1 0-8.15 3.11815 3.11815 0 0 1 2.36872 1.00369v-.74942h2.67652zm-6.10246-3.814a1.74643 1.74643 0 0 0 3.49286 0 1.74643 1.74643 0 1 0-3.49286 0zm10.61238 3.814h-2.67652v-12.3655h2.67652zm9.87635 0h-2.91737v-11.228h2.91739zm4.56346-6.65114a2.67654 2.67654 0 0 1 2.449-1.2312c2.06091 0 2.87724 1.33826 2.87724 3.17167v4.72405h-2.67647v-3.72035c0-.736.12044-2.00739-1.21782-2.00739-1.09738 0-1.41855.81634-1.41855 1.7665v4.01477h-2.67652v-7.64145h2.67652zm12.19153.97693a3.34557 3.34557 0 0 0-1.45869-.37472c-.3078 0-.84311.13383-.84311.52192s.84311.58884 1.21782.66913c1.27134.25427 2.22151.84311 2.22151 2.26166 0 2.00739-1.83341 2.85049-3.59992 2.85049a5.9285 5.9285 0 0 1-3.078-.88325l.97692-1.88694a4.36277 4.36277 0 0 0 2.14122.77619c.34794 0 .84311-.16059.84311-.58884s-.84311-.629-1.69959-.85648a1.91372 1.91372 0 0 1-1.6996-2.00739c0-1.87356 1.6996-2.67652 3.37242-2.67652a6.07577 6.07577 0 0 1 2.51593.49516zm5.55377 5.67421h-2.67652v-5.353h-.88326v-2.23492h.88326V97.6138h2.67649v2.28842h1.539v2.23489h-1.539zm5.27273-10.57224a1.52561 1.52561 0 1 1-1.52561-1.52561 1.52561 1.52561 0 0 1 1.52563 1.52561zm-.16058 10.57224h-2.67652v-7.64145h2.67652zm4.75082 0h-2.6765v-5.353h-.88325v-2.23492h.88325V97.6138h2.6765v2.28842h1.539v2.23489h-1.539zm5.05861-7.64145v4.08168c0 .96355.24088 1.65944 1.33826 1.65944s1.33826-.68251 1.33826-1.65944v-4.08168h2.67652v4.6036c0 2.51593-1.77989 3.29212-4.01478 3.29212s-4.01477-.77619-4.01477-3.29212v-4.6036zm10.11723 7.64145h-2.67652v-5.353h-.85648v-2.23492h.88326V97.6138h2.67651v2.28842h1.539v2.23489h-1.539zm10.25106-3.359h-5.75451a1.51223 1.51223 0 0 0 1.69959 1.69959 1.33826 1.33826 0 0 0 1.33826-.69589h2.6096a3.707 3.707 0 0 1-3.89434 2.67651c-2.5293 0-4.42963-1.43193-4.42963-4.01477a4.21552 4.21552 0 0 1 8.41764.16059zm-2.51593-1.56576a1.63267 1.63267 0 0 0-3.14491 0zm17.50442 1.11075c0 2.59623-2.14123 4.01478-4.60361 4.01478s-4.60362-1.4587-4.60362-4.01478 2.14123-4.08168 4.60362-4.08168 4.60363 1.47202 4.60363 4.08165zm-6.34335 0a1.74643 1.74643 0 1 0 1.74641-1.74642 1.74643 1.74643 0 0 0-1.74639 1.74639zm10.54547 3.814H340.646v-5.353h-.95017v-2.23491h.95017v-.96355a3.42593 3.42593 0 0 1 3.43933-3.90771 2.42216 2.42216 0 0 1 1.16428.26765v2.34195a2.32864 2.32864 0 0 0-.95017-.25427c-.6959 0-.93678.41486-.93678 1.33826v1.2312h1.887v2.23489h-1.887zM197.158 117.17913a3.078 3.078 0 0 0-1.94047-.73605c-.53529 0-1.258.3078-1.258.93678s.78956.91 1.33825 1.07061l.74943.2275c1.56575.455 2.7702 1.24458 2.7702 3.06462a3.8274 3.8274 0 0 1-1.16428 3.02446 4.93814 4.93814 0 0 1-3.18506 1.05722 6.91873 6.91873 0 0 1-3.94786-1.33825l1.24457-2.35534a4.01483 4.01483 0 0 0 2.59623 1.16429c.6825 0 1.41855-.33457 1.41855-1.13752s-1.1509-1.09737-1.76651-1.33826c-1.83341-.52192-3.03785-1.00369-3.03785-3.17167a3.64009 3.64009 0 0 1 3.88094-3.77389 7.695 7.695 0 0 1 3.51962.9234zm5.9151 8.35073h-2.67652v-5.353h-.88325v-2.23489h.88325v-2.3018h2.67652v2.3018h1.55238v2.23489h-1.539zm10.75958 0h-2.67651v-.84311a2.67651 2.67651 0 0 1-2.31518 1.09737 4.075 4.075 0 1 1 0-8.15 3.11817 3.11817 0 0 1 2.36872.99031v-.74943h2.67652zm-6.10245-3.814a1.73974 1.73974 0 1 0 1.73974-1.73974 1.73974 1.73974 0 0 0-1.73974 1.7397zm10.61238-2.85049a2.67653 2.67653 0 0 1 2.449-1.2312c2.06091 0 2.87725 1.33826 2.87725 3.17167v4.72406h-2.67652v-3.7204c0-.736.12044-2.00739-1.21782-2.00739-1.09738 0-1.41855.81634-1.41855 1.7665v4.01477h-2.67651v-7.64145h2.67654zm12.88743 5.808a2.67654 2.67654 0 0 1-2.30181 1.09737 4.075 4.075 0 0 1 0-8.15 3.11811 3.11811 0 0 1 2.36872.99031v-5.47348h2.67652v12.36551H231.297zm-3.39917-2.95755a1.74643 1.74643 0 1 0 3.49286 0 1.74643 1.74643 0 1 0-3.49286 0zm16.16616 3.814h-2.67652v-.84311a2.67646 2.67646 0 0 1-2.3018 1.09737 4.075 4.075 0 0 1 0-8.15 3.11817 3.11817 0 0 1 2.36872.99031v-.74939h2.67657zm-6.10245-3.814a1.73974 1.73974 0 1 0 1.73974-1.73974 1.73974 1.73974 0 0 0-1.73974 1.73974zM248.507 119.133a2.67652 2.67652 0 0 1 2.47579-1.33826h.52192v2.60961a2.20816 2.20816 0 0 0-1.15091-.25427c-1.49884 0-1.87355 1.00369-1.87355 2.31518v3.078h-2.67651v-7.64146h2.67651zm9.79606 5.54039a2.67654 2.67654 0 0 1-2.30181 1.09737 4.075 4.075 0 0 1 0-8.15 3.11815 3.11815 0 0 1 2.36873.99031v-5.47348h2.67651v12.36551h-2.67651zm-3.39917-2.95755a1.73974 1.73974 0 1 0 1.73974-1.73974 1.73974 1.73974 0 0 0-1.73979 1.73972zm12.84729-1.86018a3.34574 3.34574 0 0 0-1.4587-.37471c-.30779 0-.84311.13382-.84311.52192s.84311.58883 1.21782.66913c1.27134.25427 2.22152.8431 2.22152 2.26165 0 2.00739-1.83341 2.85049-3.59992 2.85049a5.92838 5.92838 0 0 1-3.078-.88325l.97692-1.88694a4.376 4.376 0 0 0 2.14122.77619c.34794 0 .84311-.16059.84311-.57545s-.84311-.629-1.69959-.85648a1.91372 1.91372 0 0 1-1.69959-2.00739c0-1.87356 1.69959-2.67652 3.37241-2.67652a6.06252 6.06252 0 0 1 2.51593.49516zm16.07247 5.67422h-2.67652v-.84311a2.67647 2.67647 0 0 1-2.3018 1.09737 4.075 4.075 0 1 1 0-8.15 3.11817 3.11817 0 0 1 2.36872.99031v-.74945h2.67652zm-6.10245-3.814a1.74643 1.74643 0 1 0 3.49285 0 1.74643 1.74643 0 1 0-3.49285 0zm10.61237-2.85049a2.6765 2.6765 0 0 1 2.43564-1.2312c2.06091 0 2.87725 1.33826 2.87725 3.17167v4.72406h-2.67652v-3.72042c0-.736.12044-2.00739-1.21782-2.00739-1.09738 0-1.41855.81634-1.41855 1.7665v4.01477H285.657v-7.64145h2.67651zm12.88743 5.808a2.67649 2.67649 0 0 1-2.31518 1.09737 4.075 4.075 0 0 1 0-8.15 3.11811 3.11811 0 0 1 2.36872.99031v-5.47348h2.67646v12.36551h-2.67652zm-3.39916-2.95755a1.73974 1.73974 0 1 0 1.73973-1.73974 1.73973 1.73973 0 0 0-1.73978 1.73972zm17.45087 3.814h-2.91739v-8.779h-2.40892v-2.47577h7.7485v2.47577h-2.4089zm10.15729-3.42592h-5.71436a1.51223 1.51223 0 0 0 1.69959 1.69958 1.33826 1.33826 0 0 0 1.33826-.69589h2.6096a3.707 3.707 0 0 1-3.88094 2.67651c-2.52931 0-4.42963-1.43193-4.42963-4.01477a4.21551 4.21551 0 0 1 8.41763.16059zm-2.51593-1.56577a1.63267 1.63267 0 0 0-3.14491 0zm9.26074-.16059a2.3955 2.3955 0 0 0-1.33825-.5353 1.83341 1.83341 0 0 0-1.86018 1.80625q-.00041.027 0 .05393a1.82 1.82 0 0 0 1.76318 1.87515q.07525.00232.15052-.00159a2.08768 2.08768 0 0 0 1.33826-.52192v2.28842a4.229 4.229 0 0 1-1.90033.42824 4.01479 4.01479 0 0 1-4.15929-3.86486q-.00274-.07492-.00269-.14991a4.09508 4.09508 0 0 1 4.03742-4.15192q.11584-.00162.23162.00332a3.707 3.707 0 0 1 1.79327.44162zm4.40286-7.21321v5.6876a2.82375 2.82375 0 0 1 2.449-1.21782c1.94047 0 2.87724 1.33826 2.87724 3.21182v4.68391h-2.67651v-3.9211c0-.89663-.13384-1.82-1.21782-1.82s-1.41855.9234-1.41855 1.82v3.9211h-2.67652v-12.36551zm9.9031 5.701a2.67656 2.67656 0 0 1 2.449-1.2312c2.06093 0 2.87724 1.33826 2.87724 3.17167v4.72406h-2.67651v-3.72038c0-.736.12044-2.00739-1.21782-2.00739-1.09738 0-1.41855.81634-1.41855 1.7665v4.01477h-2.67652v-7.64145h2.67652zm15.71114 2.85049c0 2.59622-2.14122 4.01477-4.60361 4.01477s-4.60361-1.4587-4.60361-4.01477 2.14122-4.01477 4.60361-4.01477 4.60364 1.40515 4.60364 4.01475zm-6.34333 0a1.73974 1.73974 0 1 0 1.73972-1.73974 1.73974 1.73974 0 0 0-1.73969 1.73972zm10.27781 3.814h-2.67649v-12.36549h2.67652zm10.4384-3.814c0 2.59622-2.14122 4.01477-4.60361 4.01477s-4.60362-1.4587-4.60362-4.01477 2.14123-4.01477 4.60362-4.01477 4.60364 1.40515 4.60364 4.01475zm-6.34333 0a1.74642 1.74642 0 1 0 1.74057-1.74059 1.74643 1.74643 0 0 0-1.74054 1.74057zm15.952 3.06461c0 3.252-1.60593 4.56346-4.42963 4.56346-1.75312 0-4.10846-.91-4.34934-2.9174h3.03783a.93672.93672 0 0 0 .50855.57545 1.77985 1.77985 0 0 0 .77617.174c1.45869 0 1.73972-.95016 1.73972-2.19474v-.36133a3.17169 3.17169 0 0 1-2.42225 1.04384 3.72036 3.72036 0 0 1-3.77818-3.66162q-.00191-.12308.00429-.24609a4.01476 4.01476 0 0 1 3.89143-4.13443l.02965-.00079a2.6765 2.6765 0 0 1 2.2483 1.0572v-.803h2.67652zm-6.11585-3.13152a1.74642 1.74642 0 1 0 1.74058-1.74059 1.74643 1.74643 0 0 0-1.7405 1.74057zm6.69129-3.76051h3.13152l2.04753 3.9211 1.994-3.9211H397l-6.11585 11.45549h-3.05123l2.60962-4.85788zm-194.35509 21.61285a4.14842 4.14842 0 0 0 .49515 2.50254 2.904 2.904 0 0 0 2.26165 1.0706 2.97091 2.97091 0 0 0 2.20812-1.00369 3.86759 3.86759 0 0 0 .57544-2.56945V132.81h1.24457v7.02585a4.01472 4.01472 0 0 1-.97692 3.11814 4.12182 4.12182 0 0 1-3.02445 1.33826 4.20213 4.20213 0 0 1-2.904-1.1509 4.0148 4.0148 0 0 1-1.09738-3.252V132.81h1.258zm10.97371 3.86756a.83641.83641 0 1 1-.83641-.83641.83641.83641 0 0 1 .83641.83641zm7.68161-8.39087a2.06092 2.06092 0 0 0-1.94047-1.21782 1.77989 1.77989 0 0 0-1.80666 1.72635c0 .96355 1.00369 1.41856 1.75311 1.75312l.74943.32118c1.45869.64237 2.67651 1.33826 2.67651 3.15829a3.54638 3.54638 0 0 1-7.02585.56207l1.21782-.34795a2.31518 2.31518 0 0 0 2.24826 2.08769 2.26167 2.26167 0 0 0 2.30181-2.19474c0-1.33826-1.03047-1.75312-2.07431-2.23489l-.6825-.29442c-1.33826-.60222-2.449-1.27135-2.449-2.87725a2.94419 2.94419 0 0 1 3.01664-2.86988q.0642.0016.12828.006a3.22519 3.22519 0 0 1 2.904 1.73974zm5.23259 8.39087a.83641.83641 0 1 1-.83641-.83641.83641.83641 0 0 1 .83641.83641zm7.18644-10.55883h2.11445a6.12922 6.12922 0 0 1 4.37611 1.33826 5.76788 5.76788 0 0 1 .30652 8.15126q-.14745.159-.30652.30653a5.96864 5.96864 0 0 1-4.443 1.41855H223.428zm2.168 10.07708a4.72409 4.72409 0 0 0 3.54637-1.16428 4.59022 4.59022 0 0 0 .2029-6.48839q-.09824-.10459-.2029-.2029a4.81765 4.81765 0 0 0-3.47947-1.084h-1.0037v8.91279zm8.5247-2.04753a2.26165 2.26165 0 0 0 2.17975 2.34069q.0543.00194.10868.00126a2.39547 2.39547 0 0 0 2.12782-1.44532l1.01707.57545a3.533 3.533 0 0 1-3.23858 1.96724 3.3858 3.3858 0 0 1-3.43241-3.33852q-.00181-.13077.00647-.26139a3.39917 3.39917 0 1 1 6.69129.16059zm4.24227-1.01708a2.14121 2.14121 0 0 0-2.06091-1.83341 2.22149 2.22149 0 0 0-2.12782 1.83341zm4.02815-1.80664a2.94413 2.94413 0 0 1 2.40887-1.191 3.47947 3.47947 0 0 1 3.35095 3.60341q-.00189.05181-.00531.10356a3.39916 3.39916 0 0 1-3.10646 3.6686q-.13269.011-.26595.01161a2.95755 2.95755 0 0 1-2.39548-1.17767v4.91141h-1.191v-10.93364h1.191zm0 2.42225a2.42223 2.42223 0 0 0 2.152 2.66523q.07475.008.14982.01128a2.38215 2.38215 0 0 0 2.342-2.67651 2.34194 2.34194 0 0 0-2.147-2.52189q-.104-.00834-.20835-.00742a2.36871 2.36871 0 0 0-2.34826 2.389q.00064.07693.00631.1537zm13.851 3.58653h-1.19105v-.96361a2.94418 2.94418 0 0 1-2.40887 1.16428 3.707 3.707 0 0 1 0-7.38718 3.02445 3.02445 0 0 1 2.39547 1.191v-1.0037h1.191zm-5.76789-3.57315a2.42224 2.42224 0 0 0 2.15131 2.66579q.0684.0073.13712.01072a2.38215 2.38215 0 0 0 2.34195-2.67651 2.34194 2.34194 0 0 0-2.147-2.52189q-.104-.00834-.20835-.00742a2.36871 2.36871 0 0 0-2.279 2.4552q.00138.03708.00392.07411zm9.11353-2.67652a1.79327 1.79327 0 0 1 1.55239-.95016 2.10109 2.10109 0 0 1 1.07061.33456l-.56207 1.084a1.16431 1.16431 0 0 0-.72265-.3078c-1.33826 0-1.33826 1.68621-1.33826 2.59622v3.50624h-1.191v-6.99909h1.191zm5.40656 6.24966h-1.191v-5.8616h-.73605v-1.11075h.73605v-2.51593h1.191v2.51593h1.258v1.11075h-1.258zm3.51962-6.24966a1.9672 1.9672 0 0 1 1.64605-.95016 2.15459 2.15459 0 0 1 1.94047 1.16428 2.32855 2.32855 0 0 1 2.10108-1.16428c1.77988 0 2.23488 1.45869 2.23488 2.93078v4.25566h-1.191v-4.01477c0-.91 0-2.02077-1.33826-2.02077s-1.52562 1.33826-1.52562 2.3821v3.707h-1.191V140.05c0-.86987-.10707-2.11445-1.258-2.11445-1.33826 0-1.55238 1.41855-1.55238 2.47577v3.62668h-1.191v-6.99909h1.191zm10.8399 3.06461a2.26165 2.26165 0 0 0 2.17975 2.34069q.05432.00194.10868.00126a2.39547 2.39547 0 0 0 2.12782-1.44532l1.01707.57545a3.533 3.533 0 0 1-3.23858 1.96724 3.3858 3.3858 0 0 1-3.43241-3.33852q-.00181-.13077.00647-.26139a3.39917 3.39917 0 1 1 6.69129.16059zm4.24227-1.01708a2.12783 2.12783 0 0 0-2.06091-1.83341 2.20813 2.20813 0 0 0-2.12782 1.83341zm4.08169-1.95385a2.3553 2.3553 0 0 1 1.994-1.04384c1.94047 0 2.38209 1.33826 2.38209 3.03784v4.162H290.903v-4.01477c0-1.13752-.09368-2.14121-1.47209-2.14121-1.64605 0-1.73974 1.52561-1.73974 2.77019v3.31888h-1.19105v-6.99909h1.19105zm7.90911 6.156H294.436V138.163h-.736v-1.11075h.736v-2.51593h1.191v2.51593h1.33826v1.11075H295.627zm6.30321-3.49285a3.68021 3.68021 0 1 1 3.68021 3.68021 3.6802 3.6802 0 0 1-3.68026-3.68025zm1.19105 0a2.4867 2.4867 0 1 0-.00227-.13619q-.00041.06141.00227.12281zm9.11353 3.49285h-1.191V138.163h-.6959v-1.11075h.65575v-2.78358a3.60006 3.60006 0 0 1 .3078-1.82 2.03415 2.03415 0 0 1 1.80665-.88325 2.81027 2.81027 0 0 1 .84311.14721v1.20437a2.46251 2.46251 0 0 0-.803-.16059c-.96355 0-.96355.68251-.96355 1.92709v2.36872h1.76651v1.11078h-1.76651zm15.93866-8.779a4.80435 4.80435 0 0 0-3.42594-1.48547 4.65045 4.65045 0 0 0 0 9.30089 4.92477 4.92477 0 0 0 3.39916-1.48546v1.55242a5.79567 5.79567 0 1 1-3.3475-10.51871h.00186a5.353 5.353 0 0 1 3.34564 1.09737zm1.48546 5.28612a3.68021 3.68021 0 1 1 3.68021 3.68021 3.68021 3.68021 0 0 1-3.68026-3.68022zm1.19105 0a2.4867 2.4867 0 1 0-.00227-.13619q-.00039.06141.00227.12281zm8.93955-2.75681a1.96723 1.96723 0 0 1 1.6862-.95016 2.15459 2.15459 0 0 1 1.94047 1.16428 2.32856 2.32856 0 0 1 2.10106-1.16428c1.79326 0 2.23491 1.45869 2.23491 2.93078v4.25566h-1.19112v-4.01477c0-.91 0-2.02077-1.33826-2.02077s-1.52562 1.33826-1.52562 2.3821v3.707h-1.191V140.05c0-.86987-.10707-2.11445-1.24457-2.11445-1.33826 0-1.55239 1.41855-1.55239 2.47577v3.62668h-1.19105v-6.99909h1.27134zm11.49566 0a1.98056 1.98056 0 0 1 1.68621-.95016 2.15459 2.15459 0 0 1 1.94049 1.16428 2.32858 2.32858 0 0 1 2.10108-1.16428c1.79326 0 2.23491 1.45869 2.23491 2.93078v4.25566h-1.19107v-4.01477c0-.91 0-2.02077-1.33826-2.02077s-1.52563 1.33826-1.52563 2.3821v3.707h-1.19107V140.05c0-.86987-.107-2.11445-1.258-2.11445-1.33826 0-1.55238 1.41855-1.55238 2.47577v3.62668h-1.19107v-6.99909h1.19107zm10.85325 3.06461a2.26164 2.26164 0 0 0 2.17973 2.34069q.05435.00194.10868.00126a2.39545 2.39545 0 0 0 2.12782-1.44532l1.01709.57545a3.533 3.533 0 0 1-3.2386 1.96724 3.38575 3.38575 0 0 1-3.43239-3.33852q-.00185-.13077.00645-.26139a3.39918 3.39918 0 1 1 6.69129.16059zm4.24229-1.01708a2.1412 2.1412 0 0 0-2.06093-1.83341 2.20809 2.20809 0 0 0-2.12782 1.83341zm4.02817-2.04753a1.79327 1.79327 0 0 1 1.55239-.95016 2.08766 2.08766 0 0 1 1.07059.33456l-.56209 1.084a1.16425 1.16425 0 0 0-.72267-.3078c-1.33826 0-1.33826 1.6862-1.33826 2.59622v3.50625h-1.17767v-6.99909h1.19107zm9.06 1.32487a2.67652 2.67652 0 0 0-2.18136-1.17767 2.50255 2.50255 0 0 0-2.47742 2.52742q.00036.03441.00163.0688a2.449 2.449 0 0 0 2.29711 2.592q.05581.00336.11174.00418a2.67649 2.67649 0 0 0 2.28841-1.20443v1.6059a3.82737 3.82737 0 0 1-2.22151.70927 3.62671 3.62671 0 0 1-3.71979-3.53113q-.00209-.08121-.00057-.16246a3.69358 3.69358 0 0 1 3.68017-3.707h.01344a3.76058 3.76058 0 0 1 2.168.69589zm2.48914 1.73974a2.26165 2.26165 0 0 0 2.17974 2.34069q.05433.00194.10867.00126a2.39545 2.39545 0 0 0 2.12783-1.44532l1.01709.57545a3.533 3.533 0 0 1-3.2386 1.96724 3.38574 3.38574 0 0 1-3.43239-3.33852q-.00185-.13077.00645-.26139a3.39918 3.39918 0 1 1 6.69129.16059zm4.2423-1.01708a2.14121 2.14121 0 0 0-2.06093-1.83341 2.20809 2.20809 0 0 0-2.12782 1.83341zm-374.284 4.25566H2.04v-38.15374a10.54546 10.54546 0 0 1 7.22659-9.60869 11.2949 11.2949 0 0 1 10.88 2.10106l32.5732 35.223c1.63267 1.01708 2.3018 0 2.28842-1.00369V96.31569h9.97v37.83255a10.70607 10.70607 0 0 1-6.49055 8.779c-3.881 1.51223-8.13661 1.49885-13.16846-2.74343l-30.5256-33.06838c-.803-.85649-2.89064-.96355-2.93079.72266v36.22664zM71.335 96.31569h9.97v34.21925c0 3.64006 3.01108 3.64006 6.03554 3.65344h44.283a4.60361 4.60361 0 0 0 3.93448-4.38948 4.73744 4.73744 0 0 0-4.12184-4.57685h-28.81272c-4.95155.174-15.24275-4.38948-15.2829-14.09185 0-11.84358 9.7559-14.50672 14.18553-14.81452h81.51329v10.0637h-20.395v37.69873H152.768v-37.69873h-49.95718c-4.75082-.41486-8.19014 7.78867-.36133 8.96633h30.64611c4.60361 0 12.23168 4.01478 12.25845 13.9045s-5.94187 14.8279-12.25845 14.8279H87.809c-7.48086 0-10.15738-1.6862-12.80713-4.20213s-2.86387-3.78727-3.65344-8.79235V96.28892z"/></svg>