<svg xmlns="http://www.w3.org/2000/svg" role="img" viewBox="5.56 -0.44 230.62 119.62"><title>NTT DATA Spain, S.L.U. logo</title><g fill="#9bae0c"><path d="M213 4h1v1h-1zm1 0h1v1h-1zm1 0h1v1h-1zm1 0h4v1h-4zm4 0h1v1h-1zm1 0h1v1h-1zm1 0h1v1h-1zm-15 1h1v1h-1zm1 0h1v1h-1zm1 0h1v1h-1zm1 0h1v1h-1zm1 0h1v1h-1zm1 0h10v21h-10zm10 0h1v22h-1zm1 0h1v1h-1zm1 0h1v1h-1zm1 0h1v1h-1zm-23 1h1v1h-1zm1 0h1v1h-1zm1 0h1v1h-1zm1 0h1v1h-1z"/><path d="M206 6h19v20h-19zm19 0h1v67h-1zm1 0h1v1h-1zm1 0h1v1h-1zm-30 1h1v1h-1zm1 0h1v1h-1zm1 0h1v1h-1zm1 0h1v1h-1z"/><path d="M201 7h25v10h-25zm25 0h1v62h-1zm1 0h1v1h-1zm1 0h1v1h-1zm-36 1h1v1h-1zm1 0h1v1h-1zm1 0h1v1h-1zm1 0h1v1h-1zm1 0h1v1h-1z"/><path d="M197 8h30v9h-30zm30 0h1v57h-1zm1 0h1v1h-1zm-40 1h1v1h-1zm1 0h1v1h-1zm1 0h1v1h-1zm1 0h1v1h-1z"/><path d="M192 9h36v8h-36zm36 0h1v51h-1zm1 0h1v1h-1zm-46 1h1v1h-1zm1 0h1v1h-1zm1 0h1v1h-1zm1 0h1v1h-1z"/><path d="M187 10h41v7h-41zm42 0h1v1h-1zm1 0h1v1h-1zm-53 1h1v1h-1zm1 0h1v1h-1zm1 0h1v1h-1zm1 0h1v1h-1zm1 0h1v1h-1z"/><path d="M182 11h47v6h-47zm47 0h1v43h-1zm1 0h1v1h-1zm-60 1h1v1h-1zm1 0h1v1h-1zm1 0h1v1h-1zm1 0h1v1h-1zm1 0h1v1h-1zm1 0h1v1h-1z"/><path d="M176 12h53v5h-53zm54 0h1v1h-1zm-70 1h1v1h-1zm1 0h1v1h-1zm1 0h1v1h-1zm1 0h1v1h-1zm1 0h1v1h-1zm1 0h1v1h-1zm1 0h1v1h-1zm1 0h1v1h-1zm1 0h1v1h-1z"/><path d="M169 13h61v4h-61zm61 0h1v33h-1zm-86 1h1v1h-1zm1 0h1v1h-1zm1 0h1v1h-1zm1 0h2v1h-2zm2 0h1v1h-1zm1 0h1v1h-1zm1 0h5v1h-5zm5 0h1v1h-1z"/><path d="M157 14h73v3h-73zm74 0h1v1h-1zm-92 1h1v1h-1zm1 0h1v1h-1zm1 0h1v1h-1zm1 0h1v1h-1z"/><path d="M143 15h87v2h-87zm88 0h1v1h-1zm-97 1h1v1h-1zm1 0h1v1h-1zm1 0h1v1h-1zm1 0h1v1h-1z"/><path d="M138 16h92v1h-92zm93 0h1v1h-1zm-100 1h1v1h-1zm1 0h1v1h-1zm1 0h1v1h-1zm1 0h96v1h-96zm97 0h1v1h-1zm-102 1h1v1h-1zm1 0h1v1h-1zm1 0h69v8h-69zm69 0h1v1h-1zm1 0h1v1h-1zm1 0h1v1h-1zm1 0h1v1h-1zm1 0h1v1h-1zm1 0h25v1h-25zm26 0h1v1h-1zm-105 1h1v1h-1zm1 0h1v1h-1zm1 0h1v1h-1z"/><path d="M129 19h70v7h-70zm71 0h1v2h-1zm1 0h1v2h-1zm3 0h1v2h-1zm1 0h1v2h-1zm26 0h1v2h-1zm-107 1h1v1h-1zm1 0h1v1h-1z"/><path d="M126 20h73v6h-73zm-4 1h1v1h-1zm1 0h1v1h-1z"/><path d="M124 21h75v5h-75zm76 0h1v1h-1zm1 0h1v1h-1zm3 0h1v1h-1zm1 0h1v1h-1zm26 0h1v1h-1zm-110 1h1v1h-1zm1 0h1v1h-1z"/><path d="M123 22h77v4h-77zm77 0h1v4h-1zm1 0h1v1h-1zm1 0h1v1h-1zm1 0h1v1h-1zm1 0h1v1h-1zm1 0h25v4h-25zm26 0h1v1h-1zm-112 1h1v1h-1zm1 0h1v1h-1z"/><path d="M121 23h110v3H121zm110 0h1v8h-1zm-114 1h1v1h-1zm1 0h1v1h-1z"/><path d="M119 24h112v2H119zm-3 1h1v1h-1zm1 0h1v1h-1z"/><path d="M118 25h113v1H118zm-3 1h1v1h-1zm1 0h115v1H116zm-3 1h1v1h-1zm1 0h1v1h-1zm1 0h14v1h-14zm14 0h1v1h-1zm1 0h1v1h-1zm1 0h1v1h-1zm1 0h1v1h-1zm1 0h1v1h-1zm2 0h1v1h-1zm1 0h1v1h-1zm1 0h1v1h-1zm1 0h3v1h-3zm3 0h1v3h-1zm1 0h7v1h-7zm7 0h1v1h-1zm1 0h1v1h-1zm1 0h3v9h-3zm3 0h1v11h-1zm1 0h1v1h-1zm1 0h5v1h-5zm5 0h1v1h-1zm1 0h4v1h-4zm4 0h1v1h-1zm1 0h1v1h-1zm1 0h1v1h-1zm1 0h1v1h-1zm1 0h1v1h-1zm2 0h1v1h-1zm1 0h1v1h-1zm1 0h1v1h-1zm1 0h5v1h-5zm5 0h1v17h-1zm1 0h1v1h-1zm1 0h1v1h-1zm1 0h1v1h-1zm1 0h1v1h-1zm1 0h1v1h-1zm1 0h1v1h-1zm1 0h2v1h-2zm2 0h1v1h-1zm1 0h1v1h-1zm1 0h1v1h-1zm1 0h2v1h-2zm2 0h1v1h-1zm1 0h1v1h-1zm1 0h1v71h-1zm1 0h1v17h-1zm1 0h1v1h-1zm1 0h1v1h-1zm1 0h1v2h-1zm1 0h1v1h-1zm1 0h1v1h-1zm1 0h1v1h-1zm1 0h1v1h-1zm1 0h7v1h-7zm7 0h1v1h-1zm1 0h1v1h-1zm1 0h1v1h-1zm1 0h1v1h-1zm1 0h1v1h-1zm1 0h1v1h-1zm1 0h1v1h-1zm1 0h1v1h-1zm1 0h1v1h-1zm1 0h1v1h-1zm1 0h9v1h-9zm-110 1h1v1h-1zm1 0h1v1h-1zm1 0h14v1h-14zm14 0h1v1h-1zm1 0h1v1h-1zm1 0h1v1h-1zm1 0h1v1h-1zm1 0h1v1h-1zm1 0h1v1h-1zm1 0h1v1h-1zm1 0h1v1h-1zm3 0h1v1h-1zm1 0h1v1h-1zm1 0h1v1h-1zm2 0h1v1h-1zm1 0h1v1h-1zm5 0h1v1h-1zm1 0h1v1h-1zm1 0h1v1h-1zm5 0h1v1h-1zm1 0h1v1h-1zm1 0h1v1h-1zm3 0h1v1h-1zm1 0h1v1h-1zm1 0h3v1h-3zm3 0h1v1h-1zm1 0h1v1h-1zm1 0h1v1h-1zm1 0h1v1h-1zm1 0h1v1h-1zm1 0h1v1h-1zm1 0h1v1h-1zm1 0h1v1h-1zm3 0h1v1h-1zm1 0h1v1h-1zm1 0h2v1h-2zm2 0h1v12h-1zm7 0h1v1h-1zm1 0h1v1h-1zm1 0h1v1h-1zm1 0h1v1h-1zm16 0h5v15h-5zm5 0h1v1h-1zm1 0h1v1h-1zm1 0h1v1h-1zm2 0h1v1h-1zm1 0h1v1h-1zm1 0h1v1h-1zm1 0h1v1h-1zm1 0h1v1h-1zm1 0h1v1h-1zm3 0h1v1h-1zm1 0h8v9h-8zm-112 1h1v1h-1zm1 0h1v1h-1zm1 0h14v1h-14zm14 0h1v1h-1zm1 0h1v1h-1zm2 0h1v1h-1zm1 0h4v3h-4zm4 0h1v3h-1zm1 0h1v1h-1zm3 0h1v1h-1zm1 0h1v1h-1zm2 0h1v11h-1zm1 0h1v1h-1zm1 0h1v1h-1zm4 0h1v1h-1z"/><path d="M149 29h7v2h-7zm7 0h1v3h-1zm1 0h1v1h-1zm2 0h1v1h-1zm1 0h1v1h-1zm1 0h3v1h-3zm3 0h1v1h-1zm1 0h1v1h-1zm2 0h1v1h-1zm1 0h4v3h-4zm4 0h1v3h-1zm1 0h1v1h-1zm3 0h1v1h-1zm1 0h1v1h-1zm1 0h2v1h-2zm3 0h1v1h-1zm1 0h1v1h-1zm4 0h1v1h-1zm1 0h1v1h-1zm1 0h1v1h-1zm1 0h1v1h-1zm1 0h1v1h-1zm1 0h1v1h-1zm1 0h1v1h-1zm1 0h1v1h-1zm5 0h1v14h-1zm1 0h1v14h-1zm1 0h1v1h-1zm1 0h1v1h-1zm9 0h1v1h-1zm1 0h1v1h-1zm2 0h1v1h-1zm1 0h5v2h-5zm5 0h1v5h-1zm1 0h1v1h-1zm-110 1h1v1h-1zm1 0h1v1h-1zm1 0h14v2h-14zm14 0h1v1h-1zm1 0h1v1h-1zm2 0h1v1h-1zm1 0h6v2h-6zm6 0h1v2h-1zm1 0h1v1h-1zm3 0h1v1h-1zm1 0h2v1h-2zm2 0h1v49h-1zm1 0h1v1h-1zm1 0h1v1h-1zm3 0h1v1h-1zm9 0h1v1h-1zm2 0h1v1h-1zm1 0h3v2h-3zm3 0h1v1h-1zm1 0h1v1h-1zm2 0h1v1h-1z"/><path d="M167 30h6v2h-6zm6 0h1v2h-1zm1 0h1v1h-1zm3 0h1v1h-1zm1 0h4v1h-4zm4 0h1v13h-1zm1 0h1v1h-1zm3 0h1v1h-1zm1 0h1v1h-1zm1 0h1v1h-1zm1 0h3v13h-3zm3 0h1v66h-1zm1 0h1v1h-1zm7 0h1v13h-1zm1 0h1v12h-1zm9 0h1v1h-1zm3 0h1v1h-1zm7 0h1v1h-1zm1 0h1v1h-1zm-112 1h1v1h-1zm1 0h1v1h-1zm1 0h14v51h-14zm15 0h1v1h-1zm2 0h1v1h-1zm1 0h7v1h-7zm8 0h1v1h-1zm4 0h1v1h-1zm3 0h1v48h-1zm1 0h1v1h-1zm3 0h1v1h-1zm1 0h7v1h-7zm8 0h1v1h-1zm2 0h1v1h-1zm4 0h1v1h-1zm2 0h1v1h-1z"/><path d="M166 31h7v1h-7zm8 0h1v1h-1zm4 0h1v1h-1zm3 0h1v12h-1zm6 0h1v1h-1zm1 0h4v12h-4zm5 0h1v1h-1zm1 0h1v1h-1zm1 0h1v1h-1zm15 0h1v1h-1zm3 0h1v1h-1zm1 0h6v1h-6zm6 0h1v3h-1zm1 0h1v1h-1zm1 0h1v1h-1zm9 0h1v1h-1zm-123 1h1v1h-1zm1 0h1v1h-1zm1 0h15v50h-15zm15 0h1v1h-1zm1 0h1v1h-1zm2 0h1v1h-1zm1 0h7v1h-7zm7 0h1v1h-1zm1 0h1v1h-1zm4 0h1v1h-1zm4 0h1v1h-1zm4 0h1v1h-1zm1 0h6v2h-6zm6 0h1v1h-1zm1 0h1v1h-1zm1 0h1v1h-1zm1 0h3v48h-3zm3 0h1v1h-1zm1 0h1v1h-1zm2 0h1v1h-1zm1 0h7v1h-7zm7 0h1v1h-1zm1 0h1v1h-1zm4 0h1v1h-1zm8 0h1v11h-1z"/><path d="M187 32h13v11h-13zm23 0h1v1h-1zm3 0h1v1h-1zm1 0h1v1h-1zm1 0h15v1h-15zm16 0h1v4h-1zm-124 1h1v1h-1zm1 0h1v1h-1zm1 0h15v50h-15zm16 0h1v1h-1zm3 0h1v1h-1zm1 0h8v1h-8zm8 0h1v1h-1zm4 0h1v1h-1zm4 0h1v46h-1zm1 0h1v1h-1zm3 0h1v1h-1zm7 0h1v1h-1zm2 0h1v1h-1zm4 0h1v1h-1zm3 0h1v1h-1zm1 0h8v1h-8zm8 0h1v1h-1zm4 0h1v1h-1zm32 0h1v1h-1zm4 0h1v1h-1zm1 0h1v1h-1zm1 0h14v1h-14zm-109 1h1v1h-1z"/><path d="M108 34h16v49h-16zm17 0h1v1h-1zm21 0h1v1h-1zm3 0h1v1h-1zm1 0h5v1h-5zm5 0h1v1h-1zm1 0h1v1h-1zm2 0h1v1h-1zm4 0h1v1h-1zm48 0h1v1h-1zm1 0h1v1h-1zm5 0h1v1h-1zm1 0h1v1h-1zm1 0h1v1h-1zm1 0h11v1h-11zm-113 1h1v1h-1z"/><path d="M107 35h17v48h-17zm18 0h1v1h-1zm3 0h1v1h-1zm1 0h16v3h-16zm17 0h1v1h-1zm4 0h1v1h-1zm5 0h1v1h-1zm1 0h1v1h-1zm1 0h1v1h-1zm1 0h3v45h-3zm4 0h1v1h-1zm3 0h1v1h-1zm1 0h16v3h-16zm44 0h1v4h-1zm1 0h1v1h-1zm1 0h1v1h-1zm6 0h1v1h-1zm1 0h1v1h-1zm1 0h1v1h-1zm1 0h9v1h-9zm-116 1h1v1h-1z"/><path d="M106 36h18v47h-18zm22 0h1v1h-1zm18 0h1v43h-1zm1 0h1v1h-1zm3 0h1v1h-1zm1 0h3v1h-3zm4 0h1v1h-1zm2 0h1v1h-1zm8 0h1v1h-1zm39 0h1v1h-1zm7 0h1v3h-1zm1 0h1v1h-1zm1 0h1v1h-1zm7 0h1v1h-1zm1 0h1v1h-1zm1 0h8v1h-8zm9 0h1v1h-1zm-127 1h1v1h-1z"/><path d="M105 37h19v46h-19zm23 0h1v1h-1zm19 0h1v1h-1zm4 0h1v1h-1zm1 0h2v2h-2zm3 0h1v1h-1zm1 0h1v1h-1zm1 0h4v43h-4zm8 0h1v1h-1zm39 0h1v4h-1zm8 0h1v4h-1zm1 0h1v5h-1zm1 0h1v1h-1zm1 0h1v1h-1zm7 0h1v1h-1zm1 0h7v1h-7zm8 0h1v1h-1zm-128 1h1v1h-1zm1 0h1v1h-1zm21 0h1v1h-1zm3 0h1v1h-1zm1 0h17v1h-17zm18 0h1v1h-1zm1 0h1v1h-1zm3 0h1v1h-1zm3 0h1v1h-1zm1 0h1v1h-1zm1 0h1v1h-1zm6 0h1v1h-1zm3 0h1v1h-1zm1 0h16v1h-16zm48 0h1v5h-1zm1 0h1v5h-1zm1 0h1v1h-1zm1 0h1v1h-1zm1 0h1v1h-1zm5 0h1v1h-1zm1 0h6v16h-6zm7 0h1v2h-1zm-128 1h1v1h-1z"/><path d="M104 39h20v44h-20zm21 0h1v1h-1zm4 0h1v1h-1zm1 0h17v1h-17zm17 0h1v40h-1zm1 0h1v1h-1zm3 0h1v1h-1zm1 0h1v1h-1zm1 0h1v2h-1zm1 0h1v1h-1zm2 0h1v1h-1zm6 0h1v1h-1zm4 0h1v1h-1zm1 0h15v1h-15zm43 0h7v1h-7zm7 0h1v5h-1zm1 0h1v1h-1zm1 0h1v1h-1zm4 0h1v1h-1zm-121 1h1v1h-1z"/><path d="M103 40h21v43h-21zm22 0h1v1h-1zm4 0h1v1h-1zm1 0h10v1h-10zm10 0h7v1h-7zm8 0h1v1h-1zm4 0h1v1h-1zm2 0h1v1h-1zm1 0h1v1h-1zm1 0h5v40h-5zm6 0h1v1h-1zm4 0h1v1h-1zm1 0h10v1h-10zm10 0h5v1h-5zm33 0h1v1h-1zm1 0h1v1h-1zm5 0h3v3h-3zm3 0h1v3h-1zm1 0h1v1h-1zm11 0h1v1h-1zm-129 1h1v1h-1zm23 0h1v1h-1zm1 0h1v1h-1zm4 0h1v1h-1zm1 0h8v1h-8zm8 0h1v1h-1zm1 0h1v1h-1zm1 0h1v1h-1zm1 0h1v1h-1zm6 0h1v38h-1zm1 0h1v1h-1zm3 0h1v1h-1zm1 0h1v1h-1zm1 0h1v1h-1zm1 0h1v1h-1zm7 0h1v1h-1zm1 0h1v1h-1zm4 0h1v1h-1zm1 0h8v1h-8zm8 0h1v1h-1zm1 0h1v1h-1zm1 0h1v1h-1zm1 0h1v1h-1zm25 0h1v1h-1zm7 0h1v1h-1z"/><path d="M212 41h8v1h-8zm8 0h1v1h-1zm1 0h1v1h-1zm10 0h1v1h-1zm-130 1h1v1h-1zm1 0h23v40h-23zm23 0h1v40h-1zm1 0h1v1h-1zm4 0h1v1h-1zm1 0h1v1h-1zm1 0h5v1h-5zm5 0h1v1h-1zm1 0h1v1h-1zm1 0h1v1h-1zm1 0h1v1h-1zm1 0h1v1h-1zm1 0h6v37h-6zm7 0h1v1h-1zm3 0h1v1h-1zm1 0h1v1h-1zm2 0h1v1h-1zm7 0h1v39h-1zm1 0h1v1h-1zm4 0h1v1h-1zm1 0h1v1h-1zm1 0h5v1h-5zm5 0h1v1h-1zm1 0h1v1h-1zm1 0h1v1h-1zm1 0h1v1h-1zm1 0h1v1h-1zm1 0h3v1h-3zm22 0h1v1h-1zm3 0h1v1h-1zm8 0h1v1h-1zm1 0h7v1h-7zm7 0h1v1h-1zm1 0h2v1h-2zm2 0h1v1h-1zm8 0h1v1h-1zm-131 1h1v1h-1zm1 0h1v1h-1zm25 0h1v39h-1zm1 0h1v1h-1zm5 0h1v1h-1zm1 0h1v1h-1zm1 0h2v1h-2zm2 0h1v1h-1zm1 0h1v1h-1zm1 0h1v1h-1zm1 0h1v1h-1zm1 0h1v1h-1z"/><path d="M141 43h7v36h-7zm8 0h1v1h-1zm4 0h1v1h-1zm1 0h1v1h-1zm1 0h8v36h-8zm8 0h1v38h-1zm1 0h1v1h-1zm5 0h1v1h-1zm1 0h1v1h-1zm1 0h2v1h-2zm2 0h1v1h-1zm1 0h1v1h-1zm1 0h1v1h-1zm1 0h1v1h-1zm1 0h1v1h-1zm1 0h4v1h-4zm4 0h1v1h-1zm1 0h1v1h-1zm3 0h1v1h-1zm1 0h13v1h-13zm13 0h1v1h-1zm1 0h1v1h-1zm4 0h4v1h-4zm4 0h1v56h-1zm3 0h1v1h-1zm1 0h1v1h-1zm1 0h5v1h-5zm5 0h1v1h-1zm1 0h1v1h-1zm3 0h1v1h-1zm8 0h1v1h-1zm-131 1h1v1h-1zm1 0h25v38h-25zm26 0h1v1h-1zm1 0h1v1h-1zm10 0h1v1h-1zm1 0h1v1h-1z"/><path d="M140 44h9v35h-9zm9 0h1v35h-1zm1 0h1v1h-1zm4 0h1v1h-1zm10 0h1v1h-1zm1 0h1v1h-1zm10 0h1v1h-1zm1 0h1v1h-1zm1 0h3v42h-3zm3 0h1v44h-1zm1 0h1v1h-1zm1 0h1v1h-1zm4 0h1v1h-1zm1 0h1v1h-1zm1 0h1v1h-1zm1 0h1v1h-1zm1 0h7v50h-7zm7 0h1v55h-1zm1 0h1v1h-1zm1 0h1v1h-1zm1 0h1v1h-1zm5 0h1v1h-1zm1 0h1v1h-1zm1 0h1v1h-1zm1 0h1v55h-1zm2 0h1v1h-1zm3 0h1v1h-1zm1 0h1v1h-1zm1 0h1v1h-1zm1 0h1v1h-1zm1 0h1v1h-1zm1 0h1v2h-1zm1 0h1v1h-1zm1 0h1v1h-1zm2 0h1v1h-1zm1 0h7v10h-7zm8 0h1v1h-1zM99 45h1v1h-1zm1 0h28v37h-28zm28 0h1v36h-1zm1 0h1v1h-1zm1 0h1v1h-1zm6 0h1v1h-1zm1 0h1v1h-1z"/><path d="M138 45h11v34h-11zm12 0h1v1h-1zm4 0h1v1h-1zm10 0h1v36h-1zm1 0h1v36h-1zm1 0h1v1h-1zm1 0h1v1h-1zm6 0h1v1h-1zm1 0h1v1h-1zm1 0h4v40h-4zm35 0h1v53h-1zm1 0h1v1h-1zm1 0h1v1h-1zm1 0h1v1h-1zm7 0h1v1h-1zm1 0h1v1h-1zm1 0h8v9h-8zM99 46h1v1h-1zm30 0h1v35h-1zm1 0h1v35h-1zm1 0h1v1h-1zm1 0h2v1h-2zm2 0h1v1h-1z"/><path d="M135 46h32v33h-32zm32 0h1v36h-1zm1 0h1v1h-1zm1 0h2v1h-2zm2 0h1v1h-1zm1 0h42v38h-42zm42 0h1v49h-1zm1 0h1v1h-1zm1 0h1v1h-1zm1 0h1v1h-1zm1 0h1v1h-1zm1 0h11v8h-11zm11 0h1v1h-1zM98 47h1v1h-1z"/><path d="M99 47h130v13H99zm131 0h1v1h-1zM98 48h1v1h-1zm132 0h1v1h-1zM97 49h1v1h-1z"/><path d="M98 49h131v11H98zm132 0h1v1h-1zM97 50h1v1h-1zm133 0h1v1h-1zM97 51h1v1h-1zm133 0h1v1h-1zM96 52h1v1h-1z"/><path d="M97 52h132v8H97zm133 0h1v1h-1zM96 53h1v1h-1zm134 0h1v1h-1zM96 54h1v1h-1zm133 0h1v1h-1zM95 55h1v1h-1z"/><path d="M96 55h132v10H96zm133 0h1v1h-1zM95 56h1v1h-1zm134 0h1v1h-1zM95 57h1v1h-1zm134 0h1v1h-1zM94 58h1v1h-1z"/><path d="M95 58h133v7H95zm134 0h1v1h-1zM94 59h1v1h-1zm135 0h1v1h-1zM94 60h1v1h-1zm134 0h1v1h-1zM94 61h1v1h-1zm134 0h1v1h-1z"/><path d="M94 62h133v7H94zm134 0h1v1h-1zM93 63h1v1h-1zm135 0h1v1h-1zM93 64h1v1h-1zm135 0h1v1h-1zM93 65h1v1h-1zm134 0h1v1h-1zM93 66h1v2h-1zm134 0h1v1h-1zm0 1h1v1h-1zM93 68h1v1h-1zm134 0h1v1h-1zM93 69h1v1h-1zm1 0h132v4H94zm132 0h1v1h-1zm1 0h1v1h-1zM93 70h1v1h-1zm133 0h1v1h-1zM93 71h1v1h-1zm133 0h1v1h-1zM93 72h1v1h-1zm133 0h1v1h-1zM93 73h1v1h-1zm1 0h131v2H94zm131 0h1v1h-1zm1 0h1v1h-1zM93 74h1v1h-1zm132 0h1v1h-1zM93 75h1v1h-1zm1 0h130v1H94zm130 0h1v1h-1zm1 0h1v1h-1zM94 76h1v1h-1zm1 0h129v1H95zm129 0h1v1h-1zm1 0h1v1h-1zM94 77h1v1h-1zm1 0h128v1H95zm128 0h1v2h-1zm1 0h1v1h-1zM94 78h1v1h-1zm1 0h1v1h-1zm1 0h127v1H96zm128 0h1v1h-1zM95 79h1v1h-1zm1 0h127v1H96zm127 0h1v1h-1zm1 0h1v1h-1zM95 80h1v1h-1zm1 0h1v1h-1zm1 0h42v1H97zm42 0h1v1h-1zm1 0h1v1h-1zm1 0h1v1h-1zm1 0h1v1h-1zm1 0h1v1h-1zm1 0h7v1h-7zm7 0h1v1h-1zm1 0h1v1h-1zm1 0h1v1h-1zm1 0h1v1h-1zm1 0h1v1h-1zm1 0h66v1h-66zm66 0h1v2h-1zm1 0h1v1h-1zM96 81h1v1h-1zm1 0h35v1H97zm35 0h1v1h-1zm1 0h1v1h-1zm1 0h1v1h-1zm1 0h1v1h-1zm1 0h1v1h-1zm1 0h1v1h-1zm1 0h1v1h-1zm19 0h1v1h-1zm1 0h1v1h-1zm1 0h1v1h-1zm1 0h1v1h-1zm1 0h1v1h-1zm1 0h60v1h-60zm61 0h1v1h-1zM97 82h1v1h-1zm1 0h29v1H98zm29 0h1v1h-1zm1 0h1v1h-1zm1 0h1v1h-1zm1 0h1v1h-1zm1 0h1v1h-1zm1 0h1v1h-1zm30 0h1v1h-1zm1 0h1v1h-1zm1 0h1v1h-1zm1 0h1v1h-1zm1 0h56v1h-56zm56 0h1v1h-1zm1 0h1v1h-1zM97 83h1v1h-1zm1 0h1v1h-1zm1 0h24v1H99zm24 0h1v1h-1zm1 0h1v1h-1zm1 0h1v1h-1zm1 0h1v1h-1zm1 0h1v1h-1zm39 0h1v1h-1zm1 0h1v1h-1zm1 0h1v1h-1zm1 0h52v1h-52zm52 0h1v1h-1zm1 0h1v1h-1zM99 84h1v1h-1zm1 0h18v1h-18zm18 0h1v1h-1zm1 0h1v1h-1zm1 0h1v1h-1zm1 0h1v1h-1zm1 0h1v1h-1zm47 0h1v1h-1zm1 0h1v1h-1zm1 0h1v1h-1zm1 0h49v1h-49zm49 0h1v1h-1zm1 0h1v1h-1zm-122 1h1v1h-1zm1 0h1v1h-1zm1 0h11v1h-11zm11 0h1v1h-1zm1 0h1v1h-1zm1 0h1v1h-1zm1 0h1v1h-1zm1 0h1v1h-1zm1 0h1v1h-1zm54 0h1v1h-1zm1 0h1v1h-1zm1 0h46v1h-46zm46 0h1v1h-1zm1 0h1v1h-1zm-119 1h1v1h-1zm1 0h1v1h-1zm1 0h1v1h-1zm1 0h1v1h-1zm1 0h2v1h-2zm2 0h1v1h-1zm1 0h1v1h-1zm1 0h1v1h-1zm1 0h1v1h-1zm1 0h1v1h-1zm1 0h1v1h-1zm61 0h1v1h-1zm1 0h1v1h-1zm1 0h1v1h-1zm1 0h43v1h-43zm43 0h1v1h-1zm1 0h1v1h-1zm-45 1h1v1h-1zm1 0h1v1h-1zm1 0h1v1h-1zm1 0h40v1h-40zm40 0h1v1h-1zm1 0h1v1h-1zm1 0h1v1h-1zm-43 1h1v1h-1zm1 0h1v1h-1zm1 0h39v1h-39zm39 0h1v1h-1zm1 0h1v1h-1zm-40 1h1v1h-1zm1 0h1v1h-1zm1 0h36v1h-36zm36 0h1v1h-1zm1 0h1v1h-1zm-37 1h1v1h-1zm1 0h1v1h-1zm1 0h34v1h-34zm34 0h1v1h-1zm1 0h1v1h-1zm-36 1h1v1h-1zm1 0h1v1h-1zm1 0h32v1h-32zm32 0h1v1h-1zm1 0h1v1h-1zm-33 1h1v1h-1zm1 0h1v1h-1zm1 0h29v1h-29zm29 0h1v1h-1zm1 0h1v1h-1zm1 0h1v1h-1zm-32 1h1v1h-1zm1 0h1v1h-1zm1 0h28v1h-28zm28 0h1v1h-1zm1 0h1v1h-1zm-29 1h1v1h-1zm1 0h1v1h-1zm1 0h25v1h-25zm25 0h1v1h-1zm1 0h1v1h-1zm-27 1h1v1h-1zm1 0h1v1h-1zm1 0h23v1h-23zm23 0h1v1h-1zm1 0h1v1h-1zm1 0h1v1h-1zm-26 1h1v1h-1zm1 0h1v1h-1zm1 0h21v1h-21zm21 0h1v1h-1zm1 0h1v1h-1zm1 0h1v1h-1zm-23 1h1v1h-1zm1 0h1v1h-1zm1 0h18v1h-18zm18 0h1v1h-1zm1 0h1v1h-1zm1 0h1v1h-1zm-21 1h1v1h-1zm1 0h1v1h-1zm1 0h16v1h-16zm16 0h1v1h-1zm1 0h1v1h-1zm1 0h1v1h-1zm-18 1h1v1h-1zm1 0h1v1h-1zm1 0h12v1h-12zm12 0h1v1h-1zm1 0h1v1h-1zm1 0h1v1h-1zm-14 1h1v1h-1zm1 0h1v1h-1zm1 0h1v1h-1zm1 0h7v1h-7zm7 0h1v1h-1zm1 0h1v1h-1zm1 0h1v1h-1zm-9 1h1v1h-1zm1 0h1v1h-1zm1 0h3v1h-3zm3 0h1v1h-1zm1 0h1v1h-1zm1 0h1v1h-1z"/></g><g fill="#707372"><path d="M102 100h2v1h-2zm2 0h1v1h-1zm-76 1h1v9h-1zm1 0h2v9h-2zm2 0h1v2h-1zm1 0h1v1h-1zm3 0h1v4h-1zm1 0h1v9h-1zm1 0h16v1H37zm16 0h1v1h-1zm1 0h1v1h-1zm5 0h1v9h-1zm1 0h3v1h-3zm3 0h1v1h-1zm1 0h1v1h-1zm1 0h1v1h-1zm1 0h1v1h-1zm6 0h1v1h-1zm1 0h1v2h-1zm1 0h1v3h-1zm1 0h1v1h-1zm2 0h1v1h-1zm1 0h6v1h-6zm6 0h1v1h-1zm1 0h1v1h-1zm3 0h1v1h-1zm1 0h1v2h-1zm1 0h1v1h-1zm10 0h1v1h-1zm1 0h1v1h-1zm1 0h2v1h-2zm2 0h1v1h-1zm1 0h1v1h-1zm1 0h1v1h-1zm-74 1h1v1h-1zm5 0h16v1H37zm16 0h1v1h-1zm1 0h1v1h-1zm6 0h5v1h-5zm5 0h1v1h-1zm1 0h1v1h-1zm1 0h1v1h-1zm5 0h1v1h-1zm3 0h1v1h-1zm2 0h1v1h-1zm1 0h6v1h-6zm6 0h1v1h-1zm1 0h1v1h-1zm2 0h1v1h-1zm1 0h1v2h-1zm2 0h1v1h-1zm9 0h1v1h-1zm1 0h1v1h-1zm1 0h1v1h-1zm1 0h1v1h-1zm1 0h1v1h-1zm1 0h1v1h-1zm1 0h1v1h-1zm1 0h1v1h-1zm1 0h1v1h-1zm-76 1h1v1h-1zm1 0h1v2h-1zm1 0h1v1h-1zm4 0h1v7h-1zm1 0h2v1h-2zm2 0h1v1h-1zm1 0h1v1h-1zm1 0h1v7h-1zm1 0h1v7h-1zm1 0h1v1h-1zm1 0h3v1h-3zm3 0h1v1h-1zm1 0h1v1h-1zm1 0h1v7h-1zm1 0h1v7h-1zm1 0h1v1h-1zm1 0h1v1h-1zm1 0h1v1h-1zm6 0h1v7h-1zm1 0h1v1h-1zm1 0h1v1h-1zm1 0h1v1h-1zm1 0h1v1h-1zm1 0h1v1h-1zm1 0h1v1h-1zm1 0h1v1h-1zm1 0h1v1h-1zm3 0h1v1h-1z"/><path d="M72 103h3v1h-3zm3 0h1v5h-1zm1 0h1v1h-1zm1 0h1v1h-1zm1 0h1v1h-1zm1 0h1v1h-1zm1 0h1v1h-1zm1 0h1v7h-1zm1 0h1v1h-1zm1 0h1v1h-1zm1 0h1v1h-1zm1 0h1v1h-1zm2 0h1v1h-1zm2 0h1v1h-1zm1 0h1v2h-1zm1 0h1v1h-1zm8 0h1v1h-1zm1 0h1v1h-1zm1 0h1v1h-1zm4 0h1v1h-1zm1 0h1v1h-1zm-96 1h1v1h-1zm1 0h1v1h-1zm1 0h1v1h-1zm1 0h1v1h-1zm1 0h1v1h-1zm1 0h1v1h-1zm2 0h1v1h-1zm1 0h1v1h-1zm1 0h1v1h-1zm1 0h1v1h-1zm1 0h1v1h-1zm1 0h1v1h-1zm9 0h2v1h-2zm2 0h1v1h-1zm1 0h1v1h-1zm4 0h1v6h-1zm3 0h1v6h-1zm3 0h1v6h-1zm5 0h1v6h-1zm12 0h1v3h-1zm4 0h1v1h-1zm1 0h1v1h-1zm1 0h1v3h-1zm1 0h1v1h-1zm3 0h1v1h-1zm1 0h3v1h-3zm4 0h1v1h-1zm4 0h1v6h-1zm2 0h1v6h-1zm4 0h1v1h-1zm1 0h1v4h-1zm1 0h2v1h-2zm3 0h1v1h-1zm7 0h1v1h-1zm1 0h1v3h-1zm1 0h1v1h-1zm9 0h1v1h-1zm1 0h2v1h-2zm2 0h1v1h-1zm1 0h1v1h-1zm3 0h2v1h-2zm2 0h1v1h-1zm1 0h1v1h-1zm1 0h1v1h-1zm1 0h1v1h-1zm1 0h1v1h-1zm1 0h1v1h-1zm1 0h1v1h-1zm1 0h1v1h-1zm2 0h1v1h-1zm1 0h3v1h-3zm3 0h1v1h-1zm1 0h1v1h-1zm1 0h1v1h-1zm3 0h1v1h-1zm1 0h1v1h-1zm1 0h1v1h-1zm1 0h1v1h-1zm1 0h1v1h-1zm3 0h1v1h-1zm1 0h1v1h-1zm1 0h1v1h-1zm1 0h1v1h-1zm1 0h1v1h-1zm1 0h1v1h-1zm1 0h1v1h-1zm1 0h1v1h-1zm1 0h1v1h-1zm3 0h1v1h-1zm1 0h1v1h-1zm1 0h1v1h-1zm-146 1h1v1h-1zm1 0h1v2h-1zm1 0h1v1h-1zm1 0h1v1h-1zm1 0h1v1h-1zm1 0h1v1h-1zm2 0h1v5h-1zm1 0h1v2h-1zm1 0h1v1h-1zm1 0h1v1h-1zm1 0h1v1h-1zm1 0h1v5h-1zm1 0h1v1h-1zm8 0h1v1h-1zm1 0h1v1h-1zm1 0h1v1h-1zm1 0h1v1h-1zm1 0h1v1h-1zm31 0h1v1h-1zm2 0h1v1h-1zm3 0h1v1h-1zm1 0h1v3h-1zm1 0h1v1h-1zm1 0h1v1h-1zm2 0h1v1h-1zm10 0h1v1h-1zm2 0h1v1h-1zm1 0h1v1h-1zm1 0h1v3h-1zm1 0h1v3h-1zm1 0h1v1h-1zm6 0h1v1h-1zm2 0h1v1h-1zm8 0h1v1h-1zm1 0h1v1h-1zm1 0h2v1h-2zm2 0h1v1h-1zm1 0h1v1h-1zm1 0h1v1h-1zm2 0h1v1h-1zm1 0h1v1h-1zm1 0h2v1h-2zm2 0h1v1h-1zm1 0h1v5h-1zm1 0h1v1h-1zm1 0h1v1h-1zm1 0h1v1h-1zm1 0h1v5h-1zm1 0h1v1h-1zm1 0h1v8h-1zm1 0h1v8h-1zm1 0h1v1h-1zm1 0h1v1h-1zm1 0h1v1h-1zm1 0h1v1h-1zm1 0h1v1h-1zm1 0h1v1h-1zm2 0h1v1h-1zm1 0h2v1h-2zm2 0h1v1h-1zm1 0h1v4h-1zm1 0h1v1h-1zm2 0h1v5h-1zm1 0h1v1h-1zm1 0h1v1h-1zm1 0h1v1h-1zm1 0h1v1h-1zm1 0h1v1h-1zm1 0h1v1h-1zm1 0h1v1h-1zm1 0h1v1h-1zm3 0h1v1h-1zm1 0h1v1h-1zm-143 1h1v2h-1zm1 0h1v1h-1zm1 0h1v1h-1zm1 0h1v3h-1zm4 0h1v1h-1zm2 0h1v1h-1zm2 0h1v1h-1zm8 0h1v4h-1zm1 0h1v1h-1zm1 0h1v1h-1zm1 0h3v2h-3zm32 0h1v1h-1zm2 0h1v1h-1zm2 0h1v1h-1zm1 0h1v2h-1zm2 0h1v1h-1zm1 0h1v1h-1zm2 0h1v3h-1zm1 0h1v1h-1zm8 0h1v1h-1zm1 0h1v3h-1zm2 0h1v1h-1zm1 0h1v1h-1zm3 0h1v1h-1zm6 0h1v1h-1zm2 0h1v1h-1zm8 0h1v1h-1zm1 0h1v1h-1zm4 0h1v1h-1zm1 0h1v1h-1zm2 0h1v4h-1zm1 0h1v1h-1zm1 0h1v1h-1zm2 0h1v1h-1zm2 0h1v1h-1zm2 0h1v1h-1zm2 0h1v4h-1zm3 0h1v1h-1zm3 0h1v1h-1zm1 0h1v1h-1zm1 0h1v1h-1zm2 0h1v1h-1zm2 0h1v1h-1zm1 0h1v1h-1zm2 0h1v1h-1zm3 0h1v1h-1zm3 0h1v1h-1zm1 0h1v4h-1zm2 0h1v1h-1zm1 0h1v1h-1zm2 0h1v1h-1zm1 0h1v1h-1zm1 0h1v1h-1zm-145 1h1v1h-1zm1 0h1v1h-1zm2 0h1v1h-1zm1 0h1v1h-1zm4 0h1v1h-1zm5 0h1v3h-1zm9 0h1v1h-1z"/><path d="M33 107h2v1h-2zm28 0h1v1h-1zm4 0h1v1h-1zm1 0h1v2h-1zm1 0h1v1h-1zm1 0h1v1h-1zm2 0h1v1h-1zm3 0h3v1h-3zm4 0h1v1h-1zm8 0h1v1h-1zm3 0h4v1h-4zm4 0h1v3h-1zm1 0h1v1h-1zm5 0h2v1h-2zm2 0h1v1h-1zm8 0h1v1h-1zm1 0h1v1h-1zm4 0h1v1h-1zm1 0h1v1h-1zm3 0h1v3h-1zm3 0h1v3h-1zm13 0h1v1h-1zm1 0h1v1h-1zm2 0h1v1h-1zm1 0h3v1h-3zm4 0h1v3h-1zm3 0h1v3h-1zm3 0h1v3h-1zm3 0h1v1h-1zm1 0h1v1h-1zm1 0h1v1h-1zm1 0h1v1h-1zm1 0h1v1h-1zm1 0h1v1h-1zm-145 1h1v1h-1zm1 0h1v1h-1zm1 0h1v1h-1zm2 0h1v1h-1zm4 0h1v2h-1zm15 0h1v1h-1zm1 0h3v1h-3zm27 0h1v1h-1zm1 0h1v1h-1zm1 0h1v1h-1zm1 0h1v1h-1z"/><path d="M65 108h2v1h-2zm2 0h1v1h-1zm1 0h1v2h-1zm1 0h1v1h-1zm1 0h7v1h-7zm7 0h1v2h-1zm1 0h1v1h-1zm6 0h1v1h-1zm1 0h1v1h-1zm2 0h5v1h-5zm6 0h1v1h-1zm6 0h1v1h-1zm1 0h1v1h-1zm1 0h1v1h-1zm5 0h1v1h-1zm2 0h1v1h-1zm1 0h1v1h-1zm4 0h1v1h-1zm1 0h1v1h-1zm15 0h1v1h-1zm4 0h1v1h-1zm1 0h1v1h-1zm1 0h1v1h-1zm1 0h1v1h-1zm1 0h1v1h-1zm14 0h2v1h-2zm2 0h1v1h-1zm1 0h1v1h-1zm-144 1h1v1h-1zm1 0h1v1h-1zm2 0h1v1h-1zm1 0h1v1h-1zm1 0h1v1h-1zm19 0h1v1h-1zm1 0h2v1h-2zm26 0h5v1h-5zm5 0h1v1h-1zm1 0h1v1h-1zm2 0h1v1h-1zm1 0h1v1h-1zm1 0h1v1h-1zm1 0h1v1h-1zm3 0h1v1h-1zm1 0h1v1h-1zm2 0h1v1h-1zm6 0h1v1h-1zm1 0h1v1h-1zm1 0h1v1h-1zm1 0h1v1h-1zm4 0h1v1h-1zm2 0h1v1h-1zm6 0h1v1h-1zm1 0h1v1h-1zm1 0h1v1h-1zm1 0h2v1h-2zm2 0h1v1h-1zm1 0h1v1h-1zm1 0h1v1h-1zm1 0h1v1h-1zm1 0h1v1h-1zm1 0h1v1h-1zm1 0h1v1h-1zm2 0h1v1h-1zm1 0h1v1h-1zm1 0h1v1h-1zm15 0h1v1h-1zm1 0h1v2h-1zm1 0h1v1h-1zm1 0h1v1h-1zm1 0h1v1h-1zm1 0h1v1h-1zm1 0h1v1h-1zm1 0h1v1h-1zm1 0h1v2h-1zm2 0h2v1h-2zm12 0h1v1h-1zm1 0h1v1h-1zm1 0h1v1h-1zm1 0h1v1h-1zm-144 1h1v1h-1zm1 0h2v1h-2zm2 0h1v1h-1zm1 0h1v1h-1zm1 0h1v1h-1zm2 0h1v1h-1zm1 0h1v1h-1zm4 0h1v1h-1zm1 0h1v1h-1zm5 0h1v1h-1zm1 0h1v1h-1zm1 0h1v1h-1zm1 0h1v1h-1zm3 0h1v1h-1zm1 0h2v1h-2zm2 0h1v1h-1zm1 0h1v1h-1zm3 0h1v1h-1zm1 0h1v1h-1zm1 0h1v1h-1zm1 0h1v1h-1zm5 0h1v1h-1zm1 0h1v1h-1zm1 0h1v1h-1zm8 0h1v1h-1zm1 0h3v1h-3zm3 0h1v1h-1zm1 0h1v1h-1zm1 0h1v1h-1zm1 0h1v1h-1zm2 0h1v1h-1zm1 0h1v1h-1zm1 0h1v1h-1zm1 0h1v1h-1zm5 0h1v1h-1zm1 0h1v1h-1zm1 0h1v1h-1zm1 0h1v1h-1zm1 0h1v1h-1zm1 0h1v1h-1zm1 0h1v1h-1zm2 0h2v1h-2zm2 0h1v1h-1zm5 0h1v1h-1zm1 0h1v1h-1zm1 0h1v1h-1zm1 0h1v1h-1zm6 0h1v1h-1zm1 0h1v1h-1zm1 0h2v1h-2zm2 0h1v1h-1zm1 0h1v1h-1zm1 0h1v1h-1zm2 0h1v1h-1zm1 0h1v1h-1zm1 0h2v1h-2zm2 0h1v1h-1zm1 0h1v1h-1zm1 0h1v1h-1zm2 0h1v1h-1zm1 0h1v1h-1zm3 0h1v1h-1zm1 0h1v1h-1zm4 0h1v1h-1zm1 0h1v1h-1zm3 0h1v1h-1zm2 0h1v1h-1zm1 0h1v1h-1zm1 0h1v1h-1zm2 0h1v1h-1zm1 0h1v1h-1zm2 0h1v1h-1zm1 0h1v1h-1zm1 0h1v1h-1zm1 0h1v1h-1zm2 0h1v1h-1zm1 0h1v1h-1zm3 0h1v1h-1zm1 0h1v1h-1zm3 0h1v1h-1zm1 0h1v1h-1zm1 0h1v1h-1zm-142 1h1v1h-1zm1 0h1v1h-1zm1 0h1v1h-1zm89 0h1v1h-1zm1 0h1v1h-1zm1 0h1v1h-1zm6 0h2v1h-2zm2 0h1v1h-1zm18 0h1v1h-1zm1 0h1v1h-1zm1 0h1v1h-1zm5 0h1v1h-1zm1 0h1v1h-1zm14 0h1v1h-1zm1 0h1v1h-1zm-2 1h1v1h-1zm1 0h1v1h-1zm1 0h1v1h-1zm-26 1h1v1h-1zm1 0h1v1h-1zm21 0h1v1h-1zm1 0h1v1h-1zm1 0h1v1h-1zm1 0h1v1h-1zm-25 1h1v1h-1zm1 0h1v1h-1zm21 0h1v1h-1zm1 0h1v1h-1zm1 0h1v1h-1z"/></g></svg>