<svg xmlns="http://www.w3.org/2000/svg" role="img" viewBox="-5.95 -5.70 296.14 164.39"><title>OIF logo</title><path d="M.025 76.161c0-13.494-.033-26.988.007-40.481C.088 16.78 12.073 2.337 30.857.879 46.253-.316 61.875-.252 77.286.824 95.7 2.11 108.36 16.455 108.527 34.903c.252 27.985.307 55.977-.018 83.96-.23 19.785-15.202 34.083-34.916 34.15-12.994.044-25.988.055-38.982-.002-19.705-.087-34.458-14.735-34.57-34.369-.082-14.16-.016-28.32-.016-42.481zm80.013 48.87c.183-1.598.425-2.728.426-3.857.022-29.476-.032-58.953.084-88.428.014-3.553-1.238-4.568-4.637-4.537-14.654.134-29.309.044-43.964.081-1.265.003-2.529.338-3.689.503v96.238h51.78zm182.505-34.257h-66.505v61.723h-27.947v-5.69c0-36.655-.014-73.31.007-109.965C168.11 15.291 182.13 1.03 203.591.938c25.158-.108 50.318.08 75.475-.127 4.486-.037 5.82 1.374 5.569 5.699-.328 5.646-.305 11.337-.006 16.986.217 4.095-1.064 5.426-5.298 5.396-25.657-.185-51.317-.092-76.975-.092h-6.151v33.969h66.338v28.005zm-110.848 61.991h-27.054V.785h27.054v151.98z" fill="#2A3480"/></svg>