<svg xmlns="http://www.w3.org/2000/svg" role="img" viewBox="-143.50 201.00 624.00 148.50"><title>ONAP (5G) logo</title><style>svg {enable-background:new -153 -46 652 652}</style><style>.st0{fill:#007da5}.st4{fill:#0069a7}</style><path d="M52.9 275c0 6.3 1.1 10.5 3.2 12.7 2.2 2.2 6.3 3.3 12.3 3.3h26.4c6.4 0 10.6-1.1 12.6-3.2s3-6.5 3-13v-25.6c0-6.8-1.1-11.4-3.4-13.7-2.2-2.3-6.4-3.5-12.6-3.5H68.8c-6.2 0-10.4 1.2-12.6 3.5-2.2 2.4-3.3 6.9-3.3 13.8V275zm77.4 2.4c0 12.2-2.1 20.7-6.4 25.5-4.3 4.8-12.2 7.3-23.7 7.3H63.7c-11.1 0-19-2.5-23.7-7.5-4.7-5-7-13.5-7-25.3v-30.2c0-13 2.2-22 6.7-26.9 4.5-4.9 12.5-7.3 24-7.3h36.5c10.8 0 18.4 2.3 22.8 6.9 4.9 5.1 7.3 14.2 7.3 27.3v30.2z" class="st0"/><path fill="#313032" d="M143.9 214h33.4l50.7 77.1h2.8V214h19.9v96.2h-34.1l-50-77.1h-2.8v77.1h-19.9V214zm173.8 18h1l15.8 35.9h-33.2l16.4-35.9zm-24.5 54h49.2l10.7 24.2h23.4L332.8 214h-29.5l-44.1 96.2h23.2l10.8-24.2zm109.4-52.9h33.2c5 0 8.5 1.3 10.4 3.8 1.7 2.1 2.5 5.7 2.5 10.8 0 5.5-.9 9.3-2.8 11.6-1.9 2.3-5.3 3.4-10.1 3.4h-33.2v-29.6zm0 48.7h37c10.4 0 17.8-2.6 22.3-7.9 4.5-5.3 6.7-14 6.7-26.2 0-12.1-2.2-20.8-6.7-25.9-4.5-5.2-12-7.8-22.5-7.8h-56.7v96.2h19.9v-28.4zm-534 15.3l65.6 40.9h-65.6v-40.9zM13.4 338v-41l-65.8 41h65.8zm-144.8-125v40l64.1-40h-64.1zm144.8 0h-62.8l62.8 39.2V213z"/><path fill="#00afaa" d="M-57.2 255.7L-85.6 238l-30.1 18.7 28.4 17.8zm29.4 18.3L.6 256.3-28.8 238l-28.4 17.7z"/><path fill="#66c9ba" d="M-28.8 238l-28.4-17.7-28.4 17.7 28.4 17.7z"/><path d="M-87.3 274.5l-28.4 17.7 29.4 18.3 28.4-17.7z" class="st4"/><path d="M-115.7 256.7l-2 1.3v32.9l2 1.3 28.4-17.7z" class="st0"/><path d="M-57.9 292.8l28.2 17.6-.3.5L.6 291.8-27.8 274z" class="st4"/><path d="M2.3 257.4l-1.7-1.1-28.4 17.7L.6 291.8l1.7-1.1z" class="st0"/><path fill="#002f87" d="M-57.9 292.8l-28.4 17.7 28.4 17.7 27.9-17.3.3-.5z"/><path d="M-87.3 274.5l30.1-18.8 29.4 18.3-30.1 18.8z" class="st0"/><path fill="#24272a" d="M45.6 328.9c0-.9-.1-1.6-.3-2-.2-.5-.5-.8-.9-1-.4-.2-1-.3-1.9-.3h-5.2c-.8 0-1.4.1-1.8.3-.4.2-.8.5-1 1-.2.5-.3 1.1-.4 2v4.2c0 .6.1 1.2.2 1.6.1.4.3.7.5 1 .2.2.6.4 1 .5.4.1.9.1 1.5.1h5.2c.8 0 1.5-.1 1.9-.3.4-.2.7-.5.9-.9s.2-1.1.3-2v-4.2zm1.2 4.3c0 1-.1 1.7-.2 2.3-.2.6-.4 1-.7 1.4-.3.3-.8.6-1.3.7-.5.1-1.2.2-2 .2h-5.2c-.8 0-1.5-.1-2-.2-.6-.2-1-.4-1.3-.8-.3-.4-.6-.8-.8-1.4-.2-.6-.2-1.3-.3-2.2V329c0-.9.1-1.6.2-2.2.2-.6.4-1.1.7-1.5.3-.4.8-.7 1.3-.8.6-.2 1.3-.3 2.1-.3h5.2c1 0 1.8.1 2.4.4.6.3 1.1.7 1.4 1.4.3.7.5 1.7.5 2.9v4.3zm3.1-2.3H57c.7 0 1.2-.1 1.5-.2.4-.1.6-.3.8-.7.2-.3.2-.8.2-1.5 0-1-.2-1.7-.6-2.1-.4-.4-1-.6-1.9-.6h-7.2l.1 5.1zm-1.2 6.8v-13.3h8c1 0 1.8.1 2.4.4.6.3 1 .7 1.3 1.3.3.6.4 1.4.4 2.4s-.1 1.7-.4 2.3c-.3.5-.7.9-1.3 1.1-.6.2-1.4.3-2.4.3h-6.8v5.5h-1.2zm13.8 0v-13.3H73v1.3h-9.2v4.4h9v1.3h-9v4.9H73v1.3l-10.5.1zm12.5 0v-13.3h2.7l9.1 11.9v-11.9H88v13.3h-1.8l-9.4-12.2h-.7v12.2H75zm20.4 0v-13.3h2.7l9.1 11.9v-11.9h1.2v13.3h-1.8l-9.4-12.2h-.7v12.2h-1.1zm15 0v-13.3h10.5v1.3h-9.2v4.4h9v1.3h-9v4.9h9.2v1.3l-10.5.1zm11.9-13.3H135v1.3h-5.8v11.9H128v-11.9h-5.7v-1.3zm24.6 0l4.1 11.9h.3l4.2-11.9h1.4l-4.8 13.3h-1.7l-4.1-11.8-4.1 11.8h-1.7l-4.8-13.3h1.4l4.2 11.9h.3l4.1-11.9h1.2zm23.8 4.5c0-.9-.1-1.6-.3-2-.2-.5-.5-.8-.9-1-.4-.2-1-.3-1.9-.3h-5.2c-.8 0-1.4.1-1.8.3-.4.2-.8.5-1 1-.2.5-.3 1.1-.4 2v4.2c0 .6.1 1.2.2 1.6.1.4.3.7.5 1 .2.2.6.4 1 .5.4.1.9.1 1.5.1h5.2c.9 0 1.5-.1 1.9-.3.4-.2.7-.5.9-.9s.2-1.1.3-2v-4.2zm1.2 4.3c0 1-.1 1.7-.2 2.3-.2.6-.4 1-.7 1.4-.3.3-.8.6-1.3.7-.5.1-1.2.2-2 .2h-5.2c-.8 0-1.5-.1-2-.2-.6-.2-1-.4-1.3-.8-.3-.4-.6-.8-.8-1.4-.2-.6-.2-1.3-.3-2.2V329c0-.9.1-1.6.2-2.2.2-.6.4-1.1.7-1.5.3-.4.8-.7 1.3-.8.6-.2 1.3-.3 2.1-.3h5.2c1 0 1.8.1 2.4.4.6.3 1.1.7 1.4 1.4.3.7.5 1.7.5 2.9v4.3zm3.2-7.4v5.1h7.7c.8 0 1.4-.2 1.9-.7.4-.5.6-1.2.6-2.2 0-.6-.2-1.2-.7-1.6-.4-.4-1-.6-1.8-.6h-7.7zm0 6.5v5.5h-1.2v-13.3h8.5c1 0 1.7.2 2.4.5.6.3 1.1.8 1.3 1.3.3.6.4 1.2.4 2 0 .6-.1 1.1-.2 1.5-.1.4-.3.7-.6 1s-.5.5-.9.7c.4.1.8.4 1.1 1 .3.5.4 1.3.4 2.2v3.1h-1.2v-3.3c0-.8-.1-1.4-.4-1.7-.3-.3-.8-.5-1.4-.5h-8.2zm13.2 5.4v-13.3h1.2v5.7h2l7.5-5.7h2.1l-8.3 6.4 8.5 7h-2.1l-7.6-6.3h-2v6.3l-1.3-.1zm22.3-4.7h7l-3.5-7.7-3.5 7.7zm-2.2 4.7H207l6.1-13.3h1.9l6.1 13.3h-1.4l-1.5-3.3h-8.3l-1.5 3.3zm13.9-13.3h1.2v9.3c0 .6.1 1.1.3 1.5.2.4.5.7 1 .9.5.2 1.1.3 1.9.3h5.2c.7 0 1.3-.1 1.7-.3.4-.2.8-.5.9-.9.2-.4.3-.9.3-1.5v-9.2h1.2v8.7c0 1.2-.2 2.2-.5 2.8-.3.7-.8 1.1-1.4 1.4-.6.2-1.4.4-2.4.4h-5.2c-1 0-1.9-.2-2.5-.4-.6-.3-1.1-.7-1.4-1.4-.3-.7-.5-1.6-.5-2.7l.2-8.9zm15.1 0h12.7v1.3h-5.8v11.9h-1.2v-11.9h-5.7v-1.3zm26.5 4.5c0-.9-.1-1.6-.3-2-.2-.5-.5-.8-.9-1-.4-.2-1-.3-1.9-.3h-5.2c-.8 0-1.4.1-1.8.3-.4.2-.8.5-1 1-.2.5-.3 1.1-.4 2v4.2c0 .6.1 1.2.2 1.6.1.4.3.7.5 1 .2.2.6.4 1 .5.4.1.9.1 1.5.1h5.2c.9 0 1.5-.1 1.9-.3.4-.2.7-.5.9-.9s.2-1.1.3-2v-4.2zm1.3 4.3c0 1-.1 1.7-.2 2.3-.2.6-.4 1-.7 1.4-.3.3-.8.6-1.3.7-.5.1-1.2.2-2 .2h-5.2c-.8 0-1.5-.1-2-.2-.6-.2-1-.4-1.3-.8-.3-.4-.6-.8-.8-1.4-.2-.6-.2-1.3-.3-2.2V329c0-.9.1-1.6.2-2.2.2-.6.4-1.1.7-1.5.3-.4.8-.7 1.3-.8.6-.2 1.3-.3 2.1-.3h5.2c1 0 1.8.1 2.4.4.6.3 1.1.7 1.4 1.4.3.7.5 1.7.5 2.9v4.3zm19 4.5H283v-12.2h-.7l-6.4 12.2h-.6l-6.4-12.2h-.7v12.2H267v-13.3h2.6l6 11.3 6-11.3h2.6v13.3zm4.7-4.7h7l-3.5-7.7-3.5 7.7zm-2.2 4.7h-1.4l6.1-13.3h1.9l6.1 13.3H298l-1.5-3.3h-8.3l-1.5 3.3zm13.3-13.3h12.7v1.3h-5.8v11.9h-1.2v-11.9H300v-1.3zm16 13.3h-1.2v-13.3h1.2v13.3zm15.3-8.8c0-.9-.1-1.6-.3-2-.2-.5-.5-.8-.9-1-.4-.2-1-.3-1.9-.3H323c-.8 0-1.4.1-1.8.3-.4.2-.8.5-1 1-.2.5-.3 1.1-.4 2v4.2c0 .6.1 1.2.2 1.6.1.4.3.7.5 1 .3.2.6.4 1 .5.4.1.9.1 1.5.1h5.2c.8 0 1.5-.1 1.9-.3.4-.2.7-.5.9-.9s.2-1.1.3-2v-4.2zm1.3 4.3c0 1-.1 1.7-.2 2.3-.2.6-.4 1-.7 1.4-.3.3-.8.6-1.3.7-.5.1-1.2.2-2 .2h-5.2c-.8 0-1.5-.1-2-.2-.6-.2-1-.4-1.3-.8-.3-.4-.6-.8-.8-1.4-.2-.6-.2-1.3-.3-2.2V329c0-.9.1-1.6.2-2.2.2-.6.4-1.1.7-1.5.3-.4.8-.7 1.3-.8.6-.2 1.3-.3 2.1-.3h5.2c1 0 1.8.1 2.4.4.6.3 1.1.7 1.4 1.4.3.7.5 1.7.5 2.9v4.3zm1.8 4.5v-13.3h2.7l9.1 11.9v-11.9h1.2v13.3h-1.8l-9.4-12.2h-.7v12.2h-1.1zm21.7-6.8h7.1c.7 0 1.2-.1 1.5-.2.4-.1.6-.3.8-.7.2-.3.2-.8.2-1.5 0-1-.2-1.7-.6-2.1-.4-.4-1-.6-1.9-.6H356l.1 5.1zm-1.3 6.8v-13.3h8c1 0 1.8.1 2.4.4.6.3 1 .7 1.3 1.3.3.6.4 1.4.4 2.4s-.1 1.7-.4 2.3c-.3.5-.7.9-1.3 1.1-.6.2-1.4.3-2.4.3H356v5.5h-1.2zm14 0v-13.3h1.2v11.9h8.9v1.3h-10.1zm14.7-4.7h7l-3.5-7.7-3.5 7.7zm-2.2 4.7H380l6.1-13.3h1.9l6.1 13.3h-1.4l-1.5-3.3h-8.3l-1.6 3.3zm13.3-13.3h12.7v1.3h-5.8v11.9h-1.2v-11.9h-5.7v-1.3zm14.1 13.3v-13.3h10.5v1.3H410v4.4h9v1.3h-9v6.2h-1.3zm25.1-8.8c0-.9-.1-1.6-.3-2-.2-.5-.5-.8-.9-1-.4-.2-1-.3-1.9-.3h-5.2c-.8 0-1.4.1-1.8.3-.4.2-.8.5-1 1-.2.5-.3 1.1-.4 2v4.2c0 .6.1 1.2.2 1.6.1.4.3.7.5 1 .2.2.6.4 1 .5.4.1.9.1 1.5.1h5.2c.9 0 1.5-.1 1.9-.3.4-.2.7-.5.9-.9.2-.4.2-1.1.3-2v-4.2zm1.2 4.3c0 1-.1 1.7-.2 2.3-.2.6-.4 1-.7 1.4-.3.3-.8.6-1.3.7-.5.1-1.2.2-2 .2h-5.2c-.8 0-1.5-.1-2-.2-.6-.2-1-.4-1.3-.8-.3-.4-.6-.8-.8-1.4-.2-.6-.2-1.3-.3-2.2V329c0-.9.1-1.6.2-2.2.2-.6.4-1.1.7-1.5.3-.4.8-.7 1.3-.8.6-.2 1.3-.3 2.1-.3h5.2c1 0 1.8.1 2.4.4.6.3 1.1.7 1.4 1.4.3.7.5 1.7.5 2.9v4.3zm3.1-7.4v5.1h7.7c.8 0 1.4-.2 1.9-.7.4-.5.6-1.2.6-2.2 0-.6-.2-1.2-.7-1.6-.4-.4-1-.6-1.8-.6h-7.7zm0 6.5v5.5h-1.2v-13.3h8.5c1 0 1.7.2 2.4.5.6.3 1.1.8 1.3 1.3.3.6.4 1.2.4 2 0 .6-.1 1.1-.2 1.5-.1.4-.3.7-.6 1-.2.2-.5.5-.9.7.4.1.8.4 1.1 1 .3.5.4 1.3.4 2.2v3.1h-1.2v-3.3c0-.8-.1-1.4-.4-1.7-.3-.3-.8-.5-1.4-.5h-8.2zm30.5 5.4h-1.2v-12.2h-.7l-6.4 12.2h-.6l-6.4-12.2h-.7v12.2h-1.2v-13.3h2.6l6 11.3 6-11.3h2.6v13.3z"/></svg>