<svg xmlns="http://www.w3.org/2000/svg" role="img" viewBox="-5.41 76.59 411.06 87.06"><title>Open 19 logo</title><defs><style>.cls-1{fill:#434d4a}.cls-2{fill:#047bc0}</style></defs><path d="M39.53332 84.68763A35.68825 35.68825 0 0 1 59.68569 91.814a35.31884 35.31884 0 0 1 14.18213 30.2631 35.38023 35.38023 0 0 1-3.51835 13.7799 34.85443 34.85443 0 0 1-6.13113 8.86393 35.41021 35.41021 0 0 1-17.46551 10.164 39.73018 39.73018 0 0 1-5.72574.91838c-.40286.03966-.80458.09087-1.20683.13675h-4.30411c-.00968-.07165-.02954-.13276-.11672-.14431-.284-.03759-.56658-.08953-.85161-.114a30.55235 30.55235 0 0 1-4.65245-.79176 35.70663 35.70663 0 0 1-25.08666-22.4691 34.96707 34.96707 0 0 1-2.0273-9.55463 1.39479 1.39479 0 0 0-.08232-.56026c-.04291-.08523-.11406-.0595-.18109-.05666v-3.154a3.44635 3.44635 0 0 0 .262-1.24416 32.7616 32.7616 0 0 1 1.11679-6.76878 35.70061 35.70061 0 0 1 26.82226-25.56 37.33 37.33 0 0 1 4.52919-.68773c.107-.00989.24888.02933.26792-.14688zm22.77012 35.63605a23.95717 23.95717 0 1 0-24.09466 23.865 24.01857 24.01857 0 0 0 24.09466-23.865zM397.922 97.73384a.896.896 0 0 0-.10869.25878c-.03163.40962-.29387.56821-.65251.64428a1.87289 1.87289 0 0 1-.781.00969c-.54274-.11226-.74086-.327-.7487-.87283-.00792-.54869.0055-1.09767.0077-1.64653a32.65609 32.65609 0 0 0-.15958-3.64684c-.04361-.40309-.10613-.80418-.16252-1.20584-.01-.07167-.04743-.15033-.127-.13115a.23679.23679 0 0 0-.13254.13626q-.36583.97083-.71966 1.94621-.78148 2.152-1.55863 4.30566c-.03236.08957-.06.18087-.09338.27a1.33923 1.33923 0 0 1-1.61874.84114 1.13117 1.13117 0 0 1-.84106-.60176 5.5587 5.5587 0 0 1-.332-.79019c-.3453-1.01606-.67343-2.03794-1.01981-3.05362a17.44731 17.44731 0 0 0-.94748-2.31594c-.07373-.14447-.1152-.31315-.2855-.4032a1.2965 1.2965 0 0 0-.4633 1.07506q.01 2.11192.04529 4.22371a5.71937 5.71937 0 0 1-.02505.99989.915.915 0 0 1-.8741.88366c-.0235.00413-.04686.00929-.07047.01252-.86713.11865-1.26027-.19068-1.33477-1.05522-.01226-.14237-.00974-.28623-.00977-.4294q-.00074-4.79889-.0007-9.59777a3.72415 3.72415 0 0 1 .06515-.78259.76008.76008 0 0 1 .6771-.64671 6.23087 6.23087 0 0 1 1.57043-.06385 1.24824 1.24824 0 0 1 1.01155.70505 4.35071 4.35071 0 0 1 .21538.52954q1.021 2.86417 2.03716 5.73006c.09556.26952.17353.54522.26694.81554a1.95379 1.95379 0 0 0 .16838.39259.55937.55937 0 0 0 .54228.28259.49235.49235 0 0 0 .46162-.38674c.60776-2.23449 1.639-4.324 2.24642-6.55821a3.0188 3.0188 0 0 1 .28824-.729 1.47107 1.47107 0 0 1 1.15081-.75686 6.17793 6.17793 0 0 1 1.43063.017c.42225.04634.56163.17721.88177.69918z" class="cls-1"/><path d="M248.558 127.22929v-.87037q0-19.315.00007-38.62993c0-.23889-.00409-.478.004-.71662.00939-.27721.04784-.30963.35111-.32115.14324-.00545.28685-.00243.43029-.00244q5.415-.00014 10.83006.00075c.83406.00044.774-.08382.774.76657q.00073 32.07216.0003 64.14433c0 .11944.00256.239-.00145.35832-.01272.37823-.02661.40046-.41815.401-2.34294.00347-4.68589-.00379-7.02875.00966a.67535.67535 0 0 1-.5773-.34112q-1.31976-1.69767-2.64181-3.39355-13.32921-17.10177-26.65864-34.20338-2.137-2.74191-4.27321-5.4845c-.13172-.16889-.27045-.33264-.41336-.49215-.02-.02239-.08313-.01125-.12525-.00644a.06747.06747 0 0 0-.043.04518.754.754 0 0 0-.01284.14229c-.0015.215-.00145.43-.00145.645q0 21.07088-.00216 42.14174c-.00026 1.08863.145.93489-.95528.93691q-5.2716.00972-10.54319.0021c-.21507 0-.43022-.002-.6452-.00768a.209.209 0 0 1-.23058-.21323c-.00888-.23851-.01147-.47737-.01149-.71609q-.00076-14.58477-.00044-29.16954 0-17.27239.00163-34.54477c.00025-1.09446-.13249-.96048.94025-.96254q4.124-.00792 8.24806-.00176a4.127 4.127 0 0 0 .43006-.00249.6895.6895 0 0 1 .6703.31524c.536.70286 1.0921 1.39036 1.64038 2.08386q13.3582 16.89688 26.71629 33.79387 1.5114 1.91184 3.02284 3.82365a1.0855 1.0855 0 0 0 .52391.46928zm-166.97633-7.67644q0-15.91032.00025-31.82066 0-.35829.006-.71656c.0031-.17694.1138-.25277.27424-.26178.16691-.00937.33453-.00746.50185-.00763.66939-.0007 1.33879.001 2.00818-.00049q10.07625-.02249 20.15251-.04539c2.797-.00591 5.59417-.02336 8.3911-.00758a25.66877 25.66877 0 0 1 10.325 2.07917 21.51828 21.51828 0 0 1 11.975 12.99879 24.87757 24.87757 0 0 1-.84554 18.35705 21.387 21.387 0 0 1-12.50841 11.4315 24.84515 24.84515 0 0 1-5.78158 1.32694 37.83655 37.83655 0 0 1-4.2209.22631q-8.49892-.00213-16.99784.00072c-.95466.00045-.84853-.1036-.849.83352q-.00432 8.77935-.00244 17.5587c-.00032.94566.09847.85512-.831.85562q-5.37906.00284-10.75812.00076c-.09562 0-.19127-.00122-.28688.00011-.5609.00782-.55674-.02695-.55255-.55843.00131-.16722.00012-.33445.00012-.50167zm12.32642-9.50414q0 5.48252.00027 10.965c.00012.72289-.0577.693.70419.69295q8.89323-.00058 17.78646 0a13.95838 13.95838 0 0 0 3.1315-.312 10.54415 10.54415 0 0 0 7.66432-6.10226 12.09525 12.09525 0 0 0-.06777-10.53424 10.44 10.44 0 0 0-6.22552-5.59211 12.63524 12.63524 0 0 0-4.22114-.70708q-9.03668-.00789-18.07334-.00219c-.73974 0-.69922-.05273-.699.69851q.00007.17916 0 .35833z" class="cls-2"/><path d="M336.03042 153.47268c.23584-.3692.38572-.60916.54071-.84575q5.53634-8.45025 11.07362-16.89988.64793-.98884 1.29362-1.97913a13.28471 13.28471 0 0 1 .90183-1.29115.84055.84055 0 0 0 .23048-.9782c-.1993-.396-.55728-.40379-.92548-.37192a16.74343 16.74343 0 0 1-2.00627.038 18.299 18.299 0 0 1-12.97893-5.69052 21.91278 21.91278 0 0 1-5.67793-10.9088 21.45422 21.45422 0 0 1-.43175-5.9831 26.00023 26.00023 0 0 1 3.34268-11.73778A22.65445 22.65445 0 0 1 343.804 86.634a19.1078 19.1078 0 0 1 6.486-.99211 26.16892 26.16892 0 0 1 11.53583 2.76026A21.66642 21.66642 0 0 1 372.229 99.61043a24.89907 24.89907 0 0 1 1.91636 7.67758 25.52884 25.52884 0 0 1-1.48987 11.33347 22.69494 22.69494 0 0 1-2.44607 4.76827q-4.45438 6.632-8.90094 13.26919-5.00642 7.51253-9.97678 15.049c-.15833.23891-.31577.47842-.47672.71554a2.309 2.309 0 0 1-2.06375 1.07571q-.57358-.00973-1.14731-.0114-5.41445-.00842-10.82892-.01506c-.21035-.0003-.42068-.00005-.78458-.00005zm26.03183-44.9334c0-.42975.00459-.85957-.00231-1.28921a3.44117 3.44117 0 0 0-.04956-.49878 10.73724 10.73724 0 0 0-4.45511-7.24918 10.45414 10.45414 0 0 0-8.77527-1.79532 10.73894 10.73894 0 0 0-7.49877 6.12561 12.37766 12.37766 0 0 0 .67941 11.41035 10.05467 10.05467 0 0 0 6.12656 4.53068 11.34347 11.34347 0 0 0 4.76457.20591 10.24762 10.24762 0 0 0 8.26089-6.414 11.89263 11.89263 0 0 0 .94959-5.02606zm-45.8427 11.36216q0 10.78655.00189 21.57308c.00277 3.29665.02515 6.59328.04 9.88991a4.44491 4.44491 0 0 1-.09044 1.06781 1.18357 1.18357 0 0 1-1.1099 1.04469 6.30913 6.30913 0 0 1-1.00187.02132c-1.29008-.03522-2.57987-.11147-3.86978-.111-1.36167.00052-2.72327.07276-4.085.1098a6.746 6.746 0 0 1-.85959-.00723 1.06749 1.06749 0 0 1-1.05981-.97773 4.20148 4.20148 0 0 1-.06554-.92688c.00462-2.50849.01426-5.017.01454-7.52549q.00221-19.99737-.00049-39.99472c-.00025-1.60034-.027-3.20036.02052-4.80091.03016-1.01641-.29114-1.32119-1.3244-1.31705-1.88806.00757-3.776.0264-5.664.04138a3.29488 3.29488 0 0 1-.78295-.067.91254.91254 0 0 1-.74753-.84871 3.82832 3.82832 0 0 1-.01769-.50076q-.00144-4.22837.00016-8.45673a3.8585 3.8585 0 0 1 .02424-.57194.91987.91987 0 0 1 .84442-.83917 3.34618 3.34618 0 0 1 .50082-.02318c2.46253.00463 4.9251.01771 7.38763.01553 3.29926-.00292 6.59851-.018 9.89777-.02572a10.127 10.127 0 0 1 1.07427.0256.84009.84009 0 0 1 .84871.81224 5.37914 5.37914 0 0 1 .04781.85578q.00336 14.55006.00185 29.10011v2.437zM170.81133 98.74586q-11.79526 0-23.59053-.00164c-.95441-.00035-.84091.12129-.84208-.83089q-.00637-5.1947-.00146-10.3894c.00013-.88176-.06462-.79329.82417-.79346q10.46874-.0019 20.93749-.0007 13.08594 0 26.17186.00054c.23882 0 .478.00213.7163.01521a.19272.19272 0 0 1 .1808.18629 3.24288 3.24288 0 0 1 .01558.35676q.00105 5.44548.00035 10.891c0 .09552-.00276.191-.00289.28657-.00021.16491-.06338.273-.24557.27483-.19116.00193-.38232.00471-.57348.00472q-11.22165.00036-22.44328.0002zm-.00233 41.37307q11.72213 0 23.44427.00023c.23895 0 .47792.00281.71688.00539.18082.002.25033.10683.25095.27449.00059.16716.0029.33432.00292.50147q.00024 5.30154.00012 10.60308c0 .04776-.00019.09552 0 .14328.00239.6466.01732.62454-.62745.625q-.25093.00018-.50187.00014-23.33675 0-46.67348-.00024c-.26283 0-.52566-.003-.78849-.00621-.18062-.00218-.24956-.10968-.25176-.27535-.00222-.16714-.00383-.3343-.00384-.50146q-.0003-5.30154-.00012-10.60307c0-.07164-.00081-.1433.00031-.21493.00852-.54336.00862-.54394.55712-.55139.16725-.00228.33457-.00044.50185-.00044zm-.72222-14.71828q-11.3664 0-22.73277-.00006c-.21514 0-.43044.00433-.64537-.00264-.281-.0091-.31715-.04783-.32861-.3412-.00653-.167-.00292-.33435-.00292-.50155q-.00015-4.94451.00022-9.889c0-.191-.0018-.38241.00869-.573a.222.222 0 0 1 .21969-.23226c.21464-.0107.42989-.01211.64489-.01212q22.91207-.00074 45.82412-.00033c.19121 0 .3827-.00436.5736.00384.27326.01174.3185.06136.33235.35261.0068.143.003.28657.003.42988q.00016 5.01617-.00033 10.03234-.00006.25055-.0107.50107a.2117.2117 0 0 1-.2209.22666c-.215.00656-.43018.00558-.6453.00559q-11.50983.00031-23.01966.00017zM378.90967 93.405c.01265-1.04544-.06434-2.26231.02641-3.47892a2.69461 2.69461 0 0 0-.07012-.70965.90048.90048 0 0 0-.93494-.81357c-.18988-.01527-.38221.0034-.57269-.00718a.62867.62867 0 0 1-.66569-.53133 2.23883 2.23883 0 0 1-.03786-.99381.84424.84424 0 0 1 .76229-.736 3.12014 3.12014 0 0 1 .42926-.01545q2.1861-.00123 4.37223.00139a3.5931 3.5931 0 0 1 .6425.03716.80359.80359 0 0 1 .70327.7872 3.69794 3.69794 0 0 1-.02133.78522.68576.68576 0 0 1-.6604.64219c-.18858.026-.38176.01713-.5716.03612a1.036 1.036 0 0 0-.962.82436 3.09066 3.09066 0 0 0-.06974.853q-.00147 3.58118-.00077 7.16236c0 .191.00725.38251-.0042.57286a.77876.77876 0 0 1-.78012.85043 1.22733 1.22733 0 0 1-.21356.02135c-1.11949-.01786-1.35782-.44823-1.367-1.24907-.01483-1.28902-.00394-2.57837-.00394-4.03866zM23.11834 116.59741c.50162 0 1.00436-.02125 1.50459.0051a1.36519 1.36519 0 0 0 1.46953-.89671 16.7437 16.7437 0 0 1 1.1493-2.225 12.06732 12.06732 0 0 1 6.73586-5.3808 14.83172 14.83172 0 0 1 5.3093-.62219 12.02909 12.02909 0 0 1 5.39 1.54111 12.68092 12.68092 0 0 1 3.92152 3.51362 16.88623 16.88623 0 0 1 1.03443 1.54713 4.43128 4.43128 0 0 0 1.30411 1.40548 6.83877 6.83877 0 0 1 .68539.51769 1.88262 1.88262 0 0 1 .45056 2.40179 2.16113 2.16113 0 0 1-1.58631 1.31929 2.4815 2.4815 0 0 1-2.54489-1.56338 1.497 1.497 0 0 1-.001-.91512c.06471-.2046.13443-.4077.20556-.61018a1.923 1.923 0 0 0-.12969-1.52672 1.77391 1.77391 0 0 0-.0997-.19 11.68523 11.68523 0 0 0-5.66587-4.85564 10.03129 10.03129 0 0 0-3.43257-.64561 12.47227 12.47227 0 0 0-4.36782.67786 9.98715 9.98715 0 0 0-5.68751 4.862 14.6108 14.6108 0 0 0-.83223 1.90013 7.90531 7.90531 0 0 1-.35688.85753 1.57257 1.57257 0 0 1-1.29784.898 5.37545 5.37545 0 0 1-.92949.00971 40.70482 40.70482 0 0 0-5.08687-.01425 3.84557 3.84557 0 0 1-1.00068-.0105c-.47955-.0996-.66008-.29957-.66706-.7788a3.071 3.071 0 0 1 .04635-.56972A20.45621 20.45621 0 0 1 32.1164 101.546a19.5482 19.5482 0 0 1 7.9937-.84869 19.79877 19.79877 0 0 1 7.13691 1.97307 19.58461 19.58461 0 0 1 9.7742 10.86764c.10347.267.19707.538.30626.80263a3.67511 3.67511 0 0 0 1.08218 1.49191c.0743.0601.14851.12049.22.18388a1.77858 1.77858 0 0 1 .60054 1.67461 2.79028 2.79028 0 0 1-.76866 1.58481 1.88955 1.88955 0 0 1-1.89213.57439 2.66933 2.66933 0 0 1-1.40868-.80153 1.81741 1.81741 0 0 1-.46-1.7222 3.4791 3.4791 0 0 1 .30369-.801 2.22815 2.22815 0 0 0 .10121-1.79985 16.67379 16.67379 0 0 0-4.26026-6.79029 18.13787 18.13787 0 0 0-9.94815-5.01193 16.70009 16.70009 0 0 0-10.63389 1.71417 18.30314 18.30314 0 0 0-7.98935 7.86726 14.43278 14.43278 0 0 0-1.16652 2.9957 3.63752 3.63752 0 0 0-.12278.63053c-.02541.3093.0946.4251.41271.43919.14315.00635.28679.00229.43021.00235q.64539.00027 1.29079.00006zm32.86287.95594a1.10138 1.10138 0 0 0 .54689 1.04845 1.21128 1.21128 0 0 0 1.67607-.68208 1.11328 1.11328 0 0 0-.31684-1.29169 1.2772 1.2772 0 0 0-1.35468-.04308 1.01638 1.01638 0 0 0-.55144.9684zm-5.73256-1.16043a1.22784 1.22784 0 0 0-1.30159 1.21912.99181.99181 0 0 0 1.10928 1.022 1.10683 1.10683 0 0 0 1.1729-1.16472.98058.98058 0 0 0-.98059-1.0764z" class="cls-1"/><path d="M38.2147 140.46165a19.77661 19.77661 0 0 1-17.8957-11.44831c-.31582-.66782-.585-1.359-.84831-2.04989a4.69168 4.69168 0 0 0-1.35231-1.98689 1.811 1.811 0 0 1-.4256-2.44659 2.16727 2.16727 0 0 1 3.43675-.76616 1.844 1.844 0 0 1 .63281 2.40333.66942.66942 0 0 1-.02994.06506 2.7333 2.7333 0 0 0-.08853 2.60766 18.06484 18.06484 0 0 0 7.03566 8.63491 17.21523 17.21523 0 0 0 6.97512 2.65595 16.99885 16.99885 0 0 0 4.28856.06946 18.47337 18.47337 0 0 0 6.116-1.68233 17.54343 17.54343 0 0 0 9.10309-9.849c.18827-.48918.35682-.98792.49916-1.49219.12662-.44857-.029-.69209-.48448-.7686a9.8745 9.8745 0 0 0-2.57084-.138 2.72814 2.72814 0 0 0-1.858.972 6.31758 6.31758 0 0 0-.8348 1.3315 13.12268 13.12268 0 0 1-2.14212 3.12024 11.49163 11.49163 0 0 1-5.66011 3.34 14.44064 14.44064 0 0 1-7.09464.06809 12.12127 12.12127 0 0 1-6.791-4.515 17.05563 17.05563 0 0 1-1.20815-1.77633 4.47082 4.47082 0 0 0-1.63751-1.66442 1.86788 1.86788 0 0 1-.80879-2.41888 2.62621 2.62621 0 0 1 .17142-.393 1.91574 1.91574 0 0 1 2.48147-.97329 2.90265 2.90265 0 0 1 .82358.426 1.78485 1.78485 0 0 1 .69151 2.02931.81765.81765 0 0 1-.05149.1336 2.29772 2.29772 0 0 0 .33555 2.4827 12.78811 12.78811 0 0 0 3.35343 3.39682 10.27857 10.27857 0 0 0 6.89306 1.65512 13.08949 13.08949 0 0 0 2.87091-.58681 9.92459 9.92459 0 0 0 5.74172-4.79409 13.28909 13.28909 0 0 0 .84649-1.89341 6.72784 6.72784 0 0 1 .3716-.85148 1.51522 1.51522 0 0 1 1.2398-.86026 4.31757 4.31757 0 0 1 .71248-.038 48.78582 48.78582 0 0 0 5.51708.01876 4.46731 4.46731 0 0 1 .6431.00559c.66123.06606.84308.265.83495.90863a3.85664 3.85664 0 0 1-.05861.64091 19.87708 19.87708 0 0 1-15.576 16.00466 19.42275 19.42275 0 0 1-4.19837.42263zm-18.32533-18.26148a1.20061 1.20061 0 0 0-1.32445 1.19474 1.02418 1.02418 0 0 0 1.08018 1.14954 1.12324 1.12324 0 0 0 1.22444-1.19225c.01238-.71851-.34732-1.14128-.98017-1.15203zm6.72174 2.34727a1.32041 1.32041 0 0 0 1.277-1.1995 1.17274 1.17274 0 0 0-1.17458-1.09987 1.215 1.215 0 0 0-1.22666 1.28527 1.01115 1.01115 0 0 0 1.12424 1.0141z" class="cls-2"/></svg>