<svg xmlns="http://www.w3.org/2000/svg" role="img" viewBox="-144.76 260.24 585.52 170.02"><title>Opendaylight logo</title><path fill="#FDB913" d="M-77.626 271.717v31.444l-22.434-22.527-24.687 24.686 22.434 22.528h-30.788v34.918h30.788l-22.434 22.433 24.687 24.687 22.434-22.434v31.727h34.917v-31.727l22.528 22.434 24.593-24.687-22.434-22.433h31.82v-34.918h-31.82L4.412 305.32l-24.593-24.686-22.528 22.527v-31.444z"/><path fill="#3B3936" d="M92.082 306.447c-.094 14.925-9.574 29.098-28.441 29.098-18.773 0-28.347-14.267-28.347-29.192 0-13.798 8.542-28.817 28.253-28.817 19.148-.188 28.535 14.08 28.535 28.911m-28.442-26.47c-17.271 0-25.719 13.141-25.719 26.376.094 13.329 8.823 26.658 25.719 26.658s25.907-13.047 25.813-26.564c.094-14.08-8.823-26.47-25.813-26.47m42.615 34.448V334.7h-2.628v-56.507h24.311c23.748 0 23.748 36.326 0 36.232h-21.683zm21.777-2.534c20.181 0 20.181-31.257 0-31.257h-21.683v31.257h21.683zm30.412 20.275v-24.78h33.885v-2.44h-33.885v-24.217h35.575v-2.534h-38.203V334.7h39.423v-2.534h-36.795zm50.03 2.534h2.628v-36.701l-.282-13.329 40.644 50.03v-56.507h-2.628v36.701l.282 13.047-40.362-49.748h-.282V334.7z"/><path fill="#FFB600" d="M83.164 383.698c.282 14.361-8.917 28.91-28.629 28.91H35.387v-56.507h19.148c19.055 0 28.348 13.705 28.629 27.597m-43.459-23.561v48.247h14.737c16.802 0 24.593-12.578 24.311-24.686-.282-11.827-7.979-23.466-24.311-23.466H39.705v-.095zm99.778 52.471l-6.195-13.892H99.497l-6.101 13.892h-4.693l25.344-56.507h4.787l25.344 56.507h-4.695zm-7.978-17.928l-15.112-34.448-15.206 34.448h30.318zm30.882 17.928h4.318v-22.621l22.152-33.885v-.094h-5.069l-19.242 29.755-19.148-29.755h-5.069v.094l22.058 33.885v22.621zm39.704-56.507v56.507h36.232v-4.13h-31.82v-52.377h-4.412zm47.027 56.507h4.318v-56.507h-4.318v56.507zm66.55-48.904c-5.726-5.632-13.235-8.448-20.65-8.448-17.177 0-29.192 11.545-29.192 29.192 0 15.394 9.95 28.817 29.192 28.817 8.354 0 15.394-3.191 21.307-9.105v-21.12h-23.842v3.755h19.712v15.863c-4.881 4.412-11.17 6.571-17.177 6.571-16.426 0-24.968-11.452-24.968-24.78-.094-13.047 8.354-25.156 24.968-25.156 6.383 0 13.235 2.441 18.21 7.228l2.44-2.817zm59.98 48.904v-56.507h-4.318v26.939h-36.044v-26.939h-4.318v56.507h4.318v-25.719h36.044v25.719h4.318zm31.069 0h4.318v-52.564h18.961v-3.848h-43.741v3.848h20.463v52.564z"/><path fill="none" d="M-77.626 338.079l10.231-10.231"/><path fill="none" d="M-77.626 352.534v-14.455"/><path fill="#F58220" d="M-18.022 327.848h-24.687v-24.687l-17.458 17.459-17.459-17.459v24.687h-24.687l17.459 17.459-17.459 17.459h24.687v24.686l17.459-17.459 17.458 17.459v-24.686h24.687l-17.459-17.459z"/><path fill="#F04E25" d="M-42.709 338.079v-10.231H-52.94l-7.227-7.228-7.228 7.228h-10.231v10.231l-7.228 7.228 7.228 7.227v10.232h10.231l7.228 7.227 7.227-7.227h10.231v-10.232l7.228-7.227z"/><path fill="#EE3124" d="M-52.94 327.848h-14.455l-10.231 10.231v14.455l10.231 10.232h14.455l10.231-10.232v-14.455z"/></svg>