<svg xmlns="http://www.w3.org/2000/svg" role="img" viewBox="-6.23 -6.23 324.22 254.22"><title>PNDA logo</title><path d="M224.776 62.657c2.453 8.872 4.862 17.586 7.268 26.291h-17.241c-.351-1.372-.793-3.262-1.319-5.129-8.646-30.679-29.417-50.046-58.817-59.614-41.197-13.406-78.934-6.597-110.029 24.846-19.076 19.289-25.694 43.083-19.705 69.936.214.961.331 1.944.448 2.652-5.434.488-10.774.966-16.753 1.503-5.324-20.081-3.387-40.314 5.058-59.897C-3.037 45.922-4.508 25.877 9.677 11.268 23.696-3.169 43.145-2.17 61.024 13.981c38.559-18.616 77.207-18.645 115.83-.061 19.167-16.312 38.239-17.048 52.023-2.03 13.61 14.829 11.906 34.824-4.101 50.767zM29.053 143.815c16.872-14.006 41.075-6.482 46.963 15.916 2.813 10.701 2.523 21.404-1.005 31.955-6.544 19.573-29.689 26.976-45.856 12.651V241.815h-19.9c-.081-1.681-.225-3.291-.226-4.902-.013-30.792-.012-61.584-.008-92.376.001-6.277.664-7.237 6.837-7.911 2.75-.3 5.615.116 8.393.475 3.373.437 5.615 2.097 4.802 6.714zm.108 31.088c0 2.83-.226 5.687.092 8.481.168 1.473.944 3.224 2.032 4.189 8.343 7.394 22.364 3.167 24.636-7.734.874-4.195.483-9.018-.664-13.189-1.882-6.844-8.553-10.477-15.139-9.31-8.193 1.452-10.964 4.881-10.964 13.568.001 1.331.001 2.663.007 3.995zm203.714 36.021h-19.861c-.194-1.927-.372-3.698-.605-6.005-8.295 8.236-17.851 8.755-27.722 4.874-10.568-4.155-15.882-12.881-17.824-23.614-2.168-11.981-2.347-23.881 4.211-34.88 6.379-10.698 18.227-16.647 29.522-14.122 4.045.904 7.728 3.43 11.819 5.328.063-.846.254-2.232.258-3.619.027-9.66.166-19.324-.061-28.979-.088-3.75 1.375-5.613 4.888-6.155 1.637-.252 3.282-.582 4.929-.617 9.085-.194 10.446 1.138 10.446 10.005V210.924zm-20.189-36.507c.117-.009.235-.019.352-.028-.367-4.095.534-8.971-1.396-12.103-2.949-4.786-8.636-6.57-14.47-6.041-5.244.475-8.878 3.758-9.828 8.595-1.002 5.102-1.369 10.598-.607 15.713 1.113 7.472 7.211 11.347 14.512 10.475 7.642-.912 11.435-5.263 11.436-13.119.001-1.164.001-2.328.001-3.492zm79.057-31.954c-.502-3.423 1.985-4.785 5.252-5.318 1.965-.321 3.971-.654 5.947-.593 7.996.249 9.045 1.395 9.045 9.358v64.816h-19.825c-.16-1.733-.333-3.602-.521-5.629-15.074 14.142-38.413 4.953-43.882-12.818-4.256-13.829-4.883-27.558 2.382-40.65 6.114-11.017 17.932-16.927 29.295-14.437 4.208.923 8.072 3.405 12.307 5.271zm.129 31.13c.113-.008.226-.017.34-.025-.361-3.918.448-8.526-1.359-11.591-2.695-4.57-8.051-6.103-13.525-5.91-4.879.172-8.149 2.889-10.024 7.079-2.972 6.643-3.161 13.595-.706 20.419 2.2 6.115 8.167 9.291 15.033 7.497 6.434-1.681 11.52-3.819 10.282-11.987-.273-1.788-.041-3.652-.041-5.482zm-181.641-33.651c6.628-1.091 12.769-3.013 18.881-2.924 14.159.206 23.951 8.875 24.734 23.004.927 16.733.218 33.556.218 50.711h-20.075v-5.086c-.003-11.991.037-23.982-.028-35.973-.029-5.347-.818-10.868-6.353-13.085-5.785-2.317-11.209.164-15.575 4.135-1.307 1.188-1.869 3.76-1.889 5.707-.152 14.641-.083 29.285-.083 44.298H90.2c-.079-1.542-.232-3.143-.233-4.744-.016-20.651.157-41.305-.13-61.952-.071-5.093 1.98-6.911 6.535-7.213 5.372-.356 10.97-1.597 13.859 3.122z"/></svg>