<svg xmlns="http://www.w3.org/2000/svg" role="img" viewBox="-6.00 -6.00 312.00 148.00"><title>Rebaca (5G) logo</title><style>svg {enable-background:new 0 0 300.1 136}</style><style>.st0{fill:#ed1c24}</style><path d="M164.7 42.4l130.4 15.3H148.2z" class="st0"/><ellipse cx="143.4" cy="41.8" class="st0" rx="17.7" ry="5.1" transform="rotate(-46.504 143.346 41.838)"/><ellipse cx="133.4" cy="31.2" class="st0" rx="15.5" ry="4.4" transform="rotate(-46.504 133.398 31.2)"/><ellipse cx="124.7" cy="22.9" class="st0" rx="14.1" ry="4" transform="rotate(-46.504 124.67 22.918)"/><ellipse cx="115.9" cy="14.6" class="st0" rx="11" ry="3.2" transform="rotate(-46.504 115.862 14.559)"/><ellipse cx="108.6" cy="7" class="st0" rx="9.4" ry="2.7" transform="rotate(-46.504 108.63 7.053)"/><ellipse cx="13.3" cy="94.6" class="st0" rx="17.7" ry="5.1" transform="rotate(-43.498 13.311 94.571)"/><ellipse cx="23.9" cy="104.5" class="st0" rx="15.5" ry="4.4" transform="rotate(-43.498 23.95 104.52)"/><ellipse cx="32.2" cy="113.2" class="st0" rx="14.1" ry="4" transform="rotate(-43.498 32.232 113.25)"/><ellipse cx="40.6" cy="122.1" class="st0" rx="11" ry="3.2" transform="rotate(-43.498 40.591 122.059)"/><ellipse cx="48.1" cy="129.3" class="st0" rx="9.4" ry="2.7" transform="rotate(-43.498 48.097 129.291)"/><path d="M54.6 132.2h245.6v3.2H54.6z" class="st0"/><g><path d="M147.3 108.6c-1.3 2.5-3 4.4-5.2 5.9s-4.7 2.2-7.5 2.2c-2.5 0-4.7-.4-6.6-1.3-1.9-.9-3.4-2.1-4.6-3.6-1.2-1.5-2.1-3.3-2.7-5.3-.6-2-.9-4.1-.9-6.4 0-2 .3-4 1-5.9.6-1.9 1.6-3.7 2.8-5.2 1.2-1.5 2.7-2.7 4.5-3.6 1.8-.9 3.8-1.4 6-1.4 2.3 0 4.2.4 5.8 1.1 1.6.7 2.9 1.7 3.9 2.9s1.7 2.6 2.2 4.2c.5 1.6.7 3.3.7 5.2v2.1h-20.5c0 2 .2 3.9.6 5.5.4 1.7 1 3.1 1.8 4.4.8 1.2 1.9 2.2 3.2 2.9 1.3.7 2.9 1.1 4.7 1.1 1.9 0 3.5-.4 4.8-1.3 1.4-.9 2.7-2.4 3.9-4.7l2.1 1.2zm-7-11.8c0-1.2-.1-2.4-.3-3.8-.2-1.3-.5-2.5-1-3.4-.5-1-1.1-1.7-2-2.4-.8-.6-1.9-.9-3.2-.9-2.2 0-4 .9-5.5 2.7-1.5 1.8-2.2 4.4-2.4 7.6l14.4.2zm42 3.6c0 4.7-1.5 8.6-4.4 11.7-2.9 3.2-6.3 4.7-10.2 4.7-1.7 0-3.4-.3-5-.8s-3.2-1.2-4.6-2.1l-2.3 3.6-1.9-.4c.1-1.6.2-3.4.2-5.6 0-2.2.1-4.3.1-6.3V74.5c0-.7-.2-1.4-.5-2.1-.3-.7-.7-1.2-1.2-1.5-.4-.3-1.1-.5-2-.6-.9-.1-1.7-.2-2.2-.3v-2l11.4-.7.4.5v20.4l.2.1c1.3-1.4 2.7-2.4 4.3-3.1 1.5-.7 3.1-1 4.5-1 3.8 0 7 1.5 9.6 4.5 2.4 2.9 3.6 6.8 3.6 11.7zm-6.5.2c0-1.6-.2-3.1-.5-4.7s-.9-3-1.6-4.2c-.7-1.2-1.6-2.2-2.8-3-1.2-.8-2.5-1.1-4.1-1.1-1.5 0-2.8.3-3.9.9-1.1.6-2.1 1.4-3 2.3v18c.1.5.4 1.1.7 1.8.4.7.9 1.3 1.5 1.9.6.6 1.3 1.1 2.1 1.4.8.4 1.8.6 2.9.6 2.6 0 4.6-1.2 6.2-3.7 1.7-2.5 2.5-5.9 2.5-10.2zm40.5 14.8c-1 .4-1.8.6-2.6.9-.7.2-1.6.3-2.5.3-1.6 0-2.9-.4-3.9-1.1-1-.8-1.6-1.9-1.9-3.3h-.2c-1.4 1.5-2.8 2.7-4.4 3.5-1.6.8-3.4 1.2-5.6 1.2-2.3 0-4.2-.7-5.7-2.1-1.5-1.4-2.2-3.3-2.2-5.6 0-1.2.2-2.3.5-3.2.3-.9.8-1.8 1.5-2.5.5-.6 1.2-1.2 2.1-1.7.9-.5 1.7-.9 2.4-1.2.9-.4 2.9-1 5.7-2 2.9-1 4.8-1.7 5.8-2.3v-3.1c0-.3-.1-.8-.2-1.6s-.4-1.5-.7-2.2c-.4-.8-1-1.5-1.8-2-.8-.6-1.8-.9-3.3-.9-1 0-1.9.2-2.7.5-.8.3-1.4.7-1.7 1 0 .4.1 1 .3 1.9.2.8.3 1.6.3 2.3 0 .7-.3 1.4-1 2-.7.6-1.6.9-2.8.9-1 0-1.8-.4-2.3-1.1-.5-.7-.7-1.6-.7-2.5 0-1 .3-1.9 1-2.8.7-.9 1.6-1.7 2.7-2.4.9-.6 2.1-1.1 3.4-1.5 1.3-.4 2.7-.6 3.9-.6 1.8 0 3.3.1 4.6.4 1.3.2 2.5.8 3.6 1.6s1.9 1.8 2.4 3.2c.6 1.3.8 3 .8 5.1 0 3 0 5.7-.1 8s-.1 4.8-.1 7.6c0 .8.1 1.5.4 1.9.3.5.7.9 1.3 1.2.3.2.8.3 1.5.3h2.1l.1 1.9zm-11-16.6c-1.8.5-3.3 1-4.7 1.5s-2.6 1.1-3.7 1.9c-1 .7-1.9 1.6-2.5 2.5-.6 1-.9 2.1-.9 3.5 0 1.7.5 3 1.4 3.8.9.8 2.1 1.2 3.5 1.2 1.5 0 2.8-.4 3.9-1.1 1.1-.7 2.1-1.6 2.9-2.6l.1-10.7zm28.4 18c-4.5 0-8-1.5-10.5-4.5s-3.8-7-3.8-12c0-2.2.3-4.2 1-6.1.7-1.9 1.7-3.6 3-5.2 1.2-1.5 2.8-2.7 4.7-3.6 1.9-.9 3.9-1.4 6.1-1.4 3 0 5.5.7 7.4 2.2 1.9 1.5 2.9 3.4 2.9 6 0 1-.3 2-.8 2.8-.5.8-1.3 1.2-2.5 1.2s-2.2-.3-2.9-.9c-.7-.6-1-1.3-1-2.1 0-.9.1-1.9.4-2.9.3-1 .4-1.7.4-2.2-.4-.6-.9-1.1-1.7-1.3-.7-.2-1.5-.3-2.4-.3-1 0-2 .2-2.9.6-.9.4-1.8 1.2-2.7 2.4-.8 1-1.4 2.5-1.9 4.2-.5 1.8-.7 3.9-.7 6.4 0 3.9.9 7.1 2.6 9.5 1.7 2.5 4 3.7 6.8 3.7 2 0 3.7-.5 5.1-1.5 1.4-1 2.6-2.5 3.8-4.5l2 1.3c-1.4 2.5-3.2 4.4-5.5 5.9-2.2 1.5-4.5 2.3-6.9 2.3zm44.2-1.4c-1 .4-1.9.6-2.6.9-.7.2-1.6.3-2.5.3-1.6 0-2.9-.4-3.9-1.1-1-.8-1.6-1.9-1.9-3.3h-.2c-1.4 1.5-2.8 2.7-4.4 3.5-1.6.8-3.4 1.2-5.6 1.2-2.3 0-4.2-.7-5.7-2.1-1.5-1.4-2.2-3.3-2.2-5.6 0-1.2.2-2.3.5-3.2.3-.9.8-1.8 1.5-2.5.5-.6 1.2-1.2 2.1-1.7.9-.5 1.7-.9 2.4-1.2.9-.4 2.9-1 5.7-2 2.9-1 4.8-1.7 5.8-2.3v-3.1c0-.3-.1-.8-.2-1.6s-.4-1.5-.7-2.2c-.4-.8-1-1.5-1.8-2-.8-.6-1.8-.9-3.3-.9-1 0-1.9.2-2.7.5-.8.3-1.4.7-1.7 1 0 .4.1 1 .3 1.9.2.8.3 1.6.3 2.3 0 .7-.3 1.4-1 2-.7.6-1.6.9-2.8.9-1 0-1.8-.4-2.3-1.1-.5-.7-.7-1.6-.7-2.5 0-1 .3-1.9 1-2.8.7-.9 1.6-1.7 2.7-2.4.9-.6 2.1-1.1 3.4-1.5 1.3-.4 2.7-.6 3.9-.6 1.8 0 3.3.1 4.6.4 1.3.2 2.5.8 3.6 1.6s1.9 1.8 2.4 3.2c.6 1.3.8 3 .8 5.1 0 3 0 5.7-.1 8s-.1 4.8-.1 7.6c0 .8.1 1.5.4 1.9.3.5.7.9 1.3 1.2.3.2.8.3 1.5.3h2.1l.1 1.9zM267 98.8c-1.8.5-3.3 1-4.7 1.5-1.3.5-2.6 1.1-3.7 1.9-1 .7-1.9 1.6-2.5 2.5-.6 1-.9 2.1-.9 3.5 0 1.7.5 3 1.4 3.8.9.8 2.1 1.2 3.5 1.2 1.5 0 2.8-.4 3.9-1.1 1.1-.7 2.1-1.6 2.9-2.6l.1-10.7z"/></g><g><path d="M117.9 116.6h-15.4c-3.4-5.3-6.5-10-9.2-13.8-2.7-3.9-5.7-7.9-8.9-12h-5.8v18.1c0 .9.1 1.8.4 2.5.3.7.9 1.3 1.9 1.6.5.2 1.3.4 2.5.5 1.2.2 2.2.3 3.1.3v2.9H62.3v-2.9c.6-.1 1.6-.1 2.8-.3 1.2-.1 2.1-.3 2.6-.5.8-.3 1.4-.9 1.8-1.5.4-.7.5-1.5.5-2.6V67.5c0-.9-.1-1.8-.4-2.5-.3-.7-.9-1.3-1.9-1.6-.7-.2-1.5-.5-2.6-.7-1.1-.2-2-.3-2.7-.4v-2.9h26.4c2.4 0 4.7.2 6.8.7 2.1.5 4 1.3 5.8 2.4 1.7 1.1 3 2.5 4 4.2 1 1.7 1.5 3.8 1.5 6.3 0 2.2-.3 4.1-1 5.8-.7 1.7-1.7 3.2-3 4.4-1.2 1.2-2.7 2.2-4.3 3-1.7.8-3.6 1.6-5.6 2.2 2.8 3.7 5.2 6.9 7 9.4 1.9 2.5 4.2 5.6 6.9 9.3 1.2 1.6 2.2 2.8 3.2 3.6 1 .8 1.9 1.4 2.8 1.9.7.3 1.6.6 2.6.8 1 .2 1.9.3 2.6.3v2.9zM96.8 74c0-3.5-1-6.2-3-8.2-2-2-4.8-3-8.4-3h-6.8v24.5h5.3c3.7 0 6.8-1.2 9.3-3.6 2.3-2.4 3.6-5.6 3.6-9.7z"/></g></svg>