<svg xmlns="http://www.w3.org/2000/svg" role="img" viewBox="-13.59 -13.09 680.68 65.68"><title>Tata Communications Limited logo</title><path fill="#4e84c4" d="M207.718 38.219c-1.66622.8599-5.3469 1.7814-10.00268 1.7814-12.29573 0-19.76694-7.7605-19.76694-19.54191 0-12.7565 8.84811-20.45807 20.68845-20.45807 4.65578 0 7.98822.97776 9.42406 1.72247l-1.54835 5.63354c-1.84303-.80364-4.36914-1.4921-7.5864-1.4921-7.87302 0-13.56549 4.93973-13.56549 14.25127 0 8.50522 4.99866 13.96464 13.50924 13.96464 2.869 0 5.85856-.57595 7.6989-1.43852"/><path fill="#4e84c4" d="M217.718 20.174c0 7.87302 3.96464 14.19501 10.7447 14.19501 6.839 0 10.68846-6.3836 10.68846-14.48432 0-7.2944-3.6164-14.25127-10.68845-14.25127-7.00777 0-10.74471 6.55237-10.74471 14.54058m28.90436-.57594c0 12.98955-7.87302 20.40181-18.56147 20.40181-10.92151 0-17.81677-8.33645-17.81677-19.71336 0-11.89392 7.47388-20.28663 18.39271-20.28663 11.32333 0 17.98553 8.56684 17.98553 19.59818"/><path fill="#4e84c4" d="M285.409 23.563c-.2277-5.00134-.51433-11.03402-.45808-16.32199h-.17412c-1.25904 4.77096-2.869 10-4.59684 14.88347l-5.63086 16.78274h-5.45673l-5.17546-16.55236c-1.4921-4.93973-2.87437-10.2277-3.90839-15.11385h-.11519c-.16876 5.11653-.39914 11.26708-.68577 16.55237l-.86526 15.57192h-6.60594L254.31873.63239h9.31154l5.0576 15.5746c1.3769 4.54058 2.58773 9.13742 3.5655 13.44762h.16876c1.0367-4.19501 2.36271-8.9633 3.8548-13.50388L281.61582.6324h9.19903l2.23948 38.73291h-6.89257"/><path fill="#4e84c4" d="M332.936 23.563c-.2277-5.00134-.51969-11.03402-.46076-16.32199h-.17144c-1.2644 4.77096-2.87168 10-4.59952 14.88347l-5.63085 16.78274H316.614l-5.17278-16.55236c-1.49478-4.93973-2.87169-10.2277-3.90839-15.11385h-.11518c-.17145 5.11653-.40183 11.26708-.68846 16.55237l-.86258 15.57192H299.258L301.84305.63239h9.31155l5.05759 15.5746c1.37959 4.54058 2.58505 9.13742 3.56282 13.44762h.17412c1.03402-4.19501 2.35467-8.9633 3.84945-13.50388L329.1428.6324h9.191l2.24751 38.73291h-6.89793"/><path fill="#4e84c4" d="M354.771.632v22.58505c0 7.58639 3.161 11.09027 7.92928 11.09027 5.11652 0 8.15965-3.50388 8.15965-11.09027V.632h7.07206v22.1243c0 11.95552-6.15323 17.24081-15.46209 17.24081-8.9633 0-14.7656-4.99866-14.7656-17.18456V.632"/><path fill="#4e84c4" d="M386.035 39.365V.63209h8.04447l10 16.60862c2.58505 4.3102 4.82185 8.79453 6.60326 12.98955h.11787c-.45808-5.17546-.62684-10.17412-.62684-16.0943V.6321h6.547V39.365h-7.29975l-10.1125-17.0667c-2.46987-4.19501-5.05492-8.96598-6.9542-13.33244l-.17144.05626c.28395 5.00134.34289 10.11519.34289 16.49343V39.365"/><path fill="#4e84c4" d="M424.87894 39.36556h7.06939V.63261h-7.06939v38.73295z"/><path fill="#4e84c4" d="M467.809 38.219c-1.66622.8599-5.34958 1.7814-10 1.7814-12.3011 0-19.76962-7.7605-19.76962-19.54191 0-12.7565 8.84811-20.45807 20.69113-20.45807 4.65042 0 7.9909.97776 9.4187 1.72247l-1.55103 5.63354c-1.84034-.80364-4.36914-1.4921-7.58371-1.4921-7.87838 0-13.56818 4.93973-13.56818 14.25127 0 8.50522 5.0067 13.96464 13.5146 13.96464 2.86633 0 5.86124-.57595 7.69354-1.43852"/><path fill="#4e84c4" d="M493.091 23.046l-3.0458-9.54192c-.75007-2.35468-1.38227-4.99866-1.95554-7.23815h-.11787c-.57594 2.23949-1.14117 4.93705-1.83498 7.23815l-2.98687 9.54192h9.94106zm-11.0876 5.34155l-3.3378 10.97776h-7.29707L483.77946.6324h9.0249l12.58506 38.73291h-7.58371l-3.50925-10.97776"/><path fill="#4e84c4" d="M513.547 6.552h-11.0367V.6345h29.25529V6.552h-11.14653v32.81274H513.547"/><path fill="#4e84c4" d="M536.30683 39.36556h7.0667V.63261h-7.0667v38.73295z"/><path fill="#4e84c4" d="M556.93 20.174c0 7.87302 3.96196 14.19501 10.74739 14.19501 6.83632 0 10.68845-6.3836 10.68845-14.48432 0-7.2944-3.61907-14.25127-10.68845-14.25127-7.01313 0-10.74739 6.55237-10.74739 14.54058m28.90972-.57594c0 12.98955-7.8757 20.40181-18.56683 20.40181-10.91883 0-17.80873-8.33645-17.80873-19.71336 0-11.89392 7.46584-20.28663 18.38735-20.28663 11.31797 0 17.9882 8.56684 17.9882 19.59818"/><path fill="#4e84c4" d="M591.923 39.365V.63209h8.04982l10 16.60862c2.58505 4.3102 4.82722 8.79453 6.60863 12.98955h.11786c-.46075-5.17546-.63487-10.17412-.63487-16.0943V.6321h6.55504V39.365h-7.30511l-10.10983-17.0667c-2.46986-4.19501-5.06295-8.96598-6.95687-13.33244l-.17412.05626c.29199 5.00134.35092 10.11519.35092 16.49343V39.365"/><path fill="#4e84c4" d="M630.597 31.664c2.29842 1.32869 5.74873 2.47254 9.37048 2.47254 4.54326 0 7.07473-2.1243 7.07473-5.28797 0-2.93062-1.96088-4.6531-6.90329-6.43718-6.38092-2.29574-10.45807-5.68443-10.45807-11.26172 0-6.31931 5.28797-11.1492 13.678-11.1492 4.19502 0 7.2944.91883 9.30619 1.95285l-1.7198 5.6898c-1.37423-.74472-4.0825-1.83767-7.70426-1.83767-4.47897 0-6.4345 2.4136-6.4345 4.65577 0 2.98955 2.24217 4.36646 7.41763 6.37825 6.72113 2.5288 10 5.92017 10 11.49745 0 6.20144-4.72007 11.66354-14.7147 11.66354-4.07984 0-8.3311-1.20547-10.46076-2.46987"/><path fill="#4e84c4" fill-rule="evenodd" d="M11.055 39.204V11.77834H-.00045V.37197h37.60781v11.40637H26.8841V39.204"/><path fill="#4e84c4" fill-rule="evenodd" d="M86.094 39.204V11.77834H75.0439V.37197h37.60782v11.40637H101.9231V39.204"/><path fill="#4e84c4" fill-rule="evenodd" d="M34.016 39.253L48.24048.42097 64.42853.41561 79.53166 39.253H64.2812l-7.85963-23.4771-7.82749 23.4771"/><path fill="#4e84c4" fill-rule="evenodd" d="M109.025 39.245L123.24144.41565h16.01661L154.53798 39.245h-15.25314l-7.68015-23.46905-8.00964 23.46905"/></svg>