<svg xmlns="http://www.w3.org/2000/svg" role="img" viewBox="-5.91 70.59 411.58 103.58"><title>TM Forum logo</title><defs><style>.cls-1{fill:#df121d}</style></defs><g id="_2e570efd-9f54-42dc-8cf6-94d256ca9f79" data-name="2e570efd-9f54-42dc-8cf6-94d256ca9f79"><g id="a27c364d-6be4-4dcf-95d0-9921edb21a89"><path d="M193.60587 103.93844c21.33793 0 30.56194 14.44962 30.56194 30.91822s-9.58029 31.67039-30.91823 31.67039c-16.78531 0-30.08687-10.37205-30.08687-31.037-.00001-14.41005 7.205-31.55161 30.44316-31.55161zm.23754 50.39551c7.5613 0 12.70774-4.55262 12.70774-20.18987 0-7.9176-1.50435-18.64595-12.94528-18.64595-12.589 0-12.70774 14.56838-12.70774 19.794-.03959 13.34115 4.39426 19.04182 12.90568 19.04182zm33.2143-49.20787h15.8352v11.28258c2.21693-5.02768 6.057-12.11393 20.07111-11.44093v15.51849c-17.49789-1.62311-18.52718 7.36336-18.52718 14.68714V164.231h-17.41871zm167.69473 8.51142a21.93176 21.93176 0 0 0-37.01477 1.50434c-1.148-2.81074-4.98809-11.08463-18.52718-11.08463a20.11067 20.11067 0 0 0-18.09171 8.70935V104.849h-17.57707v30.04728c0 10.01576 0 18.32923-11.12422 18.32923-9.224 0-9.224-7.91759-9.224-12.94527v-35.2333H265.6164v36.81683c0 2.92951 0 11.08463 3.9588 15.83519a22.60477 22.60477 0 0 0 17.45832 7.9176 19.319 19.319 0 0 0 17.22077-9.02606v7.52171h17.57708v-34.52075c0-3.9588 0-13.30156 10.76793-13.30156 9.85741.03958 9.85741 8.43224 9.85741 12.98485v34.99579h17.57707V134.7379c0-8.74895 0-18.40842 10.53042-18.40842 8.98646 0 9.81784 7.00708 9.81784 13.30156v34.6395h17.49785v-33.25391a34.08518 34.08518 0 0 0-3.12745-17.37913z" class="cls-1"/><path d="M175.51416 105.04691h-19.121v-6.73c0-3.04828.23753-7.68007 9.10523-7.68007a25.851 25.851 0 0 1 3.9588.35629V79.11677a73.239 73.239 0 0 0-9.34277-.59382c-16.78531 0-20.269 8.39266-20.269 18.76471v7.9176H123.2976a24.26738 24.26738 0 0 1 9.897 12.90568h6.61119v46.12h16.58738v-46.12h7.9176a35.07466 35.07466 0 0 1 3.24621-5.5819 29.57224 29.57224 0 0 1 7.95718-7.48213z" class="cls-1"/><path d="M22.34823 88.42h-9.26359v16.627H2v9.10523h11.08464v34.04568c0 10.88669 7.52171 16.429 18.40841 16.429a41.608 41.608 0 0 0 6.57161-.3167v-8.70936a32.8982 32.8982 0 0 1-6.37367 0c-5.89861-.23753-9.34277-2.692-9.34277-8.51142v-32.93729H35.2935v-9.10523H22.34823zm87.25193 16.19144a23.00063 23.00063 0 0 0-19.794 10.45123 20.30865 20.30865 0 0 0-18.448-10.45123 21.45668 21.45668 0 0 0-17.53748 8.82812v-8.39265H43.607v59.382h10.17409v-33.37269c0-9.81782 5.859-16.94366 14.4892-16.94366s13.262 5.97778 13.262 15.83519v34.16443h11.8764v-33.37267c0-9.93659 5.54231-16.62695 14.33085-16.62695s13.42032 5.8986 13.42032 16.19148v33.9665h10.17411v-35.9459c.15834-14.64755-8.19472-23.7132-21.73381-23.7132z"/></g></g></svg>