<svg xmlns="http://www.w3.org/2000/svg" role="img" viewBox="-36.25 -31.25 2145.00 1042.50"><title>Tungsten Fabric logo</title><style>svg {enable-background:new 0 0 2073.5 983.2}</style><style>.st2{fill:#12143e}</style><linearGradient id="SVGID_1_" x1="402.221" x2="1774.461" y1="771.733" y2="974.45" gradientTransform="matrix(1 0 -.2679 1 -283.32 0)" gradientUnits="userSpaceOnUse"><stop offset="0" stop-color="#eb7125"/><stop offset="1" stop-color="#e0282a"/></linearGradient><path fill="url(#SVGID_1_)" d="M41.3 861.6c3.3 1.9 8 1.3 14-2 1.4-.7 2.3-.5 2.9.7l9.8 20.5c.7 1.3.3 2.4-1.4 3.2-10.1 5.9-19.8 8.8-29.1 8.8-6.4 0-12-1.4-17-4.3-6.3-3.6-10.6-9.1-12.8-16.5-2.1-7.4-1.9-15.8.6-25.1l23-85.7H6.6c-1.6 0-2.1-.8-1.7-2.3l6.8-25.5c.4-1.6 1.4-2.3 3-2.3h24.6l8.9-33.9c.4-1.6 1.4-2.3 3-2.3h25.7c1.5 0 2.1.8 1.7 2.3l-9.1 33.9h24.6c1.5 0 2.1.8 1.7 2.3L89 758.9c-.4 1.6-1.4 2.3-3 2.3H61.4l-23 85.7c-2 7.6-1 12.5 2.9 14.7z"/><linearGradient id="SVGID_2_" x1="403.087" x2="1775.326" y1="765.873" y2="968.591" gradientTransform="matrix(1 0 -.2679 1 -283.32 0)" gradientUnits="userSpaceOnUse"><stop offset="0" stop-color="#eb7125"/><stop offset="1" stop-color="#e0282a"/></linearGradient><path fill="url(#SVGID_2_)" d="M165.2 864.7h1.8c9.9-.4 19.2-4.1 27.8-11.1 3.3-2.6 6.3-5.7 8.9-9.2 1.9-2.5 3.6-5.2 5-8.1.6-1.3 1.1-2.4 1.4-3.2l.7-2 .9-2.7 26-96.5c.4-1.6 1.4-2.3 3-2.3h26c1.5 0 2.1.8 1.7 2.3l-42.2 157.3c-.4 1.6-1.4 2.3-3 2.3h-26c-1.6 0-2.1-.8-1.7-2.3l2.3-8.6c-3.6 2.2-7 4-10.2 5.4-9 4-17.9 6.3-26.7 6.6-3.7.2-9.4 0-13.5-.5-4.5-.7-8.7-2.1-12.6-3.8-8.1-3.5-14.5-8.9-19.2-16.2-4.8-7.3-7.3-15.6-7.7-24.8-.1-4.5.3-9.2 1.2-14 .4-2 .9-4.2 1.4-6.5l.7-2.7.7-2.5c1.4-5.3 3.2-12 5.4-20.3l1.3-4.8 1.1-4.7c.9-3.4 1.7-6.2 2.3-8.6 3.9-15.1 7.2-27.6 9.9-37.5l3.4-12.8c.4-1.7 1.4-2.5 3-2.5H164c1.5 0 2.1.8 1.7 2.5l-3.6 12.8c-2.7 9.9-6.1 22.5-10.2 37.5-1.1 4.2-2.7 10.2-4.9 18.1l-1.5 4.8-1.3 5c-1 3.8-2 7.3-2.8 10.4l-.7 2.7-.7 2.5c-.5 2-1.8 6.1-1.8 12 .1 5.2 1.3 9.8 3.8 13.8 2.6 4.1 6.1 7.1 10.5 9.2 2.3 1 4.6 1.7 7 2.2l1 .2s.7.1 1.5.2c1.4.5 3.2.4 3.2.4z"/><linearGradient id="SVGID_3_" x1="405.24" x2="1777.48" y1="751.297" y2="954.014" gradientTransform="matrix(1 0 -.2679 1 -283.32 0)" gradientUnits="userSpaceOnUse"><stop offset="0" stop-color="#eb7125"/><stop offset="1" stop-color="#e0282a"/></linearGradient><path fill="url(#SVGID_3_)" d="M616.6 733.4c.4-1.6 1.4-2.3 3-2.3h25.7c1.5 0 2.1.8 1.7 2.3l-42.2 157.3c-6 22.3-19 41.3-39 57.1-20 15.8-41.2 23.7-63.5 23.7-14 0-26.3-3.4-36.8-10.2-10.4-6.9-17.6-16.3-21.7-28.2-.5-1.3 0-2.4 1.6-3.2l25.7-12.8c1.5-.8 2.6-.6 3 .7 3.4 9.5 9.9 16.2 19.2 20.1 9.7 4.1 20.5 4.4 32.4 1.1 11.5-3.2 21.9-9.5 31.1-18.9 8.9-9.2 14.9-19.5 18-30.9l3.9-14.7c-18.3 12.3-37.1 18.5-56.3 18.5-11.4 0-21.7-2.3-30.9-6.8-8.8-4.4-15.8-10.7-21.2-18.7-11.5-17-13.3-37.2-5.5-60.7 6.8-20.5 19.6-38 38.5-52.6 19-14.5 38.8-22.1 59.6-22.8 20.5-.7 36.9 5.5 49.1 18.5l4.6-16.5zm-86 129.3c13.9 0 27.1-4.9 39.7-14.7 12.5-9.9 20.6-21.9 24.3-35.7 3.7-13.9 2-25.8-5.2-35.7-7.3-9.8-17.9-14.7-31.8-14.7-14 0-27.2 4.9-39.7 14.7-12.6 9.9-20.8 21.9-24.5 35.7-3.7 13.9-2 25.8 5.3 35.7 7.2 9.8 17.8 14.7 31.9 14.7z"/><linearGradient id="SVGID_4_" x1="413.724" x2="1785.964" y1="693.867" y2="896.584" gradientTransform="matrix(1 0 -.2679 1 -283.32 0)" gradientUnits="userSpaceOnUse"><stop offset="0" stop-color="#eb7125"/><stop offset="1" stop-color="#e0282a"/></linearGradient><path fill="url(#SVGID_4_)" d="M759.9 847.9c-.6 2.3-2.1 6.1-3 8.2-3 6.7-7.4 12.7-12.9 18-5.2 5-11 9-17.5 11.9-5 2.3-10.6 4.1-16.5 5.4-5.4 1-10.1 1.5-14.1 1.6 0 0-8.7 0-12.1-.5-3.4-.6-7.1-1.3-10.9-2.3-5.6-1.6-10.6-3.9-15.2-7-2.3-1.6-4.5-3.2-6.4-5-1.4-1.2-2.5-2.5-3.5-3.8-.9-1.1-.6-2.2.9-3.4l23.4-17.8c1.2-.8 2.2-.9 3.1-.2.7.8 1.4 1.6 2.1 2.2.9.7 1.6 1.3 2.2 1.8 2.8 2.4 14.2 9.3 32 5.4 3.2-.7 5.9-1.6 8-2.5 4.5-2.2 7.8-5.3 9.9-9.5 0 0 4.2-7.6 1.2-12.9-2.1-3.7-7.4-8.2-15.3-12.4l-5.8-3.1-2.8-1.4-1.1-.5-1.4-.7c-5-2.6-9.1-5-12.1-7.2-4.9-3.5-8.7-7.2-11.3-11.3-.4-.5-.7-1.1-1.1-2l-.9-2.2c-.8-1.7-1.2-3.2-1.5-4.5l-.6-2.5c-.1-1-.2-1.8-.2-2.5v-4.1s.3-3.5.5-4.5l.5-2.5.1-.4.3-1.3s1.7-5.2 2.4-7c.4-1.1 1.2-2.6 2.3-4.7 3.6-6.7 8.3-12.3 14.2-16.9 5.1-4.2 10.8-7.4 17.3-9.7 4.6-1.6 9.7-2.9 15.1-3.4 3.3-.3 5.5-.3 6.6-.4h6.1c3.3.2 7 .6 10.9 1.4 5.7 1.4 11 3.7 15.8 6.6 1.9 1.1 3.5 2.3 5 3.6 1.3 1 4.2 4 4.8 4.8 1 1.1.8 2.2-.7 3.4l-20.8 16c-1.2 1-2.2 1-3.1.2-.8-.7-1.5-1.4-2.2-2-1-.7-1.8-1.3-2.4-1.8-2.9-1.7-6-2.9-9.4-3.8-2.6-.5-4.8-.7-6.6-.7h-4c-.8 0-2.9.1-3.8.2-3.1.3-5.9 1.1-8 1.8-2.3 1-4.2 2-5.7 3.2-1.5 1.2-2.8 2.8-3.8 4.7l-.4.7-.4.9-.7 1.8-.2.9-.2.9-.3 1.6v1.3l.3 1.1.4 1.3.3.7.3.7c1.2 1.8 3.2 3.7 5.9 5.6 2.3 1.6 21.4 11.3 21.4 11.3 5 2.5 9 5 12.2 7.5 4.9 3.6 8.6 7.5 11 11.9 3.3 5.5 5.1 11.7 4.3 18.7 0 2.7-.9 7.2-1.9 11.1z"/><linearGradient id="SVGID_5_" x1="419.301" x2="1791.541" y1="656.114" y2="858.832" gradientTransform="matrix(1 0 -.2679 1 -283.32 0)" gradientUnits="userSpaceOnUse"><stop offset="0" stop-color="#eb7125"/><stop offset="1" stop-color="#e0282a"/></linearGradient><path fill="url(#SVGID_5_)" d="M841.1 861.6c3.3 1.9 8 1.3 14-2 1.4-.7 2.3-.5 2.9.7l9.8 20.5c.7 1.3.3 2.4-1.4 3.2-10.1 5.9-19.8 8.8-29.1 8.8-6.4 0-12-1.4-17-4.3-6.3-3.6-10.6-9.1-12.8-16.5-2.1-7.4-1.9-15.8.6-25.1l23-85.7h-24.6c-1.6 0-2.1-.8-1.7-2.3l6.8-25.5c.4-1.6 1.4-2.3 3-2.3H839l8.9-33.9c.4-1.6 1.4-2.3 3-2.3h25.7c1.5 0 2.1.8 1.7 2.3l-9.1 33.9h24.6c1.5 0 2.1.8 1.7 2.3l-6.8 25.5c-.4 1.6-1.4 2.3-3 2.3h-24.6l-23 85.7c-1.9 7.6-1 12.5 3 14.7z"/><linearGradient id="SVGID_6_" x1="419.502" x2="1791.742" y1="654.751" y2="857.468" gradientTransform="matrix(1 0 -.2679 1 -283.32 0)" gradientUnits="userSpaceOnUse"><stop offset="0" stop-color="#eb7125"/><stop offset="1" stop-color="#e0282a"/></linearGradient><path fill="url(#SVGID_6_)" d="M1005.6 731.6c21.4.1 37.5 8 48.4 23.7 10.9 15.6 13.5 34.1 7.7 55.7l-2.7 10.2c-.4 1.4-1.3 2.2-2.8 2.3l-121.3 10.2c1.8 8.6 6 15.6 12.7 20.8 6.9 5.3 15.2 7.9 25 7.9 8.6 0 17.2-2 25.9-6.1 8.8-4.2 16.4-9.9 22.9-17.1 1.2-1.3 2.3-1.6 3.5-.9l18.6 12.9c1.2.7 1.2 1.8 0 3.2-10.5 11.9-22.8 21.2-37 28-14 6.8-28.1 10.2-42.1 10.2-22.2 0-39-7.9-50.6-23.7-11.6-15.7-14.4-34.7-8.5-56.9 6.1-22.7 18.8-41.9 38.2-57.5 19.6-15.3 40.2-23 62.1-22.9zm28.2 64.1c.1-10.3-3.1-18.5-9.8-24.6-6.6-6.2-15.6-9.3-27.1-9.3-12.1 0-23.6 4-34.4 11.9-10.8 7.8-18.8 17.8-23.9 30.2l95.2-8.2z"/><path d="M1357.9 753.3c-1.7 0-2.3-.8-1.8-2.5l3.2-11.9c.4-1.7 1.5-2.5 3.2-2.5h60.5c1.7 0 2.3.8 1.8 2.5l-3.2 11.9c-.4 1.7-1.5 2.5-3.2 2.5h-60.5zM1339 892.9c-1.6 0-2.1-.8-1.7-2.5l55.8-208.4c2.4-9.1 6.5-17.1 12.2-24.1 5.7-7.1 12.5-12.3 20.4-15.8 7.3-3.2 14.6-4.4 21.8-3.6 7.2.7 13.6 3.4 19.2 8.1 1.2 1 1 2.2-.4 3.6l-9.7 9.5c-1.3 1.3-2.5 1.5-3.6.5-7.2-5.7-15.1-6.8-23.8-3.1-9.5 4.3-15.9 12.6-19.2 24.8l-55.8 208.4c-.4 1.7-1.5 2.5-3.2 2.5h-12zm171.3 0c-1.4 0-2.1-.7-1.9-2.2 1.2-8.6 2.6-16.7 4-24.2-4.6 4.7-9.5 8.7-14.5 12-8.6 5.9-18.1 10-28.5 12.4-9.9 2.2-19.9 2.4-29.8.7-5.6-1.1-10.3-2.8-14.1-5.2-4.5-2.9-7.9-6.6-10.1-11.3-3.7-8.3-3.4-18.7.7-31.4 2-5.9 5-11.2 8.8-16 3.7-4.8 8.3-9 13.8-12.6 7.9-5.3 17.4-9.2 28.5-11.9 7.3-1.7 15.4-2.8 24.3-3.4 6.4-.4 12.9-.4 19.4-.2 2.6 0 5.3.1 8 .4 1.8 0 4 .1 6.7.4l2.6.2c4.7-18.3 4.6-30.9-.3-37.7-4.4-6.1-13.2-9.2-26.5-9.2-9.8 0-19.3 1.7-28.3 5.2-3.4 1.3-6.6 2.8-9.6 4.5-1.1.6-2.3 1.3-3.4 2-.9.6-1.7 1.1-2.4 1.6-1.3 1-2.4 1-3.2 0l-6.8-8.1c-1-1.3-.6-2.6 1-3.8 1-.7 2.1-1.4 3.3-2.2 1.4-1 3-1.9 4.5-2.9 4-2.3 8.1-4.3 12.4-6.1 12.1-4.9 24.5-7.4 37.2-7.4 18.1 0 30.5 4.8 37.3 14.4 5.1 7.3 6.9 17.4 5.5 30.4-.5 5-1.6 10.8-3.2 17.4l-2.4 9-2.3 8.6c-1.2 4.1-2.2 7.7-3.1 10.8-2.5 9.5-5 20.6-7.3 33.4-1.8 9.3-3.4 19.2-4.8 29.5-.3 1.9-1.4 2.9-3.3 2.9h-12.2zm-2.9-41.3c3.7-4.5 7.2-9.8 10.3-15.6l1.8-3.4 1.3-5.4 1.6-5.2 1.4-5.2c-1.3-.1-2.5-.2-3.7-.4-4.9-.5-9.5-.8-13.8-.9-6.2-.1-12.3 0-18.2.4-7.8.5-14.9 1.4-21.2 2.9-8.7 2-15.8 4.9-21.3 8.6-6.6 4.4-11 10.2-13.3 17.4-2.6 8.6-2.6 15.4-.3 20.5 2.2 5 7.3 8.3 15.1 9.9 7.8 1.4 15.4 1.4 22.9-.2 7.6-1.7 14.8-4.6 21.4-8.8 5.7-3.8 11-8.6 16-14.6zM1692 737.3c17.5 1.8 31 9.2 40.6 22.1 9.6 12.9 13 28.4 10.2 46.3-1.8 11.5-5.9 22.7-12.4 33.6-6.1 10.3-14 19.5-23.6 27.7-9.5 8.1-19.7 14.4-30.7 18.9-11.4 4.7-22.8 7-34.2 7-12.1 0-22.8-2.7-32.1-8.1-9.2-5.1-16.2-12.3-21-21.6l-7.3 27.1c-.4 1.7-1.5 2.5-3.2 2.5h-11.9c-1.7 0-2.3-.8-1.8-2.5l67.6-252.4c.4-1.7 1.5-2.5 3.2-2.5h11.9c1.7 0 2.3.8 1.8 2.5l-34.4 128.4c10.9-10.3 23-18 36.4-23.2 13.8-5.2 27.5-7.2 40.9-5.8zM1646.4 876c16.9 0 32.9-6 48.1-18 15.2-12 25-26.3 29.5-43.1 4.5-16.9 2.4-31.3-6.4-43.3-8.8-12-21.6-18-38.5-18-16.8 0-32.7 6-47.9 18-15.2 12-25 26.4-29.6 43.3-4.5 16.8-2.4 31.1 6.4 43.1s21.6 18 38.4 18zm225.5-137.8c1.6.4 2 1.4 1.2 3.1l-5.5 11.7c-.8 1.6-1.9 2.2-3.4 2-2.1-.4-4.2-.5-6.5-.5-12.3 0-24.1 4.4-35.1 13.1-11.1 8.7-18.3 19.3-21.6 31.6l-24.4 91.2c-.4 1.7-1.5 2.5-3 2.5h-12c-1.7 0-2.3-.8-1.8-2.5l40.6-151.4c.4-1.7 1.5-2.5 3.2-2.5h12c1.5 0 2.1.8 1.7 2.5l-4.8 18c15.7-12.9 32.3-19.4 49.9-19.4 3.1-.1 6.4.2 9.5.6zm58.9-42.3c-3 2.4-6.2 3.6-9.6 3.6-3.5 0-6-1.2-7.7-3.6-1.8-2.4-2.2-5.3-1.3-8.6.9-3.4 2.9-6.2 5.9-8.6 2.9-2.4 6.1-3.6 9.6-3.6 3.3 0 5.9 1.2 7.7 3.6 1.7 2.4 2.2 5.3 1.3 8.6-.9 3.3-2.9 6.2-5.9 8.6zm-67.5 197c-1.6 0-2.1-.8-1.7-2.5l40.4-150.7c.4-1.7 1.4-2.5 3-2.5h12c1.7 0 2.3.8 1.8 2.5l-40.4 150.7c-.4 1.7-1.5 2.5-3.2 2.5h-11.9zm73.3-25.5c-11.1-17-12.5-37.1-4.2-60.2 6.5-18.1 18-33.8 34.3-47.1 16.3-13.2 33.8-20.9 52.4-23.2 19.3-2.4 35.6 1.4 48.7 11.3 1.2 1 1.1 2.2-.2 3.6l-9.5 9.9c-1.2 1.3-2.4 1.6-3.6.7-8.5-6.3-18.9-9.4-31.1-9.2-16.1.4-31.6 6.3-46.3 17.8-14.7 11.5-24.5 25.3-29.4 41.3-5.3 17.4-3.5 32.3 5.3 44.7 8.8 12.5 21.8 18.7 39 18.7 11.7 0 23.3-3.1 34.8-9.2 1.5-.8 2.6-.6 3.2.7l4 9.9c.7 1.4.1 2.6-1.7 3.6-14.8 8-29.8 12-44.9 12-22.9.2-39.9-8.3-50.8-25.3z" class="st2"/><linearGradient id="SVGID_7_" x1="405.505" x2="1777.744" y1="749.506" y2="952.223" gradientTransform="matrix(1 0 -.2679 1 -283.32 0)" gradientUnits="userSpaceOnUse"><stop offset="0" stop-color="#eb7125"/><stop offset="1" stop-color="#e0282a"/></linearGradient><path fill="url(#SVGID_7_)" d="M401.8 802.2c-.8 3.1-1.7 6.5-2.7 10.2l-1.3 5-1.3 4.8c-2.3 8-3.9 14-5 18-4.1 14.9-7.5 27.2-10.1 37.2l-3.6 12.8c-.4 1.6.1 2.3 1.7 2.3h25.9c1.5 0 2.5-.8 3-2.3l3.2-12.8c2.7-9.9 5.9-22.3 9.8-37.2 1.1-4 2.7-9.9 4.8-18l1.1-4.8 1.3-5c1-3.7 1.9-7.1 2.7-10.2l1.4-5.2c.6-2.4 1.1-4.7 1.3-7 .8-4.7 1-9.2.6-13.7-.7-9.1-3.5-17.1-8.5-24.1-4.7-6.9-11.3-11.9-19.6-15.4-6.8-2.9-13.6-3.5-14.3-3.6-.6-.1-6.3-.5-11.6-.2-8.9.5-17.8 3.1-26.5 7-3 1.3-6.1 3-9.4 5l3.3-12.2c.4-1.6-.2-2.3-1.7-2.3h-26.2c-1.6 0-2.5.8-3 2.3l-42.3 157.7c-.4 1.6.1 2.3 1.7 2.3h26.2c1.5 0 2.5-.8 3-2.3l24.4-91.1s.6-2.1.8-2.7c6.8-20 25.8-36.3 45.9-36.3 16.2 0 26.9 10.6 27.7 25.1.2 3.5-.3 7.2-1.4 11.1"/><linearGradient id="SVGID_8_" x1="422.737" x2="1794.976" y1="632.859" y2="835.576" gradientTransform="matrix(1 0 -.2679 1 -283.32 0)" gradientUnits="userSpaceOnUse"><stop offset="0" stop-color="#eb7125"/><stop offset="1" stop-color="#e0282a"/></linearGradient><path fill="url(#SVGID_8_)" d="M1208.7 802.2c-.8 3.1-1.7 6.5-2.7 10.2l-1.3 5-1.3 4.8c-2.3 8-3.9 14-5 18-4.1 14.9-7.5 27.2-10.1 37.2l-3.6 12.8c-.4 1.6.1 2.3 1.7 2.3h25.9c1.5 0 2.5-.8 3-2.3l3.2-12.8c2.7-9.9 5.9-22.3 9.8-37.2 1.1-4 2.7-9.9 4.8-18l1.1-4.8 1.3-5c1-3.7 1.9-7.1 2.7-10.2l1.4-5.2c.6-2.4 1.1-4.7 1.3-7 .8-4.7 1-9.2.6-13.7-.7-9.1-3.5-17.1-8.5-24.1-4.7-6.9-11.3-11.9-19.6-15.4-6.8-2.9-13.6-3.5-14.3-3.6-.6-.1-6.3-.5-11.6-.2-8.9.5-17.8 3.1-26.5 7-3 1.3-6.1 3-9.4 5l3.3-12.2c.4-1.6-.2-2.3-1.7-2.3H1127c-1.6 0-2.5.8-3 2.3l-42.3 157.7c-.4 1.6.1 2.3 1.7 2.3h26.2c1.5 0 2.5-.8 3-2.3l24.4-91.1s.6-2.1.8-2.7c6.8-20 25.8-36.3 45.9-36.3 16.2 0 26.9 10.6 27.7 25.1.2 3.5-.3 7.2-1.4 11.1"/><g><path d="M1232.8 93.8c11.4-5 22.8-3.3 34.1 5.2 2.6 1.9 5.5 1.3 8.5-1.9l54.6-53.9c3.8-3.5 4.1-6.3.9-8.5-18.3-15.4-39.6-23.2-64.2-23.2-16.7 0-33.6 3.8-50.8 11.3-21.8 9.5-40.8 24-57 43.5-10.1 12.4-18.1 25.8-24.4 40.2-3.7 8.4-7 16.9-9.4 26l-14.4 53.9-46 171.6H962.8l-14.4 53.9c-2.4 9-5.7 17.6-9.4 26h104.3l-24.3 88.9c-1.1 4.1.4 6.1 4.5 6.1h67.6c4.1 0 6.7-2 7.8-6.1l23.9-89.3h64.7c4.1 0 6.7-2.1 7.8-6.2l18-67.1c1.1-4.1-.4-6.1-4.5-6.1h-64.7l60.4-225.5c5.3-19.9 14.7-32.8 28.3-38.8z" class="st2"/><linearGradient id="SVGID_9_" x1="1337.726" x2="1349.191" y1="-22.064" y2="619.947" gradientTransform="matrix(1 0 -.2679 1 -324.113 0)" gradientUnits="userSpaceOnUse"><stop offset="0" stop-color="#eb7125"/><stop offset="1" stop-color="#e0282a"/></linearGradient><path fill="url(#SVGID_9_)" d="M1030.2 106.6l24.3-88.9c1.1-4.1-.4-6.1-4.5-6.1h-67.6c-4.1 0-6.7 2-7.8 6.1L950.7 107H886c-4.1 0-6.7 2.1-7.8 6.2l-18 67.1c-1.1 4.1.4 6.1 4.5 6.1h64.7L869 411.9c-5.3 19.8-14.8 32.8-28.3 38.7-11.4 5-22.8 3.3-34.1-5.2-2.6-1.9-5.5-1.3-8.5 1.9l-54.6 53.9c-3.8 3.5-4.1 6.3-.9 8.5 18.3 15.4 39.6 23.2 64.2 23.2 16.7 0 33.6-3.8 50.8-11.3 21.8-9.5 40.8-24 57-43.5 10.1-12.4 18.1-25.8 24.4-40.2 3.7-8.4 7-16.9 9.4-26l14.4-53.9 46-171.6h101.9l14.4-53.9c2.4-9 5.7-17.6 9.4-26h-104.3z"/></g></svg>