<svg xmlns="http://www.w3.org/2000/svg" role="img" xmlns:xlink="http://www.w3.org/1999/xlink" viewBox="-15.73 -14.73 817.96 217.96"><title>UNH InterOperability Lab logo</title><g transform="translate(0 -340.659)"><path fill="#91afe5" d="m290.9 391.81a82.166 151.394 72.91 0 1 -115.993 123.897 82.166 151.394 72.91 0 1 -172.027-30.738 82.166 151.394 72.91 0 1 115.995-123.896 82.166 151.394 72.91 0 1 172.025 30.737"/><path fill="#fff" d="m275.5 387.122a72.824 140.713 73.242 0 1 -101.11 112.257 72.824 140.713 73.242 0 1 -164.215-20.374 72.824 140.713 73.242 0 1 101.111-112.258 72.824 140.713 73.242 0 1 164.214 20.375"/><path fill="#003594" d="m212.588 477.367v3.01c-11.398-.547-22.64-.602-34.007 0v-3.01c3.838-.287 7.784-.85 9.425-3.495 1.257-2.027 1.166-5.969 1.166-9.902v-54.945c0-6.858.72-15.8-1.555-20.386-1.499-3.025-5.782-3.599-9.813-3.787v-3.009c7.953-1.633 15.98-3.19 23.902-4.854h.194v73.39c0 3.852-.081 8.2.097 12.135.19 4.144-.394 8.394 1.07 11.067 1.501 2.743 5.618 3.587 9.521 3.786"/><path fill="#757c83" d="m99.006 362.622c-2.19 2.56-6.62 5.75-9.133 8.931-2.546 2.612-4.783 5.84-6.293 7.983-.292.34-1.563 2.51-1.383 3.375.296 1.427 3.842 1.721 5.538 1.941 2.465.321 4.621.341 6.801.583-2.244.495-4.63.825-6.995 1.456-1.888.505-4.994 1.175-5.247 3.107-.23 1.757 1.755 3.684 2.818 4.854 3.48 3.828 8.478 7.86 11.465 11.066-4.17-2.375-8.718-5.04-13.797-7.183-1.554-.655-5.58-2.791-6.607-.583-.665 1.427-.28 4.172-.194 5.922.284 5.934 1.811 11.019 2.623 16.309-1.386-2.11-2.439-4.553-3.886-6.601.017-.083-.039-.092-.098-.097-1.475-2.528-2.72-4.92-4.469-7.475-1.161-1.696-3.786-5.842-6.218-5.728-2.51.119-3.848 5.028-4.762 7.184-1.247 2.944-2.038 5.898-2.818 9.028.255-4.481 1.223-9.81 1.07-15.338-.045-1.603-.043-3.974-1.167-4.272-1.535-.407-3.21 1.132-4.08 1.748-1.281.907-2.2 1.717-3.4 2.427.997-1.527 2.247-2.803 3.01-4.563.609-.867 1.796-3.148.39-3.98-4.51-.729-11.37.252-16.226.873-5.092.653-10.039 1.283-14.672 1.748 7.17-1.734 15.31-3.633 22.833-5.727 1.59-.443 6.368-1.318 6.413-3.01.04-1.458-3.55-3.211-4.664-3.883-1.946-1.174-3.681-1.942-5.538-2.912 2.292-.302 10.406 2.815 11.174-.486.365-1.57-.986-3.91-1.652-5.242-2.266-4.537-5.465-8.987-7.87-12.814 2.347 1.792 4.802 4.181 7.578 6.407 2.355 1.888 5.746 4.719 8.94 5.145 4.043.539 4.339-4.214 4.955-7.28 1.53-7.624 2.298-15.632 2.72-24.173.786 8.464 1.862 17.36 3.692 25.046.593 2.488 1.273 6.676 4.081 6.893 2.171.166 4.987-1.47 6.801-2.136 6.639-2.437 12.985-5.268 18.267-8.543"/><path fill="#003594" d="m85.306 477.367v3.01c-11.26-.628-22.55-.529-33.812 0v-3.01c3.226-.361 7.456-.457 9.22-3.688 1.855-4.289 1.002-9.098 1.176-13.637-.005-10.444 0-20.889.019-31.33-.057-2.488-.295-5.678-3.006-6.717-2.533-1.11-5.387-1.03-8.09-.835v-3.01c7.96-1.474 15.921-3.05 23.883-4.446.03 15.626.04 31.264-.006 46.894.033 4.29-.758 8.892 1.105 12.918 1.92 3.21 6.152 3.622 9.511 3.85"/><ellipse cx="66.604" cy="386.159" fill="#fff" rx="15.042" ry="13.333"/><path fill="#003594" d="m65.776 379.805c9.409-1.165 9.129 12.465.972 12.523-3.154.022-6.337-2.314-6.316-6.31.02-3.477 2.417-5.851 5.344-6.213"/><path fill="#757c83" d="m237.744 500.133v-4.648h1.598c.546 0 .941.044 1.186.132.244.084.439.233.584.446.145.214.218.441.218.681 0 .34-.123.636-.367.888-.24.251-.561.393-.962.423.164.069.296.15.395.246.187.183.416.49.687.922l.567.91h-.916l-.413-.733c-.324-.576-.586-.937-.784-1.082-.138-.106-.338-.16-.602-.16h-.441v1.975zm.75-2.616h.91c.436 0 .732-.065.889-.194a.63.63 0 0 0 .24-.516.614.614 0 0 0 -.114-.366.675.675 0 0 0 -.321-.246c-.134-.054-.384-.08-.75-.08h-.854z"/><path fill="#003594" d="m343.91 357.179v1.98h-3.21v11.22c0 .84.06 1.67.18 2.49.12.8.45 1.55.99 2.25.48.64 1.07 1.09 1.77 1.35.72.26 1.46.39 2.22.39.9 0 1.75-.2 2.55-.6.82-.42 1.45-1.03 1.89-1.83s.69-1.59.75-2.37c.08-.8.12-1.64.12-2.52v-10.38h-3.15v-1.98h8.13v1.98h-2.67v11.01c0 .84-.03 1.62-.09 2.34s-.26 1.46-.6 2.22c-.14.3-.32.62-.54.96-.22.32-.47.63-.75.93-.26.3-.54.58-.84.84-.3.24-.59.43-.87.57-.62.32-1.29.56-2.01.72-.7.16-1.39.24-2.07.24-1.14 0-2.25-.21-3.33-.63a6.577 6.577 0 0 1 -2.7-2.01c-.38-.46-.68-.92-.9-1.38-.22-.48-.38-.96-.48-1.44-.1-.5-.17-1.01-.21-1.53-.02-.52-.03-1.07-.03-1.65v-11.19h-2.64v-1.98z"/><path id="a" fill="#003594" d="m363.47 365.819c.4-1.14.97-1.97 1.71-2.49.76-.54 1.77-.81 3.03-.81 1.2 0 2.19.27 2.97.81.8.52 1.39 1.35 1.77 2.49.06.34.09.68.09 1.02.02.32.03.65.03.99v8.94h2.46v1.89h-7.35v-1.89h2.46v-8.1c0-.54-.04-1.06-.12-1.56-.08-.52-.23-.98-.45-1.38s-.53-.72-.93-.96-.93-.36-1.59-.36c-.46 0-.84.03-1.14.09-.28.04-.61.19-.99.45-.34.22-.61.45-.81.69-.18.24-.35.52-.51.84-.32.62-.51 1.28-.57 1.98-.04.68-.06 1.36-.06 2.04v6.27h2.46v1.89h-7.5v-1.89h2.61v-12h-2.55v-1.77h4.98z"/><path id="b" fill="#003594" d="m385.42 378.659h-7.38v-1.89h2.52v-12h-2.49v-1.77h4.92v13.77h2.43zm-2.25-21.48v2.52h-2.79v-2.52z"/><path fill="#003594" d="m387.376 362.999h6.66v1.77h-2.49l3.66 11.82h.21l3.72-11.82h-2.49v-1.77h6.51v1.77h-1.59l-4.74 13.89h-3.09l-4.8-13.89h-1.56z"/><path id="c" fill="#003594" d="m420.225 371.309h-11.55c.04.76.15 1.5.33 2.22s.53 1.38 1.05 1.98c.52.64 1.06 1.06 1.62 1.26.58.18 1.28.27 2.1.27.48 0 .94-.08 1.38-.24.44-.18.84-.41 1.2-.69.36-.3.66-.65.9-1.05s.39-.83.45-1.29h2.31c-.14.84-.41 1.58-.81 2.22s-.89 1.18-1.47 1.62c-.58.42-1.25.74-2.01.96-.74.2-1.53.3-2.37.3-1.28 0-2.38-.2-3.3-.6-.9-.4-1.64-.96-2.22-1.68s-1.01-1.57-1.29-2.55c-.26-.98-.39-2.06-.39-3.24 0-.84.09-1.68.27-2.52.18-.86.48-1.66.9-2.4.6-1.08 1.45-1.91 2.55-2.49 1.12-.58 2.3-.87 3.54-.87.72 0 1.47.12 2.25.36.78.22 1.45.56 2.01 1.02.62.52 1.1 1.11 1.44 1.77.36.64.62 1.34.78 2.1.12.58.2 1.1.24 1.56.06.46.09.98.09 1.56zm-2.58-1.8c0-.62-.09-1.24-.27-1.86s-.45-1.17-.81-1.65c-.36-.5-.81-.9-1.35-1.2-.52-.32-1.14-.48-1.86-.48s-1.36.15-1.92.45c-.54.3-1 .7-1.38 1.2-.38.48-.68 1.03-.9 1.65-.2.62-.32 1.25-.36 1.89z"/><path id="d" fill="#003594" d="m428.174 366.119c.24-.66.48-1.21.72-1.65.26-.44.57-.78.93-1.02.36-.26.78-.44 1.26-.54.5-.12 1.11-.18 1.83-.18h.63v2.25a4.63 4.63 0 0 0 -1.02-.12c-.9 0-1.63.17-2.19.51s-1 .79-1.32 1.35c-.32.54-.54 1.17-.66 1.89s-.18 1.45-.18 2.19v5.97h2.97v1.89h-7.89v-1.89h2.49v-12h-2.49v-1.77h4.92z"/><path id="e" fill="#003594" d="m446.234 368.039c-.04-.82-.2-1.52-.48-2.1-.28-.6-.85-1.04-1.71-1.32-.22-.08-.47-.14-.75-.18-.26-.06-.52-.09-.78-.09-.44 0-.86.06-1.26.18-.4.1-.76.26-1.08.48-.3.22-.54.51-.72.87s-.27.78-.27 1.26c0 .22.05.48.15.78.12.28.28.49.48.63.42.28.89.47 1.41.57s1.03.2 1.53.3c.7.12 1.38.27 2.04.45.66.16 1.25.4 1.77.72s.94.75 1.26 1.29c.32.52.48 1.2.48 2.04 0 .36-.02.75-.06 1.17-.02.4-.14.76-.36 1.08a7.25 7.25 0 0 1 -1.83 1.92c-.74.52-1.7.78-2.88.78-.6 0-1.13-.05-1.59-.15a4.25 4.25 0 0 1 -1.26-.42c-.36-.22-.69-.5-.99-.84s-.6-.77-.9-1.29v2.49h-1.89v-5.4h1.89c.08.5.22 1.02.42 1.56s.54.99 1.02 1.35c.42.32.85.55 1.29.69.44.12.92.18 1.44.18.88 0 1.63-.24 2.25-.72.62-.5.93-1.21.93-2.13 0-.56-.13-1-.39-1.32s-.59-.56-.99-.72-.84-.27-1.32-.33c-.46-.08-.9-.15-1.32-.21-.68-.1-1.32-.23-1.92-.39-.6-.18-1.13-.43-1.59-.75-.46-.34-.83-.76-1.11-1.26-.26-.52-.39-1.18-.39-1.98 0-.44.04-.91.12-1.41s.27-.92.57-1.26c.68-.74 1.4-1.26 2.16-1.56.78-.32 1.65-.48 2.61-.48.8 0 1.56.16 2.28.48.74.32 1.32.84 1.74 1.56v-1.56h1.89v5.04z"/><path id="f" fill="#003594" d="m466.23 362.999h4.5v1.77h-4.5v10.14c0 .26.02.52.06.78.04.24.12.47.24.69.12.2.28.37.48.51.2.12.46.18.78.18.38 0 .68-.11.9-.33.22-.24.37-.53.45-.87.1-.34.16-.69.18-1.05s.03-.68.03-.96h1.95v.57c0 .18-.01.37-.03.57-.04.74-.21 1.45-.51 2.13-.3.66-.82 1.15-1.56 1.47-.28.06-.55.12-.81.18s-.53.09-.81.09-.53-.02-.75-.06c-.2-.04-.44-.08-.72-.12-.5-.1-.92-.33-1.26-.69s-.6-.77-.78-1.23c-.06-.16-.11-.36-.15-.6a10.346 10.346 0 0 1 -.12-1.56v-9.84h-2.7v-1.77h2.7v-3.06l2.43-.9z"/><path id="g" fill="#003594" d="m480.165 362.999v1.77h-2.43l3.84 10.98 3.72-10.98h-2.46v-1.77h6.42v1.77h-1.38l-5.16 14.04c-.16.4-.32.78-.48 1.14-.14.38-.3.77-.48 1.17s-.4.79-.66 1.17c-.24.38-.56.69-.96.93-.34.22-.73.38-1.17.48-.42.12-.83.18-1.23.18-.32 0-.64-.03-.96-.09-.3-.04-.61-.08-.93-.12v-1.98c.56.14 1.16.21 1.8.21.4 0 .74-.11 1.02-.33.3-.22.54-.49.72-.81.2-.32.36-.67.48-1.05.14-.38.26-.72.36-1.02l-5.25-13.92h-1.5v-1.77z"/><path id="h" fill="#003594" d="m503.674 370.649c0 .72.06 1.48.18 2.28.14.8.44 1.5.9 2.1.42.6.94 1.09 1.56 1.47.62.36 1.31.54 2.07.54s1.49-.23 2.19-.69 1.22-1.02 1.56-1.68c.34-.62.57-1.28.69-1.98.12-.72.18-1.43.18-2.13 0-.74-.07-1.47-.21-2.19a5.74 5.74 0 0 0 -.75-1.98c-.36-.6-.84-1.08-1.44-1.44-.58-.38-1.32-.57-2.22-.57-.86 0-1.61.2-2.25.6-.62.38-1.15.92-1.59 1.62-.34.58-.57 1.24-.69 1.98s-.18 1.43-.18 2.07m-2.58-.03c0-1.08.14-2.11.42-3.09.28-1 .79-1.91 1.53-2.73a6.3 6.3 0 0 1 2.46-1.71c.96-.38 1.97-.57 3.03-.57 1.22 0 2.28.22 3.18.66s1.64 1.04 2.22 1.8c.58.74 1.01 1.61 1.29 2.61s.42 2.05.42 3.15-.15 2.14-.45 3.12-.76 1.84-1.38 2.58c-.6.74-1.35 1.33-2.25 1.77s-1.95.66-3.15.66c-1.18 0-2.24-.19-3.18-.57-.92-.4-1.73-1.09-2.43-2.07-.6-.86-1.04-1.75-1.32-2.67-.26-.92-.39-1.9-.39-2.94"/><path fill="#003594" d="m518.314 378.659v-1.89h2.64v-11.97h-2.76v-1.8h2.76v-.81-1.17c0-.38.03-.74.09-1.08.08-.36.2-.7.36-1.02.16-.34.4-.66.72-.96.52-.52 1.09-.85 1.71-.99.62-.16 1.28-.24 1.98-.24.82 0 1.64.09 2.46.27v2.04c-.38-.06-.75-.11-1.11-.15-.36-.06-.73-.09-1.11-.09-.42 0-.85.07-1.29.21-.42.12-.75.37-.99.75-.22.36-.34.8-.36 1.32-.02.5-.03.95-.03 1.35v.57h3.33v1.8h-3.33v11.97h2.97v1.89zm20.579 0v-1.98h3.03v-17.52h-3.03v-1.98h6.9l9.48 18.69v-16.71h-3v-1.98h8.28v1.98h-2.94v19.5h-3.63l-9.78-19.23v17.25h3.09v1.98zm41.6-15.66h6.99v1.77h-2.61l3 11.67h.21l3.69-13.44h3.42l3.75 13.44h.21l2.94-11.67h-2.61v-1.77h6.81v1.77h-1.77l-4.02 13.89h-3.21l-3.75-13.71h-.21l-3.81 13.71h-3.21l-4.05-13.89h-1.77zm37.46 15.66v-1.98h3v-17.52h-3v-1.98h8.61v1.98h-3v7.59h10.26v-7.59h-3.03v-1.98h8.64v1.98h-3v17.52h3v1.98h-8.64v-1.98h3.03v-7.8h-10.26v7.8h3v1.98z"/><path id="i" fill="#003594" d="m652.834 375.569c-.52 1.18-1.19 2.03-2.01 2.55-.8.5-1.84.75-3.12.75-.56 0-1.1-.06-1.62-.18s-1-.31-1.44-.57c-.42-.28-.79-.63-1.11-1.05s-.55-.92-.69-1.5c-.1-.38-.15-.69-.15-.93v-.54c0-.88.16-1.62.48-2.22.34-.62.78-1.12 1.32-1.5.56-.4 1.2-.69 1.92-.87s1.47-.27 2.25-.27h.84c.3-.02.59-.03.87-.03h2.46v-1.44c-.04-.56-.12-1.03-.24-1.41s-.39-.78-.81-1.2a2.62 2.62 0 0 0 -1.08-.63c-.42-.14-.83-.21-1.23-.21-.66 0-1.23.07-1.71.21s-.95.49-1.41 1.05c-.22.26-.37.56-.45.9-.06.32-.11.64-.15.96h-2.52c.06-1.14.37-2.1.93-2.88s1.38-1.35 2.46-1.71c.44-.16.88-.25 1.32-.27.44-.04.89-.06 1.35-.06.84 0 1.6.1 2.28.3.68.18 1.35.53 2.01 1.05.64.5 1.05 1.09 1.23 1.77.18.66.27 1.37.27 2.13v9h2.49v1.89h-4.74zm-7.56-1.41c0 .86.23 1.57.69 2.13.46.54 1.14.81 2.04.81s1.65-.17 2.25-.51c.62-.34 1.11-.79 1.47-1.35.38-.56.65-1.2.81-1.92.18-.74.28-1.49.3-2.25-.38-.06-.78-.09-1.2-.09-.42-.02-.82-.03-1.2-.03-.6 0-1.21.02-1.83.06-.6.04-1.15.17-1.65.39-.48.2-.88.52-1.2.96-.32.42-.48 1.02-.48 1.8"/><path fill="#003594" d="m664.923 365.819c.24-1.02.76-1.82 1.56-2.4.8-.6 1.74-.9 2.82-.9 1.2 0 2.17.3 2.91.9.76.58 1.28 1.38 1.56 2.4.22-1.02.75-1.82 1.59-2.4.86-.6 1.8-.9 2.82-.9 1.22 0 2.26.31 3.12.93.88.6 1.41 1.39 1.59 2.37.1.56.16 1.03.18 1.41.02.36.03.71.03 1.05v8.49h2.28v1.89h-7.17v-1.89h2.46v-7.83c0-.54-.02-1.08-.06-1.62a3.63 3.63 0 0 0 -.33-1.44c-.18-.44-.48-.79-.9-1.05-.4-.28-.97-.42-1.71-.42s-1.39.21-1.95.63c-.54.4-.96.92-1.26 1.56-.22.52-.35 1.11-.39 1.77-.04.64-.06 1.25-.06 1.83v6.57h2.43v1.89h-7.29v-1.89h2.43v-7.83c0-.54-.02-1.08-.06-1.62a3.63 3.63 0 0 0 -.33-1.44c-.18-.44-.48-.79-.9-1.05-.4-.28-.97-.42-1.71-.42-.72 0-1.36.21-1.92.63-.54.4-.96.92-1.26 1.56-.24.52-.38 1.11-.42 1.77-.04.64-.06 1.25-.06 1.83v6.57h2.46v1.89h-7.44v-1.89h2.55v-12h-2.55v-1.77h4.98z"/><path id="j" fill="#003594" d="m692.253 366.059c.58-1.2 1.29-2.09 2.13-2.67s1.94-.87 3.3-.87c.64 0 1.21.07 1.71.21.52.12.99.33 1.41.63.44.28.84.65 1.2 1.11.38.44.75.97 1.11 1.59.36.64.59 1.37.69 2.19.1.8.15 1.6.15 2.4 0 .92-.1 1.89-.3 2.91-.18 1.02-.56 1.91-1.14 2.67-.64.84-1.34 1.49-2.1 1.95s-1.68.69-2.76.69c-1.2 0-2.26-.24-3.18-.72s-1.66-1.28-2.22-2.4v5.97h2.52v1.8h-7.47v-1.8h2.52v-16.95h-2.46v-1.77h4.89zm4.77-1.71c-1.7 0-2.98.74-3.84 2.22-.4.64-.66 1.3-.78 1.98-.1.66-.15 1.36-.15 2.1 0 .76.06 1.52.18 2.28.14.74.41 1.43.81 2.07s.9 1.15 1.5 1.53c.62.36 1.31.54 2.07.54.84 0 1.55-.18 2.13-.54.6-.38 1.08-.86 1.44-1.44.38-.6.65-1.26.81-1.98.18-.74.27-1.47.27-2.19 0-.78-.07-1.56-.21-2.34s-.41-1.52-.81-2.22c-.34-.62-.82-1.11-1.44-1.47a3.88 3.88 0 0 0 -1.98-.54"/><path fill="#003594" d="M722.913 378.659v-1.89h2.52v-17.82h-2.52v-1.77h4.95v7.89c1.24-1.7 2.86-2.55 4.86-2.55.7 0 1.4.13 2.1.39.72.24 1.31.64 1.77 1.2.48.58.77 1.19.87 1.83.1.62.15 1.29.15 2.01v8.82h2.58v1.89h-7.59v-1.89h2.58v-8.04c0-.38-.01-.77-.03-1.17 0-.42-.05-.81-.15-1.17-.1-.38-.27-.73-.51-1.05-.22-.32-.54-.57-.96-.75-.24-.1-.45-.17-.63-.21a3.27 3.27 0 0 0-.69-.06c-.44 0-.83.04-1.17.12-.34.06-.69.2-1.05.42-.5.28-.89.62-1.17 1.02-.28.38-.49.8-.63 1.26-.14.44-.23.91-.27 1.41-.04.48-.06.96-.06 1.44v6.78h2.58v1.89zM335.479 397.699h17.28v3.96h-6.06v35.04h6.06v3.96h-17.28v-3.96h6v-35.04h-6zm157.966 43.68c-3.28 0-6.18-.54-8.7-1.62-2.52-1.12-4.64-2.64-6.36-4.56s-3.04-4.2-3.96-6.84c-.88-2.64-1.32-5.5-1.32-8.58 0-3.04.34-5.92 1.02-8.64s2.02-5.28 4.02-7.68c1.88-2.28 4.14-3.92 6.78-4.92s5.42-1.5 8.34-1.5c3 0 5.78.52 8.34 1.56s4.8 2.74 6.72 5.1c1.88 2.28 3.12 4.76 3.72 7.44s.9 5.46.9 8.34c0 1.6-.08 3.04-.24 4.32-.16 1.24-.48 2.62-.96 4.14-.44 1.28-.96 2.54-1.56 3.78a17.19 17.19 0 0 1-2.04 3.42c-1.8 2.2-4 3.8-6.6 4.8-2.6.96-5.3 1.44-8.1 1.44m-.36-40.44c-2.64 0-4.86.54-6.66 1.62-1.8 1.04-3.26 2.42-4.38 4.14-1.12 1.68-1.94 3.62-2.46 5.82-.48 2.16-.72 4.36-.72 6.6 0 1.04.04 2.12.12 3.24s.24 2.24.48 3.36.56 2.2.96 3.24.92 1.98 1.56 2.82c2.76 3.8 6.56 5.7 11.4 5.7 4.68 0 8.34-2.02 10.98-6.06 1.12-1.8 1.88-3.76 2.28-5.88.44-2.16.66-4.26.66-6.3 0-2.24-.24-4.46-.72-6.66s-1.28-4.16-2.4-5.88-2.6-3.1-4.44-4.14c-1.8-1.08-4.02-1.62-6.66-1.62"/><path id="k" fill="#003594" d="m654.222 414.799c.48-.96 1.08-1.82 1.8-2.58.72-.8 1.52-1.48 2.4-2.04.92-.6 1.88-1.04 2.88-1.32 1.04-.32 2.08-.48 3.12-.48 2.32 0 4.3.44 5.94 1.32 1.68.88 3.06 2.06 4.14 3.54s1.86 3.2 2.34 5.16c.52 1.92.78 3.92.78 6 0 .84-.02 1.68-.06 2.52s-.14 1.7-.3 2.58c-.16.84-.4 1.74-.72 2.7-.32.92-.76 1.92-1.32 3-.96 1.84-2.46 3.28-4.5 4.32s-4.3 1.56-6.78 1.56c-2.04 0-3.96-.5-5.76-1.5-1.76-1.04-3.06-2.5-3.9-4.38l-.06-.72v6.18h-9.84v-3.78h4.98v-35.64h-4.92v-3.54h9.78zm9.06 22.44c1.68 0 3.1-.34 4.26-1.02a9.485 9.485 0 0 0 2.88-2.76c.76-1.12 1.3-2.38 1.62-3.78.36-1.44.54-2.88.54-4.32 0-1.48-.14-3-.42-4.56s-.78-2.98-1.5-4.26a8.465 8.465 0 0 0 -2.82-3.12c-1.16-.84-2.64-1.26-4.44-1.26-1.2 0-2.32.26-3.36.78-1 .48-1.92 1.14-2.76 1.98-.88.88-1.5 1.72-1.86 2.52-.32.8-.64 1.78-.96 2.94-.2.68-.32 1.4-.36 2.16-.04.72-.06 1.42-.06 2.1 0 1.6.12 3.12.36 4.56.24 1.4.76 2.8 1.56 4.2s1.82 2.4 3.06 3c1.28.56 2.7.84 4.26.84"/><path fill="#003594" d="m698.875 440.659v-3.78h4.98v-35.64h-4.98v-3.54h9.84v39.18h4.8v3.78zm-363.366 61v-3.96h6.18v-35.04h-6.18v-3.96h18.6v3.96h-7.2v34.68h16.32v-9.72h4.86v14.04z"/><use width="100%" height="100%" transform="translate(-358.057 -313.44) scale(1.99133)" xlink:href="#a"/><use width="100%" height="100%" transform="translate(73.965)" xlink:href="#b"/><use width="100%" height="100%" transform="translate(364.363)" xlink:href="#b"/><use id="l" width="100%" height="100%" transform="translate(-75.58 -318.019) scale(2.00359)" xlink:href="#b"/><use width="100%" height="100%" transform="translate(34.5)" xlink:href="#l"/><use id="m" width="100%" height="100%" transform="translate(157.719)" xlink:href="#c"/><use width="100%" height="100%" transform="translate(201.605)" xlink:href="#m"/><use id="n" width="100%" height="100%" transform="translate(-401.98 -321.98) scale(2.01403)" xlink:href="#c"/><use width="100%" height="100%" transform="translate(139.875)" xlink:href="#n"/><use width="100%" height="100%" transform="translate(328.965)" xlink:href="#d"/><use id="o" width="100%" height="100%" transform="translate(-396.762 -315.341) scale(1.99655)" xlink:href="#d"/><use width="100%" height="100%" transform="translate(140)" xlink:href="#o"/><use id="p" width="100%" height="100%" transform="translate(27.518 60.947)" xlink:href="#o"/><use width="100%" height="100%" transform="translate(112.25)" xlink:href="#p"/><use width="100%" height="100%" transform="translate(271.059)" xlink:href="#e"/><use id="q" width="100%" height="100%" transform="translate(-529.153 -315.145) scale(1.99597)" xlink:href="#f"/><use id="r" width="100%" height="100%" transform="translate(341.25)" xlink:href="#q"/><use width="100%" height="100%" transform="translate(-201.34 60.995)" xlink:href="#r"/><use id="s" width="100%" height="100%" transform="translate(-194.663 -318.84) scale(2.00575)" xlink:href="#g"/><use width="100%" height="100%" transform="translate(-143.586 61.022)" xlink:href="#s"/><use id="t" width="100%" height="100%" transform="translate(-556.322 -253.268) scale(1.99388)" xlink:href="#h"/><use width="100%" height="100%" transform="translate(112.125)" xlink:href="#t"/><use id="u" width="100%" height="100%" transform="translate(-678.167 -319.567) scale(2.00806)" xlink:href="#i"/><use id="v" width="100%" height="100%" transform="translate(-239.337 60.931)" xlink:href="#u"/><use width="100%" height="100%" transform="translate(126.75)" xlink:href="#v"/><use width="100%" height="100%" transform="translate(-861.207 -318.857) scale(2.00595)" xlink:href="#j"/><use width="100%" height="100%" transform="translate(-239.275 61)" xlink:href="#k"/><circle cx="239.542" cy="497.867" r="3.925" fill="none" stroke="#757c83" stroke-width=".8"/><ellipse cx="131.771" cy="447.768" fill="#003594" rx="36.409" ry="34.154"/><path fill="#fff" d="m132.624 478.532c15.685-.197 20.902-14.771 20.501-31.453-.393-16.348-5.628-30.17-22.153-29.997-15.74.165-20.944 15.738-20.501 31.647.474 17.03 6.41 30.001 22.153 29.803"/></g></svg>