<svg xmlns="http://www.w3.org/2000/svg" role="img" xmlns:xlink="http://www.w3.org/1999/xlink" viewBox="-3.57 57.18 406.64 130.14"><title>XG Vela logo</title><defs><linearGradient id="b" x1="29.99" x2="59.5" y1="116.75" y2="157.89" gradientUnits="userSpaceOnUse"><stop offset="0" stop-color="#6dc2eb"/><stop offset="1" stop-color="#33b0ce"/></linearGradient><linearGradient id="a" x1="107.35" x2="17.01" y1="173.03" y2="70.56" gradientUnits="userSpaceOnUse"><stop offset="0" stop-color="#128dce"/><stop offset=".54" stop-color="#2aa1dc"/><stop offset="1" stop-color="#33b0ce"/></linearGradient><linearGradient id="c" x1="104.41" x2="14.07" y1="175.62" y2="73.15" xlink:href="#a"/><linearGradient id="d" x1="103.69" x2="13.35" y1="176.25" y2="73.78" xlink:href="#a"/></defs><path fill="#049eda" d="M201.49 92.86a13.64 13.64 0 0 1 8.19 2.92 17 17 0 0 1 5.68 7.45 15.06 15.06 0 0 1 .65 9.53 28.52 28.52 0 0 1-4.74-1l.12-1.51a12 12 0 0 0-3.5-9.44 13.78 13.78 0 0 0-6.75-3.29 18.73 18.73 0 0 1 .35-4.67z"/><path fill="#069ed8" d="M200.89 102.16c1.88.32 3.6.7 5 2.14a8 8 0 0 1 2.07 6.87 32.36 32.36 0 0 1-3.76-.72 8.74 8.74 0 0 0-.75-2.63 8.28 8.28 0 0 0-2.64-1.87c0-1.27 0-2.53.11-3.79z"/><path fill="#1f1a17" d="M165 105.38a39.67 39.67 0 0 1 6.63.13 9.66 9.66 0 0 1 2.14 2.72c2.19 3.52 4.49 7 6.7 10.48a27.41 27.41 0 0 0 2.86 4c1.82-2.23 3.28-4.82 4.88-7.22 1.28-2 2.64-4.27 4.52-5.7a6.74 6.74 0 0 1 5.85-1.17 4 4 0 0 1 2.79 5 5.57 5.57 0 0 1-1.73 1.54c-1.67 1.14-2.93 3-4.18 4.61-2.09 2.78-4.17 5.59-6.2 8.43-.25.47-.85 1-.5 1.55a25.08 25.08 0 0 0 2.16 3.28c3.06 4.24 6.09 8.5 9.14 12.74.62 1 1.52 2 1.46 3.2v4.29a28.13 28.13 0 0 1-6.42.19c-1.38-1-2.27-2.81-3.25-4.19-2.89-4.23-5.52-8.65-8.52-12.8a33.4 33.4 0 0 0-2.23 2.94c-5.55 8-10.9 16.13-16.35 24.19-.54.66-.85 1.43-1.84 1.4-3.48.15-6.68.39-9.9-1.19.17-1.78 1.47-3 2.47-4.36 6.91-9.17 13.88-18.29 20.77-27.47a12 12 0 0 0 1.56-2.43 5.93 5.93 0 0 0-1.15-2.35c-3.41-4.84-7-9.59-10.41-14.41A5.4 5.4 0 0 1 165 110v-4.59zm69.27 3.8c3.24-.22 6.29-.37 9.34.91 3.69 1.44 6.77 4 8 7.86-.21.78-1.09 1.41-1.66 1.93a37.81 37.81 0 0 1-4.37 3.52c-.82-1.25-1.62-2.5-2.53-3.69a8.93 8.93 0 0 0-5.2-3.36 13.28 13.28 0 0 0-7.86 1.14c-2.66 1.2-4.45 3.17-6.41 5.25a21.8 21.8 0 0 0-4 7.68 22.06 22.06 0 0 0-.54 7.69 10.34 10.34 0 0 0 5.7 8c1.83.89 4.19.58 6.19.59a22.11 22.11 0 0 0 9-2.95c.5-2.67.91-5.35 1.5-8 .2-.69.24-1.4.89-1.81 1.32-.12 2.63.3 4 .24s2.43-.11 3.65-.1a48.76 48.76 0 0 1-1.34 5.62c-.77 3.26-1.79 6.42-2.29 9.75a6.53 6.53 0 0 1-.77 2.64c-1.72.15-3.35-.53-5.1-.34-3.44.41-6.83 1.36-10.28 1.79-1.77.11-3.41.52-5.19.16a14.28 14.28 0 0 1-9.54-4.16 16.49 16.49 0 0 1-4.4-9.46c-.54-2.61 0-5 .42-7.57a31.26 31.26 0 0 1 8.34-15.85c4-3.92 8.85-6.83 14.51-7.52zm38.85.92c2.59-.16 5.23 0 7.83-.07-.15 1.91-.64 3.75-.85 5.65a33.78 33.78 0 0 0-.13 4.5 42.73 42.73 0 0 0 .16 5.55 67.32 67.32 0 0 0 2.19 11.35 44.28 44.28 0 0 0 2.2 6.9 80.67 80.67 0 0 0 5.52-6.69c3-3.89 6-7.61 7.94-12.18 2-4.91 2.89-10 4.12-15 2.67-.08 5.35 0 8 0-.49 2.84-1.35 5.53-2.06 8.32a49.64 49.64 0 0 1-2.05 6.06 58.85 58.85 0 0 1-7.77 12.64c-3.42 4.49-6.91 8.93-10.34 13.41-1 1-1.59 2.71-3.26 2.47-1.78 0-3.58.08-5.35-.05a5.09 5.09 0 0 1-1-2.19c-2.42-8.91-5.48-16.82-6.19-26.15-.05-1.22-.17-2.43-.29-3.65a46.51 46.51 0 0 1 .32-6.2 14.94 14.94 0 0 1 1-4.62zm79.01.01c2.56-.18 5.16 0 7.73-.06-.61 2.25-1.36 4.46-1.92 6.73-2.72 9.19-4.72 18.44-6.84 27.76a78.28 78.28 0 0 1-2 8.29 47.68 47.68 0 0 1-6.55.08c.7-3.74 1.8-7.34 2.6-11.06.77-3.2 1.59-6.39 2.34-9.6 1.87-7.3 2.83-14.84 4.67-22.14zM335.74 125a10.84 10.84 0 0 0-7.25-2.77 17.65 17.65 0 0 0-12.27 5.45 20.43 20.43 0 0 0-6 10.09 15.92 15.92 0 0 0-.09 8.84 10 10 0 0 0 7 6.52c2.37.74 4.58.5 7 .5a18.8 18.8 0 0 0 11.11-5.33 25.31 25.31 0 0 0-1.17-4.34 53.62 53.62 0 0 1-4.78 2.58 14.84 14.84 0 0 1-7.72 1.18 6.38 6.38 0 0 1-5.5-6.4c3.4-.13 6.78-.56 10.18-.79 3-.34 6.15-.45 9.15-1 2.11-.5 3-2.36 3.23-4.35a11.49 11.49 0 0 0-2.89-10.18zm-4.1 9.84a30.76 30.76 0 0 1-6.09 1 45.15 45.15 0 0 1-8.3.23 9 9 0 0 1 2.06-4.21c1.77-2.08 4.52-4 7.35-3.82a5.33 5.33 0 0 1 4.6 2.88c.62 1.08.37 2.67.38 3.89zm56.77-11.41c-4.16-.8-8.79-1.39-13-.54a18.9 18.9 0 0 0-11.42 8 23.35 23.35 0 0 0-3.86 10.88c-.07 3.8 1.44 7.88 4.59 10.17 2.47 1.8 5.38 2 8.33 1.59a29.33 29.33 0 0 0 7.24-3c.64-.25 1-.8 1.66-.25.08 1 0 2.07.07 3.11a36.4 36.4 0 0 0 6.08-.49c.58-.51.57-1.56.75-2.27.47-3.54 1.38-7 2-10.47.49-2.56 1.31-5 1.94-7.52s1.87-5 2.58-7.63c-2.24-1.01-4.58-1.1-6.96-1.58zm-9.8 22.76a9 9 0 0 1-6.61 1 6.94 6.94 0 0 1-4.6-7.29 12.87 12.87 0 0 1 8.76-11.07 7.06 7.06 0 0 1 5.21.23c2.43 1 3.72 4 3.67 6.47a13.07 13.07 0 0 1-6.43 10.66z"/><path fill="#2fabe1" d="M101.15 125.86c-.35-1.69-.53-3.41-1-5.09a32.51 32.51 0 0 0-2.18-5.7 50 50 0 0 0-11-14.18 80.52 80.52 0 0 0-13.93-10 67.51 67.51 0 0 0-13.72-6.07 25.31 25.31 0 0 0-8.72-1.32 2.29 2.29 0 0 0-2 1.14 4.18 4.18 0 0 0 .4 2.75 41 41 0 0 0 2.66 4.92c1.81 2.81 3.73 5.55 5.42 8.44a79.12 79.12 0 0 1 8.4 21.83 34 34 0 0 1 .62 3.42l-.38.21h.52c.09 1.46.81 2.7.73 4.18.13 1.44.43 2.84.53 4.28.18 2.1.5 4.17.55 6.28.14 1.13.13 2.26.18 3.4.24 1.73 0 3.45.17 5.19s0 3.07.52 4.62a2.1 2.1 0 0 0 1.68 1.66 9.52 9.52 0 0 0 3.81-.75c1.77-.56 3.47-1.28 5.18-2 1.39-.53 2.77-1 4.1-1.71a37.37 37.37 0 0 0 12-8.13 22.2 22.2 0 0 0 4-6.11 24 24 0 0 0 1.46-11.26z"/><path fill="url(#b)" d="M62.93 141.65a14.36 14.36 0 0 0-.38-1.7 24.7 24.7 0 0 0-2.34-6.14 17.42 17.42 0 0 0-1.63-2.68 14.44 14.44 0 0 0-1.13-1.78 20.07 20.07 0 0 0-2.67-3.07 20.1 20.1 0 0 0-2.81-2.8 25.29 25.29 0 0 0-3.12-2.23 22.29 22.29 0 0 0-10.67-3.7 2.41 2.41 0 0 0-2.54 1.12 5.17 5.17 0 0 0 .41 3.26 41 41 0 0 0 2.81 5.67c.49 1.17 1.12 2.27 1.57 3.46a37.17 37.17 0 0 1 1.08 3.74c0 1.06.26 2.08.36 3.13.07.71.17 1.41.28 2.12 0 1.59.05 3.2 0 4.79-.3 1.35-.32 2.72-.63 4.06-.18.75-.35 1.5-.5 2.25a12 12 0 0 0-.27 5.09A5.19 5.19 0 0 0 43 160a7.18 7.18 0 0 0 4.21 1.14 23.35 23.35 0 0 0 8-1.26c2.19-.63 4.64-1.43 6.09-3.31a9.24 9.24 0 0 0 1.66-4.8 43.6 43.6 0 0 0 .2-5.71 20.09 20.09 0 0 0-.23-4.41z"/><path fill="url(#a)" d="M99.3 163.06a59.54 59.54 0 0 0 12.87-14c1.06-1.57 1.94-3.23 2.86-4.88a14 14 0 0 0 1.77-6.78 7.27 7.27 0 0 0-.94-3.62 9 9 0 0 0-3-3.07 33.83 33.83 0 0 0-6.16-3c-1.84-.66-3.61-1.38-5.51-1.87a24 24 0 0 1-1.45 11.33 8.19 8.19 0 0 1 .79 6.54 17.66 17.66 0 0 1-2.81 5.3A47.38 47.38 0 0 1 84.58 161a45.87 45.87 0 0 1-20.08 6.74c-1 .15-2 .1-3.08.19a16.58 16.58 0 0 1-3.15 0 43 43 0 0 1-7.15-.79 47.14 47.14 0 0 1-15.06-5.71 53.34 53.34 0 0 1-6.06-4.32 50.51 50.51 0 0 1-5.09-4.94 62.15 62.15 0 0 1-4.91-6.44 55.1 55.1 0 0 1-3.4-6.73 45.38 45.38 0 0 1-2.21-6.61 48.84 48.84 0 0 1-1.2-7 65.45 65.45 0 0 1-.16-7.54 66.27 66.27 0 0 1 1-6.9c.28-1.26.67-2.5.95-3.76a50.75 50.75 0 0 1 4.15-9.5A38 38 0 0 1 22 93.3c1-1.44 2.19-2.81 3.36-4.14a56.35 56.35 0 0 1 5.11-4.79A47.41 47.41 0 0 1 68 74.64a41.49 41.49 0 0 1 16.35 6.71A27.21 27.21 0 0 1 87.82 84c.45.43.93.81 1.41 1.2a49.35 49.35 0 0 1 8.92 11c.63 1.13 1.29 2.23 1.86 3.38a22.44 22.44 0 0 0 2.31 3.82 4.86 4.86 0 0 0 2.44 1.87 11.65 11.65 0 0 0 5.53-.34c1.35-.32 2.72-.57 4.08-.82a57.08 57.08 0 0 0-4.05-10 31.44 31.44 0 0 0-1.84-3.11 34.62 34.62 0 0 0-2.2-3.4 44 44 0 0 0-3.19-4 24.25 24.25 0 0 0-2.17-2.25 48.26 48.26 0 0 0-10.76-8.41c-1.35-.76-2.73-1.47-4.11-2.18s-2.81-1.25-4.23-1.76a59.64 59.64 0 0 0-6-1.89c-1-.28-2-.42-3-.64a58.71 58.71 0 0 0-8.26-1.08c-1-.11-2.08 0-3.13-.14-1.5-.13-3 .1-4.49.09a49.09 49.09 0 0 0-8.63 1.36A59.53 59.53 0 0 0 18.34 85a57.37 57.37 0 0 0-7.23 10.33c-.37.64-.75 1.27-1.07 1.93a58 58 0 0 0-2.65 6.18c-.69 1.82-1.17 3.68-1.68 5.56a44.86 44.86 0 0 0-1.3 9.15 32 32 0 0 0-.08 5.09 51.45 51.45 0 0 0 .82 6.88 31.28 31.28 0 0 0 .78 3.58 33.71 33.71 0 0 0 1.58 4.9 30 30 0 0 0 1.42 3.63 54 54 0 0 0 3.4 6.42 52.19 52.19 0 0 0 3.18 4.65 62.19 62.19 0 0 0 7 7.76 59.8 59.8 0 0 0 10.4 7.79A50.22 50.22 0 0 0 39 172a52.76 52.76 0 0 0 16.33 4.45 59.77 59.77 0 0 0 7.57.2 63 63 0 0 0 20.36-4.39 64.14 64.14 0 0 0 16.04-9.2z"/><path fill="url(#c)" d="M61.29 127.44a25.2 25.2 0 0 0-3.61 1.24 2.83 2.83 0 0 0 1 .16c1.56-.16 3.11-.41 4.69-.49a20.67 20.67 0 0 1 3-.12 6.92 6.92 0 0 1 .52 2.23c.08-1.48-.64-2.72-.73-4.18h-.52c-1.41.29-2.89.72-4.35 1.16z"/><path fill="url(#d)" d="M119.07 151.62a13 13 0 0 0-.83-3.32 25.1 25.1 0 0 1-3.26 5.24 33 33 0 0 1-3.89 4.21 3.62 3.62 0 0 0-.71.7 14 14 0 0 1-.44 1.92 10.92 10.92 0 0 1-2.07 3 31.66 31.66 0 0 1-5.7 4.76 62.67 62.67 0 0 1-12.85 6.6 39 39 0 0 1-5.82 1.66 67.44 67.44 0 0 1-8.57 1.61c-1.26.09-2.51.26-3.78.32-1.58.17-3.13.05-4.71.11a16.93 16.93 0 0 0 6.87 1.14h7.39a55.25 55.25 0 0 0 21.63-6 44 44 0 0 0 11.28-8.19 25.72 25.72 0 0 0 3.22-4 13.15 13.15 0 0 0 2-4.84 16.92 16.92 0 0 0 .24-4.92z"/></svg>