<svg id="Layer_1" data-name="Layer 1" xmlns="http://www.w3.org/2000/svg" viewBox="0 0 899.96 374.23"><defs><style>.cls-1{fill:#001e61;}.cls-2{fill:#007473;}.cls-3{fill:#f5b335;}.cls-4{fill:#e36386;}.cls-5{fill:#6bdad5;}</style></defs><path class="cls-1" d="M482.48,463.67H441.54l-14.05,35.57H419.7l40.52-101.17h4.48l39.7,101.17h-7.93Zm-38.39-6.34h36.05L466.42,421q-1.73-4.27-4.13-11.86a110.18,110.18,0,0,1-4.07,12Z" transform="translate(-150.02 -126.39)"/><path class="cls-1" d="M577.1,473.25q0,12.62-9.27,20t-24.64,7.37q-18.47,0-28.32-4.06v-7q10.89,4.62,27.77,4.62,12.4,0,19.68-5.69a18,18,0,0,0,7.27-14.92,17.32,17.32,0,0,0-2.41-9.48,22,22,0,0,0-7.86-6.85,96.7,96.7,0,0,0-16-6.69Q527.9,445.2,522,439t-5.89-16.44A22.59,22.59,0,0,1,525,404.17q8.87-7.14,22.78-7.14a66.59,66.59,0,0,1,26.67,5.38l-2.55,6.06a62.23,62.23,0,0,0-24-5.23q-11.16,0-17.78,5.16a16.91,16.91,0,0,0-6.62,14.06,16.24,16.24,0,0,0,8.69,15.61q4.61,2.87,15.85,6.86,11.78,4.06,17.71,7.89a25.36,25.36,0,0,1,8.65,8.68A23.76,23.76,0,0,1,577.1,473.25Z" transform="translate(-150.02 -126.39)"/><path class="cls-1" d="M651.19,473.25q0,12.62-9.27,20t-24.64,7.37q-18.46,0-28.32-4.06v-7q10.88,4.62,27.77,4.62,12.4,0,19.67-5.69a18,18,0,0,0,7.28-14.92,17.24,17.24,0,0,0-2.42-9.48,22,22,0,0,0-7.85-6.85,96.7,96.7,0,0,0-16-6.69Q602,445.2,596.09,439T590.2,422.6a22.59,22.59,0,0,1,8.85-18.43Q607.9,397,621.83,397a66.59,66.59,0,0,1,26.67,5.38L646,408.47a62.23,62.23,0,0,0-24-5.23q-11.18,0-17.78,5.16a16.91,16.91,0,0,0-6.62,14.06,18.5,18.5,0,0,0,2,9.17,18.73,18.73,0,0,0,6.65,6.44q4.62,2.87,15.85,6.86,11.79,4.06,17.72,7.89a25.24,25.24,0,0,1,8.64,8.68A23.66,23.66,0,0,1,651.19,473.25Z" transform="translate(-150.02 -126.39)"/><path class="cls-1" d="M746.57,398.48v65.19q0,17.37-10.07,27.16t-28,9.78q-17.51,0-27.33-9.82t-9.82-27.39V398.48h7.1v65.19q0,14.55,8.06,22.64t22.81,8.1q14.41,0,22.33-8t7.93-22.09V398.48Z" transform="translate(-150.02 -126.39)"/><path class="cls-1" d="M775.38,455.34v43.9h-7V398.48h24q18.75,0,27.71,6.93t9,20.84q0,10.14-5.35,17.09t-16.23,10l27.36,45.9h-8.4l-26-43.9Zm0-6.07h19.23q12.75,0,19.78-5.68t7-16.79q0-11.51-6.89-16.74t-22.46-5.24H775.38Z" transform="translate(-150.02 -126.39)"/><path class="cls-1" d="M904.46,499.24H849.4V398.48h55.06V405h-48v38.11h45.34v6.48H856.43v43.21h48Z" transform="translate(-150.02 -126.39)"/><path class="cls-1" d="M1003.77,447.89q0,25.37-13.3,38.35t-39.08,13H927.27V398.48h27.22q24.12,0,36.7,12.61T1003.77,447.89Zm-7.65.28q0-21.65-11-32.56t-32.29-10.93H934.3V493H951Q996.12,493,996.12,448.17Z" transform="translate(-150.02 -126.39)"/><path class="cls-1" d="M418.91,219.45h39.15l56.51,139.64h-43.2l-9.84-28.55H413.7l-10.22,28.55H362.4Zm18.9,42.43c-2.7,8.87-5.4,17-8.68,26l-4.82,13.31h27l-4.63-13.31c-3.27-9.45-5.78-17.36-8.48-26Z" transform="translate(-150.02 -126.39)"/><path class="cls-1" d="M525.19,264.2H562.6v7.33l.39.19c6.17-4.63,15.81-9.64,27.58-9.64,10.22,0,18.9,3.85,24.3,9.06,6.17,6,9.26,14.47,9.26,28.35v59.6H585.94V305.28c0-4.25-1-7.33-2.7-9.07a9.89,9.89,0,0,0-7.33-2.7,19,19,0,0,0-12.54,5v60.56H525.19Z" transform="translate(-150.02 -126.39)"/><path class="cls-1" d="M704.74,351.18c-6.94,5.59-16,10-27,10a36.55,36.55,0,0,1-24.3-8.68c-6.75-6.17-9.83-15-9.83-29.32v-59h38.18v54c0,5,1,7.33,2.7,9.06a9.74,9.74,0,0,0,7.14,2.7,19.38,19.38,0,0,0,12.73-5.4V264.2h38.19v94.89H705.13v-7.72Z" transform="translate(-150.02 -126.39)"/><path class="cls-1" d="M762.8,211.74H801v91.42l.38.19L828,264.2h42L838.4,306.63l33,52.46H827.8l-26.43-46.68-.38.2v46.48H762.8Z" transform="translate(-150.02 -126.39)"/><path class="cls-1" d="M962.8,353.88c-10,4.63-24.1,7.33-37,7.33-33.55,0-56.5-18.52-56.5-48.6,0-31.25,24.49-50.53,51.49-50.53,23.34,0,47.45,14.46,47.45,48.6a77.33,77.33,0,0,1-.58,9.64H908c3.67,10,12.73,13.5,23,13.5,8.87,0,20.45-2.7,31.82-8.87Zm-28.93-53.23c-1.73-8.68-7.71-11.57-13.3-11.57-6.75,0-11.38,4.24-13.12,11.57Z" transform="translate(-150.02 -126.39)"/><path class="cls-1" d="M1050,356.58c-5.4,2.51-14.66,4.63-23.72,4.63-11.77,0-21.79-3.67-28-9.84-5.4-5.4-9.25-13.5-9.25-29.89v-27.2H975V264.2H989V240.47l38.18-6.55V264.2H1050v30.08h-22.76v24.5c0,7.52,2.32,11.76,9.45,11.76,4.25,0,9.26-1.54,13.31-3.08Z" transform="translate(-150.02 -126.39)"/><path class="cls-2" d="M292.24,461.77s-39.69-37.77-12.74-117S353.05,190,258,128.72c0,0,40.78,34.09,31,97.2S201.21,406,292.24,461.77Z" transform="translate(-150.02 -126.39)"/><path class="cls-3" d="M292.32,461.85s-25.21-33.18-11.22-76.72,74.67-128.41,45.52-197.31c0,0,34.61,48.44,8.3,111.15S266.66,409.74,292.32,461.85Z" transform="translate(-150.02 -126.39)"/><path class="cls-4" d="M271.57,211.84a58.16,58.16,0,1,0-116.31,0c0,1.16,0,2.31.1,3.46a63.4,63.4,0,1,1,116.11,0C271.53,214.15,271.57,213,271.57,211.84Z" transform="translate(-150.02 -126.39)"/><path class="cls-5" d="M304.74,394.52c-8.43,16.24-12.44,32.51-12.34,46.63-3-16.27.59-37,11.34-57.69,16.67-32.11,46.18-62.09,44.44-107.88C355.63,327.74,322.72,359.89,304.74,394.52Z" transform="translate(-150.02 -126.39)"/><path class="cls-2" d="M292.24,461.77s-39.69-37.77-12.74-117S353.05,190,258,128.72c0,0,40.78,34.09,31,97.2S201.21,406,292.24,461.77Z" transform="translate(-150.02 -126.39)"/><path class="cls-3" d="M292.32,461.85s-25.21-33.18-11.22-76.72,74.67-128.41,45.52-197.31c0,0,34.61,48.44,8.3,111.15S266.66,409.74,292.32,461.85Z" transform="translate(-150.02 -126.39)"/><path class="cls-4" d="M271.57,211.84a58.16,58.16,0,1,0-116.31,0c0,1.16,0,2.31.1,3.46a63.4,63.4,0,1,1,116.11,0C271.53,214.15,271.57,213,271.57,211.84Z" transform="translate(-150.02 -126.39)"/><path class="cls-5" d="M304.74,394.52c-8.43,16.24-12.44,32.51-12.34,46.63-3-16.27.59-37,11.34-57.69,16.67-32.11,46.18-62.09,44.44-107.88C355.63,327.74,322.72,359.89,304.74,394.52Z" transform="translate(-150.02 -126.39)"/></svg>